<svg width="751" height="769" viewBox="0 0 751 769" fill="none" xmlns="http://www.w3.org/2000/svg">
<path d="M714.509 0C724.202 0 732.683 3.6349 739.953 10.9047C747.223 18.1745 750.857 26.6559 750.857 36.3489V732.172C750.857 741.865 747.223 750.346 739.953 757.616C732.683 764.886 724.202 768.521 714.509 768.521H635.579C625.194 768.521 616.539 764.886 609.616 757.616C602.692 750.346 599.23 741.865 599.23 732.172V262.751L407.1 509.924C399.484 518.924 389.791 523.425 378.021 523.425C372.482 523.425 366.943 522.213 361.404 519.79C355.866 517.367 351.711 513.732 348.942 508.885L8.3003 58.1583C4.14614 53.3118 1.72287 47.2536 1.03051 39.9838C0.338151 32.7141 1.72288 26.1366 5.18468 20.2516C8.64649 14.3665 13.1468 9.51997 18.6857 5.71198C24.2246 1.904 30.4559 0 37.3795 0H128.771C140.541 0 150.234 4.84654 157.85 14.5396L378.021 305.331L592.999 14.5396C600.615 4.84654 610.654 0 623.117 0H714.509ZM116.309 503.693C126.002 503.693 134.483 507.154 141.753 514.078C149.023 521.002 152.658 529.656 152.658 540.042V732.172C152.658 741.865 149.023 750.346 141.753 757.616C134.483 764.886 126.002 768.521 116.309 768.521H37.3795C27.6864 768.521 19.205 764.886 11.9352 757.616C4.66541 750.346 1.03051 741.865 1.03051 732.172V540.042C1.03051 529.656 4.66541 521.002 11.9352 514.078C19.205 507.154 27.6864 503.693 37.3795 503.693H116.309Z" fill="url(#paint0_linear_360_3529)"/>
<defs>
<linearGradient id="paint0_linear_360_3529" x1="0.857422" y1="0" x2="750.857" y2="0" gradientUnits="userSpaceOnUse">
<stop stop-color="#00DDFF"/>
<stop offset="1" stop-color="#FF00D4"/>
</linearGradient>
</defs>
</svg>
