<svg width="704" height="482" viewBox="0 0 704 482" fill="none" xmlns="http://www.w3.org/2000/svg">
<g filter="url(#filter0_d_10_5488)">
<rect x="12" y="8" width="672" height="450" rx="24" fill="url(#paint0_linear_10_5488)"/>
<rect x="17" y="13" width="662" height="440" rx="19" stroke="white" stroke-width="10"/>
</g>
<g clip-path="url(#clip0_10_5488)">
<path d="M221.469 197.571H209.697C208.491 197.571 207.51 196.59 207.51 195.384V183.765C207.51 181.623 207.006 179.616 205.53 178.68C204.243 177.87 202.551 178.761 202.317 180.255C201.777 183.711 200.166 190.713 195.666 195.069C194.271 196.419 193.209 199.2 193.209 201.144V221.916C193.209 223.95 196.782 225.597 201.129 225.597H218.949C222.396 225.597 225.195 222.798 225.195 219.351V216.66C225.195 214.68 225.807 212.781 226.716 211.026C227.373 209.757 227.724 208.335 227.724 206.904V203.817C227.724 200.37 224.925 197.571 221.478 197.571H221.469Z" fill="#EBEBEB"/>
<path d="M190.87 198.327H183.265V224.058H190.87V198.327Z" fill="#EBEBEB"/>
<path d="M466.864 272.703L473.433 254.64C475.881 255.531 478.122 256.908 480.021 258.699C481.92 260.481 483.433 262.641 484.477 265.026L466.854 272.703H466.864Z" fill="#F5F5F5"/>
<path d="M466.864 272.703L472.462 291.09C470.644 291.639 468.754 291.927 466.864 291.927C456.316 291.927 447.64 283.251 447.64 272.703C447.64 262.155 456.316 253.479 466.864 253.479C469.078 253.479 471.274 253.857 473.353 254.604L466.864 272.694V272.703Z" fill="#F6F9FC"/>
<path d="M466.863 272.703L484.521 265.107C485.556 267.51 486.087 270.093 486.087 272.703C486.087 281.109 480.57 288.588 472.542 291.072L466.863 272.703Z" fill="#EBEBEB"/>
<path d="M263.643 285.798C261.438 289.155 259.953 292.845 259.161 296.652L253.104 297.219V308.955L259.161 309.522C259.953 313.329 261.438 317.01 263.643 320.376L259.773 325.047L268.071 333.345L272.742 329.475C276.099 331.68 279.789 333.165 283.596 333.957L284.164 340.014H295.899L296.466 333.957C300.273 333.165 303.963 331.68 307.32 329.475L311.991 333.345L320.289 325.047L316.419 320.376C318.624 317.019 320.109 313.329 320.901 309.522L326.958 308.955V297.219L320.901 296.652C320.109 292.845 318.624 289.155 316.419 285.798L320.289 281.127L311.991 272.829L307.32 276.699C303.963 274.494 300.273 273.009 296.466 272.217L295.899 266.16H284.164L283.596 272.217C279.789 273.009 276.099 274.494 272.742 276.699L268.071 272.829L259.773 281.127L263.643 285.798ZM301.038 292.089C307.113 298.164 307.113 308.01 301.038 314.085C294.963 320.16 285.117 320.16 279.042 314.085C272.967 308.01 272.967 298.164 279.042 292.089C285.117 286.014 294.963 286.014 301.038 292.089Z" fill="#F0F0F0"/>
<path d="M247.209 126.003C243.627 131.448 241.224 137.433 239.946 143.607L230.109 144.534V163.578L239.946 164.505C241.224 170.679 243.636 176.664 247.209 182.109L240.927 189.696L254.391 203.16L261.978 196.878C267.432 200.46 273.417 202.863 279.582 204.141L280.509 213.978H299.553L300.48 204.141C306.654 202.863 312.639 200.451 318.084 196.878L325.671 203.16L339.135 189.696L332.853 182.109C336.426 176.655 338.838 170.67 340.116 164.505L349.944 163.578V144.534L340.116 143.607C338.838 137.433 336.426 131.448 332.853 126.003L339.135 118.416L325.671 104.952L318.084 111.234C312.63 107.652 306.645 105.249 300.48 103.971L299.553 94.1338H280.509L279.582 103.971C273.408 105.249 267.423 107.661 261.978 111.234L254.391 104.952L240.927 118.416L247.209 126.003ZM307.878 136.209C317.733 146.064 317.733 162.039 307.878 171.894C298.023 181.749 282.039 181.749 272.193 171.894C262.338 162.039 262.338 146.064 272.193 136.209C282.048 126.354 298.023 126.354 307.878 136.209Z" fill="#F5F5F5"/>
<path d="M383.73 189.012C381.093 193.035 379.311 197.445 378.366 202.008L371.112 202.692V216.741L378.366 217.425C379.311 221.979 381.084 226.398 383.73 230.412L379.095 236.01L389.031 245.946L394.629 241.311C398.652 243.948 403.062 245.73 407.616 246.675L408.3 253.929H422.349L423.033 246.675C427.587 245.73 432.006 243.957 436.029 241.311L441.627 245.946L451.563 236.01L446.928 230.412C449.565 226.389 451.347 221.979 452.292 217.425L459.546 216.741V202.692L452.292 202.008C451.347 197.454 449.574 193.035 446.928 189.021L451.563 183.423L441.627 173.487L436.029 178.122C432.006 175.485 427.587 173.703 423.042 172.758L422.358 165.504H408.309L407.625 172.758C403.071 173.703 398.652 175.476 394.638 178.122L389.04 173.487L379.104 183.423L383.739 189.021L383.73 189.012ZM428.496 196.545C435.768 203.817 435.768 215.607 428.496 222.879C421.224 230.151 409.434 230.151 402.162 222.879C394.89 215.607 394.89 203.817 402.162 196.545C409.434 189.273 421.224 189.273 428.496 196.545Z" fill="#F0F0F0"/>
<path d="M213.208 262.371C211.867 264.414 210.967 266.655 210.49 268.959L206.809 269.301V276.429L210.49 276.78C210.967 279.093 211.867 281.334 213.208 283.368L210.859 286.203L215.899 291.243L218.734 288.894C220.777 290.235 223.018 291.135 225.322 291.612L225.673 295.293H232.801L233.152 291.612C235.465 291.135 237.706 290.235 239.74 288.894L242.575 291.243L247.615 286.203L245.266 283.368C246.607 281.325 247.507 279.084 247.984 276.78L251.665 276.429V269.301L247.984 268.95C247.507 266.637 246.607 264.396 245.266 262.362L247.615 259.527L242.575 254.487L239.74 256.836C237.697 255.495 235.456 254.595 233.152 254.118L232.801 250.437H225.673L225.322 254.118C223.009 254.595 220.768 255.495 218.734 256.836L215.899 254.487L210.859 259.527L213.208 262.362V262.371ZM235.915 266.196C239.605 269.886 239.605 275.862 235.915 279.552C232.225 283.242 226.249 283.242 222.559 279.552C218.869 275.862 218.869 269.886 222.559 266.196C226.249 262.506 232.225 262.506 235.915 266.196Z" fill="#F6F9FC"/>
<path d="M466.98 155.622C465.639 157.665 464.739 159.906 464.262 162.21L460.581 162.561V169.689L464.262 170.04C464.739 172.353 465.639 174.594 466.98 176.628L464.631 179.463L469.671 184.503L472.506 182.154C474.549 183.495 476.79 184.395 479.094 184.872L479.445 188.553H486.573L486.924 184.872C489.237 184.395 491.478 183.495 493.512 182.154L496.347 184.503L501.387 179.463L499.038 176.628C500.379 174.585 501.279 172.344 501.756 170.04L505.437 169.689V162.561L501.756 162.21C501.279 159.897 500.379 157.656 499.038 155.622L501.387 152.787L496.347 147.747L493.512 150.096C491.469 148.755 489.228 147.855 486.924 147.378L486.573 143.697H479.445L479.094 147.378C476.781 147.855 474.54 148.755 472.506 150.096L469.671 147.747L464.631 152.787L466.98 155.622ZM489.687 159.447C493.377 163.137 493.377 169.113 489.687 172.803C485.997 176.493 480.021 176.493 476.331 172.803C472.641 169.113 472.641 163.137 476.331 159.447C480.021 155.757 485.997 155.757 489.687 159.447Z" fill="#F6F9FC"/>
<path d="M476.412 218.946C475.593 220.197 475.035 221.574 474.747 222.987L472.488 223.203V227.577L474.747 227.793C475.044 229.206 475.593 230.583 476.412 231.834L474.972 233.58L478.068 236.676L479.814 235.236C481.065 236.055 482.442 236.613 483.855 236.901L484.071 239.16H488.445L488.661 236.901C490.083 236.604 491.451 236.055 492.702 235.236L494.448 236.676L497.544 233.58L496.104 231.834C496.923 230.583 497.481 229.206 497.769 227.793L500.028 227.577V223.203L497.769 222.987C497.472 221.574 496.923 220.197 496.104 218.946L497.544 217.2L494.448 214.104L492.702 215.544C491.451 214.725 490.074 214.167 488.661 213.879L488.445 211.62H484.071L483.855 213.879C482.433 214.176 481.065 214.725 479.814 215.544L478.068 214.104L474.972 217.2L476.412 218.946ZM490.344 221.295C492.603 223.554 492.603 227.226 490.344 229.494C488.085 231.753 484.413 231.753 482.145 229.494C479.886 227.235 479.886 223.563 482.145 221.295C484.404 219.036 488.076 219.036 490.344 221.295Z" fill="#F0F0F0"/>
<path d="M202.066 329.349H188.179V365.871H202.066V329.349Z" fill="#F6F9FC"/>
<path d="M219.372 340.958H205.485V365.87H219.372V340.958Z" fill="#F6F9FC"/>
<path d="M236.185 353.415H222.298V365.871H236.185V353.415Z" fill="#F6F9FC"/>
<path d="M196.44 413.868H181.986V414.093H196.44V413.868Z" fill="#F6F9FC"/>
<path d="M336.975 411.429H288.798V411.654H336.975V411.429Z" fill="#F6F9FC"/>
<path d="M229.965 422.229H197.34V422.454H229.965V422.229Z" fill="#F6F9FC"/>
<path d="M528.586 411.312H522.889V411.537H528.586V411.312Z" fill="#F6F9FC"/>
<path d="M505.743 318.036L485.745 316.515L493.413 325.524L464.235 348.672L415.365 348.555L339.99 389.604H204.864L154.185 459.849H193.452L221.289 421.707H339.99L415.284 381.837L475.8 381.972L515.013 350.859L522.402 359.526L524.067 339.537L525.741 319.548L505.743 318.036Z" fill="#2FB4F7"/>
<path opacity="0.1" d="M491.909 326.82C491.909 326.82 510.431 353.496 511.898 353.109C513.365 352.722 515.201 351.066 515.201 351.066L493.232 325.299L491.909 326.82Z" fill="black"/>
<path d="M418.973 130.042C426.735 123.51 427.732 111.922 421.201 104.16C414.669 96.3974 403.081 95.3999 395.319 101.932C387.556 108.464 386.559 120.051 393.091 127.814C399.623 135.576 411.21 136.574 418.973 130.042Z" fill="#2FB4F7"/>
<path d="M397.913 127.029L393.197 127.407L392.378 133.311L398.075 131.907L397.913 127.029Z" fill="#2FB4F7"/>
<path d="M427.542 112.755C427.425 112.755 427.326 112.665 427.317 112.557C426.705 106.716 422.916 101.244 417.66 98.6159C417.552 98.5619 417.507 98.4269 417.561 98.3099C417.615 98.2019 417.75 98.1569 417.858 98.2109C423.249 100.902 427.137 106.518 427.767 112.512C427.776 112.638 427.686 112.746 427.569 112.755C427.569 112.755 427.551 112.755 427.542 112.755Z" fill="#2FB4F7"/>
<path d="M427.658 118.209C427.658 118.209 427.622 118.209 427.604 118.209C427.487 118.182 427.406 118.056 427.433 117.939C427.64 117.084 427.658 116.184 427.505 115.32C427.487 115.194 427.568 115.077 427.685 115.059C427.811 115.041 427.928 115.122 427.946 115.239C428.117 116.157 428.09 117.129 427.874 118.047C427.847 118.146 427.757 118.218 427.658 118.218V118.209Z" fill="#2FB4F7"/>
<path d="M400.289 111.486C399.713 112.359 399.335 113.313 399.128 114.303L397.553 114.447V117.489L399.128 117.633C399.335 118.623 399.713 119.577 400.289 120.45L399.29 121.665L401.441 123.816L402.656 122.817C403.529 123.393 404.483 123.771 405.473 123.978L405.617 125.553H408.659L408.803 123.978C409.793 123.771 410.747 123.393 411.62 122.817L412.835 123.816L414.986 121.665L413.987 120.45C414.554 119.577 414.941 118.623 415.148 117.633L416.723 117.489V114.447L415.148 114.303C414.941 113.313 414.563 112.359 413.987 111.486L414.986 110.271L412.835 108.12L411.62 109.119C410.747 108.543 409.793 108.165 408.803 107.958L408.659 106.383H405.617L405.473 107.958C404.483 108.165 403.529 108.543 402.656 109.119L401.441 108.12L399.29 110.271L400.289 111.486ZM410.045 113.052C411.656 114.663 411.656 117.264 410.045 118.875C408.434 120.486 405.833 120.486 404.222 118.875C402.611 117.264 402.611 114.663 404.222 113.052C405.833 111.441 408.434 111.441 410.045 113.052Z" fill="white"/>
<path d="M285.126 225.516C285.126 225.516 289.95 218.28 296.007 219.81C302.064 221.34 302.424 231.186 302.424 231.186L299.067 230.016C299.067 230.016 300.165 222.87 295.854 221.853C291.552 220.836 287.502 226.596 287.502 226.596L285.567 225.579" fill="#263238"/>
<path d="M253.608 259.833L255.444 255.063L268.746 220.566L319.992 236.046L309.345 277.473L253.608 259.833Z" fill="#635BFF"/>
<path d="M296.836 209.73C296.062 209.991 291.661 215.265 290.788 216.768C289.915 218.271 289.807 219.252 290.482 219.765C291.157 220.278 291.931 220.8 292.138 220.8C292.345 220.8 291.418 222.348 292.606 223.131C293.794 223.914 294.415 223.752 294.415 223.752C294.415 223.752 294.109 226.029 295.657 226.65C297.205 227.271 297.88 226.551 298.141 226.65C298.402 226.749 299.797 224.112 299.797 224.112L301.606 226.902C301.606 226.902 302.434 226.083 303.262 224.526C304.09 222.978 304.036 218.577 304.036 218.577L303.208 214.644L304.603 209.001C304.603 209.001 297.772 208.074 297.727 208.227C297.673 208.38 296.845 209.73 296.845 209.73H296.836Z" fill="#E9B376"/>
<path opacity="0.2" d="M268.746 220.566C268.746 220.566 271.851 242.634 286.8 244.227C301.749 245.82 319.992 236.037 319.992 236.037" fill="black"/>
<path opacity="0.2" d="M310.965 271.173L255.75 254.28L253.608 259.833L309.345 277.473L310.965 271.173Z" fill="black"/>
<path d="M431.755 215.292C431.755 215.292 431.935 215.904 431.215 217.128C430.495 218.352 428.902 217.488 428.911 217.695C428.911 217.902 428.434 218.703 427.948 219.396C427.462 220.089 426.472 220.026 424.942 219.216C423.403 218.397 417.949 214.23 417.661 213.465C417.661 213.465 416.284 212.691 416.122 212.646C415.96 212.601 416.599 205.743 416.599 205.743L422.296 206.895L426.184 205.905C426.184 205.905 430.576 205.671 432.16 206.427C432.439 206.562 432.691 206.697 432.925 206.823C433.78 207.309 433.834 208.524 433.033 209.1L431.899 209.91C431.899 209.91 433.015 210.504 433.798 210.981C434.311 211.287 434.617 211.863 434.536 212.457C434.518 212.583 434.491 212.7 434.455 212.799C434.185 213.501 433.429 213.285 433.429 213.285C433.429 213.285 433.591 214.626 432.205 215.085C431.692 215.256 431.773 215.31 431.773 215.31L431.755 215.292Z" fill="#FFB573"/>
<path opacity="0.1" d="M428.839 212.213C428.596 212.213 428.353 212.159 428.11 212.042C427.849 211.916 427.642 211.664 427.507 211.295C427.282 210.674 427.309 210.035 427.435 209.36C427.048 209.774 426.616 210.134 426.139 210.44C425.689 210.728 425.302 210.89 424.915 210.953C424.402 211.034 423.907 210.926 423.556 210.638C423.457 210.557 423.448 210.422 423.52 210.323C423.601 210.224 423.745 210.215 423.835 210.287C424.087 210.494 424.447 210.566 424.834 210.503C425.149 210.449 425.491 210.305 425.887 210.053C426.58 209.612 427.192 209.027 427.66 208.343C427.696 208.217 427.777 207.92 428.047 207.83C428.128 207.803 428.236 207.83 428.29 207.911C428.344 207.983 428.353 208.082 428.308 208.163C428.236 208.289 428.155 208.415 428.074 208.532C427.822 209.486 427.642 210.35 427.921 211.124C427.984 211.295 428.101 211.529 428.29 211.619C428.578 211.754 428.992 211.817 429.307 211.61C429.811 211.268 430.315 210.872 430.891 210.404C431.278 210.098 431.692 209.765 432.151 209.414C432.25 209.342 432.394 209.36 432.466 209.459C432.538 209.558 432.52 209.702 432.421 209.774C431.962 210.125 431.548 210.449 431.17 210.755C430.585 211.223 430.072 211.637 429.55 211.988C429.343 212.132 429.082 212.204 428.812 212.204L428.839 212.213Z" fill="#263238"/>
<path opacity="0.1" d="M425.599 218.874C425.32 218.874 425.086 218.685 424.924 218.532C424.546 218.163 424.213 217.758 423.925 217.317C423.574 216.777 423.466 216.318 423.61 215.931C423.736 215.571 424.087 215.292 424.519 215.202C424.897 215.121 425.275 215.175 425.599 215.247C425.959 215.319 426.31 215.418 426.652 215.544C426.553 215.409 426.463 215.256 426.382 215.112C426.139 214.644 426.004 213.96 426.454 213.555C426.85 213.204 427.426 213.321 427.822 213.438C429.145 213.825 430.432 214.356 431.647 215.022C431.755 215.085 431.791 215.22 431.737 215.328C431.674 215.436 431.539 215.472 431.431 215.418C430.243 214.77 428.992 214.248 427.696 213.87C427.399 213.78 426.985 213.69 426.76 213.897C426.526 214.113 426.607 214.554 426.787 214.905C427.03 215.364 427.39 215.76 427.813 216.066C427.966 216.156 428.128 216.246 428.281 216.336C428.38 216.399 428.416 216.534 428.362 216.633C428.299 216.741 428.173 216.777 428.065 216.723C427.894 216.642 427.732 216.552 427.579 216.444C426.931 216.093 426.238 215.841 425.509 215.697C425.221 215.634 424.906 215.589 424.618 215.652C424.339 215.715 424.114 215.886 424.033 216.102C423.943 216.354 424.033 216.678 424.303 217.092C424.573 217.506 424.888 217.884 425.239 218.235C425.401 218.397 425.527 218.469 425.626 218.451C425.752 218.433 425.869 218.514 425.887 218.631C425.905 218.757 425.824 218.874 425.707 218.892C425.671 218.892 425.635 218.901 425.599 218.901V218.874Z" fill="#263238"/>
<path opacity="0.1" d="M427.336 213.771C427.273 213.771 427.201 213.744 427.156 213.69C426.931 213.402 426.787 213.042 426.76 212.673C426.742 212.376 426.796 212.106 426.922 211.89C427.075 211.62 427.354 211.44 427.642 211.413C427.768 211.404 427.876 211.494 427.885 211.62C427.894 211.746 427.804 211.854 427.678 211.863C427.543 211.872 427.399 211.971 427.318 212.115C427.219 212.286 427.21 212.502 427.219 212.646C427.237 212.925 427.345 213.204 427.525 213.42C427.597 213.519 427.588 213.663 427.489 213.735C427.444 213.771 427.399 213.78 427.345 213.78L427.336 213.771Z" fill="#263238"/>
<path opacity="0.1" d="M433.357 213.456C433.357 213.456 433.276 213.447 433.24 213.42C432.034 212.646 431.26 212.25 429.928 211.719C429.811 211.674 429.757 211.539 429.802 211.422C429.847 211.305 429.982 211.251 430.099 211.296C431.458 211.845 432.25 212.25 433.483 213.042C433.591 213.105 433.618 213.249 433.555 213.357C433.51 213.42 433.438 213.465 433.366 213.465L433.357 213.456Z" fill="#263238"/>
<path d="M295.009 331.122L286.486 349.707L294.28 353.973L305.872 335.199L295.009 331.122Z" fill="#FFB573"/>
<path d="M288.215 348.789C288.728 350.31 291.058 351.39 292.498 351.147L293.326 349.698C294.181 348.564 294.937 348.213 296.179 349.104C296.791 349.536 297.178 350.778 297.079 352.245C296.899 354.891 297.565 356.358 297.565 356.358C297.565 356.358 301.903 362.523 303.685 364.332C304.747 365.412 306.124 366.915 306.304 368.769C306.349 369.3 306.34 369.885 306.25 370.542C306.178 371.082 305.629 372.09 305.611 372.108L290.563 363.954C290.563 363.954 289.51 362.226 288.844 361.902C287.665 361.317 286.594 362.046 286.594 362.046L281.104 359.121C281.104 359.121 281.455 358.221 281.968 356.907C282.202 356.313 282.463 355.638 282.742 354.927C283.939 351.876 286.144 348.663 286.495 347.799C287.098 346.287 288.223 348.789 288.223 348.789H288.215Z" fill="#263238"/>
<path d="M299.978 359.553C299.942 359.454 299.843 359.391 299.735 359.4C299.258 359.427 298.781 359.589 298.367 359.868C298.151 360.021 298.367 360.39 298.592 360.246C298.961 359.994 299.375 359.85 299.798 359.823C299.942 359.814 300.032 359.688 299.978 359.553Z" fill="#635BFF"/>
<path d="M299.158 358.293C299.122 358.194 299.023 358.131 298.915 358.14C298.438 358.167 297.961 358.329 297.547 358.608C297.331 358.761 297.547 359.13 297.772 358.986C298.141 358.734 298.555 358.59 298.978 358.563C299.122 358.554 299.212 358.428 299.158 358.293Z" fill="#635BFF"/>
<path d="M298.276 357.06C298.24 356.961 298.141 356.898 298.033 356.907C297.556 356.934 297.079 357.096 296.665 357.375C296.449 357.528 296.665 357.897 296.89 357.753C297.259 357.501 297.673 357.357 298.096 357.33C298.24 357.321 298.33 357.195 298.276 357.06Z" fill="#635BFF"/>
<path opacity="0.2" d="M306.295 369.74C306.286 370.01 306.259 370.298 306.223 370.595C306.151 371.135 305.602 372.143 305.584 372.161L290.536 364.007C290.536 364.007 289.483 362.279 288.817 361.955C287.638 361.37 286.567 362.099 286.567 362.099L281.077 359.174C281.077 359.174 281.428 358.274 281.941 356.96C281.977 356.852 282.031 356.735 282.067 356.627L306.295 369.74Z" fill="white"/>
<path d="M297.664 357.465L297.835 357.078C298.069 356.529 298.321 355.962 298.663 355.449C299.059 354.855 299.518 354.423 300.04 354.162C300.427 353.973 300.787 353.955 301.048 354.117C301.399 354.333 301.462 354.774 301.417 355.125C301.336 355.701 300.976 356.259 300.427 356.646C299.905 357.024 298.492 357.312 298.078 357.384L297.664 357.465ZM300.634 354.459C300.481 354.459 300.319 354.531 300.238 354.567C299.788 354.792 299.383 355.17 299.032 355.692C298.789 356.052 298.6 356.457 298.42 356.853C299.113 356.7 299.869 356.484 300.166 356.277C300.607 355.962 300.904 355.521 300.967 355.062C300.994 354.864 300.967 354.603 300.805 354.504C300.751 354.468 300.688 354.459 300.625 354.459H300.634Z" fill="#635BFF"/>
<path d="M298.16 357.573L297.836 357.303C297.503 357.033 296.414 356.106 296.135 355.521C295.847 354.918 295.793 354.261 296 353.712C296.126 353.388 296.396 353.028 296.81 353.01C297.116 353.01 297.422 353.172 297.674 353.532C298.007 354.009 298.205 354.612 298.268 355.323C298.322 355.935 298.268 356.547 298.205 357.141L298.169 357.564L298.16 357.573ZM296.846 353.46C296.846 353.46 296.837 353.46 296.828 353.46C296.639 353.469 296.486 353.685 296.414 353.874C296.252 354.306 296.297 354.837 296.531 355.332C296.693 355.665 297.251 356.214 297.782 356.682C297.818 356.241 297.845 355.8 297.809 355.368C297.755 354.738 297.584 354.207 297.296 353.802C297.206 353.676 297.035 353.469 296.837 353.469L296.846 353.46Z" fill="#635BFF"/>
<path d="M377.755 287.382L369.241 305.967L377.026 310.233L388.618 291.459L377.755 287.382Z" fill="#FFB573"/>
<path d="M370.961 305.049C371.474 306.57 373.805 307.65 375.245 307.407L376.073 305.958C376.928 304.824 377.684 304.473 378.926 305.364C379.538 305.796 379.925 307.029 379.826 308.505C379.646 311.151 380.312 312.618 380.312 312.618C380.312 312.618 384.65 318.783 386.432 320.592C387.494 321.672 388.871 323.175 389.051 325.029C389.096 325.56 389.087 326.145 388.997 326.802C388.925 327.342 388.376 328.35 388.358 328.368L373.31 320.214C373.31 320.214 372.257 318.486 371.591 318.162C370.412 317.577 369.341 318.306 369.341 318.306L363.851 315.381C363.851 315.381 364.202 314.481 364.715 313.167C364.949 312.573 365.21 311.898 365.489 311.187C366.686 308.136 368.891 304.923 369.242 304.059C369.845 302.547 370.97 305.049 370.97 305.049H370.961Z" fill="#263238"/>
<path d="M382.724 315.804C382.688 315.705 382.589 315.642 382.481 315.651C382.004 315.678 381.527 315.84 381.113 316.119C380.897 316.272 381.113 316.641 381.338 316.497C381.707 316.245 382.121 316.101 382.544 316.074C382.688 316.065 382.778 315.939 382.724 315.804Z" fill="#635BFF"/>
<path d="M381.904 314.553C381.868 314.454 381.769 314.391 381.661 314.4C381.184 314.427 380.707 314.589 380.293 314.868C380.077 315.021 380.293 315.39 380.518 315.246C380.887 314.994 381.301 314.85 381.724 314.823C381.868 314.814 381.958 314.688 381.904 314.553Z" fill="#635BFF"/>
<path d="M381.023 313.32C380.987 313.221 380.888 313.158 380.78 313.167C380.303 313.194 379.826 313.356 379.412 313.635C379.196 313.788 379.412 314.157 379.637 314.013C380.006 313.761 380.42 313.617 380.843 313.59C380.987 313.581 381.077 313.455 381.023 313.32Z" fill="#635BFF"/>
<path opacity="0.2" d="M389.041 326.001C389.032 326.271 389.005 326.559 388.969 326.856C388.897 327.396 388.348 328.404 388.33 328.422L373.282 320.268C373.282 320.268 372.229 318.54 371.563 318.216C370.384 317.631 369.313 318.36 369.313 318.36L363.823 315.435C363.823 315.435 364.174 314.535 364.687 313.221C364.732 313.113 364.777 312.996 364.813 312.888L389.041 326.001Z" fill="white"/>
<path d="M380.41 313.725L380.581 313.338C380.815 312.789 381.067 312.231 381.4 311.709C381.796 311.115 382.264 310.683 382.777 310.422C383.164 310.233 383.524 310.215 383.785 310.377C384.127 310.593 384.199 311.034 384.154 311.385C384.073 311.961 383.713 312.519 383.173 312.906C382.66 313.266 381.364 313.545 380.824 313.644L380.41 313.725ZM383.38 310.719C383.227 310.719 383.065 310.791 382.984 310.827C382.534 311.052 382.129 311.43 381.778 311.952C381.535 312.312 381.346 312.717 381.166 313.113C381.859 312.96 382.624 312.744 382.912 312.537C383.353 312.222 383.65 311.772 383.713 311.322C383.74 311.133 383.713 310.863 383.551 310.764C383.497 310.728 383.434 310.719 383.371 310.719H383.38Z" fill="#635BFF"/>
<path d="M380.905 313.833L380.581 313.563C380.158 313.212 379.15 312.348 378.88 311.781C378.592 311.178 378.547 310.521 378.745 309.972C378.871 309.648 379.141 309.288 379.555 309.27C379.888 309.252 380.176 309.441 380.419 309.792C380.752 310.269 380.95 310.872 381.013 311.583C381.067 312.195 381.013 312.816 380.95 313.41L380.914 313.833H380.905ZM379.591 309.72C379.591 309.72 379.582 309.72 379.573 309.72C379.384 309.729 379.231 309.945 379.159 310.134C378.997 310.566 379.042 311.097 379.276 311.592C379.429 311.916 379.996 312.474 380.527 312.942C380.563 312.501 380.59 312.06 380.554 311.628C380.5 310.998 380.329 310.467 380.041 310.062C379.969 309.963 379.789 309.729 379.582 309.729L379.591 309.72Z" fill="#635BFF"/>
<path d="M328.985 228.045C328.985 228.045 326.906 237.774 329.939 246.297L317.987 289.479C317.987 289.479 286.586 344.019 287.531 344.253C288.476 344.487 303.704 353.595 303.704 353.595C303.704 353.595 334.178 306.309 338.597 300.018C343.016 293.727 361.196 245.559 361.196 245.559L328.985 228.036V228.045Z" fill="#263238"/>
<path opacity="0.3" d="M340.819 232.023C340.234 233.769 335.986 238.557 335.347 240.555C335.149 241.14 330.514 238.593 330.316 239.196C334.06 244.434 348.136 251.49 357.631 255.855C359.125 252.174 359.512 250.563 360.727 247.404C362.599 242.67 364.642 238.953 365.695 236.226C357.199 234.408 347.83 232.977 340.819 232.014V232.023Z" fill="black"/>
<path d="M414.862 240.834C403.072 234.813 370.825 226.506 370.825 226.506L372.175 216.894L334.267 209.424C332.152 214.527 330.55 219.207 329.74 222.708C324.448 245.532 347.704 248.295 352.357 248.601L394.477 256.107L372.229 296.787L387.808 302.79C387.808 302.79 407.977 272.397 417.625 256.107C421.396 249.744 418.057 242.472 414.862 240.834Z" fill="#263238"/>
<path opacity="0.3" d="M363.652 218.928L347.452 215.796L348.091 213.222L364.228 216.354L363.652 218.928Z" fill="white"/>
<path opacity="0.3" d="M365.452 216.597L372.031 217.92L371.662 220.548L364.93 219.171L365.452 216.597Z" fill="white"/>
<path opacity="0.3" d="M335.707 210.819L346.849 212.979L346.192 215.544L335.095 213.393L335.707 210.819Z" fill="white"/>
<g opacity="0.3">
<path d="M333.953 213.132L332.891 212.862L333.854 210.423L334.592 210.558L333.953 213.132Z" fill="white"/>
</g>
<path opacity="0.3" d="M370.852 226.416L351.79 220.89C352.177 221.007 364.237 223.536 371.077 224.805L370.852 226.416Z" fill="black"/>
<path opacity="0.3" d="M394.594 255.648L404.845 252.372C404.845 252.372 397.762 258.906 392.29 259.851L394.585 255.648H394.594Z" fill="black"/>
<path d="M333.762 154.056C333.033 154.092 308.778 171.228 305.376 175.359C301.974 179.49 295.161 210.027 295.161 210.027L304.269 212.304L315.357 183.054L336.012 172.506C336.012 172.506 340.98 163.038 341.115 162.615C341.259 162.192 333.753 154.065 333.753 154.065L333.762 154.056Z" fill="#635BFF"/>
<path opacity="0.7" d="M333.762 154.056C333.033 154.092 308.778 171.228 305.376 175.359C301.974 179.49 295.161 210.027 295.161 210.027L304.269 212.304L315.357 183.054L336.012 172.506C336.012 172.506 340.98 163.038 341.115 162.615C341.259 162.192 333.753 154.065 333.753 154.065L333.762 154.056Z" fill="white"/>
<path d="M421.899 206.211L393.432 186.546C393.432 186.546 384 159.654 381.075 155.406C377.277 149.889 370.032 149.52 370.032 149.52L374.424 172.497C374.424 172.497 376.971 181.668 379.419 188.274C381.921 195.042 382.902 198.723 389.058 202.386C394.404 205.563 417.237 214.05 417.237 214.05C416.841 213.915 421.89 206.211 421.89 206.211H421.899Z" fill="#635BFF"/>
<path opacity="0.7" d="M421.899 206.211L393.432 186.546C393.432 186.546 384 159.654 381.075 155.406C377.277 149.889 370.032 149.52 370.032 149.52L374.424 172.497C374.424 172.497 376.971 181.668 379.419 188.274C381.921 195.042 382.902 198.723 389.058 202.386C394.404 205.563 417.237 214.05 417.237 214.05C416.841 213.915 421.89 206.211 421.89 206.211H421.899Z" fill="white"/>
<path d="M332.205 209.001C332.205 209.001 330.261 208.875 330.954 207.12C331.647 205.365 333.753 203.754 333.753 203.754L335.337 192.423L333.753 154.056L340.845 152.301L348.648 150.501L351.978 147.495L360.996 147.072L365.415 149.529H370.059C370.014 149.592 379.194 170.355 376.899 186.924C374.604 203.493 372.975 213.969 372.588 215.022C371.805 217.164 370.095 216.489 370.095 216.489L332.187 209.01L332.205 209.001Z" fill="#635BFF"/>
<path opacity="0.7" d="M332.205 209.001C332.205 209.001 330.261 208.875 330.954 207.12C331.647 205.365 333.753 203.754 333.753 203.754L335.337 192.423L334.545 173.244L333.753 154.056L340.845 152.301L348.648 150.501L351.978 147.495L360.735 147.072L365.415 149.529H370.059C370.014 149.592 379.194 170.355 376.899 186.924C374.604 203.493 372.975 213.969 372.588 215.022C371.805 217.164 370.095 216.489 370.095 216.489L332.187 209.01L332.205 209.001Z" fill="white"/>
<path opacity="0.1" d="M356.632 213.204C356.632 213.204 356.614 213.204 356.605 213.204C356.479 213.195 356.389 213.078 356.407 212.961C358.315 194.538 358.693 175.818 357.532 157.332C357.532 157.206 357.622 157.098 357.739 157.089C357.856 157.071 357.973 157.179 357.973 157.296C359.134 175.809 358.747 194.556 356.848 213.006C356.839 213.123 356.74 213.204 356.623 213.204H356.632Z" fill="#263238"/>
<path opacity="0.2" d="M336.804 178.797L337.047 184.773C337.047 184.773 352.725 173.199 355.83 169.338C359.844 164.343 360.15 161.598 360.15 161.598L336.804 178.806V178.797Z" fill="black"/>
<path d="M356.406 158.988L358.26 161.895C358.26 161.895 331.62 181.578 306.753 183.234L305.241 191.712L313.8 193.278C313.8 193.278 351.582 178.725 360.474 162.084L363.129 158.106L360.303 155.64L359.421 156.207L356.406 158.988Z" fill="#635BFF"/>
<path opacity="0.2" d="M377.277 181.821C377.277 181.821 378.105 170.094 378.267 164.118C378.267 164.118 379.113 168.681 379.392 173.361C379.635 177.384 378.42 185.592 378.42 185.592L377.277 181.821Z" fill="black"/>
<path opacity="0.2" d="M349.08 150.942C349.44 151.617 355.218 158.97 355.218 158.97L359.862 155.73C359.862 155.73 355.821 160.167 355.803 160.212L354.597 160.32L349.08 150.942Z" fill="black"/>
<path opacity="0.2" d="M360.294 155.631L363.768 157.143C363.768 157.143 365.28 153.633 365.361 152.67C365.442 151.716 365.379 150.096 365.379 150.096H365.838C365.838 150.096 366.234 152.751 365.541 154.722C364.812 156.801 363.939 158.817 363.939 158.817L360.285 155.631H360.294Z" fill="black"/>
<path opacity="0.2" d="M393.432 186.537C393.693 188.409 392.541 190.938 391.551 192.549C392.721 192.117 394.062 191.586 394.62 190.47C395.187 189.354 395.61 189.273 395.556 188.022L393.432 186.537Z" fill="black"/>
<path d="M349.08 131.97C349.08 131.97 341.142 125.796 341.385 123.618C341.628 121.44 342.888 122.052 342.888 122.052C342.888 122.052 340.017 116.931 342.6 115.923C345.183 114.915 345.399 115.788 345.399 115.788C345.399 115.788 344.184 111.558 346.209 110.19C347.748 109.137 348.495 111.072 348.495 111.072C348.495 111.072 351.321 106.275 354.93 106.194C356.721 106.257 357.648 107.373 357.45 108.759C357.45 108.822 357.432 108.876 357.414 108.939C357.414 108.939 364.569 105.465 368.025 107.319C371.49 109.173 367.17 111.54 367.17 111.54C367.17 111.54 374.235 110.505 375.738 113.304C376.935 115.527 373.839 117.183 373.839 117.183C373.839 117.183 374.973 117.516 375.963 118.344C377.853 119.919 376.863 123.087 374.415 123.276C374.397 123.276 374.379 123.276 374.361 123.276C373.983 123.303 373.308 123.411 373.029 123.168C373.029 123.168 374.352 125.688 371.76 126.624C369.168 127.56 367.8 124.563 367.8 124.563L349.08 131.97Z" fill="#0A2540"/>
<path d="M352.185 148.566C352.185 148.566 352.464 144.849 349.458 135.966C349.458 135.957 349.926 135.723 349.926 135.714C349.512 134.472 349.08 133.329 348.675 132.33C348.666 132.303 348.666 132.294 348.666 132.294L361.302 139.368C361.14 142.257 362.409 147.774 363.129 150.096L360.159 155.631L352.185 148.566Z" fill="#FFB573"/>
<path opacity="0.2" d="M361.689 143.4L354.534 142.113C355.272 144.291 357.333 146.811 362.274 146.811C362.274 146.811 361.671 144.363 361.689 143.4Z" fill="#BC8F5E"/>
<path d="M368.879 117.732C370.454 120.513 371.237 126.759 366.647 125.652C362.057 124.545 366.179 112.953 368.879 117.732Z" fill="#263238"/>
<path d="M348.306 126.318C349.476 134.085 349.98 138.486 354.282 142.113C360.753 147.567 369.879 143.238 371.049 135.255C372.111 128.073 370.014 116.571 362.094 114.213C354.282 111.891 347.136 118.542 348.306 126.309V126.318Z" fill="#FFB573"/>
<path d="M363.733 138.261C363.76 138.261 363.661 138.243 363.733 138.261Z" fill="#263238"/>
<path d="M350.898 132.267C351.555 131.871 352.257 131.439 352.59 130.746C352.905 130.107 352.86 129.342 352.761 128.64C352.662 127.902 352.527 127.173 352.356 126.444C353.067 126.768 353.886 126.174 354.237 125.481C354.768 124.446 354.678 123.213 354.552 122.052C355.443 122.205 356.442 121.899 356.991 121.179C357.54 120.459 357.558 119.334 356.919 118.686C359.817 118.956 362.76 118.65 365.541 117.795C365.361 118.164 365.604 118.587 365.865 118.902C366.927 120.171 368.466 121.026 370.104 121.26C370.347 121.296 370.644 121.287 370.761 121.08C370.824 120.972 370.824 120.828 370.806 120.702C370.644 119.118 369.672 117.705 368.439 116.715C367.197 115.725 365.703 115.104 364.2 114.591C361.707 113.736 359.106 113.133 356.469 113.061C353.832 112.989 351.15 113.475 348.819 114.708C348.306 114.978 347.802 115.293 347.46 115.752C347.136 116.193 346.974 116.724 346.83 117.255C345.993 120.477 345.759 123.852 346.146 127.164" fill="#0A2540"/>
<path d="M345.796 133.104C346.597 135.057 348.235 136.452 349.846 137.082C352.276 138.036 353.779 135.912 353.338 133.473C352.942 131.277 351.205 128.136 348.649 128.226C346.129 128.316 344.878 130.872 345.796 133.104Z" fill="#FFB573"/>
<path d="M465.549 320.43L432.609 370.38C420.765 385.716 410.892 399.144 392.982 404.391L329.586 428.295C322.026 431.148 316.509 437.736 315.042 445.674L317.364 458.184H249.369C249.369 458.184 250.269 408.963 254.427 394.131C258.324 380.235 268.035 368.058 287.97 364.026C304.548 360.678 367.71 348.798 379.959 348.402C385.17 348.231 386.457 351.849 386.223 352.263L389.103 351.939C389.103 351.939 423.078 321.96 430.521 314.706C436.272 309.09 445.875 312.357 445.875 312.357C445.875 312.357 456.126 302.898 463.452 307.542C463.452 307.542 470.193 312.357 465.549 320.439V320.43Z" fill="#FFC2BC"/>
<path opacity="0.3" d="M386.214 352.254C390.21 363.666 380.31 370.722 368.799 376.05C357.279 381.387 328.407 390.927 328.407 390.927L327.543 396.012L332.403 392.106C332.403 392.106 356.154 383.691 372.039 376.302C382.119 371.622 385.71 367.806 387.393 363.927C388.788 360.696 388.95 357.06 388.023 353.658L387.555 351.939L386.214 352.263V352.254Z" fill="#CEA3A3"/>
<path opacity="0.3" d="M445.875 312.348C445.875 312.348 452.31 318.225 447.117 324.489C442.743 329.772 407.022 375.627 407.022 375.627L411.576 371.892C411.576 371.892 448.503 328.368 450.816 324.561C454.263 318.873 448.854 312.285 445.875 312.348Z" fill="#CEA3A3"/>
</g>
<defs>
<filter id="filter0_d_10_5488" x="0" y="0" width="704" height="482" filterUnits="userSpaceOnUse" color-interpolation-filters="sRGB">
<feFlood flood-opacity="0" result="BackgroundImageFix"/>
<feColorMatrix in="SourceAlpha" type="matrix" values="0 0 0 0 0 0 0 0 0 0 0 0 0 0 0 0 0 0 127 0" result="hardAlpha"/>
<feOffset dx="4" dy="8"/>
<feGaussianBlur stdDeviation="8"/>
<feComposite in2="hardAlpha" operator="out"/>
<feColorMatrix type="matrix" values="0 0 0 0 0.388235 0 0 0 0 0.356863 0 0 0 0 1 0 0 0 0.1 0"/>
<feBlend mode="normal" in2="BackgroundImageFix" result="effect1_dropShadow_10_5488"/>
<feBlend mode="normal" in="SourceGraphic" in2="effect1_dropShadow_10_5488" result="shape"/>
</filter>
<linearGradient id="paint0_linear_10_5488" x1="348" y1="8" x2="348" y2="458" gradientUnits="userSpaceOnUse">
<stop offset="0.5" stop-color="#DEEAF6"/>
<stop offset="1" stop-color="white"/>
</linearGradient>
<clipPath id="clip0_10_5488">
<rect width="450" height="365" fill="white" transform="translate(123 93)"/>
</clipPath>
</defs>
</svg>
