<svg width="704" height="482" viewBox="0 0 704 482" fill="none" xmlns="http://www.w3.org/2000/svg">
<g filter="url(#filter0_d_9_5486)">
<rect x="12" y="8" width="672" height="450" rx="24" fill="url(#paint0_linear_9_5486)"/>
<rect x="17" y="13" width="662" height="440" rx="19" stroke="white" stroke-width="10"/>
</g>
<g filter="url(#filter1_d_9_5486)">
<path d="M437.342 440.886H427.783V441.161H437.342V440.886Z" fill="#EBEBEB"/>
<path d="M178.215 429.534H130.706V429.809H178.215V429.534Z" fill="#EBEBEB"/>
<path d="M194.979 429.534H188.016V429.809H194.979V429.534Z" fill="#EBEBEB"/>
<path d="M320.665 434.176H217.617V434.451H320.665V434.176Z" fill="#EBEBEB"/>
<path d="M236.387 166.386C251.984 159.926 259.391 142.044 252.93 126.446C246.47 110.848 228.588 103.442 212.99 109.902C197.392 116.363 189.986 134.245 196.446 149.843C202.907 165.44 220.789 172.847 236.387 166.386Z" fill="#FAFAFA"/>
<path d="M208.839 137.803C208.839 134.866 206.463 132.49 203.526 132.49C202.998 132.49 202.481 132.567 201.997 132.71C202.074 132.182 202.118 131.632 202.118 131.082C202.118 124.867 197.08 119.829 190.865 119.829C190.161 119.829 189.468 119.895 188.797 120.027C187.07 117.2 183.957 115.297 180.404 115.297C175.014 115.297 170.647 119.631 170.57 124.999C170.515 124.999 170.46 124.999 170.405 124.999C165.4 124.999 161.341 129.058 161.341 134.063C161.341 139.068 165.4 143.127 170.405 143.127H203.691C206.551 143.039 208.85 140.696 208.85 137.814L208.839 137.803Z" fill="#635BFF"/>
<path d="M543.558 211.415C543.558 208.478 541.182 206.102 538.245 206.102C537.717 206.102 537.2 206.179 536.716 206.322C536.793 205.794 536.837 205.244 536.837 204.694C536.837 198.479 531.799 193.441 525.584 193.441C524.88 193.441 524.187 193.507 523.516 193.639C521.789 190.812 518.676 188.909 515.123 188.909C509.733 188.909 505.366 193.243 505.289 198.611C505.234 198.611 505.179 198.611 505.124 198.611C500.119 198.611 496.06 202.67 496.06 207.675C496.06 212.68 500.119 216.739 505.124 216.739H538.41C541.27 216.651 543.569 214.308 543.569 211.426L543.558 211.415Z" fill="#F6F9FC"/>
<path d="M386.18 130.719C386.18 126.077 389.942 122.315 394.584 122.315C395.42 122.315 396.234 122.447 396.993 122.667C396.872 121.82 396.806 120.962 396.806 120.082C396.806 110.248 404.781 102.284 414.604 102.284C415.726 102.284 416.815 102.394 417.882 102.592C420.621 98.1148 425.538 95.1118 431.17 95.1118C439.695 95.1118 446.614 101.965 446.735 110.457C446.823 110.457 446.911 110.446 446.999 110.446C454.919 110.446 461.343 116.87 461.343 124.79C461.343 132.71 454.919 139.134 446.999 139.134H394.331C389.799 138.991 386.158 135.295 386.158 130.73L386.18 130.719Z" fill="#F6F9FC"/>
<path d="M230.828 222.261C230.828 216.673 235.36 212.141 240.948 212.141C241.96 212.141 242.928 212.295 243.852 212.57C243.709 211.558 243.621 210.524 243.621 209.468C243.621 197.632 253.213 188.04 265.049 188.04C266.402 188.04 267.711 188.172 268.998 188.414C272.287 183.024 278.216 179.416 284.992 179.416C295.255 179.416 303.571 187.655 303.725 197.885C303.835 197.885 303.934 197.874 304.033 197.874C313.559 197.874 321.292 205.596 321.292 215.133C321.292 224.67 313.57 232.392 304.033 232.392H240.651L240.662 232.381C235.206 232.227 230.828 227.772 230.828 222.283V222.261Z" fill="#F6F9FC"/>
<path d="M275.509 153.72C275.509 151.894 274.035 150.42 272.209 150.42C271.879 150.42 271.56 150.475 271.263 150.563C271.307 150.233 271.34 149.892 271.34 149.551C271.34 145.69 268.205 142.555 264.344 142.555C263.904 142.555 263.475 142.599 263.057 142.676C261.979 140.916 260.054 139.739 257.832 139.739C254.477 139.739 251.76 142.434 251.716 145.767C251.683 145.767 251.65 145.767 251.617 145.767C248.504 145.767 245.985 148.286 245.985 151.399C245.985 154.512 248.504 157.031 251.617 157.031H272.308C274.09 156.976 275.52 155.524 275.52 153.731L275.509 153.72Z" fill="#2FB4F7"/>
<path d="M155.192 254.04C155.192 252.214 156.666 250.74 158.492 250.74C158.822 250.74 159.141 250.795 159.438 250.883C159.394 250.553 159.361 250.212 159.361 249.871C159.361 246.01 162.496 242.875 166.357 242.875C166.797 242.875 167.226 242.919 167.644 242.996C168.722 241.236 170.647 240.059 172.869 240.059C176.224 240.059 178.941 242.754 178.985 246.087C179.018 246.087 179.051 246.087 179.084 246.087C182.197 246.087 184.716 248.606 184.716 251.719C184.716 254.832 182.197 257.351 179.084 257.351H158.393C156.611 257.296 155.181 255.844 155.181 254.051L155.192 254.04Z" fill="#F6F9FC"/>
<path d="M464.83 264.82C464.83 262.994 466.304 261.52 468.13 261.52C468.46 261.52 468.779 261.575 469.076 261.663C469.032 261.333 468.999 260.992 468.999 260.651C468.999 256.79 472.134 253.655 475.995 253.655C476.435 253.655 476.864 253.699 477.282 253.776C478.36 252.016 480.285 250.839 482.507 250.839C485.862 250.839 488.579 253.534 488.623 256.867C488.656 256.867 488.689 256.867 488.722 256.867C491.835 256.867 494.354 259.386 494.354 262.499C494.354 265.612 491.835 268.131 488.722 268.131H468.031C466.249 268.076 464.819 266.624 464.819 264.831L464.83 264.82Z" fill="#F6F9FC"/>
<path d="M500.68 132.688L453.655 204.287L451.587 207.433L447.495 209.336L301.943 276.975L316.32 326.244L319.609 337.508L308.213 346.924L210.016 442.338H128.759L275.675 320.337L266.776 271.882L264.356 258.704L275.73 253.457L430.852 182.034L481.386 119.543L467.823 116.859L510.426 99.1821L508.237 145.261L500.68 132.688Z" fill="#0A2540"/>
<path opacity="0.6" d="M500.68 132.688L453.655 204.287L451.587 207.433L447.495 209.336L301.943 276.975L316.32 326.244L319.609 337.508L308.213 346.924L210.016 442.338H128.759L275.675 320.337L266.776 271.882L264.356 258.704L275.73 253.457L430.852 182.034L481.386 119.543L467.823 116.859L510.426 99.1821L508.237 145.261L500.68 132.688Z" fill="#FAFAFA"/>
<path d="M348.088 281.496L345.624 286.314L343.116 291.209L338.727 289.603L340.927 285.302L343.699 279.89L348.088 281.496Z" fill="#FFB573"/>
<path opacity="0.2" d="M348.088 281.496L345.624 286.314L340.927 285.302L343.699 279.89L348.088 281.496Z" fill="#0A2540"/>
<path d="M443.942 253.699C443.942 253.699 429.531 145.261 411.854 97.3892" stroke="#0A2540" stroke-width="1.1" stroke-linecap="round" stroke-linejoin="round"/>
<path d="M416.09 251.147L420.776 250.96L421.678 240.114L416.992 240.301L416.09 251.147Z" fill="#FFB573"/>
<path d="M421.205 248.485L416.09 248.331C415.903 248.331 415.727 248.452 415.683 248.639L414.594 252.753C414.484 253.182 414.792 253.6 415.232 253.6C417.08 253.622 419.742 253.6 422.063 253.677C424.769 253.765 426.496 253.633 429.675 253.732C431.6 253.787 432.205 251.873 431.413 251.675C427.783 250.762 425.407 250.938 422.316 248.892C421.975 248.672 421.612 248.507 421.205 248.496V248.485Z" fill="#0A2540"/>
<path opacity="0.2" d="M421.677 240.114L421.204 245.702L416.529 245.889L416.991 240.301L421.677 240.114Z" fill="#0A2540"/>
<path d="M414.187 211.844C415.375 214.121 415.463 237.991 415.463 244.063H423.548C424.582 237.782 429.763 204.045 422.481 199.227C414.429 193.914 394.013 195.74 394.013 195.74L392.539 192.759L389.591 186.819L372.662 193.111L368.977 194.475L367.459 195.047L367.327 195.091C367.327 195.091 367.338 195.256 367.371 195.542C367.426 196.213 367.58 197.544 367.855 199.205C368.141 200.943 368.57 203.044 369.197 205.101C370.759 210.194 373.531 215.012 378.349 213.395C378.558 213.329 378.767 213.241 378.976 213.153C379.372 212.977 379.801 212.812 380.241 212.647C383.453 211.492 387.721 210.733 392.143 210.304C402.307 209.325 413.285 210.095 414.187 211.844Z" fill="#0A2540"/>
<path d="M423.91 244.767L414.461 245.009L414.406 241.973L424.79 241.544L423.91 244.767Z" fill="#635BFF"/>
<path d="M343.929 288.855H338.231C338.044 288.855 337.868 288.987 337.835 289.174L336.867 293.332C336.768 293.761 337.098 294.168 337.538 294.168C339.375 294.135 340.706 294.025 343.016 294.025C344.435 294.025 348.725 294.168 350.683 294.168C352.641 294.168 352.916 292.232 352.124 292.056C348.527 291.264 345.832 290.186 344.688 289.141C344.479 288.954 344.215 288.855 343.929 288.855Z" fill="#0A2540"/>
<path d="M385.378 195.047C385.378 195.047 385.015 196.301 384.399 198.424C383.882 200.228 383.167 202.681 382.331 205.53C381.693 207.697 380.989 210.106 380.241 212.647C376.677 224.692 372.145 239.729 369.637 246.868C364.643 261.036 347.934 286.237 347.934 286.237L339.893 283.289C339.893 283.289 352.235 259.551 356.283 245.185C359.11 235.153 363.543 217.124 366.458 205.013C366.975 202.868 367.448 200.899 367.855 199.205C368.328 197.225 368.713 195.608 368.977 194.475C369.263 193.287 369.417 192.616 369.417 192.616L372.662 193.111L385.378 195.047Z" fill="#0A2540"/>
<path d="M348.824 286.765L339.364 283.289L340.431 280.473L350.518 283.52L348.824 286.765Z" fill="#635BFF"/>
<path opacity="0.2" d="M392.539 192.759L385.378 201.086L384.399 198.424L383.332 195.52L382.331 205.53L369.197 205.101L366.458 205.013C366.975 202.868 367.448 200.899 367.855 199.205C367.58 197.544 367.426 196.213 367.371 195.553L367.459 195.047L368.977 194.475C369.263 193.287 369.417 192.616 369.417 192.616L372.662 193.111L389.591 186.819L392.539 192.759Z" fill="#0A2540"/>
<path opacity="0.2" d="M392.143 210.304C387.116 210.788 382.287 211.712 378.976 213.153C378.767 213.241 378.558 213.329 378.349 213.395L379.306 208.687C379.306 208.687 387.512 208.302 392.143 210.304Z" fill="#0A2540"/>
<path d="M330.707 197.28L327.836 201.086L325.405 196.4C325.405 196.4 328.166 193.155 329.783 194.651L330.718 197.28H330.707Z" fill="#FFB573"/>
<path d="M323.448 202.824L322.722 198.083L325.406 196.389L327.837 201.086L323.448 202.824Z" fill="#FFB573"/>
<path d="M331.489 196.928L330.686 197.335L329.498 194.321L330.774 193.705L331.489 196.928Z" fill="#F6F9FC"/>
<path d="M363.509 169.461C363.091 170.176 362.662 170.88 362.222 171.573C361.111 173.377 359.956 175.148 358.746 176.897C358.416 177.381 358.086 177.854 357.745 178.338C356.733 179.79 355.666 181.209 354.522 182.628C353.95 183.332 353.367 184.047 352.718 184.751C352.091 185.466 351.354 186.203 350.639 186.841C347.724 189.404 344.6 191.263 341.421 192.924C338.22 194.574 334.986 195.971 331.576 197.126L330.146 193.914C331.576 193.045 333.061 192.154 334.48 191.23C335.921 190.328 337.34 189.393 338.715 188.425C340.09 187.457 341.443 186.478 342.719 185.455C344.017 184.454 345.205 183.354 346.283 182.276C348.296 180.219 350.1 177.205 351.97 174.422C353.807 171.573 356.128 166.579 357.943 163.73L363.509 169.461Z" fill="#0A2540"/>
<path opacity="0.2" d="M362.223 171.573C361.112 173.377 359.957 175.148 358.747 176.897C358.747 173.597 360.628 170.308 360.628 170.308C361.387 170.594 361.893 171.034 362.223 171.573Z" fill="#0A2540"/>
<path d="M425.296 157.603L422.106 160.573L422.568 163.323C423.734 164.863 426.418 162.949 427.045 162.476C427.144 162.399 427.254 162.344 427.364 162.3L429.058 161.607C429.674 161.354 430.037 160.705 429.927 160.056L429.597 158.032C429.465 157.229 428.695 156.69 427.892 156.855L425.989 157.251C425.736 157.306 425.494 157.427 425.307 157.603H425.296Z" fill="#FFB573"/>
<path d="M421.37 160.595L422.25 160.375L422.756 163.576L421.37 163.895V160.595Z" fill="#F6F9FC"/>
<path d="M422.107 163.928C418.587 164.687 415.089 165.127 411.503 165.358C407.917 165.567 404.287 165.567 400.47 164.852C399.524 164.665 398.512 164.423 397.61 164.126C396.686 163.84 395.828 163.532 394.97 163.213C393.265 162.586 391.626 161.915 390.009 161.178C389.36 160.892 388.711 160.595 388.062 160.298C386.588 159.616 385.136 158.912 383.684 158.175C382.617 157.647 381.561 157.086 380.505 156.503L383.332 149.782C386.357 151.3 389.921 153.357 392.968 154.864C395.993 156.305 399.084 157.966 401.867 158.692C403.352 159.077 404.925 159.407 406.553 159.605C408.181 159.836 409.842 159.979 411.514 160.111C413.197 160.243 414.891 160.32 416.585 160.342C418.279 160.419 420.017 160.419 421.689 160.441L422.107 163.928Z" fill="#0A2540"/>
<path opacity="0.2" d="M388.061 160.298C386.587 159.616 385.135 158.912 383.683 158.175L383.111 155.051C383.111 155.051 386.224 156.404 388.061 160.298Z" fill="#0A2540"/>
<path d="M358.868 163.125C360.727 167.569 362.124 172.332 363.202 176.919C363.983 180.274 366.799 183.541 367.283 186.544C368.482 193.969 368.713 194.068 369.263 196.466C372.618 194.662 382.771 192.429 389.591 188.766C389.866 161.354 382.518 150.662 382.518 150.662C382.518 150.662 379.944 151.278 377.007 152.433C376.622 152.587 376.226 152.752 375.83 152.917C373.256 154.039 369.109 156.371 366.249 158.065C365.655 158.417 365.05 158.802 364.456 159.176C361.475 161.101 358.879 163.125 358.879 163.125H358.868Z" fill="#635BFF"/>
<path opacity="0.7" d="M358.868 163.125C360.727 167.569 362.124 172.332 363.202 176.919C363.983 180.274 366.799 183.541 367.283 186.544C368.482 193.969 368.713 194.068 369.263 196.466C372.618 194.662 382.771 192.429 389.591 188.766C389.866 161.354 382.518 150.662 382.518 150.662C382.518 150.662 379.944 151.278 377.007 152.433C376.622 152.587 376.226 152.752 375.83 152.917C373.256 154.039 369.109 156.371 366.249 158.065C365.655 158.417 365.05 158.802 364.456 159.176C361.475 161.101 358.879 163.125 358.879 163.125H358.868Z" fill="#F6F9FC"/>
<path d="M376.897 162.608L377.315 160.067L375.566 159.946L374.499 161.134L376.897 162.608Z" fill="#635BFF"/>
<path d="M375.566 159.957C372.332 161.761 369.131 159.66 367.063 158.219C366.986 158.164 366.92 158.12 366.843 158.065C367.756 156.8 367.844 154.809 367.547 152.719C367.228 150.332 366.414 147.813 365.743 146.097L373.146 150.343C373.113 150.849 373.058 151.3 373.036 151.696C372.937 152.653 372.926 153.302 373.454 153.72C373.894 154.072 374.697 154.259 376.149 154.325C376.996 155.326 377.788 158.714 375.566 159.957Z" fill="#FFB573"/>
<path d="M364.445 159.176C364.445 159.176 373.762 168.889 380.582 174.191C380.582 174.191 380.087 156.998 376.996 152.433L383.332 149.771C383.332 149.771 389.426 163.246 390.295 185.73L393.056 191.384L385.378 199.216L382.903 193.419L381.275 203.033L365.391 204.452L367.338 193.43L357.955 163.741L364.456 159.198L364.445 159.176Z" fill="#0A2540"/>
<path d="M376.061 162.091C376.061 162.091 378.25 169.593 378.107 173.597L380.934 175.071L381.44 172.893C381.44 172.893 378.943 163.224 376.655 161.519L376.061 162.08V162.091Z" fill="#635BFF"/>
<path d="M364.83 158.373C364.83 158.373 376.457 171.144 380.571 174.202C380.571 174.202 379.372 156.91 376.699 152.554C376.699 152.554 378.536 151.289 382.452 155.117L380.494 158.747L383.97 161.145C383.97 161.145 382.771 174.103 380.494 180.241C380.494 180.241 380.769 178.228 380.714 176.325L367.063 168.768L367.668 164.577L362.509 164.357C362.509 164.357 363.081 159.429 364.83 158.373Z" fill="#0A2540"/>
<path opacity="0.2" d="M364.83 158.373C364.83 158.373 376.457 171.144 380.571 174.202C380.571 174.202 379.372 156.91 376.699 152.554C376.699 152.554 378.536 151.289 382.452 155.117L380.494 158.747L383.97 161.145C383.97 161.145 382.771 174.103 380.494 180.241C380.494 180.241 380.769 178.228 380.714 176.325L367.063 168.768L367.668 164.577L362.509 164.357C362.509 164.357 363.081 159.429 364.83 158.373Z" fill="#F6F9FC"/>
<path d="M412.218 98.3572C412.218 98.3572 405.64 97.6092 401.944 99.3582C398.248 101.096 394.541 106.761 388.568 107.3C382.584 107.839 381.385 105.881 381.385 105.881C381.385 105.881 386.654 115.242 396.807 115.132C406.96 115.022 412.207 113.372 418.18 117.134C418.18 117.134 413.582 101.283 412.229 98.3572H412.218Z" fill="#635BFF"/>
<path opacity="0.2" d="M373.454 153.72C372.838 155.634 371.309 158.34 367.69 158.274C367.47 158.274 367.261 158.252 367.063 158.219C366.986 158.164 366.92 158.12 366.843 158.065C367.756 156.8 367.844 154.809 367.547 152.719C368.922 151.806 370.825 151.278 373.036 151.696C372.937 152.653 372.926 153.302 373.454 153.72Z" fill="#BC8F5E"/>
<path d="M375.566 159.946C375.566 159.946 375.72 161.992 374.73 163.785C372.695 163.499 366.623 160.452 366.304 157.966C366.403 157.174 367.25 156.393 367.25 156.393C367.25 156.393 370.792 159.715 375.566 159.935V159.946Z" fill="#F6F9FC"/>
<path d="M375.565 159.946C375.565 159.946 377.402 160.386 378.645 161.519C379.217 159.154 376.852 153.467 376.247 153.159C375.037 152.884 373.365 153.643 373.365 153.643C373.365 153.643 376.676 156.745 375.554 159.946H375.565Z" fill="#F6F9FC"/>
<path d="M359.274 143.743C359.153 145.624 360.33 149.144 362.486 147.384C364.642 145.624 359.483 140.509 359.274 143.743Z" fill="#0A2540"/>
<path d="M372.441 143.028C373.805 147.45 374.828 149.98 373.475 153.005C371.429 157.559 365.313 157.537 362.64 153.599C360.242 150.046 358.405 143.402 362.024 140.124C365.577 136.89 371.077 138.606 372.452 143.028H372.441Z" fill="#FFB573"/>
<path d="M373.146 137.429C372.706 134.547 369.285 134.954 367.283 136.472C367.261 136.483 367.25 136.494 367.228 136.505V142.192C368.053 141.774 368.801 141.323 369.384 140.872C369.384 140.872 370.154 145.129 372.761 146.339C376.182 143.116 376.457 138.166 373.146 137.418V137.429Z" fill="#0A2540"/>
<path d="M375.477 146.009C375.554 147.252 375.037 148.407 374.344 149.166C373.299 150.299 371.957 149.551 371.561 148.143C371.209 146.878 371.33 144.755 372.716 144.15C374.08 143.556 375.4 144.59 375.477 146.009Z" fill="#FFB573"/>
<path d="M369.383 140.872C369.383 140.872 366.589 143.743 363.905 143.6C363.905 143.6 365.038 143.127 365.885 142.236C365.885 142.236 360.561 144.546 357.954 143.303C355.347 142.071 355.633 140.806 355.633 140.806C355.633 140.806 355.919 141.565 358.46 141.488C358.46 141.488 356.282 140.036 357.151 138.012C357.151 138.012 357.514 138.815 358.46 138.881C358.46 138.881 360.605 134.888 366.314 134.239C372.023 133.59 373.189 135.845 373.442 137.506C373.695 139.167 369.394 140.861 369.394 140.861L369.383 140.872Z" fill="#0A2540"/>
<path d="M476.095 437.894H398.215C397.45 437.894 396.829 438.515 396.829 439.28V457.034C396.829 457.8 397.45 458.42 398.215 458.42H476.095C476.861 458.42 477.481 457.8 477.481 457.034V439.28C477.481 438.515 476.861 437.894 476.095 437.894Z" fill="#2FB4F7"/>
<path opacity="0.2" d="M403.627 439.082H400.438V457.419H403.627V439.082Z" fill="#0A2540"/>
<path opacity="0.2" d="M410.876 438.994H408.555V457.331H410.876V438.994Z" fill="#0A2540"/>
<path opacity="0.2" d="M417.554 439.082H416.388V457.419H417.554V439.082Z" fill="#0A2540"/>
<path opacity="0.2" d="M426.551 438.994H425.968V457.331H426.551V438.994Z" fill="#0A2540"/>
<path opacity="0.2" d="M470.683 457.32H473.873V438.983H470.683V457.32Z" fill="#0A2540"/>
<path opacity="0.2" d="M463.434 457.408H465.755V439.071H463.434V457.408Z" fill="#0A2540"/>
<path opacity="0.2" d="M456.768 457.32H457.923V438.983H456.768V457.32Z" fill="#0A2540"/>
<path opacity="0.2" d="M447.759 457.408H448.342V439.071H447.759V457.408Z" fill="#0A2540"/>
<path opacity="0.2" d="M437.012 457.408H437.298V439.071H437.012V457.408Z" fill="#0A2540"/>
<path opacity="0.2" d="M475.325 441.018H399.15C398.611 441.018 398.182 440.589 398.182 440.05C398.182 439.511 398.611 439.082 399.15 439.082H475.325C475.864 439.082 476.293 439.511 476.293 440.05C476.293 440.589 475.864 441.018 475.325 441.018Z" fill="#F6F9FC"/>
<path d="M478.295 417.423H400.415C399.65 417.423 399.029 418.043 399.029 418.809V436.563C399.029 437.328 399.65 437.949 400.415 437.949H478.295C479.061 437.949 479.681 437.328 479.681 436.563V418.809C479.681 418.043 479.061 417.423 478.295 417.423Z" fill="#2FB4F7"/>
<path opacity="0.2" d="M405.828 418.6H402.638V436.937H405.828V418.6Z" fill="#0A2540"/>
<path opacity="0.2" d="M413.088 418.512H410.767V436.849H413.088V418.512Z" fill="#0A2540"/>
<path opacity="0.2" d="M419.754 418.6H418.599V436.937H419.754V418.6Z" fill="#0A2540"/>
<path opacity="0.2" d="M428.751 418.512H428.168V436.849H428.751V418.512Z" fill="#0A2540"/>
<path opacity="0.2" d="M472.895 436.849H476.085V418.512H472.895V436.849Z" fill="#0A2540"/>
<path opacity="0.2" d="M465.634 436.948H467.955V418.611H465.634V436.948Z" fill="#0A2540"/>
<path opacity="0.2" d="M458.957 436.849H460.123V418.512H458.957V436.849Z" fill="#0A2540"/>
<path opacity="0.2" d="M449.959 436.948H450.542V418.611H449.959V436.948Z" fill="#0A2540"/>
<path opacity="0.2" d="M439.212 436.948H439.498V418.611H439.212V436.948Z" fill="#0A2540"/>
<path opacity="0.2" d="M477.525 420.547H401.35C400.811 420.547 400.382 420.118 400.382 419.579C400.382 419.04 400.811 418.611 401.35 418.611H477.525C478.064 418.611 478.493 419.04 478.493 419.579C478.493 420.118 478.064 420.547 477.525 420.547Z" fill="#F6F9FC"/>
<path d="M478.295 396.941H400.415C399.65 396.941 399.029 397.561 399.029 398.327V416.081C399.029 416.846 399.65 417.467 400.415 417.467H478.295C479.061 417.467 479.681 416.846 479.681 416.081V398.327C479.681 397.561 479.061 396.941 478.295 396.941Z" fill="#2FB4F7"/>
<path opacity="0.2" d="M405.828 398.129H402.638V416.466H405.828V398.129Z" fill="#0A2540"/>
<path opacity="0.2" d="M413.088 398.041H410.767V416.378H413.088V398.041Z" fill="#0A2540"/>
<path opacity="0.2" d="M419.754 398.129H418.599V416.466H419.754V398.129Z" fill="#0A2540"/>
<path opacity="0.2" d="M428.751 398.041H428.168V416.378H428.751V398.041Z" fill="#0A2540"/>
<path opacity="0.2" d="M472.895 416.367H476.085V398.03H472.895V416.367Z" fill="#0A2540"/>
<path opacity="0.2" d="M465.634 416.466H467.955V398.129H465.634V416.466Z" fill="#0A2540"/>
<path opacity="0.2" d="M458.957 416.367H460.123V398.03H458.957V416.367Z" fill="#0A2540"/>
<path opacity="0.2" d="M449.959 416.466H450.542V398.129H449.959V416.466Z" fill="#0A2540"/>
<path opacity="0.2" d="M439.212 416.466H439.498V398.129H439.212V416.466Z" fill="#0A2540"/>
<path opacity="0.2" d="M477.525 400.065H401.35C400.811 400.065 400.382 399.636 400.382 399.097C400.382 398.558 400.811 398.129 401.35 398.129H477.525C478.064 398.129 478.493 398.558 478.493 399.097C478.493 399.636 478.064 400.065 477.525 400.065Z" fill="#F6F9FC"/>
<path d="M476.095 376.47H398.215C397.45 376.47 396.829 377.09 396.829 377.856V395.61C396.829 396.375 397.45 396.996 398.215 396.996H476.095C476.861 396.996 477.481 396.375 477.481 395.61V377.856C477.481 377.09 476.861 376.47 476.095 376.47Z" fill="#2FB4F7"/>
<path opacity="0.2" d="M403.627 377.658H400.438V395.995H403.627V377.658Z" fill="#0A2540"/>
<path opacity="0.2" d="M410.876 377.559H408.555V395.896H410.876V377.559Z" fill="#0A2540"/>
<path opacity="0.2" d="M417.554 377.658H416.388V395.995H417.554V377.658Z" fill="#0A2540"/>
<path opacity="0.2" d="M426.551 377.559H425.968V395.896H426.551V377.559Z" fill="#0A2540"/>
<path opacity="0.2" d="M470.683 395.896H473.873V377.559H470.683V395.896Z" fill="#0A2540"/>
<path opacity="0.2" d="M463.434 395.983H465.755V377.646H463.434V395.983Z" fill="#0A2540"/>
<path opacity="0.2" d="M456.768 395.896H457.923V377.559H456.768V395.896Z" fill="#0A2540"/>
<path opacity="0.2" d="M447.759 395.983H448.342V377.646H447.759V395.983Z" fill="#0A2540"/>
<path opacity="0.2" d="M437.012 395.984H437.298V377.647H437.012V395.984Z" fill="#0A2540"/>
<path opacity="0.2" d="M475.325 379.594H399.15C398.611 379.594 398.182 379.165 398.182 378.626C398.182 378.087 398.611 377.658 399.15 377.658H475.325C475.864 377.658 476.293 378.087 476.293 378.626C476.293 379.165 475.864 379.594 475.325 379.594Z" fill="#F6F9FC"/>
<path d="M472.795 355.988H394.915C394.15 355.988 393.529 356.608 393.529 357.374V375.128C393.529 375.893 394.15 376.514 394.915 376.514H472.795C473.561 376.514 474.181 375.893 474.181 375.128V357.374C474.181 356.608 473.561 355.988 472.795 355.988Z" fill="#2FB4F7"/>
<path opacity="0.2" d="M400.328 357.176H397.138V375.513H400.328V357.176Z" fill="#0A2540"/>
<path opacity="0.2" d="M407.576 357.088H405.255V375.425H407.576V357.088Z" fill="#0A2540"/>
<path opacity="0.2" d="M414.243 357.176H413.088V375.513H414.243V357.176Z" fill="#0A2540"/>
<path opacity="0.2" d="M423.251 357.088H422.668V375.425H423.251V357.088Z" fill="#0A2540"/>
<path opacity="0.2" d="M467.383 375.414H470.573V357.077H467.383V375.414Z" fill="#0A2540"/>
<path opacity="0.2" d="M460.123 375.513H462.444V357.176H460.123V375.513Z" fill="#0A2540"/>
<path opacity="0.2" d="M453.468 375.414H454.623V357.077H453.468V375.414Z" fill="#0A2540"/>
<path opacity="0.2" d="M444.471 375.513H445.054V357.176H444.471V375.513Z" fill="#0A2540"/>
<path opacity="0.2" d="M433.712 375.513H433.998V357.176H433.712V375.513Z" fill="#0A2540"/>
<path opacity="0.2" d="M472.025 359.112H395.85C395.311 359.112 394.882 358.683 394.882 358.144C394.882 357.605 395.311 357.176 395.85 357.176H472.025C472.564 357.176 472.993 357.605 472.993 358.144C472.993 358.683 472.564 359.112 472.025 359.112Z" fill="#F6F9FC"/>
<path d="M476.095 335.517H398.215C397.45 335.517 396.829 336.137 396.829 336.903V354.657C396.829 355.422 397.45 356.043 398.215 356.043H476.095C476.861 356.043 477.481 355.422 477.481 354.657V336.903C477.481 336.137 476.861 335.517 476.095 335.517Z" fill="#2FB4F7"/>
<path opacity="0.2" d="M403.627 336.705H400.438V355.042H403.627V336.705Z" fill="#0A2540"/>
<path opacity="0.2" d="M410.876 336.605H408.555V354.942H410.876V336.605Z" fill="#0A2540"/>
<path opacity="0.2" d="M417.554 336.705H416.388V355.042H417.554V336.705Z" fill="#0A2540"/>
<path opacity="0.2" d="M426.551 336.605H425.968V354.942H426.551V336.605Z" fill="#0A2540"/>
<path opacity="0.2" d="M470.683 354.954H473.873V336.617H470.683V354.954Z" fill="#0A2540"/>
<path opacity="0.2" d="M463.434 355.03H465.755V336.693H463.434V355.03Z" fill="#0A2540"/>
<path opacity="0.2" d="M456.768 354.954H457.923V336.617H456.768V354.954Z" fill="#0A2540"/>
<path opacity="0.2" d="M447.759 355.03H448.342V336.693H447.759V355.03Z" fill="#0A2540"/>
<path opacity="0.2" d="M437.012 355.031H437.298V336.694H437.012V355.031Z" fill="#0A2540"/>
<path opacity="0.2" d="M475.325 338.641H399.15C398.611 338.641 398.182 338.212 398.182 337.673C398.182 337.134 398.611 336.705 399.15 336.705H475.325C475.864 336.705 476.293 337.134 476.293 337.673C476.293 338.212 475.864 338.641 475.325 338.641Z" fill="#F6F9FC"/>
<path d="M476.095 315.035H398.215C397.45 315.035 396.829 315.655 396.829 316.421V334.175C396.829 334.94 397.45 335.561 398.215 335.561H476.095C476.861 335.561 477.481 334.94 477.481 334.175V316.421C477.481 315.655 476.861 315.035 476.095 315.035Z" fill="#2FB4F7"/>
<path opacity="0.2" d="M403.627 316.223H400.438V334.56H403.627V316.223Z" fill="#0A2540"/>
<path opacity="0.2" d="M410.876 316.135H408.555V334.472H410.876V316.135Z" fill="#0A2540"/>
<path opacity="0.2" d="M417.554 316.223H416.388V334.56H417.554V316.223Z" fill="#0A2540"/>
<path opacity="0.2" d="M426.551 316.135H425.968V334.472H426.551V316.135Z" fill="#0A2540"/>
<path opacity="0.2" d="M470.683 334.472H473.873V316.135H470.683V334.472Z" fill="#0A2540"/>
<path opacity="0.2" d="M463.434 334.56H465.755V316.223H463.434V334.56Z" fill="#0A2540"/>
<path opacity="0.2" d="M456.768 334.472H457.923V316.135H456.768V334.472Z" fill="#0A2540"/>
<path opacity="0.2" d="M447.759 334.56H448.342V316.223H447.759V334.56Z" fill="#0A2540"/>
<path opacity="0.2" d="M437.012 334.56H437.298V316.223H437.012V334.56Z" fill="#0A2540"/>
<path opacity="0.2" d="M475.325 318.159H399.15C398.611 318.159 398.182 317.73 398.182 317.191C398.182 316.652 398.611 316.223 399.15 316.223H475.325C475.864 316.223 476.293 316.652 476.293 317.191C476.293 317.73 475.864 318.159 475.325 318.159Z" fill="#F6F9FC"/>
<path d="M479.395 294.564H401.515C400.749 294.564 400.129 295.184 400.129 295.95V313.704C400.129 314.469 400.749 315.09 401.515 315.09H479.395C480.16 315.09 480.781 314.469 480.781 313.704V295.95C480.781 295.184 480.16 294.564 479.395 294.564Z" fill="#2FB4F7"/>
<path opacity="0.2" d="M406.927 295.752H403.737V314.089H406.927V295.752Z" fill="#0A2540"/>
<path opacity="0.2" d="M414.187 295.664H411.866V314.001H414.187V295.664Z" fill="#0A2540"/>
<path opacity="0.2" d="M420.864 295.752H419.698V314.089H420.864V295.752Z" fill="#0A2540"/>
<path opacity="0.2" d="M429.851 295.664H429.268V314.001H429.851V295.664Z" fill="#0A2540"/>
<path opacity="0.2" d="M473.995 313.99H477.185V295.653H473.995V313.99Z" fill="#0A2540"/>
<path opacity="0.2" d="M466.734 314.078H469.055V295.741H466.734V314.078Z" fill="#0A2540"/>
<path opacity="0.2" d="M460.068 313.99H461.223V295.653H460.068V313.99Z" fill="#0A2540"/>
<path opacity="0.2" d="M451.059 314.078H451.642V295.741H451.059V314.078Z" fill="#0A2540"/>
<path opacity="0.2" d="M440.322 314.078H440.608V295.741H440.322V314.078Z" fill="#0A2540"/>
<path opacity="0.2" d="M478.624 297.688H402.449C401.91 297.688 401.481 297.259 401.481 296.72C401.481 296.181 401.91 295.752 402.449 295.752H478.624C479.163 295.752 479.592 296.181 479.592 296.72C479.592 297.259 479.163 297.688 478.624 297.688Z" fill="#F6F9FC"/>
<path d="M473.895 274.093H396.015C395.249 274.093 394.629 274.713 394.629 275.479V293.233C394.629 293.998 395.249 294.619 396.015 294.619H473.895C474.66 294.619 475.281 293.998 475.281 293.233V275.479C475.281 274.713 474.66 274.093 473.895 274.093Z" fill="#2FB4F7"/>
<path opacity="0.2" d="M401.427 275.27H398.237V293.607H401.427V275.27Z" fill="#0A2540"/>
<path opacity="0.2" d="M408.676 275.182H406.354V293.519H408.676V275.182Z" fill="#0A2540"/>
<path opacity="0.2" d="M415.342 275.27H414.188V293.607H415.342V275.27Z" fill="#0A2540"/>
<path opacity="0.2" d="M424.351 275.182H423.768V293.519H424.351V275.182Z" fill="#0A2540"/>
<path opacity="0.2" d="M468.483 293.519H471.673V275.182H468.483V293.519Z" fill="#0A2540"/>
<path opacity="0.2" d="M461.223 293.606H463.544V275.269H461.223V293.606Z" fill="#0A2540"/>
<path opacity="0.2" d="M454.568 293.519H455.723V275.182H454.568V293.519Z" fill="#0A2540"/>
<path opacity="0.2" d="M445.559 293.606H446.142V275.269H445.559V293.606Z" fill="#0A2540"/>
<path opacity="0.2" d="M434.812 293.607H435.098V275.27H434.812V293.607Z" fill="#0A2540"/>
<path opacity="0.2" d="M473.124 277.206H396.949C396.41 277.206 395.981 276.777 395.981 276.238C395.981 275.699 396.41 275.27 396.949 275.27H473.124C473.663 275.27 474.092 275.699 474.092 276.238C474.092 276.777 473.663 277.206 473.124 277.206Z" fill="#F6F9FC"/>
<path d="M471.695 253.611H393.815C393.049 253.611 392.429 254.231 392.429 254.997V272.751C392.429 273.516 393.049 274.137 393.815 274.137H471.695C472.46 274.137 473.081 273.516 473.081 272.751V254.997C473.081 254.231 472.46 253.611 471.695 253.611Z" fill="#2FB4F7"/>
<path opacity="0.2" d="M399.227 254.799H396.037V273.136H399.227V254.799Z" fill="#0A2540"/>
<path opacity="0.2" d="M406.475 254.711H404.154V273.048H406.475V254.711Z" fill="#0A2540"/>
<path opacity="0.2" d="M413.153 254.799H411.987V273.136H413.153V254.799Z" fill="#0A2540"/>
<path opacity="0.2" d="M422.15 254.711H421.567V273.048H422.15V254.711Z" fill="#0A2540"/>
<path opacity="0.2" d="M466.283 273.037H469.473V254.7H466.283V273.037Z" fill="#0A2540"/>
<path opacity="0.2" d="M459.023 273.125H461.344V254.788H459.023V273.125Z" fill="#0A2540"/>
<path opacity="0.2" d="M452.357 273.037H453.512V254.7H452.357V273.037Z" fill="#0A2540"/>
<path opacity="0.2" d="M443.37 273.125H443.953V254.788H443.37V273.125Z" fill="#0A2540"/>
<path opacity="0.2" d="M432.611 273.125H432.897V254.788H432.611V273.125Z" fill="#0A2540"/>
<path opacity="0.2" d="M470.924 256.735H394.749C394.21 256.735 393.781 256.306 393.781 255.767C393.781 255.228 394.21 254.799 394.749 254.799H470.924C471.463 254.799 471.892 255.228 471.892 255.767C471.892 256.306 471.463 256.735 470.924 256.735Z" fill="#F6F9FC"/>
<path d="M377.039 437.894H299.159C298.394 437.894 297.773 438.515 297.773 439.28V457.034C297.773 457.8 298.394 458.42 299.159 458.42H377.039C377.805 458.42 378.425 457.8 378.425 457.034V439.28C378.425 438.515 377.805 437.894 377.039 437.894Z" fill="#635BFF"/>
<path opacity="0.2" d="M304.56 439.082H301.37V457.419H304.56V439.082Z" fill="#0A2540"/>
<path opacity="0.2" d="M311.82 438.994H309.499V457.331H311.82V438.994Z" fill="#0A2540"/>
<path opacity="0.2" d="M318.486 439.082H317.331V457.419H318.486V439.082Z" fill="#0A2540"/>
<path opacity="0.2" d="M327.484 438.994H326.901V457.331H327.484V438.994Z" fill="#0A2540"/>
<path opacity="0.2" d="M371.627 457.32H374.817V438.983H371.627V457.32Z" fill="#0A2540"/>
<path opacity="0.2" d="M364.367 457.408H366.688V439.071H364.367V457.408Z" fill="#0A2540"/>
<path opacity="0.2" d="M357.7 457.32H358.855V438.983H357.7V457.32Z" fill="#0A2540"/>
<path opacity="0.2" d="M348.703 457.408H349.286V439.071H348.703V457.408Z" fill="#0A2540"/>
<path opacity="0.2" d="M337.956 457.408H338.242V439.071H337.956V457.408Z" fill="#0A2540"/>
<path opacity="0.2" d="M376.269 441.018H300.094C299.555 441.018 299.126 440.589 299.126 440.05C299.126 439.511 299.555 439.082 300.094 439.082H376.269C376.808 439.082 377.237 439.511 377.237 440.05C377.237 440.589 376.808 441.018 376.269 441.018Z" fill="#F6F9FC"/>
<path d="M373.729 417.423H295.849C295.083 417.423 294.463 418.043 294.463 418.809V436.563C294.463 437.328 295.083 437.949 295.849 437.949H373.729C374.494 437.949 375.115 437.328 375.115 436.563V418.809C375.115 418.043 374.494 417.423 373.729 417.423Z" fill="#635BFF"/>
<path opacity="0.2" d="M301.261 418.6H298.071V436.937H301.261V418.6Z" fill="#0A2540"/>
<path opacity="0.2" d="M308.521 418.512H306.2V436.849H308.521V418.512Z" fill="#0A2540"/>
<path opacity="0.2" d="M315.187 418.6H314.032V436.937H315.187V418.6Z" fill="#0A2540"/>
<path opacity="0.2" d="M324.185 418.512H323.602V436.849H324.185V418.512Z" fill="#0A2540"/>
<path opacity="0.2" d="M368.329 436.849H371.519V418.512H368.329V436.849Z" fill="#0A2540"/>
<path opacity="0.2" d="M361.068 436.948H363.389V418.611H361.068V436.948Z" fill="#0A2540"/>
<path opacity="0.2" d="M354.402 436.849H355.557V418.512H354.402V436.849Z" fill="#0A2540"/>
<path opacity="0.2" d="M345.393 436.948H345.976V418.611H345.393V436.948Z" fill="#0A2540"/>
<path opacity="0.2" d="M334.646 436.948H334.932V418.611H334.646V436.948Z" fill="#0A2540"/>
<path opacity="0.2" d="M372.958 420.547H296.783C296.244 420.547 295.815 420.118 295.815 419.579C295.815 419.04 296.244 418.611 296.783 418.611H372.958C373.497 418.611 373.926 419.04 373.926 419.579C373.926 420.118 373.497 420.547 372.958 420.547Z" fill="#F6F9FC"/>
<path d="M377.039 396.941H299.159C298.394 396.941 297.773 397.561 297.773 398.327V416.081C297.773 416.846 298.394 417.467 299.159 417.467H377.039C377.805 417.467 378.425 416.846 378.425 416.081V398.327C378.425 397.561 377.805 396.941 377.039 396.941Z" fill="#635BFF"/>
<path opacity="0.2" d="M304.56 398.129H301.37V416.466H304.56V398.129Z" fill="#0A2540"/>
<path opacity="0.2" d="M311.82 398.041H309.499V416.378H311.82V398.041Z" fill="#0A2540"/>
<path opacity="0.2" d="M318.486 398.129H317.331V416.466H318.486V398.129Z" fill="#0A2540"/>
<path opacity="0.2" d="M327.484 398.041H326.901V416.378H327.484V398.041Z" fill="#0A2540"/>
<path opacity="0.2" d="M371.627 416.367H374.817V398.03H371.627V416.367Z" fill="#0A2540"/>
<path opacity="0.2" d="M364.367 416.466H366.688V398.129H364.367V416.466Z" fill="#0A2540"/>
<path opacity="0.2" d="M357.7 416.367H358.855V398.03H357.7V416.367Z" fill="#0A2540"/>
<path opacity="0.2" d="M348.703 416.466H349.286V398.129H348.703V416.466Z" fill="#0A2540"/>
<path opacity="0.2" d="M337.956 416.466H338.242V398.129H337.956V416.466Z" fill="#0A2540"/>
<path opacity="0.2" d="M376.269 400.065H300.094C299.555 400.065 299.126 399.636 299.126 399.097C299.126 398.558 299.555 398.129 300.094 398.129H376.269C376.808 398.129 377.237 398.558 377.237 399.097C377.237 399.636 376.808 400.065 376.269 400.065Z" fill="#F6F9FC"/>
<path d="M374.829 376.47H296.948C296.183 376.47 295.562 377.09 295.562 377.856V395.61C295.562 396.375 296.183 396.996 296.948 396.996H374.829C375.594 396.996 376.214 396.375 376.214 395.61V377.856C376.214 377.09 375.594 376.47 374.829 376.47Z" fill="#635BFF"/>
<path opacity="0.2" d="M302.361 377.658H299.171V395.995H302.361V377.658Z" fill="#0A2540"/>
<path opacity="0.2" d="M309.621 377.559H307.3V395.896H309.621V377.559Z" fill="#0A2540"/>
<path opacity="0.2" d="M316.287 377.658H315.132V395.995H316.287V377.658Z" fill="#0A2540"/>
<path opacity="0.2" d="M325.284 377.559H324.701V395.896H325.284V377.559Z" fill="#0A2540"/>
<path opacity="0.2" d="M369.428 395.896H372.618V377.559H369.428V395.896Z" fill="#0A2540"/>
<path opacity="0.2" d="M362.167 395.983H364.488V377.646H362.167V395.983Z" fill="#0A2540"/>
<path opacity="0.2" d="M355.49 395.896H356.656V377.559H355.49V395.896Z" fill="#0A2540"/>
<path opacity="0.2" d="M346.492 395.983H347.075V377.646H346.492V395.983Z" fill="#0A2540"/>
<path opacity="0.2" d="M335.757 395.984H336.043V377.647H335.757V395.984Z" fill="#0A2540"/>
<path opacity="0.2" d="M374.058 379.594H297.883C297.344 379.594 296.915 379.165 296.915 378.626C296.915 378.087 297.344 377.658 297.883 377.658H374.058C374.597 377.658 375.026 378.087 375.026 378.626C375.026 379.165 374.597 379.594 374.058 379.594Z" fill="#F6F9FC"/>
<path d="M374.829 355.988H296.948C296.183 355.988 295.562 356.608 295.562 357.374V375.128C295.562 375.893 296.183 376.514 296.948 376.514H374.829C375.594 376.514 376.214 375.893 376.214 375.128V357.374C376.214 356.608 375.594 355.988 374.829 355.988Z" fill="#635BFF"/>
<path opacity="0.2" d="M302.361 357.176H299.171V375.513H302.361V357.176Z" fill="#0A2540"/>
<path opacity="0.2" d="M309.621 357.087H307.3V375.424H309.621V357.087Z" fill="#0A2540"/>
<path opacity="0.2" d="M316.287 357.176H315.132V375.513H316.287V357.176Z" fill="#0A2540"/>
<path opacity="0.2" d="M325.284 357.088H324.701V375.425H325.284V357.088Z" fill="#0A2540"/>
<path opacity="0.2" d="M369.428 375.414H372.618V357.077H369.428V375.414Z" fill="#0A2540"/>
<path opacity="0.2" d="M362.167 375.513H364.488V357.176H362.167V375.513Z" fill="#0A2540"/>
<path opacity="0.2" d="M355.49 375.414H356.656V357.077H355.49V375.414Z" fill="#0A2540"/>
<path opacity="0.2" d="M346.492 375.513H347.075V357.176H346.492V375.513Z" fill="#0A2540"/>
<path opacity="0.2" d="M335.757 375.513H336.043V357.176H335.757V375.513Z" fill="#0A2540"/>
<path opacity="0.2" d="M374.058 359.112H297.883C297.344 359.112 296.915 358.683 296.915 358.144C296.915 357.605 297.344 357.176 297.883 357.176H374.058C374.597 357.176 375.026 357.605 375.026 358.144C375.026 358.683 374.597 359.112 374.058 359.112Z" fill="#F6F9FC"/>
<path d="M374.829 335.517H296.948C296.183 335.517 295.562 336.137 295.562 336.903V354.657C295.562 355.422 296.183 356.043 296.948 356.043H374.829C375.594 356.043 376.214 355.422 376.214 354.657V336.903C376.214 336.137 375.594 335.517 374.829 335.517Z" fill="#635BFF"/>
<path opacity="0.2" d="M302.361 336.705H299.171V355.042H302.361V336.705Z" fill="#0A2540"/>
<path opacity="0.2" d="M309.621 336.605H307.3V354.942H309.621V336.605Z" fill="#0A2540"/>
<path opacity="0.2" d="M316.287 336.705H315.132V355.042H316.287V336.705Z" fill="#0A2540"/>
<path opacity="0.2" d="M325.284 336.605H324.701V354.942H325.284V336.605Z" fill="#0A2540"/>
<path opacity="0.2" d="M369.428 354.954H372.618V336.617H369.428V354.954Z" fill="#0A2540"/>
<path opacity="0.2" d="M362.167 355.03H364.488V336.693H362.167V355.03Z" fill="#0A2540"/>
<path opacity="0.2" d="M355.49 354.954H356.656V336.617H355.49V354.954Z" fill="#0A2540"/>
<path opacity="0.2" d="M346.492 355.03H347.075V336.693H346.492V355.03Z" fill="#0A2540"/>
<path opacity="0.2" d="M335.757 355.031H336.043V336.694H335.757V355.031Z" fill="#0A2540"/>
<path opacity="0.2" d="M374.058 338.641H297.883C297.344 338.641 296.915 338.212 296.915 337.673C296.915 337.134 297.344 336.705 297.883 336.705H374.058C374.597 336.705 375.026 337.134 375.026 337.673C375.026 338.212 374.597 338.641 374.058 338.641Z" fill="#F6F9FC"/>
<path d="M375.786 294.344H297.906C297.14 294.344 296.52 294.964 296.52 295.73V313.484C296.52 314.249 297.14 314.87 297.906 314.87H375.786C376.551 314.87 377.172 314.249 377.172 313.484V295.73C377.172 294.964 376.551 294.344 375.786 294.344Z" fill="#635BFF"/>
<path opacity="0.2" d="M303.318 295.532H300.128V313.869H303.318V295.532Z" fill="#0A2540"/>
<path opacity="0.2" d="M310.578 295.444H308.257V313.781H310.578V295.444Z" fill="#0A2540"/>
<path opacity="0.2" d="M317.244 295.532H316.089V313.869H317.244V295.532Z" fill="#0A2540"/>
<path opacity="0.2" d="M326.241 295.443H325.658V313.78H326.241V295.443Z" fill="#0A2540"/>
<path opacity="0.2" d="M370.385 313.77H373.575V295.433H370.385V313.77Z" fill="#0A2540"/>
<path opacity="0.2" d="M363.124 313.857H365.445V295.52H363.124V313.857Z" fill="#0A2540"/>
<path opacity="0.2" d="M356.459 313.77H357.614V295.433H356.459V313.77Z" fill="#0A2540"/>
<path opacity="0.2" d="M347.449 313.857H348.032V295.52H347.449V313.857Z" fill="#0A2540"/>
<path opacity="0.2" d="M336.714 313.858H337V295.521H336.714V313.858Z" fill="#0A2540"/>
<path opacity="0.2" d="M375.015 297.468H298.84C298.301 297.468 297.872 297.039 297.872 296.5C297.872 295.961 298.301 295.532 298.84 295.532H375.015C375.554 295.532 375.983 295.961 375.983 296.5C375.983 297.039 375.554 297.468 375.015 297.468Z" fill="#F6F9FC"/>
<path d="M377.039 315.035H299.159C298.394 315.035 297.773 315.656 297.773 316.421V334.175C297.773 334.941 298.394 335.561 299.159 335.561H377.039C377.805 335.561 378.425 334.941 378.425 334.175V316.421C378.425 315.656 377.805 315.035 377.039 315.035Z" fill="#635BFF"/>
<path opacity="0.2" d="M304.56 316.223H301.37V334.56H304.56V316.223Z" fill="#0A2540"/>
<path opacity="0.2" d="M311.82 316.135H309.499V334.472H311.82V316.135Z" fill="#0A2540"/>
<path opacity="0.2" d="M318.486 316.223H317.331V334.56H318.486V316.223Z" fill="#0A2540"/>
<path opacity="0.2" d="M327.484 316.135H326.901V334.472H327.484V316.135Z" fill="#0A2540"/>
<path opacity="0.2" d="M371.627 334.472H374.817V316.135H371.627V334.472Z" fill="#0A2540"/>
<path opacity="0.2" d="M364.367 334.56H366.688V316.223H364.367V334.56Z" fill="#0A2540"/>
<path opacity="0.2" d="M357.7 334.472H358.855V316.135H357.7V334.472Z" fill="#0A2540"/>
<path opacity="0.2" d="M348.703 334.56H349.286V316.223H348.703V334.56Z" fill="#0A2540"/>
<path opacity="0.2" d="M337.956 334.56H338.242V316.223H337.956V334.56Z" fill="#0A2540"/>
<path opacity="0.2" d="M376.269 318.159H300.094C299.555 318.159 299.126 317.73 299.126 317.191C299.126 316.652 299.555 316.223 300.094 316.223H376.269C376.808 316.223 377.237 316.652 377.237 317.191C377.237 317.73 376.808 318.159 376.269 318.159Z" fill="#F6F9FC"/>
<path d="M277.974 437.894H200.094C199.329 437.894 198.708 438.515 198.708 439.28V457.034C198.708 457.8 199.329 458.42 200.094 458.42H277.974C278.739 458.42 279.36 457.8 279.36 457.034V439.28C279.36 438.515 278.739 437.894 277.974 437.894Z" fill="#2FB4F7"/>
<path opacity="0.2" d="M205.505 439.082H202.315V457.419H205.505V439.082Z" fill="#0A2540"/>
<path opacity="0.2" d="M212.755 438.994H210.434V457.331H212.755V438.994Z" fill="#0A2540"/>
<path opacity="0.2" d="M219.421 439.082H218.266V457.419H219.421V439.082Z" fill="#0A2540"/>
<path opacity="0.2" d="M228.418 438.994H227.835V457.331H228.418V438.994Z" fill="#0A2540"/>
<path opacity="0.2" d="M272.561 457.32H275.751V438.983H272.561V457.32Z" fill="#0A2540"/>
<path opacity="0.2" d="M265.313 457.408H267.634V439.071H265.313V457.408Z" fill="#0A2540"/>
<path opacity="0.2" d="M258.635 457.32H259.79V438.983H258.635V457.32Z" fill="#0A2540"/>
<path opacity="0.2" d="M249.638 457.408H250.221V439.071H249.638V457.408Z" fill="#0A2540"/>
<path opacity="0.2" d="M238.891 457.408H239.177V439.071H238.891V457.408Z" fill="#0A2540"/>
<path opacity="0.2" d="M277.204 441.018H201.029C200.49 441.018 200.061 440.589 200.061 440.05C200.061 439.511 200.49 439.082 201.029 439.082H277.204C277.743 439.082 278.172 439.511 278.172 440.05C278.172 440.589 277.743 441.018 277.204 441.018Z" fill="#F6F9FC"/>
<path d="M279.075 417.423H201.195C200.429 417.423 199.809 418.043 199.809 418.809V436.563C199.809 437.328 200.429 437.949 201.195 437.949H279.075C279.84 437.949 280.461 437.328 280.461 436.563V418.809C280.461 418.043 279.84 417.423 279.075 417.423Z" fill="#2FB4F7"/>
<path opacity="0.2" d="M206.606 418.6H203.416V436.937H206.606V418.6Z" fill="#0A2540"/>
<path opacity="0.2" d="M213.855 418.512H211.534V436.849H213.855V418.512Z" fill="#0A2540"/>
<path opacity="0.2" d="M220.521 418.6H219.366V436.937H220.521V418.6Z" fill="#0A2540"/>
<path opacity="0.2" d="M229.53 418.512H228.947V436.849H229.53V418.512Z" fill="#0A2540"/>
<path opacity="0.2" d="M273.662 436.849H276.852V418.512H273.662V436.849Z" fill="#0A2540"/>
<path opacity="0.2" d="M266.402 436.948H268.723V418.611H266.402V436.948Z" fill="#0A2540"/>
<path opacity="0.2" d="M259.736 436.849H260.891V418.512H259.736V436.849Z" fill="#0A2540"/>
<path opacity="0.2" d="M250.738 436.948H251.321V418.611H250.738V436.948Z" fill="#0A2540"/>
<path opacity="0.2" d="M239.991 436.948H240.277V418.611H239.991V436.948Z" fill="#0A2540"/>
<path opacity="0.2" d="M278.304 420.547H202.129C201.59 420.547 201.161 420.118 201.161 419.579C201.161 419.04 201.59 418.611 202.129 418.611H278.304C278.843 418.611 279.272 419.04 279.272 419.579C279.272 420.118 278.843 420.547 278.304 420.547Z" fill="#F6F9FC"/>
<path d="M274.674 396.941H196.794C196.029 396.941 195.408 397.561 195.408 398.327V416.081C195.408 416.846 196.029 417.467 196.794 417.467H274.674C275.44 417.467 276.06 416.846 276.06 416.081V398.327C276.06 397.561 275.44 396.941 274.674 396.941Z" fill="#2FB4F7"/>
<path opacity="0.2" d="M202.195 398.129H199.005V416.466H202.195V398.129Z" fill="#0A2540"/>
<path opacity="0.2" d="M209.455 398.041H207.134V416.378H209.455V398.041Z" fill="#0A2540"/>
<path opacity="0.2" d="M216.121 398.129H214.966V416.466H216.121V398.129Z" fill="#0A2540"/>
<path opacity="0.2" d="M225.119 398.041H224.536V416.378H225.119V398.041Z" fill="#0A2540"/>
<path opacity="0.2" d="M269.25 416.367H272.44V398.03H269.25V416.367Z" fill="#0A2540"/>
<path opacity="0.2" d="M262.013 416.466H264.334V398.129H262.013V416.466Z" fill="#0A2540"/>
<path opacity="0.2" d="M255.335 416.367H256.49V398.03H255.335V416.367Z" fill="#0A2540"/>
<path opacity="0.2" d="M246.338 416.466H246.921V398.129H246.338V416.466Z" fill="#0A2540"/>
<path opacity="0.2" d="M235.591 416.466H235.877V398.129H235.591V416.466Z" fill="#0A2540"/>
<path opacity="0.2" d="M273.904 400.065H197.729C197.19 400.065 196.761 399.636 196.761 399.097C196.761 398.558 197.19 398.129 197.729 398.129H273.904C274.443 398.129 274.872 398.558 274.872 399.097C274.872 399.636 274.443 400.065 273.904 400.065Z" fill="#F6F9FC"/>
<path d="M230.806 383.378L228.595 388.823L226.923 392.937L222.721 391.441L224.228 387.745L226.604 381.871L230.806 383.378Z" fill="#FFB573"/>
<path d="M320.61 354.228L317.035 356.879L315.726 353.975L312.69 347.265L316.265 344.603L319.136 350.961L320.61 354.228Z" fill="#FFB573"/>
<path opacity="0.2" d="M226.605 381.871L230.807 383.378L228.596 388.823L224.229 387.745L226.605 381.871Z" fill="#0A2540"/>
<path opacity="0.2" d="M319.136 350.961L315.726 353.975L312.69 347.265L316.265 344.603L319.136 350.961Z" fill="#0A2540"/>
<path d="M254.203 238.167C254.258 241.489 253.84 247.473 251.211 249.222C251.211 249.222 251.508 252.632 257.47 253.699C264.026 254.865 261.188 251.004 261.188 251.004C257.767 249.508 258.328 246.879 259.395 244.492L254.203 238.178V238.167Z" fill="#FFB573"/>
<path d="M250.793 235.89C252.52 239.96 253.323 242.435 256.172 243.821C260.462 245.922 264.928 242.204 264.455 237.694C264.026 233.635 261.287 227.662 256.623 227.442C252.036 227.222 249.066 231.809 250.782 235.879L250.793 235.89Z" fill="#FFB573"/>
<path d="M253.697 242.512C255.644 243.293 261.716 238.937 259.637 233.91C259.637 233.91 261.716 230.555 260.968 227.288C260.22 224.021 257.767 223.064 255.446 224.12C253.4 225.044 253.62 226.199 253.62 226.199C253.62 226.199 243.709 228.795 246.426 232.59C242.95 237.639 251.255 241.544 253.675 242.512H253.697Z" fill="#0A2540"/>
<path d="M258.009 235.065C258.449 236.132 259.318 236.99 260.154 237.452C261.419 238.145 262.156 237.188 261.903 235.901C261.661 234.746 260.726 232.986 259.406 232.81C258.108 232.645 257.503 233.844 258.009 235.065Z" fill="#FFB573"/>
<path d="M249.627 249.266C249.165 248.342 248.659 247.297 249.781 247C251.013 246.681 258.867 246.252 261.144 247C260.396 248.232 261.551 249.816 261.551 249.816L249.627 249.266Z" fill="#635BFF"/>
<path opacity="0.5" d="M249.627 249.266C249.165 248.342 248.659 247.297 249.781 247C251.013 246.681 258.867 246.252 261.144 247C260.396 248.232 261.551 249.816 261.551 249.816L249.627 249.266Z" fill="#FAFAFA"/>
<path d="M227.209 391.1H222.347C222.16 391.1 222.006 391.221 221.973 391.408L221.093 395.368C221.005 395.775 221.313 396.171 221.731 396.16C223.491 396.127 226.021 396.028 228.232 396.028C230.806 396.028 233.039 396.171 236.064 396.171C237.89 396.171 238.396 394.323 237.637 394.158C234.15 393.399 231.312 393.311 228.298 391.452C227.968 391.254 227.605 391.1 227.22 391.1H227.209Z" fill="#0A2540"/>
<path d="M258.669 288.58C258.669 288.58 257.283 297.919 255.567 308.644C254.83 313.242 254.038 318.093 253.257 322.581C252.388 327.608 251.541 332.162 250.837 335.374C247.801 349.344 231.51 387.844 231.51 387.844L223.535 386.117C223.535 386.117 234.931 356.164 237.472 336.639C239.441 321.646 243.302 288.58 243.302 288.58H258.669Z" fill="#0A2540"/>
<path d="M233.413 385.171L231.928 388.053L222.952 386.106L223.711 383.411L233.413 385.171Z" fill="#635BFF"/>
<path opacity="0.3" d="M233.413 385.171L231.928 388.053L222.952 386.106L223.711 383.411L233.413 385.171Z" fill="#0A2540"/>
<path opacity="0.2" d="M255.567 308.644C254.83 313.242 254.038 318.093 253.257 322.581C251.112 313.704 251.772 308.391 251.772 308.391L255.567 308.644Z" fill="#0A2540"/>
<path d="M245.634 257.406C243.5 259.43 241.278 261.575 239.188 263.72C237.12 265.887 235.052 268.109 233.314 270.353C232.643 271.266 231.873 272.619 231.202 273.917C230.52 275.248 229.827 276.601 229.156 277.987L225.119 286.325L221.962 285.236C222.644 282.134 223.513 279.131 224.459 276.095C224.954 274.588 225.471 273.081 226.065 271.574C226.692 270.056 227.264 268.582 228.309 266.899C230.157 264.061 232.159 261.564 234.315 259.177C236.471 256.779 238.671 254.535 241.135 252.379L245.634 257.417V257.406Z" fill="#FFB573"/>
<path d="M221.687 293.321L223.304 290.45L218.376 288.965C218.376 288.965 217.386 291.275 218.464 293.145L221.687 293.321Z" fill="#FFB573"/>
<path d="M225.108 286.248L221.951 285.225L218.376 288.965L223.304 290.45L225.108 286.248Z" fill="#FFB573"/>
<path d="M320.555 353.623L316.529 356.604C316.386 356.714 316.331 356.912 316.408 357.077L318.058 360.784C318.234 361.169 318.718 361.29 319.059 361.037C320.445 359.97 321.061 359.387 322.832 358.078C323.921 357.275 326.44 355.504 327.936 354.393C329.41 353.304 328.53 351.654 327.815 351.973C324.614 353.414 322.766 353.568 321.292 353.425C321.028 353.403 320.764 353.48 320.544 353.634L320.555 353.623Z" fill="#0A2540"/>
<path d="M243.72 249.673C239.441 249.409 233.127 258.66 233.127 258.66L239.364 267.163C239.364 267.163 243.137 265.249 245.964 260.53C248.923 255.58 248.098 249.948 243.731 249.684L243.72 249.673Z" fill="#635BFF"/>
<path opacity="0.6" d="M243.72 249.673C239.441 249.409 233.127 258.66 233.127 258.66L239.364 267.163C239.364 267.163 243.137 265.249 245.964 260.53C248.923 255.58 248.098 249.948 243.731 249.684L243.72 249.673Z" fill="#FAFAFA"/>
<path opacity="0.2" d="M244.93 258.198C242.125 259.705 240.255 263.423 239.078 266.778L239.353 267.152C239.353 267.152 243.126 265.238 245.953 260.519C246.129 260.222 246.294 259.925 246.448 259.628L244.93 258.198Z" fill="#0A2540"/>
<path d="M269.043 248.991C269.043 248.991 271.595 255.437 267.118 288.58H243.292C243.127 284.928 245.426 267.086 241.895 249.849C241.895 249.849 245.976 249.024 249.87 248.837C252.917 248.694 263.081 246.637 265.754 246.879C269.285 247.198 269.032 248.98 269.032 248.98L269.043 248.991Z" fill="#635BFF"/>
<path opacity="0.6" d="M269.603 263.61C269.317 269.473 268.602 277.547 267.117 288.58H243.302C243.137 284.917 245.436 267.075 241.905 249.849C241.905 249.849 245.986 249.024 249.88 248.837C252.927 248.694 263.091 246.637 265.764 246.89C269.295 247.209 269.042 248.991 269.042 248.991C269.042 248.991 269.581 250.344 269.724 254.997C269.801 257.12 269.79 259.925 269.603 263.61Z" fill="#FAFAFA"/>
<path d="M266.149 286.644L270.846 297.688C270.846 297.688 293.649 300.548 300.117 308.391C306.585 316.234 318.773 348.068 318.773 348.068L312.679 353.238C312.679 353.238 295.189 321.074 290.294 317.202C285.41 313.33 257.536 313.33 251.31 311.009C245.084 308.688 243.28 288.591 243.28 288.591L266.138 286.666L266.149 286.644Z" fill="#0A2540"/>
<path d="M311.437 352.6L318.785 346.968L319.731 348.783L312.691 354.327L311.437 352.6Z" fill="#635BFF"/>
<path opacity="0.3" d="M311.437 352.6L318.785 346.968L319.731 348.783L312.691 354.327L311.437 352.6Z" fill="#0A2540"/>
<path d="M261.123 228.894C261.123 228.894 260.837 222.371 257.394 222.151C253.94 221.931 251.212 225.055 251.212 225.055C251.212 225.055 250.387 223.812 248.429 223.713C246.471 223.603 243.05 226.947 243.05 226.947C243.05 226.947 247.307 224.329 249.1 225.528C249.1 225.528 244.271 226.87 243.05 229.917C241.829 232.964 240.52 234.053 240.52 234.053H243.05L241.389 236.88C241.389 236.88 244.887 240.268 247.527 239.696L246.68 241.302C246.68 241.302 251.861 243.194 253.973 242.611C256.085 242.028 254.083 231.512 254.083 231.512L261.123 228.905V228.894Z" fill="#0A2540"/>
<path opacity="0.2" d="M269.603 263.61C265.28 260.673 265.346 253.908 265.346 253.908L269.724 254.997C269.801 257.12 269.79 259.925 269.603 263.61Z" fill="#0A2540"/>
<path d="M229.728 297.006L200.347 292.067L192.746 314.683L197.608 323.505L229.684 327.729L236.185 303.1L229.728 297.006Z" fill="#635BFF"/>
<path opacity="0.4" d="M192.746 314.683L194.638 318.126L195.067 318.885L197.608 323.505L229.684 327.729L236.185 303.1L233.435 300.493L232.577 299.69L229.739 297.006L200.347 292.067L192.746 314.683Z" fill="#0A2540"/>
<path opacity="0.2" d="M236.185 303.1L207.101 298.579L200.347 292.067L229.739 297.006L236.185 303.1Z" fill="#F6F9FC"/>
<path opacity="0.1" d="M207.101 298.579L197.608 323.505L192.746 314.683L200.347 292.067L207.101 298.579Z" fill="#F6F9FC"/>
<path d="M194.638 318.126L195.067 318.885L203.856 295.521L233.435 300.493L232.577 299.69L203.328 295.015L194.638 318.126Z" fill="#0A2540"/>
<path d="M223.502 298.348L222.017 296.973L214.614 295.631L215.912 297.116L223.502 298.348Z" fill="#0A2540"/>
<path d="M226.362 298.898C226.362 298.898 226.703 291.132 226.494 290.615C226.274 290.098 215.868 288.393 215.087 288.25C214.317 288.096 210.863 295.653 210.863 295.653L211.457 296.566L213.426 296.83C213.426 296.83 215.923 290.307 216.176 290.153C216.429 289.999 224.448 291.363 224.668 291.539C224.888 291.715 224.019 297.633 224.019 297.633L224.701 298.612L226.351 298.909L226.362 298.898Z" fill="#0A2540"/>
<path d="M194.736 311.24L196.87 314.067L197.079 313.506L198.74 309.095L198.938 308.567L199.29 307.621C199.29 307.621 198.663 308.325 197.805 309.128C196.87 309.997 195.671 310.976 194.725 311.24H194.736Z" fill="#635BFF"/>
<path opacity="0.2" d="M195.45 311.449L197.089 313.506L198.75 309.095L198.948 308.567C198.178 309.513 196.781 311.02 195.45 311.46V311.449Z" fill="#F6F9FC"/>
<path opacity="0.2" d="M197.815 309.128C198.134 309.106 198.453 309.095 198.75 309.095L199.311 307.621C199.311 307.621 198.684 308.325 197.826 309.128H197.815Z" fill="#0A2540"/>
<path d="M193.933 305.696L193.526 309.678C193.526 309.678 196.045 308.435 198.784 308.985L198.993 308.435L200.28 305.014L200.412 304.662C200.412 304.662 196.804 304.244 193.933 305.707V305.696Z" fill="#635BFF"/>
<path d="M198.113 298.953C198.113 298.953 199.279 301.329 201.116 302.979L201.27 302.561L201.666 301.472L202.326 299.657L202.645 298.777L202.733 298.524C202.733 298.524 201.82 297.138 201.369 295.983L198.124 298.942L198.113 298.953Z" fill="#635BFF"/>
<path d="M204.845 293.827C204.845 293.827 205.648 295.136 205.758 295.84L206.22 295.917L206.858 296.016L207.87 296.192L208.849 296.357L209.201 296.412C209.201 296.412 209.333 294.311 207.595 292.276L204.834 293.816L204.845 293.827Z" fill="#635BFF"/>
<path opacity="0.2" d="M205.461 293.926C205.461 293.926 206.055 295.07 206.231 295.928L206.869 296.027C206.759 295.862 206.726 295.653 206.792 295.455C206.913 295.092 207.298 294.894 207.661 295.015C208.024 295.136 208.222 295.521 208.101 295.884C208.057 296.016 207.98 296.126 207.881 296.203L208.86 296.368C208.783 295.521 208.519 293.783 207.573 292.793L205.45 293.926H205.461Z" fill="#F6F9FC"/>
<path opacity="0.2" d="M194.197 305.861L193.944 309.095C193.944 309.095 196.749 308.127 198.982 308.446L200.269 305.025C199.07 304.893 196.54 304.794 194.197 305.861ZM197.728 305.597C198.355 305.553 198.883 305.905 198.916 306.4C198.949 306.895 198.476 307.324 197.849 307.368C197.222 307.412 196.694 307.049 196.65 306.565C196.617 306.07 197.09 305.641 197.717 305.597H197.728Z" fill="#F6F9FC"/>
<path opacity="0.2" d="M198.675 299.129C198.675 299.129 200.16 301.615 201.26 302.561L201.656 301.472C201.205 301.307 200.963 300.779 201.128 300.284C201.293 299.778 201.81 299.492 202.272 299.635C202.283 299.635 202.305 299.635 202.316 299.657L202.635 298.777C202.195 298.271 201.601 297.49 201.293 296.687L198.675 299.129Z" fill="#F6F9FC"/>
<path d="M297.104 228.201L298.798 225.374L302.538 228.916C302.538 228.916 301.02 230.929 298.864 230.907L297.115 228.201H297.104Z" fill="#FFB573"/>
<path d="M301.415 221.59L304.066 225.308L302.537 228.916L298.797 225.374L301.415 221.59Z" fill="#FFB573"/>
<path d="M267.833 247.451C270.781 246.835 273.916 246.054 276.842 245.119C279.757 244.14 282.672 243.073 285.004 241.555C285.323 241.357 285.422 241.247 285.675 241.071L286.434 240.378C286.962 239.872 287.49 239.311 288.029 238.739C289.085 237.573 290.152 236.374 291.197 235.142C293.309 232.7 295.388 230.159 297.511 227.684L300.294 229.532C298.765 232.513 297.071 235.34 295.278 238.178C294.354 239.575 293.43 240.983 292.396 242.347C291.879 243.029 291.34 243.722 290.746 244.415C290.46 244.767 290.097 245.119 289.767 245.46C289.393 245.801 288.887 246.263 288.524 246.516C285.466 248.749 282.254 250.256 278.987 251.422C275.698 252.599 272.475 253.479 268.966 254.084L267.811 247.429L267.833 247.451Z" fill="#FFB573"/>
<path d="M266.413 257.065C271.055 261.08 281.23 254.194 281.23 254.194L277.171 244.173C277.171 244.173 271.396 244.778 266.182 246.538C259.736 248.716 262.882 253.996 266.413 257.065Z" fill="#635BFF"/>
<path opacity="0.6" d="M266.413 257.065C271.055 261.08 281.23 254.194 281.23 254.194L277.171 244.173C277.171 244.173 271.396 244.778 266.182 246.538C259.736 248.716 262.882 253.996 266.413 257.065Z" fill="#FAFAFA"/>
</g>
<defs>
<filter id="filter0_d_9_5486" x="0" y="0" width="704" height="482" filterUnits="userSpaceOnUse" color-interpolation-filters="sRGB">
<feFlood flood-opacity="0" result="BackgroundImageFix"/>
<feColorMatrix in="SourceAlpha" type="matrix" values="0 0 0 0 0 0 0 0 0 0 0 0 0 0 0 0 0 0 127 0" result="hardAlpha"/>
<feOffset dx="4" dy="8"/>
<feGaussianBlur stdDeviation="8"/>
<feComposite in2="hardAlpha" operator="out"/>
<feColorMatrix type="matrix" values="0 0 0 0 0.388235 0 0 0 0 0.356863 0 0 0 0 1 0 0 0 0.1 0"/>
<feBlend mode="normal" in2="BackgroundImageFix" result="effect1_dropShadow_9_5486"/>
<feBlend mode="normal" in="SourceGraphic" in2="effect1_dropShadow_9_5486" result="shape"/>
</filter>
<filter id="filter1_d_9_5486" x="69" y="60" width="558" height="406.42" filterUnits="userSpaceOnUse" color-interpolation-filters="sRGB">
<feFlood flood-opacity="0" result="BackgroundImageFix"/>
<feColorMatrix in="SourceAlpha" type="matrix" values="0 0 0 0 0 0 0 0 0 0 0 0 0 0 0 0 0 0 127 0" result="hardAlpha"/>
<feOffset dy="4"/>
<feGaussianBlur stdDeviation="2"/>
<feComposite in2="hardAlpha" operator="out"/>
<feColorMatrix type="matrix" values="0 0 0 0 0 0 0 0 0 0 0 0 0 0 0 0 0 0 0.25 0"/>
<feBlend mode="normal" in2="BackgroundImageFix" result="effect1_dropShadow_9_5486"/>
<feBlend mode="normal" in="SourceGraphic" in2="effect1_dropShadow_9_5486" result="shape"/>
</filter>
<linearGradient id="paint0_linear_9_5486" x1="348" y1="8" x2="348" y2="458" gradientUnits="userSpaceOnUse">
<stop offset="0.5" stop-color="#DEEAF6"/>
<stop offset="1" stop-color="white"/>
</linearGradient>
</defs>
</svg>
