<svg width="704" height="482" viewBox="0 0 704 482" fill="none" xmlns="http://www.w3.org/2000/svg">
<g filter="url(#filter0_d_9_5487)">
<rect x="12" y="8" width="672" height="450" rx="24" fill="url(#paint0_linear_9_5487)"/>
<rect x="17" y="13" width="662" height="440" rx="19" stroke="white" stroke-width="10"/>
</g>
<g clip-path="url(#clip0_9_5487)">
<path d="M437.342 437.571H427.783V437.881H437.342V437.571Z" fill="#EBEBEB"/>
<path d="M178.215 424.768H130.706V425.078H178.215V424.768Z" fill="#EBEBEB"/>
<path d="M194.979 424.768H188.016V425.078H194.979V424.768Z" fill="#EBEBEB"/>
<path d="M320.665 430.003H217.617V430.313H320.665V430.003Z" fill="#EBEBEB"/>
<path d="M495.499 181.535C495.499 177.937 498.084 175.01 501.285 175.01C501.868 175.01 502.418 175.109 502.946 175.282C502.858 174.625 502.814 173.955 502.814 173.285C502.814 165.655 508.303 159.465 515.068 159.465C515.838 159.465 516.597 159.552 517.323 159.701C519.204 156.227 522.592 153.895 526.464 153.895C532.327 153.895 537.09 159.204 537.178 165.804C537.233 165.804 537.299 165.804 537.354 165.804C542.799 165.804 547.221 170.792 547.221 176.932C547.221 183.073 542.799 188.061 537.354 188.061H501.12C497.996 187.961 495.499 185.083 495.499 181.548V181.535Z" fill="#F6F9FC"/>
<path d="M171.395 152.071C171.395 148.473 173.98 145.545 177.181 145.545C177.764 145.545 178.314 145.644 178.842 145.818C178.754 145.161 178.71 144.491 178.71 143.821C178.71 136.191 184.199 130 190.964 130C191.734 130 192.493 130.087 193.219 130.236C195.1 126.763 198.488 124.43 202.36 124.43C208.223 124.43 212.986 129.74 213.074 136.34C213.129 136.34 213.195 136.34 213.25 136.34C218.695 136.34 223.117 141.327 223.117 147.468C223.117 153.609 218.695 158.596 213.25 158.596H177.016C173.892 158.497 171.395 155.619 171.395 152.083V152.071Z" fill="#F6F9FC"/>
<path d="M320.159 57.6488H299.072C299.127 57.0781 299.16 56.4951 299.16 55.912C299.16 47.265 292.945 40.2556 285.278 40.2556C285.113 40.2556 284.937 40.2804 284.772 40.2804C283.034 35.0203 278.546 31.2612 273.277 31.2612C266.49 31.2612 260.99 37.4642 260.99 45.1187C260.99 45.1187 260.99 45.1436 260.99 45.156C254.973 45.4785 250.155 50.8875 249.847 57.6612H249.286C245.887 57.6612 243.115 60.8 243.115 64.621C243.115 68.4421 245.898 71.5808 249.286 71.5808H320.159C323.558 71.5808 326.33 68.4421 326.33 64.621C326.33 60.8 323.558 57.6612 320.159 57.6612V57.6488Z" fill="#F6F9FC"/>
<path d="M476.392 67.5985C473.092 61.6685 467.262 57.7109 460.607 57.7109C453.952 57.7109 447.924 61.8049 444.657 67.8963C443.799 67.6233 442.897 67.4745 441.962 67.4745C436.451 67.4745 431.974 72.5113 431.974 78.7391C431.974 78.7391 431.974 78.7391 431.974 78.7515H426.705C423.966 78.7515 421.722 81.2824 421.722 84.3715C421.722 87.4606 423.966 89.9914 426.705 89.9914H444.877C448.188 95.847 453.985 99.7549 460.596 99.7549C465.81 99.7549 470.529 97.3358 473.906 93.4403C474.225 93.4651 474.533 93.4899 474.852 93.4899C481.221 93.4899 486.391 87.6715 486.391 80.476C486.391 73.876 482.035 68.4421 476.381 67.5985H476.392Z" fill="#F6F9FC"/>
<path d="M365.402 147.133C362.102 141.203 356.272 137.246 349.617 137.246C342.962 137.246 336.934 141.34 333.667 147.431C332.809 147.158 331.907 147.009 330.972 147.009C325.461 147.009 320.984 152.046 320.984 158.274C320.984 158.274 320.984 158.274 320.984 158.286H315.715C312.976 158.286 310.732 160.817 310.732 163.906C310.732 166.995 312.976 169.526 315.715 169.526H333.887C337.198 175.382 342.995 179.29 349.606 179.29C354.82 179.29 359.539 176.87 362.916 172.975C363.235 173 363.543 173.025 363.862 173.025C370.231 173.025 375.401 167.206 375.401 160.011C375.401 153.411 371.045 147.977 365.391 147.133H365.402Z" fill="#F6F9FC"/>
<path d="M135.084 414.049V354.748H139.572V326.5H146.15V228.269H155.654V215.59L175.927 204.921V192.143H178.743V228.269H182.67V326.5H186.608V274.841H197.289V248.23H200.259V326.5H208.377V296.713H213.712V289.108H226.076V263.117H232.841V244.744H241.168V217.96H244.138V244.744H252.454V263.117H259.23V289.108H271.594V296.713H276.929V326.5H283.265V289.108H295.629V208.618H299.556V199.748H325.967V208.618H331.588V266.926H354.061V272.633H362.498V277.062H354.061V299.876H377.667V223.828H382.727V207.663H393.683V150.31H396.774V207.663H404.639V223.828H450.762V218.505H453.567V254.632H457.505V255.264H459.87V291.391H463.797V301.216H472.113V274.593H475.094V337.975H478.405V311.352H481.386V352.863H483.201V323.076H488.536V315.471H500.9V289.493H507.676V271.107H515.992V244.335H518.962V271.107H527.289V289.493H534.054V315.471H546.418V323.076H551.764V352.23H552.721V352.863H555.361V414.049H135.084Z" fill="#F6F9FC"/>
<path d="M425.022 227.375H421.843V230.961H425.022V227.375Z" fill="#DEEAF6"/>
<path d="M425.022 233.405H421.843V236.991H425.022V233.405Z" fill="#DEEAF6"/>
<path d="M425.022 257.485H421.843V261.071H425.022V257.485Z" fill="#DEEAF6"/>
<path d="M425.022 263.502H421.843V267.087H425.022V263.502Z" fill="#DEEAF6"/>
<path d="M425.022 269.531H421.843V273.129H425.022V269.531Z" fill="#DEEAF6"/>
<path d="M425.022 287.595H421.843V291.18H425.022V287.595Z" fill="#DEEAF6"/>
<path d="M425.022 293.611H421.843V297.209H425.022V293.611Z" fill="#DEEAF6"/>
<path d="M419.961 251.468H416.782V255.066H419.961V251.468Z" fill="#DEEAF6"/>
<path d="M419.961 257.485H416.782V261.071H419.961V257.485Z" fill="#DEEAF6"/>
<path d="M419.961 263.502H416.782V267.087H419.961V263.502Z" fill="#DEEAF6"/>
<path d="M419.961 269.531H416.782V273.129H419.961V269.531Z" fill="#DEEAF6"/>
<path d="M419.961 275.548H416.782V279.146H419.961V275.548Z" fill="#DEEAF6"/>
<path d="M419.961 287.595H416.782V291.18H419.961V287.595Z" fill="#DEEAF6"/>
<path d="M419.961 293.611H416.782V297.209H419.961V293.611Z" fill="#DEEAF6"/>
<path d="M414.902 227.375H411.723V230.961H414.902V227.375Z" fill="#DEEAF6"/>
<path d="M414.902 233.405H411.723V236.991H414.902V233.405Z" fill="#DEEAF6"/>
<path d="M414.902 239.422H411.723V243.02H414.902V239.422Z" fill="#DEEAF6"/>
<path d="M414.902 245.439H411.723V249.037H414.902V245.439Z" fill="#DEEAF6"/>
<path d="M414.902 251.468H411.723V255.066H414.902V251.468Z" fill="#DEEAF6"/>
<path d="M414.902 257.485H411.723V261.071H414.902V257.485Z" fill="#DEEAF6"/>
<path d="M414.902 263.502H411.723V267.087H414.902V263.502Z" fill="#DEEAF6"/>
<path d="M414.902 269.531H411.723V273.129H414.902V269.531Z" fill="#DEEAF6"/>
<path d="M414.902 275.548H411.723V279.146H414.902V275.548Z" fill="#DEEAF6"/>
<path d="M414.902 281.565H411.723V285.163H414.902V281.565Z" fill="#DEEAF6"/>
<path d="M414.902 293.611H411.723V297.209H414.902V293.611Z" fill="#DEEAF6"/>
<path d="M409.853 227.375H406.674V230.961H409.853V227.375Z" fill="#DEEAF6"/>
<path d="M409.853 233.405H406.674V236.991H409.853V233.405Z" fill="#DEEAF6"/>
<path d="M409.853 239.422H406.674V243.02H409.853V239.422Z" fill="#DEEAF6"/>
<path d="M409.853 245.439H406.674V249.037H409.853V245.439Z" fill="#DEEAF6"/>
<path d="M409.853 251.468H406.674V255.066H409.853V251.468Z" fill="#DEEAF6"/>
<path d="M409.853 257.485H406.674V261.071H409.853V257.485Z" fill="#DEEAF6"/>
<path d="M409.853 263.502H406.674V267.087H409.853V263.502Z" fill="#DEEAF6"/>
<path d="M409.853 317.691H406.674V321.277H409.853V317.691Z" fill="#DEEAF6"/>
<path d="M404.792 227.375H401.613V230.961H404.792V227.375Z" fill="#DEEAF6"/>
<path d="M404.792 233.405H401.613V236.99H404.792V233.405Z" fill="#DEEAF6"/>
<path d="M404.792 239.422H401.613V243.02H404.792V239.422Z" fill="#DEEAF6"/>
<path d="M404.792 245.439H401.613V249.037H404.792V245.439Z" fill="#DEEAF6"/>
<path d="M404.792 251.468H401.613V255.066H404.792V251.468Z" fill="#DEEAF6"/>
<path d="M404.792 257.485H401.613V261.07H404.792V257.485Z" fill="#DEEAF6"/>
<path d="M404.792 263.502H401.613V267.087H404.792V263.502Z" fill="#DEEAF6"/>
<path d="M404.792 269.531H401.613V273.129H404.792V269.531Z" fill="#DEEAF6"/>
<path d="M404.792 305.645H401.613V309.23H404.792V305.645Z" fill="#DEEAF6"/>
<path d="M404.792 311.675H401.613V315.26H404.792V311.675Z" fill="#DEEAF6"/>
<path d="M404.792 317.691H401.613V321.277H404.792V317.691Z" fill="#DEEAF6"/>
<path d="M404.792 323.708H401.613V327.306H404.792V323.708Z" fill="#DEEAF6"/>
<path d="M404.792 347.801H401.613V351.386H404.792V347.801Z" fill="#DEEAF6"/>
<path d="M399.733 227.375H396.554V230.961H399.733V227.375Z" fill="#DEEAF6"/>
<path d="M399.733 233.405H396.554V236.991H399.733V233.405Z" fill="#DEEAF6"/>
<path d="M399.733 239.422H396.554V243.02H399.733V239.422Z" fill="#DEEAF6"/>
<path d="M399.733 245.439H396.554V249.037H399.733V245.439Z" fill="#DEEAF6"/>
<path d="M399.733 251.468H396.554V255.066H399.733V251.468Z" fill="#DEEAF6"/>
<path d="M399.733 257.485H396.554V261.071H399.733V257.485Z" fill="#DEEAF6"/>
<path d="M399.733 263.502H396.554V267.087H399.733V263.502Z" fill="#DEEAF6"/>
<path d="M399.733 269.531H396.554V273.129H399.733V269.531Z" fill="#DEEAF6"/>
<path d="M399.733 275.548H396.554V279.146H399.733V275.548Z" fill="#DEEAF6"/>
<path d="M399.733 281.565H396.554V285.163H399.733V281.565Z" fill="#DEEAF6"/>
<path d="M399.733 299.628H396.554V303.214H399.733V299.628Z" fill="#DEEAF6"/>
<path d="M399.733 305.646H396.554V309.231H399.733V305.646Z" fill="#DEEAF6"/>
<path d="M399.733 311.675H396.554V315.26H399.733V311.675Z" fill="#DEEAF6"/>
<path d="M399.733 317.691H396.554V321.277H399.733V317.691Z" fill="#DEEAF6"/>
<path d="M399.733 323.708H396.554V327.306H399.733V323.708Z" fill="#DEEAF6"/>
<path d="M399.733 347.801H396.554V351.386H399.733V347.801Z" fill="#DEEAF6"/>
<path d="M394.673 227.375H391.494V230.961H394.673V227.375Z" fill="#DEEAF6"/>
<path d="M394.673 233.405H391.494V236.991H394.673V233.405Z" fill="#DEEAF6"/>
<path d="M394.673 239.422H391.494V243.02H394.673V239.422Z" fill="#DEEAF6"/>
<path d="M394.673 245.439H391.494V249.037H394.673V245.439Z" fill="#DEEAF6"/>
<path d="M394.673 251.468H391.494V255.066H394.673V251.468Z" fill="#DEEAF6"/>
<path d="M394.673 257.485H391.494V261.071H394.673V257.485Z" fill="#DEEAF6"/>
<path d="M394.673 263.502H391.494V267.087H394.673V263.502Z" fill="#DEEAF6"/>
<path d="M394.673 269.531H391.494V273.129H394.673V269.531Z" fill="#DEEAF6"/>
<path d="M394.673 275.548H391.494V279.146H394.673V275.548Z" fill="#DEEAF6"/>
<path d="M394.673 281.565H391.494V285.163H394.673V281.565Z" fill="#DEEAF6"/>
<path d="M394.673 287.595H391.494V291.18H394.673V287.595Z" fill="#DEEAF6"/>
<path d="M394.673 293.611H391.494V297.209H394.673V293.611Z" fill="#DEEAF6"/>
<path d="M394.673 299.628H391.494V303.214H394.673V299.628Z" fill="#DEEAF6"/>
<path d="M394.673 305.646H391.494V309.231H394.673V305.646Z" fill="#DEEAF6"/>
<path d="M394.673 311.675H391.494V315.26H394.673V311.675Z" fill="#DEEAF6"/>
<path d="M394.673 317.691H391.494V321.277H394.673V317.691Z" fill="#DEEAF6"/>
<path d="M394.673 323.708H391.494V327.306H394.673V323.708Z" fill="#DEEAF6"/>
<path d="M394.673 329.738H391.494V333.323H394.673V329.738Z" fill="#DEEAF6"/>
<path d="M389.623 227.375H386.444V230.961H389.623V227.375Z" fill="#DEEAF6"/>
<path d="M389.623 233.405H386.444V236.991H389.623V233.405Z" fill="#DEEAF6"/>
<path d="M389.623 239.422H386.444V243.02H389.623V239.422Z" fill="#DEEAF6"/>
<path d="M389.623 245.439H386.444V249.037H389.623V245.439Z" fill="#DEEAF6"/>
<path d="M389.623 251.468H386.444V255.066H389.623V251.468Z" fill="#DEEAF6"/>
<path d="M389.623 257.485H386.444V261.071H389.623V257.485Z" fill="#DEEAF6"/>
<path d="M389.623 263.502H386.444V267.087H389.623V263.502Z" fill="#DEEAF6"/>
<path d="M389.623 269.531H386.444V273.129H389.623V269.531Z" fill="#DEEAF6"/>
<path d="M389.623 275.548H386.444V279.146H389.623V275.548Z" fill="#DEEAF6"/>
<path d="M389.623 281.565H386.444V285.163H389.623V281.565Z" fill="#DEEAF6"/>
<path d="M389.623 299.628H386.444V303.214H389.623V299.628Z" fill="#DEEAF6"/>
<path d="M389.623 305.646H386.444V309.231H389.623V305.646Z" fill="#DEEAF6"/>
<path d="M389.623 311.675H386.444V315.26H389.623V311.675Z" fill="#DEEAF6"/>
<path d="M389.623 317.691H386.444V321.277H389.623V317.691Z" fill="#DEEAF6"/>
<path d="M384.564 227.375H381.385V230.961H384.564V227.375Z" fill="#DEEAF6"/>
<path d="M384.564 233.405H381.385V236.991H384.564V233.405Z" fill="#DEEAF6"/>
<path d="M384.564 239.422H381.385V243.02H384.564V239.422Z" fill="#DEEAF6"/>
<path d="M384.564 245.439H381.385V249.037H384.564V245.439Z" fill="#DEEAF6"/>
<path d="M384.564 251.468H381.385V255.066H384.564V251.468Z" fill="#DEEAF6"/>
<path d="M384.564 257.485H381.385V261.071H384.564V257.485Z" fill="#DEEAF6"/>
<path d="M384.564 263.502H381.385V267.087H384.564V263.502Z" fill="#DEEAF6"/>
<path d="M384.564 269.531H381.385V273.129H384.564V269.531Z" fill="#DEEAF6"/>
<path d="M384.564 275.548H381.385V279.146H384.564V275.548Z" fill="#DEEAF6"/>
<path d="M384.564 281.565H381.385V285.163H384.564V281.565Z" fill="#DEEAF6"/>
<path d="M384.564 299.628H381.385V303.214H384.564V299.628Z" fill="#DEEAF6"/>
<path d="M384.564 305.646H381.385V309.231H384.564V305.646Z" fill="#DEEAF6"/>
<path d="M384.564 311.675H381.385V315.26H384.564V311.675Z" fill="#DEEAF6"/>
<path d="M327.616 211.744H324.438V215.329H327.616V211.744Z" fill="#DEEAF6"/>
<path d="M327.616 217.773H324.438V221.359H327.616V217.773Z" fill="#DEEAF6"/>
<path d="M327.616 223.791H324.438V227.376H327.616V223.791Z" fill="#DEEAF6"/>
<path d="M327.616 229.807H324.438V233.392H327.616V229.807Z" fill="#DEEAF6"/>
<path d="M327.616 235.836H324.438V239.422H327.616V235.836Z" fill="#DEEAF6"/>
<path d="M327.616 241.854H324.438V245.439H327.616V241.854Z" fill="#DEEAF6"/>
<path d="M327.616 247.871H324.438V251.456H327.616V247.871Z" fill="#DEEAF6"/>
<path d="M327.616 253.887H324.438V257.473H327.616V253.887Z" fill="#DEEAF6"/>
<path d="M327.616 271.951H324.438V275.536H327.616V271.951Z" fill="#DEEAF6"/>
<path d="M327.616 277.98H324.438V281.565H327.616V277.98Z" fill="#DEEAF6"/>
<path d="M322.568 211.744H319.378V215.329H322.568V211.744Z" fill="#DEEAF6"/>
<path d="M322.568 217.773H319.378V221.359H322.568V217.773Z" fill="#DEEAF6"/>
<path d="M322.568 223.791H319.378V227.376H322.568V223.791Z" fill="#DEEAF6"/>
<path d="M322.568 229.807H319.378V233.392H322.568V229.807Z" fill="#DEEAF6"/>
<path d="M322.568 235.837H319.378V239.422H322.568V235.837Z" fill="#DEEAF6"/>
<path d="M322.568 241.854H319.378V245.439H322.568V241.854Z" fill="#DEEAF6"/>
<path d="M322.568 247.871H319.378V251.456H322.568V247.871Z" fill="#DEEAF6"/>
<path d="M322.568 253.887H319.378V257.473H322.568V253.887Z" fill="#DEEAF6"/>
<path d="M322.568 277.98H319.378V281.565H322.568V277.98Z" fill="#DEEAF6"/>
<path d="M317.519 211.744H314.329V215.329H317.519V211.744Z" fill="#DEEAF6"/>
<path d="M317.519 217.773H314.329V221.359H317.519V217.773Z" fill="#DEEAF6"/>
<path d="M317.519 223.791H314.329V227.376H317.519V223.791Z" fill="#DEEAF6"/>
<path d="M317.519 229.807H314.329V233.392H317.519V229.807Z" fill="#DEEAF6"/>
<path d="M317.519 235.837H314.329V239.422H317.519V235.837Z" fill="#DEEAF6"/>
<path d="M317.519 241.854H314.329V245.439H317.519V241.854Z" fill="#DEEAF6"/>
<path d="M317.519 247.871H314.329V251.456H317.519V247.871Z" fill="#DEEAF6"/>
<path d="M317.519 253.887H314.329V257.473H317.519V253.887Z" fill="#DEEAF6"/>
<path d="M312.448 211.744H309.269V215.329H312.448V211.744Z" fill="#DEEAF6"/>
<path d="M312.448 217.773H309.269V221.359H312.448V217.773Z" fill="#DEEAF6"/>
<path d="M312.448 223.791H309.269V227.376H312.448V223.791Z" fill="#DEEAF6"/>
<path d="M312.448 229.807H309.269V233.392H312.448V229.807Z" fill="#DEEAF6"/>
<path d="M312.448 235.836H309.269V239.422H312.448V235.836Z" fill="#DEEAF6"/>
<path d="M312.448 241.854H309.269V245.439H312.448V241.854Z" fill="#DEEAF6"/>
<path d="M312.448 253.887H309.269V257.473H312.448V253.887Z" fill="#DEEAF6"/>
<path d="M312.448 259.917H309.269V263.514H312.448V259.917Z" fill="#DEEAF6"/>
<path d="M312.448 277.98H309.269V281.565H312.448V277.98Z" fill="#DEEAF6"/>
<path d="M312.448 283.997H309.269V287.582H312.448V283.997Z" fill="#DEEAF6"/>
<path d="M312.448 290.014H309.269V293.599H312.448V290.014Z" fill="#DEEAF6"/>
<path d="M312.448 296.043H309.269V299.628H312.448V296.043Z" fill="#DEEAF6"/>
<path d="M312.448 302.06H309.269V305.645H312.448V302.06Z" fill="#DEEAF6"/>
<path d="M312.448 308.077H309.269V311.662H312.448V308.077Z" fill="#DEEAF6"/>
<path d="M312.448 314.106H309.269V317.704H312.448V314.106Z" fill="#DEEAF6"/>
<path d="M307.388 211.744H304.209V215.329H307.388V211.744Z" fill="#DEEAF6"/>
<path d="M307.388 217.773H304.209V221.359H307.388V217.773Z" fill="#DEEAF6"/>
<path d="M307.388 223.791H304.209V227.376H307.388V223.791Z" fill="#DEEAF6"/>
<path d="M307.388 229.807H304.209V233.392H307.388V229.807Z" fill="#DEEAF6"/>
<path d="M307.388 235.837H304.209V239.422H307.388V235.837Z" fill="#DEEAF6"/>
<path d="M307.388 241.854H304.209V245.439H307.388V241.854Z" fill="#DEEAF6"/>
<path d="M307.388 259.917H304.209V263.514H307.388V259.917Z" fill="#DEEAF6"/>
<path d="M307.388 265.934H304.209V269.519H307.388V265.934Z" fill="#DEEAF6"/>
<path d="M307.388 271.951H304.209V275.536H307.388V271.951Z" fill="#DEEAF6"/>
<path d="M307.388 277.98H304.209V281.565H307.388V277.98Z" fill="#DEEAF6"/>
<path d="M307.388 283.997H304.209V287.582H307.388V283.997Z" fill="#DEEAF6"/>
<path d="M307.388 290.014H304.209V293.599H307.388V290.014Z" fill="#DEEAF6"/>
<path d="M307.388 296.043H304.209V299.628H307.388V296.043Z" fill="#DEEAF6"/>
<path d="M307.388 302.06H304.209V305.645H307.388V302.06Z" fill="#DEEAF6"/>
<path d="M307.388 308.077H304.209V311.662H307.388V308.077Z" fill="#DEEAF6"/>
<path d="M307.388 314.106H304.209V317.704H307.388V314.106Z" fill="#DEEAF6"/>
<path d="M307.388 320.123H304.209V323.708H307.388V320.123Z" fill="#DEEAF6"/>
<path d="M307.388 332.169H304.209V335.755H307.388V332.169Z" fill="#DEEAF6"/>
<path d="M302.338 211.744H299.148V215.329H302.338V211.744Z" fill="#DEEAF6"/>
<path d="M302.338 217.773H299.148V221.359H302.338V217.773Z" fill="#DEEAF6"/>
<path d="M302.338 223.791H299.148V227.376H302.338V223.791Z" fill="#DEEAF6"/>
<path d="M302.338 229.807H299.148V233.392H302.338V229.807Z" fill="#DEEAF6"/>
<path d="M302.338 235.837H299.148V239.422H302.338V235.837Z" fill="#DEEAF6"/>
<path d="M302.338 241.854H299.148V245.439H302.338V241.854Z" fill="#DEEAF6"/>
<path d="M302.338 259.917H299.148V263.514H302.338V259.917Z" fill="#DEEAF6"/>
<path d="M302.338 265.934H299.148V269.519H302.338V265.934Z" fill="#DEEAF6"/>
<path d="M302.338 271.951H299.148V275.536H302.338V271.951Z" fill="#DEEAF6"/>
<path d="M302.338 277.98H299.148V281.565H302.338V277.98Z" fill="#DEEAF6"/>
<path d="M302.338 296.043H299.148V299.628H302.338V296.043Z" fill="#DEEAF6"/>
<path d="M302.338 302.06H299.148V305.645H302.338V302.06Z" fill="#DEEAF6"/>
<path d="M302.338 308.077H299.148V311.662H302.338V308.077Z" fill="#DEEAF6"/>
<path d="M302.338 314.106H299.148V317.704H302.338V314.106Z" fill="#DEEAF6"/>
<path d="M302.338 320.123H299.148V323.708H302.338V320.123Z" fill="#DEEAF6"/>
<path d="M302.338 332.169H299.148V335.755H302.338V332.169Z" fill="#DEEAF6"/>
<path d="M302.338 338.187H299.148V341.772H302.338V338.187Z" fill="#DEEAF6"/>
<path d="M256.436 267.732H253.257V271.318H256.436V267.732Z" fill="#DEEAF6"/>
<path d="M256.436 273.75H253.257V277.335H256.436V273.75Z" fill="#DEEAF6"/>
<path d="M256.436 279.766H253.257V283.351H256.436V279.766Z" fill="#DEEAF6"/>
<path d="M256.436 285.795H253.257V289.381H256.436V285.795Z" fill="#DEEAF6"/>
<path d="M256.436 291.812H253.257V295.398H256.436V291.812Z" fill="#DEEAF6"/>
<path d="M256.436 297.83H253.257V301.415H256.436V297.83Z" fill="#DEEAF6"/>
<path d="M256.436 303.859H253.257V307.444H256.436V303.859Z" fill="#DEEAF6"/>
<path d="M256.436 321.922H253.257V325.507H256.436V321.922Z" fill="#DEEAF6"/>
<path d="M256.436 327.939H253.257V331.524H256.436V327.939Z" fill="#DEEAF6"/>
<path d="M256.436 333.956H253.257V337.541H256.436V333.956Z" fill="#DEEAF6"/>
<path d="M251.387 267.732H248.208V271.318H251.387V267.732Z" fill="#DEEAF6"/>
<path d="M251.387 273.75H248.208V277.335H251.387V273.75Z" fill="#DEEAF6"/>
<path d="M251.387 279.766H248.208V283.351H251.387V279.766Z" fill="#DEEAF6"/>
<path d="M251.387 285.796H248.208V289.381H251.387V285.796Z" fill="#DEEAF6"/>
<path d="M251.387 291.812H248.208V295.398H251.387V291.812Z" fill="#DEEAF6"/>
<path d="M251.387 297.83H248.208V301.415H251.387V297.83Z" fill="#DEEAF6"/>
<path d="M251.387 303.859H248.208V307.444H251.387V303.859Z" fill="#DEEAF6"/>
<path d="M246.326 267.732H243.147V271.318H246.326V267.732Z" fill="#DEEAF6"/>
<path d="M246.326 273.75H243.147V277.335H246.326V273.75Z" fill="#DEEAF6"/>
<path d="M246.326 279.766H243.147V283.351H246.326V279.766Z" fill="#DEEAF6"/>
<path d="M246.326 285.795H243.147V289.381H246.326V285.795Z" fill="#DEEAF6"/>
<path d="M246.326 291.812H243.147V295.398H246.326V291.812Z" fill="#DEEAF6"/>
<path d="M246.326 297.83H243.147V301.415H246.326V297.83Z" fill="#DEEAF6"/>
<path d="M246.326 303.859H243.147V307.444H246.326V303.859Z" fill="#DEEAF6"/>
<path d="M241.267 267.732H238.088V271.318H241.267V267.732Z" fill="#DEEAF6"/>
<path d="M241.267 273.75H238.088V277.335H241.267V273.75Z" fill="#DEEAF6"/>
<path d="M241.267 279.766H238.088V283.351H241.267V279.766Z" fill="#DEEAF6"/>
<path d="M241.267 285.795H238.088V289.381H241.267V285.795Z" fill="#DEEAF6"/>
<path d="M241.267 291.812H238.088V295.398H241.267V291.812Z" fill="#DEEAF6"/>
<path d="M241.267 297.83H238.088V301.415H241.267V297.83Z" fill="#DEEAF6"/>
<path d="M241.267 303.859H238.088V307.444H241.267V303.859Z" fill="#DEEAF6"/>
<path d="M241.267 309.876H238.088V313.461H241.267V309.876Z" fill="#DEEAF6"/>
<path d="M241.267 315.893H238.088V319.478H241.267V315.893Z" fill="#DEEAF6"/>
<path d="M241.267 321.922H238.088V325.507H241.267V321.922Z" fill="#DEEAF6"/>
<path d="M241.267 327.939H238.088V331.524H241.267V327.939Z" fill="#DEEAF6"/>
<path d="M236.206 267.732H233.027V271.318H236.206V267.732Z" fill="#DEEAF6"/>
<path d="M236.206 273.75H233.027V277.335H236.206V273.75Z" fill="#DEEAF6"/>
<path d="M236.206 279.766H233.027V283.351H236.206V279.766Z" fill="#DEEAF6"/>
<path d="M236.206 285.796H233.027V289.381H236.206V285.796Z" fill="#DEEAF6"/>
<path d="M236.206 291.812H233.027V295.398H236.206V291.812Z" fill="#DEEAF6"/>
<path d="M236.206 297.83H233.027V301.415H236.206V297.83Z" fill="#DEEAF6"/>
<path d="M236.206 303.859H233.027V307.444H236.206V303.859Z" fill="#DEEAF6"/>
<path d="M236.206 309.876H233.027V313.461H236.206V309.876Z" fill="#DEEAF6"/>
<path d="M236.206 315.893H233.027V319.478H236.206V315.893Z" fill="#DEEAF6"/>
<path d="M236.206 321.922H233.027V325.507H236.206V321.922Z" fill="#DEEAF6"/>
<path d="M236.206 327.939H233.027V331.524H236.206V327.939Z" fill="#DEEAF6"/>
<path d="M236.206 333.956H233.027V337.541H236.206V333.956Z" fill="#DEEAF6"/>
<path d="M236.206 352.019H233.027V355.604H236.206V352.019Z" fill="#DEEAF6"/>
<path d="M236.206 358.036H233.027V361.634H236.206V358.036Z" fill="#DEEAF6"/>
<path d="M231.158 267.732H227.979V271.318H231.158V267.732Z" fill="#DEEAF6"/>
<path d="M231.158 273.75H227.979V277.335H231.158V273.75Z" fill="#DEEAF6"/>
<path d="M231.158 279.766H227.979V283.351H231.158V279.766Z" fill="#DEEAF6"/>
<path d="M231.158 297.83H227.979V301.415H231.158V297.83Z" fill="#DEEAF6"/>
<path d="M231.158 303.859H227.979V307.444H231.158V303.859Z" fill="#DEEAF6"/>
<path d="M231.158 309.876H227.979V313.461H231.158V309.876Z" fill="#DEEAF6"/>
<path d="M231.158 315.893H227.979V319.478H231.158V315.893Z" fill="#DEEAF6"/>
<path d="M231.158 321.922H227.979V325.507H231.158V321.922Z" fill="#DEEAF6"/>
<path d="M231.158 327.939H227.979V331.524H231.158V327.939Z" fill="#DEEAF6"/>
<path d="M231.158 333.956H227.979V337.541H231.158V333.956Z" fill="#DEEAF6"/>
<path d="M231.158 352.019H227.979V355.604H231.158V352.019Z" fill="#DEEAF6"/>
<path d="M231.158 358.036H227.979V361.633H231.158V358.036Z" fill="#DEEAF6"/>
<path d="M231.158 364.065H227.979V367.663H231.158V364.065Z" fill="#DEEAF6"/>
<path d="M178.16 231.606H174.97V235.191H178.16V231.606Z" fill="#DEEAF6"/>
<path d="M178.16 237.623H174.97V241.208H178.16V237.623Z" fill="#DEEAF6"/>
<path d="M178.16 243.652H174.97V247.238H178.16V243.652Z" fill="#DEEAF6"/>
<path d="M178.16 249.669H174.97V253.255H178.16V249.669Z" fill="#DEEAF6"/>
<path d="M178.16 255.686H174.97V259.271H178.16V255.686Z" fill="#DEEAF6"/>
<path d="M178.16 261.715H174.97V265.301H178.16V261.715Z" fill="#DEEAF6"/>
<path d="M178.16 267.732H174.97V271.318H178.16V267.732Z" fill="#DEEAF6"/>
<path d="M178.16 273.75H174.97V277.335H178.16V273.75Z" fill="#DEEAF6"/>
<path d="M178.16 279.766H174.97V283.351H178.16V279.766Z" fill="#DEEAF6"/>
<path d="M178.16 285.795H174.97V289.381H178.16V285.795Z" fill="#DEEAF6"/>
<path d="M178.16 291.812H174.97V295.398H178.16V291.812Z" fill="#DEEAF6"/>
<path d="M178.16 297.83H174.97V301.415H178.16V297.83Z" fill="#DEEAF6"/>
<path d="M178.16 303.859H174.97V307.444H178.16V303.859Z" fill="#DEEAF6"/>
<path d="M178.16 309.876H174.97V313.461H178.16V309.876Z" fill="#DEEAF6"/>
<path d="M178.16 315.893H174.97V319.478H178.16V315.893Z" fill="#DEEAF6"/>
<path d="M178.16 321.922H174.97V325.507H178.16V321.922Z" fill="#DEEAF6"/>
<path d="M178.16 327.939H174.97V331.524H178.16V327.939Z" fill="#DEEAF6"/>
<path d="M178.16 333.956H174.97V337.541H178.16V333.956Z" fill="#DEEAF6"/>
<path d="M178.16 339.985H174.97V343.571H178.16V339.985Z" fill="#DEEAF6"/>
<path d="M178.16 346.002H174.97V349.587H178.16V346.002Z" fill="#DEEAF6"/>
<path d="M178.16 352.019H174.97V355.604H178.16V352.019Z" fill="#DEEAF6"/>
<path d="M178.16 358.036H174.97V361.633H178.16V358.036Z" fill="#DEEAF6"/>
<path d="M178.16 364.065H174.97V367.663H178.16V364.065Z" fill="#DEEAF6"/>
<path d="M173.1 231.606H169.91V235.191H173.1V231.606Z" fill="#DEEAF6"/>
<path d="M173.1 237.623H169.91V241.208H173.1V237.623Z" fill="#DEEAF6"/>
<path d="M173.1 243.652H169.91V247.238H173.1V243.652Z" fill="#DEEAF6"/>
<path d="M173.1 249.669H169.91V253.255H173.1V249.669Z" fill="#DEEAF6"/>
<path d="M173.1 255.687H169.91V259.272H173.1V255.687Z" fill="#DEEAF6"/>
<path d="M173.1 261.715H169.91V265.301H173.1V261.715Z" fill="#DEEAF6"/>
<path d="M173.1 267.732H169.91V271.318H173.1V267.732Z" fill="#DEEAF6"/>
<path d="M173.1 273.75H169.91V277.335H173.1V273.75Z" fill="#DEEAF6"/>
<path d="M173.1 279.766H169.91V283.351H173.1V279.766Z" fill="#DEEAF6"/>
<path d="M173.1 285.796H169.91V289.381H173.1V285.796Z" fill="#DEEAF6"/>
<path d="M173.1 291.812H169.91V295.398H173.1V291.812Z" fill="#DEEAF6"/>
<path d="M173.1 297.83H169.91V301.415H173.1V297.83Z" fill="#DEEAF6"/>
<path d="M173.1 303.859H169.91V307.444H173.1V303.859Z" fill="#DEEAF6"/>
<path d="M173.1 309.876H169.91V313.461H173.1V309.876Z" fill="#DEEAF6"/>
<path d="M173.1 315.893H169.91V319.478H173.1V315.893Z" fill="#DEEAF6"/>
<path d="M173.1 321.922H169.91V325.507H173.1V321.922Z" fill="#DEEAF6"/>
<path d="M173.1 327.939H169.91V331.524H173.1V327.939Z" fill="#DEEAF6"/>
<path d="M173.1 333.956H169.91V337.541H173.1V333.956Z" fill="#DEEAF6"/>
<path d="M173.1 339.985H169.91V343.571H173.1V339.985Z" fill="#DEEAF6"/>
<path d="M168.029 231.606H164.85V235.191H168.029V231.606Z" fill="#DEEAF6"/>
<path d="M168.029 237.623H164.85V241.208H168.029V237.623Z" fill="#DEEAF6"/>
<path d="M168.029 243.652H164.85V247.238H168.029V243.652Z" fill="#DEEAF6"/>
<path d="M168.029 249.669H164.85V253.255H168.029V249.669Z" fill="#DEEAF6"/>
<path d="M168.029 255.686H164.85V259.271H168.029V255.686Z" fill="#DEEAF6"/>
<path d="M168.029 261.715H164.85V265.301H168.029V261.715Z" fill="#DEEAF6"/>
<path d="M168.029 267.732H164.85V271.318H168.029V267.732Z" fill="#DEEAF6"/>
<path d="M168.029 273.75H164.85V277.335H168.029V273.75Z" fill="#DEEAF6"/>
<path d="M168.029 279.766H164.85V283.351H168.029V279.766Z" fill="#DEEAF6"/>
<path d="M168.029 285.795H164.85V289.381H168.029V285.795Z" fill="#DEEAF6"/>
<path d="M168.029 291.812H164.85V295.398H168.029V291.812Z" fill="#DEEAF6"/>
<path d="M168.029 297.83H164.85V301.415H168.029V297.83Z" fill="#DEEAF6"/>
<path d="M168.029 303.859H164.85V307.444H168.029V303.859Z" fill="#DEEAF6"/>
<path d="M168.029 309.876H164.85V313.461H168.029V309.876Z" fill="#DEEAF6"/>
<path d="M168.029 315.893H164.85V319.478H168.029V315.893Z" fill="#DEEAF6"/>
<path d="M168.029 321.922H164.85V325.507H168.029V321.922Z" fill="#DEEAF6"/>
<path d="M168.029 327.939H164.85V331.524H168.029V327.939Z" fill="#DEEAF6"/>
<path d="M168.029 333.956H164.85V337.541H168.029V333.956Z" fill="#DEEAF6"/>
<path d="M168.029 339.985H164.85V343.571H168.029V339.985Z" fill="#DEEAF6"/>
<path d="M162.98 231.606H159.79V235.191H162.98V231.606Z" fill="#DEEAF6"/>
<path d="M162.98 237.623H159.79V241.208H162.98V237.623Z" fill="#DEEAF6"/>
<path d="M162.98 243.652H159.79V247.238H162.98V243.652Z" fill="#DEEAF6"/>
<path d="M162.98 249.669H159.79V253.255H162.98V249.669Z" fill="#DEEAF6"/>
<path d="M162.98 255.687H159.79V259.272H162.98V255.687Z" fill="#DEEAF6"/>
<path d="M162.98 261.715H159.79V265.301H162.98V261.715Z" fill="#DEEAF6"/>
<path d="M162.98 267.732H159.79V271.318H162.98V267.732Z" fill="#DEEAF6"/>
<path d="M162.98 273.75H159.79V277.335H162.98V273.75Z" fill="#DEEAF6"/>
<path d="M162.98 279.766H159.79V283.351H162.98V279.766Z" fill="#DEEAF6"/>
<path d="M162.98 285.796H159.79V289.381H162.98V285.796Z" fill="#DEEAF6"/>
<path d="M162.98 291.812H159.79V295.398H162.98V291.812Z" fill="#DEEAF6"/>
<path d="M162.98 297.83H159.79V301.415H162.98V297.83Z" fill="#DEEAF6"/>
<path d="M162.98 303.859H159.79V307.444H162.98V303.859Z" fill="#DEEAF6"/>
<path d="M162.98 309.876H159.79V313.461H162.98V309.876Z" fill="#DEEAF6"/>
<path d="M162.98 315.893H159.79V319.478H162.98V315.893Z" fill="#DEEAF6"/>
<path d="M157.93 231.606H154.74V235.191H157.93V231.606Z" fill="#DEEAF6"/>
<path d="M157.93 237.623H154.74V241.208H157.93V237.623Z" fill="#DEEAF6"/>
<path d="M157.93 243.652H154.74V247.238H157.93V243.652Z" fill="#DEEAF6"/>
<path d="M157.93 249.669H154.74V253.255H157.93V249.669Z" fill="#DEEAF6"/>
<path d="M157.93 255.687H154.74V259.272H157.93V255.687Z" fill="#DEEAF6"/>
<path d="M157.93 261.715H154.74V265.301H157.93V261.715Z" fill="#DEEAF6"/>
<path d="M157.93 267.732H154.74V271.318H157.93V267.732Z" fill="#DEEAF6"/>
<path d="M157.93 273.75H154.74V277.335H157.93V273.75Z" fill="#DEEAF6"/>
<path d="M157.93 279.766H154.74V283.351H157.93V279.766Z" fill="#DEEAF6"/>
<path d="M157.93 285.796H154.74V289.381H157.93V285.796Z" fill="#DEEAF6"/>
<path d="M157.93 291.812H154.74V295.398H157.93V291.812Z" fill="#DEEAF6"/>
<path d="M157.93 297.83H154.74V301.415H157.93V297.83Z" fill="#DEEAF6"/>
<path d="M157.93 303.859H154.74V307.444H157.93V303.859Z" fill="#DEEAF6"/>
<path d="M152.86 231.606H149.681V235.191H152.86V231.606Z" fill="#DEEAF6"/>
<path d="M152.86 237.623H149.681V241.208H152.86V237.623Z" fill="#DEEAF6"/>
<path d="M152.86 243.652H149.681V247.238H152.86V243.652Z" fill="#DEEAF6"/>
<path d="M152.86 249.669H149.681V253.255H152.86V249.669Z" fill="#DEEAF6"/>
<path d="M152.86 255.686H149.681V259.271H152.86V255.686Z" fill="#DEEAF6"/>
<path d="M152.86 261.715H149.681V265.301H152.86V261.715Z" fill="#DEEAF6"/>
<path d="M152.86 267.732H149.681V271.318H152.86V267.732Z" fill="#DEEAF6"/>
<path d="M152.86 273.75H149.681V277.335H152.86V273.75Z" fill="#DEEAF6"/>
<path d="M152.86 279.766H149.681V283.351H152.86V279.766Z" fill="#DEEAF6"/>
<path d="M152.86 285.795H149.681V289.381H152.86V285.795Z" fill="#DEEAF6"/>
<path d="M152.86 291.812H149.681V295.398H152.86V291.812Z" fill="#DEEAF6"/>
<path d="M152.86 297.83H149.681V301.415H152.86V297.83Z" fill="#DEEAF6"/>
<path d="M524.484 275.548H521.305V279.146H524.484V275.548Z" fill="#DEEAF6"/>
<path d="M524.484 281.565H521.305V285.163H524.484V281.565Z" fill="#DEEAF6"/>
<path d="M524.484 287.595H521.305V291.18H524.484V287.595Z" fill="#DEEAF6"/>
<path d="M524.484 293.611H521.305V297.209H524.484V293.611Z" fill="#DEEAF6"/>
<path d="M524.484 299.628H521.305V303.214H524.484V299.628Z" fill="#DEEAF6"/>
<path d="M524.484 305.646H521.305V309.231H524.484V305.646Z" fill="#DEEAF6"/>
<path d="M524.484 311.675H521.305V315.26H524.484V311.675Z" fill="#DEEAF6"/>
<path d="M524.484 317.691H521.305V321.277H524.484V317.691Z" fill="#DEEAF6"/>
<path d="M524.484 323.708H521.305V327.306H524.484V323.708Z" fill="#DEEAF6"/>
<path d="M524.484 329.738H521.305V333.323H524.484V329.738Z" fill="#DEEAF6"/>
<path d="M524.484 335.755H521.305V339.353H524.484V335.755Z" fill="#DEEAF6"/>
<path d="M524.484 341.771H521.305V345.357H524.484V341.771Z" fill="#DEEAF6"/>
<path d="M524.484 347.801H521.305V351.386H524.484V347.801Z" fill="#DEEAF6"/>
<path d="M524.484 353.818H521.305V357.403H524.484V353.818Z" fill="#DEEAF6"/>
<path d="M524.484 359.835H521.305V363.42H524.484V359.835Z" fill="#DEEAF6"/>
<path d="M524.484 365.864H521.305V369.45H524.484V365.864Z" fill="#DEEAF6"/>
<path d="M524.484 371.881H521.305V375.466H524.484V371.881Z" fill="#DEEAF6"/>
<path d="M524.484 377.898H521.305V381.483H524.484V377.898Z" fill="#DEEAF6"/>
<path d="M524.484 383.915H521.305V387.5H524.484V383.915Z" fill="#DEEAF6"/>
<path d="M524.484 389.944H521.305V393.53H524.484V389.944Z" fill="#DEEAF6"/>
<path d="M519.424 275.548H516.245V279.146H519.424V275.548Z" fill="#DEEAF6"/>
<path d="M519.424 281.565H516.245V285.163H519.424V281.565Z" fill="#DEEAF6"/>
<path d="M519.424 287.595H516.245V291.18H519.424V287.595Z" fill="#DEEAF6"/>
<path d="M519.424 293.611H516.245V297.209H519.424V293.611Z" fill="#DEEAF6"/>
<path d="M519.424 299.628H516.245V303.214H519.424V299.628Z" fill="#DEEAF6"/>
<path d="M519.424 305.646H516.245V309.231H519.424V305.646Z" fill="#DEEAF6"/>
<path d="M519.424 311.675H516.245V315.26H519.424V311.675Z" fill="#DEEAF6"/>
<path d="M519.424 317.691H516.245V321.277H519.424V317.691Z" fill="#DEEAF6"/>
<path d="M519.424 323.708H516.245V327.306H519.424V323.708Z" fill="#DEEAF6"/>
<path d="M519.424 329.738H516.245V333.323H519.424V329.738Z" fill="#DEEAF6"/>
<path d="M519.424 335.755H516.245V339.353H519.424V335.755Z" fill="#DEEAF6"/>
<path d="M519.424 341.771H516.245V345.357H519.424V341.771Z" fill="#DEEAF6"/>
<path d="M519.424 347.801H516.245V351.386H519.424V347.801Z" fill="#DEEAF6"/>
<path d="M519.424 353.818H516.245V357.403H519.424V353.818Z" fill="#DEEAF6"/>
<path d="M519.424 359.835H516.245V363.42H519.424V359.835Z" fill="#DEEAF6"/>
<path d="M519.424 365.864H516.245V369.45H519.424V365.864Z" fill="#DEEAF6"/>
<path d="M519.424 371.881H516.245V375.466H519.424V371.881Z" fill="#DEEAF6"/>
<path d="M519.424 377.898H516.245V381.483H519.424V377.898Z" fill="#DEEAF6"/>
<path d="M514.364 275.548H511.185V279.146H514.364V275.548Z" fill="#DEEAF6"/>
<path d="M514.364 281.565H511.185V285.163H514.364V281.565Z" fill="#DEEAF6"/>
<path d="M514.364 287.595H511.185V291.18H514.364V287.595Z" fill="#DEEAF6"/>
<path d="M514.364 293.611H511.185V297.209H514.364V293.611Z" fill="#DEEAF6"/>
<path d="M514.364 299.628H511.185V303.214H514.364V299.628Z" fill="#DEEAF6"/>
<path d="M514.364 305.646H511.185V309.231H514.364V305.646Z" fill="#DEEAF6"/>
<path d="M514.364 311.675H511.185V315.26H514.364V311.675Z" fill="#DEEAF6"/>
<path d="M514.364 317.691H511.185V321.277H514.364V317.691Z" fill="#DEEAF6"/>
<path d="M514.364 323.708H511.185V327.306H514.364V323.708Z" fill="#DEEAF6"/>
<path d="M514.364 329.738H511.185V333.323H514.364V329.738Z" fill="#DEEAF6"/>
<path d="M514.364 335.755H511.185V339.353H514.364V335.755Z" fill="#DEEAF6"/>
<path d="M514.364 341.771H511.185V345.357H514.364V341.771Z" fill="#DEEAF6"/>
<path d="M514.364 347.801H511.185V351.386H514.364V347.801Z" fill="#DEEAF6"/>
<path d="M514.364 353.818H511.185V357.403H514.364V353.818Z" fill="#DEEAF6"/>
<path d="M514.364 359.835H511.185V363.42H514.364V359.835Z" fill="#DEEAF6"/>
<path d="M514.364 365.864H511.185V369.45H514.364V365.864Z" fill="#DEEAF6"/>
<path d="M514.364 371.881H511.185V375.466H514.364V371.881Z" fill="#DEEAF6"/>
<path d="M514.364 377.898H511.185V381.483H514.364V377.898Z" fill="#DEEAF6"/>
<path d="M543.404 319.49H540.225V323.088H543.404V319.49Z" fill="#DEEAF6"/>
<path d="M543.404 325.507H540.225V329.093H543.404V325.507Z" fill="#DEEAF6"/>
<path d="M543.404 331.524H540.225V335.11H543.404V331.524Z" fill="#DEEAF6"/>
<path d="M543.404 337.554H540.225V341.139H543.404V337.554Z" fill="#DEEAF6"/>
<path d="M543.404 343.57H540.225V347.156H543.404V343.57Z" fill="#DEEAF6"/>
<path d="M543.404 349.587H540.225V353.173H543.404V349.587Z" fill="#DEEAF6"/>
<path d="M543.404 355.617H540.225V359.202H543.404V355.617Z" fill="#DEEAF6"/>
<path d="M543.404 361.634H540.225V365.219H543.404V361.634Z" fill="#DEEAF6"/>
<path d="M543.404 367.65H540.225V371.236H543.404V367.65Z" fill="#DEEAF6"/>
<path d="M543.404 373.68H540.225V377.265H543.404V373.68Z" fill="#DEEAF6"/>
<path d="M543.404 379.697H540.225V383.282H543.404V379.697Z" fill="#DEEAF6"/>
<path d="M543.404 385.714H540.225V389.299H543.404V385.714Z" fill="#DEEAF6"/>
<path d="M543.404 391.73H540.225V395.316H543.404V391.73Z" fill="#DEEAF6"/>
<path d="M538.344 319.49H535.165V323.088H538.344V319.49Z" fill="#DEEAF6"/>
<path d="M538.344 325.507H535.165V329.093H538.344V325.507Z" fill="#DEEAF6"/>
<path d="M538.344 331.524H535.165V335.109H538.344V331.524Z" fill="#DEEAF6"/>
<path d="M538.344 337.554H535.165V341.139H538.344V337.554Z" fill="#DEEAF6"/>
<path d="M538.344 343.57H535.165V347.156H538.344V343.57Z" fill="#DEEAF6"/>
<path d="M538.344 349.587H535.165V353.173H538.344V349.587Z" fill="#DEEAF6"/>
<path d="M538.344 355.617H535.165V359.202H538.344V355.617Z" fill="#DEEAF6"/>
<path d="M538.344 361.634H535.165V365.219H538.344V361.634Z" fill="#DEEAF6"/>
<path d="M538.344 367.65H535.165V371.236H538.344V367.65Z" fill="#DEEAF6"/>
<path d="M538.344 373.68H535.165V377.265H538.344V373.68Z" fill="#DEEAF6"/>
<path d="M538.344 379.697H535.165V383.282H538.344V379.697Z" fill="#DEEAF6"/>
<path d="M538.344 385.713H535.165V389.299H538.344V385.713Z" fill="#DEEAF6"/>
<path d="M538.344 391.73H535.165V395.316H538.344V391.73Z" fill="#DEEAF6"/>
<path d="M533.284 319.49H530.104V323.088H533.284V319.49Z" fill="#DEEAF6"/>
<path d="M533.284 325.507H530.104V329.093H533.284V325.507Z" fill="#DEEAF6"/>
<path d="M533.284 331.524H530.104V335.11H533.284V331.524Z" fill="#DEEAF6"/>
<path d="M533.284 337.554H530.104V341.139H533.284V337.554Z" fill="#DEEAF6"/>
<path d="M533.284 343.57H530.104V347.156H533.284V343.57Z" fill="#DEEAF6"/>
<path d="M533.284 349.587H530.104V353.173H533.284V349.587Z" fill="#DEEAF6"/>
<path d="M533.284 355.617H530.104V359.202H533.284V355.617Z" fill="#DEEAF6"/>
<path d="M533.284 361.634H530.104V365.219H533.284V361.634Z" fill="#DEEAF6"/>
<path d="M533.284 367.65H530.104V371.236H533.284V367.65Z" fill="#DEEAF6"/>
<path d="M533.284 373.68H530.104V377.265H533.284V373.68Z" fill="#DEEAF6"/>
<path d="M533.284 379.697H530.104V383.282H533.284V379.697Z" fill="#DEEAF6"/>
<path d="M533.284 385.714H530.104V389.299H533.284V385.714Z" fill="#DEEAF6"/>
<path d="M533.284 391.73H530.104V395.316H533.284V391.73Z" fill="#DEEAF6"/>
<path d="M533.284 397.76H530.104V401.345H533.284V397.76Z" fill="#DEEAF6"/>
<path d="M505.19 321.289H502.011V324.874H505.19V321.289Z" fill="#DEEAF6"/>
<path d="M505.19 327.306H502.011V330.891H505.19V327.306Z" fill="#DEEAF6"/>
<path d="M505.19 333.323H502.011V336.909H505.19V333.323Z" fill="#DEEAF6"/>
<path d="M505.19 339.34H502.011V342.925H505.19V339.34Z" fill="#DEEAF6"/>
<path d="M505.19 345.369H502.011V348.954H505.19V345.369Z" fill="#DEEAF6"/>
<path d="M505.19 351.386H502.011V354.972H505.19V351.386Z" fill="#DEEAF6"/>
<path d="M505.19 357.403H502.011V360.989H505.19V357.403Z" fill="#DEEAF6"/>
<path d="M505.19 363.433H502.011V367.03H505.19V363.433Z" fill="#DEEAF6"/>
<path d="M505.19 369.449H502.011V373.035H505.19V369.449Z" fill="#DEEAF6"/>
<path d="M505.19 375.466H502.011V379.052H505.19V375.466Z" fill="#DEEAF6"/>
<path d="M505.19 393.529H502.011V397.115H505.19V393.529Z" fill="#DEEAF6"/>
<path d="M500.141 321.289H496.951V324.874H500.141V321.289Z" fill="#DEEAF6"/>
<path d="M500.141 327.306H496.951V330.891H500.141V327.306Z" fill="#DEEAF6"/>
<path d="M500.141 333.323H496.951V336.909H500.141V333.323Z" fill="#DEEAF6"/>
<path d="M500.141 339.34H496.951V342.925H500.141V339.34Z" fill="#DEEAF6"/>
<path d="M500.141 345.369H496.951V348.954H500.141V345.369Z" fill="#DEEAF6"/>
<path d="M500.141 351.386H496.951V354.972H500.141V351.386Z" fill="#DEEAF6"/>
<path d="M500.141 357.403H496.951V360.989H500.141V357.403Z" fill="#DEEAF6"/>
<path d="M500.141 363.433H496.951V367.03H500.141V363.433Z" fill="#DEEAF6"/>
<path d="M500.141 369.449H496.951V373.035H500.141V369.449Z" fill="#DEEAF6"/>
<path d="M500.141 387.513H496.951V391.11H500.141V387.513Z" fill="#DEEAF6"/>
<path d="M500.141 393.529H496.951V397.115H500.141V393.529Z" fill="#DEEAF6"/>
<path d="M495.091 321.289H491.901V324.874H495.091V321.289Z" fill="#DEEAF6"/>
<path d="M495.091 327.306H491.901V330.891H495.091V327.306Z" fill="#DEEAF6"/>
<path d="M495.091 333.323H491.901V336.909H495.091V333.323Z" fill="#DEEAF6"/>
<path d="M495.091 339.34H491.901V342.925H495.091V339.34Z" fill="#DEEAF6"/>
<path d="M495.091 345.369H491.901V348.954H495.091V345.369Z" fill="#DEEAF6"/>
<path d="M495.091 351.386H491.901V354.972H495.091V351.386Z" fill="#DEEAF6"/>
<path d="M495.091 357.403H491.901V360.989H495.091V357.403Z" fill="#DEEAF6"/>
<path d="M495.091 363.433H491.901V367.03H495.091V363.433Z" fill="#DEEAF6"/>
<path d="M495.091 381.496H491.901V385.093H495.091V381.496Z" fill="#DEEAF6"/>
<path d="M495.091 387.513H491.901V391.11H495.091V387.513Z" fill="#DEEAF6"/>
<path d="M495.091 393.529H491.901V397.115H495.091V393.529Z" fill="#DEEAF6"/>
<path d="M448.056 229.807H444.877V233.392H448.056V229.807Z" fill="#DEEAF6"/>
<path d="M448.056 235.837H444.877V239.422H448.056V235.837Z" fill="#DEEAF6"/>
<path d="M448.056 241.854H444.877V245.439H448.056V241.854Z" fill="#DEEAF6"/>
<path d="M448.056 247.871H444.877V251.456H448.056V247.871Z" fill="#DEEAF6"/>
<path d="M448.056 253.887H444.877V257.473H448.056V253.887Z" fill="#DEEAF6"/>
<path d="M448.056 259.917H444.877V263.514H448.056V259.917Z" fill="#DEEAF6"/>
<path d="M448.056 265.934H444.877V269.519H448.056V265.934Z" fill="#DEEAF6"/>
<path d="M448.056 271.951H444.877V275.536H448.056V271.951Z" fill="#DEEAF6"/>
<path d="M448.056 277.98H444.877V281.565H448.056V277.98Z" fill="#DEEAF6"/>
<path d="M448.056 283.997H444.877V287.582H448.056V283.997Z" fill="#DEEAF6"/>
<path d="M448.056 290.014H444.877V293.599H448.056V290.014Z" fill="#DEEAF6"/>
<path d="M448.056 296.043H444.877V299.628H448.056V296.043Z" fill="#DEEAF6"/>
<path d="M448.056 302.06H444.877V305.645H448.056V302.06Z" fill="#DEEAF6"/>
<path d="M448.056 308.077H444.877V311.662H448.056V308.077Z" fill="#DEEAF6"/>
<path d="M448.056 314.106H444.877V317.704H448.056V314.106Z" fill="#DEEAF6"/>
<path d="M448.056 320.123H444.877V323.708H448.056V320.123Z" fill="#DEEAF6"/>
<path d="M448.056 326.14H444.877V329.725H448.056V326.14Z" fill="#DEEAF6"/>
<path d="M448.056 338.187H444.877V341.772H448.056V338.187Z" fill="#DEEAF6"/>
<path d="M448.056 344.203H444.877V347.788H448.056V344.203Z" fill="#DEEAF6"/>
<path d="M448.056 350.22H444.877V353.806H448.056V350.22Z" fill="#DEEAF6"/>
<path d="M448.056 356.25H444.877V359.835H448.056V356.25Z" fill="#DEEAF6"/>
<path d="M448.056 362.266H444.877V365.851H448.056V362.266Z" fill="#DEEAF6"/>
<path d="M443.007 229.807H439.828V233.392H443.007V229.807Z" fill="#DEEAF6"/>
<path d="M443.007 235.837H439.828V239.422H443.007V235.837Z" fill="#DEEAF6"/>
<path d="M443.007 241.854H439.828V245.439H443.007V241.854Z" fill="#DEEAF6"/>
<path d="M443.007 247.871H439.828V251.456H443.007V247.871Z" fill="#DEEAF6"/>
<path d="M443.007 253.887H439.828V257.473H443.007V253.887Z" fill="#DEEAF6"/>
<path d="M443.007 259.917H439.828V263.514H443.007V259.917Z" fill="#DEEAF6"/>
<path d="M443.007 265.934H439.828V269.519H443.007V265.934Z" fill="#DEEAF6"/>
<path d="M443.007 271.951H439.828V275.536H443.007V271.951Z" fill="#DEEAF6"/>
<path d="M443.007 277.98H439.828V281.565H443.007V277.98Z" fill="#DEEAF6"/>
<path d="M443.007 283.997H439.828V287.582H443.007V283.997Z" fill="#DEEAF6"/>
<path d="M443.007 290.014H439.828V293.599H443.007V290.014Z" fill="#DEEAF6"/>
<path d="M443.007 296.043H439.828V299.628H443.007V296.043Z" fill="#DEEAF6"/>
<path d="M443.007 302.06H439.828V305.645H443.007V302.06Z" fill="#DEEAF6"/>
<path d="M443.007 308.077H439.828V311.662H443.007V308.077Z" fill="#DEEAF6"/>
<path d="M443.007 314.106H439.828V317.704H443.007V314.106Z" fill="#DEEAF6"/>
<path d="M443.007 320.123H439.828V323.708H443.007V320.123Z" fill="#DEEAF6"/>
<path d="M443.007 356.25H439.828V359.835H443.007V356.25Z" fill="#DEEAF6"/>
<path d="M443.007 362.266H439.828V365.851H443.007V362.266Z" fill="#DEEAF6"/>
<path d="M437.947 229.807H434.768V233.392H437.947V229.807Z" fill="#DEEAF6"/>
<path d="M437.947 235.836H434.768V239.422H437.947V235.836Z" fill="#DEEAF6"/>
<path d="M437.947 241.854H434.768V245.439H437.947V241.854Z" fill="#DEEAF6"/>
<path d="M437.947 247.871H434.768V251.456H437.947V247.871Z" fill="#DEEAF6"/>
<path d="M437.947 253.887H434.768V257.473H437.947V253.887Z" fill="#DEEAF6"/>
<path d="M437.947 259.917H434.768V263.514H437.947V259.917Z" fill="#DEEAF6"/>
<path d="M437.947 265.934H434.768V269.519H437.947V265.934Z" fill="#DEEAF6"/>
<path d="M437.947 271.951H434.768V275.536H437.947V271.951Z" fill="#DEEAF6"/>
<path d="M437.947 277.98H434.768V281.565H437.947V277.98Z" fill="#DEEAF6"/>
<path d="M437.947 283.997H434.768V287.582H437.947V283.997Z" fill="#DEEAF6"/>
<path d="M437.947 290.014H434.768V293.599H437.947V290.014Z" fill="#DEEAF6"/>
<path d="M437.947 296.043H434.768V299.628H437.947V296.043Z" fill="#DEEAF6"/>
<path d="M437.947 302.06H434.768V305.645H437.947V302.06Z" fill="#DEEAF6"/>
<path d="M437.947 308.077H434.768V311.662H437.947V308.077Z" fill="#DEEAF6"/>
<path d="M437.947 314.106H434.768V317.704H437.947V314.106Z" fill="#DEEAF6"/>
<path d="M437.947 320.123H434.768V323.708H437.947V320.123Z" fill="#DEEAF6"/>
<path d="M437.947 332.169H434.768V335.755H437.947V332.169Z" fill="#DEEAF6"/>
<path d="M437.947 338.186H434.768V341.771H437.947V338.186Z" fill="#DEEAF6"/>
<path d="M437.947 344.203H434.768V347.788H437.947V344.203Z" fill="#DEEAF6"/>
<path d="M437.947 350.22H434.768V353.806H437.947V350.22Z" fill="#DEEAF6"/>
<path d="M437.947 362.266H434.768V365.851H437.947V362.266Z" fill="#DEEAF6"/>
<path d="M466.425 305.645H463.235V309.23H466.425V305.645Z" fill="#DEEAF6"/>
<path d="M466.425 311.675H463.235V315.26H466.425V311.675Z" fill="#DEEAF6"/>
<path d="M466.425 317.691H463.235V321.277H466.425V317.691Z" fill="#DEEAF6"/>
<path d="M466.425 323.708H463.235V327.306H466.425V323.708Z" fill="#DEEAF6"/>
<path d="M466.425 329.738H463.235V333.323H466.425V329.738Z" fill="#DEEAF6"/>
<path d="M466.425 335.754H463.235V339.352H466.425V335.754Z" fill="#DEEAF6"/>
<path d="M466.425 341.771H463.235V345.357H466.425V341.771Z" fill="#DEEAF6"/>
<path d="M466.425 353.818H463.235V357.403H466.425V353.818Z" fill="#DEEAF6"/>
<path d="M466.425 359.835H463.235V363.42H466.425V359.835Z" fill="#DEEAF6"/>
<path d="M466.425 365.864H463.235V369.45H466.425V365.864Z" fill="#DEEAF6"/>
<path d="M466.425 371.881H463.235V375.466H466.425V371.881Z" fill="#DEEAF6"/>
<path d="M466.425 377.898H463.235V381.483H466.425V377.898Z" fill="#DEEAF6"/>
<path d="M466.425 383.915H463.235V387.5H466.425V383.915Z" fill="#DEEAF6"/>
<path d="M466.425 389.944H463.235V393.53H466.425V389.944Z" fill="#DEEAF6"/>
<path d="M466.425 395.961H463.235V399.546H466.425V395.961Z" fill="#DEEAF6"/>
<path d="M461.355 305.646H458.176V309.231H461.355V305.646Z" fill="#DEEAF6"/>
<path d="M461.355 311.675H458.176V315.26H461.355V311.675Z" fill="#DEEAF6"/>
<path d="M461.355 317.691H458.176V321.277H461.355V317.691Z" fill="#DEEAF6"/>
<path d="M461.355 323.708H458.176V327.306H461.355V323.708Z" fill="#DEEAF6"/>
<path d="M461.355 329.738H458.176V333.323H461.355V329.738Z" fill="#DEEAF6"/>
<path d="M461.355 335.755H458.176V339.353H461.355V335.755Z" fill="#DEEAF6"/>
<path d="M461.355 353.818H458.176V357.403H461.355V353.818Z" fill="#DEEAF6"/>
<path d="M461.355 359.835H458.176V363.42H461.355V359.835Z" fill="#DEEAF6"/>
<path d="M461.355 365.864H458.176V369.45H461.355V365.864Z" fill="#DEEAF6"/>
<path d="M461.355 371.881H458.176V375.466H461.355V371.881Z" fill="#DEEAF6"/>
<path d="M461.355 377.898H458.176V381.483H461.355V377.898Z" fill="#DEEAF6"/>
<path d="M461.355 383.915H458.176V387.5H461.355V383.915Z" fill="#DEEAF6"/>
<path d="M461.355 389.944H458.176V393.53H461.355V389.944Z" fill="#DEEAF6"/>
<path d="M461.355 395.961H458.176V399.546H461.355V395.961Z" fill="#DEEAF6"/>
<path d="M456.317 305.646H453.127V309.231H456.317V305.646Z" fill="#DEEAF6"/>
<path d="M456.317 311.675H453.127V315.26H456.317V311.675Z" fill="#DEEAF6"/>
<path d="M456.317 317.691H453.127V321.277H456.317V317.691Z" fill="#DEEAF6"/>
<path d="M456.317 323.708H453.127V327.306H456.317V323.708Z" fill="#DEEAF6"/>
<path d="M456.317 329.738H453.127V333.323H456.317V329.738Z" fill="#DEEAF6"/>
<path d="M456.317 335.755H453.127V339.353H456.317V335.755Z" fill="#DEEAF6"/>
<path d="M456.317 347.801H453.127V351.386H456.317V347.801Z" fill="#DEEAF6"/>
<path d="M456.317 353.818H453.127V357.403H456.317V353.818Z" fill="#DEEAF6"/>
<path d="M456.317 359.835H453.127V363.42H456.317V359.835Z" fill="#DEEAF6"/>
<path d="M456.317 365.864H453.127V369.45H456.317V365.864Z" fill="#DEEAF6"/>
<path d="M456.317 371.881H453.127V375.466H456.317V371.881Z" fill="#DEEAF6"/>
<path d="M456.317 377.898H453.127V381.483H456.317V377.898Z" fill="#DEEAF6"/>
<path d="M456.317 383.915H453.127V387.5H456.317V383.915Z" fill="#DEEAF6"/>
<path d="M456.317 389.944H453.127V393.53H456.317V389.944Z" fill="#DEEAF6"/>
<path d="M456.317 395.961H453.127V399.546H456.317V395.961Z" fill="#DEEAF6"/>
<path d="M349.727 271.951H346.548V275.536H349.727V271.951Z" fill="#DEEAF6"/>
<path d="M349.727 277.98H346.548V281.565H349.727V277.98Z" fill="#DEEAF6"/>
<path d="M349.727 283.997H346.548V287.582H349.727V283.997Z" fill="#DEEAF6"/>
<path d="M349.727 290.014H346.548V293.599H349.727V290.014Z" fill="#DEEAF6"/>
<path d="M349.727 296.043H346.548V299.628H349.727V296.043Z" fill="#DEEAF6"/>
<path d="M349.727 302.06H346.548V305.645H349.727V302.06Z" fill="#DEEAF6"/>
<path d="M349.727 308.077H346.548V311.662H349.727V308.077Z" fill="#DEEAF6"/>
<path d="M349.727 314.106H346.548V317.704H349.727V314.106Z" fill="#DEEAF6"/>
<path d="M349.727 320.123H346.548V323.708H349.727V320.123Z" fill="#DEEAF6"/>
<path d="M349.727 326.14H346.548V329.725H349.727V326.14Z" fill="#DEEAF6"/>
<path d="M349.727 332.169H346.548V335.755H349.727V332.169Z" fill="#DEEAF6"/>
<path d="M349.727 338.186H346.548V341.771H349.727V338.186Z" fill="#DEEAF6"/>
<path d="M349.727 344.203H346.548V347.788H349.727V344.203Z" fill="#DEEAF6"/>
<path d="M349.727 356.25H346.548V359.835H349.727V356.25Z" fill="#DEEAF6"/>
<path d="M349.727 362.266H346.548V365.851H349.727V362.266Z" fill="#DEEAF6"/>
<path d="M349.727 368.283H346.548V371.869H349.727V368.283Z" fill="#DEEAF6"/>
<path d="M349.727 374.312H346.548V377.898H349.727V374.312Z" fill="#DEEAF6"/>
<path d="M349.727 386.346H346.548V389.944H349.727V386.346Z" fill="#DEEAF6"/>
<path d="M349.727 392.375H346.548V395.961H349.727V392.375Z" fill="#DEEAF6"/>
<path d="M349.727 398.393H346.548V401.978H349.727V398.393Z" fill="#DEEAF6"/>
<path d="M344.666 271.951H341.487V275.536H344.666V271.951Z" fill="#DEEAF6"/>
<path d="M344.666 277.98H341.487V281.565H344.666V277.98Z" fill="#DEEAF6"/>
<path d="M344.666 283.997H341.487V287.582H344.666V283.997Z" fill="#DEEAF6"/>
<path d="M344.666 290.014H341.487V293.599H344.666V290.014Z" fill="#DEEAF6"/>
<path d="M344.666 296.043H341.487V299.628H344.666V296.043Z" fill="#DEEAF6"/>
<path d="M344.666 302.06H341.487V305.645H344.666V302.06Z" fill="#DEEAF6"/>
<path d="M344.666 308.077H341.487V311.662H344.666V308.077Z" fill="#DEEAF6"/>
<path d="M344.666 314.106H341.487V317.704H344.666V314.106Z" fill="#DEEAF6"/>
<path d="M344.666 320.123H341.487V323.708H344.666V320.123Z" fill="#DEEAF6"/>
<path d="M344.666 326.14H341.487V329.725H344.666V326.14Z" fill="#DEEAF6"/>
<path d="M344.666 332.169H341.487V335.755H344.666V332.169Z" fill="#DEEAF6"/>
<path d="M344.666 338.187H341.487V341.772H344.666V338.187Z" fill="#DEEAF6"/>
<path d="M344.666 344.203H341.487V347.788H344.666V344.203Z" fill="#DEEAF6"/>
<path d="M344.666 362.266H341.487V365.851H344.666V362.266Z" fill="#DEEAF6"/>
<path d="M344.666 368.283H341.487V371.869H344.666V368.283Z" fill="#DEEAF6"/>
<path d="M344.666 380.33H341.487V383.915H344.666V380.33Z" fill="#DEEAF6"/>
<path d="M344.666 386.346H341.487V389.944H344.666V386.346Z" fill="#DEEAF6"/>
<path d="M344.666 392.376H341.487V395.961H344.666V392.376Z" fill="#DEEAF6"/>
<path d="M344.666 398.393H341.487V401.978H344.666V398.393Z" fill="#DEEAF6"/>
<path d="M339.607 271.951H336.428V275.536H339.607V271.951Z" fill="#DEEAF6"/>
<path d="M339.607 277.98H336.428V281.565H339.607V277.98Z" fill="#DEEAF6"/>
<path d="M339.607 283.997H336.428V287.582H339.607V283.997Z" fill="#DEEAF6"/>
<path d="M339.607 290.014H336.428V293.599H339.607V290.014Z" fill="#DEEAF6"/>
<path d="M339.607 296.043H336.428V299.628H339.607V296.043Z" fill="#DEEAF6"/>
<path d="M339.607 302.06H336.428V305.645H339.607V302.06Z" fill="#DEEAF6"/>
<path d="M339.607 308.077H336.428V311.662H339.607V308.077Z" fill="#DEEAF6"/>
<path d="M339.607 314.106H336.428V317.704H339.607V314.106Z" fill="#DEEAF6"/>
<path d="M339.607 320.123H336.428V323.708H339.607V320.123Z" fill="#DEEAF6"/>
<path d="M339.607 326.14H336.428V329.725H339.607V326.14Z" fill="#DEEAF6"/>
<path d="M339.607 332.169H336.428V335.755H339.607V332.169Z" fill="#DEEAF6"/>
<path d="M339.607 338.186H336.428V341.771H339.607V338.186Z" fill="#DEEAF6"/>
<path d="M339.607 344.203H336.428V347.788H339.607V344.203Z" fill="#DEEAF6"/>
<path d="M339.607 350.22H336.428V353.806H339.607V350.22Z" fill="#DEEAF6"/>
<path d="M339.607 362.266H336.428V365.851H339.607V362.266Z" fill="#DEEAF6"/>
<path d="M339.607 374.312H336.428V377.898H339.607V374.312Z" fill="#DEEAF6"/>
<path d="M339.607 380.33H336.428V383.915H339.607V380.33Z" fill="#DEEAF6"/>
<path d="M339.607 386.346H336.428V389.944H339.607V386.346Z" fill="#DEEAF6"/>
<path d="M339.607 392.375H336.428V395.961H339.607V392.375Z" fill="#DEEAF6"/>
<path d="M339.607 398.393H336.428V401.978H339.607V398.393Z" fill="#DEEAF6"/>
<path d="M370.329 306.291H367.15V309.876H370.329V306.291Z" fill="#DEEAF6"/>
<path d="M370.329 312.307H367.15V315.892H370.329V312.307Z" fill="#DEEAF6"/>
<path d="M370.329 318.324H367.15V321.91H370.329V318.324Z" fill="#DEEAF6"/>
<path d="M370.329 324.341H367.15V327.927H370.329V324.341Z" fill="#DEEAF6"/>
<path d="M370.329 330.371H367.15V333.956H370.329V330.371Z" fill="#DEEAF6"/>
<path d="M370.329 336.387H367.15V339.973H370.329V336.387Z" fill="#DEEAF6"/>
<path d="M370.329 354.451H367.15V358.036H370.329V354.451Z" fill="#DEEAF6"/>
<path d="M370.329 360.467H367.15V364.053H370.329V360.467Z" fill="#DEEAF6"/>
<path d="M370.329 366.497H367.15V370.082H370.329V366.497Z" fill="#DEEAF6"/>
<path d="M370.329 372.514H367.15V376.111H370.329V372.514Z" fill="#DEEAF6"/>
<path d="M370.329 378.531H367.15V382.116H370.329V378.531Z" fill="#DEEAF6"/>
<path d="M370.329 384.56H367.15V388.145H370.329V384.56Z" fill="#DEEAF6"/>
<path d="M370.329 390.577H367.15V394.162H370.329V390.577Z" fill="#DEEAF6"/>
<path d="M365.27 306.291H362.091V309.876H365.27V306.291Z" fill="#DEEAF6"/>
<path d="M365.27 312.307H362.091V315.892H365.27V312.307Z" fill="#DEEAF6"/>
<path d="M365.27 318.324H362.091V321.91H365.27V318.324Z" fill="#DEEAF6"/>
<path d="M365.27 324.341H362.091V327.927H365.27V324.341Z" fill="#DEEAF6"/>
<path d="M365.27 330.371H362.091V333.956H365.27V330.371Z" fill="#DEEAF6"/>
<path d="M365.27 336.387H362.091V339.973H365.27V336.387Z" fill="#DEEAF6"/>
<path d="M365.27 354.451H362.091V358.036H365.27V354.451Z" fill="#DEEAF6"/>
<path d="M365.27 360.467H362.091V364.053H365.27V360.467Z" fill="#DEEAF6"/>
<path d="M365.27 366.497H362.091V370.082H365.27V366.497Z" fill="#DEEAF6"/>
<path d="M365.27 372.514H362.091V376.111H365.27V372.514Z" fill="#DEEAF6"/>
<path d="M365.27 378.531H362.091V382.116H365.27V378.531Z" fill="#DEEAF6"/>
<path d="M365.27 384.56H362.091V388.145H365.27V384.56Z" fill="#DEEAF6"/>
<path d="M365.27 396.594H362.091V400.179H365.27V396.594Z" fill="#DEEAF6"/>
<path d="M197.255 279.766H194.065V283.351H197.255V279.766Z" fill="#DEEAF6"/>
<path d="M197.255 285.795H194.065V289.381H197.255V285.795Z" fill="#DEEAF6"/>
<path d="M197.255 291.812H194.065V295.398H197.255V291.812Z" fill="#DEEAF6"/>
<path d="M197.255 297.83H194.065V301.415H197.255V297.83Z" fill="#DEEAF6"/>
<path d="M197.255 303.859H194.065V307.444H197.255V303.859Z" fill="#DEEAF6"/>
<path d="M197.255 309.876H194.065V313.461H197.255V309.876Z" fill="#DEEAF6"/>
<path d="M197.255 315.893H194.065V319.478H197.255V315.893Z" fill="#DEEAF6"/>
<path d="M197.255 321.922H194.065V325.507H197.255V321.922Z" fill="#DEEAF6"/>
<path d="M197.255 327.939H194.065V331.524H197.255V327.939Z" fill="#DEEAF6"/>
<path d="M197.255 333.956H194.065V337.541H197.255V333.956Z" fill="#DEEAF6"/>
<path d="M197.255 339.985H194.065V343.571H197.255V339.985Z" fill="#DEEAF6"/>
<path d="M197.255 352.019H194.065V355.604H197.255V352.019Z" fill="#DEEAF6"/>
<path d="M197.255 358.036H194.065V361.633H197.255V358.036Z" fill="#DEEAF6"/>
<path d="M197.255 364.065H194.065V367.663H197.255V364.065Z" fill="#DEEAF6"/>
<path d="M197.255 370.082H194.065V373.667H197.255V370.082Z" fill="#DEEAF6"/>
<path d="M197.255 376.099H194.065V379.684H197.255V376.099Z" fill="#DEEAF6"/>
<path d="M197.255 382.128H194.065V385.714H197.255V382.128Z" fill="#DEEAF6"/>
<path d="M197.255 388.146H194.065V391.731H197.255V388.146Z" fill="#DEEAF6"/>
<path d="M197.255 394.162H194.065V397.747H197.255V394.162Z" fill="#DEEAF6"/>
<path d="M192.196 279.766H189.017V283.351H192.196V279.766Z" fill="#DEEAF6"/>
<path d="M192.196 285.795H189.017V289.381H192.196V285.795Z" fill="#DEEAF6"/>
<path d="M192.196 291.812H189.017V295.398H192.196V291.812Z" fill="#DEEAF6"/>
<path d="M192.196 297.83H189.017V301.415H192.196V297.83Z" fill="#DEEAF6"/>
<path d="M192.196 303.859H189.017V307.444H192.196V303.859Z" fill="#DEEAF6"/>
<path d="M192.196 309.875H189.017V313.461H192.196V309.875Z" fill="#DEEAF6"/>
<path d="M192.196 315.893H189.017V319.478H192.196V315.893Z" fill="#DEEAF6"/>
<path d="M192.196 321.922H189.017V325.507H192.196V321.922Z" fill="#DEEAF6"/>
<path d="M192.196 327.939H189.017V331.524H192.196V327.939Z" fill="#DEEAF6"/>
<path d="M192.196 333.956H189.017V337.541H192.196V333.956Z" fill="#DEEAF6"/>
<path d="M192.196 339.985H189.017V343.57H192.196V339.985Z" fill="#DEEAF6"/>
<path d="M192.196 346.002H189.017V349.587H192.196V346.002Z" fill="#DEEAF6"/>
<path d="M192.196 352.019H189.017V355.604H192.196V352.019Z" fill="#DEEAF6"/>
<path d="M192.196 358.036H189.017V361.634H192.196V358.036Z" fill="#DEEAF6"/>
<path d="M192.196 364.065H189.017V367.663H192.196V364.065Z" fill="#DEEAF6"/>
<path d="M192.196 370.082H189.017V373.667H192.196V370.082Z" fill="#DEEAF6"/>
<path d="M192.196 376.099H189.017V379.684H192.196V376.099Z" fill="#DEEAF6"/>
<path d="M192.196 382.128H189.017V385.714H192.196V382.128Z" fill="#DEEAF6"/>
<path d="M192.196 388.146H189.017V391.731H192.196V388.146Z" fill="#DEEAF6"/>
<path d="M192.196 394.162H189.017V397.747H192.196V394.162Z" fill="#DEEAF6"/>
<path d="M222.159 303.226H218.98V306.811H222.159V303.226Z" fill="#DEEAF6"/>
<path d="M222.159 309.243H218.98V312.829H222.159V309.243Z" fill="#DEEAF6"/>
<path d="M222.159 315.26H218.98V318.845H222.159V315.26Z" fill="#DEEAF6"/>
<path d="M222.159 321.289H218.98V324.874H222.159V321.289Z" fill="#DEEAF6"/>
<path d="M222.159 327.306H218.98V330.891H222.159V327.306Z" fill="#DEEAF6"/>
<path d="M222.159 333.323H218.98V336.909H222.159V333.323Z" fill="#DEEAF6"/>
<path d="M222.159 339.34H218.98V342.925H222.159V339.34Z" fill="#DEEAF6"/>
<path d="M222.159 345.369H218.98V348.954H222.159V345.369Z" fill="#DEEAF6"/>
<path d="M222.159 351.386H218.98V354.972H222.159V351.386Z" fill="#DEEAF6"/>
<path d="M222.159 357.403H218.98V360.989H222.159V357.403Z" fill="#DEEAF6"/>
<path d="M217.1 303.226H213.921V306.811H217.1V303.226Z" fill="#DEEAF6"/>
<path d="M217.1 309.243H213.921V312.829H217.1V309.243Z" fill="#DEEAF6"/>
<path d="M217.1 315.26H213.921V318.845H217.1V315.26Z" fill="#DEEAF6"/>
<path d="M217.1 321.289H213.921V324.874H217.1V321.289Z" fill="#DEEAF6"/>
<path d="M217.1 327.306H213.921V330.891H217.1V327.306Z" fill="#DEEAF6"/>
<path d="M217.1 333.323H213.921V336.909H217.1V333.323Z" fill="#DEEAF6"/>
<path d="M217.1 339.34H213.921V342.925H217.1V339.34Z" fill="#DEEAF6"/>
<path d="M217.1 345.369H213.921V348.954H217.1V345.369Z" fill="#DEEAF6"/>
<path d="M217.1 351.386H213.921V354.972H217.1V351.386Z" fill="#DEEAF6"/>
<path d="M343.017 231.507L344.865 234.087L169.162 391.929L176.653 402.375L177.676 403.814L353.379 245.972L355.227 248.553L358.527 231.47L343.017 231.507Z" fill="#635BFF"/>
<path opacity="0.7" d="M343.017 231.507L344.865 234.087L169.162 391.929L176.653 402.375L177.676 403.814L353.379 245.972L355.227 248.553L358.527 231.47L343.017 231.507Z" fill="#F6F9FC"/>
<path d="M143.301 402.971C143.301 399.373 145.886 396.445 149.087 396.445C149.67 396.445 150.22 396.544 150.748 396.718C150.66 396.061 150.616 395.391 150.616 394.721C150.616 387.091 156.105 380.9 162.87 380.9C163.64 380.9 164.399 380.987 165.125 381.136C167.006 377.662 170.394 375.33 174.266 375.33C180.129 375.33 184.892 380.64 184.98 387.24C185.035 387.24 185.101 387.24 185.156 387.24C190.601 387.24 195.023 392.227 195.023 398.368C195.023 404.509 190.601 409.496 185.156 409.496H148.922C145.798 409.397 143.301 406.519 143.301 402.983V402.971Z" fill="#635BFF"/>
<path opacity="0.8" d="M143.301 402.971C143.301 399.373 145.886 396.445 149.087 396.445C149.67 396.445 150.22 396.544 150.748 396.718C150.66 396.061 150.616 395.391 150.616 394.721C150.616 387.091 156.105 380.9 162.87 380.9C163.64 380.9 164.399 380.987 165.125 381.136C167.006 377.662 170.394 375.33 174.266 375.33C180.129 375.33 184.892 380.64 184.98 387.24C185.035 387.24 185.101 387.24 185.156 387.24C190.601 387.24 195.023 392.227 195.023 398.368C195.023 404.509 190.601 409.496 185.156 409.496H148.922C145.798 409.397 143.301 406.519 143.301 402.983V402.971Z" fill="#F6F9FC"/>
<path d="M511.626 331.499L516.015 337.628L434.34 412.027L452.083 436.802L454.525 440.201L536.2 365.802L540.578 371.931L548.388 331.413L511.626 331.499Z" fill="#635BFF"/>
<path opacity="0.5" d="M511.626 331.499L516.015 337.628L434.34 412.027L452.083 436.802L454.525 440.201L536.2 365.802L540.578 371.931L548.388 331.413L511.626 331.499Z" fill="#F6F9FC"/>
<path d="M467.471 409.347C464.171 403.417 458.341 399.459 451.686 399.459C445.031 399.459 439.003 403.553 435.736 409.645C434.878 409.372 433.976 409.223 433.041 409.223C427.53 409.223 423.053 414.26 423.053 420.488C423.053 420.488 423.053 420.488 423.053 420.5H417.784C415.045 420.5 412.801 423.031 412.801 426.12C412.801 429.209 415.045 431.74 417.784 431.74H435.956C439.267 437.596 445.064 441.503 451.675 441.503C456.889 441.503 461.608 439.084 464.985 435.189C465.304 435.214 465.612 435.238 465.931 435.238C472.3 435.238 477.47 429.42 477.47 422.225C477.47 415.625 473.114 410.191 467.46 409.347H467.471Z" fill="#635BFF"/>
<path opacity="0.8" d="M467.471 409.347C464.171 403.417 458.341 399.459 451.686 399.459C445.031 399.459 439.003 403.553 435.736 409.645C434.878 409.372 433.976 409.223 433.041 409.223C427.53 409.223 423.053 414.26 423.053 420.488C423.053 420.488 423.053 420.488 423.053 420.5H417.784C415.045 420.5 412.801 423.031 412.801 426.12C412.801 429.209 415.045 431.74 417.784 431.74H435.956C439.267 437.596 445.064 441.503 451.675 441.503C456.889 441.503 461.608 439.084 464.985 435.189C465.304 435.214 465.612 435.238 465.931 435.238C472.3 435.238 477.47 429.42 477.47 422.225C477.47 415.625 473.114 410.191 467.46 409.347H467.471Z" fill="#F6F9FC"/>
<path d="M344.854 157.616L343.27 155.73C342.841 155.222 342.214 154.998 341.609 155.122L339.233 155.631C338.463 155.805 337.869 156.512 337.77 157.393L336.549 168.608L340.234 170.196C344.711 168 344.48 161.325 344.48 161.325L345.129 159.998C345.503 159.216 345.393 158.249 344.854 157.604V157.616Z" fill="#FFB573"/>
<path d="M300.447 191.224C300.447 191.224 303.967 191.46 306.035 191.411C308.114 191.373 310.193 191.336 312.228 191.2C314.263 191.051 316.276 190.889 318.124 190.604C319.037 190.455 319.928 190.269 320.632 190.058C320.962 189.947 321.281 189.835 321.424 189.773C321.666 189.649 321.402 189.86 321.534 189.773C321.875 189.438 322.546 188.545 323.129 187.714C323.734 186.845 324.339 185.915 324.944 184.972C326.154 183.074 327.353 181.101 328.541 179.116L335.724 167.095L341.334 170.469C340.509 172.789 339.618 175.022 338.716 177.28C337.792 179.513 336.846 181.746 335.867 183.967C334.877 186.188 333.843 188.396 332.732 190.604C332.171 191.708 331.588 192.812 330.939 193.941C330.268 195.095 329.663 196.174 328.497 197.601C327.87 198.383 326.726 199.338 325.989 199.747C325.175 200.244 324.482 200.554 323.789 200.851C322.436 201.397 321.215 201.745 320.005 202.055C317.607 202.663 315.319 203.01 313.042 203.258C308.488 203.767 304.11 203.965 299.545 203.841L300.414 191.224H300.447Z" fill="#635BFF"/>
<path opacity="0.7" d="M341.345 170.469C340.52 172.777 339.629 175.01 338.738 177.268C337.803 179.501 336.857 181.734 335.878 183.967C334.888 186.175 333.865 188.383 332.743 190.592C332.182 191.696 331.599 192.8 330.95 193.929C330.29 195.083 329.674 196.162 328.519 197.589C327.892 198.37 326.748 199.313 326.011 199.723C325.197 200.231 324.504 200.541 323.811 200.839C322.458 201.385 321.237 201.732 320.038 202.03C317.64 202.638 315.352 202.998 313.075 203.246C312.096 203.358 311.128 203.444 310.171 203.531C306.64 203.817 303.164 203.916 299.578 203.829L299.754 201.224L300.447 191.212C300.447 191.212 303.967 191.46 306.035 191.398C308.125 191.361 310.193 191.324 312.239 191.187C314.263 191.051 316.287 190.889 318.135 190.592C319.048 190.455 319.939 190.269 320.643 190.046C320.973 189.947 321.292 189.835 321.435 189.761C321.677 189.636 321.413 189.86 321.545 189.773C321.886 189.438 322.557 188.545 323.14 187.714C323.745 186.845 324.35 185.915 324.944 184.972C326.154 183.074 327.353 181.101 328.552 179.116L335.735 167.095L341.345 170.469Z" fill="#F6F9FC"/>
<path opacity="0.1" d="M310.171 203.531C306.64 203.816 303.164 203.915 299.578 203.829L299.754 201.223L300.612 198.941C300.612 198.941 306.376 198.854 310.171 203.531Z" fill="black"/>
<path d="M241.619 413.776C241.619 413.776 231.664 406.047 232.269 400.861C232.324 400.352 232.06 399.906 231.587 399.819L223.15 398.38C222.754 398.318 222.336 398.516 222.105 398.888L217.122 406.766L219.366 407.684L220.565 406.729L221.126 408.404C233.292 413.366 238.583 415.364 241.267 415.488C242.004 414.421 241.619 413.776 241.619 413.776Z" fill="black"/>
<path d="M297.697 267.832C297.697 267.832 297.191 269.32 296.3 271.901C295.343 274.692 293.935 278.761 292.241 283.6C291.108 286.825 289.854 290.398 288.501 294.157C282.286 311.575 274.256 333.124 268.943 344.004C258.768 364.822 232.258 404.36 232.258 404.36L221.665 399.993C221.665 399.993 240.739 359.276 250.364 338.645C253.301 332.355 256.678 323.1 260.022 313.002C261.617 308.201 263.201 303.201 264.73 298.251C265.423 296.018 266.105 293.785 266.765 291.589C268.514 285.783 270.153 280.188 271.594 275.201C271.77 274.58 271.946 273.96 272.122 273.365C272.705 271.318 273.255 269.382 273.75 267.596C275.818 260.251 277.105 255.413 277.149 255.227H277.16L286.609 261.033L297.697 267.832Z" fill="#263238"/>
<path opacity="0.3" d="M296.3 271.901C295.343 274.692 293.935 278.761 292.241 283.599C291.108 286.825 289.854 290.398 288.501 294.157C279.855 296.117 271.055 297.445 264.73 298.251C265.423 296.018 266.105 293.785 266.765 291.589C268.514 285.783 270.153 280.188 271.594 275.201C271.77 274.58 271.946 273.96 272.122 273.364C272.705 271.318 273.255 269.382 273.75 267.596C280.108 268.576 288.611 270.04 296.3 271.901Z" fill="black"/>
<path d="M263.85 197.824C263.85 197.824 263.85 197.837 263.85 197.849C265.379 203.618 266.27 210.33 266.765 216.942C267.15 222.09 267.293 227.152 267.315 231.693C267.326 236.271 267.205 240.327 267.073 243.429C266.897 247.411 266.688 249.868 266.688 249.868L300.106 251.803C310.138 210.813 300.436 191.212 300.436 191.212C300.436 191.212 296.267 190.74 291.471 190.976C290.855 191.001 290.228 191.051 289.579 191.113C285.487 191.497 278.975 192.949 274.63 194.065C273.739 194.289 272.837 194.549 271.957 194.822C267.59 196.162 263.828 197.824 263.828 197.824H263.85Z" fill="#635BFF"/>
<path opacity="0.7" d="M300.117 251.802L266.699 249.867C266.699 249.867 266.908 247.411 267.084 243.416C267.128 242.25 267.172 240.922 267.216 239.483C267.282 237.163 267.326 234.533 267.326 231.692C267.326 230.315 267.293 228.889 267.26 227.425C267.26 227.189 267.249 226.953 267.249 226.717C267.194 224.398 267.095 221.991 266.952 219.547C266.886 218.678 266.831 217.81 266.765 216.942C266.721 216.259 266.666 215.564 266.611 214.882C266.446 213.145 266.27 211.408 266.05 209.696C265.995 209.225 265.929 208.754 265.863 208.295C265.764 207.513 265.654 206.756 265.533 205.987C265.082 203.158 264.532 200.404 263.861 197.836C263.861 197.836 263.85 197.824 263.839 197.824C263.839 197.824 267.612 196.161 271.979 194.809C272.848 194.549 273.75 194.288 274.641 194.065C278.997 192.961 285.509 191.497 289.59 191.112C290.239 191.063 290.866 191.001 291.493 190.988C296.278 190.74 300.447 191.211 300.447 191.211C300.447 191.211 310.149 210.801 300.117 251.802Z" fill="#F6F9FC"/>
<path d="M320.786 349.897C320.786 349.897 311.238 341.535 312.107 336.399C312.195 335.891 311.953 335.432 311.48 335.32L303.131 333.335C302.746 333.248 302.306 333.422 302.053 333.769L296.674 341.312L298.863 342.367L300.117 341.498L300.601 343.21C312.492 348.954 317.684 351.287 320.346 351.597C321.138 350.579 320.786 349.91 320.786 349.91V349.897Z" fill="black"/>
<path d="M282.683 283.835C283.189 283.86 283.464 283.86 283.464 283.86L323.526 290.435L300.723 333.112L312.141 338.012C312.141 338.012 353.435 287.793 344.217 276.342C336.627 266.926 299.447 261.194 299.447 261.194L300.668 251.368L266.282 243.739C251.586 280.039 277.766 283.5 282.683 283.847V283.835Z" fill="#263238"/>
<path d="M265.874 247.585L265.137 247.423L265.808 244.806L266.457 244.955L265.874 247.585Z" fill="#263238"/>
<path d="M292.922 253.49L278.237 250.277L278.809 247.659L293.439 250.848L292.922 253.49Z" fill="#263238"/>
<path d="M294.573 251.096L300.777 252.46L300.359 255.115L294.078 253.738L294.573 251.096Z" fill="#263238"/>
<path d="M267.589 245.203L277.687 247.411L277.093 250.029L267.028 247.833L267.589 245.203Z" fill="#263238"/>
<g opacity="0.2">
<path d="M265.874 247.585L265.137 247.423L265.808 244.806L266.457 244.955L265.874 247.585Z" fill="#F6F9FC"/>
<path d="M292.922 253.49L278.237 250.277L278.809 247.659L293.439 250.848L292.922 253.49Z" fill="#F6F9FC"/>
<path d="M294.573 251.096L300.777 252.46L300.359 255.115L294.078 253.738L294.573 251.096Z" fill="#F6F9FC"/>
<path d="M267.589 245.203L277.687 247.411L277.093 250.029L267.028 247.833L267.589 245.203Z" fill="#F6F9FC"/>
</g>
<path d="M288.853 250.364L288.523 251.964C288.468 252.225 288.248 252.386 288.017 252.336L284.343 251.604C284.09 251.555 283.936 251.282 283.991 250.996L284.365 249.334C284.42 249.086 284.64 248.925 284.871 248.974L288.512 249.768C288.754 249.818 288.908 250.091 288.853 250.364Z" stroke="#F6F9FC" stroke-width="0.649" stroke-miterlimit="10"/>
<path d="M285.806 250.5L284.684 250.277" stroke="#F6F9FC" stroke-width="0.649" stroke-linecap="round" stroke-linejoin="round"/>
<path d="M278.117 176.97L286.851 185.133C285.993 189.128 287.478 192.812 289.205 193.495C289.205 193.495 290.481 196.919 288.028 197.502C283.056 198.668 277.38 193.234 277.38 193.234C280.009 190.046 279.063 182.081 278.128 176.982L278.117 176.97Z" fill="#FFB573"/>
<path opacity="0.2" d="M281.67 180.294L286.84 185.12C286.631 186.063 286.477 187.018 286.422 187.949C284.486 187.676 281.813 185.331 281.582 183.061C281.472 181.92 281.505 180.828 281.67 180.294Z" fill="black"/>
<path d="M285.829 160.842C287.941 162.331 290.801 166.809 287.248 167.876C283.695 168.956 282.188 158.286 285.829 160.842Z" fill="#0A2540"/>
<path d="M274.916 176.139C278.612 181.635 280.526 185.059 284.816 186.051C291.273 187.527 295.959 180.121 293.792 173.471C291.834 167.492 286.125 159.515 279.833 161.028C273.629 162.517 271.231 170.655 274.916 176.151V176.139Z" fill="#FFB573"/>
<path d="M276.005 170.159L271.572 164.315C271.572 164.315 265.709 169.179 268.371 172.119C266.611 176.771 273.585 183.272 279.679 181.932C280.383 177.739 274.96 170.556 274.96 170.556C275.29 170.444 275.642 170.295 276.005 170.146V170.159Z" fill="#0A2540"/>
<path d="M275.775 182.391C277.051 183.557 278.69 183.954 280.032 183.756C282.045 183.47 282.287 181.2 281.077 179.501C279.988 177.975 277.623 176.287 275.918 177.429C274.235 178.558 274.323 181.051 275.786 182.391H275.775Z" fill="#FFB573"/>
<path d="M274.96 170.581C274.96 170.581 286.576 165.072 287.28 158.795C287.995 152.517 283.089 155.085 283.089 155.085C283.089 155.085 285.355 154.912 285.135 156.773C285.135 156.773 281.208 153.758 277.479 156.351C277.479 156.351 279.228 156.314 280.141 157.778C280.141 157.778 276.588 158.559 272.606 161.884C268.624 165.209 261.474 177.131 274.949 170.581H274.96Z" fill="#0A2540"/>
<path opacity="0.3" d="M299.446 261.194L280.515 258.738C280.515 258.738 288.006 257.348 299.864 257.844L299.446 261.194Z" fill="black"/>
<path opacity="0.1" d="M266.952 219.547C266.886 218.679 266.831 217.81 266.765 216.942C266.721 216.26 266.666 215.565 266.611 214.883C266.446 213.146 266.27 211.409 266.05 209.697C265.995 209.225 265.929 208.754 265.863 208.295C266.369 207.836 266.93 207.414 267.524 207.042C267.524 207.042 268.602 213.307 266.952 219.547Z" fill="black"/>
<path d="M235.415 250.029L232.126 258.738L239.243 260.723C239.243 260.723 242.301 255.004 239.32 250.637L235.415 250.029Z" fill="#FFB573"/>
<path d="M232.632 265.449L238.253 265.499L239.243 260.723L232.126 258.738L232.632 265.449Z" fill="#FFB573"/>
<path d="M267.436 203.853C267.92 209.312 266.27 211.533 266.27 211.533C266.27 211.533 261.584 214.858 259.549 216.557C257.822 218.021 256.128 219.522 254.522 221.011C253.73 221.768 252.96 222.525 252.256 223.281C251.563 224.026 250.914 224.807 250.496 225.403C250.309 225.638 250.122 226.035 249.935 226.383C249.737 226.743 249.528 227.288 249.308 227.735C248.879 228.74 248.45 229.794 248.043 230.911C247.229 233.132 246.459 235.439 245.733 237.784C244.204 242.449 242.796 247.262 241.333 251.989L234.832 250.252C235.492 245.103 236.383 240.091 237.417 235.005C237.956 232.474 238.561 229.943 239.254 227.375C239.595 226.085 239.991 224.782 240.431 223.443C240.695 222.735 240.904 222.103 241.234 221.346C241.586 220.577 241.905 219.832 242.378 219.038C243.258 217.55 244.116 216.433 244.996 215.354C245.865 214.287 246.734 213.307 247.614 212.352C249.363 210.453 251.156 208.729 252.982 207.067C256.623 203.729 260.275 200.678 264.191 197.737C264.191 197.737 267.007 198.928 267.447 203.878L267.436 203.853Z" fill="#635BFF"/>
<path opacity="0.7" d="M267.436 203.853C267.92 209.312 266.27 211.533 266.27 211.533C266.27 211.533 261.584 214.858 259.549 216.557C257.822 218.021 256.128 219.522 254.522 221.011C253.73 221.768 252.96 222.525 252.256 223.281C251.563 224.026 250.914 224.807 250.496 225.403C250.309 225.638 250.122 226.035 249.935 226.383C249.737 226.743 249.528 227.288 249.308 227.735C248.879 228.74 248.45 229.794 248.043 230.911C247.229 233.132 246.459 235.439 245.733 237.784C244.204 242.449 242.796 247.262 241.333 251.989L234.832 250.252C235.492 245.103 236.383 240.091 237.417 235.005C237.956 232.474 238.561 229.943 239.254 227.375C239.595 226.085 239.991 224.782 240.431 223.443C240.695 222.735 240.904 222.103 241.234 221.346C241.586 220.577 241.905 219.832 242.378 219.038C243.258 217.55 244.116 216.433 244.996 215.354C245.865 214.287 246.734 213.307 247.614 212.352C249.363 210.453 251.156 208.729 252.982 207.067C256.623 203.729 260.275 200.678 264.191 197.737C264.191 197.737 267.007 198.928 267.447 203.878L267.436 203.853Z" fill="#F6F9FC"/>
<path d="M282.209 196.534L284.651 200.864C284.651 200.864 276.126 212.525 259.802 216.371L258.713 220.118L262.178 221.148C262.178 221.148 279.8 215.999 286.84 201.087L290.47 196.522L286.191 194.896L282.198 196.534H282.209Z" fill="#635BFF"/>
<path d="M274.3 193.916L278.282 189.996L286.202 194.896L287.115 189.537L291.295 192.254L292.494 199.177L286.653 196.336L281.439 201.583L274.3 193.916Z" fill="#635BFF"/>
<path opacity="0.6" d="M274.3 193.916L278.282 189.996L286.202 194.896L287.115 189.537L291.295 192.254L292.494 199.177L286.653 196.336L281.439 201.583L274.3 193.916Z" fill="#F6F9FC"/>
<path d="M383.408 116.329C383.408 116.329 376.016 126.676 368.503 125.82C361.001 124.964 357.162 128.4 357.162 128.4L356.425 132.531L360.451 131.923C360.451 131.923 360.451 128.648 368.283 129.02C376.115 129.393 381.989 121.788 384.277 118.351L383.408 116.342V116.329Z" fill="#635BFF"/>
<path d="M436.539 99.134L436.385 98.3152C436.308 97.9927 436.352 97.9555 436.077 97.1491C435.648 95.8961 434.922 94.8539 434.284 94.2088C432.964 92.869 431.864 92.3976 430.918 91.9758C429.037 91.219 427.541 90.9833 426.056 90.7848C424.582 90.5987 423.196 90.5118 421.821 90.4746C419.082 90.3878 416.442 90.5367 413.824 90.7227C408.577 91.1197 403.528 91.8145 398.347 92.8194L400.239 105.039C404.98 104.183 409.93 103.402 414.715 102.843C417.113 102.57 419.511 102.397 421.799 102.322C422.943 102.285 424.065 102.298 425.11 102.372C425.836 102.422 426.562 102.508 427.101 102.62C427.134 103.042 427.145 103.501 427.134 103.985C427.068 106.094 426.595 108.563 425.957 111.019C424.67 115.957 422.635 121.093 420.545 125.894L425.77 129.814C429.103 125.063 431.853 120.113 434.119 114.431C435.208 111.565 436.165 108.538 436.605 104.99C436.814 103.216 436.891 101.268 436.55 99.1216L436.539 99.134Z" fill="#635BFF"/>
<path opacity="0.7" d="M436.594 104.99C436.242 107.918 435.516 110.498 434.669 112.917C434.493 113.426 434.306 113.935 434.119 114.431C431.842 120.113 429.092 125.05 425.759 129.802L420.545 125.882C422.635 121.08 424.659 115.957 425.957 111.007C426.397 109.307 426.76 107.595 426.958 106.007C427.057 105.3 427.112 104.618 427.134 103.973C427.145 103.489 427.134 103.03 427.101 102.608C426.562 102.496 425.836 102.409 425.11 102.36C424.065 102.285 422.943 102.285 421.799 102.31C421.711 102.31 421.634 102.323 421.546 102.323C419.324 102.409 417.025 102.583 414.704 102.844C410.062 103.389 405.288 104.134 400.679 104.965C400.525 104.99 400.382 105.015 400.239 105.039L398.347 92.8072C403.539 91.8023 408.577 91.1075 413.824 90.7105C416.442 90.5244 419.082 90.3756 421.821 90.4624C423.196 90.4996 424.582 90.5865 426.056 90.7726C427.541 90.9835 429.037 91.2192 430.918 91.9635C431.864 92.3854 432.953 92.8568 434.284 94.1966C434.922 94.8417 435.648 95.8838 436.077 97.1369C436.341 97.9432 436.308 97.9805 436.385 98.303L436.539 99.1218C436.88 101.268 436.803 103.203 436.594 104.99Z" fill="#F6F9FC"/>
<path opacity="0.1" d="M421.546 102.322C419.324 102.409 417.025 102.583 414.704 102.843C410.062 103.389 405.288 104.134 400.679 104.965C402.362 100.3 404.089 95.5859 404.089 95.5859C404.089 95.5859 411.789 96.4171 421.546 102.322Z" fill="black"/>
<path opacity="0.1" d="M434.669 112.917C434.493 113.426 434.306 113.935 434.119 114.431C431.842 120.113 429.092 125.051 425.759 129.802L420.545 125.882C422.635 121.081 424.659 115.957 425.957 111.007C426.397 109.307 426.76 107.595 426.958 106.007C429.499 107.93 432.095 110.213 434.669 112.917Z" fill="black"/>
<path d="M364.092 97.9685C364.092 97.9685 364.158 97.8321 364.158 97.7452C364.158 97.5715 364.015 97.4351 363.861 97.4351C362.288 97.5095 361.606 98.7749 361.584 98.8369C361.507 98.9858 361.551 99.1843 361.683 99.2712C361.815 99.358 361.991 99.3084 362.068 99.1595C362.068 99.1595 362.629 98.1422 363.883 98.0678C363.96 98.0678 364.037 98.0181 364.092 97.9561V97.9685Z" fill="#0A2540"/>
<path d="M375.322 94.9538C378.952 97.9064 385.915 102.584 389.864 100.809C389.864 100.809 393.417 104.147 390.007 112.508C386.256 121.714 384.166 114.803 384.166 114.803C385.145 109.233 381.79 107.645 378.336 106.913L375.333 94.9414L375.322 94.9538Z" fill="#FFB573"/>
<path d="M376.422 89.3706C379.821 94.8913 382.065 97.9308 381.603 102.732C380.899 109.965 373.452 112.682 368.656 108.414C364.333 104.58 359.493 96.1816 362.606 90.0158C365.664 83.9368 373.034 83.8376 376.433 89.3583L376.422 89.3706Z" fill="#FFB573"/>
<path d="M381.89 98.4894C381.384 101.616 372.034 105.896 367.799 99.1469C367.799 99.1469 362.475 99.0972 359.285 95.4871C356.084 91.8645 356.777 87.9442 359.637 85.8104C362.167 83.9247 368.701 70.0796 376.313 79.9672C384.574 79.5826 382.539 94.5815 381.901 98.4894H381.89Z" fill="#0A2540"/>
<path d="M366.105 84.3215C366.105 84.3215 361.199 84.0486 358.372 86.5918C355.545 89.1226 356.337 96.9012 357.426 98.3775C358.515 99.8538 359.67 99.8414 359.67 99.8414C359.67 99.8414 357.998 98.8614 357.998 97.4347C357.998 97.4347 358.724 99.3576 362.057 99.8414C362.057 99.8414 361.111 98.9854 361.254 97.8937C361.254 97.8937 363.058 100.536 367.238 97.8937C371.418 95.2512 366.094 84.3215 366.094 84.3215H366.105Z" fill="#0A2540"/>
<path d="M370.274 97.993C371.176 99.4321 371.528 101.231 371.451 102.695C371.33 104.891 369.702 105.064 368.426 103.675C367.271 102.434 365.951 99.7919 366.699 97.9558C367.436 96.1569 369.251 96.343 370.274 97.993Z" fill="#FFB573"/>
<path d="M380.043 116.329C380.043 116.329 379.13 103.837 386.357 96.8271L394.97 97.7204C394.97 97.7204 390.009 111.379 380.043 116.329Z" fill="#635BFF"/>
<path opacity="0.6" d="M380.043 116.329C380.043 116.329 379.13 103.837 386.357 96.8271L394.97 97.7204C394.97 97.7204 390.009 111.379 380.043 116.329Z" fill="#F6F9FC"/>
<path d="M404.869 144.416C404.869 144.416 391.845 130.001 377.446 119.902C377.446 119.902 387.038 94.5069 399.182 92.249C399.182 92.249 430.565 102.943 439.673 131.911L404.869 144.416Z" fill="#635BFF"/>
<path d="M406.519 232.387L400.909 235.079L394.826 220.664L400.447 217.984L406.519 232.387Z" fill="#FFB573"/>
<path d="M439.673 131.911L436.362 171.573C434.536 173.099 431.643 174.278 428.134 175.196C421.27 176.995 412.118 177.813 404.209 178.297C395.332 178.843 388.039 178.942 387.379 179.525C385.839 180.878 405.386 226.42 405.386 226.42L396.058 227.735C396.058 227.735 371.539 189.798 368.36 176.622C367.194 171.759 366.017 165.668 373.937 159.974C380.911 154.962 406.871 151.202 406.871 151.202L404.869 144.441L439.673 131.936V131.911Z" fill="#263238"/>
<path opacity="0.2" d="M428.135 175.196C421.271 176.995 412.119 177.814 404.21 178.297C403.143 163.658 409.666 149.627 409.666 149.627L418.95 146.935L428.124 175.196H428.135Z" fill="black"/>
<path d="M488.349 226.544L489.35 233.343L475.501 236.618L474.5 229.82L488.349 226.544Z" fill="#FFB573"/>
<path d="M489.636 233.591C489.636 233.591 489.526 233.529 489.471 233.554C489.416 233.579 489.383 233.641 489.383 233.715C489.383 233.827 489.471 236.606 490.241 237.412C490.395 237.573 490.571 237.66 490.769 237.648C491.11 237.635 491.253 237.449 491.308 237.288C491.473 236.841 491.165 236.047 490.758 235.291C490.373 234.596 489.9 233.926 489.625 233.591H489.636ZM489.702 234.174C490.439 235.166 491.231 236.655 491.044 237.164C491.022 237.226 490.967 237.313 490.758 237.325C490.648 237.325 490.538 237.276 490.439 237.176C490.373 237.114 490.318 237.027 490.263 236.928C489.889 236.246 489.746 234.894 489.702 234.174Z" fill="#635BFF"/>
<path d="M489.592 233.554C489.592 233.554 489.493 233.541 489.449 233.579C489.394 233.628 488.085 234.757 487.942 235.874C487.898 236.221 487.975 236.519 488.151 236.792C488.393 237.151 488.624 237.139 488.778 237.065C489.427 236.767 489.779 234.583 489.68 233.678C489.68 233.653 489.68 233.628 489.658 233.616C489.647 233.591 489.614 233.566 489.592 233.554ZM488.228 235.923C488.316 235.191 489.042 234.397 489.405 234.038C489.405 235.03 489.053 236.593 488.668 236.779C488.635 236.792 488.536 236.841 488.382 236.606C488.36 236.581 488.349 236.556 488.338 236.519C488.239 236.345 488.206 236.147 488.239 235.923H488.228Z" fill="#635BFF"/>
<path d="M488.591 233.492L485.093 227.09C484.961 226.855 484.994 226.544 485.181 226.346L489.163 221.979C489.581 221.532 490.252 221.619 490.549 222.178C491.77 224.51 493.475 227.934 495.059 230.837C496.907 234.236 498.678 237.052 500.845 241.022C502.154 243.429 500.372 245.6 499.624 244.719C496.225 240.749 494.091 237.077 489.757 234.621C489.284 234.348 488.855 234 488.58 233.492H488.591Z" fill="#263238"/>
<path d="M439.673 131.911C439.673 131.911 450.849 164.328 431.995 176.907C431.995 176.907 431.753 214.374 436.527 218.753C442.335 224.1 484.828 226.817 484.828 226.817L484.454 238.714C484.454 238.714 438.958 242.92 425.186 237.337C409.06 230.812 405.463 144.974 405.463 144.974L439.684 131.898L439.673 131.911Z" fill="#263238"/>
<path opacity="0.2" d="M426.748 151.81L433.535 149.49C433.535 149.49 434.47 156.078 434.459 159.614L431.313 162.665L428.332 161.598C428.332 161.598 427.518 154.552 426.748 151.823V151.81Z" fill="black"/>
<path d="M407.113 144.454L407.993 147.605L405.474 148.473L404.594 145.359L407.113 144.454Z" fill="#263238"/>
<path d="M418.695 140.26L419.641 143.523L409.246 147.158L408.322 144.007L418.695 140.26Z" fill="#263238"/>
<path d="M431.643 135.571L432.589 138.995L420.962 143.064L420.038 139.776L431.643 135.571Z" fill="#263238"/>
<path d="M441.103 136.018L433.942 138.524H433.931L432.974 135.087L440.08 132.519L441.103 136.018Z" fill="#263238"/>
<g opacity="0.2">
<path d="M407.113 144.454L407.993 147.605L405.474 148.473L404.594 145.359L407.113 144.454Z" fill="#F6F9FC"/>
<path d="M418.695 140.26L419.641 143.523L409.246 147.158L408.322 144.007L418.695 140.26Z" fill="#F6F9FC"/>
<path d="M431.643 135.571L432.589 138.995L420.962 143.064L420.038 139.776L431.643 135.571Z" fill="#F6F9FC"/>
<path d="M441.103 136.018L433.942 138.524H433.931L432.974 135.087L440.08 132.519L441.103 136.018Z" fill="#F6F9FC"/>
</g>
<path d="M399.182 233.07C399.237 233.058 399.281 232.995 399.292 232.933C399.292 232.871 399.27 232.797 399.215 232.772C399.127 232.71 396.96 231.408 395.948 231.742C395.739 231.817 395.585 231.941 395.497 232.139C395.332 232.487 395.409 232.71 395.497 232.847C395.761 233.231 396.52 233.343 397.301 233.318C398.027 233.293 398.786 233.169 399.171 233.07H399.182ZM398.709 232.847C397.576 233.058 396.036 233.095 395.739 232.648C395.706 232.586 395.662 232.487 395.761 232.288C395.816 232.177 395.904 232.102 396.036 232.053C396.124 232.028 396.212 232.015 396.311 232.003C397.026 231.978 398.126 232.524 398.698 232.834L398.709 232.847Z" fill="#635BFF"/>
<path d="M399.237 233.033C399.237 233.033 399.303 232.946 399.292 232.884C399.292 232.809 399.083 230.961 398.291 230.254C398.049 230.043 397.774 229.956 397.488 229.993C397.092 230.055 396.982 230.279 396.96 230.465C396.861 231.246 398.357 232.698 399.105 233.045C399.127 233.045 399.149 233.058 399.16 233.058C399.193 233.058 399.215 233.058 399.248 233.02L399.237 233.033ZM398.115 230.514C398.632 230.973 398.874 232.077 398.962 232.611C398.203 232.127 397.18 230.973 397.246 230.514C397.246 230.477 397.268 230.365 397.521 230.328C397.554 230.328 397.576 230.328 397.609 230.328C397.796 230.328 397.961 230.39 398.115 230.527V230.514Z" fill="#635BFF"/>
<path d="M399.777 232.09L406.443 231.916C406.696 231.916 406.916 232.102 406.971 232.375L408.302 238.466C408.445 239.099 408.027 239.707 407.455 239.719C405.046 239.732 401.57 239.67 398.556 239.757C395.025 239.856 391.978 240.154 387.831 240.265C385.323 240.327 384.575 237.499 385.609 237.213C390.361 235.911 394.255 235.675 398.314 232.698C398.754 232.375 399.249 232.139 399.777 232.127V232.09Z" fill="#263238"/>
<path opacity="0.7" d="M439.673 131.911L404.869 144.416C404.869 144.416 398.731 137.63 390.228 130.1C388.611 128.673 386.917 127.222 385.157 125.782C382.682 123.748 380.086 121.751 377.446 119.902C377.446 119.902 387.038 94.5069 399.182 92.249C399.182 92.249 430.565 102.931 439.673 131.911Z" fill="#F6F9FC"/>
<path opacity="0.1" d="M390.228 130.1C388.611 128.673 386.917 127.221 385.157 125.782L385.839 123.462C385.839 123.462 388.765 126.241 390.228 130.1Z" fill="black"/>
<g filter="url(#filter1_d_9_5487)">
<path d="M339.948 156.003L337.55 156.649C336.956 156.81 336.494 157.356 336.395 158.05L335.856 161.822C335.746 162.616 336.131 163.397 336.791 163.695L338.54 164.489C338.54 164.489 343.6 168.608 347.879 165.953L346.031 160.432L342.412 156.735C341.741 156.053 340.817 155.78 339.937 156.016L339.948 156.003Z" fill="#FFB573"/>
</g>
<path d="M383.629 120.907C386.709 122.991 386.973 127.284 386.973 127.284C386.973 127.284 384.553 134.678 383.156 138.362C382.199 140.856 381.22 143.362 380.065 145.855C378.877 148.374 377.733 150.83 375.786 153.56L375.412 154.068L374.961 154.614C374.686 154.962 374.29 155.371 373.894 155.755C373.729 155.929 373.421 156.177 373.168 156.376C372.915 156.574 372.574 156.835 372.464 156.872L371.529 157.418C370.319 158.1 369.186 158.646 368.042 159.167C365.787 160.209 363.543 161.115 361.299 161.996C356.8 163.695 352.323 165.246 347.725 166.549L345.547 159.912C349.672 157.53 353.874 155.272 357.977 152.952C360.034 151.798 362.08 150.644 364.038 149.478C365.006 148.895 365.974 148.287 366.799 147.716L367.393 147.295C367.558 147.195 367.426 147.245 367.415 147.245C367.393 147.245 367.338 147.319 367.371 147.257C367.404 147.195 367.437 147.171 367.547 147.009L367.679 146.823L367.833 146.563C368.724 145.099 369.736 142.866 370.605 140.682C371.474 138.449 372.354 136.129 373.157 133.76C374.752 129.045 376.292 124.12 377.722 119.356C377.722 119.356 380.362 118.699 383.618 120.907H383.629Z" fill="#635BFF"/>
<path opacity="0.7" d="M383.629 120.907C386.709 122.991 386.973 127.284 386.973 127.284C386.973 127.284 384.553 134.678 383.156 138.362C382.199 140.856 381.22 143.362 380.065 145.855C378.877 148.374 377.733 150.83 375.786 153.56L375.412 154.068L374.961 154.614C374.686 154.962 374.29 155.371 373.894 155.755C373.729 155.929 373.421 156.177 373.168 156.376C372.915 156.574 372.574 156.835 372.464 156.872L371.529 157.418C370.319 158.1 369.186 158.646 368.042 159.167C365.787 160.209 363.543 161.115 361.299 161.996C356.8 163.695 352.323 165.246 347.725 166.549L345.547 159.912C349.672 157.53 353.874 155.272 357.977 152.952C360.034 151.798 362.08 150.644 364.038 149.478C365.006 148.895 365.974 148.287 366.799 147.716L367.393 147.295C367.558 147.195 367.426 147.245 367.415 147.245C367.393 147.245 367.338 147.319 367.371 147.257C367.404 147.195 367.437 147.171 367.547 147.009L367.679 146.823L367.833 146.563C368.724 145.099 369.736 142.866 370.605 140.682C371.474 138.449 372.354 136.129 373.157 133.76C374.752 129.045 376.292 124.12 377.722 119.356C377.722 119.356 380.362 118.699 383.618 120.907H383.629Z" fill="#F6F9FC"/>
<path d="M182.461 450.101H368.229L466.547 360.542L470.859 366.559H495.07L519.732 238.491L495.51 238.541L495.521 238.491L379.317 238.752L393.188 258.118L182.461 450.101Z" fill="#2FB4F7"/>
<path opacity="0.2" d="M182.461 450.101H344.018L456.977 347.193L470.859 366.559L495.521 238.491L379.317 238.752L393.188 258.118L182.461 450.101Z" fill="#F6F9FC"/>
<path d="M178.677 442.719H312.063C311.997 442.086 311.964 441.441 311.964 440.784C311.964 431.12 318.905 423.291 327.474 423.291C327.661 423.291 327.848 423.316 328.035 423.329C329.982 417.448 334.987 413.255 340.883 413.255C348.462 413.255 354.6 420.177 354.6 428.725C354.6 428.725 354.6 428.75 354.6 428.762C361.321 429.11 366.7 435.164 367.052 442.732H367.679C371.474 442.732 374.576 446.23 374.576 450.51C374.576 454.79 371.474 458.289 367.679 458.289H178.677C174.882 458.289 171.78 454.79 171.78 450.51C171.78 446.23 174.882 442.732 178.677 442.732V442.719Z" fill="#635BFF"/>
<path opacity="0.7" d="M178.677 442.719H312.063C311.997 442.086 311.964 441.441 311.964 440.784C311.964 431.12 318.905 423.291 327.474 423.291C327.661 423.291 327.848 423.316 328.035 423.329C329.982 417.448 334.987 413.255 340.883 413.255C348.462 413.255 354.6 420.177 354.6 428.725C354.6 428.725 354.6 428.75 354.6 428.762C361.321 429.11 366.7 435.164 367.052 442.732H367.679C371.474 442.732 374.576 446.23 374.576 450.51C374.576 454.79 371.474 458.289 367.679 458.289H178.677C174.882 458.289 171.78 454.79 171.78 450.51C171.78 446.23 174.882 442.732 178.677 442.732V442.719Z" fill="#F6F9FC"/>
</g>
<defs>
<filter id="filter0_d_9_5487" x="0" y="0" width="704" height="482" filterUnits="userSpaceOnUse" color-interpolation-filters="sRGB">
<feFlood flood-opacity="0" result="BackgroundImageFix"/>
<feColorMatrix in="SourceAlpha" type="matrix" values="0 0 0 0 0 0 0 0 0 0 0 0 0 0 0 0 0 0 127 0" result="hardAlpha"/>
<feOffset dx="4" dy="8"/>
<feGaussianBlur stdDeviation="8"/>
<feComposite in2="hardAlpha" operator="out"/>
<feColorMatrix type="matrix" values="0 0 0 0 0.388235 0 0 0 0 0.356863 0 0 0 0 1 0 0 0 0.1 0"/>
<feBlend mode="normal" in2="BackgroundImageFix" result="effect1_dropShadow_9_5487"/>
<feBlend mode="normal" in="SourceGraphic" in2="effect1_dropShadow_9_5487" result="shape"/>
</filter>
<filter id="filter1_d_9_5487" x="333.837" y="153.933" width="16.0415" height="14.9121" filterUnits="userSpaceOnUse" color-interpolation-filters="sRGB">
<feFlood flood-opacity="0" result="BackgroundImageFix"/>
<feColorMatrix in="SourceAlpha" type="matrix" values="0 0 0 0 0 0 0 0 0 0 0 0 0 0 0 0 0 0 127 0" result="hardAlpha"/>
<feOffset/>
<feGaussianBlur stdDeviation="1"/>
<feComposite in2="hardAlpha" operator="out"/>
<feColorMatrix type="matrix" values="0 0 0 0 0 0 0 0 0 0 0 0 0 0 0 0 0 0 0.25 0"/>
<feBlend mode="normal" in2="BackgroundImageFix" result="effect1_dropShadow_9_5487"/>
<feBlend mode="normal" in="SourceGraphic" in2="effect1_dropShadow_9_5487" result="shape"/>
</filter>
<linearGradient id="paint0_linear_9_5487" x1="348" y1="8" x2="348" y2="458" gradientUnits="userSpaceOnUse">
<stop offset="0.5" stop-color="#DEEAF6"/>
<stop offset="1" stop-color="white"/>
</linearGradient>
<clipPath id="clip0_9_5487">
<rect width="550" height="450" fill="white" transform="translate(73 8)"/>
</clipPath>
</defs>
</svg>
