<svg width="1440" height="400" viewBox="0 0 1440 400" fill="none" xmlns="http://www.w3.org/2000/svg">
<rect width="1440" height="400" rx="30" fill="url(#paint0_linear_15_5489)"/>
<g clip-path="url(#clip0_15_5489)">
<g opacity="0.1">
<path d="M973.179 211.573H922.714V401.593H973.179V211.573Z" fill="white"/>
<path d="M1246.64 274.767H1196.17V400.545H1246.64V274.767Z" fill="white"/>
<path d="M1323.71 175.894H1273.25V400.545H1323.71V175.894Z" fill="white"/>
<path d="M1161.14 184.049H1110.67V400.545H1161.14V184.049Z" fill="white"/>
<path d="M1059.89 122.761H1009.42V400.545H1059.89V122.761Z" fill="white"/>
</g>
<path d="M1186.86 401.85H1265.06C1266.56 401.85 1267.74 400.583 1267.64 399.097L1263.73 343.753C1263.63 342.41 1262.51 341.362 1261.17 341.362L1189.38 341.257C1188 341.257 1186.86 342.343 1186.81 343.715L1184.3 399.164C1184.23 400.631 1185.41 401.86 1186.87 401.86L1186.86 401.85Z" fill="#2FB4F7"/>
<path d="M1197.65 401.85C1197.77 401.85 1197.87 388.312 1197.87 371.611C1197.87 354.91 1197.77 341.362 1197.65 341.362C1197.53 341.362 1197.43 354.9 1197.43 371.611C1197.43 388.322 1197.53 401.85 1197.65 401.85Z" fill="#455A64"/>
<path d="M1198.58 342.791C1198.58 342.791 1198.62 342.867 1198.7 343.01C1198.79 343.172 1198.93 343.382 1199.08 343.639C1199.44 344.211 1199.94 345.001 1200.58 346.011C1201.92 348.06 1203.84 351.032 1206.45 354.548C1209.08 358.035 1212.39 362.122 1216.84 365.866C1219.05 367.743 1221.56 369.486 1224.34 370.992C1227.14 372.459 1230.28 373.631 1233.65 373.907C1237.03 374.193 1240.33 373.431 1243.26 372.24C1246.19 371.039 1248.82 369.42 1251.07 367.59C1255.58 363.903 1258.58 359.435 1260.4 355.462C1262.24 351.461 1262.9 347.917 1263.17 345.497C1263.22 344.887 1263.28 344.344 1263.31 343.877C1263.31 343.41 1263.32 343.02 1263.33 342.686C1263.33 342.382 1263.33 342.143 1263.33 341.953C1263.33 341.791 1263.33 341.705 1263.31 341.705C1263.31 341.705 1263.29 341.791 1263.28 341.953C1263.27 342.143 1263.25 342.382 1263.23 342.686C1263.21 343.02 1263.2 343.41 1263.18 343.877C1263.14 344.344 1263.06 344.878 1263 345.487C1262.67 347.888 1261.98 351.394 1260.12 355.338C1258.27 359.254 1255.29 363.656 1250.81 367.276C1248.57 369.077 1245.98 370.668 1243.08 371.84C1240.2 373.002 1236.97 373.735 1233.68 373.469C1230.38 373.202 1227.3 372.059 1224.53 370.611C1221.78 369.124 1219.29 367.4 1217.08 365.552C1212.66 361.855 1209.35 357.806 1206.69 354.357C1204.06 350.87 1202.09 347.936 1200.72 345.916C1200.05 344.925 1199.52 344.144 1199.14 343.582C1198.96 343.334 1198.82 343.134 1198.72 342.982C1198.62 342.848 1198.56 342.782 1198.56 342.782L1198.58 342.791Z" fill="#455A64"/>
<path d="M1230.94 373.955C1230.94 375.936 1232.55 377.546 1234.53 377.546C1236.51 377.546 1238.12 375.936 1238.12 373.955C1238.12 371.973 1236.51 370.363 1234.53 370.363C1232.55 370.363 1230.94 371.973 1230.94 373.955Z" fill="#455A64"/>
<path d="M1209.94 330.082C1211.44 328.691 1213.55 328.176 1215.59 327.976C1220.5 327.491 1225.91 328.51 1230.19 330.949C1234.48 333.388 1237.64 337.446 1239.74 341.915L1236.92 344.868C1235.77 340.219 1233.2 336.179 1229.2 333.54C1225.21 330.901 1220.97 329.691 1216.25 330.453C1215.16 330.625 1213.63 331.035 1212.72 331.663C1210.87 332.95 1210.6 334.455 1210.92 336.37C1211.41 339.199 1212.11 340.428 1213.32 341.953C1211.24 342 1210.76 342.01 1208.68 342.058C1208.16 340.009 1207.63 337.932 1207.67 335.827C1207.71 333.712 1208.39 331.53 1209.93 330.091L1209.94 330.082Z" fill="#2FB4F7"/>
<path d="M1131.43 372.812H1101.78V384.492H1131.43V372.812Z" fill="#FAFAFA"/>
<path d="M1193.65 370.801H1100.54V373.25H1193.65V370.801Z" fill="#455A64"/>
<path d="M1193.64 383.968H1100.97V386.416H1193.64V383.968Z" fill="#455A64"/>
<path d="M1131.42 371.382L1131.56 385.949H1193.65V371.382H1131.42Z" fill="#455A64"/>
<path d="M1146.51 378.652C1146.51 380.652 1145 382.272 1143.15 382.272C1141.31 382.272 1139.8 380.652 1139.8 378.652C1139.8 376.651 1141.31 375.031 1143.15 375.031C1145 375.031 1146.51 376.651 1146.51 378.652Z" fill="#263238"/>
<path d="M1143.15 382.796C1141.02 382.796 1139.28 380.938 1139.28 378.652C1139.28 376.365 1141.02 374.507 1143.15 374.507C1145.29 374.507 1147.03 376.365 1147.03 378.652C1147.03 380.938 1145.29 382.796 1143.15 382.796ZM1143.15 375.546C1141.59 375.546 1140.31 376.937 1140.31 378.652C1140.31 380.367 1141.58 381.757 1143.15 381.757C1144.73 381.757 1145.99 380.367 1145.99 378.652C1145.99 376.937 1144.72 375.546 1143.15 375.546Z" fill="#E0E0E0"/>
<path d="M1129.2 381.624C1129.2 381.777 1123.11 381.891 1115.59 381.891C1108.07 381.891 1101.99 381.767 1101.99 381.624C1101.99 381.481 1108.07 381.357 1115.59 381.357C1123.11 381.357 1129.2 381.481 1129.2 381.624Z" fill="#263238"/>
<path d="M1129.2 379.594C1129.2 379.747 1123.11 379.861 1115.59 379.861C1108.07 379.861 1101.99 379.737 1101.99 379.594C1101.99 379.451 1108.07 379.328 1115.59 379.328C1123.11 379.328 1129.2 379.451 1129.2 379.594Z" fill="#263238"/>
<path d="M1129.2 377.556C1129.2 377.708 1123.11 377.823 1115.59 377.823C1108.07 377.823 1101.99 377.699 1101.99 377.556C1101.99 377.413 1108.07 377.289 1115.59 377.289C1123.11 377.289 1129.2 377.413 1129.2 377.556Z" fill="#263238"/>
<path d="M1129.2 375.527C1129.2 375.679 1123.11 375.793 1115.59 375.793C1108.07 375.793 1101.99 375.669 1101.99 375.527C1101.99 375.384 1108.07 375.26 1115.59 375.26C1123.11 375.26 1129.2 375.384 1129.2 375.527Z" fill="#263238"/>
<path d="M1186.76 374.479H1158.78V382.272H1186.76V374.479Z" fill="white"/>
<path d="M1163.14 381.481C1162.99 381.481 1162.87 380.09 1162.87 378.375C1162.87 376.661 1163 375.27 1163.14 375.27C1163.28 375.27 1163.41 376.661 1163.41 378.375C1163.41 380.09 1163.28 381.481 1163.14 381.481Z" fill="#E0E0E0"/>
<path d="M1166.84 381.481C1166.69 381.481 1166.57 380.09 1166.57 378.375C1166.57 376.661 1166.7 375.27 1166.84 375.27C1166.98 375.27 1167.1 376.661 1167.1 378.375C1167.1 380.09 1166.98 381.481 1166.84 381.481Z" fill="#E0E0E0"/>
<path d="M1170.54 381.481C1170.39 381.481 1170.28 380.09 1170.28 378.375C1170.28 376.661 1170.4 375.27 1170.54 375.27C1170.69 375.27 1170.81 376.661 1170.81 378.375C1170.81 380.09 1170.69 381.481 1170.54 381.481Z" fill="#E0E0E0"/>
<path d="M1174.24 381.481C1174.09 381.481 1173.97 380.09 1173.97 378.375C1173.97 376.661 1174.1 375.27 1174.24 375.27C1174.38 375.27 1174.51 376.661 1174.51 378.375C1174.51 380.09 1174.38 381.481 1174.24 381.481Z" fill="#E0E0E0"/>
<path d="M1177.94 381.481C1177.79 381.481 1177.67 380.09 1177.67 378.375C1177.67 376.661 1177.79 375.27 1177.94 375.27C1178.08 375.27 1178.2 376.661 1178.2 378.375C1178.2 380.09 1178.08 381.481 1177.94 381.481Z" fill="#E0E0E0"/>
<path d="M1181.63 381.481C1181.48 381.481 1181.37 380.09 1181.37 378.375C1181.37 376.661 1181.49 375.27 1181.63 375.27C1181.78 375.27 1181.9 376.661 1181.9 378.375C1181.9 380.09 1181.78 381.481 1181.63 381.481Z" fill="#E0E0E0"/>
<path d="M1135.36 387.988H1105.71V399.669H1135.36V387.988Z" fill="#FAFAFA"/>
<path d="M1197.59 385.987H1104.48V388.436H1197.59V385.987Z" fill="#635BFF"/>
<path d="M1197.58 399.154H1104.91V401.602H1197.58V399.154Z" fill="#635BFF"/>
<path d="M1135.36 386.568L1135.5 401.126H1197.58V386.568H1135.36Z" fill="#635BFF"/>
<path d="M1150.45 393.838C1150.45 395.838 1148.94 397.458 1147.09 397.458C1145.25 397.458 1143.74 395.838 1143.74 393.838C1143.74 391.837 1145.25 390.217 1147.09 390.217C1148.94 390.217 1150.45 391.837 1150.45 393.838Z" fill="#263238"/>
<path d="M1147.09 397.982C1144.95 397.982 1143.21 396.124 1143.21 393.838C1143.21 391.551 1144.95 389.693 1147.09 389.693C1149.22 389.693 1150.96 391.551 1150.96 393.838C1150.96 396.124 1149.22 397.982 1147.09 397.982ZM1147.09 390.732C1145.52 390.732 1144.25 392.123 1144.25 393.838C1144.25 395.553 1145.52 396.944 1147.09 396.944C1148.65 396.944 1149.93 395.553 1149.93 393.838C1149.93 392.123 1148.65 390.732 1147.09 390.732Z" fill="#E0E0E0"/>
<path d="M1133.13 396.81C1133.13 396.963 1127.04 397.077 1119.52 397.077C1112.01 397.077 1105.92 396.953 1105.92 396.81C1105.92 396.667 1112.01 396.543 1119.52 396.543C1127.04 396.543 1133.13 396.667 1133.13 396.81Z" fill="#263238"/>
<path d="M1133.13 394.771C1133.13 394.924 1127.04 395.038 1119.52 395.038C1112.01 395.038 1105.92 394.914 1105.92 394.771C1105.92 394.628 1112.01 394.504 1119.52 394.504C1127.04 394.504 1133.13 394.628 1133.13 394.771Z" fill="#263238"/>
<path d="M1133.13 392.742C1133.13 392.894 1127.04 393.009 1119.52 393.009C1112.01 393.009 1105.92 392.885 1105.92 392.742C1105.92 392.599 1112.01 392.475 1119.52 392.475C1127.04 392.475 1133.13 392.599 1133.13 392.742Z" fill="#263238"/>
<path d="M1133.13 390.703C1133.13 390.856 1127.04 390.97 1119.52 390.97C1112.01 390.97 1105.92 390.846 1105.92 390.703C1105.92 390.56 1112.01 390.437 1119.52 390.437C1127.04 390.437 1133.13 390.56 1133.13 390.703Z" fill="#263238"/>
<path d="M1190.7 389.665H1162.72V397.458H1190.7V389.665Z" fill="white"/>
<path d="M1167.08 396.668C1166.92 396.668 1166.81 395.277 1166.81 393.562C1166.81 391.847 1166.93 390.456 1167.08 390.456C1167.22 390.456 1167.34 391.847 1167.34 393.562C1167.34 395.277 1167.22 396.668 1167.08 396.668Z" fill="#E0E0E0"/>
<path d="M1170.78 396.668C1170.63 396.668 1170.51 395.277 1170.51 393.562C1170.51 391.847 1170.64 390.456 1170.78 390.456C1170.92 390.456 1171.05 391.847 1171.05 393.562C1171.05 395.277 1170.92 396.668 1170.78 396.668Z" fill="#E0E0E0"/>
<path d="M1174.48 396.668C1174.32 396.668 1174.21 395.277 1174.21 393.562C1174.21 391.847 1174.33 390.456 1174.48 390.456C1174.62 390.456 1174.74 391.847 1174.74 393.562C1174.74 395.277 1174.62 396.668 1174.48 396.668Z" fill="#E0E0E0"/>
<path d="M1178.17 396.668C1178.02 396.668 1177.91 395.277 1177.91 393.562C1177.91 391.847 1178.03 390.456 1178.17 390.456C1178.32 390.456 1178.44 391.847 1178.44 393.562C1178.44 395.277 1178.32 396.668 1178.17 396.668Z" fill="#E0E0E0"/>
<path d="M1181.88 396.668C1181.73 396.668 1181.61 395.277 1181.61 393.562C1181.61 391.847 1181.74 390.456 1181.88 390.456C1182.02 390.456 1182.15 391.847 1182.15 393.562C1182.15 395.277 1182.02 396.668 1181.88 396.668Z" fill="#E0E0E0"/>
<path d="M1185.58 396.668C1185.42 396.668 1185.31 395.277 1185.31 393.562C1185.31 391.847 1185.43 390.456 1185.58 390.456C1185.72 390.456 1185.84 391.847 1185.84 393.562C1185.84 395.277 1185.72 396.668 1185.58 396.668Z" fill="#E0E0E0"/>
<path d="M1074.8 107.937L1067.14 106.403C1061.98 109.299 1055.88 110.699 1049.47 110.042C1034.34 108.48 1022.67 95.4178 1022.79 80.2124C1022.92 62.6443 1038.11 48.9442 1055.71 50.7734C1070.66 52.3264 1082.25 65.0928 1082.38 80.1172C1082.44 87.5769 1079.79 94.3508 1075.38 99.5812H1075.39L1074.8 107.937Z" fill="#2FB4F7"/>
<path d="M1074.8 107.937C1074.8 107.937 1074.8 107.737 1074.82 107.375C1074.84 106.984 1074.87 106.451 1074.91 105.755C1074.99 104.326 1075.12 102.249 1075.27 99.572L1075.44 99.6673C1075.44 99.6673 1075.44 99.6673 1075.43 99.6768C1075.39 99.715 1075.32 99.6959 1075.28 99.6483C1075.25 99.6102 1075.25 99.553 1075.28 99.5149C1077.62 96.6853 1080.31 92.4267 1081.52 86.6818C1082.13 83.8331 1082.34 80.6415 1082 77.288C1081.64 73.9344 1080.64 70.4284 1078.93 67.0653C1077.21 63.7117 1074.73 60.5201 1071.57 57.862C1068.43 55.2135 1064.61 53.0413 1060.32 51.9266C1056.05 50.7738 1051.4 50.5833 1046.81 51.4598C1042.22 52.3172 1037.77 54.4323 1034 57.4905C1032.05 58.9958 1030.43 60.8345 1028.92 62.7209C1028.25 63.7117 1027.55 64.693 1026.95 65.7315L1026.12 67.313L1025.71 68.1038L1025.39 68.9231C1023.55 73.2675 1022.85 77.9358 1023.11 82.385C1023.35 86.8533 1024.76 91.0643 1026.77 94.6941C1028.79 98.3335 1031.47 101.392 1034.46 103.745C1037.46 106.089 1040.74 107.737 1043.97 108.728C1044.79 108.937 1045.6 109.147 1046.39 109.347C1047.19 109.528 1047.99 109.614 1048.78 109.747C1050.34 109.995 1051.87 110.033 1053.33 110.014C1059.21 109.89 1063.89 108.061 1067.07 106.308C1067.09 106.298 1067.12 106.289 1067.14 106.298C1069.58 106.813 1071.48 107.213 1072.79 107.489C1073.43 107.623 1073.92 107.737 1074.28 107.813C1074.61 107.889 1074.79 107.937 1074.79 107.937C1074.79 107.937 1074.63 107.918 1074.31 107.861C1073.96 107.794 1073.47 107.708 1072.84 107.594C1071.51 107.346 1069.58 106.975 1067.11 106.508H1067.18C1064 108.299 1059.29 110.195 1053.35 110.357C1051.87 110.385 1050.32 110.357 1048.74 110.119C1047.95 109.985 1047.14 109.909 1046.33 109.728C1045.52 109.528 1044.7 109.318 1043.87 109.109C1040.58 108.108 1037.25 106.46 1034.2 104.088C1031.16 101.716 1028.43 98.6098 1026.36 94.9228C1024.31 91.2358 1022.87 86.9581 1022.61 82.4136C1022.34 77.8882 1023.04 73.1341 1024.91 68.704L1025.24 67.8656L1025.66 67.0653C1025.94 66.5318 1026.23 65.9983 1026.51 65.4552C1027.11 64.4072 1027.83 63.4069 1028.51 62.3875C1030.04 60.4725 1031.69 58.5956 1033.68 57.0618C1037.52 53.9464 1042.04 51.7932 1046.72 50.9263C1051.39 50.0307 1056.13 50.2403 1060.47 51.4121C1064.83 52.5554 1068.71 54.7752 1071.9 57.4714C1075.09 60.1867 1077.6 63.4354 1079.34 66.8462C1081.06 70.2664 1082.05 73.8296 1082.41 77.2308C1082.73 80.632 1082.51 83.8617 1081.86 86.7389C1080.6 92.541 1077.84 96.8187 1075.45 99.6387L1075.31 99.4768L1075.32 99.4672C1075.37 99.4291 1075.43 99.4482 1075.47 99.4958C1075.49 99.5149 1075.49 99.5435 1075.49 99.5625C1075.27 102.268 1075.11 104.364 1074.99 105.812C1074.94 106.498 1074.89 107.022 1074.86 107.403C1074.83 107.756 1074.8 107.927 1074.8 107.927V107.937Z" fill="#263238"/>
<path d="M1039.36 82.3276L1043.1 78.3357L1050.78 84.7094L1064.92 70.1328L1068.64 73.877L1050.47 92.1787L1039.36 82.3276Z" fill="white"/>
<path d="M1281.76 57.8618H1257.51L1186.73 100.458C1187 100.858 1195.35 106.898 1206.26 114.701L1103.77 303.415L1017.99 265.535L942.043 402.041H983.543L1035.88 306.445L1114.59 342.906L1147.95 346.888L1238.28 137.48C1249.63 145.531 1258.35 151.686 1258.35 151.686H1282.6C1282.6 151.686 1275.53 92.3216 1275.53 91.8453C1275.53 91.3689 1281.76 57.8618 1281.76 57.8618Z" fill="#635BFF"/>
<path opacity="0.3" d="M1281.76 57.8618H1257.51L1186.73 100.458C1187 100.858 1195.35 106.898 1206.26 114.701L1103.77 303.415L1017.99 265.535L942.043 402.041H983.543L1035.88 306.445L1114.59 342.906L1147.95 346.888L1238.28 137.48C1249.63 145.531 1258.35 151.686 1258.35 151.686H1282.6C1282.6 151.686 1275.53 92.3216 1275.53 91.8453C1275.53 91.3689 1281.76 57.8618 1281.76 57.8618Z" fill="black"/>
<path d="M966.604 402.031L1042.86 264.354L1128.33 303.406L1238.56 100.458L1271.38 117.693L1147.96 346.879L1060.44 306.436L1008.1 402.031H966.604Z" fill="#635BFF"/>
<path d="M1211 100.458C1211.78 101.63 1282.62 151.686 1282.62 151.686L1281.77 57.8618L1211 100.458Z" fill="#635BFF"/>
<path d="M1211 100.458C1211 100.591 1205.56 100.705 1198.87 100.705C1192.17 100.705 1186.74 100.591 1186.74 100.458C1186.74 100.324 1192.17 100.21 1198.87 100.21C1205.56 100.21 1211 100.324 1211 100.458Z" fill="#263238"/>
<path d="M1229.94 115.091C1229.94 115.225 1224.51 115.339 1217.81 115.339C1211.11 115.339 1205.68 115.225 1205.68 115.091C1205.68 114.958 1211.11 114.844 1217.81 114.844C1224.51 114.844 1229.94 114.958 1229.94 115.091Z" fill="#263238"/>
<path d="M1047.78 200.064C1047.78 200.064 1046.32 200.703 1046.08 198.74C1045.85 196.777 1049.95 192.681 1051.25 191.385C1052.56 190.089 1054.43 190.366 1056.09 190.737C1057.75 191.109 1064.55 191.795 1066.81 193.243C1069.07 194.691 1072.52 201.96 1073.24 202.303C1073.97 202.646 1095.17 203.751 1095.17 203.751L1094.26 221.138C1094.26 221.138 1073.44 217.175 1069.32 214.593C1065.19 212.011 1065.73 210.982 1064.56 208.581C1063.39 206.171 1062.13 203.618 1062.13 203.618L1060.18 203.294L1057.05 205.018C1057.05 205.018 1056.68 209.429 1053.6 209.315L1052.08 208.515C1052.08 208.515 1051.07 209.687 1049.92 207.876C1048.77 206.066 1048.99 205.733 1048.99 205.733C1048.99 205.733 1047.78 207.229 1046.46 205.371C1045.16 203.513 1047.78 200.064 1047.78 200.064H1047.78Z" fill="#AE7461"/>
<path d="M1070.64 207.448C1070.64 207.448 1070.56 207.486 1070.41 207.524C1070.26 207.563 1070.02 207.591 1069.72 207.591C1069.12 207.591 1068.19 207.448 1067.22 206.886C1066.25 206.334 1065.23 205.343 1064.57 203.952C1063.89 202.57 1063.57 200.874 1063.48 199.083L1063.81 199.283C1062.42 199.931 1060.77 200.341 1059.06 200.408C1057.85 200.455 1056.66 200.322 1055.56 200.036C1055.03 199.884 1054.42 199.798 1053.96 199.293C1053.71 199.055 1053.65 198.55 1053.9 198.274C1054.13 197.988 1054.42 197.892 1054.65 197.788C1056.56 197.016 1058.32 196.416 1059.81 195.958C1061.29 195.501 1062.51 195.196 1063.36 195.006C1064.21 194.815 1064.69 194.739 1064.7 194.768C1064.7 194.806 1064.25 194.939 1063.41 195.187C1062.58 195.434 1061.38 195.796 1059.91 196.292C1058.45 196.787 1056.71 197.416 1054.83 198.207C1054.6 198.302 1054.38 198.407 1054.27 198.55C1054.18 198.683 1054.18 198.836 1054.31 198.988C1054.59 199.312 1055.14 199.426 1055.66 199.569C1056.72 199.826 1057.86 199.96 1059.03 199.912C1060.68 199.855 1062.26 199.464 1063.6 198.855L1063.92 198.712L1063.94 199.064C1064.02 200.827 1064.31 202.466 1064.93 203.78C1065.53 205.114 1066.46 206.067 1067.36 206.629C1068.27 207.201 1069.13 207.391 1069.71 207.439C1070.3 207.477 1070.61 207.42 1070.62 207.458L1070.64 207.448Z" fill="#6F4439"/>
<path d="M1059.89 195.52C1059.93 195.568 1059.18 195.977 1057.89 195.911C1057.26 195.911 1056.52 195.796 1055.73 195.853C1054.93 195.891 1054.18 196.225 1053.56 196.949C1052.27 198.388 1050.73 199.34 1049.57 199.826C1048.39 200.322 1047.61 200.417 1047.6 200.369C1047.58 200.293 1048.33 200.074 1049.42 199.512C1050.52 198.95 1051.95 198.016 1053.21 196.606C1053.54 196.263 1053.91 195.911 1054.37 195.71C1054.82 195.501 1055.28 195.425 1055.71 195.406C1056.58 195.377 1057.31 195.52 1057.92 195.577C1059.15 195.73 1059.87 195.463 1059.9 195.539L1059.89 195.52Z" fill="#6F4439"/>
<path d="M1055.53 200.159C1055.65 200.197 1054.79 202.151 1052.83 203.818C1050.88 205.504 1048.81 206.057 1048.8 205.933C1048.74 205.79 1050.64 205.056 1052.5 203.437C1054.38 201.846 1055.4 200.074 1055.53 200.15V200.159Z" fill="#6F4439"/>
<path d="M1056.29 202.827C1056.42 202.837 1056.14 204.552 1054.89 206.228C1053.66 207.924 1052.12 208.705 1052.07 208.591C1051.99 208.467 1053.34 207.543 1054.49 205.933C1055.67 204.342 1056.15 202.779 1056.29 202.818V202.827Z" fill="#6F4439"/>
<path d="M1120.36 166.176L1101.38 200.436L1071.92 199.931L1069.7 217.623L1100.1 225.073L1112.62 211.326L1120.36 166.176Z" fill="white"/>
<path d="M1103.75 206.247C1103.6 206.257 1103.41 204.856 1102.76 203.265C1102.12 201.665 1101.26 200.531 1101.38 200.436C1101.46 200.34 1102.54 201.388 1103.21 203.075C1103.91 204.751 1103.87 206.247 1103.74 206.247H1103.75Z" fill="#263238"/>
<path d="M1127.58 105.555C1125.18 105.869 1122.67 104.154 1122.12 101.791C1121.56 99.4382 1123.02 96.7706 1125.31 95.9798C1123.78 94.4745 1123.37 91.9594 1124.31 90.0444C1125.26 88.1199 1127.51 86.929 1129.63 87.2244C1129.68 85.1093 1130.91 83.061 1132.75 82.013C1134.59 80.965 1136.98 80.965 1138.82 82.013C1141.11 79.9647 1144.89 79.8217 1147.34 81.6891C1149.38 81.2699 1151.64 82.3274 1152.64 84.1566C1153.64 85.9954 1153.3 88.4629 1151.83 89.9587" fill="#263238"/>
<path d="M1148.5 86.5474L1147.41 86.5664C1136.48 86.776 1127.55 95.3505 1126.88 106.259C1126.26 116.406 1125.7 127.629 1125.88 133.069C1126.24 144.32 1137.53 145.854 1137.53 145.854L1136.84 159.402L1138.18 169.729L1164.15 158.03L1165.62 108.936C1166.4 97.2273 1160.23 87.0142 1148.52 86.5569L1148.5 86.5474Z" fill="#FFB573"/>
<path d="M1137.43 145.835C1137.43 145.835 1144.62 146.13 1152.09 141.233C1152.09 141.233 1148.6 149.951 1137.35 149.15L1137.43 145.835Z" fill="#BC8F5E"/>
<path d="M1130.53 117.73C1130.52 118.578 1131.22 119.292 1132.11 119.321C1133 119.349 1133.73 118.692 1133.74 117.835C1133.75 116.987 1133.04 116.272 1132.16 116.244C1131.27 116.215 1130.54 116.872 1130.53 117.73Z" fill="#263238"/>
<path d="M1129.39 111.718C1129.59 111.928 1130.79 110.994 1132.53 110.966C1134.25 110.908 1135.54 111.775 1135.73 111.566C1135.82 111.47 1135.61 111.099 1135.05 110.708C1134.5 110.318 1133.57 109.946 1132.49 109.975C1131.41 110.003 1130.52 110.413 1130 110.832C1129.48 111.251 1129.31 111.632 1129.4 111.728L1129.39 111.718Z" fill="#263238"/>
<path d="M1145.18 117.377C1145.17 118.225 1145.88 118.94 1146.76 118.968C1147.65 118.997 1148.38 118.34 1148.39 117.482C1148.4 116.634 1147.7 115.92 1146.81 115.891C1145.92 115.862 1145.19 116.52 1145.18 117.377Z" fill="#263238"/>
<path d="M1146.41 111.709C1146.61 111.918 1147.82 110.994 1149.55 110.966C1151.27 110.908 1152.56 111.775 1152.75 111.566C1152.83 111.47 1152.63 111.099 1152.07 110.708C1151.52 110.318 1150.58 109.946 1149.51 109.975C1148.43 110.003 1147.54 110.413 1147.02 110.832C1146.5 111.251 1146.33 111.632 1146.42 111.728L1146.41 111.709Z" fill="#263238"/>
<path d="M1140.38 124.666C1140.38 124.571 1139.3 124.399 1137.56 124.209C1137.12 124.171 1136.69 124.094 1136.62 123.789C1136.5 123.475 1136.68 122.989 1136.88 122.475C1137.27 121.398 1137.69 120.264 1138.12 119.083C1139.85 114.262 1141.08 110.299 1140.88 110.232C1140.69 110.166 1139.13 114.024 1137.42 118.845C1137.01 120.036 1136.61 121.169 1136.24 122.256C1136.07 122.761 1135.8 123.332 1136.04 123.99C1136.16 124.313 1136.49 124.552 1136.78 124.618C1137.06 124.695 1137.31 124.704 1137.53 124.704C1139.28 124.761 1140.37 124.752 1140.38 124.656V124.666Z" fill="#263238"/>
<path d="M1144.78 105.087C1145.02 105.525 1146.49 105.021 1148.32 104.925C1150.14 104.792 1151.68 105.106 1151.84 104.649C1151.91 104.43 1151.57 104.039 1150.92 103.706C1150.26 103.363 1149.26 103.115 1148.16 103.182C1147.07 103.248 1146.12 103.63 1145.53 104.039C1144.93 104.458 1144.68 104.878 1144.78 105.087Z" fill="#263238"/>
<path d="M1129.18 104.592C1129.55 104.973 1130.97 104.544 1132.68 104.487C1134.4 104.382 1135.85 104.687 1136.19 104.268C1136.33 104.068 1136.09 103.677 1135.45 103.315C1134.82 102.953 1133.77 102.677 1132.59 102.725C1131.4 102.782 1130.39 103.153 1129.8 103.573C1129.2 103.992 1129.01 104.401 1129.18 104.582V104.592Z" fill="#263238"/>
<path d="M1127.85 101.076C1127.85 101.076 1130.68 93.9691 1134.05 92.2542C1138.13 90.1868 1139.99 94.6646 1143.89 93.4927C1147.78 92.3209 1151.68 90.3297 1155.75 93.2831C1160.2 96.5128 1158.19 98.8851 1158.56 103.877C1160.05 124.104 1163.85 129.763 1164.72 120.207C1164.82 119.159 1167.7 118.273 1168.05 113.852C1168.49 108.117 1168.58 101.162 1167.22 97.1226C1166.07 93.7214 1164.07 91.3872 1160.52 88.853C1154.91 84.842 1147.32 84.8992 1142.17 85.5185C1137.03 86.1377 1127.2 92.2637 1127.84 101.076H1127.85Z" fill="#263238"/>
<path d="M1164.01 119.911C1164.04 118.168 1165.51 116.768 1167.25 116.901C1169.35 117.063 1171.7 118.206 1171.66 122.551C1171.56 130.248 1163.84 128.562 1163.83 128.343C1163.83 128.191 1163.93 123.132 1164.01 119.911Z" fill="#FFB573"/>
<path d="M1163.57 105.011C1162.58 105.716 1161.54 106.441 1160.34 106.583C1159.14 106.726 1157.75 106.059 1157.52 104.869C1157.42 104.335 1157.54 103.706 1157.18 103.306C1156.75 102.82 1155.98 102.992 1155.33 103.068C1153.1 103.344 1150.43 100.924 1149.82 98.7616C1149.27 99.6286 1148.02 99.9144 1147.15 99.3714C1146.27 98.8283 1145.95 98.5234 1145.26 97.7613C1144.56 96.9991 1143.6 96.3227 1142.59 96.4941C1142.02 96.5894 1141.5 96.9324 1140.92 96.8943C1139.91 96.8276 1139.4 95.6462 1139.22 94.6459C1139.05 93.6455 1138.9 92.4737 1138.04 91.9497C1137.24 91.4638 1136.21 91.7687 1135.28 91.9306C1134.36 92.0926 1133.15 91.8925 1132.89 90.9874C1132.76 90.5111 1132.95 90.0061 1133.21 89.5869C1134.37 87.6815 1136.97 86.786 1139.06 87.5862C1139.76 85.0329 1142.1 83.0037 1144.73 82.6702C1147.36 82.3368 1150.14 83.7277 1151.44 86.0333C1153.04 84.528 1155.4 83.8611 1157.54 84.3089C1159.69 84.7567 1161.58 86.3001 1162.45 88.3198C1164.31 87.7958 1166.46 88.4723 1167.68 89.9776C1168.9 91.4829 1169.11 93.7313 1168.19 95.4366C1169.59 96.1988 1170.8 97.5517 1170.86 99.1427C1170.92 100.734 1169.4 102.353 1167.85 101.963C1168.5 103.192 1168.02 104.888 1166.83 105.602C1165.64 106.317 1163.92 105.945 1163.14 104.802" fill="#263238"/>
<path d="M1140.88 130.573C1140.92 130.287 1142.81 130.639 1144.48 129.277C1146.15 127.915 1146.32 125.847 1146.58 125.885C1146.71 125.885 1146.87 126.409 1146.73 127.267C1146.59 128.115 1146.09 129.286 1145.08 130.125C1144.06 130.963 1142.88 131.173 1142.09 131.087C1141.28 131.011 1140.85 130.706 1140.89 130.582L1140.88 130.573Z" fill="#263238"/>
<path d="M1086.01 239.554L1100.67 223.387L1112.93 186.335C1115.44 179.905 1117.58 171.749 1120.61 165.652C1122.11 162.651 1124.61 160.288 1127.68 158.935L1132.88 156.62L1136 151.657C1134.21 162.889 1149.96 164.28 1166.69 150.323C1166.69 150.323 1172.21 154.067 1180 160.526C1183.42 163.356 1186.51 166.443 1187.8 171.121C1190.14 179.6 1180.08 204.694 1169.12 228.303C1165.85 235.362 1150.24 267.002 1150.24 267.002L1144.62 271.099C1144.62 271.099 1094.96 256.046 1090.48 247.805L1086.01 239.554Z" fill="white"/>
<path d="M1094.15 229.913C1094.15 229.913 1094.28 229.732 1094.57 229.427C1094.89 229.084 1095.31 228.646 1095.82 228.103C1096.98 226.921 1098.58 225.283 1100.55 223.263L1100.51 223.33C1101.43 220.51 1102.52 217.127 1103.75 213.374C1105.01 209.61 1106.29 205.438 1107.59 201.017C1110.09 192.357 1112.47 184.535 1114.65 179.028C1115.71 176.265 1116.71 174.084 1117.4 172.588C1117.75 171.883 1118.04 171.321 1118.26 170.882C1118.46 170.492 1118.57 170.301 1118.58 170.301C1118.59 170.301 1118.52 170.52 1118.35 170.921C1118.15 171.368 1117.9 171.94 1117.57 172.664C1116.93 174.179 1115.98 176.38 1114.97 179.142C1112.88 184.659 1110.56 192.481 1108.06 201.141C1106.76 205.552 1105.46 209.744 1104.18 213.498C1102.92 217.242 1101.79 220.605 1100.83 223.415V223.453L1100.8 223.482C1098.78 225.454 1097.14 227.055 1095.96 228.207C1095.41 228.731 1094.97 229.151 1094.63 229.475C1094.33 229.76 1094.16 229.903 1094.15 229.894V229.913Z" fill="#263238"/>
<path d="M1139.74 168.215L1122.57 238.649L1104.72 247.519V230.294L1135.6 166.69L1139.74 168.215Z" fill="#635BFF"/>
<g opacity="0.3">
<path d="M1106.89 232.304C1111.76 234.133 1116.15 237.039 1120.45 239.964C1124.76 242.889 1129.05 245.89 1133.83 247.967C1138.6 250.044 1143.94 251.149 1149.04 250.091C1154.14 249.043 1158.9 245.556 1160.58 240.631L1106.89 232.294V232.304Z" fill="black"/>
</g>
<path d="M1132.88 156.411L1137.28 149.684L1139 158.897L1143.37 153.943L1165.09 143.787L1168.85 151.866L1144.86 166.052L1138.21 165.557L1133.36 159.793L1132.88 156.411Z" fill="white"/>
<path d="M1132.88 156.411C1132.94 156.411 1133.04 156.925 1133.21 157.802C1133.43 158.85 1133.67 160.041 1133.94 161.356L1133.5 161.289C1133.87 160.603 1134.27 159.879 1134.68 159.126C1135.34 157.964 1135.95 156.878 1136.51 155.887L1136.75 155.468L1136.9 155.906C1137.29 157.002 1137.49 157.926 1137.67 158.574C1137.83 159.221 1137.93 159.584 1137.89 159.603C1137.85 159.622 1137.66 159.279 1137.43 158.65C1137.18 158.031 1136.91 157.106 1136.5 156.058L1136.89 156.087C1136.35 157.087 1135.76 158.183 1135.12 159.355C1134.7 160.108 1134.29 160.832 1133.91 161.508L1133.6 162.061L1133.47 161.441C1132.89 158.536 1132.75 156.411 1132.86 156.401L1132.88 156.411Z" fill="#263238"/>
<path d="M1140.19 159.802L1137.43 159.469C1136.68 160.307 1134.85 162.041 1134.1 162.889V162.965C1134.44 164.804 1134.76 166.652 1135.09 168.491C1136.64 168.415 1138.19 168.539 1139.71 168.863C1140.63 167.243 1141.33 166.023 1142.25 164.404L1140.2 159.802H1140.19Z" fill="#635BFF"/>
<path d="M1140.4 160.374L1143.47 158.859L1144.52 164.233L1141.95 164.461L1140.4 160.374Z" fill="#635BFF"/>
<path opacity="0.1" d="M1143.05 156.696V168.862L1165.67 153.924L1144.62 166.176L1143.05 156.696Z" fill="black"/>
<path d="M1168.85 151.866C1168.85 151.866 1168.4 152.247 1167.53 152.857C1166.66 153.457 1165.38 154.305 1163.76 155.286C1160.53 157.268 1155.89 159.707 1150.9 162.574C1148.78 163.803 1146.79 165.032 1145 166.242L1144.71 166.443L1144.64 166.09C1143.95 162.374 1143.36 159.154 1142.91 156.725L1143.17 156.801C1142.19 157.716 1141.4 158.459 1140.78 159.03C1140.22 159.535 1139.91 159.802 1139.89 159.783C1139.88 159.764 1140.14 159.459 1140.68 158.916C1141.27 158.316 1142.03 157.544 1142.96 156.591L1143.16 156.391L1143.22 156.668C1143.71 159.088 1144.36 162.298 1145.11 166.004L1144.74 165.852C1146.53 164.613 1148.54 163.365 1150.66 162.136C1155.68 159.259 1160.33 156.877 1163.6 154.972C1165.24 154.038 1166.54 153.238 1167.45 152.685C1168.34 152.123 1168.85 151.828 1168.87 151.856L1168.85 151.866Z" fill="#263238"/>
<path d="M1137.46 160.497L1136.19 157.392L1134.09 161.241L1134.99 162.632L1137.46 160.497Z" fill="#635BFF"/>
<path d="M1140.92 160.05C1141.03 160.145 1139.51 161.898 1137.89 164.233C1136.26 166.557 1135.13 168.577 1135 168.51C1134.88 168.453 1135.83 166.309 1137.49 163.947C1139.13 161.584 1140.84 159.964 1140.92 160.05Z" fill="#263238"/>
<path d="M1139.39 168.958C1139.35 169.091 1138.31 168.939 1137.05 168.729C1135.78 168.51 1134.75 168.32 1134.76 168.186C1134.77 168.053 1135.84 168.024 1137.13 168.244C1138.43 168.463 1139.43 168.834 1139.39 168.968V168.958Z" fill="#263238"/>
<path d="M1025.39 212.764L1011.08 172.311C1010.8 171.435 1011.34 170.52 1012.23 170.33L1045.29 161.698C1046.12 161.517 1046.95 161.984 1047.21 162.794L1062.25 208.362L1108.9 239.002L1106.66 241.288L1094.73 238.382L1025.39 212.773V212.764Z" fill="#455A64"/>
<path d="M1106.65 241.279C1106.65 241.279 1106.57 241.241 1106.42 241.145C1106.24 241.031 1106.02 240.888 1105.74 240.717C1105.12 240.307 1104.25 239.745 1103.15 239.021C1100.88 237.516 1097.65 235.362 1093.68 232.714C1085.69 227.331 1074.69 219.928 1062.54 211.754C1061.7 211.183 1060.86 210.611 1060.08 210.087L1060.01 210.039L1059.98 209.963C1055.59 196.711 1051.65 184.83 1048.8 176.227C1047.41 171.959 1046.28 168.51 1045.49 166.081C1045.12 164.909 1044.82 163.985 1044.61 163.327C1044.53 163.032 1044.45 162.794 1044.39 162.613C1044.35 162.451 1044.33 162.365 1044.34 162.365C1044.34 162.365 1044.38 162.441 1044.44 162.603C1044.51 162.784 1044.59 163.023 1044.7 163.308C1044.93 163.966 1045.25 164.88 1045.66 166.033C1046.49 168.444 1047.66 171.883 1049.11 176.132C1052 184.726 1055.99 196.577 1060.44 209.82L1060.34 209.696C1061.12 210.23 1061.97 210.792 1062.81 211.364C1074.92 219.585 1085.89 227.026 1093.87 232.438C1097.8 235.143 1101.01 237.335 1103.25 238.878C1104.33 239.631 1105.18 240.221 1105.79 240.65C1106.05 240.841 1106.27 241.003 1106.45 241.117C1106.59 241.222 1106.66 241.288 1106.65 241.288V241.279Z" fill="#263238"/>
<path d="M1031.09 211.897C1031.09 211.763 1037.58 211.344 1045.61 210.963C1053.64 210.582 1060.14 210.391 1060.15 210.525C1060.15 210.658 1053.66 211.077 1045.63 211.459C1037.61 211.84 1031.1 212.03 1031.1 211.897H1031.09Z" fill="#263238"/>
<path d="M1036.36 188.803C1036.94 190.641 1036.61 192.375 1035.64 192.68C1034.67 192.985 1033.41 191.747 1032.83 189.917C1032.26 188.079 1032.58 186.345 1033.55 186.04C1034.53 185.735 1035.78 186.973 1036.36 188.803Z" fill="#E0E0E0"/>
<path d="M1077.09 203.237C1077.09 203.237 1075.85 203.847 1075.66 201.884C1075.49 200.141 1079.68 197.549 1081.26 196.578C1082.83 195.606 1086.13 196.273 1087.82 196.492C1090.1 196.787 1095.41 199.169 1097.1 201.198C1098.81 203.256 1100 208.525 1100.61 209.02C1101.24 209.516 1122.37 217.833 1122.37 217.833L1117.55 234.562C1117.55 234.562 1098.17 226.007 1094.73 222.558C1091.29 219.119 1092.05 218.233 1091.45 215.632C1090.85 213.021 1090.2 210.249 1090.2 210.249L1088.37 209.496L1084.94 210.468C1084.94 210.468 1084.52 211.773 1083.64 212.793C1082.58 214.012 1080.66 213.955 1079.61 212.745C1079.61 212.745 1077.86 213.355 1077.02 211.383C1076.66 210.573 1076.92 209.354 1076.92 209.354C1076.92 209.354 1075.36 209.658 1075.35 207.715C1075.34 205.628 1077.09 203.237 1077.09 203.237Z" fill="#AE7461"/>
<path d="M1088.1 205.448C1088.1 205.533 1087.39 205.505 1086.31 205.743C1085.23 205.972 1083.76 206.534 1082.49 207.648C1081.23 208.763 1080.48 210.144 1080.12 211.192C1079.75 212.24 1079.68 212.945 1079.61 212.936C1079.55 212.936 1079.49 212.212 1079.79 211.088C1080.08 209.973 1080.82 208.468 1082.17 207.277C1083.52 206.086 1085.1 205.543 1086.25 205.4C1087.4 205.238 1088.12 205.4 1088.11 205.448H1088.1Z" fill="#6F4439"/>
<path d="M1086.51 201.856C1086.51 201.941 1085.74 201.817 1084.58 202.084C1083.43 202.341 1081.9 203.085 1080.6 204.361C1079.29 205.647 1078.42 207.086 1077.77 208.105C1077.13 209.144 1076.73 209.782 1076.67 209.754C1076.62 209.725 1076.9 209.02 1077.46 207.934C1078.04 206.857 1078.88 205.352 1080.25 204.009C1081.61 202.665 1083.27 201.922 1084.5 201.741C1085.75 201.551 1086.52 201.808 1086.51 201.856H1086.51Z" fill="#6F4439"/>
<path d="M1086.21 197.931C1086.2 198.016 1085.54 197.93 1084.53 198.112C1083.52 198.283 1082.16 198.807 1080.89 199.741C1079.62 200.674 1078.64 201.751 1077.92 202.523C1077.21 203.294 1076.75 203.771 1076.69 203.723C1076.64 203.685 1077 203.132 1077.65 202.294C1078.31 201.465 1079.27 200.322 1080.61 199.341C1081.94 198.359 1083.41 197.854 1084.49 197.759C1085.58 197.654 1086.24 197.873 1086.23 197.921L1086.21 197.931Z" fill="#6F4439"/>
<path d="M1176.36 159.927C1182.29 161.089 1186.16 166.31 1187.37 172.827C1189.08 182.077 1167.87 225.826 1163.91 235.373C1159.75 245.433 1150.54 247.634 1145.16 247.51C1139.8 247.386 1102.2 229.751 1102.2 229.751L1107.71 210.669L1141.12 220.586L1154.37 183.335" fill="white"/>
<path d="M1154.37 183.345C1154.37 183.345 1154.3 183.573 1154.16 184.011C1154 184.459 1153.79 185.107 1153.5 185.945C1152.9 187.66 1152.03 190.156 1150.91 193.367C1148.63 199.827 1145.35 209.144 1141.3 220.653L1141.24 220.815L1141.08 220.767C1131.47 217.928 1120.13 214.575 1107.65 210.897L1107.94 210.745C1106.18 216.842 1104.34 223.225 1102.44 229.828L1102.31 229.542C1111.08 233.62 1120.48 237.897 1130.27 242.013C1134.25 243.661 1138.19 245.309 1142.17 246.576L1143.67 247.005C1144.16 247.139 1144.66 247.177 1145.15 247.272C1146.18 247.291 1147.21 247.243 1148.22 247.1C1150.25 246.853 1152.22 246.272 1154.04 245.452C1157.7 243.804 1160.73 240.984 1162.58 237.583C1163.51 235.906 1164.2 234.077 1164.99 232.333C1165.77 230.59 1166.55 228.865 1167.31 227.16C1173.49 213.555 1178.96 201.256 1182.88 190.671C1184.82 185.374 1186.48 180.515 1187.17 176.094C1187.31 174.989 1187.4 173.913 1187.25 172.903C1187.05 171.883 1186.84 170.912 1186.52 170.007C1185.93 168.187 1185.13 166.615 1184.23 165.329C1182.43 162.728 1180.26 161.394 1178.76 160.746C1177.99 160.422 1177.39 160.222 1176.97 160.127C1176.56 160.022 1176.36 159.946 1176.36 159.946C1176.36 159.946 1176.57 159.984 1176.98 160.07C1177.4 160.155 1178.01 160.336 1178.78 160.641C1180.31 161.27 1182.53 162.585 1184.38 165.205C1185.3 166.501 1186.11 168.092 1186.73 169.921C1187.04 170.835 1187.28 171.817 1187.49 172.846C1187.65 173.903 1187.57 175.008 1187.44 176.123C1186.78 180.591 1185.12 185.469 1183.21 190.785C1179.32 201.408 1173.87 213.727 1167.72 227.341C1166.96 229.046 1166.19 230.771 1165.41 232.514C1164.62 234.248 1163.94 236.068 1162.98 237.802C1161.1 241.289 1157.99 244.195 1154.23 245.881C1152.36 246.729 1150.35 247.32 1148.27 247.577C1147.23 247.72 1146.18 247.767 1145.13 247.758C1144.6 247.663 1144.05 247.615 1143.53 247.482L1142.01 247.043C1137.99 245.767 1134.05 244.118 1130.06 242.47C1120.26 238.345 1110.87 234.067 1102.09 229.98L1101.9 229.894L1101.96 229.694C1103.87 223.092 1105.72 216.718 1107.48 210.621L1107.55 210.402L1107.77 210.468C1120.23 214.184 1131.57 217.566 1141.16 220.434L1140.94 220.548C1145.06 209.058 1148.39 199.76 1150.71 193.32C1151.87 190.118 1152.77 187.632 1153.39 185.926C1153.69 185.098 1153.93 184.459 1154.09 184.011C1154.25 183.583 1154.35 183.364 1154.35 183.364L1154.37 183.345Z" fill="#263238"/>
<path d="M1146.46 234.591C1146.31 234.62 1145.79 231.266 1144.31 227.398C1142.84 223.521 1140.99 220.682 1141.12 220.596C1141.17 220.558 1141.71 221.225 1142.42 222.396C1143.13 223.568 1144.02 225.255 1144.76 227.217C1145.51 229.18 1145.97 231.028 1146.22 232.381C1146.47 233.734 1146.52 234.582 1146.46 234.591Z" fill="#263238"/>
<path d="M1174.05 160.013C1174.08 160.098 1172.82 160.508 1170.93 161.461C1169.99 161.928 1168.91 162.576 1167.75 163.357C1166.61 164.167 1165.41 165.119 1164.26 166.243C1163.11 167.377 1162.12 168.549 1161.29 169.673C1160.48 170.807 1159.82 171.874 1159.32 172.817C1158.32 174.685 1157.89 175.933 1157.81 175.904C1157.78 175.895 1157.86 175.571 1158.04 175.008C1158.22 174.437 1158.55 173.627 1159.02 172.665C1159.47 171.693 1160.12 170.588 1160.93 169.416C1161.76 168.263 1162.75 167.053 1163.92 165.9C1165.1 164.757 1166.33 163.795 1167.51 162.995C1168.71 162.213 1169.82 161.594 1170.8 161.156C1171.77 160.708 1172.59 160.403 1173.16 160.241C1173.74 160.07 1174.06 159.994 1174.07 160.022L1174.05 160.013Z" fill="#263238"/>
<path d="M965.584 297.242L947.53 274.672C947.53 274.672 1017.37 217.127 1023.98 213.021C1028.98 209.906 1039.14 205.771 1048.77 209.01C1058.39 212.24 1074.68 223.501 1080.68 227.15C1086.68 230.799 1138.96 263.182 1144.61 271.099C1144.61 271.099 1133.23 291.678 1125.78 295.127C1119.95 297.832 1103.14 293.793 1093.31 287.819C1083.48 281.846 1038.4 243.242 1038.4 243.242L965.575 297.242H965.584Z" fill="#03192F"/>
<path d="M972.312 323.698L996.701 341.219L1043.64 264.716L1091.04 286.314L1059.17 233.066C1059.17 233.066 1033.47 233.371 1029.43 232.914C1024.24 232.333 1014.78 240.507 1009.62 250.501C1005.13 259.18 972.312 323.698 972.312 323.698Z" fill="#03192F"/>
<path d="M1075.71 280.007C1075.61 280.102 1064.91 269.184 1051.81 255.617C1038.7 242.051 1028.16 230.98 1028.25 230.885C1028.35 230.79 1039.06 241.708 1052.16 255.274C1065.26 268.841 1075.8 279.912 1075.71 280.007Z" fill="#455A64"/>
<path opacity="0.3" d="M986.021 282.094C986.021 282.094 1007.03 242.842 1016.92 240.222C1016.92 240.222 1002.61 259.619 997.815 273.348L986.021 282.094Z" fill="black"/>
<path d="M1032.72 235.534C1032.7 235.601 1031.77 235.153 1029.97 235.01C1028.18 234.839 1025.49 235.144 1022.6 236.582C1019.68 237.983 1016.8 240.679 1014.28 244.128C1011.76 247.596 1009.24 251.607 1006.83 255.932C1002.06 264.63 998.387 272.852 995.462 278.664C994.024 281.579 992.795 283.913 991.928 285.514C991.499 286.276 991.156 286.886 990.899 287.343C990.661 287.762 990.527 287.972 990.508 287.962C990.489 287.962 990.594 287.724 990.803 287.295C991.042 286.829 991.356 286.2 991.747 285.428C992.556 283.799 993.738 281.446 995.138 278.511C997.987 272.662 1001.61 264.421 1006.39 255.694C1008.82 251.349 1011.35 247.338 1013.91 243.861C1016.48 240.393 1019.43 237.668 1022.43 236.277C1025.42 234.858 1028.17 234.591 1029.98 234.829C1031.81 235.039 1032.72 235.553 1032.72 235.553V235.534Z" fill="#455A64"/>
<path d="M984.286 309.484L970.929 334.112C970.929 334.112 941.138 330.597 938.489 335.074L986.897 359.826L1006.99 321.022L984.296 309.494L984.286 309.484Z" fill="#03192F"/>
<path d="M986.887 359.816L988.754 355.824L941.643 333.588C941.643 333.588 939.003 333.426 938.479 335.065L986.887 359.816Z" fill="#132F4B"/>
<path d="M970.263 333.464C970.149 333.702 971.273 334.417 972.054 335.77C972.864 337.103 972.94 338.437 973.207 338.456C974.56 337.637 971.635 332.683 970.263 333.464Z" fill="white"/>
<path d="M964.117 332.969C963.946 333.169 964.765 334.093 965.06 335.503C965.394 336.904 965.041 338.085 965.289 338.199C966.842 337.885 965.661 332.597 964.127 332.969H964.117Z" fill="white"/>
<path d="M958.125 337.57C959.43 337.742 959.621 332.502 958.316 332.578C958.382 332.74 958.201 337.427 958.125 337.57Z" fill="white"/>
<path d="M973.607 327.977C973.779 327.977 978.409 330.692 978.476 330.835C979.219 329.73 974.208 326.786 973.607 327.977Z" fill="white"/>
<path d="M966.109 265.592L943.215 281.731C943.215 281.731 918.073 265.364 913.719 268.203L946.13 311.856L980.476 284.818L966.118 265.592H966.109Z" fill="#03192F"/>
<path d="M946.13 311.857L949.579 309.113L917.215 268.289C917.215 268.289 914.929 266.974 913.719 268.213L946.13 311.866V311.857Z" fill="#132F4B"/>
<path d="M942.909 280.864C942.7 281.026 943.395 282.169 943.49 283.722C943.624 285.275 943.1 286.504 943.328 286.638C944.9 286.504 944.481 280.759 942.909 280.864Z" fill="white"/>
<path d="M937.622 277.692C937.384 277.797 937.698 278.988 937.336 280.379C937.012 281.779 936.174 282.684 936.345 282.894C937.879 283.294 939.165 278.035 937.622 277.692Z" fill="white"/>
<path d="M930.21 279.159C931.306 279.893 933.802 275.282 932.592 274.767C932.573 274.939 930.334 279.054 930.21 279.159Z" fill="white"/>
<path opacity="0.3" d="M1072.12 276.292C1072.12 276.292 1045.42 255.97 1039.06 248.139C1032.78 240.412 1029.44 232.905 1029.44 232.905L1072.13 276.292H1072.12Z" fill="black"/>
<path opacity="0.8" d="M918 124.508C918 121.318 920.585 118.722 923.786 118.722C924.369 118.722 924.919 118.81 925.447 118.964C925.359 118.381 925.315 117.787 925.315 117.193C925.315 110.428 930.804 104.939 937.569 104.939C938.339 104.939 939.098 105.016 939.824 105.148C941.705 102.068 945.093 100 948.965 100C954.828 100 959.591 104.708 959.679 110.56C959.734 110.56 959.8 110.56 959.855 110.56C965.3 110.56 969.722 114.982 969.722 120.427C969.722 125.872 965.3 130.294 959.855 130.294H923.621C920.497 130.206 918 127.654 918 124.519V124.508Z" fill="#F6F9FC"/>
<path opacity="0.5" d="M973 49.663C973 48.9259 973.597 48.3261 974.337 48.3261C974.472 48.3261 974.599 48.3464 974.721 48.382C974.7 48.2473 974.69 48.11 974.69 47.9728C974.69 46.4096 975.959 45.1412 977.522 45.1412C977.7 45.1412 977.875 45.159 978.043 45.1895C978.477 44.4779 979.26 44 980.155 44C981.51 44 982.61 45.0879 982.631 46.4401C982.643 46.4401 982.659 46.4401 982.671 46.4401C983.93 46.4401 984.951 47.4619 984.951 48.72C984.951 49.9782 983.93 51 982.671 51H974.299C973.577 50.9797 973 50.39 973 49.6656V49.663Z" fill="#F6F9FC"/>
<path opacity="0.5" d="M1380 185.663C1380 184.926 1380.6 184.326 1381.34 184.326C1381.47 184.326 1381.6 184.346 1381.72 184.382C1381.7 184.247 1381.69 184.11 1381.69 183.973C1381.69 182.41 1382.96 181.141 1384.52 181.141C1384.7 181.141 1384.88 181.159 1385.04 181.19C1385.48 180.478 1386.26 180 1387.16 180C1388.51 180 1389.61 181.088 1389.63 182.44C1389.64 182.44 1389.66 182.44 1389.67 182.44C1390.93 182.44 1391.95 183.462 1391.95 184.72C1391.95 185.978 1390.93 187 1389.67 187H1381.3C1380.58 186.98 1380 186.39 1380 185.666V185.663Z" fill="#F6F9FC"/>
<path opacity="0.8" d="M1358 300.18C1358 298.074 1359.71 296.36 1361.82 296.36C1362.2 296.36 1362.57 296.418 1362.92 296.52C1362.86 296.135 1362.83 295.743 1362.83 295.351C1362.83 290.885 1366.45 287.261 1370.92 287.261C1371.43 287.261 1371.93 287.312 1372.41 287.399C1373.65 285.365 1375.89 284 1378.44 284C1382.31 284 1385.46 287.108 1385.52 290.972C1385.55 290.972 1385.6 290.972 1385.63 290.972C1389.23 290.972 1392.15 293.891 1392.15 297.486C1392.15 301.081 1389.23 304 1385.63 304H1361.71C1359.65 303.942 1358 302.257 1358 300.187V300.18Z" fill="#F6F9FC"/>
<path opacity="0.5" d="M1187.29 44.0582H1174.62C1174.65 43.7541 1174.67 43.4435 1174.67 43.1328C1174.67 38.5261 1170.94 34.7918 1166.33 34.7918C1166.23 34.7918 1166.13 34.805 1166.03 34.805C1164.99 32.0026 1162.29 30 1159.12 30C1155.04 30 1151.74 33.3047 1151.74 37.3827C1151.74 37.3827 1151.74 37.3959 1151.74 37.4025C1148.12 37.5744 1145.23 40.456 1145.04 44.0648H1144.71C1142.67 44.0648 1141 45.7369 1141 47.7726C1141 49.8083 1142.67 51.4805 1144.71 51.4805H1187.29C1189.33 51.4805 1191 49.8083 1191 47.7726C1191 45.7369 1189.33 44.0648 1187.29 44.0648V44.0582Z" fill="#F6F9FC"/>
<path opacity="0.8" d="M1332 97.508C1332 94.318 1334.59 91.722 1337.79 91.722C1338.37 91.722 1338.92 91.81 1339.45 91.964C1339.36 91.381 1339.31 90.787 1339.31 90.193C1339.31 83.428 1344.8 77.939 1351.57 77.939C1352.34 77.939 1353.1 78.016 1353.82 78.148C1355.7 75.068 1359.09 73 1362.96 73C1368.83 73 1373.59 77.708 1373.68 83.56C1373.73 83.56 1373.8 83.56 1373.86 83.56C1379.3 83.56 1383.72 87.982 1383.72 93.427C1383.72 98.872 1379.3 103.294 1373.86 103.294H1337.62C1334.5 103.206 1332 100.654 1332 97.519V97.508Z" fill="#F6F9FC"/>
</g>
<defs>
<linearGradient id="paint0_linear_15_5489" x1="0" y1="200" x2="1440" y2="200" gradientUnits="userSpaceOnUse">
<stop stop-color="#0A4F94"/>
<stop offset="1" stop-color="#0A2540"/>
</linearGradient>
<clipPath id="clip0_15_5489">
<rect width="550" height="400" fill="white" transform="translate(890)"/>
</clipPath>
</defs>
</svg>
