<svg width="700" height="624" viewBox="0 0 700 624" fill="none" xmlns="http://www.w3.org/2000/svg">
<path d="M0 12C0 5.37259 5.37258 0 12 0H688C694.627 0 700 5.37258 700 12V612C700 618.627 694.627 624 688 624H12C5.37257 624 0 618.627 0 612V12Z" fill="#EAF4FF"/>
<mask id="mask0_74_4" style="mask-type:luminance" maskUnits="userSpaceOnUse" x="74" y="99" width="511" height="422">
<path d="M75.0242 325.139C75.8908 373.837 95.3217 421.411 129.288 456.38C147.685 475.34 168.909 489.936 194.179 498.009C205.338 501.567 216.696 504.593 228.418 506.189C239.943 507.755 251.483 507.679 262.992 507.238C287.471 506.295 310.11 494.223 333.098 486.986C378.498 472.694 423.395 499.879 465.374 513.457C511.153 528.265 565.858 520.861 581.776 467.647C583.282 462.599 584.224 457.384 584.65 452.138C588.177 408.168 562.817 377.35 524.183 361.233C496.892 349.845 472.626 325.412 468.749 294.974C463.093 250.669 464.842 202.913 443.967 162.136C424.262 123.654 379.744 97.4118 336.398 99.434C315.218 100.422 296.563 112.874 284.491 129.857C264.573 157.863 265.212 198.732 238.27 221.933C209.231 246.959 172.619 216.597 138.592 223.271C91.7183 232.47 74.5377 281.731 75.009 323.877C75.009 324.302 75.009 324.728 75.0242 325.154V325.139Z" fill="white"/>
</mask>
<g mask="url(#mask0_74_4)">
<path d="M584.954 97.4116H588.162V528.265H584.954V97.4116Z" fill="#C5D7EA"/>
<path d="M568.519 97.4116H584.97V528.265H568.519V97.4116Z" fill="#C5D7EA"/>
<path d="M552.068 97.4116H568.518V528.265H552.068V97.4116Z" fill="#C5D7EA"/>
<path d="M535.616 97.4116H552.067V528.265H535.616V97.4116Z" fill="#C5D7EA"/>
<path d="M519.166 97.4116H535.617V528.265H519.166V97.4116Z" fill="#C5D7EA"/>
<path d="M502.715 97.4116H519.166V528.265H502.715V97.4116Z" fill="#C5D7EA"/>
<path d="M486.264 97.4116H502.715V528.265H486.264V97.4116Z" fill="#C5D7EA"/>
<path d="M469.814 97.4116H486.265V528.265H469.814V97.4116Z" fill="#C5D7EA"/>
<path d="M453.363 97.4116H469.814V528.265H453.363V97.4116Z" fill="#C5D7EA"/>
<path d="M436.911 97.4116H453.362V528.265H436.911V97.4116Z" fill="#C5D7EA"/>
<path d="M420.46 97.4116H436.911V528.265H420.46V97.4116Z" fill="#C5D7EA"/>
<path d="M404.01 97.4116H420.461V528.265H404.01V97.4116Z" fill="#C5D7EA"/>
<path d="M387.56 97.4116H404.011V528.265H387.56V97.4116Z" fill="#C5D7EA"/>
<path d="M371.108 97.4116H387.558V528.265H371.108V97.4116Z" fill="#C5D7EA"/>
<path d="M354.657 97.4116H371.108V528.265H354.657V97.4116Z" fill="#C5D7EA"/>
<path d="M338.206 97.4116H354.657V528.265H338.206V97.4116Z" fill="#C5D7EA"/>
<path d="M321.754 97.4116H338.205V528.265H321.754V97.4116Z" fill="#C5D7EA"/>
<path d="M305.306 97.4116H321.757V528.265H305.306V97.4116Z" fill="#C5D7EA"/>
<path d="M288.855 97.4116H305.306V528.265H288.855V97.4116Z" fill="#C5D7EA"/>
<path d="M272.403 97.4116H288.853V528.265H272.403V97.4116Z" fill="#C5D7EA"/>
<path d="M255.953 97.4116H272.404V528.265H255.953V97.4116Z" fill="#C5D7EA"/>
<path d="M239.501 97.4116H255.952V528.265H239.501V97.4116Z" fill="#C5D7EA"/>
<path d="M223.05 97.4116H239.501V528.265H223.05V97.4116Z" fill="#C5D7EA"/>
<path d="M206.601 97.4116H223.052V528.265H206.601V97.4116Z" fill="#C5D7EA"/>
<path d="M190.15 97.4116H206.601V528.265H190.15V97.4116Z" fill="#C5D7EA"/>
<path d="M173.698 97.4116H190.149V528.265H173.698V97.4116Z" fill="#C5D7EA"/>
<path d="M157.248 97.4116H173.699V528.265H157.248V97.4116Z" fill="#C5D7EA"/>
<path d="M140.797 97.4116H157.248V528.265H140.797V97.4116Z" fill="#C5D7EA"/>
<path d="M124.345 97.4116H140.796V528.265H124.345V97.4116Z" fill="#C5D7EA"/>
<path d="M107.896 97.4116H124.347V528.265H107.896V97.4116Z" fill="#C5D7EA"/>
<path d="M91.4453 97.4116H107.896V528.265H91.4453V97.4116Z" fill="#C5D7EA"/>
<path d="M74.9934 97.4116H91.4442V528.265H74.9934V97.4116Z" fill="#C5D7EA"/>
</g>
<mask id="mask1_74_4" style="mask-type:luminance" maskUnits="userSpaceOnUse" x="450" y="94" width="167" height="146">
<path d="M565.081 239.221C565.43 239.19 565.795 239.16 566.145 239.129C596.568 236.469 618.067 210.637 616.455 180.472C614.828 150.094 592.448 122.894 566.707 108.496C542.502 94.9641 509.874 89.8707 483.556 100.21C467.942 106.352 451.977 119.291 450.563 137.171C449.058 156.206 464.399 168.005 475.164 181.384C481.336 189.062 487.266 196.984 493.865 204.282C512.216 224.609 536.466 241.258 565.065 239.221H565.081Z" fill="white"/>
</mask>
<g mask="url(#mask1_74_4)">
<path d="M611.179 89.8706H616.531V241.258H611.179V89.8706Z" fill="#C5D7EA"/>
<path d="M605.827 89.8706H611.179V241.258H605.827V89.8706Z" fill="#C5D7EA"/>
<path d="M600.461 89.8706H605.812V241.258H600.461V89.8706Z" fill="#C5D7EA"/>
<path d="M595.108 89.8706H600.46V241.258H595.108V89.8706Z" fill="#C5D7EA"/>
<path d="M589.757 89.8706H595.108V241.258H589.757V89.8706Z" fill="#C5D7EA"/>
<path d="M584.389 89.8706H589.741V241.258H584.389V89.8706Z" fill="#C5D7EA"/>
<path d="M579.038 89.8706H584.39V241.258H579.038V89.8706Z" fill="#C5D7EA"/>
<path d="M573.685 89.8706H579.037V241.258H573.685V89.8706Z" fill="#C5D7EA"/>
<path d="M568.319 89.8706H573.671V241.258H568.319V89.8706Z" fill="#C5D7EA"/>
<path d="M562.966 89.8706H568.318V241.258H562.966V89.8706Z" fill="#C5D7EA"/>
<path d="M557.615 89.8706H562.967V241.258H557.615V89.8706Z" fill="#C5D7EA"/>
<path d="M552.248 89.8706H557.6V241.258H552.248V89.8706Z" fill="#C5D7EA"/>
<path d="M546.896 89.8706H552.248V241.258H546.896V89.8706Z" fill="#C5D7EA"/>
<path d="M541.546 89.8706H546.897V241.258H541.546V89.8706Z" fill="#C5D7EA"/>
<path d="M536.177 89.8706H541.529V241.258H536.177V89.8706Z" fill="#C5D7EA"/>
<path d="M530.825 89.8706H536.177V241.258H530.825V89.8706Z" fill="#C5D7EA"/>
<path d="M525.473 89.8706H530.825V241.258H525.473V89.8706Z" fill="#C5D7EA"/>
<path d="M520.106 89.8706H525.458V241.258H520.106V89.8706Z" fill="#C5D7EA"/>
<path d="M514.755 89.8706H520.106V241.258H514.755V89.8706Z" fill="#C5D7EA"/>
<path d="M509.388 89.8706H514.74V241.258H509.388V89.8706Z" fill="#C5D7EA"/>
<path d="M504.035 89.8706H509.386V241.258H504.035V89.8706Z" fill="#C5D7EA"/>
<path d="M498.684 89.8706H504.036V241.258H498.684V89.8706Z" fill="#C5D7EA"/>
<path d="M493.316 89.8706H498.668V241.258H493.316V89.8706Z" fill="#C5D7EA"/>
<path d="M487.965 89.8706H493.317V241.258H487.965V89.8706Z" fill="#C5D7EA"/>
<path d="M482.613 89.8706H487.965V241.258H482.613V89.8706Z" fill="#C5D7EA"/>
<path d="M477.247 89.8706H482.599V241.258H477.247V89.8706Z" fill="#C5D7EA"/>
<path d="M471.894 89.8706H477.246V241.258H471.894V89.8706Z" fill="#C5D7EA"/>
<path d="M466.543 89.8706H471.895V241.258H466.543V89.8706Z" fill="#C5D7EA"/>
<path d="M461.176 89.8706H466.528V241.258H461.176V89.8706Z" fill="#C5D7EA"/>
<path d="M455.823 89.8706H461.175V241.258H455.823V89.8706Z" fill="#C5D7EA"/>
<path d="M450.472 89.8706H455.824V241.258H450.472V89.8706Z" fill="#C5D7EA"/>
</g>
<mask id="mask2_74_4" style="mask-type:luminance" maskUnits="userSpaceOnUse" x="493" y="260" width="80" height="89">
<path d="M493.076 287.995C493.395 301.587 500.799 316.944 508.371 325.868C521.614 341.468 564.322 364.38 571.894 331.007C576.546 310.482 563.744 285.608 549.361 271.787C538.46 261.312 523.605 257.815 509.344 263C497.074 267.47 492.817 277.185 493.06 288.025L493.076 287.995Z" fill="white"/>
</mask>
<g mask="url(#mask2_74_4)">
<path d="M570.297 257.8H572.866V364.38H570.297V257.8Z" fill="#C5D7EA"/>
<path d="M567.728 257.8H570.297V364.38H567.728V257.8Z" fill="#C5D7EA"/>
<path d="M565.144 257.8H567.713V364.38H565.144V257.8Z" fill="#C5D7EA"/>
<path d="M562.573 257.8H565.143V364.38H562.573V257.8Z" fill="#C5D7EA"/>
<path d="M560.004 257.8H562.573V364.38H560.004V257.8Z" fill="#C5D7EA"/>
<path d="M557.434 257.8H560.004V364.38H557.434V257.8Z" fill="#C5D7EA"/>
<path d="M554.85 257.8H557.419V364.38H554.85V257.8Z" fill="#C5D7EA"/>
<path d="M552.28 257.8H554.85V364.38H552.28V257.8Z" fill="#C5D7EA"/>
<path d="M549.711 257.8H552.28V364.38H549.711V257.8Z" fill="#C5D7EA"/>
<path d="M547.126 257.8H549.695V364.38H547.126V257.8Z" fill="#C5D7EA"/>
<path d="M544.558 257.8H547.127V364.38H544.558V257.8Z" fill="#C5D7EA"/>
<path d="M541.987 257.8H544.557V364.38H541.987V257.8Z" fill="#C5D7EA"/>
<path d="M539.401 257.8H541.971V364.38H539.401V257.8Z" fill="#C5D7EA"/>
<path d="M536.833 257.8H539.402V364.38H536.833V257.8Z" fill="#C5D7EA"/>
<path d="M534.264 257.8H536.833V364.38H534.264V257.8Z" fill="#C5D7EA"/>
<path d="M531.679 257.8H534.248V364.38H531.679V257.8Z" fill="#C5D7EA"/>
<path d="M529.11 257.8H531.68V364.38H529.11V257.8Z" fill="#C5D7EA"/>
<path d="M526.54 257.8H529.109V364.38H526.54V257.8Z" fill="#C5D7EA"/>
<path d="M523.954 257.8H526.524V364.38H523.954V257.8Z" fill="#C5D7EA"/>
<path d="M521.386 257.8H523.955V364.38H521.386V257.8Z" fill="#C5D7EA"/>
<path d="M518.816 257.8H521.386V364.38H518.816V257.8Z" fill="#C5D7EA"/>
<path d="M516.247 257.8H518.817V364.38H516.247V257.8Z" fill="#C5D7EA"/>
<path d="M513.662 257.8H516.232V364.38H513.662V257.8Z" fill="#C5D7EA"/>
<path d="M511.092 257.8H513.661V364.38H511.092V257.8Z" fill="#C5D7EA"/>
<path d="M508.523 257.8H511.093V364.38H508.523V257.8Z" fill="#C5D7EA"/>
<path d="M505.938 257.8H508.508V364.38H505.938V257.8Z" fill="#C5D7EA"/>
<path d="M503.368 257.8H505.938V364.38H503.368V257.8Z" fill="#C5D7EA"/>
<path d="M500.799 257.8H503.369V364.38H500.799V257.8Z" fill="#C5D7EA"/>
<path d="M498.215 257.8H500.784V364.38H498.215V257.8Z" fill="#C5D7EA"/>
<path d="M495.644 257.8H498.213V364.38H495.644V257.8Z" fill="#C5D7EA"/>
<path d="M493.075 257.8H495.645V364.38H493.075V257.8Z" fill="#C5D7EA"/>
<path d="M492.816 257.8H493.06V364.38H492.816V257.8Z" fill="#C5D7EA"/>
</g>
<mask id="mask3_74_4" style="mask-type:luminance" maskUnits="userSpaceOnUse" x="589" y="385" width="36" height="31">
<path d="M622.552 403.698C620.226 407.226 616.607 410.297 613.49 411.985C608.306 414.813 600.4 416.713 594.82 413.946C583.812 408.503 591.642 392.478 599.32 388.053C606.086 384.161 615.817 384.663 621.761 389.954C626.399 394.089 625.486 399.259 622.567 403.683L622.552 403.698Z" fill="white"/>
</mask>
<g mask="url(#mask3_74_4)">
<path d="M622.537 384.161L626.384 388.783V384.161H622.537Z" fill="#C5D7EA"/>
<path d="M602.665 384.161L623.176 408.777L626.384 406.101V388.783L622.537 384.161H602.665Z" fill="#C5D7EA"/>
<path d="M596.856 384.161L588.555 391.094L609.932 416.728H613.642L623.175 408.777L602.664 384.161H596.856Z" fill="#C5D7EA"/>
<path d="M588.555 391.094L583.796 395.063V409.218L590.06 416.728H609.932L588.555 391.094Z" fill="#C5D7EA"/>
<path d="M590.061 416.728L583.797 409.217V416.728H590.061Z" fill="#C5D7EA"/>
</g>
<mask id="mask4_74_4" style="mask-type:luminance" maskUnits="userSpaceOnUse" x="582" y="358" width="17" height="15">
<path d="M592.726 358.208C595.904 358.755 598.716 360.656 598.929 363.788C599.127 366.828 596.907 369.656 594.125 370.934C589.807 372.925 582.068 373.518 582.95 366.92C583.588 362.191 587.526 357.295 592.726 358.208Z" fill="white"/>
</mask>
<g mask="url(#mask4_74_4)">
<path d="M595.767 357.311L599.127 361.34V357.311H595.767Z" fill="#C5D7EA"/>
<path d="M582.782 357.311L582.068 357.904V364.563L589.533 373.518H597.013L599.127 371.77V361.34L595.767 357.311H582.782Z" fill="#C5D7EA"/>
<path d="M589.534 373.518L582.069 364.563V373.518H589.534Z" fill="#C5D7EA"/>
</g>
<mask id="mask5_74_4" style="mask-type:luminance" maskUnits="userSpaceOnUse" x="483" y="230" width="15" height="16">
<path d="M495.369 234.751C495.566 235.024 495.779 235.313 496.007 235.572C496.539 236.21 496.965 236.91 497.178 237.731C497.604 239.342 497.345 241.212 496.448 242.611C494.882 245.029 491.598 246.078 488.831 245.241C486.079 244.405 483.981 241.851 483.449 239.023C482.901 236.119 484.087 232.82 486.641 231.345C488.192 230.448 490.169 230.402 491.811 231.102C492.86 231.558 493.681 232.379 494.335 233.291C494.684 233.777 495.019 234.264 495.369 234.751Z" fill="white"/>
</mask>
<g mask="url(#mask5_74_4)">
<path d="M485.137 230.402L497.605 245.348V230.402H485.137Z" fill="#C5D7EA"/>
<path d="M497.605 245.348L485.137 230.402H482.902V246.078H497.605V245.348Z" fill="#C5D7EA"/>
</g>
<mask id="mask6_74_4" style="mask-type:luminance" maskUnits="userSpaceOnUse" x="227" y="124" width="15" height="16">
<path d="M239.852 128.292C240.05 128.565 240.262 128.854 240.491 129.113C241.023 129.751 241.448 130.451 241.661 131.272C242.087 132.883 241.829 134.753 240.931 136.152C239.365 138.57 236.081 139.619 233.314 138.782C230.562 137.946 228.464 135.392 227.932 132.564C227.385 129.66 228.571 126.361 231.125 124.871C232.676 123.974 234.652 123.928 236.294 124.627C237.343 125.084 238.164 125.905 238.818 126.817C239.168 127.303 239.502 127.79 239.852 128.276V128.292Z" fill="white"/>
</mask>
<g mask="url(#mask6_74_4)">
<path d="M229.621 123.943L242.073 138.889V123.943H229.621Z" fill="#C5D7EA"/>
<path d="M242.073 138.889L229.621 123.943H227.386V139.619H242.073V138.889Z" fill="#C5D7EA"/>
</g>
<mask id="mask7_74_4" style="mask-type:luminance" maskUnits="userSpaceOnUse" x="179" y="163" width="38" height="40">
<path d="M201.962 202.837C196.351 203.096 190.087 200.359 185.009 193.532C167.023 169.358 200.167 149.38 213.79 175.804C221.377 190.552 212.909 202.351 201.977 202.837H201.962Z" fill="white"/>
</mask>
<g mask="url(#mask7_74_4)">
<path d="M205.778 149.379L221.377 168.08V149.379H205.778Z" fill="#C5D7EA"/>
<path d="M186.225 149.379L185.799 149.729L221.377 192.407V168.08L205.778 149.379H186.225Z" fill="#C5D7EA"/>
<path d="M185.799 149.729L173.834 159.703L210.004 203.08H216.755L221.377 199.249V192.407L185.799 149.729Z" fill="#C5D7EA"/>
<path d="M173.834 159.703L167.008 165.405V175.835L189.723 203.08H210.005L173.834 159.703Z" fill="#C5D7EA"/>
<path d="M167.007 200.161L169.454 203.08H189.721L167.007 175.834V200.161Z" fill="#C5D7EA"/>
</g>
<path d="M530.355 183.361C538.717 183.3 547.079 183.057 555.442 183.163C558.802 183.209 563.287 182.494 566.252 184.38C568.912 186.067 570.342 189.336 570.372 192.423C570.463 199.097 570.463 205.757 570.326 212.431C570.25 215.822 570.129 219.212 569.977 222.603C569.84 225.461 569.901 228.122 567.742 230.326C565.309 232.805 561.797 232.805 558.558 232.607C554.955 232.379 551.352 232.227 547.748 232.227C542.655 232.227 537.562 232.242 532.468 232.196C530.796 232.181 529.762 232.637 529.002 234.203C528.135 235.967 527.01 237.624 525.9 239.266C524.258 241.653 522.616 241.714 520.655 239.51C519.195 237.868 518.435 235.815 517.477 233.899C516.869 232.683 516.169 231.984 514.71 232.227C506.758 233.595 502.455 226.936 502.349 219.091C502.227 210.333 502.136 201.591 502.197 192.833C502.227 188.317 505.405 184.258 509.221 183.832C511.882 183.528 514.527 183.148 517.234 183.239C521.612 183.391 526.006 183.407 530.385 183.376L530.355 183.361Z" fill="#635BFF"/>
<path d="M554.408 212.994C550.698 212.963 547.961 210.272 547.991 206.699C548.022 203.506 550.531 200.998 553.769 200.952C557.372 200.907 560.489 203.902 560.489 207.399C560.489 210.668 557.935 213.024 554.408 212.994Z" fill="white"/>
<path d="M523.544 207.186C523.559 210.728 521.476 212.918 518.086 212.933C514.513 212.963 512.08 210.576 512.004 207.064C511.928 203.628 513.89 201.454 517.66 201.028C520.823 200.679 523.529 203.689 523.544 207.186Z" fill="white"/>
<path d="M536.755 212.705C533.364 212.705 530.825 210.272 530.795 206.973C530.749 203.704 533.303 201.18 536.663 201.195C539.993 201.195 542.791 203.704 542.669 206.958C542.517 210.789 539.689 213.039 536.755 212.72V212.705Z" fill="white"/>
<path d="M222.243 250.745C213.881 250.684 205.519 250.441 197.157 250.548C193.796 250.593 189.311 249.879 186.346 251.764C183.686 253.452 182.257 256.72 182.226 259.807C182.135 266.481 182.135 273.141 182.272 279.815C182.348 283.206 182.469 286.596 182.621 289.987C182.758 292.845 182.698 295.506 184.857 297.711C187.289 300.189 190.801 300.189 194.04 299.991C197.643 299.763 201.246 299.611 204.85 299.611C209.943 299.611 215.037 299.626 220.13 299.581C221.802 299.566 222.836 300.022 223.596 301.588C224.463 303.351 225.588 305.009 226.698 306.651C228.34 309.038 229.982 309.098 231.944 306.894C233.403 305.252 234.163 303.199 235.121 301.284C235.729 300.067 236.429 299.368 237.888 299.611C245.84 300.98 250.143 294.32 250.249 286.475C250.371 277.717 250.462 268.975 250.401 260.217C250.371 255.702 247.193 251.642 243.377 251.217C240.716 250.912 238.071 250.532 235.364 250.624C230.986 250.776 226.592 250.791 222.213 250.76L222.243 250.745Z" fill="#2FB4F7"/>
<path d="M198.191 280.378C201.901 280.348 204.637 277.657 204.607 274.084C204.577 270.891 202.068 268.382 198.829 268.336C195.226 268.291 192.109 271.286 192.109 274.783C192.109 278.052 194.663 280.408 198.191 280.378Z" fill="white"/>
<path d="M229.054 274.585C229.039 278.128 231.122 280.317 234.513 280.332C238.086 280.363 240.518 277.976 240.594 274.464C240.67 271.028 238.709 268.853 234.938 268.428C231.776 268.078 229.07 271.088 229.054 274.585Z" fill="white"/>
<path d="M215.827 280.104C219.218 280.104 221.757 277.672 221.787 274.372C221.833 271.103 219.278 268.58 215.918 268.595C212.589 268.595 209.791 271.103 209.913 274.357C210.065 278.189 212.893 280.439 215.827 280.119V280.104Z" fill="white"/>
<mask id="mask8_74_4" style="mask-type:luminance" maskUnits="userSpaceOnUse" x="199" y="356" width="38" height="115">
<path d="M204.304 447.516C205.399 449.341 206.661 451.074 207.923 452.807C208.82 454.069 209.732 455.331 210.568 456.654C212.53 459.771 214.05 463.101 213.138 466.993C212.773 468.544 213.457 469.714 214.825 470.277C216.68 471.037 217.836 469.821 218.657 468.407C218.748 468.24 218.855 468.072 218.946 467.905C221.743 463.009 223.963 457.87 225.012 452.306C225.772 448.246 226.746 444.187 226.244 440.416C226.305 438.409 226.168 436.493 225.955 434.639C225.681 432.267 225.286 429.971 225.012 427.66C224.571 423.92 225.605 420.362 227.217 417.017C229.209 412.897 231.459 408.868 233.45 404.747C238.179 395.017 237.419 385.271 233.146 375.647C231.155 371.177 228.859 366.844 228.129 361.993C227.947 360.777 227.855 359.515 227.901 358.208C227.931 357.539 227.855 357.067 227.703 356.763C227.156 355.623 225.636 356.733 224.769 357.25C221.439 359.257 219.113 362.404 216.772 365.369C212.667 370.553 207.832 375.251 206.494 382.352C205.353 388.479 205.794 394.211 208.744 399.517C212.286 405.933 211.648 411.604 207.239 416.607C206.889 417.002 206.524 417.382 206.129 417.777C196.125 427.584 199.348 439.276 204.304 447.501V447.516Z" fill="white"/>
</mask>
<g mask="url(#mask8_74_4)">
<path d="M220.48 355.623L225.969 471.037H238.178V355.623H220.48Z" fill="#2FB4F7"/>
<path d="M219.932 355.623L225.421 471.037H225.968L220.479 355.623H219.932Z" fill="#2FB4F7"/>
<path d="M219.386 355.623L224.875 471.037H225.422L219.934 355.623H219.386Z" fill="#2FB4F7"/>
<path d="M218.837 355.623L224.326 471.037H224.873L219.384 355.623H218.837Z" fill="#2FB4F7"/>
<path d="M218.291 355.623L223.779 471.037H224.327L218.838 355.623H218.291Z" fill="#2FB4F7"/>
<path d="M217.744 355.623L223.232 471.037H223.78L218.291 355.623H217.744Z" fill="#2FB4F7"/>
<path d="M217.196 355.623L222.684 471.037H223.232L217.743 355.623H217.196Z" fill="#2FB4F7"/>
<path d="M216.648 355.623L222.136 471.037H222.684L217.195 355.623H216.648Z" fill="#2FB4F7"/>
<path d="M216.117 355.623L221.591 471.037H222.138L216.649 355.623H216.117Z" fill="#2FB4F7"/>
<path d="M215.569 355.623L221.043 471.037H221.59L216.117 355.623H215.569Z" fill="#2FB4F7"/>
<path d="M215.021 355.623L220.495 471.037H221.042L215.569 355.623H215.021Z" fill="#2FB4F7"/>
<path d="M214.475 355.623L219.949 471.037H220.496L215.023 355.623H214.475Z" fill="#2FB4F7"/>
<path d="M213.927 355.623L219.401 471.037H219.948L214.475 355.623H213.927Z" fill="#2FB4F7"/>
<path d="M213.381 355.623L218.869 471.037H219.401L213.928 355.623H213.381Z" fill="#2FB4F7"/>
<path d="M212.832 355.623L218.321 471.037H218.868L213.38 355.623H212.832Z" fill="#2FB4F7"/>
<path d="M212.286 355.623L217.774 471.037H218.322L212.833 355.623H212.286Z" fill="#2FB4F7"/>
<path d="M211.738 355.623L217.226 471.037H217.774L212.285 355.623H211.738Z" fill="#2FB4F7"/>
<path d="M211.191 355.623L216.679 471.037H217.227L211.738 355.623H211.191Z" fill="#2FB4F7"/>
<path d="M210.644 355.623L216.133 471.037H216.68L211.191 355.623H210.644Z" fill="#2FB4F7"/>
<path d="M210.096 355.623L215.585 471.037H216.132L210.643 355.623H210.096Z" fill="#2FB4F7"/>
<path d="M209.547 355.623L215.036 471.037H215.583L210.095 355.623H209.547Z" fill="#2FB4F7"/>
<path d="M209.002 355.623L214.491 471.037H215.038L209.549 355.623H209.002Z" fill="#2FB4F7"/>
<path d="M208.453 355.623L213.942 471.037H214.489L209.001 355.623H208.453Z" fill="#2FB4F7"/>
<path d="M207.905 355.623L213.394 471.037H213.942L208.453 355.623H207.905Z" fill="#2FB4F7"/>
<path d="M207.359 355.623L212.847 471.037H213.395L207.906 355.623H207.359Z" fill="#2FB4F7"/>
<path d="M206.812 355.623L212.3 471.037H212.848L207.359 355.623H206.812Z" fill="#2FB4F7"/>
<path d="M206.264 355.623L211.752 471.037H212.3L206.811 355.623H206.264Z" fill="#2FB4F7"/>
<path d="M205.718 355.623L211.207 471.037H211.754L206.265 355.623H205.718Z" fill="#2FB4F7"/>
<path d="M205.169 355.623L210.658 471.037H211.205L205.717 355.623H205.169Z" fill="#2FB4F7"/>
<path d="M204.639 355.623L210.112 471.037H210.659L205.171 355.623H204.639Z" fill="#2FB4F7"/>
<path d="M204.09 355.623L209.564 471.037H210.111L204.638 355.623H204.09Z" fill="#2FB4F7"/>
<path d="M203.543 355.623L209.016 471.037H209.563L204.09 355.623H203.543Z" fill="#2FB4F7"/>
<path d="M209.017 471.037L203.543 355.623H196.124V471.037H209.017Z" fill="#2FB4F7"/>
</g>
<mask id="mask9_74_4" style="mask-type:luminance" maskUnits="userSpaceOnUse" x="177" y="375" width="34" height="97">
<path d="M183.885 452.503C186.986 458.175 190.909 463.344 193.691 469.213C195.151 472.299 197.614 472.132 199.849 469.213C203.817 463.967 206.356 458.296 207.922 452.823C209.336 447.897 209.944 443.123 210.112 438.972C210.036 430.731 208.956 423.418 207.238 416.637C205.064 408.062 201.871 400.369 198.359 392.751C196.033 387.704 193.737 382.641 191.38 377.593C191.015 376.817 190.802 375.692 189.708 375.723C189.419 375.723 189.16 375.799 188.948 375.92C188.324 376.255 187.99 377 187.655 377.669C187.625 377.73 187.594 377.791 187.579 377.851C186.12 380.907 187.351 383.948 187.959 386.852C189.373 393.603 188.78 399.989 185.222 405.903C180.768 413.307 177.94 421.32 177.772 429.865C177.62 437.847 180.038 445.433 183.9 452.519L183.885 452.503Z" fill="white"/>
</mask>
<g mask="url(#mask9_74_4)">
<path d="M185.102 375.677L177.606 387.643V407.727L210.097 428.071V375.677H185.102Z" fill="#635BFF"/>
<path d="M177.606 409.324L210.097 429.682V428.071L177.606 407.728V409.324Z" fill="#635BFF"/>
<path d="M177.606 410.935L210.097 431.294V429.682L177.606 409.324V410.935Z" fill="#635BFF"/>
<path d="M177.606 412.547L210.097 432.89V431.294L177.606 410.936V412.547Z" fill="#635BFF"/>
<path d="M177.606 414.159L210.097 434.502V432.89L177.606 412.547V414.159Z" fill="#635BFF"/>
<path d="M177.606 415.77L210.097 436.113V434.502L177.606 414.159V415.77Z" fill="#635BFF"/>
<path d="M177.606 417.382L210.097 437.725V436.114L177.606 415.771V417.382Z" fill="#635BFF"/>
<path d="M177.606 418.994L210.097 439.337V437.725L177.606 417.382V418.994Z" fill="#635BFF"/>
<path d="M177.606 420.59L210.097 440.948V439.337L177.606 418.994V420.59Z" fill="#635BFF"/>
<path d="M177.606 422.202L210.097 442.56V440.949L177.606 420.59V422.202Z" fill="#635BFF"/>
<path d="M177.606 423.813L210.097 444.156V442.56L177.606 422.202V423.813Z" fill="#635BFF"/>
<path d="M177.606 425.425L210.097 445.768V444.157L177.606 423.813V425.425Z" fill="#635BFF"/>
<path d="M177.606 427.037L210.097 447.38V445.768L177.606 425.425V427.037Z" fill="#635BFF"/>
<path d="M177.606 428.648L210.097 448.991V447.38L177.606 427.037V428.648Z" fill="#635BFF"/>
<path d="M177.606 430.26L210.097 450.603V448.992L177.606 428.648V430.26Z" fill="#635BFF"/>
<path d="M177.606 431.856L210.097 452.214V450.603L177.606 430.26V431.856Z" fill="#635BFF"/>
<path d="M177.606 433.468L210.097 453.811V452.215L177.606 431.856V433.468Z" fill="#635BFF"/>
<path d="M177.606 435.079L210.097 455.422V453.811L177.606 433.468V435.079Z" fill="#635BFF"/>
<path d="M177.606 436.691L210.097 457.034V455.423L177.606 435.08V436.691Z" fill="#635BFF"/>
<path d="M177.606 438.303L210.097 458.646V457.034L177.606 436.691V438.303Z" fill="#635BFF"/>
<path d="M177.606 439.915L209.824 460.091L210.097 459.65V458.646L177.606 438.303V439.915Z" fill="#635BFF"/>
<path d="M177.606 441.511L209.109 461.246L209.824 460.09L177.606 439.915V441.511Z" fill="#635BFF"/>
<path d="M177.605 443.122L208.378 462.401L209.108 461.246L177.605 441.511V443.122Z" fill="#635BFF"/>
<path d="M177.606 444.734L207.65 463.557L208.379 462.401L177.606 443.123V444.734Z" fill="#635BFF"/>
<path d="M177.605 446.346L206.934 464.713L207.649 463.557L177.605 444.734V446.346Z" fill="#635BFF"/>
<path d="M177.606 447.957L206.205 465.868L206.935 464.712L177.606 446.346V447.957Z" fill="#635BFF"/>
<path d="M177.607 449.569L205.491 467.023L206.206 465.868L177.607 447.958V449.569Z" fill="#635BFF"/>
<path d="M177.605 451.181L204.76 468.179L205.49 467.024L177.605 449.569V451.181Z" fill="#635BFF"/>
<path d="M177.607 452.777L204.031 469.334L204.761 468.179L177.607 451.181V452.777Z" fill="#635BFF"/>
<path d="M177.606 454.389L203.316 470.49L204.031 469.335L177.606 452.777V454.389Z" fill="#635BFF"/>
<path d="M177.606 456L202.586 471.645L203.316 470.49L177.606 454.389V456Z" fill="#635BFF"/>
<path d="M177.606 457.612L201.051 472.299H202.176L202.586 471.646L177.606 456V457.612Z" fill="#635BFF"/>
<path d="M201.05 472.299L177.605 457.612V472.299H201.05Z" fill="#635BFF"/>
</g>
<mask id="mask10_74_4" style="mask-type:luminance" maskUnits="userSpaceOnUse" x="215" y="407" width="30" height="67">
<path d="M215.676 456.775C215.783 458.828 216.148 460.835 216.756 462.766C217.106 463.921 217.547 465.062 218.063 466.156C218.337 466.749 218.641 467.342 218.961 467.92C219.265 468.498 219.599 469.06 219.964 469.623C220.694 470.763 219.797 472.694 221.332 473.029C223.476 473.485 225.742 473.667 227.961 473.059C229.056 472.74 229.984 472.086 229.892 471.037C229.193 463.283 234.286 458.205 238.285 452.625C241.341 448.352 243.85 443.958 244.64 438.515C245.553 432.16 244.154 426.291 242.025 420.544C240.794 417.214 239.623 413.9 238.771 410.449C238.559 409.582 238.3 408.563 237.601 408.046C237.358 407.864 237.069 407.757 236.704 407.727C236.491 407.727 236.293 407.727 236.111 407.788C233.268 408.533 233.131 416.393 233.328 418.309C233.997 424.877 231.245 430.244 225.97 434.653C225.894 434.714 225.818 434.775 225.742 434.836C221.849 438.044 218.976 441.754 217.303 446.041C216.817 447.288 216.437 448.58 216.163 449.918C215.707 452.093 215.54 454.388 215.676 456.791V456.775Z" fill="white"/>
</mask>
<g mask="url(#mask10_74_4)">
<path d="M229.01 407.697L226.288 409.506L245.522 438.227V407.697H229.01Z" fill="#635BFF"/>
<path d="M226.289 409.506L225.741 409.886L245.522 439.412V438.226L226.289 409.506Z" fill="#635BFF"/>
<path d="M225.741 409.886L225.194 410.251L245.522 440.598V439.413L225.741 409.886Z" fill="#635BFF"/>
<path d="M225.194 410.251L224.647 410.616L245.522 441.799V440.598L225.194 410.251Z" fill="#635BFF"/>
<path d="M224.647 410.616L224.099 410.981L245.522 442.985V441.799L224.647 410.616Z" fill="#635BFF"/>
<path d="M224.099 410.981L223.537 411.361L245.522 444.171V442.986L224.099 410.981Z" fill="#635BFF"/>
<path d="M223.537 411.361L222.989 411.726L245.522 445.357V444.171L223.537 411.361Z" fill="#635BFF"/>
<path d="M222.989 411.726L222.442 412.091L245.522 446.559V445.358L222.989 411.726Z" fill="#635BFF"/>
<path d="M222.442 412.091L221.895 412.456L245.522 447.744V446.559L222.442 412.091Z" fill="#635BFF"/>
<path d="M221.895 412.456L221.347 412.82L245.522 448.93V447.744L221.895 412.456Z" fill="#635BFF"/>
<path d="M221.347 412.82L220.8 413.2L245.522 450.116V448.93L221.347 412.82Z" fill="#635BFF"/>
<path d="M220.8 413.201L220.237 413.566L245.522 451.317V450.116L220.8 413.201Z" fill="#635BFF"/>
<path d="M220.237 413.565L219.69 413.93L245.522 452.503V451.317L220.237 413.565Z" fill="#635BFF"/>
<path d="M219.69 413.931L219.143 414.296L245.522 453.689V452.503L219.69 413.931Z" fill="#635BFF"/>
<path d="M219.143 414.295L218.595 414.66L245.522 454.875V453.689L219.143 414.295Z" fill="#635BFF"/>
<path d="M218.595 414.66L218.048 415.04L245.522 456.061V454.875L218.595 414.66Z" fill="#635BFF"/>
<path d="M218.048 415.041L217.501 415.405L245.522 457.262V456.061L218.048 415.041Z" fill="#635BFF"/>
<path d="M217.501 415.405L216.938 415.77L245.522 458.448V457.262L217.501 415.405Z" fill="#635BFF"/>
<path d="M216.938 415.77L216.391 416.135L245.522 459.634V458.448L216.938 415.77Z" fill="#635BFF"/>
<path d="M216.391 416.135L215.843 416.515L245.522 460.82V459.634L216.391 416.135Z" fill="#635BFF"/>
<path d="M215.843 416.515L215.539 416.713V417.245L245.522 462.021V460.82L215.843 416.515Z" fill="#635BFF"/>
<path d="M215.539 418.431L245.522 463.207V462.021L215.539 417.245V418.431Z" fill="#635BFF"/>
<path d="M215.539 419.617L245.522 464.393V463.207L215.539 418.431V419.617Z" fill="#635BFF"/>
<path d="M215.539 420.803L245.415 465.427L245.522 465.351V464.393L215.539 419.617V420.803Z" fill="#635BFF"/>
<path d="M215.539 422.004L244.868 465.792L245.415 465.427L215.539 420.803V422.004Z" fill="#635BFF"/>
<path d="M215.54 423.19L244.306 466.157L244.868 465.792L215.54 422.004V423.19Z" fill="#635BFF"/>
<path d="M215.54 424.376L243.758 466.537L244.306 466.157L215.54 423.19V424.376Z" fill="#635BFF"/>
<path d="M215.539 425.561L243.211 466.901L243.758 466.536L215.539 424.375V425.561Z" fill="#635BFF"/>
<path d="M215.54 426.747L242.664 467.266L243.211 466.901L215.54 425.562V426.747Z" fill="#635BFF"/>
<path d="M215.54 427.949L242.117 467.631L242.664 467.266L215.54 426.748V427.949Z" fill="#635BFF"/>
<path d="M215.539 429.135L241.568 468.011L242.115 467.631L215.539 427.949V429.135Z" fill="#635BFF"/>
<path d="M215.54 430.32L241.007 468.376L241.569 468.011L215.54 429.134V430.32Z" fill="#635BFF"/>
<path d="M233.1 473.667L241.006 468.376L215.539 430.32V473.667H233.1Z" fill="#635BFF"/>
</g>
<g opacity="0.5">
<path d="M216.161 449.903C216.875 454.176 217.195 458.448 216.738 462.766C216.556 464.439 216.267 466.111 215.841 467.799C215.644 468.559 215.37 469.684 216.161 469.912C217.392 470.262 217.529 468.832 217.666 468.118C217.787 467.464 217.909 466.826 218.016 466.172C218.487 463.298 218.73 460.394 218.38 457.521C218.715 453.568 218.107 449.782 217.271 446.042C216.86 444.202 216.404 442.393 215.978 440.568C213.576 430.214 214.823 420.301 220.615 411.619C228.506 399.791 229.419 387.065 227.792 373.624C227.457 370.888 227.412 368.06 227.457 365.293C227.472 364.168 227.761 363.088 228.096 362.009C227.913 360.792 227.822 359.53 227.868 358.223C227.898 357.554 227.822 357.082 227.67 356.778C226.956 357.067 226.454 358.861 226.226 359.5C225.496 361.583 225.268 363.803 225.268 366.007C225.268 370.295 226.15 374.506 226.499 378.779C227.305 388.418 226.636 397.799 221.437 406.328C217.62 412.562 214.443 418.948 213.485 426.383C212.664 432.647 213.606 438.622 215.036 444.612C215.461 446.376 215.826 448.155 216.13 449.934L216.161 449.903Z" fill="#E0E8F3"/>
</g>
<g opacity="0.5">
<path d="M194.677 399.7C195.711 405.994 194.327 411.893 193.096 417.914C192.305 421.73 191.363 425.547 190.952 429.408C190.466 434.031 191.773 438.531 193.202 442.864C195.772 450.709 196.912 458.722 196.73 466.947C196.73 467.616 196 468.711 197.292 468.833C198.417 468.939 198.311 467.86 198.311 467.099C198.311 465.305 198.28 463.511 198.25 461.52C198.463 455.24 197.186 448.961 195.088 442.955C192.32 435.034 192.123 427.113 194.647 419.298C196.897 412.349 197.353 404.976 196.167 397.769C195.574 394.181 194.601 390.668 193.369 387.232C192.746 385.484 192.047 383.751 191.302 382.033C190.952 381.196 189.979 377.517 188.945 375.905C188.322 376.24 187.987 376.985 187.653 377.654C187.622 377.715 187.592 377.775 187.577 377.836C187.82 378.779 188.033 379.722 188.352 380.664C189.188 383.127 190.602 385.332 191.454 387.764C192.822 391.657 194.008 395.625 194.692 399.7H194.677Z" fill="#E0E8F3"/>
</g>
<g opacity="0.5">
<path d="M225.284 469.578C226.333 469.623 226.349 468.711 226.257 467.86C226.121 466.522 226.014 465.184 225.893 463.846C225.011 456.517 228.675 450.862 232.81 445.479C237.402 439.504 240.291 433.027 239.652 425.38C239.363 421.959 238.801 418.538 238.162 415.162C237.873 413.688 237.706 412.41 237.706 410.89C237.706 410.601 237.615 409.263 237.569 408.047C237.326 407.864 237.037 407.758 236.672 407.728C236.459 407.728 236.262 407.728 236.079 407.788C235.927 408.168 235.821 408.564 235.76 408.959C235.547 410.616 235.775 413.095 236.079 414.737C236.976 419.541 238.025 424.285 237.752 429.287C237.417 435.186 234.665 439.899 231.366 444.476C229.937 446.468 228.553 448.505 227.276 450.603C225.193 454.009 224.159 457.719 224.22 461.748C224.25 463.739 224.828 465.746 223.977 467.738C223.506 468.818 224.327 469.547 225.284 469.578Z" fill="#E0E8F3"/>
</g>
<mask id="mask11_74_4" style="mask-type:luminance" maskUnits="userSpaceOnUse" x="181" y="467" width="65" height="62">
<path d="M204.881 467.92C197.507 468.011 191.654 468.027 185.8 468.164C181.847 468.255 180.813 469.152 181.376 473.074C182.44 480.555 183.702 488.02 185.253 495.424C187.138 504.456 189.373 513.396 191.486 522.381C192.49 526.623 194.421 528.113 198.8 528.159C208.576 528.265 218.352 528.433 228.143 528.478C232.644 528.493 233.161 527.84 234.301 523.552C238.208 508.834 242.01 494.087 245.263 479.217C245.552 477.864 245.613 476.541 245.674 475.218C245.902 470.201 244.518 469.091 239.41 468.802C227.398 468.103 215.387 467.586 204.896 467.92H204.881Z" fill="white"/>
</mask>
<g mask="url(#mask11_74_4)">
<path d="M245.597 467.601L245.886 490.863V467.601H245.597Z" fill="#0A2540"/>
<path d="M244.715 467.601L245.445 528.509H245.886V490.863L245.597 467.601H244.715Z" fill="#0A2540"/>
<path d="M243.818 467.601L244.547 528.509H245.444L244.715 467.601H243.818Z" fill="#0A2540"/>
<path d="M242.921 467.601L243.651 528.509H244.548L243.818 467.601H242.921Z" fill="#0A2540"/>
<path d="M242.024 467.601L242.769 528.509H243.651L242.921 467.601H242.024Z" fill="#0A2540"/>
<path d="M241.127 467.601L241.872 528.509H242.769L242.024 467.601H241.127Z" fill="#0A2540"/>
<path d="M240.23 467.601L240.975 528.509H241.872L241.127 467.601H240.23Z" fill="#0A2540"/>
<path d="M239.347 467.601L240.077 528.509H240.974L240.229 467.601H239.347Z" fill="#0A2540"/>
<path d="M238.45 467.601L239.18 528.509H240.077L239.347 467.601H238.45Z" fill="#0A2540"/>
<path d="M237.554 467.601L238.284 528.509H239.181L238.451 467.601H237.554Z" fill="#0A2540"/>
<path d="M236.657 467.601L237.387 528.509H238.284L237.554 467.601H236.657Z" fill="#0A2540"/>
<path d="M235.76 467.601L236.505 528.509H237.387L236.657 467.601H235.76Z" fill="#0A2540"/>
<path d="M234.863 467.601L235.608 528.509H236.505L235.76 467.601H234.863Z" fill="#0A2540"/>
<path d="M233.966 467.601L234.711 528.509H235.608L234.863 467.601H233.966Z" fill="#0A2540"/>
<path d="M233.085 467.601L233.815 528.509H234.712L233.967 467.601H233.085Z" fill="#0A2540"/>
<path d="M232.187 467.601L232.917 528.509H233.814L233.084 467.601H232.187Z" fill="#0A2540"/>
<path d="M231.289 467.601L232.019 528.509H232.916L232.186 467.601H231.289Z" fill="#0A2540"/>
<path d="M230.393 467.601L231.138 528.509H232.019L231.29 467.601H230.393Z" fill="#0A2540"/>
<path d="M229.496 467.601L230.241 528.509H231.138L230.393 467.601H229.496Z" fill="#0A2540"/>
<path d="M228.598 467.601L229.343 528.509H230.24L229.495 467.601H228.598Z" fill="#0A2540"/>
<path d="M227.717 467.601L228.447 528.509H229.344L228.599 467.601H227.717Z" fill="#0A2540"/>
<path d="M226.819 467.601L227.549 528.509H228.446L227.717 467.601H226.819Z" fill="#0A2540"/>
<path d="M225.924 467.601L226.654 528.509H227.551L226.821 467.601H225.924Z" fill="#0A2540"/>
<path d="M225.025 467.601L225.77 528.509H226.652L225.923 467.601H225.025Z" fill="#0A2540"/>
<path d="M224.128 467.601L224.874 528.509H225.771L225.026 467.601H224.128Z" fill="#0A2540"/>
<path d="M223.231 467.601L223.976 528.509H224.873L224.128 467.601H223.231Z" fill="#0A2540"/>
<path d="M222.35 467.601L223.079 528.509H223.977L223.232 467.601H222.35Z" fill="#0A2540"/>
<path d="M221.453 467.601L222.183 528.509H223.08L222.35 467.601H221.453Z" fill="#0A2540"/>
<path d="M220.556 467.601L221.286 528.509H222.183L221.453 467.601H220.556Z" fill="#0A2540"/>
<path d="M219.659 467.601L220.389 528.509H221.286L220.556 467.601H219.659Z" fill="#0A2540"/>
<path d="M218.762 467.601L219.507 528.509H220.389L219.659 467.601H218.762Z" fill="#0A2540"/>
<path d="M217.865 467.601L218.61 528.509H219.507L218.762 467.601H217.865Z" fill="#0A2540"/>
<path d="M216.968 467.601L217.713 528.509H218.61L217.865 467.601H216.968Z" fill="#0A2540"/>
<path d="M216.086 467.601L216.816 528.509H217.713L216.968 467.601H216.086Z" fill="#0A2540"/>
<path d="M215.188 467.601L215.918 528.509H216.815L216.085 467.601H215.188Z" fill="#0A2540"/>
<path d="M214.292 467.601L215.022 528.509H215.919L215.189 467.601H214.292Z" fill="#0A2540"/>
<path d="M213.396 467.601L214.141 528.509H215.022L214.293 467.601H213.396Z" fill="#0A2540"/>
<path d="M212.498 467.601L213.243 528.509H214.14L213.395 467.601H212.498Z" fill="#0A2540"/>
<path d="M211.601 467.601L212.346 528.509H213.243L212.498 467.601H211.601Z" fill="#0A2540"/>
<path d="M210.719 467.601L211.449 528.509H212.346L211.601 467.601H210.719Z" fill="#0A2540"/>
<path d="M209.821 467.601L210.551 528.509H211.448L210.718 467.601H209.821Z" fill="#0A2540"/>
<path d="M208.924 467.601L209.654 528.509H210.551L209.821 467.601H208.924Z" fill="#0A2540"/>
<path d="M208.028 467.601L208.773 528.509H209.655L208.925 467.601H208.028Z" fill="#0A2540"/>
<path d="M207.13 467.601L207.875 528.509H208.772L208.027 467.601H207.13Z" fill="#0A2540"/>
<path d="M206.234 467.601L206.979 528.509H207.876L207.131 467.601H206.234Z" fill="#0A2540"/>
<path d="M205.353 467.601L206.082 528.509H206.979L206.235 467.601H205.353Z" fill="#0A2540"/>
<path d="M204.455 467.601L205.185 528.509H206.082L205.352 467.601H204.455Z" fill="#0A2540"/>
<path d="M203.558 467.601L204.288 528.509H205.185L204.455 467.601H203.558Z" fill="#0A2540"/>
<path d="M202.659 467.601L203.389 528.509H204.286L203.556 467.601H202.659Z" fill="#0A2540"/>
<path d="M201.763 467.601L202.508 528.509H203.39L202.66 467.601H201.763Z" fill="#0A2540"/>
<path d="M200.866 467.601L201.611 528.509H202.508L201.763 467.601H200.866Z" fill="#0A2540"/>
<path d="M199.969 467.601L200.714 528.509H201.611L200.866 467.601H199.969Z" fill="#0A2540"/>
<path d="M199.087 467.601L199.817 528.509H200.714L199.969 467.601H199.087Z" fill="#0A2540"/>
<path d="M198.191 467.601L198.92 528.509H199.817L199.088 467.601H198.191Z" fill="#0A2540"/>
<path d="M197.295 467.601L198.025 528.509H198.922L198.192 467.601H197.295Z" fill="#0A2540"/>
<path d="M196.397 467.601L197.142 528.509H198.023L197.294 467.601H196.397Z" fill="#0A2540"/>
<path d="M195.501 467.601L196.246 528.509H197.143L196.398 467.601H195.501Z" fill="#0A2540"/>
<path d="M194.602 467.601L195.347 528.509H196.244L195.499 467.601H194.602Z" fill="#0A2540"/>
<path d="M193.721 467.601L194.451 528.509H195.348L194.603 467.601H193.721Z" fill="#0A2540"/>
<path d="M192.823 467.601L193.553 528.509H194.45L193.72 467.601H192.823Z" fill="#0A2540"/>
<path d="M191.927 467.601L192.657 528.509H193.554L192.824 467.601H191.927Z" fill="#0A2540"/>
<path d="M191.03 467.601L191.775 528.509H192.656L191.927 467.601H191.03Z" fill="#0A2540"/>
<path d="M190.133 467.601L190.878 528.509H191.775L191.03 467.601H190.133Z" fill="#0A2540"/>
<path d="M189.237 467.601L189.982 528.509H190.879L190.134 467.601H189.237Z" fill="#0A2540"/>
<path d="M188.354 467.601L189.084 528.509H189.981L189.236 467.601H188.354Z" fill="#0A2540"/>
<path d="M187.456 467.601L188.186 528.509H189.083L188.353 467.601H187.456Z" fill="#0A2540"/>
<path d="M186.559 467.601L187.288 528.509H188.186L187.456 467.601H186.559Z" fill="#0A2540"/>
<path d="M185.662 467.601L186.407 528.509H187.289L186.559 467.601H185.662Z" fill="#0A2540"/>
<path d="M184.765 467.601L185.51 528.509H186.407L185.662 467.601H184.765Z" fill="#0A2540"/>
<path d="M183.868 467.601L184.613 528.509H185.51L184.765 467.601H183.868Z" fill="#0A2540"/>
<path d="M182.986 467.601L183.716 528.509H184.613L183.868 467.601H182.986Z" fill="#0A2540"/>
<path d="M182.09 467.601L182.82 528.509H183.717L182.987 467.601H182.09Z" fill="#0A2540"/>
<path d="M181.192 467.601L181.921 528.509H182.818L182.089 467.601H181.192Z" fill="#0A2540"/>
<path d="M181.922 528.509L181.192 467.601H180.827V528.509H181.922Z" fill="#0A2540"/>
</g>
<path d="M281.051 210.302C282.83 222.359 289.596 233.732 303.158 234.948C311.596 235.708 319.031 231.573 323.562 224.609C328.701 216.734 333.004 208.432 336.105 199.538C338.599 192.362 344.893 183.391 342.932 175.394C341.366 169.008 333.551 163.246 327.591 161.482C305.089 154.823 282.967 178.07 280.808 198.975C280.428 202.624 280.489 206.486 281.051 210.287V210.302Z" fill="#0A2540"/>
<path d="M323.396 246.868C323.138 258.697 324.567 269.218 329.417 279.071C331.515 283.328 334.814 286.734 337.673 290.443C338.479 291.508 338.843 292.435 338.889 293.727C339.087 299.125 338.737 304.507 338.281 309.874C338.174 311.06 337.794 311.592 336.669 311.972C330.648 313.979 324.871 316.564 319.048 319.088C316.995 319.97 317.391 320.699 317.983 321.961C320.644 327.541 324.825 331.829 329.493 335.782C338.676 343.566 349.152 348.477 361.224 348.036C375.82 347.489 387.755 340.982 396.619 329.199C397.927 327.465 397.486 326.036 395.828 324.607C393.502 322.6 390.857 321.034 388.029 319.833C385.642 318.829 383.057 318.54 380.609 317.704C376.443 316.275 378.328 309.357 382.236 308.962C393.472 307.822 404.556 303.762 413.632 296.981C421.143 291.371 427.803 283.997 430.007 274.661C431.102 270.009 431.117 265.098 430.083 260.446C429.034 255.732 426.054 251.566 426.677 246.549C427.21 242.262 428.928 238.217 429.505 233.93C430.524 226.312 427.985 220.9 423.333 215.107C416.582 206.714 408.296 200.268 397.638 197.805C388.53 195.707 379.469 196.832 370.529 199.538C356.906 203.658 344.91 210.485 334.693 220.398C330.056 224.898 326.908 230.448 324.232 236.195C322.545 239.814 323.579 243.964 323.427 246.868H323.396Z" fill="#FFD8B5"/>
<path d="M456.918 457.202C460.962 456.882 464.9 455.408 468.504 452.321C477.611 444.521 482.202 431.4 487.372 420.909C499.231 396.887 511.029 372.636 521.353 347.915C524.166 341.164 529.213 337.348 535.569 334.672C536.283 334.368 536.983 334.003 537.728 333.82C549.861 330.719 555.38 320.562 561.735 311.318C562.434 310.3 563.149 309.296 563.757 308.232C564.441 307.016 565.566 305.769 564.517 304.264C563.575 302.926 562.085 302.91 560.61 302.91C555.228 302.91 551.229 305.419 548.127 309.631C547.458 310.528 546.592 311.303 546.06 312.261C542.593 318.632 536.511 316.761 531.129 317.035C529.882 317.096 529.898 316.321 530.567 315.515C531.57 314.314 532.619 313.143 533.638 311.957C535.721 309.539 537.287 306.848 537.424 303.595C537.53 300.995 535.569 299.322 533.623 300.523C526.355 305.039 518.145 308.384 513.234 315.986C510.543 320.137 510.026 325.747 507.745 330.263C504.933 335.812 501.223 340.845 498.045 346.151C492.815 354.893 487.6 363.636 482.126 372.226C473.43 385.894 464.459 399.396 454.866 412.456C452.539 415.618 452.402 415.603 450.274 412.03C448.495 409.065 446.762 406.07 444.922 403.136C443.417 400.734 442.079 400.718 440.923 403.136C435.693 414.204 430.569 425.334 425.339 436.402C422.678 442.028 430.493 446.848 434.431 449.569C441.136 454.176 449.194 457.764 456.903 457.156L456.918 457.202Z" fill="#FFD8B5"/>
<path d="M337.825 241.607C352.238 241.151 367.777 237.928 379.788 230.037C385.064 226.571 389.017 221.994 391.86 216.369C393.563 212.978 393.624 213.1 395.57 216.156C403.111 228.091 413.617 235.784 427.696 238.126C435.876 239.494 444.755 233.002 445.941 225.065C446.549 220.96 442.626 222.572 440.391 220.717C437.335 218.178 437.305 212.309 436.986 208.797C435.997 198.382 430.874 189.138 423.5 181.871C404.783 163.382 375.941 160.919 352.649 171.045C332.899 179.62 319.413 196.786 314.593 217.615C313.422 222.663 313.088 227.772 313.209 232.941C313.407 241.425 328.048 241.683 334.176 241.683C335.377 241.683 336.608 241.668 337.825 241.623V241.607Z" fill="#0A2540"/>
<mask id="mask12_74_4" style="mask-type:luminance" maskUnits="userSpaceOnUse" x="269" y="319" width="178" height="163">
<path d="M398.961 434.091C405.089 440.082 411.11 445.829 416.948 451.758C421.205 456.076 421.524 456.167 423.987 450.527C431.194 433.97 439.663 417.975 445.972 401.022C446.824 398.726 446.961 396.704 446.018 394.317C440.697 380.877 433.916 368.045 426.086 355.897C419 344.904 411.49 332.726 400.026 325.823C395.434 323.056 395.449 323.132 392.15 327.146C386.023 334.596 378.36 339.902 369.146 342.73C351.601 348.127 333.766 340.875 323.975 324.546C323.686 324.059 323.428 323.557 323.154 323.071C320.372 318.13 319.353 317.871 314.761 321.368C304.498 329.198 297.018 339.354 290.936 350.59C276.69 376.863 270.092 406.633 269.286 436.372C269.21 439.458 270.289 440.766 273.467 441.496C286.71 444.521 298.995 449.995 310.58 457.08C313.104 458.631 313.925 460.668 313.955 463.511C313.986 467.996 314.29 472.481 314.624 476.952C314.837 479.734 315.704 481.528 319.307 481.452C332.352 481.163 345.443 481.771 358.458 481.041C367.139 480.555 375.73 481.178 384.366 481.269C386.935 481.3 388.091 481.087 388.364 477.849C388.851 472.36 390.614 466.978 391.511 461.504C392.971 452.595 394.856 443.807 398.292 435.414C398.46 435.019 398.657 434.639 398.931 434.091H398.961Z" fill="white"/>
</mask>
<g mask="url(#mask12_74_4)">
<path d="M388.196 317.871L446.96 398.164V317.871H388.196Z" fill="#C0BDFF"/>
<path d="M384.912 317.871L446.96 402.649V398.164L388.196 317.871H384.912Z" fill="#C0BDFF"/>
<path d="M381.628 317.871L446.96 407.134V402.649L384.912 317.871H381.628Z" fill="#C0BDFF"/>
<path d="M378.359 317.871L446.96 411.604V407.134L381.628 317.871H378.359Z" fill="#C0BDFF"/>
<path d="M375.075 317.871L446.96 416.09V411.604L378.359 317.871H375.075Z" fill="#C0BDFF"/>
<path d="M371.791 317.871L446.96 420.56V416.09L375.075 317.871H371.791Z" fill="#C0BDFF"/>
<path d="M368.522 317.871L446.96 425.045V420.56L371.791 317.871H368.522Z" fill="#C0BDFF"/>
<path d="M365.238 317.871L446.96 429.53V425.045L368.522 317.871H365.238Z" fill="#C0BDFF"/>
<path d="M361.969 317.871L446.96 434V429.53L365.238 317.871H361.969Z" fill="#C0BDFF"/>
<path d="M358.685 317.871L446.96 438.485V434L361.969 317.871H358.685Z" fill="#C0BDFF"/>
<path d="M355.401 317.871L446.397 442.195L446.96 441.8V438.485L358.685 317.871H355.401Z" fill="#C0BDFF"/>
<path d="M352.132 317.871L444.254 443.761L446.397 442.195L355.401 317.871H352.132Z" fill="#C0BDFF"/>
<path d="M348.847 317.871L442.124 445.327L444.253 443.761L352.131 317.871H348.847Z" fill="#C0BDFF"/>
<path d="M345.564 317.871L439.996 446.893L442.125 445.327L348.848 317.871H345.564Z" fill="#C0BDFF"/>
<path d="M342.295 317.871L437.852 448.459L439.996 446.893L345.563 317.871H342.295Z" fill="#C0BDFF"/>
<path d="M339.01 317.871L435.723 450.01L437.851 448.459L342.294 317.871H339.01Z" fill="#C0BDFF"/>
<path d="M335.728 317.871L433.582 451.576L435.725 450.01L339.012 317.871H335.728Z" fill="#C0BDFF"/>
<path d="M332.459 317.871L431.452 453.142L433.581 451.576L335.727 317.871H332.459Z" fill="#C0BDFF"/>
<path d="M329.174 317.871L429.308 454.708L431.452 453.142L332.458 317.871H329.174Z" fill="#C0BDFF"/>
<path d="M325.905 317.871L427.179 456.259L429.307 454.708L329.173 317.871H325.905Z" fill="#C0BDFF"/>
<path d="M322.621 317.871L425.051 457.825L427.18 456.259L325.905 317.871H322.621Z" fill="#C0BDFF"/>
<path d="M319.337 317.871L422.907 459.391L425.051 457.825L322.621 317.871H319.337Z" fill="#C0BDFF"/>
<path d="M316.068 317.871L420.779 460.957L422.907 459.391L319.337 317.871H316.068Z" fill="#C0BDFF"/>
<path d="M314.213 317.871L313.286 318.555L418.635 462.523L420.778 460.957L316.068 317.871H314.213Z" fill="#C0BDFF"/>
<path d="M313.269 318.587L418.627 462.54L416.492 464.103L311.134 320.149L313.269 318.587Z" fill="#C0BDFF"/>
<path d="M311.142 320.141L416.5 464.095L414.365 465.657L309.007 321.704L311.142 320.141Z" fill="#C0BDFF"/>
<path d="M309.006 321.708L414.364 465.662L412.229 467.224L306.871 323.271L309.006 321.708Z" fill="#C0BDFF"/>
<path d="M306.866 323.272L412.224 467.226L410.089 468.788L304.731 324.835L306.866 323.272Z" fill="#C0BDFF"/>
<path d="M304.732 324.839L410.09 468.792L407.955 470.355L302.597 326.402L304.732 324.839Z" fill="#C0BDFF"/>
<path d="M302.603 326.394L407.961 470.347L405.826 471.91L300.468 327.956L302.603 326.394Z" fill="#C0BDFF"/>
<path d="M300.467 327.946L405.825 471.899L403.691 473.461L298.333 329.508L300.467 327.946Z" fill="#C0BDFF"/>
<path d="M298.328 329.525L403.685 473.478L401.551 475.041L296.193 331.087L298.328 329.525Z" fill="#C0BDFF"/>
<path d="M296.202 331.089L401.559 475.042L399.425 476.604L294.067 332.651L296.202 331.089Z" fill="#C0BDFF"/>
<path d="M294.051 332.655L399.409 476.608L397.274 478.171L291.916 334.218L294.051 332.655Z" fill="#C0BDFF"/>
<path d="M291.924 334.21L397.282 478.164L395.147 479.726L289.789 335.773L291.924 334.21Z" fill="#C0BDFF"/>
<path d="M289.789 335.762L395.146 479.715L393.012 481.277L287.654 337.324L289.789 335.762Z" fill="#C0BDFF"/>
<path d="M287.666 337.302L285.523 338.868L390.112 481.786H392.316L393.016 481.269L287.666 337.302Z" fill="#C0BDFF"/>
<path d="M285.523 338.868L283.395 340.434L386.843 481.787H390.112L285.523 338.868Z" fill="#C0BDFF"/>
<path d="M283.394 340.434L281.25 342L383.559 481.786H386.843L283.394 340.434Z" fill="#C0BDFF"/>
<path d="M281.25 342L279.122 343.551L380.29 481.786H383.558L281.25 342Z" fill="#C0BDFF"/>
<path d="M279.122 343.551L276.994 345.117L377.006 481.786H380.29L279.122 343.551Z" fill="#C0BDFF"/>
<path d="M276.994 345.117L274.85 346.683L373.723 481.786H377.007L276.994 345.117Z" fill="#C0BDFF"/>
<path d="M274.849 346.683L272.721 348.249L370.453 481.786H373.721L274.849 346.683Z" fill="#C0BDFF"/>
<path d="M272.72 348.249L270.577 349.8L367.168 481.787H370.452L272.72 348.249Z" fill="#C0BDFF"/>
<path d="M270.577 349.8L269.224 350.803V352.43L363.885 481.787H367.169L270.577 349.8Z" fill="#C0BDFF"/>
<path d="M269.225 356.9L360.617 481.787H363.886L269.225 352.43V356.9Z" fill="#C0BDFF"/>
<path d="M269.224 361.385L357.332 481.786H360.616L269.224 356.9V361.385Z" fill="#C0BDFF"/>
<path d="M269.224 365.87L354.048 481.786H357.332L269.224 361.385V365.87Z" fill="#C0BDFF"/>
<path d="M269.223 370.341L350.778 481.787H354.047L269.223 365.871V370.341Z" fill="#C0BDFF"/>
<path d="M269.224 374.826L347.495 481.786H350.779L269.224 370.34V374.826Z" fill="#C0BDFF"/>
<path d="M269.225 379.311L344.226 481.786H347.495L269.225 374.826V379.311Z" fill="#C0BDFF"/>
<path d="M269.224 383.781L340.941 481.786H344.225L269.224 379.311V383.781Z" fill="#C0BDFF"/>
<path d="M269.223 388.266L337.656 481.786H340.94L269.223 383.781V388.266Z" fill="#C0BDFF"/>
<path d="M269.225 392.751L334.389 481.786H337.658L269.225 388.266V392.751Z" fill="#C0BDFF"/>
<path d="M269.224 397.221L331.105 481.786H334.389L269.224 392.751V397.221Z" fill="#C0BDFF"/>
<path d="M269.224 401.706L327.82 481.786H331.104L269.224 397.221V401.706Z" fill="#C0BDFF"/>
<path d="M269.224 406.192L324.551 481.786H327.82L269.224 401.707V406.192Z" fill="#C0BDFF"/>
<path d="M269.224 410.661L321.268 481.786H324.552L269.224 406.191V410.661Z" fill="#C0BDFF"/>
<path d="M269.225 415.147L317.984 481.786H321.268L269.225 410.662V415.147Z" fill="#C0BDFF"/>
<path d="M269.223 419.617L314.713 481.786H317.982L269.223 415.147V419.617Z" fill="#C0BDFF"/>
<path d="M269.223 424.102L311.429 481.786H314.714L269.223 419.617V424.102Z" fill="#C0BDFF"/>
<path d="M269.224 428.587L308.162 481.786H311.431L269.224 424.102V428.587Z" fill="#C0BDFF"/>
<path d="M269.224 433.057L304.878 481.787H308.162L269.224 428.587V433.057Z" fill="#C0BDFF"/>
<path d="M269.223 437.542L301.593 481.786H304.877L269.223 433.057V437.542Z" fill="#C0BDFF"/>
<path d="M269.223 442.028L298.324 481.786H301.593L269.223 437.542V442.028Z" fill="#C0BDFF"/>
<path d="M269.224 446.498L295.041 481.787H298.325L269.224 442.028V446.498Z" fill="#C0BDFF"/>
<path d="M269.225 450.983L291.757 481.786H295.041L269.225 446.498V450.983Z" fill="#C0BDFF"/>
<path d="M269.224 455.468L288.488 481.786H291.757L269.224 450.983V455.468Z" fill="#C0BDFF"/>
<path d="M269.224 459.938L285.203 481.787H288.487L269.224 455.468V459.938Z" fill="#C0BDFF"/>
<path d="M269.224 464.423L281.92 481.786H285.204L269.224 459.938V464.423Z" fill="#C0BDFF"/>
<path d="M269.224 468.909L278.651 481.786H281.92L269.224 464.423V468.909Z" fill="#C0BDFF"/>
<path d="M269.224 473.379L275.366 481.787H278.65L269.224 468.909V473.379Z" fill="#C0BDFF"/>
<path d="M269.225 477.864L272.098 481.786H275.367L269.225 473.378V477.864Z" fill="#C0BDFF"/>
<path d="M272.098 481.786L269.225 477.864V481.786H272.098Z" fill="#C0BDFF"/>
</g>
<path d="M383.741 495.485C404.205 495.926 425.324 493.007 445.56 497.036C449.574 497.842 458.438 499.803 460.993 495.257C461.798 493.813 461.403 491.882 461.099 490.346C459.214 480.494 455.732 474.032 442.778 471.052C433.124 468.833 423.423 469.045 413.677 469.106C409.481 469.121 405.194 466.765 401.225 465.609C387.8 461.687 373.569 459.923 359.505 459.36C352.375 459.072 345.244 459.087 338.113 459.224C331.043 459.36 323.852 459.102 316.858 460.242C315.49 460.47 314.988 459.786 314.805 458.676C313.376 450.025 307.842 445.281 299.921 442.499C291.513 439.55 283.105 436.661 274.499 434.365C272.796 433.909 272.462 433.878 272.021 435.87C270.485 442.666 270.136 449.569 269.315 456.426C268.068 466.841 266.943 480.449 274.408 488.963C278.179 493.266 284.078 498.541 289.643 500.214C296.439 502.251 303.889 501.309 310.776 500.29C318.241 499.18 325.737 498.009 333.263 497.401C349.045 496.139 364.827 495.105 383.741 495.516V495.485Z" fill="#FFD8B5"/>
<path d="M382.357 293.241C387.982 293.438 395.159 291.31 397.257 285.912C398.914 281.625 392.012 280.773 389.396 279.861C382.722 277.52 376.017 275.239 369.175 273.415C366.59 272.715 365.389 275.026 365.207 277.322C364.507 285.715 372.687 291.827 380.152 293.028C380.852 293.134 381.597 293.21 382.372 293.241H382.357Z" fill="white"/>
<g opacity="0.5">
<path d="M408.568 358.177C408.568 356.611 408.599 355.365 408.568 354.133C408.538 353.51 408.766 352.597 407.869 352.476C406.881 352.339 407.109 353.327 406.896 353.89C405.604 357.371 406.85 360.838 407.261 364.213C408.188 371.967 411.016 379.129 415.577 385.529C419.044 390.395 419.424 395.214 417.128 400.916C413.57 409.765 408.219 417.397 402.715 425.014C401.21 427.097 399.917 429.348 398.549 431.522C398.23 432.039 398.154 432.647 398.686 433.042C399.294 433.483 399.735 433.027 400.024 432.525C406.577 421.639 415.395 412.152 419.439 399.7C421.036 394.789 420.853 390.562 418.101 386.335C414.361 380.588 411.077 374.643 409.709 367.817C409.055 364.517 408.355 361.233 408.568 358.177Z" fill="#635BFF"/>
</g>
<path d="M355.005 274.175C357.088 273.612 359.064 272.35 359.779 270.465C360.904 267.546 358.684 263.714 356.191 262.285C353.287 260.613 347.159 261.16 345.502 264.459C343.404 268.625 347.144 273.551 351.28 274.372C352.39 274.585 353.712 274.524 354.989 274.175H355.005Z" fill="#EFA49E"/>
<g opacity="0.5">
<path d="M355.858 430.473C347.921 430.975 340.365 428.679 333.492 423.981C332.687 423.433 331.653 422.384 330.938 423.555C330.33 424.528 331.774 424.893 332.443 425.38C341.824 432.085 352.376 433.316 363.46 432.009C363.901 431.963 364.402 431.872 364.463 431.34C364.554 430.534 363.901 430.488 363.353 430.488C360.997 430.458 358.625 430.488 355.842 430.488L355.858 430.473Z" fill="#635BFF"/>
</g>
<path d="M410.47 244.086C408.129 243.295 405.696 243.964 405.149 246.701C404.449 250.122 408.463 251.946 411.094 250.092C413.131 248.647 413.024 244.953 410.47 244.086Z" fill="black"/>
<path d="M368.734 250.38C370.559 251.445 373.371 251.247 374.557 249.301C375.409 247.902 375.211 245.956 374.086 244.77C371.805 242.353 367.761 243.782 367.122 246.99C366.818 248.541 367.579 249.711 368.734 250.38Z" fill="black"/>
<path d="M387.375 195.98C388.515 201.469 390.491 206.881 393.274 211.99C393.654 212.704 394.171 213.541 395.053 213.069C396.193 212.461 395.144 211.731 394.825 211.169C392.103 206.258 390.355 200.982 389.047 195.554C388.865 194.779 389.275 193.395 387.861 193.684C386.918 193.882 387.511 195.037 387.375 195.98Z" fill="#425466"/>
<path d="M375.119 309.768C375.88 309.768 376.336 309.798 376.777 309.768C377.324 309.722 378.008 309.692 377.947 308.931C377.902 308.217 377.218 308.247 376.685 308.171C374.055 307.791 371.425 307.365 368.779 307.031C365.769 306.651 362.956 305.738 360.235 304.431C359.581 304.112 358.547 303.108 358 304.416C357.604 305.358 358.729 305.556 359.383 305.936C362.622 307.791 366.225 308.46 369.813 309.114C371.668 309.448 373.553 309.6 375.119 309.783V309.768Z" fill="#EFA49E"/>
<path d="M313.194 459.756C306.032 460.151 299.738 461.96 293.702 464.697C293.003 465.016 291.68 465.412 292.394 466.567C292.911 467.419 293.748 466.537 294.417 466.278C299.92 464.104 305.379 461.793 311.46 461.839C311.992 461.839 312.555 461.611 313.072 461.413C313.65 461.215 314.608 461.276 314.364 460.303C314.151 459.452 313.285 459.771 313.178 459.756H313.194Z" fill="#928CFF"/>
<path d="M393.517 263.152C393.395 265.371 391.905 266.223 390.415 267.044C390.035 267.242 389.625 267.135 389.442 266.785C389.275 266.436 389.397 265.98 389.792 265.812C393.259 264.322 391.495 261.54 391.312 259.244C391.115 256.72 390.355 254.242 390.431 251.673C390.446 251.11 390.4 250.365 391.145 250.35C391.936 250.335 391.738 251.14 391.829 251.627C392.468 255.519 392.62 259.487 393.532 263.152H393.517Z" fill="#EFA49E"/>
<mask id="mask13_74_4" style="mask-type:luminance" maskUnits="userSpaceOnUse" x="269" y="425" width="47" height="35">
<path d="M315.232 454.495C315.293 455.727 315.855 458.038 315.186 459.163C313.757 461.52 304.3 455.727 302.628 454.83C293.292 449.904 282.878 447.076 272.782 444.141C269.772 443.275 269.909 441.967 269.392 439.048C268.859 436.007 269.042 432.829 270.076 429.91C270.684 428.223 271.824 426.641 273.466 425.896C274.941 425.243 276.629 425.334 278.225 425.455C288.351 426.292 298.371 428.466 307.934 431.887C309.88 432.586 312.176 433.377 313.727 434.806C315.171 436.144 314.913 436.95 314.852 438.759C314.715 442.59 314.867 446.422 315.004 450.238C315.004 450.497 315.125 452.428 315.247 454.48L315.232 454.495Z" fill="white"/>
</mask>
<g mask="url(#mask13_74_4)">
<path d="M312.662 425.228L315.855 429.591V425.228H312.662Z" fill="#C0BDFF"/>
<path d="M309.393 425.228L315.855 434.061V429.591L312.662 425.228H309.393Z" fill="#C0BDFF"/>
<path d="M306.109 425.228L315.855 438.546V434.061L309.393 425.228H306.109Z" fill="#C0BDFF"/>
<path d="M302.825 425.228L315.855 443.032V438.546L306.109 425.228H302.825Z" fill="#C0BDFF"/>
<path d="M299.556 425.228L315.855 447.502V443.032L302.825 425.228H299.556Z" fill="#C0BDFF"/>
<path d="M296.272 425.228L315.855 451.987V447.502L299.556 425.228H296.272Z" fill="#C0BDFF"/>
<path d="M293.003 425.228L315.855 456.472V451.987L296.272 425.228H293.003Z" fill="#C0BDFF"/>
<path d="M289.719 425.228L315.855 460.942V456.472L293.003 425.228H289.719Z" fill="#C0BDFF"/>
<path d="M286.435 425.228L312.981 461.504H315.855V460.942L289.719 425.228H286.435Z" fill="#C0BDFF"/>
<path d="M283.165 425.228L309.712 461.504H312.981L286.434 425.228H283.165Z" fill="#C0BDFF"/>
<path d="M279.882 425.228L306.428 461.504H309.712L283.166 425.228H279.882Z" fill="#C0BDFF"/>
<path d="M276.596 425.228L303.158 461.504H306.427L279.881 425.228H276.596Z" fill="#C0BDFF"/>
<path d="M273.33 425.228L299.876 461.504H303.16L276.599 425.228H273.33Z" fill="#C0BDFF"/>
<path d="M270.045 425.228L296.591 461.504H299.875L273.329 425.228H270.045Z" fill="#C0BDFF"/>
<path d="M268.844 428.071L293.322 461.504H296.591L270.045 425.228H268.844V428.071Z" fill="#C0BDFF"/>
<path d="M268.843 432.556L290.037 461.505H293.321L268.843 428.071V432.556Z" fill="#C0BDFF"/>
<path d="M268.843 437.026L286.753 461.505H290.037L268.843 432.556V437.026Z" fill="#C0BDFF"/>
<path d="M268.844 441.511L283.485 461.504H286.754L268.844 437.026V441.511Z" fill="#C0BDFF"/>
<path d="M268.844 445.996L280.201 461.505H283.486L268.844 441.511V445.996Z" fill="#C0BDFF"/>
<path d="M268.843 450.466L276.916 461.504H280.2L268.843 445.996V450.466Z" fill="#C0BDFF"/>
<path d="M268.843 454.951L273.647 461.504H276.916L268.843 450.466V454.951Z" fill="#C0BDFF"/>
<path d="M268.844 459.437L270.365 461.505H273.649L268.844 454.952V459.437Z" fill="#C0BDFF"/>
<path d="M270.363 461.504L268.843 459.437V461.504H270.363Z" fill="#C0BDFF"/>
</g>
<g opacity="0.5">
<path d="M314.501 446.239C314.501 448.824 314.501 451.409 314.501 453.993C314.501 454.662 314.592 455.499 315.459 455.499C316.63 455.499 316.447 454.586 316.417 453.781C315.353 430.245 320.233 407.591 326.695 385.18C327.105 383.781 328.55 381.409 327.06 380.953C325.311 380.421 325.479 383.112 325.053 384.45C320.72 397.708 318.013 411.376 315.976 425.136C314.942 432.084 314.091 439.139 314.486 446.224L314.501 446.239Z" fill="#635BFF"/>
</g>
<path d="M367.807 163.413C366.409 163.474 365.299 163.55 364.858 163.595C353.941 164.538 347.267 171.927 341.611 180.609C336.152 188.971 331.85 198.078 329.159 207.702C328.596 209.694 328.657 211.275 330.071 212.933C334.526 218.102 338.099 223.971 342.797 228.958C343.253 229.429 343.359 230.22 344.241 229.748C344.651 229.52 344.743 229.171 344.743 228.654C344.53 217.403 348.498 207.307 353.515 197.531C359.202 186.432 366.865 176.853 376.352 168.75C377.203 168.035 379.058 166.819 379.286 165.663C379.758 163.291 372.277 163.23 367.838 163.413H367.807Z" fill="#2FB4F7"/>
<path d="M347.676 290.2C350.778 290.458 354.077 289.561 357.133 292.009C358.653 293.226 360.828 291.736 361.983 290.109C363.123 288.497 363.078 286.733 361.633 285.198C360.128 283.586 357.924 283.145 356.479 284.377C354.366 286.171 352.146 286.095 349.865 285.882C343.738 285.319 337.641 284.544 331.529 283.89C330.161 283.738 329.568 283.069 329.553 281.701C329.507 277.991 329.31 274.281 329.994 270.617C330.556 267.667 329.963 266.983 326.406 266.482C323.927 266.132 322.681 267.196 322.62 269.857C322.513 274.236 321.723 278.554 321.89 282.963C322.103 288.451 323.045 289.713 328.367 289.485C334.798 289.212 341.138 290.443 347.691 290.2H347.676Z" fill="#2FB4F7"/>
<path d="M348.589 236.545C349.258 231.375 348.802 226.312 347.266 221.325C345.092 214.286 338.387 209.147 331.12 209.056C323.654 208.964 316.858 213.678 314.562 220.778C312.54 227.027 312.89 233.595 312.358 240.041C311.962 244.816 311.552 249.635 312.616 254.409C314.714 263.897 320.613 268.519 330.587 268.519C337.49 268.519 343.967 262.817 345.852 254.774C347.266 248.784 348.011 242.672 348.589 236.545Z" fill="#635BFF"/>
<path d="M323.366 238.126C323.487 240.498 322.788 243.006 323.442 245.606C324.05 247.993 325.479 249.574 327.683 249.742C330.223 249.955 333.218 249.574 334.145 246.701C335.878 241.364 336.471 235.784 335.194 230.265C334.571 227.528 331.956 226.647 329.402 226.586C327.091 226.525 325.585 228 324.612 230.068C323.411 232.591 323.73 235.328 323.35 238.141L323.366 238.126Z" fill="white"/>
<path d="M374.726 484.767H533.898L550.212 490.803H406.381L374.726 484.767Z" fill="#2F4256"/>
<path d="M550.212 490.803H406.382V500.442H545.62C548.16 500.442 550.212 498.39 550.212 495.85V490.803Z" fill="#0A2540"/>
<path d="M380.793 495.562L406.381 500.442V490.803L374.726 484.767V488.233C374.726 491.821 377.265 494.893 380.793 495.562Z" fill="#0A2540"/>
<mask id="mask14_74_4" style="mask-type:luminance" maskUnits="userSpaceOnUse" x="405" y="376" width="173" height="118">
<path d="M479.48 493.509C501.192 493.509 522.918 493.403 544.63 493.616C548.72 493.661 550.635 491.898 551.654 488.461C560.031 460.273 567.542 431.355 573.578 402.573C574.795 396.811 576.072 391.049 577.227 385.271C578.063 381.06 576.117 379.25 571.754 379.326C560.29 379.524 548.841 378.673 537.362 378.597C519.725 378.49 502.089 377.928 484.467 377.304C474.554 376.955 464.626 376.711 454.698 376.666C449.65 376.651 444.587 376.666 439.539 376.772C435.677 376.848 429.945 375.51 428.729 380.376C427.209 386.412 426.144 392.539 424.867 398.62C421.978 412.289 418.649 425.851 415.532 439.474C412.232 453.857 408.918 468.24 405.467 482.593C404.007 488.659 406.607 493.403 414.027 493.327C435.844 493.114 457.678 493.251 479.495 493.251C479.495 493.342 479.495 493.433 479.495 493.524L479.48 493.509Z" fill="white"/>
</mask>
<g mask="url(#mask14_74_4)">
<path d="M522.295 375.51L578.049 426.581V375.51H522.295Z" fill="#425466"/>
<path d="M515.834 375.51L578.049 432.48V426.581L522.295 375.51H515.834Z" fill="#425466"/>
<path d="M509.387 375.51L578.049 438.394V432.48L515.834 375.51H509.387Z" fill="#425466"/>
<path d="M502.925 375.51L578.049 444.294V438.394L509.387 375.51H502.925Z" fill="#425466"/>
<path d="M496.479 375.51L578.049 450.208V444.294L502.925 375.51H496.479Z" fill="#425466"/>
<path d="M490.032 375.51L578.049 456.122V450.208L496.479 375.51H490.032Z" fill="#425466"/>
<path d="M483.571 375.51L578.049 462.022V456.122L490.032 375.51H483.571Z" fill="#425466"/>
<path d="M477.124 375.51L577.319 467.252L578.049 466.446V462.022L483.571 375.51H477.124Z" fill="#425466"/>
<path d="M470.677 375.51L574.369 470.475L577.318 467.252L477.123 375.51H470.677Z" fill="#425466"/>
<path d="M464.216 375.51L571.435 473.683L574.369 470.475L470.677 375.51H464.216Z" fill="#425466"/>
<path d="M457.771 375.51L568.487 476.906L571.437 473.683L464.217 375.51H457.771Z" fill="#425466"/>
<path d="M451.308 375.51L565.551 480.114L568.486 476.906L457.769 375.51H451.308Z" fill="#425466"/>
<path d="M444.861 375.51L562.601 483.322L565.551 480.114L451.307 375.51H444.861Z" fill="#425466"/>
<path d="M438.414 375.51L559.652 486.546L562.601 483.322L444.861 375.51H438.414Z" fill="#425466"/>
<path d="M431.953 375.51L556.718 489.754L559.652 486.546L438.415 375.51H431.953Z" fill="#425466"/>
<path d="M425.811 375.51L425.674 375.662L553.768 492.962L556.718 489.754L431.953 375.51H425.811Z" fill="#425466"/>
<path d="M425.674 375.662L422.725 378.87L548.067 493.646H553.145L553.769 492.962L425.674 375.662Z" fill="#425466"/>
<path d="M422.725 378.871L419.791 382.094L541.621 493.646H548.067L422.725 378.871Z" fill="#425466"/>
<path d="M419.789 382.094L416.839 385.302L535.158 493.646H541.619L419.789 382.094Z" fill="#425466"/>
<path d="M416.84 385.302L413.89 388.51L528.712 493.646H535.158L416.84 385.302Z" fill="#425466"/>
<path d="M413.891 388.51L410.956 391.733L522.265 493.646H528.712L413.891 388.51Z" fill="#425466"/>
<path d="M410.956 391.733L408.006 394.941L515.803 493.646H522.265L410.956 391.733Z" fill="#425466"/>
<path d="M408.006 394.941L405.071 398.149L509.356 493.646H515.803L408.006 394.941Z" fill="#425466"/>
<path d="M405.073 398.149L403.978 399.351V403.076L502.911 493.646H509.357L405.073 398.149Z" fill="#425466"/>
<path d="M403.977 408.974L496.448 493.646H502.91L403.977 403.075V408.974Z" fill="#425466"/>
<path d="M403.978 414.889L490.003 493.646H496.449L403.978 408.975V414.889Z" fill="#425466"/>
<path d="M403.977 420.788L483.54 493.646H490.002L403.977 414.889V420.788Z" fill="#425466"/>
<path d="M403.977 426.702L477.093 493.646H483.54L403.977 420.788V426.702Z" fill="#425466"/>
<path d="M403.976 432.617L470.646 493.646H477.093L403.976 426.703V432.617Z" fill="#425466"/>
<path d="M403.978 438.516L464.186 493.646H470.647L403.978 432.617V438.516Z" fill="#425466"/>
<path d="M403.977 444.431L457.739 493.646H464.186L403.977 438.516V444.431Z" fill="#425466"/>
<path d="M403.978 450.33L451.293 493.646H457.739L403.978 444.431V450.33Z" fill="#425466"/>
<path d="M451.292 493.646L403.977 450.33V493.646H451.292Z" fill="#425466"/>
</g>
<g opacity="0.5">
<path d="M498.213 450.497C506.195 450.421 513.159 443.503 513.752 435.445C515.257 415.071 484.074 414.204 483.648 434.928C483.511 442.013 487.981 448.627 495.066 450.177C496.13 450.405 497.179 450.512 498.213 450.497Z" fill="#E0E8F3"/>
</g>
</svg>
