<svg width="704" height="482" viewBox="0 0 704 482" fill="none" xmlns="http://www.w3.org/2000/svg">
<g filter="url(#filter0_d_34_3)">
<rect x="12" y="8" width="672" height="450" rx="24" fill="url(#paint0_linear_34_3)"/>
<rect x="17" y="13" width="662" height="440" rx="19" stroke="white" stroke-width="10"/>
</g>
<path d="M135.321 93.3191V85.9063C135.321 82.8315 132.831 80.3413 129.756 80.3413H122.69C119.615 80.3413 117.125 82.8315 117.125 85.9063V93.3191C98.7627 97.2673 84.7383 112.887 83.2153 132.043H111.538C112.188 139.586 118.511 145.505 126.227 145.505C133.943 145.505 140.266 139.586 140.915 132.043H169.238C167.715 112.887 153.691 97.2601 135.329 93.3191H135.321Z" fill="url(#paint1_linear_34_3)"/>
<path d="M127.671 18H124.784V89.3346H127.671V18Z" fill="#F6F9FC"/>
<path d="M265.446 60.7371V53.3243C265.446 50.2495 262.956 47.7593 259.881 47.7593H252.815C249.74 47.7593 247.25 50.2495 247.25 53.3243V60.7371C228.887 64.6853 214.863 80.3049 213.34 99.4612H241.663C242.313 107.004 248.635 112.923 256.351 112.923C264.067 112.923 270.39 107.004 271.04 99.4612H299.363C297.84 80.3049 283.816 64.6781 265.453 60.7371H265.446Z" fill="url(#paint2_linear_34_3)"/>
<path d="M257.788 18H254.901V56.753H257.788V18Z" fill="#F6F9FC"/>
<path d="M465.599 60.7371V53.3243C465.599 50.2495 463.109 47.7593 460.034 47.7593H452.968C449.893 47.7593 447.403 50.2495 447.403 53.3243V60.7371C429.041 64.6853 415.016 80.3049 413.493 99.4612H441.816C442.466 107.004 448.789 112.923 456.505 112.923C464.221 112.923 470.544 107.004 471.193 99.4612H499.516C497.993 80.3049 483.969 64.6781 465.606 60.7371H465.599Z" fill="url(#paint3_linear_34_3)"/>
<path d="M457.948 18H455.061V56.753H457.948V18Z" fill="#F6F9FC"/>
<path d="M578.848 93.3191V85.9063C578.848 82.8315 576.358 80.3413 573.283 80.3413H566.217C563.142 80.3413 560.652 82.8315 560.652 85.9063V93.3191C542.29 97.2673 528.265 112.887 526.742 132.043H555.065C555.715 139.586 562.038 145.505 569.754 145.505C577.47 145.505 583.793 139.586 584.442 132.043H612.765C611.242 112.887 597.218 97.2601 578.855 93.3191H578.848Z" fill="url(#paint4_linear_34_3)"/>
<path d="M571.191 18H568.304V89.3346H571.191V18Z" fill="#F6F9FC"/>
<path d="M462.34 155.08H308.02V350.148H462.34V155.08Z" fill="white"/>
<path d="M390.903 145.45H379.465V162.243H390.903V145.45Z" fill="#756F66"/>
<path d="M469.173 155.08H301.195V162.243H469.173V155.08Z" fill="#898379"/>
<path d="M366.301 198.775C374.416 199.728 380.874 206.185 381.826 214.3H401.341C400.299 195.453 385.149 180.31 366.301 179.26V198.775Z" fill="#FC4E4E"/>
<path d="M354.894 201.303C357.046 199.968 359.499 199.083 362.131 198.775V179.26C354.946 179.658 348.301 182.11 342.766 186.033L354.894 201.295V201.303Z" fill="#383838"/>
<path d="M346.487 216.565C346.487 216.505 346.487 216.445 346.487 216.385C346.487 211.518 348.459 207.108 351.639 203.898L339.512 188.635C331.869 195.453 327.039 205.36 327.039 216.385C327.039 217.285 327.084 218.178 327.144 219.063L346.487 216.573V216.565Z" fill="#6B2121"/>
<path d="M381.826 218.463C380.791 227.26 373.291 234.115 364.216 234.115C361.816 234.115 359.536 233.635 357.444 232.765L347.926 249.79C352.846 252.198 358.374 253.555 364.209 253.555C384.009 253.555 400.246 237.993 401.326 218.455H381.811L381.826 218.463Z" fill="#FFF39B"/>
<path d="M353.814 230.733C350.499 228.318 348.046 224.793 347.019 220.698L327.676 223.188C329.589 233.493 335.769 242.313 344.311 247.758L353.821 230.733H353.814Z" fill="#AD3636"/>
<g opacity="0.5">
<path d="M444.835 260.335H334.375V270.348H444.835V260.335Z" fill="#1BA49B"/>
</g>
<g opacity="0.5">
<path d="M444.835 277.098H334.375V287.11H444.835V277.098Z" fill="#EBBC54"/>
</g>
<g opacity="0.5">
<path d="M422.049 293.868H334.375V303.88H422.049V293.868Z" fill="#B5C6C5"/>
</g>
<g opacity="0.5">
<path d="M587.35 434.845H81.4C75.104 434.845 70 439.947 70 446.241C70 452.535 75.104 457.638 81.4 457.638H587.35C593.646 457.638 598.75 452.535 598.75 446.241C598.75 439.947 593.646 434.845 587.35 434.845Z" fill="#BEC3C7"/>
</g>
<path d="M460.218 329.597C460.151 331.03 458.891 332.17 457.406 332.155L456.311 332.14C455.028 332.125 453.963 331.24 453.768 330.025L451.968 318.737L460.736 318.842L460.218 329.59V329.597Z" fill="#EBBC54"/>
<path d="M461.148 321.677L463.885 229.18L461.388 229.675C456.843 230.567 453.258 234.265 452.313 239.035L451.398 321.685H461.148V321.677Z" fill="#E7E6E8"/>
<path d="M449.815 316.997V322.502H462.873V316.997H449.815Z" fill="#BEC3C7"/>
<path d="M441.101 267.325C441.101 267.325 440.996 267.325 440.793 267.325C440.598 267.317 440.321 267.287 439.976 267.22C439.293 267.085 438.386 266.77 437.426 266.095C435.558 264.692 432.888 262.682 429.678 260.275C426.476 257.86 422.748 255.04 418.751 252.017C414.768 248.972 410.501 245.755 406.271 242.485C402.033 239.222 397.796 235.967 393.851 232.877C389.891 229.81 386.223 226.9 383.073 224.41C379.931 221.912 377.298 219.857 375.483 218.38C373.661 216.91 372.618 216.07 372.618 216.07L373.068 215.47C373.068 215.47 374.171 216.235 376.091 217.562C378.018 218.89 380.733 220.84 384.011 223.15C387.288 225.46 391.106 228.167 395.171 231.1C399.251 234.017 403.563 237.167 407.891 240.31C412.226 243.445 416.508 246.632 420.558 249.595C424.586 252.58 428.343 255.362 431.561 257.755C434.778 260.147 437.456 262.15 439.331 263.545C440.246 264.272 440.808 265.06 441.131 265.675C441.288 265.982 441.393 266.245 441.461 266.432C441.513 266.627 441.543 266.725 441.543 266.725L441.093 267.325H441.101Z" fill="#053139"/>
<path d="M489.445 445H491.335L500.575 341.192H484.773L485.658 441.242C485.673 443.32 487.368 445 489.453 445H489.445Z" fill="#FFB573"/>
<path d="M485.628 439.99L485.8 442.93C485.943 445.375 487.78 447.37 490.113 447.602L506.56 449.23C507.213 449.297 507.798 448.855 507.948 448.187C508.098 447.52 507.76 446.837 507.16 446.567L491.86 439.742C491.86 439.742 491.643 441.895 485.635 439.99H485.628Z" fill="#872220"/>
<path d="M476.86 445H475.428L466.188 341.192H481.99L481.113 440.777C481.091 443.117 479.193 445 476.853 445H476.86Z" fill="#FFB573"/>
<path d="M481.248 440.005L480.955 442.93C480.708 445.367 478.788 447.287 476.448 447.415L459.948 448.345C459.295 448.382 458.725 447.917 458.605 447.242C458.485 446.575 458.845 445.9 459.46 445.652L475.03 439.48C475.03 439.48 475.158 441.64 481.24 439.99L481.248 440.005Z" fill="#872220"/>
<path d="M500.486 194.792C495.183 192.332 488.561 195.887 485.688 202.742C482.816 209.597 484.796 217.15 490.098 219.61C495.401 222.07 502.023 218.515 504.896 211.66C507.761 204.805 505.788 197.252 500.486 194.792Z" fill="#0A2540"/>
<path d="M474.813 238.84L493.398 239.897L489.745 214.277H476.583L474.813 238.84Z" fill="#FF9435"/>
<path d="M466.729 202.585C466.729 213.97 473.029 223.803 479.104 223.803C485.179 223.803 494.479 215.058 494.479 203.68C494.479 192.303 489.799 188.035 481.594 188.035C473.389 188.035 466.729 191.2 466.729 202.585Z" fill="#FFB573"/>
<path d="M466.728 203.222C466.728 203.222 468.056 188.74 477.356 190.157C477.356 190.157 488.043 183.722 496.548 200.597L496.511 194.342C496.466 186.46 490.781 178.255 482.651 178.217C477.678 178.195 474.498 180.887 474.498 180.887C469.383 179.905 463.578 185.912 464.411 194.02C464.658 196.45 466.713 202.937 466.728 203.23V203.222ZM480.446 184.18H480.453H480.468C480.461 184.18 480.453 184.18 480.446 184.18Z" fill="#0A2540"/>
<path d="M471.701 190.99C471.701 190.99 484.5 200 496.946 208.187C496.946 208.187 498.101 174.767 471.701 190.99Z" fill="#0A2540"/>
<path d="M466.698 277.682L460.923 257.845C460.458 256.24 460.338 254.56 460.563 252.91L463.878 229.195L475.593 225.797C475.675 226.105 476.05 228.685 476.59 232.577C478.173 234.64 480.588 235.967 483.303 235.967C486.018 235.967 488.433 234.647 490.015 232.585C490.728 228.707 491.208 226.12 491.298 225.797L503.178 229.18L506.673 255.43L500.163 278.537L503.853 288.34C507.168 297.152 508.015 306.707 506.298 315.97L499.368 353.312H466.69L460.195 315.377C458.673 306.497 459.505 297.37 462.603 288.902L466.698 277.705V277.682Z" fill="#053139"/>
<path d="M492.731 205.367C491.921 207.617 492.341 209.867 493.668 210.4C494.996 210.932 496.736 209.545 497.546 207.295C498.356 205.045 497.936 202.795 496.608 202.262C495.281 201.73 493.541 203.117 492.731 205.367Z" fill="#FFB573"/>
<path d="M437.643 264.16C436.083 263.747 434.501 264.745 434.111 266.387L433.818 267.595C433.481 269.012 434.141 270.49 435.393 271.112L447.056 276.955L449.366 267.265L437.643 264.16Z" fill="#FFB573"/>
<path d="M446.719 266.582L443.291 275.987L492.634 292.63C495.536 293.612 498.656 292 499.691 288.985L513.941 247.682C517.144 235.262 510.971 229.997 503.171 229.157L502.676 246.047L489.776 279.152L446.726 266.582H446.719Z" fill="white"/>
<path d="M475.586 225.782C475.586 225.782 476.568 234.295 482.366 235.892C482.366 235.892 481.061 243.872 474.093 240.34C467.126 236.807 469.706 227.282 469.706 227.282L475.586 225.782Z" fill="white"/>
<path d="M491.291 225.775C491.291 225.775 489.776 235.18 482.366 235.892C482.366 235.892 483.671 243.872 490.638 240.34C497.606 236.807 497.171 227.275 497.171 227.275L491.291 225.775Z" fill="white"/>
<path d="M451.785 267.016L446.58 265.224L442.328 277.57L447.534 279.362L451.785 267.016Z" fill="#BEC3C7"/>
<path d="M177.055 373.517C176.815 373.517 176.575 373.495 176.327 373.45L134.118 365.522L115.908 285.88C115.428 283.772 116.74 281.672 118.855 281.192C120.963 280.705 123.063 282.025 123.543 284.132L140.613 358.772L177.783 365.747C179.905 366.145 181.308 368.192 180.91 370.315C180.558 372.197 178.915 373.51 177.07 373.51L177.055 373.517Z" fill="#03282F"/>
<path d="M84.6172 301.75L130.937 295.48L142.225 360.647L125.485 377.23L106.54 373.675C103.06 373.022 100.307 370.367 99.5197 366.925L84.6172 301.757V301.75Z" fill="#03282F"/>
<path d="M175.36 371.47C173.575 371.47 171.962 370.24 171.55 368.425L170.222 362.605C166.667 347.035 153.64 335.185 137.807 333.122L129.077 331.982C126.932 331.705 125.425 329.74 125.702 327.595C125.98 325.45 127.937 323.942 130.09 324.22L138.82 325.36C157.892 327.85 173.575 342.115 177.857 360.865L179.185 366.685C179.665 368.792 178.345 370.892 176.237 371.372C175.945 371.44 175.652 371.47 175.36 371.47Z" fill="#636D6D"/>
<path d="M93.8123 429.737C92.2898 429.737 90.8348 428.837 90.2048 427.345C89.3648 425.35 90.2948 423.055 92.2823 422.215L125.492 408.152L158.702 422.215C160.69 423.055 161.627 425.357 160.78 427.345C159.94 429.332 157.637 430.27 155.65 429.422L125.492 416.657L95.3348 429.422C94.8398 429.632 94.3223 429.73 93.8123 429.73V429.737Z" fill="#636D6D"/>
<path d="M143.042 438.182L137.732 435.377L165.452 382.87C165.662 382.472 165.669 381.999 165.474 381.594C165.279 381.189 164.897 380.897 164.454 380.814L138.332 375.999L140.702 363.167L166.824 367.982C171.332 368.814 175.217 371.769 177.219 375.902C179.222 380.027 179.132 384.909 176.994 388.967L143.042 438.182Z" fill="#E0B45D"/>
<path d="M125.492 427.382C123.332 427.382 121.577 425.627 121.577 423.467V377.125C121.577 374.965 123.332 373.21 125.492 373.21C127.652 373.21 129.407 374.965 129.407 377.125V423.467C129.407 425.627 127.652 427.382 125.492 427.382Z" fill="#636D6D"/>
<path d="M185.035 432.617L171.79 375.985C171.73 375.46 171.385 375.017 170.89 374.83L149.852 366.745L154.532 354.565L175.57 362.65C180.61 364.585 184.127 369.122 184.75 374.477L191.447 431.875L185.035 432.625V432.617Z" fill="#E2C374"/>
<path d="M139.367 431.275L137.912 434.117C136.697 436.487 137.417 439.382 139.599 440.905L154.989 451.682C155.597 452.11 156.429 452.027 156.939 451.495C157.457 450.962 157.502 450.13 157.052 449.537L145.667 434.56C145.667 434.56 144.257 436.442 139.359 431.282L139.367 431.275Z" fill="#03282F"/>
<path d="M183.977 428.522L183.572 431.71C183.235 434.365 184.915 436.87 187.502 437.567L205.787 442.495C206.507 442.69 207.265 442.33 207.572 441.647C207.88 440.965 207.64 440.155 207.01 439.75L191.08 429.467C191.08 429.467 190.39 431.74 183.977 428.53V428.522Z" fill="#03282F"/>
<path d="M134.072 262.502H119.2V288.01H134.072V262.502Z" fill="#FF9435"/>
<path d="M142.232 250C142.232 261.835 135.625 272.057 129.25 272.057C122.875 272.057 113.125 262.975 113.125 251.14C113.125 239.305 118.03 234.88 126.64 234.88C135.25 234.88 142.232 238.172 142.232 250.007V250Z" fill="#FFB573"/>
<path d="M144.662 240.827C145.532 232.757 139.442 226.772 134.08 227.755C134.08 227.755 130.742 225.077 125.53 225.1C117.002 225.137 111.047 233.305 110.995 241.157L110.957 247.39C119.875 230.597 131.087 236.995 131.087 236.995C140.845 235.585 142.232 250 142.232 250C142.247 249.707 144.407 243.25 144.662 240.827ZM127.825 231.04H127.84H127.847C127.84 231.04 127.832 231.04 127.825 231.04Z" fill="#0A2540"/>
<path d="M137.012 237.82C137.012 237.82 119.582 258.16 106.345 258.16C106.345 258.16 109.315 221.665 137.012 237.82Z" fill="#0A2540"/>
<path d="M140.05 308.717C143.035 298.082 139.907 286.907 142.202 276.1L134.95 274.142C134.972 274.39 134.987 274.63 134.987 274.885C134.987 279.407 131.32 283.075 126.797 283.075C122.275 283.075 118.607 279.407 118.607 274.885C118.607 274.607 118.622 274.33 118.652 274.06L115.795 274.832C115.757 275.35 115.607 275.882 115.315 276.422C112.967 280.87 112.27 286.54 110.747 291.325C109.142 296.35 108.002 301.517 106.352 306.52L115.975 338.942H137.327L144.647 313.517C142.127 313.915 139.165 311.927 140.065 308.717H140.05Z" fill="white"/>
<path d="M173.95 361.277C173.95 361.277 164.882 362.365 154.465 370.45C149.627 374.207 148.442 377.987 148.442 377.987L122.11 373.915C116.425 373.037 111.392 369.767 108.28 364.93C105.167 360.092 104.275 354.16 105.827 348.617L107.177 343.817L144.272 343.277L148.72 352.727L173.95 361.262V361.277Z" fill="#043E49"/>
<path d="M148.727 300.625L145.247 276.97L134.117 273.902C133.832 274.945 129.677 304.33 127.704 318.332C125.634 307.367 119.514 275.035 119.199 273.895L107.912 276.94L104.589 300.61L111.609 331.097L104.589 352.727C104.589 352.727 117.789 344.74 131.972 345.43C141.887 345.91 146.402 347.807 146.402 347.807L141.699 330.235L148.719 300.617L148.727 300.625Z" fill="#741919"/>
<path d="M126.512 325.637L139.547 289.877L137.282 285.4H142.795L145.247 276.977L134.117 270.49L126.512 325.637Z" fill="#8F2424"/>
<path d="M124.787 340.105C123.37 340.682 122.687 342.295 123.265 343.712L123.692 344.755C124.187 345.977 125.477 346.675 126.775 346.427L138.82 344.125L135.422 335.777L124.78 340.105H124.787Z" fill="#FFB573"/>
<path d="M134.657 334.412L138.91 345.437L162.1 332.627C164.17 331.487 165.25 329.125 164.77 326.807L156.227 285.85C155.327 281.552 151.922 278.215 147.61 277.412L145.232 276.97L147.962 300.685L153.422 324.22L134.657 334.405V334.412Z" fill="#741919"/>
<path d="M114.955 252.13C115.802 254.365 115.367 256.615 113.972 257.14C112.577 257.672 110.755 256.285 109.907 254.05C109.06 251.815 109.495 249.565 110.89 249.04C112.285 248.507 114.107 249.895 114.955 252.13Z" fill="#FFB573"/>
<path d="M166.457 282.107C166.457 282.107 175.982 296.027 194.837 291.1L169.03 313.322L158.207 314.252L166.465 282.107H166.457Z" fill="white"/>
<path d="M170.17 308.522C171.655 308.147 173.155 309.047 173.53 310.532L173.807 311.627C174.13 312.91 173.5 314.237 172.315 314.8L161.237 320.065L159.04 311.327L170.177 308.53L170.17 308.522Z" fill="#FFB573"/>
<path d="M162.182 309.587L164.799 319.187L117.924 334.202C115.164 335.087 112.209 333.632 111.219 330.91L97.682 293.665C94.637 282.46 100.509 277.72 107.912 276.955L108.384 292.187L117.999 320.852L162.182 309.587Z" fill="#801D1A"/>
<path d="M157.367 387.122C157.127 387.122 156.887 387.1 156.64 387.055L105.82 377.515C100.81 376.577 96.8347 372.752 95.7022 367.787L79.3597 296.327C78.8797 294.22 80.1922 292.12 82.3072 291.64C84.4147 291.152 86.5147 292.472 86.9947 294.58L103.337 366.04C103.78 367.967 105.317 369.452 107.267 369.82L158.087 379.36C160.21 379.757 161.612 381.805 161.215 383.927C160.862 385.81 159.22 387.122 157.375 387.122H157.367Z" fill="#03282F"/>
<path d="M138.82 381.91C137.035 381.91 135.422 380.68 135.01 378.865L133.682 373.045C130.127 357.475 117.1 345.625 101.267 343.562L92.5373 342.422C90.3923 342.145 88.8848 340.18 89.1623 338.035C89.4398 335.89 91.4048 334.382 93.5498 334.66L102.28 335.8C121.352 338.29 137.035 352.555 141.317 371.305L142.645 377.125C143.125 379.232 141.805 381.332 139.697 381.812C139.405 381.88 139.112 381.91 138.82 381.91Z" fill="#636D6D"/>
<path d="M127.675 318.542L113.777 289.877L116.042 285.4H110.53L107.912 276.947L119.207 270.49L127.675 318.542Z" fill="#8F2424"/>
<path d="M619.96 308.657L573.64 302.387L562.352 367.555L579.092 384.137L598.037 380.582C601.517 379.93 604.27 377.275 605.057 373.832L619.96 308.665V308.657Z" fill="#03282F"/>
<path d="M529.217 378.385C528.932 378.385 528.632 378.355 528.34 378.287C526.232 377.807 524.912 375.707 525.392 373.6L526.72 367.78C531.003 349.03 546.692 334.765 565.757 332.275L574.487 331.135C576.632 330.857 578.597 332.365 578.875 334.51C579.152 336.655 577.645 338.62 575.5 338.897L566.77 340.037C550.937 342.1 537.902 353.95 534.347 369.52L533.02 375.34C532.607 377.155 530.995 378.385 529.21 378.385H529.217Z" fill="#636D6D"/>
<path d="M610.773 436.652C610.263 436.652 609.745 436.555 609.25 436.345L579.093 423.58L548.935 436.345C546.948 437.185 544.645 436.255 543.805 434.267C542.965 432.272 543.895 429.977 545.883 429.137L579.093 415.075L612.303 429.137C614.298 429.977 615.228 432.28 614.38 434.267C613.75 435.76 612.295 436.66 610.773 436.66V436.652Z" fill="#636D6D"/>
<path d="M579.093 434.29C576.933 434.29 575.178 432.535 575.178 430.375V384.032C575.178 381.872 576.933 380.117 579.093 380.117C581.253 380.117 583.008 381.872 583.008 384.032V430.375C583.008 432.535 581.253 434.29 579.093 434.29Z" fill="#636D6D"/>
<path d="M547.21 394.037C545.365 394.037 543.723 392.725 543.37 390.842C542.973 388.72 544.368 386.672 546.498 386.275L597.318 376.735C599.26 376.367 600.805 374.89 601.248 372.955L617.59 301.495C618.07 299.387 620.178 298.067 622.278 298.555C624.385 299.035 625.705 301.135 625.218 303.242L608.875 374.702C607.743 379.667 603.768 383.492 598.758 384.43L547.938 393.97C547.69 394.015 547.45 394.037 547.21 394.037Z" fill="#03282F"/>
<path d="M565.765 388.825C565.48 388.825 565.18 388.795 564.888 388.727C562.78 388.247 561.46 386.147 561.94 384.04L563.268 378.22C567.55 359.47 583.24 345.205 602.305 342.715L611.035 341.575C613.165 341.305 615.145 342.805 615.423 344.95C615.7 347.095 614.193 349.06 612.048 349.337L603.318 350.477C587.485 352.54 574.45 364.39 570.895 379.96L569.568 385.78C569.155 387.595 567.543 388.825 565.758 388.825H565.765Z" fill="#636D6D"/>
<path d="M135.13 375.115H146.515V447.415C146.515 449.35 144.947 450.917 143.012 450.917H138.64C136.705 450.917 135.137 449.35 135.137 447.415V375.115H135.13Z" fill="#95A5A5"/>
<path d="M552.993 375.115H564.378V447.415C564.378 449.35 562.81 450.917 560.875 450.917H556.503C554.568 450.917 553 449.35 553 447.415V375.115H552.993Z" fill="#95A5A5"/>
<path d="M146.515 438.25H135.13V443.995H146.515V438.25Z" fill="#748483"/>
<path d="M564.378 438.25H552.993V443.995H564.378V438.25Z" fill="#748483"/>
<path d="M569.627 347.335H129.873V439.307H569.627V347.335Z" fill="#95A5A5"/>
<path d="M569.627 347.335H129.873V351.04H569.627V347.335Z" fill="#748483"/>
<path d="M581.365 338.522H118.135V348.497H581.365V338.522Z" fill="#B5C6C5"/>
<path d="M206.125 209.222C206.125 194.26 192.355 182.132 175.368 182.132C158.38 182.132 144.61 194.26 144.61 209.222C144.61 223.232 156.678 234.752 172.158 236.17L164.275 250.705L178.578 236.17C194.058 234.76 206.125 223.232 206.125 209.222Z" fill="#635BFF"/>
<path d="M566.177 173.89C566.177 157.93 551.492 145 533.372 145C515.252 145 500.567 157.938 500.567 173.89C500.567 188.83 513.437 201.122 529.952 202.63L521.545 218.125L536.8 202.63C553.307 201.122 566.185 188.83 566.185 173.89H566.177Z" fill="#2FB4F7"/>
<g style="mix-blend-mode:overlay" opacity="0.2">
<path d="M319.96 336.34H292.915L298.082 380.74L296.867 439.465H316.442L319.615 381.94L319.292 338.545L319.96 336.34Z" fill="#221F1F"/>
<path d="M265.78 336.34L265.405 382.727L268.502 439.465H287.155L285.685 382.135L291.13 336.34H265.78Z" fill="#221F1F"/>
</g>
<path d="M278.583 297.482H276.933H251.83L251.14 382.727L254.523 444.805H273.025L271.42 382.135L277.075 334.555H278.44L283.818 380.74L282.49 444.805H301.878L305.343 381.94L304.728 297.482H278.583Z" fill="#051439"/>
<path d="M267.115 190.015C267.947 192.857 267.272 195.827 265.6 196.645C263.927 197.462 261.895 195.827 261.062 192.985C260.23 190.142 260.905 187.172 262.577 186.355C264.25 185.537 266.282 187.172 267.115 190.015Z" fill="#FFB573"/>
<path d="M288.362 190.015C287.53 192.857 288.205 195.827 289.877 196.645C291.55 197.462 293.582 195.827 294.415 192.985C295.247 190.142 294.572 187.172 292.9 186.355C291.227 185.537 289.195 187.172 288.362 190.015Z" fill="#FFB573"/>
<path d="M248.8 341.852H243.865C242.192 341.852 240.752 340.63 240.422 338.927L237.37 323.095H248.792V341.852H248.8Z" fill="#FFB573"/>
<path d="M287.672 201.01H267.422V229.037H287.672V201.01Z" fill="#FF9435"/>
<path d="M288.715 217.877C287.822 221.237 283.142 223.802 277.487 223.802C271.832 223.802 267.152 221.237 266.26 217.877H251.47V297.482H303.572V217.877H288.707H288.715Z" fill="#EBEBEB"/>
<path d="M303.58 298.735H251.478V219.13H266.103L277.525 265.112L288.835 219.13H303.58V298.735Z" fill="#151E57"/>
<path d="M251.478 293.71H278.83V302.462C278.83 311.492 271.495 318.827 262.465 318.827H251.478V293.71Z" fill="#151E57"/>
<path d="M278.087 265.112L291.002 214.487L308.867 217.645C311.342 218.08 313.382 219.887 314.2 222.347L323.71 279.977L311.177 323.087L302.215 318.827L309.925 278.897L306.625 262.682V318.827H294.475C284.702 318.827 276.782 310.6 276.782 300.46V298.735L278.08 265.112H278.087Z" fill="#151E57"/>
<path d="M290.778 201.64C290.635 204.145 289.323 206.425 287.26 207.745L283.113 210.392C279.7 212.575 275.403 212.575 271.99 210.392L267.843 207.745C265.78 206.425 264.468 204.152 264.325 201.64L263.095 180.07C262.953 177.625 263.793 175.225 265.413 173.447C267.033 171.662 269.283 170.657 271.645 170.657H283.458C285.82 170.657 288.07 171.67 289.69 173.447C291.31 175.232 292.15 177.625 292.008 180.07L290.778 201.64Z" fill="#FFB573"/>
<path d="M275.372 229.202L272.965 246.715L275.372 265.99H279.685L282.092 246.715L279.685 229.202H275.372Z" fill="#B91C11"/>
<path d="M292.053 176.53C292.053 171.617 288.22 167.635 283.488 167.635H271.615C266.883 167.635 263.05 171.617 263.05 176.53V182.897H263.065L263.883 194.65L265.3 184.877C265.968 183.167 267.625 182.042 269.463 182.095C270.708 182.132 274.533 182.755 278.538 182.035C284.095 181.037 287.673 178.54 287.673 178.54C287.673 186.76 291.1 195.887 291.1 195.887L292.045 182.875V176.515L292.053 176.53Z" fill="#0A2540"/>
<path d="M280.285 230.522H274.772L273.235 220.817H281.815L280.285 230.522Z" fill="#8E0F0C"/>
<path d="M272.71 231.632L266.268 219.13V210.887L277.525 220.892L272.71 231.632Z" fill="white"/>
<path d="M282.347 231.632L288.79 219.13V210.887L277.525 220.892L282.347 231.632Z" fill="white"/>
<path d="M277.525 265.112L264.61 214.487L247.923 217.435C244.863 217.975 242.53 220.585 242.245 223.795L231.955 278.89L236.905 326.192H249.183L247.645 280.052L249.835 251.717L249.265 318.715L251.613 318.827H261.13C270.903 318.827 279.415 311.657 279.415 301.51L277.525 265.112Z" fill="#131D4C"/>
<path d="M307.96 321.557L307.952 329.087L300.062 325.472L302.747 319.075L307.96 321.557Z" fill="#FFB573"/>
<path d="M297.88 320.11C297.88 320.11 302.837 326.905 308.537 326.905L303.572 343.345L296.792 318.835L297.88 320.117V320.11Z" fill="#051439"/>
<path d="M288.835 219.13L273.25 278.897L295.952 240.925L288.835 234.587L297.73 233.582L300.212 216.01L288.835 210.887V219.13Z" fill="#1D2865"/>
<path d="M276.595 270.932C277.053 269.98 277.735 269.147 278.635 268.547L266.26 219.13V210.887L254.89 216.04L257.373 233.582L266.26 234.587L259.15 240.925L276.595 270.932Z" fill="#1D2865"/>
<path d="M273.25 278.897L286.922 256.442L304.322 293.71V318.827H290.942C281.17 318.827 273.25 310.6 273.25 300.46V278.897Z" fill="#151E57"/>
<path d="M263.883 183.505H265.735V195.01C265.735 196.03 264.91 196.862 263.883 196.862V183.512V183.505Z" fill="#0A2540"/>
<path d="M291.1 196.862C290.08 196.862 289.247 196.037 289.247 195.01V183.505H291.1V196.855V196.862Z" fill="#0A2540"/>
<path d="M267.88 444.235H250.78C247.292 444.235 244.472 447.062 244.472 450.542V453.4H267.55C269.545 453.4 271.292 452.042 271.78 450.107L273.272 444.235H267.88Z" fill="#D25400"/>
<path d="M251.02 444.235H255.52C259.675 444.235 263.043 447.61 263.043 451.757V453.4H243.49V451.757C243.49 447.602 246.865 444.235 251.013 444.235H251.02Z" fill="#692A00"/>
<path d="M287.808 444.235H304.908C308.396 444.235 311.216 447.062 311.216 450.542V453.4H288.138C286.143 453.4 284.396 452.042 283.908 450.107L282.416 444.235H287.808Z" fill="#D25400"/>
<path d="M300.205 444.235H304.705C308.86 444.235 312.228 447.61 312.228 451.757V453.4H292.675V451.757C292.675 447.602 296.05 444.235 300.198 444.235H300.205Z" fill="#692A00"/>
<path d="M168.498 209.043C168.498 210.633 167.208 211.923 165.618 211.923C164.028 211.923 162.738 210.633 162.738 209.043C162.738 207.453 164.028 206.163 165.618 206.163C167.208 206.163 168.498 207.453 168.498 209.043Z" fill="white"/>
<path d="M178.241 209.043C178.241 210.633 176.951 211.923 175.361 211.923C173.771 211.923 172.481 210.633 172.481 209.043C172.481 207.453 173.771 206.163 175.361 206.163C176.951 206.163 178.241 207.453 178.241 209.043Z" fill="white"/>
<path d="M187.984 209.043C187.984 210.633 186.694 211.923 185.104 211.923C183.514 211.923 182.224 210.633 182.224 209.043C182.224 207.453 183.514 206.163 185.104 206.163C186.694 206.163 187.984 207.453 187.984 209.043Z" fill="white"/>
<path d="M526.51 175.42C526.51 177.01 525.22 178.3 523.63 178.3C522.04 178.3 520.75 177.01 520.75 175.42C520.75 173.83 522.04 172.54 523.63 172.54C525.22 172.54 526.51 173.83 526.51 175.42Z" fill="white"/>
<path d="M533.38 178.3C534.971 178.3 536.26 177.011 536.26 175.42C536.26 173.829 534.971 172.54 533.38 172.54C531.789 172.54 530.5 173.829 530.5 175.42C530.5 177.011 531.789 178.3 533.38 178.3Z" fill="white"/>
<path d="M545.995 175.42C545.995 177.01 544.705 178.3 543.115 178.3C541.525 178.3 540.235 177.01 540.235 175.42C540.235 173.83 541.525 172.54 543.115 172.54C544.705 172.54 545.995 173.83 545.995 175.42Z" fill="white"/>
<defs>
<filter id="filter0_d_34_3" x="0" y="0" width="704" height="482" filterUnits="userSpaceOnUse" color-interpolation-filters="sRGB">
<feFlood flood-opacity="0" result="BackgroundImageFix"/>
<feColorMatrix in="SourceAlpha" type="matrix" values="0 0 0 0 0 0 0 0 0 0 0 0 0 0 0 0 0 0 127 0" result="hardAlpha"/>
<feOffset dx="4" dy="8"/>
<feGaussianBlur stdDeviation="8"/>
<feComposite in2="hardAlpha" operator="out"/>
<feColorMatrix type="matrix" values="0 0 0 0 0.388235 0 0 0 0 0.356863 0 0 0 0 1 0 0 0 0.1 0"/>
<feBlend mode="normal" in2="BackgroundImageFix" result="effect1_dropShadow_34_3"/>
<feBlend mode="normal" in="SourceGraphic" in2="effect1_dropShadow_34_3" result="shape"/>
</filter>
<linearGradient id="paint0_linear_34_3" x1="348" y1="8" x2="348" y2="458" gradientUnits="userSpaceOnUse">
<stop offset="0.5" stop-color="#DEEAF6"/>
<stop offset="1" stop-color="white"/>
</linearGradient>
<linearGradient id="paint1_linear_34_3" x1="126.227" y1="80.3413" x2="126.227" y2="145.505" gradientUnits="userSpaceOnUse">
<stop stop-color="white"/>
<stop offset="0.5" stop-color="#DEEAF6"/>
</linearGradient>
<linearGradient id="paint2_linear_34_3" x1="256.351" y1="47.7593" x2="256.351" y2="112.923" gradientUnits="userSpaceOnUse">
<stop stop-color="white"/>
<stop offset="0.5" stop-color="#DEEAF6"/>
</linearGradient>
<linearGradient id="paint3_linear_34_3" x1="456.505" y1="47.7593" x2="456.505" y2="112.923" gradientUnits="userSpaceOnUse">
<stop stop-color="white"/>
<stop offset="0.5" stop-color="#DEEAF6"/>
</linearGradient>
<linearGradient id="paint4_linear_34_3" x1="569.754" y1="80.3413" x2="569.754" y2="145.505" gradientUnits="userSpaceOnUse">
<stop stop-color="white"/>
<stop offset="0.5" stop-color="#DEEAF6"/>
</linearGradient>
</defs>
</svg>
