<svg width="704" height="482" viewBox="0 0 704 482" fill="none" xmlns="http://www.w3.org/2000/svg">
<g filter="url(#filter0_d_34_4)">
<rect x="12" y="8" width="672" height="450" rx="24" fill="url(#paint0_linear_34_4)"/>
<rect x="17" y="13" width="662" height="440" rx="19" stroke="white" stroke-width="10"/>
</g>
<path d="M330.488 288.665L275.806 211.366L221.126 288.665H242.692V458.417H308.922V288.665H330.488Z" fill="#2FB4F7"/>
<path d="M275.806 211.366L221.126 288.665H94L156.138 211.366H275.806Z" fill="#425466"/>
<path d="M242.692 288.665H121.689V458.417H242.692V288.665Z" fill="#0A2540"/>
<path d="M149.515 309.961H132.041V327.436H149.515V309.961Z" fill="#425466"/>
<path d="M177.234 309.961H159.759V327.436H177.234V309.961Z" fill="#425466"/>
<path d="M204.95 309.961H187.475V327.436H204.95V309.961Z" fill="#425466"/>
<path d="M232.34 309.961H214.866V327.436H232.34V309.961Z" fill="#425466"/>
<path d="M149.515 335.363H132.041V352.837H149.515V335.363Z" fill="#425466"/>
<path d="M177.234 335.363H159.759V352.837H177.234V335.363Z" fill="#425466"/>
<path d="M204.95 335.363H187.475V352.837H204.95V335.363Z" fill="#425466"/>
<path d="M232.34 335.363H214.866V352.837H232.34V335.363Z" fill="#425466"/>
<path d="M149.515 360.765H132.041V378.239H149.515V360.765Z" fill="#425466"/>
<path d="M177.234 360.765H159.759V378.239H177.234V360.765Z" fill="#425466"/>
<path d="M204.95 360.765H187.475V378.239H204.95V360.765Z" fill="#425466"/>
<path d="M232.34 360.765H214.866V378.239H232.34V360.765Z" fill="#425466"/>
<path d="M149.515 386.166H132.041V403.641H149.515V386.166Z" fill="#425466"/>
<path d="M177.234 386.166H159.759V403.641H177.234V386.166Z" fill="#425466"/>
<path d="M204.95 386.166H187.475V403.641H204.95V386.166Z" fill="#425466"/>
<path d="M232.34 386.166H214.866V403.641H232.34V386.166Z" fill="#425466"/>
<path d="M149.515 411.568H132.041V429.043H149.515V411.568Z" fill="#425466"/>
<path d="M177.234 411.568H159.759V429.043H177.234V411.568Z" fill="#425466"/>
<path d="M204.95 411.568H187.475V429.043H204.95V411.568Z" fill="#425466"/>
<path d="M232.34 411.568H214.866V429.043H232.34V411.568Z" fill="#425466"/>
<path d="M492.055 332.906L451.625 275.754L411.195 332.906H427.14V458.417H476.11V332.906H492.055Z" fill="#635BFF"/>
<path d="M451.625 275.754L411.195 332.906H317.204L363.147 275.754H451.625Z" fill="#425466"/>
<path d="M427.14 332.906H337.675V458.414H427.14V332.906Z" fill="#0A2540"/>
<path d="M358.25 348.652H345.332V361.571H358.25V348.652Z" fill="#425466"/>
<path d="M378.741 348.652H365.822V361.571H378.741V348.652Z" fill="#425466"/>
<path d="M399.234 348.652H386.315V361.571H399.234V348.652Z" fill="#425466"/>
<path d="M419.488 348.652H406.57V361.571H419.488V348.652Z" fill="#425466"/>
<path d="M358.25 367.434H345.332V380.352H358.25V367.434Z" fill="#425466"/>
<path d="M378.741 367.434H365.822V380.352H378.741V367.434Z" fill="#425466"/>
<path d="M399.234 367.434H386.315V380.352H399.234V367.434Z" fill="#425466"/>
<path d="M419.488 367.434H406.57V380.352H419.488V367.434Z" fill="#425466"/>
<path d="M358.25 386.215H345.332V399.133H358.25V386.215Z" fill="#425466"/>
<path d="M378.741 386.215H365.822V399.133H378.741V386.215Z" fill="#425466"/>
<path d="M399.234 386.215H386.315V399.133H399.234V386.215Z" fill="#425466"/>
<path d="M419.488 386.215H406.57V399.133H419.488V386.215Z" fill="#425466"/>
<path d="M358.25 404.996H345.332V417.914H358.25V404.996Z" fill="#425466"/>
<path d="M378.741 404.996H365.822V417.914H378.741V404.996Z" fill="#425466"/>
<path d="M399.234 404.996H386.315V417.914H399.234V404.996Z" fill="#425466"/>
<path d="M419.488 404.996H406.57V417.914H419.488V404.996Z" fill="#425466"/>
<path d="M358.25 423.776H345.332V436.695H358.25V423.776Z" fill="#425466"/>
<path d="M378.741 423.776H365.822V436.695H378.741V423.776Z" fill="#425466"/>
<path d="M399.234 423.776H386.315V436.695H399.234V423.776Z" fill="#425466"/>
<path d="M419.488 423.776H406.57V436.695H419.488V423.776Z" fill="#425466"/>
<path d="M602.11 374.24L574.993 335.909L547.877 374.24H558.573V458.417H591.414V374.24H602.11Z" fill="#2FB4F7"/>
<path d="M574.993 335.909L547.877 374.24H484.838L515.653 335.909H574.993Z" fill="#425466"/>
<path d="M558.573 374.24H498.568V458.417H558.573V374.24Z" fill="#0A2540"/>
<path d="M512.368 384.8H503.702V393.466H512.368V384.8Z" fill="#425466"/>
<path d="M526.112 384.8H517.446V393.466H526.112V384.8Z" fill="#425466"/>
<path d="M539.858 384.8H531.192V393.466H539.858V384.8Z" fill="#425466"/>
<path d="M553.441 384.8H544.775V393.466H553.441V384.8Z" fill="#425466"/>
<path d="M512.368 397.396H503.702V406.063H512.368V397.396Z" fill="#425466"/>
<path d="M526.112 397.396H517.446V406.063H526.112V397.396Z" fill="#425466"/>
<path d="M539.858 397.396H531.192V406.063H539.858V397.396Z" fill="#425466"/>
<path d="M553.441 397.396H544.775V406.063H553.441V397.396Z" fill="#425466"/>
<path d="M512.368 409.992H503.702V418.658H512.368V409.992Z" fill="#425466"/>
<path d="M526.112 409.992H517.446V418.658H526.112V409.992Z" fill="#425466"/>
<path d="M539.858 409.992H531.192V418.658H539.858V409.992Z" fill="#425466"/>
<path d="M553.441 409.992H544.775V418.658H553.441V409.992Z" fill="#425466"/>
<path d="M512.368 422.588H503.702V431.254H512.368V422.588Z" fill="#425466"/>
<path d="M526.112 422.588H517.446V431.254H526.112V422.588Z" fill="#425466"/>
<path d="M539.858 422.588H531.192V431.254H539.858V422.588Z" fill="#425466"/>
<path d="M553.441 422.588H544.775V431.254H553.441V422.588Z" fill="#425466"/>
<path d="M512.368 435.184H503.702V443.85H512.368V435.184Z" fill="#425466"/>
<path d="M526.112 435.184H517.446V443.85H526.112V435.184Z" fill="#425466"/>
<path d="M539.858 435.184H531.192V443.85H539.858V435.184Z" fill="#425466"/>
<path d="M553.441 435.184H544.775V443.85H553.441V435.184Z" fill="#425466"/>
<path d="M417.486 194.353C417.486 194.353 420.01 270.155 418.752 269.83C417.494 269.504 413.011 269.566 412.161 269.507C411.315 269.448 407.968 207.541 405.439 207.237C402.901 206.933 396.869 270.026 395.071 269.832C393.273 269.639 388.647 270.031 388.426 269.507C388.206 268.983 393.423 209.161 392.775 208.508C392.128 207.855 389.512 199.028 391.802 193.308L417.484 194.353H417.486Z" fill="#425466"/>
<path d="M417.505 194.877C417.505 194.877 409.844 198.977 403.071 199.098C396.297 199.219 390.991 196.786 390.991 196.786C390.991 196.786 390.819 198.702 390.913 199.993C390.913 199.993 396.531 201.821 403.176 200.966C409.818 200.111 417.505 195.606 417.505 195.606V194.88V194.877Z" fill="#304152"/>
<path d="M393.254 151.208C393.254 151.208 377.935 168.618 379.088 171.5C380.242 174.382 388.061 190.883 389.05 190.918C390.039 190.953 392.897 187.434 392.722 187.002C392.547 186.569 388.039 171.062 388.039 171.062C388.039 171.062 394.284 165.492 394.544 163.67C394.805 161.847 393.254 151.206 393.254 151.206V151.208Z" fill="#304152"/>
<path d="M410.167 147.818C410.167 147.818 431.537 153.493 431.779 152.646C432.021 151.799 426.943 132.333 427.548 131.97C428.153 131.607 432.021 130.155 432.384 131.123C432.746 132.091 441.09 153.006 438.55 159.051C436.01 165.097 412.936 160.382 412.936 160.382L410.165 147.816L410.167 147.818Z" fill="#425466"/>
<path d="M408.842 131.709C408.842 131.709 441.041 120.847 441.273 121.618C441.504 122.39 442.617 128.204 442.617 128.204C441.826 128.79 409.304 133.448 409.304 133.448L408.842 131.712V131.709Z" fill="#0A2540"/>
<path d="M440.117 121.127C440.117 121.127 441.563 128.992 441.95 129.027C442.337 129.062 443.361 128.922 443.361 128.71C443.361 128.497 442.058 120.67 441.74 120.635C441.423 120.6 440.028 120.651 440.12 121.129L440.117 121.127Z" fill="#425466"/>
<path d="M400.2 150.458C399.525 145.345 398.431 140.738 398.066 137.246C397.423 131.107 399.843 125.822 403.471 125.44C407.1 125.061 410.562 129.731 411.205 135.87C411.301 136.795 411.328 137.698 411.293 138.569C411.151 142.055 408.455 144.899 404.987 145.262L405.813 149.794L400.203 150.458H400.2Z" fill="#FFB573"/>
<path d="M409.447 129.806C409.447 129.806 408.183 139.606 407.073 140.875C405.963 142.147 398.896 143.098 398.498 143.018C398.101 142.937 393.813 135.01 394.211 129.803C394.609 124.599 401.549 122.911 402.875 122.833C404.2 122.753 401.119 123.997 401.119 123.997C401.119 123.997 407.062 122.323 410.162 123.798C412.659 124.989 409.584 124.667 409.584 124.667C409.584 124.667 412.879 127.269 412.936 129.349C412.992 131.43 409.447 129.806 409.447 129.806Z" fill="#0A2540"/>
<path d="M408.839 135.671C408.839 135.671 408.947 132.886 407.073 132.927C405.2 132.97 406.533 137.722 408.406 137.722L408.839 135.668V135.671Z" fill="#FFB573"/>
<path d="M413.366 151.372C414.019 153.09 414.169 155.095 414.452 157.003C414.954 160.401 415.441 163.801 415.903 167.207C416.892 174.459 417.922 181.752 418.341 189.066C418.403 190.136 419.032 193.627 418.046 194.479C416.032 196.216 408.189 199.001 403.071 199.1C397.953 199.199 390.268 196.925 389.187 195.853C388.107 194.78 390.813 174.048 391.069 172.559C391.523 169.895 391.01 166.852 391.069 164.156C391.174 159.275 390.867 151.979 395.472 148.907C397.748 147.388 400.603 146.843 403.291 146.708C405.6 146.593 408.057 146.81 410.167 147.821C411.871 148.638 412.804 149.902 413.366 151.377V151.372Z" fill="#425466"/>
<path d="M427.548 131.97C427.548 131.97 425.653 131.155 425.808 131.024C425.964 130.892 428.08 130.68 428.147 130.669C428.214 130.658 429.303 129.373 429.4 128.583C429.496 127.793 429.814 125.422 430.007 125.309C430.201 125.196 430.69 124.379 431.391 124.32C432.093 124.261 433.499 125.137 433.547 125.556C433.596 125.976 433.123 130.333 432.05 130.854C432.05 130.854 430.574 130.924 429.816 131.15C429.058 131.376 427.545 131.97 427.545 131.97H427.548Z" fill="#FFB573"/>
<path d="M415 160.764C415 160.764 410.111 159.307 410.377 160.014C410.64 160.721 416.433 171.043 416.675 172.889C416.917 174.736 415.059 161.183 415 160.764Z" fill="#304152"/>
<path d="M416.301 160.979C416.301 160.979 422.857 177.153 422.933 181.623C423.008 186.093 422.382 186.44 422.169 186.335C421.959 186.23 418.554 182.437 418.341 181.841C418.132 181.244 416.411 169.22 416.008 168.105L414.998 160.761L416.301 160.979Z" fill="#635BFF"/>
<path d="M417.78 269.69C417.78 269.69 417.388 272.297 417.568 272.431C417.748 272.566 423.807 275.213 424.032 276.068C424.032 276.068 412.899 276.966 412.719 276.068C412.539 275.17 412.719 269.528 412.719 269.528L417.78 269.69Z" fill="#0A2540"/>
<path d="M394.018 269.69C394.018 269.69 393.626 272.297 393.806 272.431C393.986 272.566 400.045 275.213 400.27 276.068C400.27 276.068 389.137 276.966 388.957 276.068C388.776 275.17 388.957 269.528 388.957 269.528L394.018 269.69Z" fill="#0A2540"/>
<path d="M387.868 91.1314C386.723 92.2039 385.199 92.8947 383.586 92.8517C365.085 92.3652 347.054 93.1474 328.552 92.6609C320.875 92.4593 314.182 93.0909 306.22 92.6609C303.938 92.5372 291.77 92.9404 293.17 89.9379C292.993 89.2068 293.202 88.438 293.447 87.7257C294.63 84.277 296.75 80.6858 299.487 78.2156C304.322 73.8556 312.12 77.1538 312.252 83.7636C313.658 77.4307 318.668 72.4417 324.262 69.157C326.834 67.6463 329.63 66.3991 332.595 66.0792C337.057 65.5981 341.643 67.3399 344.89 70.4419C348.134 73.5411 350.061 77.9064 350.497 82.3739C353.177 78.7397 356.674 75.7103 360.652 73.5761C362.244 72.7213 363.961 71.9982 365.767 71.9606C368.165 71.9122 370.458 73.1003 372.194 74.7561C375.132 77.5543 376.659 81.7664 376.197 85.7984C377.858 84.3496 379.6 82.9142 381.675 82.175C383.75 81.4331 386.245 81.5057 387.957 82.89C390.951 85.3119 390.161 88.9917 387.871 91.1368L387.868 91.1314Z" fill="white"/>
<path d="M262.425 145.034C262.269 145.193 261.987 145.287 261.535 145.287C250.778 145.287 240.02 145.072 229.263 145.093C224.01 145.104 218.758 145.198 213.508 145.389C208.541 145.569 203.144 146.55 198.276 145.236C196.663 144.8 199.974 141.368 200.547 140.903C201.963 139.755 203.85 139.145 205.649 139.435C206.676 136.32 208.802 133.696 211.673 132.11C212.691 131.548 213.823 131.113 214.987 131.172C216.202 131.231 217.325 131.82 218.368 132.449C219.809 133.32 221.218 134.325 222.153 135.723C223.392 134.083 224.755 132.599 226.432 131.409C227.319 130.78 228.274 130.218 229.322 129.922C230.255 129.659 231.236 129.618 232.206 129.651C234.695 129.731 237.23 130.315 239.27 131.739C241.313 133.164 242.794 135.521 242.762 138.01C244.055 135.682 247.014 134.578 249.678 134.537C251.036 134.516 252.447 134.758 253.56 135.537C255.299 136.752 255.965 138.997 256.264 141.099C257.433 140.448 258.968 140.526 260.067 141.292C260.785 141.795 263.199 144.233 262.422 145.031L262.425 145.034Z" fill="white"/>
<path d="M578.367 188.128C575.155 190.222 566.733 189.05 564.069 189.05C545.958 189.05 527.875 189.534 509.774 189.571C505.283 189.582 505.578 187.037 507.484 183.87C509.32 180.819 515.433 178.841 516.994 183.365C518.798 177.293 524.612 172.884 530.862 171.841C535.012 171.151 539.867 172.097 542.168 175.618C543.536 177.712 543.764 180.327 543.955 182.822C547.793 179.462 552.256 176.817 557.048 175.067C559.575 174.142 562.577 173.519 564.814 175.013C567.365 176.715 567.687 180.271 567.757 183.335C569.402 183.018 570.865 182.104 572.426 181.497C573.988 180.889 575.864 180.626 577.262 181.553C577.926 181.994 578.407 182.658 578.8 183.349C580.16 185.757 579.735 187.238 578.369 188.128H578.367Z" fill="white"/>
<defs>
<filter id="filter0_d_34_4" x="0" y="0" width="704" height="482" filterUnits="userSpaceOnUse" color-interpolation-filters="sRGB">
<feFlood flood-opacity="0" result="BackgroundImageFix"/>
<feColorMatrix in="SourceAlpha" type="matrix" values="0 0 0 0 0 0 0 0 0 0 0 0 0 0 0 0 0 0 127 0" result="hardAlpha"/>
<feOffset dx="4" dy="8"/>
<feGaussianBlur stdDeviation="8"/>
<feComposite in2="hardAlpha" operator="out"/>
<feColorMatrix type="matrix" values="0 0 0 0 0.388235 0 0 0 0 0.356863 0 0 0 0 1 0 0 0 0.1 0"/>
<feBlend mode="normal" in2="BackgroundImageFix" result="effect1_dropShadow_34_4"/>
<feBlend mode="normal" in="SourceGraphic" in2="effect1_dropShadow_34_4" result="shape"/>
</filter>
<linearGradient id="paint0_linear_34_4" x1="348" y1="8" x2="348" y2="458" gradientUnits="userSpaceOnUse">
<stop offset="0.5" stop-color="#DEEAF6"/>
<stop offset="1" stop-color="white"/>
</linearGradient>
</defs>
</svg>
