<svg width="704" height="482" viewBox="0 0 704 482" fill="none" xmlns="http://www.w3.org/2000/svg">
<g filter="url(#filter0_d_34_2)">
<rect x="12" y="8" width="672" height="450" rx="24" fill="url(#paint0_linear_34_2)"/>
<rect x="17" y="13" width="662" height="440" rx="19" stroke="white" stroke-width="10"/>
</g>
<path d="M172.07 427.951H173.087C173.422 424.531 174.079 420.751 175.25 416.797C179.681 401.846 177.743 399.913 185.217 390.566C192.691 381.22 193.246 361.839 193.246 361.839C193.246 361.839 196.844 339.83 193.246 330.138C189.647 320.449 189.37 310.757 180.648 300.514C180.648 300.514 178.988 314.217 176.911 320.447C174.835 326.676 172.863 332.628 174.403 347.579C175.943 362.53 176.9 363.775 177.251 367.651C177.604 371.527 177.05 387.866 177.881 390.563C178.713 393.261 173.035 411.949 172.62 419.978C172.495 422.39 172.271 425.141 172.07 427.946V427.951Z" fill="#215E4B"/>
<path d="M175.255 427.951C176.696 424.623 179.236 421.317 183.681 419.332C195.309 414.142 203.154 414.256 208.552 401.798C213.95 389.339 213.95 372.312 215.82 368.782C215.82 368.782 210.836 367.951 205.854 376.88C200.87 385.81 197.49 392.455 194.611 397.645C191.732 402.837 187.579 401.382 184.05 405.327C181.091 408.633 178.359 416.326 177.322 420.229C176.985 421.496 176.495 422.719 175.849 423.861C175.261 424.898 174.569 426.163 174.153 427.061C174.061 427.263 173.97 427.567 173.878 427.951H175.255Z" fill="#3C8F7C"/>
<path d="M142.443 368.9C141.612 379.56 148.395 378.728 148.672 385.512C148.95 392.296 157.81 403.784 161.913 411.952C164.048 416.201 164.837 422.694 165.101 427.949H168.398C167.121 414.647 161.726 405.389 158.5 397.969C154.348 388.418 153.724 384.057 157.255 376.58C160.785 369.106 155.595 349.794 160.619 341.185C165.644 332.575 163.069 319.061 161.913 313.871C160.758 308.679 162.032 305.15 163.069 299.678C164.106 294.204 161.913 286.256 161.913 286.256C161.726 293.04 156.563 302.313 152.825 308.265C149.088 314.218 142.027 330.413 142.859 337.751C143.69 345.087 143.275 345.642 143.275 345.642C140.644 355.469 143.275 358.239 142.443 368.898V368.9Z" fill="#215E4B"/>
<path d="M162.228 419.29C162.653 420.561 164.012 423.811 165.257 427.951H167.28C166.359 422.68 164.772 416.565 162.092 413.06C156.694 405.999 145.896 402.955 144.649 397.832C143.404 392.709 144.787 377.345 136.897 368.762C136.897 368.762 138.006 378.317 136.897 380.876C135.791 383.435 126.377 395.34 131.913 405.306C137.449 415.273 149.908 414.028 153.784 416.243C157.66 418.458 161.535 417.213 162.228 419.29Z" fill="#3C8F7C"/>
<path d="M157.246 373.322C157.108 383.566 165.136 387.441 164.998 393.116C164.859 398.791 166.659 404.882 168.181 409.451C169.144 412.343 168.61 420.394 168.44 427.949H170.668C171.229 422.397 171.844 414.386 171.641 410.834C171.364 405.989 173.579 402.113 173.856 393.668C174.133 385.224 175.932 377.611 172.195 366.952C168.458 356.292 169.151 343.556 153.507 331.791C153.507 331.791 150.738 344.249 152.814 351.033C154.891 357.817 157.383 363.076 157.244 373.32L157.246 373.322Z" fill="#3C8F7C"/>
<path d="M173.093 419.209H151.651C150.185 419.209 149.103 420.582 149.443 422.01L157.259 454.97C157.503 455.996 158.417 456.717 159.468 456.717H185.223C186.274 456.717 187.188 455.993 187.432 454.97L195.248 422.01C195.588 420.582 194.506 419.209 193.04 419.209H173.093Z" fill="#2FB4F7"/>
<path d="M275.322 399.801H271.8V451.326H275.322V399.801Z" fill="#86B1F2"/>
<path d="M325.343 438.15C325.343 438.15 326.114 446.192 325.606 448.814C325.539 449.165 325.389 449.61 325.215 450.099C324.692 451.57 326.123 456.06 326.123 456.06L345.296 456.127C346.339 456.132 345.642 455.499 344.793 454.918C343.403 453.968 342.283 453.342 337.853 451.362C337.564 451.232 336.512 450.611 336.132 450.396C335.168 449.851 334.198 448.986 333.36 448.119C331.965 446.673 331.753 439.585 331.753 439.585L325.345 438.15H325.343Z" fill="#FFB573"/>
<path d="M336.127 450.396C331.073 451.697 327.316 450.899 325.208 450.117C324.688 451.585 323.704 456.549 324.29 456.549C329.098 456.549 333.168 457.419 346.943 457.211C347.437 457.204 347.377 455.584 347.055 455.226C346.165 454.238 336.507 450.613 336.127 450.396Z" fill="#F7CC7F"/>
<path d="M347.044 424.815C347.044 424.815 351.237 431.826 351.914 434.412C352.006 434.759 352.062 435.222 352.118 435.738C352.281 437.282 355.531 440.8 355.531 440.8L373.003 433.255C373.955 432.843 373.045 432.546 372.019 432.354C370.341 432.041 369.051 431.916 364.163 431.873C363.843 431.871 362.616 431.723 362.176 431.677C361.063 431.563 359.804 431.16 358.664 430.704C356.767 429.942 353.497 423.579 353.497 423.579L347.042 424.815H347.044Z" fill="#FFB573"/>
<path d="M362.173 431.677C358.141 434.866 354.375 435.629 352.12 435.754C352.283 437.296 353.546 442.202 354.078 441.97C358.452 440.061 362.531 439.238 374.974 433.583C375.419 433.38 374.661 431.932 374.214 431.735C372.978 431.19 362.616 431.722 362.176 431.677H362.173Z" fill="#F7CC7F"/>
<path d="M287.41 364.942V369.075L328.056 377.246L338.146 406.214L332.524 402.546L333.823 447.153L325.273 447.209C325.273 447.209 310.461 409.783 315.32 390.961L270.336 391.618C270.336 391.618 249.947 384.093 260.467 361.401L287.414 364.942H287.41Z" fill="#425466"/>
<path d="M287.41 369.075C287.41 369.075 329.574 369.345 332.569 371.549C335.564 373.753 358.034 428.532 358.034 428.532L348.233 432.03C348.233 432.03 328.736 400.952 327.703 398.735C326.671 396.518 319.12 380.313 316.237 378.659C313.354 377.005 287.41 369.072 287.41 369.072V369.075Z" fill="#0A2540"/>
<path d="M254.905 453.626H289.914C291.525 453.626 292.833 454.934 292.833 456.545C292.833 456.827 292.605 457.055 292.323 457.055H252.497C252.216 457.055 251.988 456.827 251.988 456.545C251.988 454.934 253.295 453.626 254.907 453.626H254.905Z" fill="#86B1F2"/>
<path d="M270.676 451.328H274.965C276.235 451.328 277.263 452.356 277.263 453.626C277.263 454.895 276.235 455.924 274.965 455.924H270.676C269.407 455.924 268.378 454.895 268.378 453.626C268.378 452.356 269.407 451.328 270.676 451.328Z" fill="#86B1F2"/>
<path d="M290.394 295.818C290.584 291.231 289.909 286.7 287.858 282.429C286.092 278.754 281.722 276.669 277.739 276.665C265.086 276.649 263.479 293.366 255.423 299.814C252.962 301.785 250.211 303.39 247.882 305.514C239.283 313.359 243.157 327.883 251.051 334.763C256.53 339.535 265.142 342.248 271.894 338.516C275.419 336.569 278.094 333.33 280.001 329.783C282.708 324.747 284.451 318.938 286.376 313.574C288.423 307.863 290.14 301.917 290.392 295.82L290.394 295.818Z" fill="#0A2540"/>
<path d="M325.298 343.882L297.765 336.207C297.765 336.207 291.965 328.415 284.502 317.963C282.061 320.377 280.707 324.088 278.248 326.479L296.473 346.638C297.131 347.365 298.065 347.783 299.044 347.785L324.344 347.87L333 348.56V343.019L325.296 343.884L325.298 343.882Z" fill="#FFA04B"/>
<path d="M285.663 338.04C285.663 338.04 276.215 328.35 273.783 324.142C271.351 319.933 275.439 322.673 279.614 321.564C281.195 321.144 280.794 311.88 283.785 314.893C288.689 319.834 294.854 328.473 294.854 328.473L285.665 338.04H285.663Z" fill="#9FD9F7"/>
<path d="M272.227 310.641C272.227 310.641 263.747 308.967 259.878 312.199C256.009 315.433 260.707 344.177 260.703 348.942C260.698 353.708 258.045 367.17 258.045 367.17C258.045 367.17 283.747 371.669 287.828 364.515C287.828 364.515 288.991 337.262 288.816 333.835C288.644 330.409 284.833 316.392 283.778 314.89C282.725 313.39 272.225 310.641 272.225 310.641H272.227Z" fill="#2FB4F7"/>
<path d="M272.176 297.523C272.176 297.523 272.131 297.775 272.051 298.207C271.666 300.277 270.184 307.143 269.185 309.029C267.976 311.311 273.325 318.585 278.472 317.697C280.006 317.434 277.176 311.012 277.312 310.333C277.571 309.029 277.925 307.255 278.287 305.433C278.49 304.405 278.696 303.363 278.89 302.384C279.44 299.602 279.889 297.326 279.889 297.326L272.176 297.518V297.523Z" fill="#FFB573"/>
<path d="M272.05 298.209C272.131 297.778 272.175 297.525 272.175 297.525L279.889 297.333C279.889 297.333 279.44 299.608 278.89 302.391C278.697 303.366 278.492 304.401 278.288 305.422C277.097 305.248 275.852 304.669 274.605 303.578C273.244 302.389 272.354 300.961 271.815 299.436C271.912 298.949 271.99 298.531 272.05 298.209Z" fill="#BC8F5E"/>
<path d="M277.366 280.024C277.366 280.024 273.729 279.604 271.451 282.548C269.172 285.489 266.715 294.586 272.377 299.533C278.038 304.479 283.633 298.88 284.462 292.943C285.291 287.007 285.613 279.81 277.366 280.024Z" fill="#FFB573"/>
<path d="M286.139 292.856C285.464 294.168 284.328 294.892 283.604 294.476C282.88 294.061 282.842 292.661 283.517 291.349C284.192 290.04 285.327 289.313 286.051 289.729C286.776 290.145 286.814 291.544 286.139 292.856Z" fill="#FFB573"/>
<path d="M277.773 279.051C277.773 279.051 272.916 287.704 269.44 288.104C265.964 288.504 265.508 293.102 265.508 293.102C265.508 293.102 266.751 282.509 270.191 280.466C273.631 278.423 277.773 279.054 277.773 279.054V279.051Z" fill="#0A2540"/>
<path d="M270.351 290.277C270.633 291.814 270.065 293.223 269.082 293.424C268.098 293.625 267.072 292.543 266.788 291.008C266.507 289.472 267.075 288.062 268.058 287.86C269.041 287.659 270.067 288.741 270.351 290.277Z" fill="#FFB573"/>
<path d="M310.061 342.959L286.19 337.677C286.19 337.677 277.558 326.584 269.265 317.038C266.824 319.452 265.47 323.165 263.011 325.554L281.237 345.713C281.894 346.439 282.828 346.857 283.807 346.859L309.107 346.944L317.763 347.635V342.094L310.059 342.959H310.061Z" fill="#FFB573"/>
<path d="M270.426 337.116C270.426 337.116 260.978 327.427 258.546 323.218C256.114 319.01 257.918 311.958 262.093 310.849C266.268 309.74 279.614 327.55 279.614 327.55L270.426 337.116Z" fill="#9FD9F7"/>
<path d="M359.101 315.786H319.731C318.69 315.786 317.751 316.416 317.355 317.38L305.234 346.946H283.528C282.92 346.946 282.429 347.438 282.429 348.044C282.429 348.65 282.92 349.141 283.528 349.141H345.301C347 349.141 348.54 348.144 349.235 346.595L361.441 319.405C362.203 317.706 360.961 315.786 359.099 315.786H359.101Z" fill="#B75742"/>
<path d="M337.906 333.001C337.64 334.329 336.482 335.216 335.317 334.984C334.155 334.752 333.426 333.486 333.692 332.159C333.958 330.831 335.116 329.944 336.281 330.176C337.443 330.409 338.172 331.674 337.906 333.001Z" fill="white"/>
<path d="M296.241 393.872L293.832 383.845C292.147 376.831 285.937 371.73 278.729 371.437L248.219 370.204L247.278 367.097L278.854 368.373C287.426 368.719 294.811 374.788 296.814 383.127L299.373 393.782C298.506 393.82 297.448 393.849 296.241 393.872Z" fill="#355389"/>
<path d="M255.318 388.529C255.318 388.529 297.236 389.247 301.606 388.529C305.975 387.812 307.866 393.29 306.563 396.16C305.258 399.03 301.671 400.139 296.389 400.4C291.105 400.662 247.146 401.9 245.906 400.726C244.893 399.767 231.567 354.206 226.717 337.545C225.747 334.215 227.66 330.735 230.986 329.758C234.299 328.786 237.777 330.666 238.778 333.969L255.318 388.529Z" fill="#F7CC7F"/>
<path d="M279.154 355.742H446.882C448.703 355.742 450.183 354.264 450.183 352.44C450.183 350.617 448.706 349.139 446.882 349.139H279.154C277.332 349.139 275.853 350.617 275.853 352.44C275.853 354.264 277.33 355.742 279.154 355.742Z" fill="#13375B"/>
<path d="M317.755 457.054H322.453L312.33 355.742H307.632L317.755 457.054Z" fill="#13375B"/>
<path d="M277.838 457.054H273.142L283.262 355.742H287.961L277.838 457.054Z" fill="#13375B"/>
<path d="M445.485 457.054H450.181L440.06 355.742H435.362L445.485 457.054Z" fill="#13375B"/>
<path d="M405.567 457.054H400.869L410.992 355.742H415.688L405.567 457.054Z" fill="#13375B"/>
<path d="M524.87 390.248C524.524 387.186 524.113 384.052 522.691 381.319C520.963 377.995 517.926 375.597 515.273 372.957C510.315 368.022 506.5 361.942 504.211 355.326C502.441 350.21 501.558 344.761 499.117 339.928C497.628 336.978 495.597 334.34 493.902 331.504C489.904 324.796 487.727 316.868 482.302 311.253C481.258 318.062 483.321 325.286 487.8 330.509C489.137 332.067 490.686 333.471 491.703 335.254C493.549 338.491 493.382 342.44 493.598 346.162C494.005 353.158 495.977 360.058 499.327 366.209C502.886 372.745 508.022 378.563 509.924 385.758C511.35 391.149 510.925 397.199 513.965 401.873C514.294 402.378 514.671 402.888 514.752 403.487C514.797 403.824 514.745 404.164 514.692 404.499C514.625 404.933 514.555 405.367 514.488 405.802C513.798 410.217 513.082 415.832 516.875 419.135C519.504 421.424 522.886 421.475 524.774 418.435C526.674 415.373 526.507 410.892 526.366 407.448C526.131 401.71 525.516 395.954 524.87 390.253V390.248Z" fill="#3C8F7C"/>
<path d="M531.701 386.699C530.226 381.589 527.935 376.723 526.788 371.531C525.675 366.495 525.666 361.287 525.662 356.129C525.657 350.476 525.653 344.823 525.651 339.17C525.648 335.65 525.644 332.112 525.063 328.643C523.811 321.175 519.931 314.271 519.274 306.727C518.99 303.466 519.321 300.169 518.961 296.913C518.755 295.053 518.279 293.155 517.419 291.506C516.493 289.731 513.936 289.809 513.098 291.627C511.212 295.71 510.018 300.127 510.778 304.503C511.234 307.127 512.372 309.577 513.221 312.103C517.001 323.348 514.993 335.798 517.919 347.295C518.802 350.766 520.136 354.171 520.293 357.749C520.664 366.314 514.267 374.137 514.855 382.689C515.335 389.7 520.378 395.505 522.492 402.206C523.677 405.957 523.929 409.962 525.199 413.686C526.185 416.578 528.478 420.092 532.039 419.213C535.42 418.38 534.399 415.619 534.247 412.984C533.735 404.066 534.218 395.414 531.701 386.701V386.699Z" fill="#327F6B"/>
<path d="M539.441 391.381C539.292 388.726 538.845 386.057 539.216 383.424C539.529 381.2 540.414 379.106 541.046 376.951C542.231 372.915 542.524 368.677 542.812 364.479C543.333 356.848 543.856 349.218 544.377 341.587C545.188 329.725 546.002 317.829 548.219 306.148C548.834 302.905 549.526 299.392 548.069 296.432C547.763 295.809 547.157 295.147 546.496 295.355C546.024 295.502 545.791 296.023 545.622 296.488C540.774 309.664 538.941 323.849 533.529 336.801C532.233 339.904 530.727 342.957 530.054 346.254C529.249 350.212 529.692 354.3 529.794 358.337C529.944 364.128 529.379 369.964 527.781 375.53C526.945 378.442 525.825 381.29 525.364 384.285C524.792 388.02 525.273 391.826 525.63 395.588C526.319 402.821 526.551 410.096 526.328 417.361C526.196 421.63 529.801 421.518 532.188 418.896C533.858 417.061 533.842 415.047 534.415 412.765C536.292 405.268 539.9 399.511 539.444 391.384L539.441 391.381Z" fill="#3C8F7C"/>
<path d="M516.922 402.957C513.735 397.836 507.387 394.926 505.349 389.247C504.83 387.803 504.629 386.247 503.994 384.848C502.588 381.741 499.39 379.987 496.247 378.558C495.811 378.359 495.315 378.677 495.308 379.157C495.297 379.922 495.659 380.65 496.292 381.075C498.712 382.705 500.554 385.197 501.372 388.006C502.342 391.334 501.922 394.984 503.129 398.234C504.142 400.963 506.229 403.192 507.208 405.934C508.105 408.44 508.011 411.176 508.431 413.804C508.851 416.433 510.02 419.22 512.432 420.331C521.162 424.354 518.979 406.267 516.92 402.959L516.922 402.957Z" fill="#327F6B"/>
<path d="M553.232 401.267C553.096 403.744 553.474 406.339 552.506 408.621C551.887 410.081 550.771 411.261 549.855 412.555C546.641 417.101 545.476 423.541 540.539 426.1C540.213 426.27 539.851 426.419 539.488 426.352C538.983 426.259 538.65 425.771 538.447 425.297C537.235 422.477 538.594 419.301 539.399 416.337C539.54 415.818 539.658 415.239 539.41 414.763C539.138 414.238 538.518 414.012 538.096 413.601C537.253 412.781 537.331 411.422 537.499 410.257C537.917 407.342 538.505 404.455 539.26 401.609C539.687 399.996 540.181 398.368 541.111 396.985C542.135 395.46 543.621 394.323 545.011 393.125C551.16 387.836 555.87 380.883 558.505 373.205C559.075 371.542 559.585 369.788 560.763 368.487C561.94 367.186 564.044 366.515 565.479 367.526C566.5 368.245 562.316 374.975 561.829 375.782C560.434 378.089 560.416 380.096 559.629 382.655C557.698 388.932 553.599 394.549 553.23 401.272L553.232 401.267Z" fill="#3C8F7C"/>
<path d="M548.366 404.131C549.281 401.768 550.202 399.376 550.501 396.862C550.836 394.066 550.391 391.207 550.87 388.433C551.484 384.866 553.563 381.728 554.594 378.259C555.338 375.753 555.519 373.12 555.966 370.545C557.242 363.18 560.707 355.983 559.712 348.576C559.495 346.964 558.769 345.087 557.168 344.812C555.72 344.564 554.401 345.887 554.026 347.309C553.65 348.73 553.93 350.232 554.033 351.701C554.321 355.795 553.152 359.977 550.785 363.328C548.51 366.546 545.21 368.969 543.163 372.338C540.653 376.471 540.311 381.513 539.03 386.178C536.482 395.454 530.092 403.545 528.927 413.093C528.465 416.893 529.356 421.511 532.863 423.031C543.007 427.421 546.069 410.076 548.364 404.135L548.366 404.131Z" fill="#327F6B"/>
<path d="M530.635 415.903H507.358C505.766 415.903 504.593 417.392 504.96 418.943L513.444 454.723C513.708 455.837 514.7 456.621 515.842 456.621H543.802C544.944 456.621 545.937 455.837 546.2 454.723L554.685 418.943C555.054 417.392 553.878 415.903 552.287 415.903H530.632H530.635Z" fill="#2FB4F7"/>
<path d="M308.203 141.89L308.096 142.729L396.565 154.047L396.672 153.207L308.203 141.89Z" fill="#2FB4F7"/>
<path d="M308.834 151.679L309.238 150.935L186.583 84.8926L235.612 72.6963L235.407 71.8745L184.25 84.5966L308.834 151.679Z" fill="#2FB4F7"/>
<path d="M108.186 174.12L107.916 174.925L268.412 228.813L268.682 228.008L108.186 174.12Z" fill="#2FB4F7"/>
<path d="M578.06 232.395L578.666 231.803L498.817 150.177L498.743 150.144L362.212 91.2207L315.098 84.3257L314.976 85.164L362.032 92.0508L498.331 150.888L578.06 232.395Z" fill="#2FB4F7"/>
<path d="M323.596 251.788L329.686 208.008L329.376 207.889L259.931 180.632L197.92 154.187L197.585 154.964L259.61 181.413L328.754 208.556L322.758 251.672L323.596 251.788Z" fill="#2FB4F7"/>
<path d="M318.906 252.106L319.299 251.353L263.69 222.287V177.254L206.768 225.295L106.178 175.909L209.468 147.67L209.548 147.485L240.795 76.7747L313.588 85.1168L306.652 142.278L307.493 142.38L314.532 84.3725L314.108 84.3255L240.272 75.8589L240.144 76.1466L208.854 146.959L103.793 175.685L206.892 226.302L207.103 226.122L262.844 179.077V222.802L318.906 252.106Z" fill="#2FB4F7"/>
<path d="M494.423 155.791L494.442 154.945L399.843 153.016L426.723 73.3302L425.921 73.0591L398.673 153.841L494.423 155.791Z" fill="#2FB4F7"/>
<path d="M614.657 207.097L615.066 206.353L507.823 147.596L438.175 84.8569L437.608 85.4878L507.336 148.282L614.657 207.097Z" fill="#2FB4F7"/>
<path d="M525.138 220.972L524.849 221.771L578.247 241.143L578.537 240.345L525.138 220.972Z" fill="#2FB4F7"/>
<path d="M524.893 219.962L473.688 233.443L473.904 234.265L525.109 220.784L524.893 219.962Z" fill="#2FB4F7"/>
<path d="M470.913 233.189L411.466 237.356L411.525 238.201L470.972 234.033L470.913 233.189Z" fill="#2FB4F7"/>
<path d="M356.771 173.319L356.904 173.308L486.515 162.808L486.446 161.964L356.97 172.453L317.244 148.863L316.812 149.59L356.771 173.319Z" fill="#2FB4F7"/>
<path d="M386.02 229.196L386.764 228.792L356.926 173.676L330.976 208.91L331.656 209.41L356.815 175.256L386.02 229.196Z" fill="#2FB4F7"/>
<path d="M308.447 146.245L359.88 93.8739L430.986 73.6011L430.754 72.7876L359.432 93.1186L359.355 93.1988L307.841 145.653L308.447 146.245Z" fill="#2FB4F7"/>
<path d="M137.493 136.829L137.327 137.659L188.935 147.999L189.101 147.169L137.493 136.829Z" fill="#2FB4F7"/>
<path d="M149.225 241.329L149.519 240.535L103.567 223.521V171.487L140.911 142.488L140.828 142.211L125.248 89.4082L124.434 89.6462L139.934 142.172L102.717 171.075V224.111L149.225 241.329Z" fill="#2FB4F7"/>
<path d="M194.795 164.374L104.764 221.004L105.216 221.723L195.248 165.093L194.795 164.374Z" fill="#2FB4F7"/>
<path d="M401.634 155.683L398.813 233.708L399.66 233.738L402.48 155.713L401.634 155.683Z" fill="#2FB4F7"/>
<path d="M266.315 232.749L300.09 136.337L299.29 136.055L265.515 232.47L266.315 232.749Z" fill="#2FB4F7"/>
<path d="M130.233 85.5921L129.66 86.2188L201.085 151.577L201.658 150.95L130.233 85.5921Z" fill="#2FB4F7"/>
<path d="M102.042 175.577V224.578L149.621 242.195L150.384 240.137L104.239 223.051V221.455L104.997 222.661L145.744 197.034L206.989 227.102L207.537 226.637L222.408 214.084L266.089 228.776L264.65 232.879L266.723 233.61L268.17 229.476L268.812 229.692L269.512 227.608L268.897 227.401L269.097 226.831L319.188 253.014L320.203 251.066L269.83 224.733L281.713 190.812L328.009 208.984L321.991 252.244L324.165 252.546L330.197 209.175L331.791 210.351L356.72 176.507L385.736 230.104L387.668 229.058L357.81 173.906L400.439 170.453L398.126 234.368L400.323 234.445L402.647 170.276L487.233 163.422L487.056 161.234L402.725 168.065L403.195 155.075L400.998 154.997L400.52 168.245L357.121 171.762L316.996 147.936L315.876 149.826L356.067 173.69L330.258 208.73L330.418 207.571L329.611 207.255L282.436 188.739L297.321 146.248L309.1 152.59L310.143 150.659L298.055 144.151L300.938 135.922L298.865 135.192L296.096 143.094L228.335 106.61L241.198 77.4971L312.827 85.7064L305.887 142.862L307.359 143.042L307.323 143.329L308.956 143.537L306.875 145.656L308.441 147.195L311.69 143.885L397.136 154.773L397.415 152.593L313.624 141.915L360.223 94.4663L363.662 93.4869L411.358 114.075L397.725 154.488L495.072 156.472L495.113 154.275L400.763 152.352L413.38 114.947L497.93 151.447L505.038 158.716L474.481 226.277L447.634 178.137L402.993 239.448L404.839 240.64L447.354 182.605L474.547 231.462L506.69 160.398L578.042 233.338L579.61 231.803L507.661 158.251L508.887 155.539L506.883 154.637L506.012 156.566L499.2 149.602L414.086 112.869L426.683 75.5188L431.81 74.0579L431.21 71.9468L427.535 72.9954L427.566 72.9013L425.485 72.1985L424.97 73.7259L363.792 91.1655L362.39 90.5595L314.52 83.5538L314.501 83.6838L314.174 83.6479L239.842 75.1259L239.516 75.8674L226.396 105.561L188.429 85.1198L236.42 73.1808L235.889 71.0503L182.386 84.3562L225.507 107.576L208.358 146.387L200.116 148.639L130.186 84.6439L128.703 86.2653L197.612 149.325L108.89 173.582L107.761 173.203L107.506 173.961L104.233 174.855V171.811L141.68 142.732L141.467 142.012L140.576 138.996L189.455 148.78L189.887 146.627L139.876 136.617L125.696 88.5674L123.587 89.1844L137.441 136.13L136.951 136.033L136.52 138.186L138.144 138.509L139.148 141.915L102.036 170.738V175.458L101.887 175.5L102.036 175.572L102.042 175.577ZM366.988 92.5489L424.127 76.2603L412.069 112.006L366.988 92.5489ZM315.032 85.8558L359.587 92.3746L359.075 92.5212L358.87 92.7315L310.901 141.575L308.308 141.246L315.032 85.8558ZM108.826 175.887L152.105 190.444L145.617 194.525L108.076 176.095L108.826 175.89V175.887ZM280.396 187.942L264.362 181.65V175.807L259.65 179.783L197.559 153.304L196.696 155.321L257.772 181.365L221.938 211.61L157.194 189.835L196.173 165.32L195.003 163.461L154.504 188.933L112.628 174.849L199.535 151.09L201.129 152.549L202.612 150.927L202.039 150.404L209.952 148.24L210.162 147.759L227.452 108.63L295.368 145.2L280.394 187.942H280.396ZM262.166 180.533V180.787L261.961 180.707L262.166 180.535V180.533ZM267.865 223.712L264.362 221.881V184.005L279.669 190.012L267.865 223.71V223.712ZM224.376 212.429L260.054 182.315L262.166 183.145V223.212L267.129 225.807L266.814 226.703L224.37 212.429H224.376ZM147.933 195.659L154.792 191.346L219.974 213.268L206.668 224.498L147.933 195.662V195.659ZM104.239 176.656L143.428 195.897L104.239 220.544V176.656Z" fill="#2FB4F7"/>
<path d="M612.406 206.635L513.123 152.225L503.669 152.388L503.63 150.194L509.238 150.094L506.942 148.835L504.388 146.536L502.562 151.467L500.5 150.703L502.631 144.956L436.652 85.5348L438.124 83.9051L503.45 142.748L528.299 75.6709L530.358 76.4346L505.204 144.331L508.214 147.042L513.646 150.017L597.969 154.441L598.007 156.638L517.533 152.147L611.856 203.827L595.52 155.75L597.675 155.329L614.362 205.199L615.978 206.085L614.924 208.013L614.913 208.008L616.081 213.948L585.717 233.504L584.527 231.656L613.64 212.908L612.406 206.635Z" fill="#2FB4F7"/>
<path d="M525.733 220.47L579.407 239.957L578.657 242.021L523.992 222.174L524.167 221.701L473.425 235.062L472.869 232.937L525.376 219.111L525.733 220.47Z" fill="#2FB4F7"/>
<path d="M471.538 232.468L410.744 236.729L410.898 238.918L471.691 234.656L471.538 232.468Z" fill="#2FB4F7"/>
<path d="M528.719 76.5511L501.388 150.318L502.182 150.613L529.513 76.8452L528.719 76.5511Z" fill="#2FB4F7"/>
<path d="M256.52 89.5143C262.858 79.2611 259.683 65.8117 249.43 59.4743C239.177 53.1369 225.728 56.3112 219.39 66.5644C213.053 76.8175 216.227 90.2669 226.48 96.6043C236.734 102.942 250.183 99.7674 256.52 89.5143Z" fill="white"/>
<path d="M173.694 241.325C175.65 229.279 167.47 217.929 155.424 215.974C143.378 214.018 132.028 222.198 130.073 234.244C128.118 246.29 136.298 257.64 148.343 259.595C160.389 261.55 171.739 253.37 173.694 241.325Z" fill="white"/>
<path d="M415.44 153.429C415.44 162.366 408.194 169.612 399.257 169.612C390.32 169.612 383.073 162.366 383.073 153.429C383.073 144.492 390.32 137.245 399.257 137.245C408.194 137.245 415.44 144.492 415.44 153.429Z" fill="white"/>
<path d="M510.262 180.97C526.659 177.69 537.293 161.739 534.014 145.342C530.734 128.944 514.783 118.31 498.386 121.59C481.989 124.869 471.355 140.82 474.634 157.218C477.914 173.615 493.865 184.249 510.262 180.97Z" fill="white"/>
<path d="M366.849 105.028C374.243 102.434 378.135 94.3368 375.541 86.9424C372.947 79.5481 364.85 75.6564 357.456 78.2503C350.062 80.8441 346.17 88.9411 348.764 96.3355C351.358 103.73 359.455 107.621 366.849 105.028Z" fill="white"/>
<path d="M546.89 85.273C548.013 73.9441 539.739 63.8501 528.41 62.7273C517.081 61.6045 506.987 69.8782 505.865 81.207C504.742 92.5359 513.015 102.63 524.344 103.753C535.673 104.875 545.767 96.6018 546.89 85.273Z" fill="white"/>
<path d="M132.283 111.051C142.395 111.051 150.592 102.854 150.592 92.7425C150.592 82.631 142.395 74.4341 132.283 74.4341C122.172 74.4341 113.975 82.631 113.975 92.7425C113.975 102.854 122.172 111.051 132.283 111.051Z" fill="white"/>
<path d="M337.117 148.162C339.045 133.459 328.689 119.977 313.986 118.049C299.284 116.121 285.802 126.478 283.874 141.18C281.946 155.883 292.302 169.365 307.005 171.293C321.708 173.221 335.19 162.865 337.117 148.162Z" fill="white"/>
<path d="M127.523 178.636C130.702 165.169 122.361 151.675 108.894 148.496C95.4274 145.318 81.9336 153.658 78.7551 167.125C75.5767 180.592 83.9171 194.086 97.384 197.264C110.851 200.443 124.345 192.102 127.523 178.636Z" fill="white"/>
<path d="M614.181 156.821C614.181 166.627 606.232 174.579 596.423 174.579C586.615 174.579 578.666 166.629 578.666 156.821C578.666 147.012 586.615 139.063 596.423 139.063C606.232 139.063 614.181 147.012 614.181 156.821Z" fill="white"/>
<path d="M343.193 211.954C344.742 205.389 340.677 198.812 334.112 197.262C327.547 195.713 320.97 199.778 319.42 206.343C317.871 212.908 321.936 219.486 328.501 221.035C335.066 222.584 341.643 218.519 343.193 211.954Z" fill="white"/>
<path d="M489.978 228.878C489.978 237.411 483.061 244.328 474.528 244.328C465.995 244.328 459.078 237.411 459.078 228.878C459.078 220.345 465.995 213.425 474.528 213.425C483.061 213.425 489.978 220.342 489.978 228.878Z" fill="white"/>
<path d="M455.023 82.0615C458.038 68.7152 449.663 55.4517 436.317 52.4367C422.971 49.4216 409.707 57.7967 406.692 71.143C403.677 84.4893 412.052 97.7528 425.398 100.768C438.745 103.783 452.008 95.4078 455.023 82.0615Z" fill="white"/>
<mask id="mask0_34_2" style="mask-type:luminance" maskUnits="userSpaceOnUse" x="407" y="51" width="48" height="49">
<path d="M454.714 76.2929C455.061 63.139 444.679 52.1946 431.525 51.8478C418.371 51.5011 407.427 61.8833 407.08 75.0372C406.733 88.1911 417.115 99.1356 430.269 99.4823C443.423 99.8291 454.368 89.4468 454.714 76.2929Z" fill="white"/>
</mask>
<g mask="url(#mask0_34_2)">
<path d="M442.267 72.2647C442.406 68.9389 441.916 65.6574 440.427 62.5613C439.146 59.8996 435.981 58.3861 433.093 58.3833C423.923 58.3722 422.756 70.4856 416.92 75.1616C415.136 76.5893 413.143 77.7514 411.456 79.2926C405.225 84.9785 408.03 95.5064 413.752 100.49C417.723 103.948 423.965 105.915 428.859 103.209C431.413 101.798 433.353 99.452 434.736 96.8788C436.698 93.2293 437.962 89.0209 439.357 85.1307C440.843 80.9914 442.085 76.6806 442.267 72.2619V72.2647Z" fill="#13375B"/>
<path d="M438.84 102.866C438.84 102.866 431.992 95.844 430.23 92.7922C428.467 89.7403 431.43 91.7269 434.455 90.9245C435.6 90.6202 435.31 83.905 437.476 86.088C441.029 89.6684 445.497 95.9298 445.497 95.9298L438.837 102.864L438.84 102.866Z" fill="#96D9C9"/>
<path d="M429.102 83.0084C429.102 83.0084 422.957 81.7966 420.151 84.1373C417.346 86.4809 420.752 107.313 420.749 110.766C420.749 114.219 418.823 123.239 418.823 123.239C418.823 123.239 437.45 127.237 440.41 122.052C440.41 122.052 441.251 102.299 441.127 99.8144C441.002 97.3298 438.241 87.1726 437.477 86.0852C436.714 84.9978 429.102 83.0057 429.102 83.0057V83.0084Z" fill="#50BFA5"/>
<path d="M429.064 73.5016C429.064 73.5016 429.031 73.6842 428.973 73.9969C428.694 75.4965 427.62 80.4741 426.895 81.841C426.018 83.4956 429.894 88.7665 433.627 88.1245C434.736 87.9336 432.689 83.2797 432.786 82.7872C432.974 81.8437 433.231 80.5571 433.491 79.2373C433.638 78.4931 433.787 77.7377 433.928 77.0294C434.327 75.0123 434.653 73.3633 434.653 73.3633L429.062 73.5016H429.064Z" fill="#F7A491"/>
<path d="M428.973 73.9993C429.031 73.6867 429.064 73.5041 429.064 73.5041L434.656 73.3657C434.656 73.3657 434.33 75.0148 433.931 77.0318C433.793 77.7374 433.643 78.4872 433.497 79.2287C432.634 79.1014 431.732 78.6837 430.827 77.8923C429.842 77.0318 429.194 75.997 428.804 74.8903C428.873 74.5361 428.931 74.2345 428.973 74.0021V73.9993Z" fill="#F47458"/>
<path d="M432.827 60.8207C432.827 60.8207 430.191 60.5163 428.539 62.6496C426.887 64.7828 425.105 71.3763 429.211 74.9594C433.314 78.5452 437.368 74.4862 437.971 70.1838C438.571 65.8813 438.807 60.6657 432.827 60.8207Z" fill="#F7A491"/>
<path d="M436.936 59.7363C436.936 59.7363 431.798 67.0962 426.909 66.1112L426.773 62.9708L427.224 61.781L429.704 60.1901L433.729 59.2715L436.936 59.7363Z" fill="#13375B"/>
<path d="M439.186 70.1204C438.696 71.0695 437.875 71.5979 437.349 71.2963C436.826 70.9948 436.796 69.9821 437.285 69.0303C437.775 68.0812 438.597 67.5528 439.122 67.8544C439.648 68.1559 439.676 69.1686 439.186 70.1204Z" fill="#F7A491"/>
<path d="M427.744 68.25C427.949 69.3623 427.537 70.386 426.823 70.5299C426.109 70.6765 425.365 69.8907 425.16 68.7785C424.955 67.6662 425.367 66.6452 426.081 66.4986C426.795 66.3519 427.539 67.1377 427.744 68.25Z" fill="#F7A491"/>
<path d="M422.467 102.62C422.467 102.62 418.433 93.6801 417.822 90.2104C417.21 86.7407 420.185 82.3857 423.303 82.6651C426.421 82.9474 431.094 98.3837 431.094 98.3837L422.464 102.623L422.467 102.62Z" fill="#96D9C9"/>
</g>
<path d="M228.859 157.759C232.443 142.576 223.04 127.362 207.856 123.779C192.673 120.195 177.46 129.599 173.876 144.782C170.293 159.965 179.696 175.178 194.879 178.762C210.062 182.346 225.276 172.942 228.859 157.759Z" fill="white"/>
<path d="M280.801 224.449C280.801 232.89 273.956 239.736 265.514 239.736C257.073 239.736 250.228 232.89 250.228 224.449C250.228 216.007 257.073 209.162 265.514 209.162C273.956 209.162 280.801 216.007 280.801 224.449Z" fill="white"/>
<path d="M400.762 261.015C417.216 260.193 429.888 246.188 429.066 229.734C428.244 213.28 414.239 200.608 397.786 201.43C381.332 202.252 368.66 216.257 369.482 232.71C370.304 249.164 384.308 261.837 400.762 261.015Z" fill="white"/>
<path d="M598.075 229.736C598.075 240.474 589.367 249.182 578.629 249.182C567.891 249.182 559.184 240.474 559.184 229.736C559.184 218.998 567.891 210.291 578.629 210.291C589.367 210.291 598.075 218.998 598.075 229.736Z" fill="white"/>
<path d="M439.367 181.556C439.367 186.05 443.011 189.694 447.504 189.694C451.997 189.694 455.641 186.05 455.641 181.556C455.641 177.063 451.997 173.419 447.504 173.419C443.011 173.419 439.367 177.063 439.367 181.556Z" fill="white"/>
<path d="M531.458 224.046C532.934 220.483 531.242 216.397 527.679 214.921C524.115 213.445 520.03 215.138 518.554 218.701C517.078 222.264 518.77 226.349 522.334 227.825C525.897 229.301 529.982 227.609 531.458 224.046Z" fill="white"/>
<path d="M308.143 84.7466C308.143 88.5538 311.231 91.6416 315.038 91.6416C318.845 91.6416 321.933 88.5538 321.933 84.7466C321.933 80.9394 318.845 77.8516 315.038 77.8516C311.231 77.8516 308.143 80.9394 308.143 84.7466Z" fill="white"/>
<path d="M190.139 89.4646C192.746 86.8584 192.746 82.6328 190.139 80.0266C187.533 77.4204 183.308 77.4204 180.701 80.0266C178.095 82.6328 178.095 86.8584 180.701 89.4646C183.308 92.0709 187.533 92.0709 190.139 89.4646Z" fill="white"/>
<path d="M255.793 181.025C255.793 185.518 259.437 189.162 263.931 189.162C268.424 189.162 272.068 185.518 272.068 181.025C272.068 176.532 268.424 172.888 263.931 172.888C259.437 172.888 255.793 176.532 255.793 181.025Z" fill="white"/>
<path d="M315.038 251.73C315.038 256.223 318.682 259.867 323.175 259.867C327.668 259.867 331.312 256.223 331.312 251.73C331.312 247.236 327.668 243.592 323.175 243.592C318.682 243.592 315.038 247.236 315.038 251.73Z" fill="white"/>
<path d="M351.588 172.888C351.588 175.804 353.951 178.17 356.87 178.17C359.789 178.17 362.152 175.804 362.152 172.888C362.152 169.972 359.786 167.606 356.87 167.606C353.954 167.606 351.588 169.969 351.588 172.888Z" fill="white"/>
<path d="M201.375 225.799C201.375 228.812 203.819 231.255 206.832 231.255C209.845 231.255 212.288 228.812 212.288 225.799C212.288 222.785 209.845 220.342 206.832 220.342C203.819 220.342 201.375 222.785 201.375 225.799Z" fill="white"/>
<path d="M103.737 231.923C108.22 231.604 111.595 227.712 111.276 223.229C110.957 218.746 107.064 215.371 102.582 215.69C98.0989 216.009 94.7234 219.901 95.0424 224.384C95.3614 228.867 99.254 232.242 103.737 231.923Z" fill="white"/>
<path d="M132.283 137.245C132.283 141.738 135.927 145.382 140.421 145.382C144.914 145.382 148.558 141.738 148.558 137.245C148.558 132.751 144.914 129.107 140.421 129.107C135.927 129.107 132.283 132.751 132.283 137.245Z" fill="white"/>
<path d="M606.726 209.161C606.726 213.655 610.37 217.299 614.863 217.299C619.356 217.299 623 213.655 623 209.161C623 204.668 619.356 201.024 614.863 201.024C610.37 201.024 606.726 204.668 606.726 209.161Z" fill="white"/>
<mask id="mask1_34_2" style="mask-type:luminance" maskUnits="userSpaceOnUse" x="287" y="117" width="51" height="51">
<path d="M337.013 146.683C339.215 133.122 330.005 120.343 316.444 118.142C302.882 115.941 290.104 125.15 287.902 138.712C285.701 152.273 294.91 165.052 308.472 167.253C322.034 169.454 334.812 160.245 337.013 146.683Z" fill="white"/>
</mask>
<g mask="url(#mask1_34_2)">
<path d="M303.831 127.312C310.645 123.693 318.586 126.936 319.181 136.443C319.776 145.95 313.066 149.301 306.625 148.673C300.184 148.045 293.848 131.302 303.831 127.312Z" fill="#13375B"/>
<path d="M307.942 152.574C307.942 156.317 310.977 159.353 314.721 159.353C318.464 159.353 321.5 156.317 321.5 152.574C321.5 148.83 318.464 145.795 314.721 145.795C310.977 145.795 307.942 148.83 307.942 152.574Z" fill="#13375B"/>
<path d="M300.173 156.464L277.025 155.667C277.025 155.667 258.985 150.028 258.426 149.873C257.867 149.718 255.103 142.494 254.373 143.114C253.64 143.731 255.972 146.73 255.031 147.27C254.091 147.809 245.284 144.923 245.3 145.637C245.328 146.974 250.624 147.618 250.521 148.246C250.422 148.874 245.06 147.046 244.531 148.033C244 149.021 249.766 149.273 249.924 149.774C250.081 150.275 244.465 150.286 244.88 151.343C245.107 151.918 249.874 151.21 249.744 151.924C249.614 152.64 246.045 153.764 246.366 154.4C246.687 155.036 249.238 153.044 251.172 153.31C253.106 153.578 254.644 152.74 257.591 154.093C260.537 155.446 270.371 161.475 276.992 162.161C283.61 162.847 298.23 164.399 298.23 164.399L300.176 156.461L300.173 156.464Z" fill="#F29383"/>
<path d="M304.581 155.407C317.256 155.999 306.111 166.613 306.111 166.613L287.382 163.954C286.818 160.219 287.781 155.761 287.828 154.768C291.715 154.527 301.46 155.26 304.581 155.407Z" fill="#C24C32"/>
<path d="M314.378 153.379C314.378 153.379 319.826 153.282 322.72 156.444C325.617 159.607 318.168 184.263 317.643 188.288C317.117 192.314 320.327 203.019 320.327 203.019C320.327 203.019 303.131 206.486 298.217 203.227C298.217 203.227 297.691 174.274 298.217 171.399C298.742 168.522 303.131 156.826 304.185 155.678C305.239 154.527 314.378 153.379 314.378 153.379Z" fill="#F47458"/>
<path d="M311.942 143.576C311.942 143.576 311.98 143.792 312.047 144.16C312.373 145.925 313.63 151.774 314.479 153.384C315.505 155.327 310.965 161.527 306.599 160.772C305.299 160.548 307.697 155.075 307.581 154.497C307.36 153.387 307.061 151.874 306.754 150.321C306.582 149.447 306.405 148.559 306.242 147.723C305.774 145.352 305.393 143.413 305.393 143.413L311.939 143.576H311.942Z" fill="#F7A491"/>
<path d="M312.048 144.16C311.979 143.792 311.943 143.576 311.943 143.576L305.397 143.413C305.397 143.413 305.779 145.352 306.246 147.723C306.41 148.553 306.584 149.436 306.755 150.305C307.765 150.155 308.822 149.663 309.879 148.733C311.033 147.721 311.791 146.503 312.248 145.203C312.167 144.788 312.101 144.431 312.048 144.157V144.16Z" fill="#F47458"/>
<path d="M307.535 128.663C307.535 128.663 310.62 128.306 312.554 130.812C314.488 133.319 316.572 141.072 311.768 145.289C306.965 149.503 302.217 144.733 301.514 139.675C300.812 134.617 300.538 128.483 307.535 128.665V128.663Z" fill="#F7A491"/>
<path d="M300.091 139.597C300.664 140.715 301.627 141.332 302.241 140.978C302.855 140.624 302.889 139.431 302.316 138.313C301.743 137.195 300.78 136.576 300.166 136.93C299.552 137.284 299.519 138.476 300.094 139.594L300.091 139.597Z" fill="#F7A491"/>
<path d="M307.192 127.833C307.192 127.833 311.315 135.206 314.264 135.547C317.213 135.887 317.601 139.805 317.601 139.805C317.601 139.805 316.547 130.776 313.628 129.036C310.709 127.296 307.195 127.833 307.195 127.833H307.192Z" fill="#13375B"/>
<path d="M313.489 137.4C313.248 138.709 313.732 139.91 314.565 140.081C315.4 140.253 316.272 139.332 316.51 138.023C316.751 136.714 316.266 135.513 315.434 135.342C314.598 135.17 313.727 136.092 313.489 137.4Z" fill="#F7A491"/>
<path d="M307.071 178.37C307.071 178.37 320.379 171.552 323.312 167.916C326.245 164.283 325.603 157.322 321.821 155.651C318.041 153.98 302.663 169.38 302.663 169.38L307.071 178.37Z" fill="#C24C32"/>
</g>
<mask id="mask2_34_2" style="mask-type:luminance" maskUnits="userSpaceOnUse" x="348" y="77" width="28" height="28">
<path d="M348.728 91.0715C348.728 98.484 354.737 104.494 362.15 104.494C369.562 104.494 375.572 98.484 375.572 91.0715C375.572 83.6591 369.562 77.6494 362.15 77.6494C354.737 77.6494 348.728 83.6591 348.728 91.0715Z" fill="white"/>
</mask>
<g mask="url(#mask2_34_2)">
<path d="M366.8 82.7737C363.123 80.8203 358.84 82.5689 358.519 87.6987C358.198 92.8285 361.817 94.6352 365.295 94.2977C368.77 93.9574 372.187 84.9263 366.803 82.7737H366.8Z" fill="#13375B"/>
<path d="M360.732 91.1657C360.732 92.1313 359.949 92.9143 358.984 92.9143C358.018 92.9143 357.235 92.1313 357.235 91.1657C357.235 90.2 358.018 89.417 358.984 89.417C359.949 89.417 360.732 90.2 360.732 91.1657Z" fill="#13375B"/>
<path d="M362.478 92.8175C362.478 93.7831 361.695 94.5662 360.733 94.5662C359.77 94.5662 358.984 93.7831 358.984 92.8175C358.984 91.8519 359.767 91.0688 360.733 91.0688C361.698 91.0688 362.478 91.8519 362.478 92.8175Z" fill="#13375B"/>
<path d="M364.771 94.0734C364.771 95.039 363.988 95.822 363.023 95.822C362.057 95.822 361.274 95.039 361.274 94.0734C361.274 93.1077 362.057 92.3247 363.023 92.3247C363.988 92.3247 364.771 93.1077 364.771 94.0734Z" fill="#13375B"/>
<path d="M359.966 88.2853C359.966 89.2509 359.183 90.0339 358.217 90.0339C357.251 90.0339 356.468 89.2509 356.468 88.2853C356.468 87.3196 357.251 86.5366 358.217 86.5366C359.183 86.5366 359.966 87.3196 359.966 88.2853Z" fill="#13375B"/>
<path d="M360.566 85.2833C360.566 86.249 359.783 87.0292 358.817 87.0292C357.851 87.0292 357.068 86.2462 357.068 85.2833C357.068 84.3205 357.851 83.5347 358.817 83.5347C359.783 83.5347 360.566 84.3177 360.566 85.2833Z" fill="#13375B"/>
<path d="M362.586 83.3742C362.586 84.3398 361.803 85.1228 360.838 85.1228C359.872 85.1228 359.089 84.3398 359.089 83.3742C359.089 82.4085 359.872 81.6255 360.838 81.6255C361.803 81.6255 362.586 82.4085 362.586 83.3742Z" fill="#13375B"/>
<path d="M365.262 82.5799C365.262 83.5455 364.479 84.3285 363.513 84.3285C362.548 84.3285 361.765 83.5455 361.765 82.5799C361.765 81.6142 362.548 80.834 363.513 80.834C364.479 80.834 365.262 81.617 365.262 82.5799Z" fill="#13375B"/>
<path d="M368.045 82.7986C368.045 83.7643 367.262 84.5473 366.297 84.5473C365.331 84.5473 364.548 83.7643 364.548 82.7986C364.548 81.833 365.331 81.0527 366.297 81.0527C367.262 81.0527 368.045 81.8358 368.045 82.7986Z" fill="#13375B"/>
<path d="M370.117 84.9816C370.117 85.9472 369.334 86.7302 368.369 86.7302C367.403 86.7302 366.62 85.9472 366.62 84.9816C366.62 84.0159 367.403 83.2329 368.369 83.2329C369.334 83.2329 370.117 84.0159 370.117 84.9816Z" fill="#13375B"/>
<path d="M370.063 90.5485C370.063 91.5141 369.28 92.2971 368.314 92.2971C367.348 92.2971 366.565 91.5141 366.565 90.5485C366.565 89.5828 367.348 88.7998 368.314 88.7998C369.28 88.7998 370.063 89.5828 370.063 90.5485Z" fill="#13375B"/>
<path d="M368.316 93.1658C368.316 94.1315 367.533 94.9145 366.567 94.9145C365.602 94.9145 364.819 94.1315 364.819 93.1658C364.819 92.2002 365.602 91.4199 366.567 91.4199C367.533 91.4199 368.316 92.2029 368.316 93.1658Z" fill="#13375B"/>
<path d="M370.773 87.5988C370.773 88.5644 369.99 89.3474 369.024 89.3474C368.058 89.3474 367.275 88.5644 367.275 87.5988C367.275 86.6331 368.058 85.8501 369.024 85.8501C369.99 85.8501 370.773 86.6331 370.773 87.5988Z" fill="#13375B"/>
<path d="M365.916 93.8219C365.916 94.7875 365.133 95.5706 364.167 95.5706C363.201 95.5706 362.418 94.7875 362.418 93.8219C362.418 92.8563 363.201 92.0732 364.167 92.0732C365.133 92.0732 365.916 92.8563 365.916 93.8219Z" fill="#13375B"/>
<path d="M368.772 98.5033L381.262 98.0744C381.262 98.0744 390.995 95.0337 391.297 94.9479C391.599 94.8649 393.09 90.9664 393.486 91.3011C393.881 91.6332 392.622 93.2518 393.131 93.5451C393.641 93.8356 398.391 92.2779 398.383 92.6652C398.366 93.3874 395.511 93.7332 395.566 94.0736C395.619 94.4111 398.513 93.4261 398.798 93.9573C399.083 94.4886 395.973 94.6269 395.89 94.8953C395.804 95.1665 398.837 95.172 398.613 95.742C398.491 96.0519 395.918 95.67 395.987 96.0546C396.056 96.442 397.985 97.0479 397.81 97.391C397.636 97.7341 396.261 96.6578 395.218 96.8045C394.175 96.9483 393.344 96.4973 391.754 97.2278C390.163 97.9582 384.859 101.212 381.286 101.58C377.714 101.951 369.826 102.789 369.826 102.789L368.778 98.5061L368.772 98.5033Z" fill="#F29383"/>
<path d="M366.395 97.9334C359.556 98.2516 365.568 103.979 365.568 103.979L375.673 102.546C375.977 100.531 375.457 98.1243 375.432 97.5875C373.335 97.4575 368.077 97.8532 366.392 97.9334H366.395Z" fill="#C24C32"/>
<path d="M361.109 96.8376C361.109 96.8376 358.171 96.785 356.607 98.4922C355.044 100.199 359.064 113.502 359.347 115.674C359.629 117.846 357.899 123.624 357.899 123.624C357.899 123.624 367.177 125.494 369.827 123.737C369.827 123.737 370.112 108.115 369.827 106.563C369.542 105.011 367.177 98.6997 366.607 98.0799C366.04 97.4601 361.106 96.8376 361.106 96.8376H361.109Z" fill="#F47458"/>
<path d="M362.423 91.5472C362.423 91.5472 362.403 91.6634 362.365 91.8626C362.188 92.8144 361.51 95.9714 361.053 96.8402C360.5 97.8889 362.949 101.234 365.306 100.825C366.009 100.703 364.714 97.7505 364.775 97.4379C364.894 96.8402 365.054 96.024 365.22 95.1856C365.314 94.7125 365.408 94.2338 365.497 93.7856C365.749 92.5073 365.953 91.4614 365.953 91.4614L362.423 91.55V91.5472Z" fill="#BF7154"/>
<path d="M362.365 91.8629C362.401 91.6637 362.423 91.5475 362.423 91.5475L365.954 91.459C365.954 91.459 365.749 92.5049 365.497 93.7832C365.408 94.2314 365.314 94.7073 365.223 95.1777C364.678 95.0974 364.108 94.8318 363.538 94.331C362.916 93.7859 362.506 93.1274 362.26 92.4274C362.304 92.2033 362.34 92.0096 362.368 91.8629H362.365Z" fill="#A85D42"/>
<path d="M364.8 83.5013C364.8 83.5013 363.134 83.3076 362.091 84.6606C361.048 86.0136 359.922 90.1971 362.514 92.4715C365.107 94.7459 367.669 92.1727 368.048 89.4418C368.427 86.7136 368.576 83.4045 364.8 83.5013Z" fill="#BF7154"/>
<path d="M368.818 89.4031C368.508 90.0063 367.988 90.341 367.658 90.1474C367.326 89.9564 367.31 89.3118 367.62 88.7114C367.93 88.1082 368.45 87.7734 368.779 87.9671C369.111 88.158 369.128 88.8027 368.818 89.4058V89.4031Z" fill="#BF7154"/>
<path d="M364.986 83.0556C364.986 83.0556 362.761 87.0344 361.17 87.217C359.579 87.3996 359.372 89.5135 359.372 89.5135C359.372 89.5135 359.942 84.6438 361.516 83.7031C363.09 82.7651 364.986 83.0528 364.986 83.0528V83.0556Z" fill="#13375B"/>
<path d="M361.587 88.2159C361.717 88.9215 361.457 89.5717 361.006 89.663C360.555 89.7543 360.085 89.259 359.957 88.5507C359.827 87.8451 360.087 87.1977 360.538 87.1036C360.989 87.0123 361.46 87.5076 361.587 88.2159Z" fill="#BF7154"/>
<path d="M365.051 110.32C365.051 110.32 357.871 106.64 356.289 104.681C354.706 102.72 355.052 98.9651 357.094 98.0631C359.133 97.1611 367.431 105.47 367.431 105.47L365.054 110.32H365.051Z" fill="#C24C32"/>
</g>
<mask id="mask3_34_2" style="mask-type:luminance" maskUnits="userSpaceOnUse" x="477" y="124" width="55" height="55">
<path d="M513.323 176.633C527.315 171.725 534.678 156.404 529.77 142.412C524.862 128.421 509.542 121.058 495.55 125.965C481.559 130.873 474.195 146.194 479.103 160.186C484.011 174.177 499.332 181.54 513.323 176.633Z" fill="white"/>
</mask>
<g mask="url(#mask3_34_2)">
<path d="M513.73 134.702C508 131.673 499.398 133.255 497.165 144.555C495.834 151.287 492.522 158.359 492.522 158.359C501.199 162.233 510.531 162.396 518.016 161.09C518.016 161.09 524.504 139.008 513.73 134.7V134.702Z" fill="#F47458"/>
<path d="M517.678 166.162L542.66 165.301C542.66 165.301 562.13 159.217 562.731 159.048C563.334 158.879 566.316 151.085 567.108 151.752C567.899 152.419 565.381 155.653 566.399 156.237C567.415 156.821 576.916 153.705 576.902 154.474C576.872 155.919 571.158 156.613 571.266 157.291C571.374 157.969 577.16 155.996 577.732 157.062C578.305 158.127 572.083 158.401 571.914 158.94C571.745 159.48 577.804 159.491 577.356 160.634C577.113 161.253 571.966 160.49 572.107 161.262C572.249 162.034 576.1 163.248 575.754 163.934C575.408 164.621 572.653 162.471 570.566 162.759C568.48 163.046 566.82 162.144 563.638 163.605C560.456 165.066 549.845 171.571 542.701 172.31C535.557 173.048 519.781 174.728 519.781 174.728L517.683 166.162H517.678Z" fill="#F29383"/>
<path d="M512.922 165.022C499.243 165.658 511.27 177.116 511.27 177.116L531.485 174.246C532.094 170.215 531.056 165.406 531.003 164.333C526.809 164.073 516.292 164.867 512.922 165.022Z" fill="#C5DBFC"/>
<path d="M502.347 162.83C502.347 162.83 496.467 162.725 493.343 166.14C490.22 169.554 498.254 196.16 498.824 200.507C499.392 204.851 495.928 216.405 495.928 216.405C495.928 216.405 514.485 220.149 519.789 216.629C519.789 216.629 520.356 185.383 519.789 182.282C519.222 179.177 514.485 166.555 513.348 165.315C512.211 164.073 502.349 162.833 502.349 162.833L502.347 162.83Z" fill="#2FB4F7"/>
<path d="M504.978 152.252C504.978 152.252 504.937 152.485 504.865 152.883C504.514 154.787 503.158 161.101 502.239 162.838C501.133 164.936 506.03 171.626 510.745 170.81C512.147 170.566 509.558 164.662 509.682 164.037C509.92 162.838 510.244 161.206 510.573 159.532C510.758 158.589 510.949 157.628 511.126 156.729C511.63 154.17 512.042 152.078 512.042 152.078L504.978 152.255V152.252Z" fill="#F7A491"/>
<path d="M504.862 152.881C504.937 152.485 504.976 152.25 504.976 152.25L512.04 152.073C512.04 152.073 511.627 154.165 511.124 156.724C510.947 157.62 510.758 158.572 510.573 159.51C509.483 159.35 508.343 158.818 507.2 157.814C505.955 156.721 505.139 155.407 504.646 154.004C504.732 153.556 504.807 153.171 504.86 152.875L504.862 152.881Z" fill="#F5866E"/>
<path d="M509.732 136.158C509.732 136.158 506.404 135.773 504.315 138.476C502.229 141.182 499.979 149.549 505.161 154.098C510.347 158.647 515.468 153.498 516.229 148.038C516.987 142.579 517.283 135.958 509.73 136.158H509.732Z" fill="#F7A491"/>
<path d="M517.764 147.958C517.144 149.165 516.107 149.832 515.443 149.45C514.782 149.068 514.746 147.781 515.363 146.575C515.982 145.369 517.02 144.702 517.684 145.084C518.345 145.465 518.381 146.752 517.764 147.958Z" fill="#F7A491"/>
<path d="M510.105 135.264C510.105 135.264 505.656 143.222 502.474 143.587C499.292 143.955 498.875 148.183 498.875 148.183C498.875 148.183 500.012 138.44 503.163 136.562C506.315 134.683 510.105 135.264 510.105 135.264Z" fill="#F47458"/>
<path d="M503.308 145.587C503.568 147.001 503.045 148.296 502.146 148.481C501.244 148.667 500.306 147.671 500.046 146.26C499.786 144.846 500.309 143.551 501.208 143.365C502.11 143.18 503.048 144.176 503.308 145.587Z" fill="#F7A491"/>
<path d="M510.236 189.802C510.236 189.802 495.873 182.442 492.708 178.521C489.542 174.6 490.237 167.088 494.315 165.284C498.396 163.48 514.992 180.101 514.992 180.101L510.236 189.802Z" fill="#C5DBFC"/>
</g>
<mask id="mask4_34_2" style="mask-type:luminance" maskUnits="userSpaceOnUse" x="559" y="210" width="39" height="38">
<path d="M578.544 247.812C588.825 247.812 597.16 239.478 597.16 229.197C597.16 218.916 588.825 210.581 578.544 210.581C568.263 210.581 559.929 218.916 559.929 229.197C559.929 239.478 568.263 247.812 578.544 247.812Z" fill="white"/>
</mask>
<g mask="url(#mask4_34_2)">
<path d="M572.098 217.689C577.197 214.981 583.141 217.407 583.583 224.521C584.029 231.634 579.007 234.141 574.187 233.671C569.367 233.2 564.628 220.675 572.095 217.689H572.098Z" fill="#F7CC7F"/>
<path d="M575.173 236.593C575.173 239.393 577.445 241.664 580.245 241.664C583.045 241.664 585.317 239.393 585.317 236.593C585.317 233.793 583.045 231.521 580.245 231.521C577.445 231.521 575.173 233.793 575.173 236.593Z" fill="#F7CC7F"/>
<path d="M569.359 239.503L552.038 238.908C552.038 238.908 538.539 234.689 538.121 234.573C537.703 234.456 535.634 229.053 535.086 229.515C534.538 229.977 536.281 232.221 535.578 232.625C534.876 233.029 528.285 230.868 528.296 231.405C528.318 232.406 532.278 232.888 532.203 233.358C532.128 233.828 528.116 232.459 527.72 233.198C527.325 233.936 531.638 234.124 531.755 234.501C531.871 234.874 527.671 234.883 527.981 235.674C528.149 236.103 531.719 235.574 531.622 236.108C531.525 236.642 528.852 237.486 529.093 237.962C529.334 238.438 531.243 236.947 532.69 237.146C534.137 237.345 535.288 236.72 537.493 237.732C539.698 238.745 547.058 243.255 552.011 243.77C556.963 244.282 567.904 245.446 567.904 245.446L569.359 239.509V239.503Z" fill="#F29383"/>
<path d="M572.657 238.712C582.142 239.155 573.803 247.098 573.803 247.098L559.789 245.109C559.368 242.314 560.088 238.978 560.121 238.236C563.029 238.056 570.322 238.607 572.657 238.715V238.712Z" fill="#96D9C9"/>
<path d="M579.989 237.193C579.989 237.193 584.065 237.121 586.231 239.487C588.398 241.855 582.825 260.302 582.433 263.315C582.04 266.328 584.441 274.338 584.441 274.338C584.441 274.338 571.575 276.934 567.898 274.493C567.898 274.493 567.505 252.829 567.898 250.676C568.291 248.524 571.575 239.772 572.364 238.911C573.153 238.051 579.989 237.19 579.989 237.19V237.193Z" fill="#50BFA5"/>
<path d="M578.167 229.858C578.167 229.858 578.194 230.021 578.247 230.295C578.49 231.615 579.431 235.992 580.067 237.196C580.837 238.651 577.439 243.289 574.171 242.724C573.197 242.555 574.993 238.46 574.907 238.029C574.741 237.199 574.517 236.067 574.29 234.905C574.16 234.249 574.03 233.585 573.906 232.963C573.557 231.189 573.272 229.739 573.272 229.739L578.169 229.861L578.167 229.858Z" fill="#F7A491"/>
<path d="M578.246 230.295C578.196 230.021 578.166 229.858 578.166 229.858L573.269 229.736C573.269 229.736 573.554 231.186 573.902 232.96C574.024 233.58 574.154 234.241 574.284 234.891C575.039 234.78 575.831 234.412 576.622 233.715C577.485 232.957 578.052 232.047 578.393 231.075C578.332 230.766 578.282 230.497 578.243 230.292L578.246 230.295Z" fill="#F47458"/>
<path d="M574.87 218.699C574.87 218.699 577.177 218.431 578.624 220.307C580.072 222.183 581.632 227.985 578.038 231.139C574.444 234.293 570.891 230.724 570.365 226.936C569.84 223.151 569.635 218.561 574.873 218.697L574.87 218.699Z" fill="#F7A491"/>
<path d="M569.301 226.881C569.73 227.716 570.449 228.179 570.909 227.916C571.368 227.65 571.393 226.759 570.964 225.924C570.535 225.088 569.813 224.623 569.354 224.889C568.894 225.154 568.869 226.045 569.298 226.884L569.301 226.881Z" fill="#F7A491"/>
<path d="M574.612 218.08C574.612 218.08 577.697 223.597 579.902 223.851C582.108 224.106 582.398 227.039 582.398 227.039C582.398 227.039 581.61 220.285 579.424 218.982C577.241 217.679 574.609 218.08 574.609 218.08H574.612Z" fill="#F7CC7F"/>
<path d="M579.323 225.237C579.143 226.217 579.506 227.116 580.128 227.243C580.751 227.371 581.404 226.682 581.584 225.702C581.763 224.723 581.401 223.824 580.778 223.696C580.153 223.569 579.503 224.258 579.323 225.237Z" fill="#F7A491"/>
<path d="M574.519 255.891C574.519 255.891 584.477 250.789 586.671 248.069C588.865 245.35 588.384 240.142 585.556 238.892C582.729 237.641 571.221 249.165 571.221 249.165L574.519 255.891Z" fill="#96D9C9"/>
</g>
<mask id="mask5_34_2" style="mask-type:luminance" maskUnits="userSpaceOnUse" x="383" y="137" width="32" height="32">
<path d="M414.6 155.463C416.066 146.999 410.394 138.95 401.931 137.483C393.467 136.017 385.418 141.689 383.951 150.152C382.485 158.616 388.157 166.665 396.62 168.132C405.083 169.598 413.133 163.926 414.6 155.463Z" fill="white"/>
</mask>
<g mask="url(#mask5_34_2)">
<path d="M371.965 162.9C371.965 162.9 377.454 161.433 377.521 161.876C378.937 171.565 379.549 175.065 379.748 175.162C380.426 175.489 389.089 167.141 390.658 166.549C391.408 166.267 392.232 166.289 393.023 166.292C394.908 166.297 395.278 166.294 395.278 166.294C395.331 166.294 395.348 166.297 395.348 166.297L395.384 168.068C393.314 170.033 391.278 207.958 390.868 207.95C390.412 207.941 381.804 207.894 382.213 207.175C382.213 207.175 384.294 195.496 385.932 187.796C386.483 185.212 388.015 179.808 388.015 179.808C385.913 180.934 377.689 185.25 376.356 184.744C372.206 183.167 371.965 162.902 371.965 162.902V162.9Z" fill="#F47458"/>
<path d="M388.227 185.961C389.17 181.316 391.586 173.693 392.294 171.964C393.918 167.993 395.285 166.311 395.285 166.311L401.712 166.502C401.712 166.502 401.862 166.543 401.906 166.549C402.432 166.632 402.448 185.353 402.163 192.35C401.881 199.35 400.326 208.459 400.326 208.459L398.492 208.284C398.461 209.228 398.439 209.851 398.439 209.851C389.14 211.491 383.946 206.907 383.946 206.907C383.946 206.907 387.001 191.985 388.224 185.961H388.227Z" fill="#466EB6"/>
<path d="M401.713 166.502C401.713 166.502 408.068 166.04 409.692 165.251C410.677 164.775 418.682 157.972 418.682 157.972L418.128 140.33L423.87 139.741C423.87 139.741 427.364 159.164 426.387 161.325C425.378 163.558 413.646 172.946 411.355 176.947C410.035 179.252 411.289 210.545 410.86 210.833C407.805 212.526 394.964 214.026 395.163 213.041C400.681 185.853 401.718 166.496 401.718 166.496L401.713 166.502Z" fill="#F47458"/>
<path d="M401.382 160.838L401.714 166.502C401.714 166.502 397.746 173.771 395.588 172.83C393.776 172.039 395.223 166.552 395.223 166.552C395.223 166.552 395.5 165.296 395.893 163.849C396.166 162.839 396.388 161.746 396.349 160.949C396.252 159.012 401.385 160.838 401.385 160.838H401.382Z" fill="#F7A491"/>
<path d="M396.344 160.949C396.247 159.012 401.38 160.838 401.38 160.838L401.413 161.391C401.247 161.654 401.064 161.878 400.862 162.05C399.526 163.195 397.564 163.746 395.951 163.605C396.195 162.664 396.38 161.682 396.344 160.946V160.949Z" fill="#F47458"/>
<path d="M396.078 148.041C396.078 148.041 394.044 151.289 393.956 153.979C393.867 156.671 394.484 158.489 394.484 158.489L401.067 150.188L396.075 148.041H396.078Z" fill="#184655"/>
<path d="M393.24 153.448C393.168 154.391 393.555 155.188 394.103 155.229C394.651 155.271 395.154 154.541 395.223 153.597C395.295 152.654 394.908 151.857 394.36 151.815C393.812 151.774 393.309 152.504 393.24 153.448Z" fill="#F48C7F"/>
<path d="M403.301 151.43C403.456 151.394 403.646 159.214 401.427 161.114C399.208 163.015 395.268 163.278 394.068 161.455C392.739 159.438 393.736 151.165 397.061 149.328C400.387 147.49 403.301 151.43 403.301 151.43Z" fill="#F7A491"/>
<path d="M403.748 146.566C405.519 148.038 406.385 149.126 407.627 151.79C409.154 155.069 406.388 158.58 404.027 160.008C401.667 161.436 401.512 163.093 401.512 163.093L401.388 162.077C401.33 161.707 401.335 161.405 401.393 161.139C401.46 160.83 401.595 160.572 401.712 160.304C401.905 159.864 402.519 158.353 402.766 157.952C403.413 156.895 403.54 156.665 403.181 155.689C402.904 154.936 403.159 153.251 402.727 152.009L399.484 151.397C399.484 151.397 397.453 150.966 396.405 149.817C393.392 146.519 399.075 142.604 403.745 146.566H403.748Z" fill="#184655"/>
<path d="M402.437 156.566C402.064 157.435 402.169 158.315 402.673 158.533C403.176 158.752 403.89 158.223 404.264 157.354C404.637 156.486 404.532 155.606 404.028 155.387C403.525 155.169 402.811 155.697 402.437 156.566Z" fill="#F7A491"/>
</g>
<mask id="mask6_34_2" style="mask-type:luminance" maskUnits="userSpaceOnUse" x="79" y="148" width="48" height="48">
<path d="M108.683 194.786C121.199 191.462 128.651 178.623 125.328 166.107C122.005 153.592 109.165 146.14 96.6495 149.463C84.134 152.786 76.6822 165.626 80.0053 178.141C83.3283 190.657 96.168 198.109 108.683 194.786Z" fill="white"/>
</mask>
<g mask="url(#mask6_34_2)">
<path d="M61.5239 187.345C61.5239 187.345 69.7996 185.131 69.8992 185.801C72.0325 200.407 72.9594 205.686 73.2582 205.83C74.2819 206.323 87.3415 193.736 89.7072 192.845C90.8388 192.419 92.0812 192.453 93.2737 192.455C96.1152 192.464 96.6742 192.461 96.6742 192.461C96.7544 192.464 96.7793 192.466 96.7793 192.466L96.8346 195.136C93.7136 198.097 90.6452 255.277 90.0281 255.263C89.3392 255.249 76.3626 255.18 76.9796 254.098C76.9796 254.098 80.1172 236.49 82.5853 224.88C83.4126 220.985 85.7284 212.836 85.7284 212.836C82.5548 214.532 70.1621 221.04 68.1506 220.276C61.8947 217.899 61.5295 187.345 61.5295 187.345H61.5239Z" fill="#F7CC7F"/>
<path d="M86.0412 222.116C87.4634 215.11 91.1073 203.617 92.1726 201.013C94.6212 195.028 96.6825 192.491 96.6825 192.491L106.375 192.779C106.375 192.779 106.599 192.84 106.668 192.851C107.459 192.975 107.484 221.2 107.058 231.75C106.632 242.303 104.289 256.035 104.289 256.035L101.525 255.772C101.48 257.195 101.447 258.132 101.447 258.132C87.4246 260.606 79.5972 253.692 79.5972 253.692C79.5972 253.692 84.2012 231.197 86.0467 222.116H86.0412Z" fill="#F7CC7F"/>
<path d="M106.372 192.779C106.372 192.779 115.957 192.079 118.403 190.895C119.886 190.175 131.955 179.918 131.955 179.918L131.119 153.323L139.774 152.435C139.774 152.435 145.042 181.717 143.567 184.976C142.045 188.341 124.36 202.496 120.904 208.528C118.914 212.003 120.801 259.178 120.157 259.615C115.55 262.169 96.1902 264.427 96.4918 262.944C104.809 221.958 106.372 192.773 106.372 192.773V192.779Z" fill="#F7CC7F"/>
<path d="M105.873 184.24L106.371 192.779C106.371 192.779 100.389 203.738 97.1328 202.319C94.4019 201.126 96.5822 192.854 96.5822 192.854C96.5822 192.854 97 190.958 97.5921 188.778C98.0044 187.253 98.3392 185.607 98.2783 184.406C98.1344 181.487 105.871 184.24 105.871 184.24H105.873Z" fill="#BF7154"/>
<path d="M98.2816 184.406C98.1377 181.487 105.874 184.24 105.874 184.24L105.924 185.076C105.675 185.472 105.401 185.809 105.094 186.069C103.079 187.796 100.119 188.626 97.6895 188.413C98.0574 186.996 98.3341 185.51 98.2816 184.406Z" fill="#A3573C"/>
<path d="M97.8799 164.947C97.8799 164.947 94.8143 169.845 94.6814 173.901C94.5486 177.957 95.4783 180.699 95.4783 180.699L105.403 168.185L97.8799 164.95V164.947Z" fill="#184655"/>
<path d="M93.5993 173.098C93.4914 174.521 94.0752 175.724 94.9025 175.785C95.7298 175.846 96.4851 174.745 96.593 173.323C96.7009 171.9 96.1171 170.697 95.2898 170.636C94.4625 170.572 93.7072 171.676 93.5993 173.098Z" fill="#A3573C"/>
<path d="M108.77 170.058C109.002 170.002 109.29 181.792 105.945 184.656C102.6 187.519 96.6591 187.921 94.8496 185.17C92.8464 182.13 94.3488 169.659 99.3624 166.887C104.376 164.114 108.77 170.058 108.77 170.058Z" fill="#BF7154"/>
<path d="M109.444 162.725C112.114 164.944 113.42 166.582 115.291 170.603C117.593 175.544 113.423 180.84 109.865 182.993C106.31 185.145 106.074 187.644 106.074 187.644L105.886 186.114C105.8 185.555 105.809 185.098 105.895 184.7C105.997 184.232 106.199 183.845 106.376 183.441C106.667 182.777 107.593 180.5 107.964 179.894C108.938 178.3 109.129 177.957 108.589 176.479C108.174 175.342 108.554 172.805 107.909 170.932L103.02 170.01C103.02 170.01 99.9596 169.36 98.377 167.628C93.8338 162.656 102.403 156.754 109.444 162.725Z" fill="#184655"/>
<path d="M107.468 177.799C106.904 179.108 107.061 180.436 107.825 180.765C108.586 181.095 109.659 180.298 110.227 178.989C110.791 177.68 110.633 176.352 109.87 176.023C109.109 175.694 108.035 176.491 107.468 177.799Z" fill="#BF7154"/>
</g>
<mask id="mask7_34_2" style="mask-type:luminance" maskUnits="userSpaceOnUse" x="218" y="58" width="40" height="40">
<path d="M218.596 78.1555C218.596 88.844 227.262 97.5098 237.95 97.5098C248.638 97.5098 257.304 88.844 257.304 78.1555C257.304 67.4671 248.638 58.8013 237.95 58.8013C227.262 58.8013 218.596 67.4671 218.596 78.1555Z" fill="white"/>
</mask>
<g mask="url(#mask7_34_2)">
<path d="M271.916 90.7228C271.916 90.7228 265.084 88.8966 265.004 89.4472C263.242 101.505 262.478 105.86 262.232 105.979C261.388 106.386 250.605 95.9964 248.655 95.2604C247.722 94.909 246.696 94.9367 245.711 94.9395C243.367 94.9478 242.902 94.945 242.902 94.945C242.836 94.945 242.817 94.9478 242.817 94.9478L242.772 97.1502C245.348 99.5933 247.88 146.791 248.389 146.78C248.959 146.769 259.67 146.71 259.161 145.817C259.161 145.817 256.571 131.282 254.534 121.701C253.851 118.483 251.939 111.759 251.939 111.759C254.557 113.159 264.788 118.533 266.449 117.902C271.614 115.94 271.913 90.72 271.913 90.72L271.916 90.7228Z" fill="#13375B"/>
<path d="M251.68 119.426C250.504 113.644 247.499 104.159 246.62 102.006C244.6 97.0672 242.898 94.9727 242.898 94.9727L234.899 95.2078C234.899 95.2078 234.714 95.2604 234.658 95.2687C234.005 95.3711 233.986 118.668 234.337 127.378C234.689 136.088 236.623 147.424 236.623 147.424L238.906 147.208C238.944 148.384 238.969 149.156 238.969 149.156C250.543 151.198 257.004 145.49 257.004 145.49C257.004 145.49 253.205 126.922 251.68 119.426Z" fill="#466EB6"/>
<path d="M234.896 95.2078C234.896 95.2078 226.985 94.6323 224.965 93.6528C223.742 93.0607 213.779 84.5913 213.779 84.5913L214.468 62.639L207.324 61.9058C207.324 61.9058 202.977 86.0772 204.192 88.7666C205.448 91.5445 220.046 103.229 222.899 108.207C224.542 111.076 222.982 150.017 223.516 150.376C227.317 152.485 243.299 154.35 243.05 153.124C236.182 119.293 234.893 95.2051 234.893 95.2051L234.896 95.2078Z" fill="#13375B"/>
<path d="M235.308 88.1608L234.896 95.208C234.896 95.208 239.832 104.253 242.521 103.083C244.776 102.1 242.978 95.2689 242.978 95.2689C242.978 95.2689 242.632 93.7056 242.145 91.9044C241.804 90.6454 241.528 89.2869 241.577 88.2964C241.696 85.8864 235.311 88.1608 235.311 88.1608H235.308Z" fill="#F7A491"/>
<path d="M241.577 88.2964C241.696 85.8864 235.311 88.1608 235.311 88.1608L235.269 88.8497C235.474 89.1762 235.701 89.4557 235.955 89.6715C237.618 91.0964 240.061 91.7826 242.067 91.6056C241.763 90.4352 241.533 89.2094 241.58 88.2991L241.577 88.2964Z" fill="#F47458"/>
<path d="M241.91 72.2344C241.91 72.2344 244.441 76.2768 244.549 79.6247C244.657 82.9726 243.891 85.2359 243.891 85.2359L235.701 74.9072L241.91 72.2371V72.2344Z" fill="#F47458"/>
<path d="M245.443 78.9632C245.531 80.1364 245.05 81.1297 244.366 81.1823C243.683 81.2348 243.06 80.3245 242.972 79.1514C242.883 77.9782 243.365 76.9849 244.048 76.9323C244.732 76.8798 245.354 77.7901 245.443 78.9632Z" fill="#F48C7F"/>
<path d="M232.919 76.4538C232.725 76.4068 232.49 86.1379 235.252 88.5036C238.013 90.8665 242.916 91.1985 244.41 88.9297C246.062 86.4201 244.822 76.1273 240.686 73.8391C236.547 71.5509 232.922 76.4566 232.922 76.4566L232.919 76.4538Z" fill="#F7A491"/>
<path d="M232.364 70.3999C230.161 72.2315 229.082 73.5818 227.538 76.902C225.638 80.9832 229.079 85.352 232.015 87.1284C234.951 88.9047 235.144 90.966 235.144 90.966L235.299 89.7016C235.371 89.2395 235.363 88.8632 235.291 88.5367C235.208 88.1521 235.039 87.8312 234.895 87.4964C234.655 86.9485 233.891 85.0671 233.584 84.569C232.779 83.2548 232.621 82.9698 233.067 81.7523C233.41 80.8144 233.097 78.7199 233.628 77.1732L237.662 76.4123C237.662 76.4123 240.188 75.8755 241.494 74.445C245.243 70.3418 238.171 65.4693 232.358 70.3999H232.364Z" fill="#F47458"/>
<path d="M233.995 82.8455C234.46 83.9273 234.33 85.023 233.702 85.2942C233.074 85.5653 232.186 84.9096 231.721 83.8277C231.256 82.7459 231.386 81.6502 232.014 81.379C232.642 81.1079 233.53 81.7636 233.995 82.8455Z" fill="#F7A491"/>
</g>
<mask id="mask8_34_2" style="mask-type:luminance" maskUnits="userSpaceOnUse" x="319" y="197" width="24" height="24">
<path d="M335.665 219.656C341.461 217.255 344.214 210.609 341.813 204.813C339.412 199.016 332.766 196.263 326.97 198.664C321.173 201.065 318.42 207.711 320.821 213.508C323.222 219.304 329.868 222.057 335.665 219.656Z" fill="white"/>
</mask>
<g mask="url(#mask8_34_2)">
<path d="M311.376 216.538C311.376 216.538 315.385 215.468 315.432 215.789C316.467 222.866 316.915 225.423 317.059 225.495C317.554 225.733 323.882 219.634 325.027 219.203C325.575 218.995 326.178 219.012 326.754 219.015C328.129 219.02 328.403 219.015 328.403 219.015C328.442 219.015 328.453 219.015 328.453 219.015L328.48 220.31C326.967 221.743 325.481 249.448 325.182 249.442C324.848 249.436 318.561 249.401 318.86 248.878C318.86 248.878 320.379 240.345 321.574 234.722C321.976 232.835 323.096 228.887 323.096 228.887C321.558 229.709 315.554 232.863 314.58 232.492C311.547 231.341 311.37 216.536 311.37 216.536L311.376 216.538Z" fill="#F7CC7F"/>
<path d="M323.253 233.386C323.942 229.991 325.707 224.424 326.225 223.159C327.412 220.26 328.411 219.031 328.411 219.031L333.106 219.17C333.106 219.17 333.214 219.2 333.247 219.206C333.632 219.266 333.643 232.94 333.435 238.053C333.228 243.167 332.093 249.821 332.093 249.821L330.754 249.694C330.732 250.383 330.715 250.836 330.715 250.836C323.923 252.034 320.129 248.687 320.129 248.687C320.129 248.687 322.359 237.788 323.253 233.389V233.386Z" fill="#466EB6"/>
<path d="M333.106 219.17C333.106 219.17 337.749 218.832 338.936 218.257C339.655 217.908 345.502 212.939 345.502 212.939L345.098 200.053L349.29 199.625C349.29 199.625 351.841 213.813 351.127 215.393C350.391 217.023 341.819 223.882 340.148 226.803C339.185 228.486 340.098 251.346 339.785 251.556C337.553 252.793 328.173 253.888 328.32 253.169C332.351 233.311 333.106 219.17 333.106 219.17Z" fill="#F7CC7F"/>
<path d="M332.864 215.034L333.105 219.17C333.105 219.17 330.208 224.48 328.628 223.793C327.305 223.215 328.36 219.206 328.36 219.206C328.36 219.206 328.562 218.287 328.849 217.23C329.048 216.492 329.212 215.695 329.181 215.114C329.112 213.7 332.861 215.034 332.861 215.034H332.864Z" fill="#F7A491"/>
<path d="M329.184 215.113C329.114 213.699 332.863 215.033 332.863 215.033L332.888 215.437C332.769 215.628 332.634 215.791 332.487 215.918C331.511 216.754 330.077 217.158 328.901 217.053C329.078 216.367 329.214 215.647 329.189 215.11L329.184 215.113Z" fill="#F47458"/>
<path d="M328.99 205.687C328.99 205.687 327.504 208.058 327.44 210.025C327.377 211.989 327.828 213.318 327.828 213.318L332.636 207.255L328.992 205.687H328.99Z" fill="#13375B"/>
<path d="M326.914 209.635C326.861 210.324 327.144 210.908 327.545 210.938C327.946 210.969 328.311 210.435 328.364 209.746C328.416 209.057 328.134 208.473 327.733 208.443C327.332 208.412 326.967 208.946 326.914 209.635Z" fill="#F48C7F"/>
<path d="M334.265 208.163C334.379 208.135 334.517 213.849 332.896 215.235C331.274 216.624 328.397 216.818 327.52 215.484C326.549 214.012 327.276 207.969 329.706 206.625C332.135 205.28 334.263 208.16 334.263 208.16L334.265 208.163Z" fill="#F7A491"/>
<path d="M334.594 204.61C335.886 205.687 336.519 206.478 337.427 208.426C338.542 210.822 336.522 213.387 334.798 214.43C333.075 215.473 332.961 216.682 332.961 216.682L332.87 215.941C332.828 215.669 332.831 215.448 332.875 215.257C332.925 215.03 333.022 214.842 333.108 214.649C333.249 214.325 333.697 213.224 333.877 212.93C334.35 212.158 334.441 211.992 334.181 211.276C333.979 210.725 334.165 209.494 333.852 208.586L331.484 208.141C331.484 208.141 330.001 207.825 329.234 206.987C327.032 204.577 331.185 201.719 334.596 204.613L334.594 204.61Z" fill="#13375B"/>
<path d="M333.635 211.915C333.361 212.549 333.439 213.193 333.807 213.351C334.175 213.511 334.695 213.124 334.969 212.49C335.243 211.857 335.165 211.212 334.797 211.054C334.429 210.897 333.909 211.281 333.635 211.915Z" fill="#F7A491"/>
</g>
<mask id="mask9_34_2" style="mask-type:luminance" maskUnits="userSpaceOnUse" x="460" y="214" width="28" height="29">
<path d="M460.542 228.674C460.542 236.244 466.679 242.378 474.247 242.378C481.814 242.378 487.951 236.241 487.951 228.674C487.951 221.106 481.814 214.969 474.247 214.969C466.679 214.969 460.542 221.106 460.542 228.674Z" fill="white"/>
</mask>
<g mask="url(#mask9_34_2)">
<path d="M498.304 237.575C498.304 237.575 493.465 236.282 493.409 236.673C492.162 245.211 491.622 248.296 491.445 248.382C490.847 248.67 483.214 241.313 481.83 240.792C481.169 240.543 480.441 240.563 479.747 240.565C478.087 240.571 477.76 240.568 477.76 240.568C477.713 240.568 477.699 240.568 477.699 240.568L477.666 242.129C479.492 243.861 481.285 277.282 481.645 277.276C482.049 277.268 489.633 277.227 489.273 276.596C489.273 276.596 487.439 266.303 485.997 259.516C485.513 257.239 484.16 252.477 484.16 252.477C486.014 253.467 493.26 257.272 494.433 256.826C498.091 255.437 498.304 237.577 498.304 237.577V237.575Z" fill="#F47458"/>
<path d="M483.97 257.9C483.138 253.805 481.01 247.087 480.387 245.562C478.957 242.065 477.75 240.582 477.75 240.582L472.087 240.751C472.087 240.751 471.957 240.787 471.915 240.792C471.453 240.864 471.439 257.363 471.688 263.53C471.937 269.698 473.307 277.725 473.307 277.725L474.923 277.572C474.95 278.405 474.967 278.953 474.967 278.953C483.162 280.397 487.739 276.358 487.739 276.358C487.739 276.358 485.047 263.21 483.97 257.9Z" fill="#466EB6"/>
<path d="M472.085 240.751C472.085 240.751 466.482 240.341 465.054 239.65C464.188 239.229 457.133 233.233 457.133 233.233L457.622 217.686L452.565 217.169C452.565 217.169 449.485 234.285 450.346 236.191C451.234 238.158 461.574 246.434 463.593 249.959C464.755 251.99 463.654 279.567 464.031 279.822C466.723 281.313 478.039 282.636 477.865 281.767C473.003 257.809 472.088 240.751 472.088 240.751H472.085Z" fill="#F47458"/>
<path d="M472.378 235.76L472.087 240.751C472.087 240.751 475.585 247.156 477.488 246.326C479.085 245.629 477.812 240.793 477.812 240.793C477.812 240.793 477.569 239.686 477.223 238.41C476.982 237.519 476.786 236.556 476.822 235.856C476.905 234.149 472.383 235.76 472.383 235.76H472.378Z" fill="#F7A491"/>
<path d="M476.815 235.856C476.898 234.149 472.377 235.76 472.377 235.76L472.35 236.247C472.493 236.479 472.657 236.675 472.834 236.828C474.012 237.838 475.742 238.322 477.161 238.197C476.945 237.37 476.785 236.501 476.815 235.856Z" fill="#F47458"/>
<path d="M477.051 224.482C477.051 224.482 478.844 227.343 478.922 229.714C478.999 232.085 478.454 233.687 478.454 233.687L472.655 226.372L477.051 224.479V224.482Z" fill="#184655"/>
<path d="M479.551 229.246C479.615 230.076 479.272 230.782 478.79 230.818C478.306 230.854 477.866 230.209 477.803 229.379C477.739 228.549 478.082 227.844 478.563 227.808C479.048 227.772 479.488 228.416 479.551 229.246Z" fill="#F48C7F"/>
<path d="M470.687 227.47C470.552 227.437 470.383 234.329 472.339 236.003C474.295 237.677 477.768 237.909 478.825 236.305C479.995 234.528 479.118 227.237 476.188 225.616C473.258 223.995 470.687 227.47 470.687 227.47Z" fill="#F7A491"/>
<path d="M470.291 223.181C468.73 224.479 467.967 225.436 466.874 227.785C465.529 230.674 467.967 233.77 470.045 235.029C472.123 236.288 472.261 237.746 472.261 237.746L472.372 236.852C472.421 236.526 472.416 236.26 472.366 236.028C472.308 235.754 472.189 235.527 472.084 235.292C471.915 234.904 471.373 233.571 471.157 233.219C470.587 232.287 470.476 232.088 470.792 231.224C471.035 230.56 470.811 229.077 471.19 227.982L474.048 227.442C474.048 227.442 475.839 227.06 476.763 226.05C479.419 223.145 474.408 219.695 470.294 223.184L470.291 223.181Z" fill="#184655"/>
<path d="M471.448 231.994C471.778 232.76 471.686 233.535 471.241 233.728C470.795 233.919 470.167 233.454 469.838 232.691C469.509 231.924 469.6 231.15 470.046 230.956C470.491 230.765 471.119 231.23 471.448 231.994Z" fill="#F7A491"/>
</g>
<mask id="mask10_34_2" style="mask-type:luminance" maskUnits="userSpaceOnUse" x="371" y="201" width="57" height="57">
<path d="M425.026 239.992C430.921 225.76 424.162 209.443 409.93 203.548C395.698 197.653 379.382 204.411 373.487 218.643C367.591 232.876 374.35 249.192 388.582 255.087C402.814 260.982 419.131 254.224 425.026 239.992Z" fill="white"/>
</mask>
<g mask="url(#mask10_34_2)">
<path d="M392.365 262.46C392.365 262.46 398.648 254.065 400.945 250.092C403.239 246.119 399.382 248.706 395.442 247.66C393.95 247.264 395.187 239.116 392.365 241.96C387.736 246.622 383.099 256.724 383.099 256.724L392.365 262.46Z" fill="#13375B"/>
<path d="M393.042 241.401C397.107 240.17 404.721 239.525 404.721 239.525C404.721 239.525 409.494 238.751 411.046 239.085C413.329 239.581 417.615 239.805 418.013 249.716C418.298 256.807 419.106 274.352 419.917 286.197L390.851 287.962C392.165 269.734 389.194 242.569 393.042 241.404V241.401Z" fill="#47637F"/>
<path d="M400.749 231.056L405.314 239.451C405.314 239.451 401.875 245.579 398.624 245.743C395.896 245.881 396.325 241.844 396.325 241.844C396.325 241.844 395.896 236.628 394.584 234.29C393.276 231.952 400.752 231.053 400.752 231.053L400.749 231.056Z" fill="#F7A491"/>
<path d="M400.334 234.418C399.31 235.51 397.597 236.952 395.741 237.868C395.469 236.559 395.096 235.206 394.584 234.293C393.981 233.214 395.248 232.442 396.786 231.925C398.851 231.377 400.751 231.059 400.751 231.059L401.628 232.672C401.404 233.239 400.677 234.055 400.334 234.42V234.418Z" fill="#F47458"/>
<path d="M398.406 216.917C398.594 216.782 403.096 227.277 401.142 231.053C399.189 234.83 394.032 237.323 391.425 235.503C388.542 233.488 385.391 221.74 388.866 217.449C392.341 213.157 398.403 216.92 398.403 216.92L398.406 216.917Z" fill="#F7A491"/>
<path d="M388.894 211.154C392.432 210.905 395.174 212.349 396.215 213C397.786 212.756 400.088 213.022 403.207 215.963C407.041 219.579 406.441 224.933 404.045 228.148C401.646 231.36 402.448 234.078 402.448 234.078L401.571 232.799C400.918 231.828 400.456 230.735 400.263 229.581C400.146 228.89 400.088 228.12 400.202 227.445C400.498 225.664 397.891 225.26 396.879 224.125C396.098 223.254 395.429 220.949 394.178 219.496L392.883 218.483C392.883 218.483 390.247 217.399 388.257 218.467C386.268 219.532 384.356 211.478 388.896 211.157L388.894 211.154Z" fill="#F7CC7F"/>
<path d="M397.56 226.026C397.908 227.362 398.816 228.284 399.588 228.082C400.36 227.88 400.703 226.635 400.354 225.298C400.006 223.962 399.098 223.041 398.326 223.243C397.554 223.445 397.211 224.69 397.56 226.026Z" fill="#F7A491"/>
<path d="M407.727 263.929C407.727 263.929 415.358 254.232 417.223 250.422C419.087 246.614 417.095 240.585 413.396 239.871C409.697 239.158 398.983 256.556 398.983 256.556L407.727 263.929Z" fill="#13375B"/>
</g>
<mask id="mask11_34_2" style="mask-type:luminance" maskUnits="userSpaceOnUse" x="115" y="76" width="34" height="34">
<path d="M115.852 93.1522C115.852 102.228 123.209 109.585 132.284 109.585C141.359 109.585 148.716 102.228 148.716 93.1522C148.716 84.0768 141.359 76.7197 132.284 76.7197C123.209 76.7197 115.852 84.0768 115.852 93.1522Z" fill="white"/>
</mask>
<g mask="url(#mask11_34_2)">
<path d="M136.345 112.678C136.345 112.678 132.643 107.731 131.29 105.39C129.937 103.049 132.211 104.574 134.533 103.957C135.413 103.724 134.682 98.9238 136.345 100.598C139.07 103.345 141.804 109.297 141.804 109.297L136.345 112.675V112.678Z" fill="#96D9C9"/>
<path d="M135.945 100.271C133.549 99.5465 129.063 99.1646 129.063 99.1646C129.063 99.1646 126.252 98.7081 125.336 98.9046C123.992 99.1951 121.466 99.3279 121.23 105.169C121.062 109.347 120.586 119.684 120.11 126.665L137.234 127.705C136.459 116.967 138.211 100.96 135.945 100.274V100.271Z" fill="#50BFA5"/>
<path d="M131.405 94.1758L128.715 99.1229C128.715 99.1229 130.741 102.734 132.658 102.831C134.266 102.911 134.014 100.534 134.014 100.534C134.014 100.534 134.266 97.4601 135.038 96.0849C135.81 94.707 131.405 94.1786 131.405 94.1786V94.1758Z" fill="#F7A491"/>
<path d="M131.65 96.157C132.253 96.8017 133.263 97.6484 134.356 98.1907C134.514 97.4187 134.738 96.6219 135.039 96.0851C135.396 95.4487 134.649 94.9949 133.742 94.6906C132.527 94.3669 131.407 94.1787 131.407 94.1787L130.889 95.1305C131.019 95.4653 131.451 95.9467 131.65 96.1598V96.157Z" fill="#F47458"/>
<path d="M132.79 85.8448C132.679 85.7646 130.026 91.9485 131.177 94.1731C132.328 96.3977 135.366 97.8669 136.901 96.7933C138.6 95.6063 140.457 88.6864 138.409 86.1575C136.362 83.6285 132.79 85.8448 132.79 85.8448Z" fill="#F7A491"/>
<path d="M138.392 82.4499C136.306 82.3033 134.693 83.1527 134.078 83.5373C133.152 83.3934 131.796 83.5511 129.959 85.2832C127.698 87.4137 128.052 90.5679 129.466 92.4632C130.88 94.3558 130.407 95.9578 130.407 95.9578L130.921 95.2052C131.306 94.6325 131.58 93.9906 131.693 93.3099C131.763 92.9004 131.796 92.4494 131.729 92.051C131.555 90.9996 133.091 90.7616 133.688 90.0948C134.148 89.5802 134.541 88.2216 135.279 87.3667L136.043 86.769C136.043 86.769 137.598 86.1299 138.768 86.7579C139.941 87.386 141.068 82.6381 138.392 82.4499Z" fill="#184655"/>
<path d="M133.287 91.2128C133.083 92.0013 132.549 92.5437 132.092 92.4247C131.638 92.3057 131.436 91.5725 131.641 90.7839C131.846 89.9954 132.38 89.4531 132.836 89.572C133.29 89.691 133.495 90.4242 133.287 91.2128Z" fill="#F7A491"/>
<path d="M127.296 113.544C127.296 113.544 122.799 107.831 121.701 105.587C120.603 103.343 121.776 99.7901 123.956 99.3695C126.136 98.949 132.448 109.2 132.448 109.2L127.296 113.544Z" fill="#96D9C9"/>
</g>
<mask id="mask12_34_2" style="mask-type:luminance" maskUnits="userSpaceOnUse" x="175" y="124" width="53" height="54">
<path d="M203.256 177.509C217.751 176.477 228.666 163.89 227.635 149.395C226.603 134.899 214.016 123.984 199.52 125.016C185.025 126.047 174.11 138.634 175.141 153.13C176.173 167.625 188.76 178.54 203.256 177.509Z" fill="white"/>
</mask>
<g mask="url(#mask12_34_2)">
<path d="M217.074 161.953C217.556 161.973 218.873 162.415 220.801 166.059C223.264 170.713 226.864 184.772 226.864 184.772L216.12 188.772L214.739 185.837L212.465 163.248C212.465 163.248 216.939 161.948 217.072 161.953H217.074Z" fill="#8CA5D2"/>
<path d="M202.877 159.928C205.948 159.931 213.548 160.827 217.076 161.956C217.076 161.956 219.669 184.229 214.744 201.157C213.642 204.945 215.657 216.862 215.657 216.862L183.827 216.441C183.827 216.441 187.598 187.63 186.176 182.976C184.756 178.322 184.72 162.103 184.72 162.103C184.72 162.103 184.939 162.069 191.873 160.871C195.107 160.312 199.598 159.922 202.877 159.928Z" fill="#466EB6"/>
<path d="M184.37 164.582C187.347 163.464 188.803 190.28 189.204 201.32C194.475 201.827 203.661 201.323 205.949 201.152C207.025 201.071 209.504 200.161 210.575 200.023C211.671 199.879 212.664 199.804 213.204 199.898C213.4 199.931 218.895 202.178 219.365 202.671C219.949 203.282 221.523 204.823 221.258 205.49C220.992 206.157 218.228 203.633 218.228 203.633L216.878 202.875C218.56 204.519 221.767 206.682 221.305 207.471C220.854 208.24 217.96 206.043 215.898 204.546C217.666 206.143 219.866 209.004 219.36 209.449C218.906 209.851 216.405 206.539 213.735 205.587C212.744 205.233 211.759 206.212 210.979 206.331C210.406 206.417 209.524 206.602 208.962 206.445L206.071 205.626C205.086 205.714 205.061 206.298 204.065 206.508C202.908 206.754 201.015 207.012 199.544 207.371C191.071 209.441 188.246 210.401 185.654 210.401C177.799 210.396 177.342 167.224 184.376 164.585L184.37 164.582Z" fill="#F7A491"/>
<path d="M178.723 189.758C178.164 178.452 178.247 164.515 184.586 162.139C187.087 161.201 191.495 166.842 190.704 189.987C187.32 190.267 182.353 190.491 178.726 189.758H178.723Z" fill="#8CA5D2"/>
<path d="M210.018 132.721C209.113 132.417 208.219 132.071 207.359 131.656C206.385 131.186 205.123 130.638 204.326 130.513C202.649 130.253 199.766 130.428 198.175 132.154C196.192 134.304 192.669 132.542 193.38 143.805C194.183 156.552 201.272 155.155 201.443 154.939C201.615 154.724 207.765 146.783 207.765 146.783C207.765 146.783 209.915 151.486 209.915 151.315C209.915 151.143 220.894 136.385 210.015 132.721H210.018Z" fill="#0E2E35"/>
<path d="M204.636 155.883L205.247 160.437C205.247 160.437 206.617 167 204.854 168.265C203.092 169.529 197.356 160.249 197.356 160.249L197.962 148.706L204.636 155.88V155.883Z" fill="#F7A491"/>
<path d="M197.766 152.449C199.221 156.387 202.691 158.808 205.156 159.746L204.636 155.883L197.962 148.708L197.766 152.449Z" fill="#F47458"/>
<path d="M204.274 136.147C208.012 135.544 211.363 138.548 211.269 142.289C211.227 143.916 211.094 145.944 210.757 148.133C209.943 153.39 206.357 158.022 203.983 157.609C201.612 157.197 195.641 152.659 196.693 145.178C197.343 140.557 200.351 136.783 204.271 136.15L204.274 136.147Z" fill="#F7A491"/>
<path d="M198.341 146.069C198.142 147.226 197.215 148.031 196.272 147.865C195.328 147.701 194.728 146.631 194.927 145.474C195.126 144.318 196.053 143.512 196.996 143.678C197.94 143.842 198.54 144.912 198.341 146.069Z" fill="#F7A491"/>
<path d="M196.998 143.675C196.998 143.675 199.867 144.389 200.93 142.544C201.995 140.698 205.8 136.719 210.639 138.368C215.478 140.02 206.381 134.356 205.993 134.356C205.606 134.356 200.96 134.323 200.96 134.323C200.96 134.323 197.38 137.267 197.25 137.591C197.12 137.915 196.088 141.442 196.088 141.442L196.993 143.675H196.998Z" fill="#0E2E35"/>
</g>
<mask id="mask13_34_2" style="mask-type:luminance" maskUnits="userSpaceOnUse" x="251" y="210" width="28" height="28">
<path d="M274.583 233.761C279.924 228.42 279.924 219.761 274.583 214.419C269.242 209.078 260.582 209.078 255.241 214.419C249.9 219.761 249.9 228.42 255.241 233.761C260.582 239.102 269.242 239.102 274.583 233.761Z" fill="white"/>
</mask>
<g mask="url(#mask13_34_2)">
<path d="M273.072 229.636C273.321 229.647 274.007 229.877 275.009 231.769C276.29 234.188 278.16 241.495 278.16 241.495L272.577 243.576L271.86 242.051L270.679 230.311C270.679 230.311 273.003 229.636 273.072 229.639V229.636Z" fill="#FADFAE"/>
<path d="M265.693 228.585C267.289 228.585 271.24 229.053 273.072 229.639C273.072 229.639 274.419 241.216 271.86 250.014C271.287 251.984 272.333 258.177 272.333 258.177L255.79 257.958C255.79 257.958 257.749 242.984 257.01 240.566C256.271 238.147 256.255 229.717 256.255 229.717C256.255 229.717 256.368 229.7 259.971 229.075C261.653 228.784 263.985 228.582 265.69 228.585H265.693Z" fill="#F7CC7F"/>
<path d="M256.077 231.003C257.623 230.422 258.382 244.361 258.589 250.097C261.328 250.36 266.104 250.097 267.291 250.009C267.85 249.967 269.139 249.494 269.695 249.422C270.265 249.347 270.783 249.309 271.062 249.358C271.164 249.375 274.02 250.543 274.263 250.8C274.565 251.118 275.384 251.918 275.246 252.266C275.107 252.612 273.671 251.301 273.671 251.301L272.968 250.908C273.843 251.763 275.508 252.886 275.27 253.296C275.035 253.694 273.533 252.554 272.459 251.777C273.378 252.607 274.521 254.093 274.258 254.325C274.023 254.532 272.722 252.811 271.333 252.316C270.819 252.134 270.307 252.64 269.9 252.704C269.601 252.748 269.145 252.845 268.851 252.762L267.349 252.336C266.837 252.383 266.823 252.684 266.306 252.795C265.705 252.922 264.72 253.058 263.957 253.243C259.555 254.319 258.086 254.817 256.738 254.817C252.654 254.817 252.419 232.375 256.074 231.006L256.077 231.003Z" fill="#F7A491"/>
<path d="M253.14 244.088C252.85 238.211 252.894 230.97 256.187 229.733C257.487 229.246 259.778 232.176 259.366 244.207C257.606 244.351 255.025 244.47 253.14 244.088Z" fill="#FADFAE"/>
<path d="M269.404 214.443C268.933 214.286 268.468 214.106 268.023 213.89C267.517 213.647 266.861 213.362 266.449 213.295C265.577 213.16 264.08 213.251 263.253 214.147C262.224 215.265 260.392 214.349 260.76 220.204C261.178 226.831 264.861 226.103 264.952 225.99C265.04 225.876 268.239 221.751 268.239 221.751C268.239 221.751 269.357 224.197 269.357 224.105C269.357 224.014 275.062 216.347 269.409 214.441L269.404 214.443Z" fill="#0E2E35"/>
<path d="M266.607 226.482L266.925 228.85C266.925 228.85 267.639 232.262 266.72 232.92C265.804 233.579 262.822 228.753 262.822 228.753L263.137 222.755L266.607 226.485V226.482Z" fill="#BF7154"/>
<path d="M263.037 224.698C263.795 226.745 265.596 228.001 266.877 228.488L266.609 226.482L263.139 222.752L263.037 224.698Z" fill="#96482A"/>
<path d="M266.417 216.223C268.36 215.91 270.103 217.471 270.053 219.416C270.031 220.262 269.962 221.316 269.788 222.454C269.364 225.187 267.499 227.595 266.268 227.379C265.034 227.163 261.932 224.806 262.48 220.918C262.818 218.516 264.381 216.555 266.42 216.225L266.417 216.223Z" fill="#BF7154"/>
<path d="M263.336 221.38C263.231 221.98 262.75 222.398 262.26 222.312C261.77 222.227 261.458 221.67 261.563 221.07C261.668 220.47 262.149 220.052 262.639 220.138C263.129 220.223 263.442 220.78 263.336 221.38Z" fill="#BF7154"/>
<path d="M262.637 220.138C262.637 220.138 264.128 220.509 264.682 219.548C265.235 218.588 267.213 216.521 269.728 217.379C272.243 218.237 267.515 215.293 267.313 215.293C267.111 215.293 264.698 215.276 264.698 215.276C264.698 215.276 262.836 216.806 262.77 216.975C262.703 217.144 262.167 218.976 262.167 218.976L262.637 220.135V220.138Z" fill="#0E2E35"/>
</g>
<mask id="mask14_34_2" style="mask-type:luminance" maskUnits="userSpaceOnUse" x="507" y="64" width="38" height="38">
<path d="M544.161 88.6342C547.136 78.8106 541.585 68.4351 531.761 65.4599C521.938 62.4846 511.562 68.0362 508.587 77.8598C505.612 87.6834 511.163 98.0589 520.987 101.034C530.81 104.009 541.186 98.4578 544.161 88.6342Z" fill="white"/>
</mask>
<g mask="url(#mask14_34_2)">
<path d="M511.325 110.085L519.988 110.971C519.988 110.971 520.386 103.868 520.386 100.482C520.386 96.3729 520.038 91.0771 519.54 91.1933C518.145 91.5142 516.269 92.2834 515.154 93.8163C511.289 99.1259 511.327 110.088 511.327 110.088L511.325 110.085Z" fill="#B75742"/>
<path d="M515.582 99.7543C515.4 101.008 512.071 135.073 512.071 135.073C527.845 142.691 536.547 136.429 536.547 136.429C536.547 136.429 536.03 112.507 536.649 109.25C537.059 107.095 537.568 92.7818 536.173 92.3806C534.383 91.866 532.327 91.3209 530.089 91.0885C528.177 90.8893 520.754 90.7758 519.426 91.2213C519.426 91.2213 516.346 94.4834 515.582 99.7516V99.7543Z" fill="#F47458"/>
<path d="M527.981 84.5062L528.996 91.2076C528.996 91.2076 525.283 99.1872 523.067 98.4955C521.208 97.9144 522.35 90.8562 522.35 90.8562C522.35 90.8562 523.363 87.0655 523.061 85.1675C522.757 83.2694 527.981 84.5089 527.981 84.5089V84.5062Z" fill="#F7A491"/>
<path d="M523.062 85.1645C522.758 83.2665 527.982 84.506 527.982 84.506L528.068 85.0622C527.915 85.4329 527.727 85.7511 527.5 85.9974C526.333 87.2535 524.509 88.0061 522.935 88.0642C523.093 87.0405 523.19 85.9448 523.065 85.1673L523.062 85.1645Z" fill="#F47458"/>
<path d="M528.836 75.0266C528.983 74.974 530.02 82.6576 528.053 84.7743C526.089 86.8882 522.259 87.5799 520.884 85.9142C519.365 84.0715 519.443 75.8124 522.497 73.6349C525.552 71.4601 528.833 75.0238 528.833 75.0238L528.836 75.0266Z" fill="#F7A491"/>
<path d="M523.662 69.5234C526.025 70.0048 527.553 71.4491 528.117 72.0634C529.191 72.1906 530.646 72.7828 532.151 75.2757C534.002 78.3386 532.635 81.7336 530.48 83.3992C528.324 85.0649 528.355 86.9879 528.355 86.9879L528.015 85.9918C527.763 85.2392 527.66 84.4396 527.743 83.6483C527.793 83.1751 527.896 82.6605 528.092 82.2399C528.609 81.1276 526.98 80.3889 526.52 79.462C526.169 78.7481 526.152 77.1184 525.596 75.9425L524.935 75.0433C524.935 75.0433 523.405 73.8535 521.911 74.1883C520.414 74.5231 520.63 68.9036 523.66 69.5234H523.662Z" fill="#0E2E35"/>
<path d="M526.626 80.8317C526.609 81.7697 527.035 82.5361 527.578 82.5472C528.12 82.5555 528.571 81.8029 528.585 80.8649C528.601 79.927 528.175 79.1605 527.633 79.1495C527.091 79.1412 526.64 79.8938 526.626 80.8317Z" fill="#F7A491"/>
<path d="M552.168 135.436C552.179 135.364 552.179 135.289 552.171 135.217C551.938 132.857 549.979 113.046 549.65 112.205C549.351 111.444 540.567 98.8799 540.567 98.8799L536.248 104.762L544.698 116.032C544.888 116.748 547.935 130.121 547.935 130.121C547.935 130.121 548.56 132.558 548.84 134.019C548.712 134.371 548.588 134.703 548.474 134.976C548.195 135.56 547.866 136.036 547.564 136.44C547.185 136.947 546.562 138.053 546.485 138.349C546.396 138.692 546.233 139.409 546.142 139.841C546.051 140.272 545.926 140.776 545.904 141.008C545.89 141.152 545.743 141.434 545.63 141.636C545.461 141.935 545.749 142.289 546.075 142.181C546.383 142.079 546.621 141.683 546.77 141.434C547.185 140.734 547.406 139.459 547.511 139.528C547.614 139.594 547.979 141.761 548.037 142.004C548.095 142.251 548.532 144.763 548.779 145.222C549.025 145.682 549.351 145.604 549.437 145.316C549.512 145.067 549.166 141.551 549.166 141.551C549.166 141.551 549.122 141.102 549.318 141.243C549.515 141.385 549.836 144.578 549.971 145.045C550.107 145.513 550.419 145.759 550.685 145.385C551.006 144.929 550.453 141.542 550.453 141.542C550.453 141.542 550.392 141.116 550.572 141.155C550.754 141.194 550.981 143.916 551.122 144.151C551.263 144.387 551.62 144.472 551.792 144.08C551.994 143.617 551.474 140.599 551.474 140.599C551.474 140.599 551.499 140.358 551.612 140.438C551.725 140.519 552.085 142.823 552.32 143.036C552.517 143.216 552.683 143.042 552.683 143.042C553.114 142.749 552.453 140.555 552.459 139.464C552.464 138.374 551.961 137.148 552.11 135.851C552.121 135.771 552.146 135.569 552.163 135.444L552.168 135.436Z" fill="#F8A492"/>
<path d="M547.433 106.838L539.93 111.876C539.93 111.876 535.699 105.581 533.43 103.34C530.586 100.535 534.465 91.9352 536.299 92.4222C540.397 93.5096 547.436 106.838 547.436 106.838H547.433Z" fill="#F47458"/>
</g>
<mask id="mask15_34_2" style="mask-type:luminance" maskUnits="userSpaceOnUse" x="580" y="140" width="33" height="33">
<path d="M612.541 156.447C612.541 165.254 605.403 172.393 596.596 172.393C587.789 172.393 580.65 165.254 580.65 156.447C580.65 147.64 587.789 140.502 596.596 140.502C605.403 140.502 612.541 147.64 612.541 156.447Z" fill="white"/>
</mask>
<g mask="url(#mask15_34_2)">
<path d="M587.949 169.698C590.177 162.941 592.667 163.229 592.667 163.229L590.741 177.434C589.366 177.058 587.573 176.219 586.201 175.832C586.657 173.696 587.401 171.361 587.949 169.698Z" fill="#47637F"/>
<path d="M588.641 152.128C589.321 147.685 593.344 144.489 597.547 146.644C598.493 147.129 599.775 148.114 600.428 148.952C602.193 151.218 602.644 154.018 604.47 156.218C603.8 156.727 602.99 157.258 602.024 157.77L600.89 156.256L601.28 158.146C598.458 159.496 594.471 160.612 589.017 160.581C588.331 157.493 588.278 154.499 588.641 152.128Z" fill="#F7CC7F"/>
<path d="M598.369 162.017C598.369 162.017 601.985 161.544 603.61 163.318C605.234 165.091 600.497 179.335 600.201 181.59C599.905 183.848 602.273 189.506 602.273 189.506C602.273 189.506 591.933 191.451 589.178 189.622C589.178 189.622 589.014 173.732 589.308 172.119C589.604 170.506 592.063 163.949 592.653 163.304C593.242 162.659 598.366 162.014 598.366 162.014L598.369 162.017Z" fill="#13375B"/>
<path d="M597.002 156.52C597.002 156.52 597.024 156.641 597.06 156.846C597.242 157.834 597.948 161.115 598.424 162.017C598.999 163.107 596.454 166.583 594.005 166.159C593.275 166.032 594.622 162.966 594.556 162.64C594.431 162.017 594.265 161.168 594.094 160.299C593.997 159.809 593.897 159.311 593.806 158.844C593.543 157.516 593.33 156.428 593.33 156.428L596.999 156.52H597.002Z" fill="#F7A491"/>
<path opacity="0.5" d="M597.063 156.848C597.025 156.644 597.005 156.522 597.005 156.522L593.336 156.431C593.336 156.431 593.549 157.518 593.812 158.846C593.904 159.311 594 159.806 594.097 160.293C594.665 160.21 595.257 159.934 595.849 159.413C596.496 158.846 596.92 158.163 597.177 157.435C597.133 157.203 597.094 157.003 597.066 156.848H597.063Z" fill="#F47458"/>
<path d="M594.53 148.158C594.53 148.158 596.26 147.958 597.344 149.364C598.429 150.77 599.597 155.116 596.904 157.479C594.209 159.842 591.548 157.167 591.155 154.331C590.759 151.495 590.607 148.055 594.53 148.158Z" fill="#F7A491"/>
<path d="M590.358 154.289C590.679 154.915 591.218 155.263 591.564 155.064C591.907 154.865 591.926 154.198 591.606 153.57C591.285 152.945 590.745 152.596 590.399 152.795C590.056 152.995 590.037 153.664 590.358 154.289Z" fill="#F7A491"/>
<path d="M594.338 147.693C594.338 147.693 596.648 151.827 598.303 152.018C599.957 152.208 600.173 154.405 600.173 154.405C600.173 154.405 599.581 149.345 597.946 148.368C596.308 147.391 594.338 147.693 594.338 147.693Z" fill="#F7CC7F"/>
<path d="M597.871 153.058C597.736 153.791 598.007 154.466 598.475 154.563C598.942 154.66 599.432 154.143 599.565 153.409C599.7 152.676 599.429 152.001 598.961 151.904C598.494 151.807 598.004 152.325 597.871 153.058Z" fill="#F7A491"/>
<path d="M602.958 162.825C602.958 162.825 604.322 163.472 605.523 166.267C606.663 168.923 606.998 182.182 606.998 182.182L602.023 181.36L600.174 175.245C599.602 172.824 598.96 167.238 601.348 163.97C601.984 163.099 602.571 162.573 602.958 162.822V162.825Z" fill="#47637F"/>
</g>
<mask id="mask16_34_2" style="mask-type:luminance" maskUnits="userSpaceOnUse" x="133" y="219" width="38" height="38">
<path d="M170.618 237.774C170.618 248.122 162.229 256.511 151.881 256.511C141.533 256.511 133.144 248.122 133.144 237.774C133.144 227.426 141.533 219.037 151.881 219.037C162.229 219.037 170.618 227.426 170.618 237.774Z" fill="white"/>
</mask>
<g mask="url(#mask16_34_2)">
<path d="M160.842 235.104C160.95 232.489 160.565 229.908 159.395 227.473C158.388 225.379 155.897 224.192 153.626 224.186C146.413 224.178 145.497 233.707 140.907 237.381C139.504 238.505 137.935 239.418 136.61 240.63C131.709 245.101 133.917 253.382 138.416 257.303C141.54 260.023 146.449 261.569 150.297 259.442C152.306 258.332 153.831 256.486 154.918 254.464C156.459 251.595 157.455 248.283 158.551 245.223C159.718 241.966 160.698 238.577 160.842 235.101V235.104Z" fill="#F7CC7F"/>
<path d="M158.144 259.173C158.144 259.173 152.757 253.65 151.371 251.251C149.985 248.853 152.314 250.413 154.694 249.782C155.596 249.544 155.366 244.262 157.071 245.978C159.865 248.795 163.379 253.72 163.379 253.72L158.141 259.173H158.144Z" fill="#F47458"/>
<path d="M150.488 243.554C150.488 243.554 145.655 242.6 143.449 244.442C141.244 246.285 143.922 262.671 143.92 265.385C143.92 268.102 142.406 275.196 142.406 275.196C142.406 275.196 157.057 278.342 159.384 274.264C159.384 274.264 160.045 258.728 159.948 256.774C159.849 254.821 157.677 246.83 157.076 245.975C156.476 245.12 150.491 243.552 150.491 243.552L150.488 243.554Z" fill="#B75742"/>
<path d="M150.458 236.078C150.458 236.078 150.433 236.222 150.386 236.468C150.168 237.647 149.324 241.562 148.754 242.638C148.065 243.939 151.114 248.086 154.047 247.58C154.921 247.428 153.308 243.77 153.385 243.383C153.535 242.641 153.734 241.628 153.942 240.591C154.058 240.004 154.174 239.412 154.285 238.853C154.597 237.268 154.855 235.97 154.855 235.97L150.458 236.081V236.078Z" fill="#F7A491"/>
<path d="M150.386 236.468C150.433 236.222 150.458 236.078 150.458 236.078L154.855 235.967C154.855 235.967 154.597 237.265 154.285 238.85C154.174 239.407 154.058 239.996 153.941 240.577C153.264 240.477 152.553 240.148 151.841 239.525C151.067 238.848 150.558 238.034 150.25 237.165C150.306 236.889 150.35 236.648 150.383 236.465L150.386 236.468Z" fill="#F47458"/>
<path d="M153.415 226.103C153.415 226.103 151.343 225.865 150.042 227.542C148.742 229.219 147.342 234.404 150.571 237.223C153.797 240.043 156.987 236.853 157.46 233.469C157.933 230.085 158.116 225.982 153.415 226.103Z" fill="#F7A491"/>
<path d="M156.647 225.251C156.647 225.251 152.607 231.04 148.759 230.265L148.651 227.794L149.005 226.859L150.953 225.608L154.121 224.886L156.644 225.251H156.647Z" fill="#F7CC7F"/>
<path d="M158.416 233.416C158.032 234.163 157.384 234.578 156.972 234.34C156.56 234.103 156.537 233.306 156.922 232.559C157.307 231.812 157.954 231.397 158.366 231.635C158.779 231.872 158.801 232.669 158.416 233.416Z" fill="#F7A491"/>
<path d="M149.418 231.947C149.578 232.824 149.254 233.627 148.693 233.74C148.131 233.856 147.547 233.239 147.387 232.362C147.226 231.485 147.55 230.683 148.112 230.569C148.673 230.453 149.257 231.07 149.418 231.947Z" fill="#F7A491"/>
<path d="M145.27 258.979C145.27 258.979 142.1 251.949 141.618 249.218C141.137 246.49 143.477 243.064 145.929 243.283C148.38 243.504 152.057 255.645 152.057 255.645L145.27 258.979Z" fill="#F47458"/>
</g>
<defs>
<filter id="filter0_d_34_2" x="0" y="0" width="704" height="482" filterUnits="userSpaceOnUse" color-interpolation-filters="sRGB">
<feFlood flood-opacity="0" result="BackgroundImageFix"/>
<feColorMatrix in="SourceAlpha" type="matrix" values="0 0 0 0 0 0 0 0 0 0 0 0 0 0 0 0 0 0 127 0" result="hardAlpha"/>
<feOffset dx="4" dy="8"/>
<feGaussianBlur stdDeviation="8"/>
<feComposite in2="hardAlpha" operator="out"/>
<feColorMatrix type="matrix" values="0 0 0 0 0.388235 0 0 0 0 0.356863 0 0 0 0 1 0 0 0 0.1 0"/>
<feBlend mode="normal" in2="BackgroundImageFix" result="effect1_dropShadow_34_2"/>
<feBlend mode="normal" in="SourceGraphic" in2="effect1_dropShadow_34_2" result="shape"/>
</filter>
<linearGradient id="paint0_linear_34_2" x1="348" y1="8" x2="348" y2="458" gradientUnits="userSpaceOnUse">
<stop offset="0.5" stop-color="#DEEAF6"/>
<stop offset="1" stop-color="white"/>
</linearGradient>
</defs>
</svg>
