<svg width="704" height="482" viewBox="0 0 704 482" fill="none" xmlns="http://www.w3.org/2000/svg">
<g filter="url(#filter0_d_47_8)">
<rect x="12" y="8" width="672" height="450" rx="24" fill="url(#paint0_linear_47_8)"/>
<rect x="17" y="13" width="662" height="440" rx="19" stroke="white" stroke-width="10"/>
</g>
<g clip-path="url(#clip0_47_8)">
<path d="M562.168 346.406C562.168 346.3 562.168 346.195 562.168 346.072C562.168 324.249 544.481 306.545 522.641 306.545H522.588C519.737 306.545 517.308 304.485 516.956 301.652C513.595 275.201 491.015 254.751 463.649 254.751C446.807 254.751 431.778 262.512 421.922 274.638H421.887C419.564 275.201 417.136 274.092 416.115 271.928C407.439 253.537 369.707 162.815 369.707 162.815H359.675L317.262 262.248C315.432 266.718 311.067 269.552 306.245 269.552H306.157C295.809 269.552 286.218 272.772 278.316 278.263C274.515 280.903 269.534 281.079 265.627 278.615C254.98 271.892 242.379 268.003 228.863 268.003C200.248 268.003 175.697 285.444 165.279 310.293C163.026 315.661 158.222 319.515 152.502 320.518C118.783 326.502 93.1237 355.927 93.0005 391.371C92.8597 431.003 125.048 463.579 164.68 463.86C200.072 464.124 229.638 438.905 236.114 405.468C260.999 402.863 281.924 387.042 291.779 365.149C296.337 366.557 301.159 367.313 306.175 367.313C325.727 367.313 342.605 355.821 350.401 339.226C356.138 342.605 362.614 344.84 369.548 345.596C371.607 381.797 401.631 410.518 438.342 410.518C461.097 410.518 481.283 399.484 493.831 382.466C491.878 388.273 490.839 394.503 490.91 400.997C491.227 431.443 516.147 456.258 546.593 456.451C577.725 456.663 603.032 431.479 603.032 400.381C603.032 374.67 585.732 353.023 562.15 346.388L562.168 346.406Z" fill="#F6F9FC"/>
<g opacity="0.54">
<path d="M364.232 52.3645L365.042 51.7837C365.922 51.1326 366.432 50.0767 366.362 48.9855L366.291 48L366.872 48.8095C367.523 49.6895 368.579 50.1999 369.67 50.1295L370.656 50.0591L369.846 50.6398C368.967 51.291 368.456 52.3469 368.527 53.438L368.597 54.4236L368.016 53.614C367.365 52.7341 366.309 52.2237 365.218 52.2941L364.232 52.3645Z" fill="#0A2540"/>
<path d="M298.957 73.219L299.766 72.6382C300.646 71.9871 301.157 70.9312 301.086 69.84L301.016 68.8545L301.597 69.664C302.248 70.544 303.304 71.0543 304.395 70.9839L305.38 70.9136L304.571 71.4943C303.691 72.1455 303.181 73.2014 303.251 74.2925L303.321 75.2781L302.741 74.4685C302.089 73.5886 301.033 73.0782 299.942 73.1486L298.957 73.219Z" fill="#0A2540"/>
<path d="M489.307 98.8779L489.764 97.9979C490.275 97.03 490.24 95.8509 489.694 94.9181L489.184 94.0558L490.064 94.5134C491.031 95.0237 492.211 94.9885 493.143 94.443L494.006 93.9326L493.548 94.8126C493.038 95.7805 493.073 96.9596 493.619 97.8924L494.129 98.7547L493.249 98.2971C492.281 97.7868 491.102 97.822 490.169 98.3675L489.307 98.8779Z" fill="#0A2540"/>
<path d="M500.429 258.13L500.886 257.25C501.397 256.282 501.362 255.103 500.816 254.17L500.306 253.308L501.186 253.765C502.154 254.276 503.333 254.24 504.265 253.695L505.128 253.185L504.67 254.065C504.16 255.032 504.195 256.212 504.741 257.144L505.251 258.007L504.371 257.549C503.403 257.039 502.224 257.074 501.291 257.619L500.429 258.13Z" fill="#0A2540"/>
<path d="M222.789 169.872L222.666 168.887C222.525 167.796 221.857 166.845 220.854 166.388L219.956 165.965L220.942 165.842C222.033 165.701 222.983 165.033 223.441 164.029L223.863 163.132L223.986 164.117C224.127 165.208 224.796 166.159 225.799 166.616L226.696 167.039L225.711 167.162C224.62 167.303 223.669 167.972 223.212 168.975L222.789 169.872Z" fill="#0A2540"/>
<path d="M512.097 180.607L511.815 179.657C511.498 178.601 510.671 177.791 509.615 177.492L508.665 177.228L509.615 176.947C510.671 176.63 511.481 175.803 511.78 174.747L512.044 173.796L512.326 174.747C512.642 175.803 513.47 176.612 514.525 176.911L515.476 177.175L514.525 177.457C513.47 177.774 512.66 178.601 512.361 179.657L512.097 180.607Z" fill="#0A2540"/>
<path d="M291.637 145.233L292.2 145.18C292.816 145.11 293.361 144.741 293.625 144.177L293.872 143.667L293.925 144.23C293.995 144.846 294.365 145.392 294.928 145.656L295.438 145.902L294.875 145.955C294.259 146.025 293.713 146.395 293.449 146.958L293.203 147.468L293.15 146.905C293.08 146.289 292.71 145.744 292.147 145.48L291.637 145.233Z" fill="#0A2540"/>
<path d="M282.872 151.182L283.224 151.147C283.611 151.111 283.963 150.865 284.139 150.513L284.298 150.196L284.333 150.548C284.368 150.935 284.614 151.287 284.966 151.463L285.283 151.622L284.931 151.657C284.544 151.692 284.192 151.939 284.016 152.291L283.858 152.607L283.822 152.255C283.787 151.868 283.541 151.516 283.189 151.34L282.872 151.182Z" fill="#0A2540"/>
<path d="M478.8 139.426L479.152 139.391C479.539 139.356 479.891 139.109 480.067 138.757L480.226 138.44L480.261 138.792C480.296 139.18 480.542 139.532 480.894 139.708L481.211 139.866L480.859 139.901C480.472 139.936 480.12 140.183 479.944 140.535L479.786 140.851L479.75 140.499C479.715 140.112 479.469 139.76 479.117 139.584L478.8 139.426Z" fill="#0A2540"/>
<path d="M526.352 198.611L526.704 198.575C527.091 198.54 527.443 198.294 527.619 197.942L527.777 197.625L527.812 197.977C527.847 198.382 528.094 198.716 528.446 198.892L528.763 199.051L528.411 199.086C528.023 199.121 527.671 199.367 527.495 199.719L527.337 200.036L527.302 199.684C527.267 199.297 527.02 198.945 526.668 198.769L526.352 198.611Z" fill="#0A2540"/>
<path d="M525.753 163.342L526.105 163.307C526.492 163.272 526.844 163.026 527.02 162.674L527.179 162.357L527.214 162.709C527.249 163.096 527.495 163.448 527.847 163.624L528.164 163.782L527.812 163.818C527.425 163.853 527.073 164.099 526.897 164.451L526.739 164.768L526.704 164.416C526.668 164.029 526.422 163.677 526.07 163.501L525.753 163.342Z" fill="#0A2540"/>
<path d="M476.617 177.563L476.969 177.527C477.357 177.492 477.709 177.246 477.885 176.894L478.043 176.577L478.078 176.929C478.113 177.316 478.36 177.668 478.712 177.844L479.028 178.003L478.676 178.038C478.289 178.073 477.937 178.319 477.761 178.671L477.603 178.988L477.568 178.636C477.533 178.249 477.286 177.897 476.934 177.721L476.617 177.563Z" fill="#0A2540"/>
<path d="M479.046 238.208L479.398 238.173C479.785 238.138 480.137 237.891 480.313 237.539L480.471 237.223L480.507 237.575C480.542 237.962 480.788 238.314 481.14 238.49L481.457 238.648L481.105 238.683C480.718 238.719 480.366 238.965 480.19 239.317L480.031 239.634L479.996 239.282C479.961 238.895 479.715 238.543 479.363 238.367L479.046 238.208Z" fill="#0A2540"/>
<path d="M477.058 119.715L477.41 119.68C477.797 119.645 478.149 119.398 478.325 119.046L478.483 118.729L478.518 119.081C478.554 119.469 478.8 119.821 479.152 119.997L479.469 120.155L479.117 120.19C478.73 120.225 478.378 120.472 478.202 120.824L478.043 121.141L478.008 120.789C477.973 120.401 477.726 120.049 477.374 119.873L477.058 119.715Z" fill="#0A2540"/>
<path d="M378.82 67.0241L379.172 66.9889C379.559 66.9537 379.911 66.7073 380.087 66.3554L380.246 66.0386L380.281 66.3905C380.316 66.7777 380.562 67.1297 380.914 67.3057L381.231 67.4641L380.879 67.4993C380.492 67.5345 380.14 67.7809 379.964 68.1328L379.806 68.4496L379.77 68.0976C379.735 67.7105 379.489 67.3585 379.137 67.1825L378.82 67.0241Z" fill="#0A2540"/>
<path d="M437.336 64.631L437.688 64.5958C438.075 64.5606 438.427 64.3143 438.603 63.9623L438.761 63.6455L438.797 63.9975C438.832 64.3847 439.078 64.7366 439.43 64.9126L439.747 65.071L439.395 65.1062C439.008 65.1414 438.656 65.3878 438.48 65.7398L438.321 66.0565L438.286 65.7046C438.251 65.3174 438.005 64.9654 437.653 64.7894L437.336 64.631Z" fill="#0A2540"/>
<path d="M222.438 151.076L222.65 150.777C222.878 150.443 222.914 150.02 222.755 149.668L222.614 149.334L222.914 149.545C223.248 149.774 223.67 149.809 224.022 149.651L224.357 149.51L224.146 149.809C223.917 150.144 223.882 150.566 224.04 150.918L224.181 151.252L223.882 151.041C223.547 150.812 223.125 150.777 222.773 150.935L222.438 151.076Z" fill="#0A2540"/>
<path d="M294.452 168.622L294.804 168.587C295.192 168.552 295.544 168.305 295.72 167.953L295.878 167.637L295.913 167.989C295.948 168.376 296.195 168.728 296.547 168.904L296.863 169.062L296.511 169.097C296.124 169.133 295.772 169.379 295.596 169.731L295.438 170.048L295.403 169.696C295.368 169.309 295.121 168.957 294.769 168.781L294.452 168.622Z" fill="#0A2540"/>
<path d="M192.062 205.597L192.414 205.562C192.802 205.527 193.154 205.281 193.33 204.929L193.488 204.612L193.523 204.964C193.558 205.351 193.805 205.703 194.157 205.879L194.474 206.037L194.122 206.073C193.734 206.108 193.382 206.354 193.206 206.706L193.048 207.023L193.013 206.671C192.978 206.284 192.731 205.932 192.379 205.756L192.062 205.597Z" fill="#0A2540"/>
<path d="M149.121 271.787L149.684 271.734C150.3 271.663 150.846 271.294 151.11 270.731L151.356 270.22L151.409 270.783C151.479 271.399 151.849 271.945 152.412 272.209L152.922 272.455L152.359 272.508C151.743 272.578 151.198 272.948 150.934 273.511L150.687 274.022L150.635 273.458C150.564 272.842 150.195 272.297 149.631 272.033L149.121 271.787Z" fill="#0A2540"/>
<path d="M162.232 196.868L162.637 197.255C163.077 197.678 163.711 197.854 164.309 197.713L164.855 197.59L164.467 197.994C164.045 198.434 163.869 199.068 164.01 199.666L164.133 200.212L163.728 199.825C163.288 199.402 162.655 199.226 162.056 199.367L161.511 199.508L161.898 199.103C162.32 198.663 162.496 198.03 162.355 197.431L162.232 196.886V196.868Z" fill="#0A2540"/>
<path d="M201.477 307.688L201.882 308.076C202.322 308.498 202.956 308.674 203.554 308.533L204.1 308.41L203.712 308.815C203.29 309.255 203.114 309.888 203.255 310.487L203.378 311.032L202.973 310.645C202.533 310.223 201.9 310.047 201.301 310.188L200.756 310.328L201.143 309.924C201.565 309.484 201.741 308.85 201.601 308.252L201.477 307.706V307.688Z" fill="#0A2540"/>
<path d="M384.911 308.146L385.316 308.533C385.756 308.956 386.389 309.132 386.988 308.991L387.533 308.868L387.146 309.272C386.724 309.712 386.548 310.346 386.688 310.944L386.812 311.49L386.407 311.103C385.967 310.68 385.333 310.504 384.735 310.645L384.189 310.786L384.577 310.381C384.999 309.941 385.175 309.308 385.034 308.709L384.893 308.164L384.911 308.146Z" fill="#0A2540"/>
<path d="M455.992 143.896L456.555 143.843C457.171 143.773 457.717 143.403 457.981 142.84L458.227 142.33L458.28 142.893C458.35 143.509 458.72 144.054 459.283 144.318L459.793 144.565L459.23 144.617C458.614 144.688 458.069 145.057 457.805 145.621L457.558 146.131L457.505 145.568C457.435 144.952 457.065 144.406 456.502 144.142L455.992 143.896Z" fill="#0A2540"/>
<path d="M332.166 164.31L332.729 164.258C333.345 164.187 333.891 163.818 334.155 163.255L334.401 162.744L334.454 163.307C334.524 163.923 334.894 164.469 335.457 164.733L335.967 164.979L335.404 165.032C334.788 165.102 334.243 165.472 333.979 166.035L333.732 166.545L333.68 165.982C333.609 165.366 333.24 164.821 332.676 164.557L332.166 164.31Z" fill="#0A2540"/>
<path d="M469.155 255.86L469.718 255.807C470.334 255.737 470.88 255.367 471.144 254.804L471.39 254.293L471.443 254.857C471.513 255.473 471.883 256.018 472.446 256.282L472.957 256.529L472.393 256.581C471.777 256.652 471.232 257.021 470.968 257.584L470.722 258.095L470.669 257.532C470.598 256.916 470.229 256.37 469.666 256.106L469.155 255.86Z" fill="#0A2540"/>
<path d="M533.444 303.465L534.007 303.412C534.623 303.342 535.169 302.972 535.433 302.409L535.679 301.898L535.732 302.462C535.803 303.078 536.172 303.623 536.735 303.887L537.246 304.133L536.683 304.186C536.067 304.257 535.521 304.626 535.257 305.189L535.011 305.7L534.958 305.137C534.887 304.521 534.518 303.975 533.955 303.711L533.444 303.465Z" fill="#0A2540"/>
<path d="M344.626 234.653L345.189 234.6C345.805 234.53 346.351 234.16 346.615 233.597L346.861 233.087L346.914 233.65C346.984 234.266 347.354 234.812 347.917 235.076L348.428 235.322L347.864 235.375C347.248 235.445 346.703 235.815 346.439 236.378L346.193 236.888L346.14 236.325C346.069 235.709 345.7 235.164 345.137 234.9L344.626 234.653Z" fill="#0A2540"/>
<path d="M220.537 112.553L221.101 112.5C221.716 112.429 222.262 112.06 222.526 111.497L222.772 110.986L222.825 111.549C222.896 112.165 223.265 112.711 223.828 112.975L224.339 113.221L223.776 113.274C223.16 113.345 222.614 113.714 222.35 114.277L222.104 114.788L222.051 114.225C221.98 113.609 221.611 113.063 221.048 112.799L220.537 112.553Z" fill="#0A2540"/>
<path d="M204.399 275.078L204.856 274.198C205.367 273.23 205.332 272.051 204.786 271.118L204.276 270.256L205.156 270.713C206.124 271.223 207.303 271.188 208.235 270.643L209.098 270.132L208.64 271.012C208.13 271.98 208.165 273.159 208.711 274.092L209.221 274.954L208.341 274.497C207.373 273.986 206.194 274.022 205.261 274.567L204.399 275.078Z" fill="#0A2540"/>
</g>
<path opacity="0.3" d="M365.024 203.38C376.347 203.38 385.527 192.357 385.527 178.759C385.527 165.162 376.347 154.139 365.024 154.139C353.701 154.139 344.521 165.162 344.521 178.759C344.521 192.357 353.701 203.38 365.024 203.38Z" fill="url(#paint1_radial_47_8)"/>
<path d="M402.492 96.6961C402.492 75.6831 385.438 58.6651 364.425 58.7002C343.535 58.7354 326.482 75.8415 326.5 96.7313C326.5 102.416 327.767 107.801 330.002 112.641C334.525 122.408 351.209 157.676 351.209 157.676H377.748C377.748 157.676 394.167 122.813 398.866 112.852C401.172 107.942 402.474 102.469 402.474 96.6961H402.492Z" fill="#2FB4F7"/>
<path d="M351.737 116.618L363.757 157.236" stroke="white" stroke-width="0.387174" stroke-miterlimit="10"/>
<path d="M376.024 115.65L366.89 157.236" stroke="white" stroke-width="0.387174" stroke-miterlimit="10"/>
<path d="M378.91 120.208C378.91 120.208 374.581 114.207 372.909 117.322C371.219 120.454 370.744 119.962 368.826 118.29C366.908 116.6 366.186 116.125 364.972 118.29C363.775 120.454 361.118 119.011 360.167 117.568C359.199 116.125 357.528 115.65 357.035 118.29C356.56 120.93 353.181 114.928 350.541 118.29" stroke="white" stroke-width="0.387174" stroke-miterlimit="10"/>
<path style="mix-blend-mode:screen" opacity="0.26" d="M364.742 58.7178C361.081 63.6102 358.917 69.6994 358.917 76.2814C358.917 92.5075 372.081 105.671 388.307 105.671C393.287 105.671 397.969 104.44 402.069 102.257C402.333 100.445 402.474 98.5967 402.474 96.7136C402.474 75.8238 385.597 58.8586 364.742 58.7354V58.7178Z" fill="url(#paint2_linear_47_8)"/>
<path d="M352.669 167.021H377.361V168.2C377.361 174.149 372.539 178.971 366.59 178.971H363.44C357.492 178.971 352.669 174.149 352.669 168.2V167.021Z" fill="#282F81"/>
<path d="M382.376 156.673C381.196 155.828 379.683 155.599 378.275 155.934C374.879 156.743 370.109 157.254 364.812 157.254C359.515 157.254 354.464 156.708 351.05 155.846C349.835 155.547 348.551 155.687 347.442 156.286C346.474 156.814 345.928 157.394 345.928 157.993C345.928 160.386 354.288 162.322 364.601 162.322C374.914 162.322 383.273 160.386 383.273 157.993C383.273 157.535 382.956 157.078 382.376 156.655V156.673Z" fill="#282F81"/>
<path d="M382.376 160.052C381.196 159.207 379.683 158.978 378.275 159.313C374.879 160.122 370.109 160.633 364.812 160.633C359.515 160.633 354.464 160.087 351.05 159.225C349.835 158.925 348.551 159.066 347.442 159.665C346.474 160.193 345.928 160.773 345.928 161.372C345.928 163.765 354.288 165.701 364.601 165.701C374.914 165.701 383.273 163.765 383.273 161.372C383.273 160.914 382.956 160.457 382.376 160.034V160.052Z" fill="#282F81"/>
<path d="M382.376 163.431C381.196 162.586 379.683 162.357 378.275 162.692C374.879 163.501 370.109 164.011 364.812 164.011C359.515 164.011 354.464 163.466 351.05 162.604C349.835 162.304 348.551 162.445 347.442 163.044C346.474 163.571 345.928 164.152 345.928 164.751C345.928 167.144 354.288 169.08 364.601 169.08C374.914 169.08 383.273 167.144 383.273 164.751C383.273 164.293 382.956 163.835 382.376 163.413V163.431Z" fill="#282F81"/>
<path d="M382.376 166.81C381.196 165.965 379.683 165.736 378.275 166.07C374.879 166.88 370.109 167.39 364.812 167.39C359.515 167.39 354.464 166.845 351.05 165.982C349.835 165.683 348.551 165.824 347.442 166.422C346.474 166.95 345.928 167.531 345.928 168.13C345.928 170.523 354.288 172.459 364.601 172.459C374.914 172.459 383.273 170.523 383.273 168.13C383.273 167.672 382.956 167.214 382.376 166.792V166.81Z" fill="#282F81"/>
<g style="mix-blend-mode:multiply" opacity="0.45">
<path d="M364.601 161.777C354.693 161.777 346.58 159.982 345.964 157.729C345.946 157.817 345.928 157.923 345.928 158.011C345.928 160.404 354.288 162.34 364.601 162.34C374.914 162.34 383.273 160.404 383.273 158.011C383.273 157.923 383.273 157.817 383.238 157.729C382.622 159.982 374.509 161.777 364.601 161.777Z" fill="#282F81"/>
</g>
<g style="mix-blend-mode:multiply" opacity="0.45">
<path d="M364.601 165.12C354.693 165.12 346.58 163.325 345.964 161.073C345.946 161.161 345.928 161.266 345.928 161.354C345.928 163.748 354.288 165.684 364.601 165.684C374.914 165.684 383.273 163.748 383.273 161.354C383.273 161.266 383.273 161.161 383.238 161.073C382.622 163.325 374.509 165.12 364.601 165.12Z" fill="#282F81"/>
</g>
<g style="mix-blend-mode:multiply" opacity="0.45">
<path d="M364.601 168.482C354.693 168.482 346.58 166.687 345.964 164.434C345.946 164.522 345.928 164.628 345.928 164.716C345.928 167.109 354.288 169.045 364.601 169.045C374.914 169.045 383.273 167.109 383.273 164.716C383.273 164.628 383.273 164.522 383.238 164.434C382.622 166.687 374.509 168.482 364.601 168.482Z" fill="#282F81"/>
</g>
<g style="mix-blend-mode:multiply" opacity="0.45">
<path d="M364.601 171.826C354.693 171.826 346.58 170.03 345.964 167.778C345.946 167.866 345.928 167.971 345.928 168.059C345.928 170.453 354.288 172.389 364.601 172.389C374.914 172.389 383.273 170.453 383.273 168.059C383.273 167.971 383.273 167.866 383.238 167.778C382.622 170.03 374.509 171.826 364.601 171.826Z" fill="#282F81"/>
</g>
<path d="M368.931 70.5264C382.993 68.7841 397.406 81.3849 395.734 95.8511C394.238 92.7361 393.094 89.7619 391.282 87.1573C386.231 78.921 377.801 74.0814 368.931 70.5264Z" fill="white"/>
<path d="M184.177 458.51C220.217 458.51 249.434 429.294 249.434 393.254C249.434 357.214 220.217 327.998 184.177 327.998C148.137 327.998 118.921 357.214 118.921 393.254C118.921 429.294 148.137 458.51 184.177 458.51Z" fill="white"/>
<path d="M379.884 334.729C385.478 308.184 368.494 282.131 341.95 276.538C315.406 270.944 289.353 287.928 283.759 314.472C278.165 341.016 295.149 367.069 321.693 372.663C348.237 378.257 374.29 361.273 379.884 334.729Z" fill="white"/>
<path d="M447.126 415.837C483.047 401.376 500.443 360.532 485.981 324.611C471.519 288.691 430.676 271.295 394.755 285.757C358.834 300.219 341.438 341.062 355.9 376.983C370.362 412.904 411.205 430.299 447.126 415.837Z" fill="white"/>
<path d="M481.84 460.318C513.08 437.437 519.856 393.564 496.975 362.324C474.094 331.084 430.221 324.308 398.981 347.189C367.742 370.07 360.965 413.943 383.846 445.183C406.727 476.422 450.6 483.199 481.84 460.318Z" fill="white"/>
<path d="M249.645 503.722C288.368 503.722 319.759 472.331 319.759 433.608C319.759 394.885 288.368 363.494 249.645 363.494C210.923 363.494 179.532 394.885 179.532 433.608C179.532 472.331 210.923 503.722 249.645 503.722Z" fill="white"/>
<path d="M354.886 490.751C393.609 490.751 425 459.36 425 420.638C425 381.915 393.609 350.524 354.886 350.524C316.163 350.524 284.772 381.915 284.772 420.638C284.772 459.36 316.163 490.751 354.886 490.751Z" fill="white"/>
<path d="M249.433 413.352C279.622 413.352 304.095 388.879 304.095 358.69C304.095 328.501 279.622 304.028 249.433 304.028C219.244 304.028 194.771 328.501 194.771 358.69C194.771 388.879 219.244 413.352 249.433 413.352Z" fill="white"/>
<path d="M499.319 400.452C521.528 400.452 539.532 382.447 539.532 360.238C539.532 338.029 521.528 320.025 499.319 320.025C477.109 320.025 459.105 338.029 459.105 360.238C459.105 382.447 477.109 400.452 499.319 400.452Z" fill="white"/>
<path d="M532.018 490.875C563.82 490.875 589.601 465.094 589.601 433.291C589.601 401.489 563.82 375.708 532.018 375.708C500.215 375.708 474.434 401.489 474.434 433.291C474.434 465.094 500.215 490.875 532.018 490.875Z" fill="white"/>
<path d="M336.16 276.908C336.407 276.732 336.653 276.556 336.899 276.38C347.652 269.199 394.747 268.196 395.574 288.224C396.102 301.352 393.216 313.496 393.55 326.659C393.902 340.158 393.902 370.604 393.902 370.604L329.895 367.841C329.895 367.841 330.581 301.88 330.581 301.757C330.581 298.695 327.449 295.598 327.713 292.007C328.118 286.341 331.567 280.339 336.16 276.908Z" fill="#2FB4F7"/>
<path d="M376.938 284.105L385.491 275.781C385.491 275.781 393.199 276.837 404.269 297.604C415.339 318.353 418.454 327.011 420.178 342.586C420.178 342.586 419.492 351.227 411.872 346.053C404.251 340.879 385.579 311.806 385.579 311.806L376.938 284.123V284.105Z" fill="#2FB4F7"/>
<g style="mix-blend-mode:multiply" opacity="0.48">
<path d="M391.122 300.367L393.515 323.598L404.268 338.064C404.268 338.064 403.916 337.026 406.697 336.339L391.122 300.367Z" fill="#EC3686"/>
</g>
<path d="M405.659 334.28C405.659 334.28 388.711 356.067 383.52 370.956C378.152 386.337 384.91 382.377 395.98 374.423C407.049 366.468 423.997 349.52 419.527 337.395C414.846 324.724 405.677 334.297 405.677 334.297L405.659 334.28Z" fill="#2FB4F7"/>
<path d="M345.857 284.105L337.304 275.781C337.304 275.781 329.596 276.837 318.526 297.604C307.457 318.353 304.342 327.011 302.617 342.586C302.617 342.586 303.303 351.227 310.924 346.053C318.526 340.862 339.293 310.416 339.293 310.416L345.857 284.123V284.105Z" fill="#2FB4F7"/>
<g style="mix-blend-mode:multiply" opacity="0.48">
<path d="M332.66 300.367L330.266 323.598L319.514 338.064C319.514 338.064 319.866 337.026 317.085 336.339L332.66 300.367Z" fill="#EC3686"/>
</g>
<path d="M317.155 334.28C317.155 334.28 334.102 356.067 339.294 370.956C344.662 386.337 337.904 382.377 326.834 374.423C315.764 366.468 298.817 349.52 303.287 337.395C307.968 324.724 317.137 334.297 317.137 334.297L317.155 334.28Z" fill="#2FB4F7"/>
<path d="M396.49 332.204H325.549C322.021 332.204 319.161 335.064 319.161 338.592V378.752C319.161 382.281 322.021 385.141 325.549 385.141H396.49C400.018 385.141 402.879 382.281 402.879 378.752V338.592C402.879 335.064 400.018 332.204 396.49 332.204Z" fill="#282F81"/>
<path d="M392.002 404.059C392.002 404.059 400.327 406.065 407.331 406.945C414.335 407.825 428.784 410.94 427.904 421.007C427.024 431.073 412.153 426.885 402.949 422.503C393.762 418.121 384.558 414.002 384.558 414.002L392.002 404.059Z" fill="#635BFF"/>
<path d="M398.32 404.112C398.32 404.112 372.626 392.796 360.359 383.768C348.093 374.757 317.682 351.052 292.674 356.842C264.921 363.283 277.258 389.452 295.472 397.9C311.047 405.115 345.242 406.805 361.186 410.747C377.113 414.689 390.33 418.578 390.33 418.578L398.32 404.112Z" fill="#0A2540"/>
<g style="mix-blend-mode:multiply" opacity="0.4">
<path d="M357.174 381.427C357.174 381.427 331.268 403.461 327.467 404.165L370.602 412.964L395.627 405.819L360.676 383.75L357.174 381.427Z" fill="#4BD9FF"/>
</g>
<path d="M353.76 260.242V278.914L363.792 286.534L373.137 277.189V260.242H353.76Z" fill="#FFA14D"/>
<path d="M387.515 236.202C387.515 251.777 376.902 268.196 363.791 268.196C350.68 268.196 340.068 251.759 340.068 236.202C340.068 220.644 350.68 211.81 363.791 211.81C376.902 211.81 387.515 220.627 387.515 236.202Z" fill="#FFB573"/>
<path d="M383.925 212.936C383.925 212.936 379.244 224.094 367.013 225.167H360.184C360.184 225.167 364.866 219.043 367.382 218.691C367.382 218.691 357.668 222.281 355.873 228.054C355.873 228.054 354.43 225.889 355.521 223.372C356.594 220.856 354.078 218.691 350.839 224.815C347.601 230.94 340.403 224.815 340.403 235.603C340.403 235.603 334.279 226.241 340.051 216.526C345.806 206.812 347.619 205.773 352.282 203.574C358.407 200.687 376.745 197.819 383.943 212.936H383.925Z" fill="#0A2540"/>
<path d="M374.58 214.01C374.58 214.01 372.785 223.003 379.261 226.962C385.738 230.922 385.386 237.751 385.386 237.751C385.386 237.751 391.123 231.679 390.789 227.314C390.067 218.321 386.829 209.328 377.484 207.885C370.656 206.829 374.598 214.01 374.598 214.01H374.58Z" fill="#0A2540"/>
<path d="M383.52 237.399C383.52 232.893 390.789 230.482 391.123 234.636C391.809 242.942 388.694 248.82 384.559 244.667" fill="#FFB573"/>
<path d="M343.483 237.399C343.483 232.893 336.214 230.482 335.88 234.636C335.194 242.942 338.309 248.82 342.462 244.667" fill="#FFB573"/>
<path d="M333.626 404.059C333.626 404.059 325.302 406.065 318.298 406.945C311.293 407.825 296.845 410.94 297.725 421.007C298.605 431.073 313.476 426.885 322.68 422.503C331.866 418.121 341.071 414.002 341.071 414.002L333.626 404.059Z" fill="#635BFF"/>
<path d="M327.308 404.112C327.308 404.112 353.003 392.796 365.269 383.768C377.535 374.757 407.946 351.052 432.954 356.842C460.707 363.283 448.371 389.452 430.156 397.9C414.581 405.115 380.386 406.805 364.442 410.747C348.515 414.689 335.298 418.578 335.298 418.578L327.308 404.112Z" fill="#425466"/>
<path d="M498.863 391.476C500.042 391.476 501.186 391.547 502.312 391.74C500.182 390.508 497.719 389.822 495.079 389.857C487.265 389.963 481.017 396.369 481.123 404.183C481.123 404.218 481.123 404.271 481.123 404.306C483.657 396.932 490.626 391.582 498.863 391.476Z" fill="#E4F1FF"/>
<path d="M442.899 313.778C443.655 314.675 444.307 315.625 444.87 316.611C444.465 314.182 443.427 311.842 441.737 309.818C436.704 303.834 427.781 303.077 421.815 308.093C421.78 308.128 421.745 308.146 421.727 308.181C429.048 305.471 437.584 307.46 442.899 313.778Z" fill="#E4F1FF"/>
<path d="M457.997 341.989C459.106 342.358 460.162 342.816 461.165 343.361C459.564 341.496 457.452 340.035 454.953 339.208C447.544 336.744 439.536 340.739 437.072 348.166C437.072 348.201 437.055 348.254 437.037 348.289C441.859 342.147 450.183 339.384 458.015 341.989H457.997Z" fill="#E4F1FF"/>
<path d="M450.465 389.787C451.644 389.751 452.788 389.822 453.914 389.998C451.767 388.819 449.286 388.167 446.646 388.255C438.832 388.502 432.708 395.031 432.954 402.827C432.954 402.862 432.954 402.915 432.954 402.95C435.365 395.524 442.211 390.051 450.465 389.787Z" fill="#E4F1FF"/>
<path d="M501.556 370.287C502.594 371.994 503.456 373.754 504.143 375.549C504.09 371.379 502.963 367.155 500.623 363.336C493.706 352.002 478.923 348.412 467.59 355.328C467.519 355.364 467.467 355.399 467.414 355.452C480.402 352.777 494.252 358.32 501.556 370.287Z" fill="#E4F1FF"/>
<path d="M352.369 272.35C352.369 272.35 360.676 280.304 374.156 273.036C378.116 270.907 375.195 290.336 375.195 290.336L360.324 300.367L344.854 290.265L352.369 272.35Z" fill="#2FB4F7"/>
<path d="M253.799 426.41C273.705 426.41 289.841 410.273 289.841 390.368C289.841 370.462 273.705 354.325 253.799 354.325C233.893 354.325 217.757 370.462 217.757 390.368C217.757 410.273 233.893 426.41 253.799 426.41Z" fill="white"/>
<path d="M464.527 449.394C484.433 449.394 500.57 433.257 500.57 413.351C500.57 393.446 484.433 377.309 464.527 377.309C444.622 377.309 428.485 393.446 428.485 413.351C428.485 433.257 444.622 449.394 464.527 449.394Z" fill="white"/>
<path d="M306.585 432.69C308.609 420.277 300.187 408.574 287.774 406.55C275.36 404.526 263.657 412.948 261.633 425.361C259.609 437.775 268.031 449.478 280.445 451.502C292.858 453.526 304.561 445.104 306.585 432.69Z" fill="white"/>
<path d="M473.431 378.814C476.338 366.577 468.774 354.301 456.537 351.395C444.3 348.489 432.024 356.053 429.118 368.29C426.212 380.526 433.776 392.802 446.013 395.708C458.25 398.615 470.525 391.051 473.431 378.814Z" fill="white"/>
<path d="M294.982 357.458C298.678 341.923 289.079 326.333 273.544 322.637C258.008 318.942 242.418 328.54 238.722 344.076C235.027 359.612 244.625 375.202 260.161 378.897C275.697 382.593 291.287 372.994 294.982 357.458Z" fill="white"/>
<path d="M256.966 332.432C258.831 332.415 260.662 332.555 262.421 332.854C259.043 330.901 255.118 329.81 250.947 329.863C238.557 330.021 228.632 340.193 228.808 352.583C228.808 352.653 228.808 352.724 228.808 352.776C232.838 341.056 243.872 332.573 256.966 332.414V332.432Z" fill="#E4F1FF"/>
<path d="M238.258 394.257C239.595 394.257 240.915 394.345 242.2 394.556C239.771 393.148 236.938 392.356 233.911 392.409C224.971 392.532 217.808 399.871 217.931 408.811C217.931 408.864 217.931 408.917 217.931 408.952C220.835 400.505 228.807 394.38 238.258 394.257Z" fill="#E4F1FF"/>
<path d="M282.502 377.908C283.206 379.051 283.787 380.248 284.244 381.462C284.209 378.647 283.453 375.813 281.869 373.244C277.205 365.606 267.244 363.195 259.606 367.841C259.571 367.859 259.518 367.894 259.483 367.911C268.23 366.099 277.557 369.83 282.485 377.908H282.502Z" fill="#E4F1FF"/>
<path d="M225.781 384.489C226.96 386.355 227.946 388.291 228.755 390.279C228.614 385.651 227.277 381.005 224.619 376.799C216.735 364.356 200.263 360.66 187.82 368.527C187.75 368.562 187.68 368.615 187.627 368.65C201.987 365.43 217.457 371.325 225.781 384.472V384.489Z" fill="#E4F1FF"/>
<path d="M275.885 439.803C276.941 441.527 277.821 443.322 278.507 445.135C278.455 440.894 277.311 436.635 274.935 432.745C267.931 421.253 252.919 417.61 241.427 424.615C241.356 424.65 241.304 424.685 241.233 424.738C254.415 422.01 268.459 427.642 275.868 439.785L275.885 439.803Z" fill="#E4F1FF"/>
<path opacity="0.19" d="M238.362 234.86C255.873 232.985 268.55 217.27 266.675 199.758C264.801 182.246 249.085 169.57 231.573 171.444C214.061 173.319 201.385 189.034 203.259 206.546C205.134 224.058 220.85 236.735 238.362 234.86Z" fill="url(#paint3_linear_47_8)"/>
<path opacity="0.19" d="M475.761 261.407C488.004 248.746 487.666 228.558 475.006 216.315C462.345 204.072 442.157 204.41 429.914 217.071C417.671 229.731 418.009 249.919 430.67 262.162C443.33 274.405 463.518 274.067 475.761 261.407Z" fill="url(#paint4_linear_47_8)"/>
<path opacity="0.19" d="M532.585 307.48C533.307 295.8 524.425 285.746 512.745 285.023C501.065 284.301 491.01 293.184 490.288 304.864C489.565 316.544 498.448 326.598 510.128 327.321C521.808 328.043 531.862 319.16 532.585 307.48Z" fill="url(#paint5_linear_47_8)"/>
<path opacity="0.19" d="M481.564 127.019C481.74 140.799 470.723 152.115 456.925 152.291C443.145 152.467 431.829 141.45 431.653 127.652C431.477 113.873 442.494 102.556 456.292 102.38C470.072 102.205 481.388 113.221 481.564 127.019Z" fill="url(#paint6_linear_47_8)"/>
<path opacity="0.19" d="M539.488 240.869C553.18 239.292 563.001 226.915 561.424 213.223C559.847 199.531 547.469 189.71 533.777 191.287C520.086 192.864 510.264 205.242 511.841 218.933C513.418 232.625 525.796 242.446 539.488 240.869Z" fill="url(#paint7_linear_47_8)"/>
<path opacity="0.19" d="M518.582 136.883C523.85 131.323 523.614 122.546 518.055 117.277C512.496 112.009 503.718 112.245 498.45 117.805C493.182 123.364 493.418 132.141 498.977 137.41C504.537 142.678 513.314 142.442 518.582 136.883Z" fill="url(#paint8_linear_47_8)"/>
<path opacity="0.19" d="M278.845 292.514C293.502 292.468 305.347 280.549 305.301 265.892C305.255 251.235 293.336 239.39 278.679 239.436C264.022 239.482 252.177 251.401 252.223 266.058C252.269 280.715 264.188 292.56 278.845 292.514Z" fill="url(#paint9_linear_47_8)"/>
<path opacity="0.19" d="M167.038 312.334C181.695 312.334 193.577 300.452 193.577 285.795C193.577 271.138 181.695 259.256 167.038 259.256C152.381 259.256 140.499 271.138 140.499 285.795C140.499 300.452 152.381 312.334 167.038 312.334Z" fill="url(#paint10_linear_47_8)"/>
<path opacity="0.19" d="M276.449 177.135C282.297 166.374 278.314 152.911 267.553 147.064C256.793 141.216 243.329 145.199 237.482 155.96C231.635 166.72 235.618 180.184 246.378 186.031C257.139 191.878 270.602 187.895 276.449 177.135Z" fill="url(#paint11_linear_47_8)"/>
</g>
<defs>
<filter id="filter0_d_47_8" x="0" y="0" width="704" height="482" filterUnits="userSpaceOnUse" color-interpolation-filters="sRGB">
<feFlood flood-opacity="0" result="BackgroundImageFix"/>
<feColorMatrix in="SourceAlpha" type="matrix" values="0 0 0 0 0 0 0 0 0 0 0 0 0 0 0 0 0 0 127 0" result="hardAlpha"/>
<feOffset dx="4" dy="8"/>
<feGaussianBlur stdDeviation="8"/>
<feComposite in2="hardAlpha" operator="out"/>
<feColorMatrix type="matrix" values="0 0 0 0 0.388235 0 0 0 0 0.356863 0 0 0 0 1 0 0 0 0.1 0"/>
<feBlend mode="normal" in2="BackgroundImageFix" result="effect1_dropShadow_47_8"/>
<feBlend mode="normal" in="SourceGraphic" in2="effect1_dropShadow_47_8" result="shape"/>
</filter>
<linearGradient id="paint0_linear_47_8" x1="348" y1="8" x2="348" y2="458" gradientUnits="userSpaceOnUse">
<stop offset="0.5" stop-color="#DEEAF6"/>
<stop offset="1" stop-color="white"/>
</linearGradient>
<radialGradient id="paint1_radial_47_8" cx="0" cy="0" r="1" gradientUnits="userSpaceOnUse" gradientTransform="translate(367.294 176.545) scale(20.573 24.6876)">
<stop offset="0.03"/>
<stop offset="0.84" stop-color="#3F236F" stop-opacity="0"/>
</radialGradient>
<linearGradient id="paint2_linear_47_8" x1="388.518" y1="67.306" x2="374.14" y2="101.325" gradientUnits="userSpaceOnUse">
<stop offset="0.02" stop-color="#F9F424"/>
<stop offset="0.4" stop-color="#F4CE33"/>
<stop offset="0.98" stop-color="#ED984A"/>
</linearGradient>
<linearGradient id="paint3_linear_47_8" x1="203.084" y1="203.139" x2="266.862" y2="203.139" gradientUnits="userSpaceOnUse">
<stop offset="0.05" stop-color="#E4F1FF"/>
<stop offset="1" stop-color="#E4F1FF"/>
</linearGradient>
<linearGradient id="paint4_linear_47_8" x1="420.943" y1="239.255" x2="484.721" y2="239.255" gradientUnits="userSpaceOnUse">
<stop offset="0.05" stop-color="#E4F1FF"/>
<stop offset="1" stop-color="#E4F1FF"/>
</linearGradient>
<linearGradient id="paint5_linear_47_8" x1="490.212" y1="306.206" x2="532.607" y2="306.206" gradientUnits="userSpaceOnUse">
<stop offset="0.05" stop-color="#E4F1FF"/>
<stop offset="1" stop-color="#E4F1FF"/>
</linearGradient>
<linearGradient id="paint6_linear_47_8" x1="431.653" y1="127.336" x2="481.564" y2="127.336" gradientUnits="userSpaceOnUse">
<stop offset="0.05" stop-color="#E4F1FF"/>
<stop offset="1" stop-color="#E4F1FF"/>
</linearGradient>
<linearGradient id="paint7_linear_47_8" x1="511.689" y1="216.059" x2="561.599" y2="216.059" gradientUnits="userSpaceOnUse">
<stop offset="0.05" stop-color="#E4F1FF"/>
<stop offset="1" stop-color="#E4F1FF"/>
</linearGradient>
<linearGradient id="paint8_linear_47_8" x1="494.648" y1="127.326" x2="522.384" y2="127.326" gradientUnits="userSpaceOnUse">
<stop offset="0.05" stop-color="#E4F1FF"/>
<stop offset="1" stop-color="#E4F1FF"/>
</linearGradient>
<linearGradient id="paint9_linear_47_8" x1="252.214" y1="265.977" x2="305.292" y2="265.977" gradientUnits="userSpaceOnUse">
<stop offset="0.05" stop-color="#E4F1FF"/>
<stop offset="1" stop-color="#E4F1FF"/>
</linearGradient>
<linearGradient id="paint10_linear_47_8" x1="140.499" y1="285.795" x2="193.577" y2="285.795" gradientUnits="userSpaceOnUse">
<stop offset="0.05" stop-color="#E4F1FF"/>
<stop offset="1" stop-color="#E4F1FF"/>
</linearGradient>
<linearGradient id="paint11_linear_47_8" x1="234.765" y1="166.559" x2="279.131" y2="166.559" gradientUnits="userSpaceOnUse">
<stop offset="0.05" stop-color="#E4F1FF"/>
<stop offset="1" stop-color="#E4F1FF"/>
</linearGradient>
<clipPath id="clip0_47_8">
<rect width="510" height="399" fill="white" transform="translate(93 48)"/>
</clipPath>
</defs>
</svg>
