<svg width="672" height="450" viewBox="0 0 672 450" fill="none" xmlns="http://www.w3.org/2000/svg">
<g clip-path="url(#clip0_50_16)">
<rect x="5" y="5" width="662" height="440" rx="19" fill="url(#paint0_linear_50_16)" stroke="white" stroke-width="10"/>
<path opacity="0.5" d="M523.377 477.015H797.633V339.78C785.42 340.957 773.461 344.69 762.853 350.803C741.998 362.829 726.614 383.951 721.558 407.495C714 398.064 699.312 395.322 688.837 401.368C678.35 407.415 673.414 421.527 677.815 432.791C670.912 425.995 656.893 431.025 655.876 440.657C632.172 421.434 597.66 416.551 569.554 428.47C548.405 437.419 531.55 455.585 523.377 477.002V477.015Z" fill="url(#paint1_linear_50_16)"/>
<g style="mix-blend-mode:screen" opacity="0.3">
<path d="M666.431 408.793C666.083 413.22 663.782 417.18 660.411 420.203C656.144 424.029 647.57 428.229 643.155 422.451C640.841 419.414 641.51 415.026 643.155 411.588C645.871 405.903 651.021 401.435 656.987 399.442C662.231 397.69 665.843 400.82 666.404 406.023C666.498 406.96 666.511 407.883 666.445 408.793H666.431Z" fill="#F0EEF4"/>
</g>
<g style="mix-blend-mode:screen" opacity="0.3">
<path d="M258.606 422.611C257.87 424.591 256.292 426.102 254.352 427.052C251.904 428.243 247.423 429.059 246.152 425.835C245.483 424.149 246.366 422.223 247.57 420.859C249.55 418.598 252.493 417.233 255.489 417.1C258.124 416.979 259.368 418.892 258.94 421.34C258.86 421.782 258.753 422.21 258.593 422.611H258.606Z" fill="#F0EEF4"/>
</g>
<g style="mix-blend-mode:screen" opacity="0.3">
<path d="M62.9391 291.101C59.421 290.7 56.3442 288.747 54.0434 285.978C51.1272 282.473 48.0237 275.531 52.7458 272.186C55.2205 270.434 58.6986 271.089 61.3874 272.494C65.8419 274.808 69.2397 279.035 70.6442 283.851C71.8883 288.065 69.2932 290.861 65.1329 291.142C64.3838 291.195 63.6481 291.182 62.9257 291.088L62.9391 291.101Z" fill="#F0EEF4"/>
</g>
<g style="mix-blend-mode:screen" opacity="0.3">
<path d="M684.036 394.252C681.989 396.178 679.234 397.048 676.371 397.021C672.759 396.994 666.954 395.309 667.355 390.734C667.555 388.339 669.736 386.573 671.97 385.65C675.662 384.139 679.956 384.246 683.595 385.851C686.778 387.269 687.153 390.266 685.186 392.928C684.839 393.409 684.451 393.851 684.023 394.238L684.036 394.252Z" fill="#F0EEF4"/>
</g>
<g style="mix-blend-mode:screen" opacity="0.3">
<path d="M282.724 428.524C279.955 428.965 277.186 428.136 274.832 426.517C271.849 424.47 267.996 419.829 270.899 416.257C272.411 414.384 275.207 414.143 277.574 414.638C281.467 415.454 284.972 417.956 287.085 421.327C288.931 424.283 287.554 426.972 284.437 428.082C283.875 428.283 283.313 428.43 282.738 428.51L282.724 428.524Z" fill="#F0EEF4"/>
</g>
<g style="mix-blend-mode:screen" opacity="0.3">
<path d="M80.9331 410.813C79.2609 411.08 77.5888 410.585 76.1708 409.595C74.3783 408.351 72.0508 405.555 73.7898 403.402C74.7128 402.278 76.3983 402.131 77.8163 402.425C80.1706 402.92 82.2842 404.432 83.555 406.465C84.6653 408.258 83.8359 409.876 81.9497 410.545C81.6153 410.665 81.2675 410.759 80.9331 410.813Z" fill="#F0EEF4"/>
</g>
<g style="mix-blend-mode:screen" opacity="0.3">
<path d="M58.0973 399.897C55.9302 398.118 54.7129 395.482 54.3785 392.647C53.9504 389.062 54.8734 383.095 59.4618 382.908C61.8696 382.814 63.9029 384.741 65.0801 386.841C67.0465 390.306 67.488 394.586 66.351 398.399C65.3611 401.743 62.4315 402.479 59.542 400.887C59.0203 400.593 58.5387 400.271 58.0973 399.91V399.897Z" fill="#F0EEF4"/>
</g>
<path d="M0.014193 284.721V477.016H330.48C310.308 450.101 275.648 433.674 242.058 437.928C235.049 422.37 213.003 416.057 198.797 425.501C203.653 399.135 192.443 370.454 170.986 354.388C149.543 338.296 118.869 335.594 94.9243 347.673C96.155 340.062 91.8476 331.902 84.8915 328.584C77.9221 325.293 68.8791 327.126 63.7825 332.891C49.643 309.495 26.1529 292.533 0.014193 284.721Z" fill="url(#paint2_linear_50_16)"/>
<path d="M252.478 477.015H635.275C619.637 455.304 593.619 440.964 566.731 440.657C566.143 427.841 557.113 415.802 544.98 411.655C532.82 407.482 518.333 411.455 509.999 421.233C509.745 410.772 494.455 404.606 487.017 411.976C479.379 382.681 449.04 361.117 418.861 363.538C388.696 365.959 362.143 392.058 359.24 422.183C356.511 415.04 347.977 410.652 340.579 412.605C333.182 414.558 327.898 422.544 329.035 430.116C306.749 428.698 284.008 437.406 268.343 453.338C261.641 460.16 256.29 468.253 252.491 477.029L252.478 477.015Z" fill="url(#paint3_linear_50_16)"/>
<path d="M0.0135608 331.714V477.015H184.991C176.537 464.842 165.1 454.729 151.856 448.094C130.159 437.205 103.926 435.747 81.1587 444.161C83.3392 435.613 80.7306 426.009 74.5371 419.721C68.3569 413.434 58.8057 410.679 50.2042 412.725C52.3847 385.811 39.944 358.134 18.3535 341.907C12.7485 337.68 6.55492 334.269 0.000170651 331.714H0.0135608Z" fill="url(#paint4_linear_50_16)"/>
<g style="mix-blend-mode:screen" opacity="0.3">
<path d="M0.0119232 302.097V477.029H386.113C376.923 462.983 362.075 452.589 345.594 449.178C325.141 444.977 302.761 451.626 287.966 466.354C282.682 455.585 265.372 453.793 257.988 463.224C252.062 453.151 241.387 446.047 229.829 444.482C218.258 442.904 206.072 446.904 197.698 455.023C195.745 432.416 173.873 413.381 151.199 414.611C156.764 409.113 157.607 400.418 156.63 392.646C155.64 384.888 153.179 377.276 153.42 369.464C153.941 352.689 176.321 339.887 193.069 338.991C191.103 329.212 182.341 315.314 176.736 307.087C170.877 320.624 150.771 323.367 136.364 320.277C121.957 317.2 108.553 309.642 93.8652 308.371C73.6258 306.619 52.8646 318.364 43.9688 336.637C32.0231 322.109 16.8804 310.418 0.0253133 302.124L0.0119232 302.097Z" fill="#F0EEF4"/>
</g>
<path d="M212.398 260.053C212.398 260.053 192.841 256.482 189.336 257.485C185.831 258.488 142.931 287.931 143.252 289.71C143.573 291.489 144.295 292.974 146.369 293.71C148.429 294.446 181.938 287.168 181.938 287.168L210.592 274.835L212.411 260.067L212.398 260.053Z" fill="url(#paint5_linear_50_16)"/>
<path d="M252.556 339.326C252.556 339.326 244.315 357.425 241.493 359.726C238.67 362.027 189.991 380.433 188.72 379.149C187.436 377.865 186.647 376.42 187.222 374.32C187.797 372.207 213.04 348.797 213.04 348.797L239.406 332.396L252.556 339.339V339.326Z" fill="url(#paint6_linear_50_16)"/>
<path d="M193.35 294.553L214.164 335.808C215.422 338.309 214.699 341.346 212.439 343.004L195.249 355.606L166.194 298.017L186.541 291.677C189.216 290.847 192.092 292.065 193.35 294.566V294.553Z" fill="url(#paint7_linear_50_16)"/>
<path d="M181.925 287.155L184.506 292.305H184.533L209.869 342.523L210.11 343.004L213.026 348.797C213.026 348.797 214.016 348.757 215.969 348.556C215.996 348.569 216.009 348.569 216.036 348.556C220.491 348.034 229.908 346.656 244.222 342.857C246.389 342.269 248.676 341.64 251.071 340.944C252.074 340.65 253.104 340.356 254.147 340.035C259.739 338.363 265.919 336.343 272.634 333.962C274.36 333.36 276.139 332.717 277.945 332.035C280.955 330.938 284.072 329.761 287.282 328.504C289.596 327.607 291.978 326.644 294.412 325.654C308.191 320.036 323.695 313.053 340.897 304.358C366.367 291.516 385.644 276.427 400.171 261.618C402.258 259.492 404.264 257.365 406.137 255.264C408.92 252.228 411.448 249.191 413.829 246.222C430.229 225.581 437.707 207.361 440.516 199.201C440.971 197.93 440.837 196.579 440.289 195.469H440.262V195.456C439.714 194.345 438.71 193.476 437.426 193.075C429.159 190.479 410.097 185.677 383.744 186.6C379.932 186.761 375.999 186.975 371.892 187.389C369.069 187.657 366.167 188.005 363.224 188.419C342.677 191.309 319.079 197.877 293.636 210.719C209.227 253.325 181.898 287.195 181.898 287.195L181.925 287.155Z" fill="#F1EDF9"/>
<path d="M255.954 288.814C255.954 288.814 243.5 281.269 234.056 286.032C227.836 289.175 191.41 313.562 167.318 329.815C164.469 331.741 167.077 336.891 170.315 335.754C197.697 326.029 238.966 311.221 245.186 308.09C254.63 303.328 255.968 288.814 255.968 288.814H255.954Z" fill="url(#paint8_linear_50_16)"/>
<path d="M402.966 214.264C398.485 205.381 396.131 195.857 396.077 186.533C416.063 187.162 430.537 190.854 437.426 193.034C440.021 193.837 441.425 196.62 440.529 199.188C438.188 206.024 432.556 219.855 421.186 236.309C413.722 230.731 407.448 223.186 402.966 214.277V214.264Z" fill="url(#paint9_linear_50_16)"/>
<path d="M413.841 246.195C404.544 240.469 396.331 231.667 390.686 220.471C385.041 209.301 382.847 197.462 383.757 186.573C386.512 186.479 389.174 186.453 391.729 186.466C391.756 196.512 394.271 206.706 399.073 216.23C403.889 225.781 410.604 233.874 418.657 239.841C417.146 241.914 415.54 244.041 413.828 246.195H413.841Z" fill="url(#paint10_linear_50_16)"/>
<g style="mix-blend-mode:screen" opacity="0.4">
<path d="M181.925 287.155L184.507 292.305H184.534C322.732 181.664 440.302 195.442 440.302 195.442H440.276C439.727 194.305 438.724 193.449 437.44 193.048C429.173 190.453 410.11 185.65 383.758 186.573C379.945 186.734 376.012 186.948 371.906 187.362C369.083 187.63 366.18 187.978 363.237 188.392C342.69 191.282 319.093 197.85 293.65 210.692C209.241 253.298 181.912 287.169 181.912 287.169L181.925 287.155Z" fill="#F0EEF4"/>
</g>
<g style="mix-blend-mode:multiply">
<path d="M209.87 342.509L210.11 342.991L213.027 348.783C213.027 348.783 214.016 348.743 215.969 348.542C215.996 348.556 216.01 348.556 216.036 348.542C220.518 348.047 229.962 346.656 244.222 342.844C246.389 342.255 248.676 341.627 251.071 340.931C252.074 340.637 253.104 340.342 254.148 340.021C259.739 338.349 265.919 336.329 272.635 333.948C274.36 333.346 276.139 332.704 277.945 332.022C280.955 330.925 284.072 329.748 287.282 328.49C289.597 327.594 291.978 326.631 294.412 325.641C308.191 320.023 323.695 313.04 340.898 304.345C366.368 291.503 385.644 276.413 400.171 261.605C402.258 259.478 404.265 257.351 406.137 255.251C408.92 252.214 411.448 249.178 413.829 246.208C430.229 225.567 437.707 207.348 440.516 199.188C440.971 197.917 440.837 196.566 440.289 195.456H440.262C440.262 195.456 391.837 295.904 209.856 342.536L209.87 342.509Z" fill="#D4D1DB"/>
</g>
<path d="M361.338 271.116C345.553 279.089 326.304 272.748 318.358 256.976C311.081 242.569 315.736 225.313 328.578 216.35C329.809 215.481 331.12 214.692 332.524 213.983C348.296 206.023 367.559 212.351 375.518 228.136C380.347 237.7 379.906 248.536 375.29 257.364C372.307 263.103 367.545 267.972 361.338 271.103V271.116Z" fill="url(#paint11_linear_50_16)"/>
<path d="M358.249 265.003C345.835 271.263 330.719 266.287 324.458 253.887C318.746 242.556 322.398 228.992 332.485 221.956C333.461 221.273 334.478 220.645 335.588 220.096C347.975 213.849 363.118 218.812 369.379 231.226C373.178 238.744 372.83 247.251 369.205 254.208C366.864 258.716 363.118 262.555 358.249 265.003Z" fill="#0064AB"/>
<path d="M366.14 256.04C353.726 262.3 338.597 257.311 332.35 244.91C328.564 237.406 328.885 228.885 332.497 221.969C333.474 221.286 334.49 220.658 335.601 220.109C347.988 213.862 363.131 218.825 369.391 231.239C373.19 238.757 372.842 247.265 369.217 254.221C368.241 254.903 367.224 255.505 366.14 256.053V256.04Z" fill="#0088BD"/>
<path d="M341.54 227.668C340.496 230.223 341.232 233.179 342.476 235.64C344.402 239.453 347.532 242.636 351.318 244.616C354.315 246.181 357.846 246.984 361.124 246.141C364.401 245.298 367.29 242.543 367.638 239.172C368.695 228.845 346.609 215.2 341.54 227.668Z" fill="#00B0DA"/>
<path d="M274.695 309.789L285.665 309.254C285.838 310.137 286.507 313.414 287.497 314.685C288.728 316.25 293.851 319.715 295.216 320.758C296.125 321.454 295.564 322.792 295.564 322.792L271.886 317.24C271.886 317.24 273.264 312.424 274.682 309.802L274.695 309.789Z" fill="#390280"/>
<path d="M210.406 237.406C213.683 244.242 218.379 250.984 226.231 251.88C244.558 253.993 267.727 249.82 267.727 249.82L272.97 311.113L286.869 309.776L287.15 309.736C287.15 309.736 287.177 233.848 284.582 232.497C282.722 231.52 266.67 230.075 257.507 230.45H257.426C253.453 230.637 250.965 228.684 250.965 228.684L208.413 230.651C208.721 233.045 209.416 235.319 210.406 237.406Z" fill="#0A2540"/>
<path d="M285.665 309.254L286.869 309.789L287.15 309.749C287.15 309.749 287.177 233.861 284.582 232.51C282.722 231.533 266.67 230.088 257.507 230.463C259.353 230.985 280.02 236.563 280.528 236.937C281.037 237.366 285.665 309.254 285.665 309.254Z" fill="#425466"/>
<path d="M210.406 237.406C226.097 237.58 249.56 232.349 257.439 230.476C253.6 229.42 250.978 228.697 250.978 228.697L208.426 230.664C208.733 233.058 209.429 235.332 210.419 237.419L210.406 237.406Z" fill="#0064AB"/>
<path d="M240.103 151.632L244.009 166.789L245.079 170.949L245.601 173.009C245.601 173.009 275.338 179.524 281.545 177.383C287.779 175.256 308.7 136.262 308.7 136.262L306.038 134.817L304.139 133.761L297.637 130.202L295.39 128.972L277.251 159.592L244.517 152.582L240.103 151.632Z" fill="#01172E"/>
<path d="M206.112 235.092L235.795 232.403L237.093 232.282L257.372 230.45C257.372 230.45 252.904 191.83 250.336 170.654C248.958 159.27 244.209 154.04 240.103 151.632C239.166 151.084 238.257 150.682 237.441 150.388C235.166 149.572 233.521 149.585 233.521 149.585L223.247 150.482C222.338 150.696 221.482 150.937 220.666 151.177C220.05 151.378 219.462 151.579 218.9 151.779C217.107 152.448 208.386 156.582 207.583 157.371C204.6 162.508 203.61 171.671 203.61 171.671L204.399 191.496L204.56 195.576L206.125 235.092H206.112Z" fill="#0A2540"/>
<path d="M219.555 142.134L224.344 152.488L234.872 151.217L232.665 144.502L219.555 142.134Z" fill="#FF9D46"/>
<path d="M234.097 121.199L238.11 144.542L223.756 146.575L218.419 141.894L214.044 127.165L234.097 121.199Z" fill="#FFB573"/>
<path d="M222.258 137.613C222.258 137.613 217.335 129.787 214.285 134.643C212.158 138.041 218.419 141.894 218.419 141.894L222.258 137.613Z" fill="#FFB573"/>
<path d="M234.872 125.399C234.912 125.64 239.621 135.593 239.621 135.593L234.738 137.037L233.682 127.901L234.872 125.399Z" fill="#FFB573"/>
<path d="M229.388 108.411C230.9 109.374 231.756 110.458 232.237 111.501C232.866 109.655 232.679 107.715 232.679 107.715C239.622 111.046 237.053 118.818 237.053 118.818C237.147 122.858 217.576 128.209 217.576 128.209L219.382 134.269C217.135 131.848 214.299 134.643 214.299 134.643L209.537 127.58C211.958 124.918 215.449 122.296 218.499 120.25C223.021 117.226 226.766 113.173 229.388 108.398V108.411Z" fill="#0A2540"/>
<path d="M232.049 189.984L237.427 150.375C235.153 149.559 233.507 149.572 233.507 149.572L228.732 149.987L223.234 150.469C222.337 150.683 221.468 150.923 220.652 151.178L232.036 189.984H232.049Z" fill="#F1EDF9"/>
<path d="M244.277 172.046L239.782 167.631L245.708 165.758L240.103 151.632C239.167 151.084 238.257 150.669 237.441 150.388L232.063 189.998L244.29 172.059L244.277 172.046Z" fill="#A6A4D2"/>
<path d="M222.231 170.587L218.124 174.801L232.05 189.984L220.666 151.177C220.051 151.365 219.462 151.565 218.9 151.779L216.144 168.501L222.244 170.587H222.231Z" fill="#A6A4D2"/>
<path d="M233.522 149.572L228.746 149.987L232.973 157.532L237.441 150.375C235.167 149.559 233.522 149.572 233.522 149.572Z" fill="#F1EDF9"/>
<path d="M220.667 151.178L225.148 158.12L228.747 150L223.249 150.482C222.353 150.696 221.483 150.937 220.667 151.191V151.178Z" fill="#F1EDF9"/>
<path d="M235.795 232.403L237.093 232.283L234.779 193.69L230.658 186.172L229.508 186.814L233.494 194.064L235.795 232.403Z" fill="#A6A4D2"/>
<path d="M229.642 204.913C229.843 205.555 230.538 205.916 231.18 205.715C231.822 205.515 232.184 204.819 231.983 204.177C231.782 203.535 231.087 203.174 230.445 203.374C229.802 203.575 229.441 204.271 229.642 204.913Z" fill="#0064AB"/>
<path d="M230.497 212.966C230.698 213.608 231.393 213.969 232.035 213.769C232.678 213.568 233.039 212.872 232.838 212.23C232.637 211.588 231.942 211.227 231.3 211.428C230.658 211.628 230.296 212.324 230.497 212.966Z" fill="#0064AB"/>
<path d="M303.618 123.621L309.651 130.256L306.039 135.192L300.287 132.316L301.156 124.33L303.618 123.621Z" fill="#FF9D46"/>
<path d="M323.455 91.0209L339.99 62.5813C327.161 55.7858 310.373 56.6285 298.213 64.5879C292.26 68.4806 287.404 73.8849 281.438 77.7509C273.559 82.8475 263.847 85.0548 254.537 83.8374C259.834 86.9677 265.145 90.1113 270.87 92.372C276.596 94.6327 282.776 95.9704 288.889 95.3417C295.029 94.713 300.781 92.1713 306.721 90.4992C312.66 88.8271 317.984 88.1315 323.455 91.0075V91.0209Z" fill="url(#paint12_linear_50_16)"/>
<path d="M342.825 64.2269L225.656 265.725L222.981 263.866L339.99 62.5815L342.825 64.2269Z" fill="#F0EEF4"/>
<path d="M207.57 157.358L207.329 166.521L209.884 179.911L213.001 189.396L243.809 206.639L242.752 210.09L240.411 218.29C240.411 218.29 204.774 206.384 199.798 202.09C197.163 199.816 196.066 185.316 194.554 174.32C193.886 169.424 201.283 160.408 207.57 157.344V157.358Z" fill="#01172E"/>
<path d="M297.505 128.129L301.237 121.387L311.55 121.574C311.55 121.574 312.166 123.072 310.507 123.741C308.835 124.41 305.303 124.758 305.303 124.758C305.303 124.758 302.053 132.142 299.123 131.326C296.194 130.523 297.505 128.129 297.505 128.129Z" fill="#FFB573"/>
<path d="M310.212 124.771C310.212 124.771 311.429 126.39 311.041 127.5C310.666 128.61 304.754 129.145 304.754 129.145L304.192 127.767C304.192 127.767 308.566 124.009 310.212 124.771Z" fill="#FFB573"/>
<path d="M309.797 122.176C309.797 122.176 311.015 123.794 310.627 124.905C310.252 126.015 304.34 126.55 304.34 126.55L303.778 125.172C303.778 125.172 308.152 121.413 309.797 122.176Z" fill="#FFB573"/>
<path d="M310.305 127.594C310.305 127.594 311.388 129.038 311.041 130.028C310.693 131.018 305.436 131.5 305.436 131.5L304.941 130.269C304.941 130.269 308.833 126.925 310.291 127.607L310.305 127.594Z" fill="#FFB573"/>
<path d="M310.05 130.51C310.05 130.51 310.759 131.874 310.331 132.65C309.917 133.426 305.422 133.105 305.422 133.105L305.181 131.995C305.181 131.995 308.913 129.72 310.05 130.496V130.51Z" fill="#FFB573"/>
<path d="M242.751 210.103L248.824 210.478C248.824 210.478 256.141 215.588 256.221 216.578C256.302 217.568 254.844 219.213 254.603 219.28C254.362 219.347 253.225 219.32 253.225 219.32C253.225 219.32 252.583 220.684 252.101 220.845C251.62 221.005 250.322 221.246 250.322 221.246C250.322 221.246 249.493 222.036 249.212 222.116C248.931 222.209 247.406 222.276 247.112 222.183C246.817 222.089 243.567 218.691 243.446 218.143L240.985 216.176L242.764 210.09L242.751 210.103Z" fill="#FFB573"/>
<path d="M203.195 189.075C206.861 184.259 211.395 180.112 216.505 176.888C219.836 174.788 223.488 173.009 226.03 169.999C229.294 166.147 230.217 160.488 228.344 155.793L226.899 154.161L228.745 150L230.926 153.893L229.976 155.793C231.287 159.966 232.625 164.595 231.595 168.835C230.632 172.795 227.929 176.126 224.813 178.748C221.696 181.37 218.151 183.403 214.807 185.744C211.476 188.085 206.499 194.278 206.593 194.225L201.791 194.707L203.195 189.075Z" fill="#0A2540"/>
<g style="mix-blend-mode:screen">
<path d="M143.854 154.843C136.836 154.843 131.146 149.153 131.146 142.134C131.146 135.116 136.836 129.426 143.854 129.426C150.873 129.426 156.562 135.116 156.562 142.134C156.562 149.153 150.873 154.843 143.854 154.843Z" fill="#F0EEF4"/>
</g>
<path d="M138.624 137.011C139.387 136.235 141.514 137.038 143.815 138.844C146.075 137.011 148.202 136.155 148.978 136.918C149.754 137.68 148.952 139.807 147.146 142.108C148.978 144.369 149.834 146.496 149.072 147.271C148.309 148.047 146.182 147.245 143.882 145.439C141.621 147.271 139.494 148.128 138.718 147.365C137.942 146.603 138.745 144.476 140.551 142.175C138.718 139.914 137.862 137.787 138.624 137.011Z" fill="#FFE48F"/>
<g style="mix-blend-mode:screen">
<path d="M271.071 395.603C264.053 395.603 258.363 389.913 258.363 382.895C258.363 375.876 264.053 370.187 271.071 370.187C278.09 370.187 283.779 375.876 283.779 382.895C283.779 389.913 278.09 395.603 271.071 395.603Z" fill="#F0EEF4"/>
</g>
<path d="M265.841 377.771C266.604 376.996 268.731 377.798 271.032 379.604C273.292 377.771 275.419 376.915 276.195 377.678C276.971 378.44 276.168 380.567 274.362 382.868C276.195 385.129 277.051 387.256 276.289 388.032C275.526 388.808 273.399 388.005 271.098 386.199C268.838 388.032 266.711 388.888 265.935 388.125C265.159 387.363 265.962 385.236 267.768 382.935C265.935 380.674 265.079 378.547 265.841 377.771Z" fill="#FFE48F"/>
<g style="mix-blend-mode:screen">
<path d="M418.445 316.825C411.427 316.825 405.737 311.135 405.737 304.117C405.737 297.098 411.427 291.409 418.445 291.409C425.464 291.409 431.153 297.098 431.153 304.117C431.153 311.135 425.464 316.825 418.445 316.825Z" fill="#F0EEF4"/>
</g>
<path d="M411.127 304.184C411.127 303.1 413.201 302.164 416.09 301.803C416.384 298.9 417.294 296.8 418.378 296.8C419.461 296.8 420.397 298.873 420.759 301.763C423.661 302.057 425.762 302.967 425.762 304.05C425.762 305.134 423.688 306.07 420.799 306.431C420.505 309.334 419.595 311.434 418.511 311.434C417.428 311.434 416.491 309.361 416.13 306.471C413.227 306.177 411.127 305.267 411.127 304.184Z" fill="#FFE48F"/>
<g style="mix-blend-mode:screen">
<path d="M341.421 153.599C341.421 158.628 345.501 162.708 350.531 162.708C355.56 162.708 359.64 158.628 359.64 153.599C359.64 148.569 355.56 144.489 350.531 144.489C345.501 144.489 341.421 148.569 341.421 153.599Z" fill="#F0EEF4"/>
</g>
<path d="M346.785 149.92C347.334 149.371 348.859 149.946 350.504 151.231C352.123 149.92 353.648 149.304 354.196 149.853C354.745 150.401 354.17 151.926 352.885 153.572C354.196 155.19 354.812 156.715 354.263 157.264C353.715 157.812 352.19 157.237 350.544 155.953C348.926 157.264 347.401 157.879 346.852 157.331C346.304 156.782 346.879 155.257 348.163 153.612C346.852 151.993 346.237 150.468 346.785 149.92Z" fill="#FFE48F"/>
<g style="mix-blend-mode:screen">
<path d="M162.276 241.526C165.834 245.084 171.599 245.084 175.158 241.526C178.716 237.968 178.716 232.202 175.158 228.644C171.599 225.086 165.834 225.086 162.276 228.644C158.717 232.202 158.717 237.968 162.276 241.526Z" fill="#F0EEF4"/>
</g>
<path d="M163.478 235.132C163.478 234.356 164.963 233.687 167.036 233.433C167.251 231.359 167.893 229.848 168.668 229.848C169.444 229.848 170.113 231.333 170.367 233.406C172.441 233.62 173.952 234.262 173.952 235.038C173.952 235.814 172.468 236.483 170.394 236.737C170.18 238.81 169.538 240.322 168.762 240.322C167.986 240.322 167.317 238.837 167.063 236.764C164.99 236.55 163.478 235.907 163.478 235.132Z" fill="#FFE48F"/>
<g style="mix-blend-mode:screen">
<path d="M97.2365 201.141C100.795 204.699 106.56 204.699 110.119 201.141C113.677 197.582 113.677 191.817 110.119 188.259C106.56 184.7 100.795 184.7 97.2365 188.259C93.6783 191.817 93.6783 197.582 97.2365 201.141Z" fill="#F0EEF4"/>
</g>
<path d="M98.4264 194.76C98.4264 193.984 99.9112 193.315 101.985 193.061C102.199 190.987 102.841 189.476 103.617 189.476C104.393 189.476 105.061 190.96 105.316 193.034C107.389 193.248 108.901 193.89 108.901 194.666C108.901 195.442 107.416 196.111 105.342 196.365C105.128 198.438 104.486 199.95 103.71 199.95C102.934 199.95 102.266 198.465 102.011 196.392C99.938 196.177 98.4264 195.535 98.4264 194.76Z" fill="#FFE48F"/>
<g style="mix-blend-mode:screen">
<path d="M438.485 262.969C438.485 267.999 442.565 272.079 447.594 272.079C452.624 272.079 456.704 267.999 456.704 262.969C456.704 257.939 452.624 253.859 447.594 253.859C442.565 253.859 438.485 257.939 438.485 262.969Z" fill="#F0EEF4"/>
</g>
<path d="M443.849 259.304C444.398 258.755 445.923 259.331 447.568 260.615C449.187 259.304 450.712 258.689 451.26 259.237C451.808 259.786 451.233 261.311 449.949 262.956C451.26 264.575 451.875 266.099 451.327 266.648C450.778 267.196 449.253 266.621 447.608 265.337C445.989 266.648 444.464 267.263 443.916 266.715C443.368 266.166 443.943 264.641 445.227 262.996C443.916 261.377 443.301 259.852 443.849 259.304Z" fill="#FFE48F"/>
</g>
<defs>
<linearGradient id="paint0_linear_50_16" x1="336" y1="0" x2="336" y2="450" gradientUnits="userSpaceOnUse">
<stop offset="0.5" stop-color="#DEEAF6"/>
<stop offset="1" stop-color="white"/>
</linearGradient>
<linearGradient id="paint1_linear_50_16" x1="631.784" y1="345.573" x2="704.448" y2="504.519" gradientUnits="userSpaceOnUse">
<stop stop-color="white"/>
<stop offset="1" stop-color="white" stop-opacity="0"/>
</linearGradient>
<linearGradient id="paint2_linear_50_16" x1="287.46" y1="177.517" x2="125.156" y2="447.599" gradientUnits="userSpaceOnUse">
<stop stop-color="white"/>
<stop offset="1" stop-color="white" stop-opacity="0"/>
</linearGradient>
<linearGradient id="paint3_linear_50_16" x1="443.877" y1="266.26" x2="443.877" y2="500.144" gradientUnits="userSpaceOnUse">
<stop stop-color="white"/>
<stop offset="0.25" stop-color="white" stop-opacity="0.7"/>
<stop offset="0.52" stop-color="white" stop-opacity="0.4"/>
<stop offset="0.75" stop-color="white" stop-opacity="0.18"/>
<stop offset="0.91" stop-color="white" stop-opacity="0.05"/>
<stop offset="1" stop-color="white" stop-opacity="0"/>
</linearGradient>
<linearGradient id="paint4_linear_50_16" x1="164.886" y1="314.551" x2="55.8091" y2="449.913" gradientUnits="userSpaceOnUse">
<stop stop-color="white"/>
<stop offset="1" stop-color="white" stop-opacity="0"/>
</linearGradient>
<linearGradient id="paint5_linear_50_16" x1="213.759" y1="267.5" x2="141.614" y2="280.494" gradientUnits="userSpaceOnUse">
<stop stop-color="#FF9A7A"/>
<stop offset="1" stop-color="#FF4E83"/>
</linearGradient>
<linearGradient id="paint6_linear_50_16" x1="247.344" y1="333.765" x2="195.473" y2="385.564" gradientUnits="userSpaceOnUse">
<stop stop-color="#FF9A7A"/>
<stop offset="1" stop-color="#FF4E83"/>
</linearGradient>
<linearGradient id="paint7_linear_50_16" x1="204.683" y1="314.383" x2="184.984" y2="324.551" gradientUnits="userSpaceOnUse">
<stop stop-color="#F66987"/>
<stop offset="1" stop-color="#C74F86"/>
</linearGradient>
<linearGradient id="paint8_linear_50_16" x1="258.09" y1="300.51" x2="163.432" y2="317.559" gradientUnits="userSpaceOnUse">
<stop stop-color="#FF9A7A"/>
<stop offset="1" stop-color="#FF4E83"/>
</linearGradient>
<linearGradient id="paint9_linear_50_16" x1="442.287" y1="205.326" x2="399.974" y2="212.947" gradientUnits="userSpaceOnUse">
<stop stop-color="#F66987"/>
<stop offset="1" stop-color="#C74F86"/>
</linearGradient>
<linearGradient id="paint10_linear_50_16" x1="413.959" y1="213.622" x2="387.471" y2="218.393" gradientUnits="userSpaceOnUse">
<stop stop-color="#F66987"/>
<stop offset="1" stop-color="#C74F86"/>
</linearGradient>
<linearGradient id="paint11_linear_50_16" x1="378.441" y1="236.847" x2="315.419" y2="248.197" gradientUnits="userSpaceOnUse">
<stop stop-color="#FF9A7A"/>
<stop offset="1" stop-color="#FF4E83"/>
</linearGradient>
<linearGradient id="paint12_linear_50_16" x1="341.507" y1="67.1" x2="258.066" y2="94.4863" gradientUnits="userSpaceOnUse">
<stop stop-color="#FF9A7A"/>
<stop offset="1" stop-color="#FF4E83"/>
</linearGradient>
<clipPath id="clip0_50_16">
<rect width="672" height="450" rx="24" fill="white"/>
</clipPath>
</defs>
</svg>
