<svg width="704" height="482" viewBox="0 0 704 482" fill="none" xmlns="http://www.w3.org/2000/svg">
<g filter="url(#filter0_d_47_9)">
<rect x="12" y="8" width="672" height="450" rx="24" fill="url(#paint0_linear_47_9)"/>
<rect x="17" y="13" width="662" height="440" rx="19" stroke="white" stroke-width="10"/>
</g>
<g opacity="0.3">
<mask id="mask0_47_9" style="mask-type:luminance" maskUnits="userSpaceOnUse" x="73" y="353" width="550" height="75">
<path d="M623 353.271H73V427.616L623 427.543V353.271Z" fill="white"/>
</mask>
<g mask="url(#mask0_47_9)">
<path d="M592.611 353.271C596.71 369.082 621.834 462.178 583.803 525.846C545.773 589.514 488.389 622.764 409.659 621.033C352.569 619.779 297.195 602.069 259.047 548.44C220.899 494.812 181.181 520.544 124.187 485.036C85.32 460.822 80.3554 397.608 101.739 353.271H592.611Z" fill="url(#paint1_linear_47_9)"/>
<path d="M125.2 353.271C126.887 368.862 128.918 404.758 109.323 411.982C89.7286 419.205 80.9432 399.61 89.0539 386.095C97.1646 372.58 114.867 369.434 116.151 353.271H125.207H125.2Z" fill="url(#paint2_linear_47_9)"/>
<path d="M121.138 360.113C120.925 361.946 120.639 363.78 120.302 365.599C119.627 369.265 118.732 372.895 117.625 376.459C115.388 383.617 112.294 390.583 108.312 396.941C106.038 400.571 103.523 404.069 100.707 407.303C100.56 407.472 100.487 407.201 100.582 407.083C105.217 401.114 109.25 394.668 112.418 387.796C115.506 381.101 117.83 374.046 119.26 366.808C119.656 364.784 119.986 362.753 120.25 360.707C120.382 359.695 120.5 358.676 120.602 357.657C120.712 356.571 120.808 355.486 121.079 354.423C121.116 354.276 121.365 354.158 121.394 354.364C121.673 356.234 121.358 358.236 121.145 360.106L121.138 360.113Z" fill="#DEEDFE"/>
<path d="M96.1959 369.969C87.1539 369.434 88.1439 361.301 95.5066 359.46C102.224 357.781 106.837 358.522 111.545 353.278H113.789C111.721 359.974 105.935 370.556 96.1959 369.976V369.969Z" fill="url(#paint3_linear_47_9)"/>
<path d="M111.875 355.288C111.369 356.725 110.445 358.045 109.463 359.204C108.487 360.355 107.387 361.404 106.192 362.328C103.816 364.147 101.066 365.474 98.1546 366.156C96.5339 366.537 94.8912 366.691 93.2412 366.508C93.1899 366.508 93.1826 366.383 93.2412 366.376C96.2699 366.163 99.2252 365.599 101.99 364.315C104.608 363.098 106.977 361.338 108.876 359.153C109.954 357.913 110.797 356.542 111.699 355.178C111.795 355.031 111.941 355.127 111.89 355.288H111.875Z" fill="#DEEDFE"/>
<path d="M572.056 353.271C570.369 368.862 568.338 404.759 587.932 411.982C607.527 419.205 616.312 399.611 608.202 386.095C600.091 372.58 582.388 369.434 581.105 353.271H572.048H572.056Z" fill="url(#paint4_linear_47_9)"/>
<path d="M575.891 359.439C576.104 361.272 576.39 363.106 576.72 364.924C577.394 368.591 578.289 372.221 579.396 375.785C581.633 382.942 584.728 389.909 588.71 396.267C590.983 399.897 593.498 403.395 596.314 406.629C596.461 406.798 596.534 406.526 596.439 406.409C591.804 400.44 587.771 393.994 584.603 387.122C581.516 380.427 579.191 373.372 577.761 366.134C577.365 364.11 577.035 362.079 576.771 360.033C576.639 359.021 576.522 358.002 576.419 356.982C576.309 355.897 576.214 354.812 575.942 353.748C575.906 353.602 575.656 353.484 575.627 353.69C575.348 355.56 575.664 357.562 575.876 359.432L575.891 359.439Z" fill="#DEEDFE"/>
<path d="M601.065 369.969C610.107 369.434 609.117 361.301 601.754 359.461C595.037 357.781 590.424 358.522 585.716 353.279H583.472C585.54 359.974 591.326 370.556 601.065 369.977V369.969Z" fill="url(#paint5_linear_47_9)"/>
<path d="M585.386 355.288C585.892 356.725 586.816 358.045 587.799 359.204C588.774 360.355 589.874 361.404 591.07 362.328C593.446 364.147 596.196 365.474 599.107 366.156C600.728 366.537 602.37 366.691 604.02 366.508C604.072 366.508 604.079 366.383 604.02 366.376C600.992 366.163 598.036 365.599 595.272 364.315C592.654 363.098 590.285 361.338 588.386 359.153C587.308 357.913 586.464 356.542 585.562 355.178C585.467 355.031 585.32 355.127 585.372 355.288H585.386Z" fill="#DEEDFE"/>
<path d="M453.76 353.271H384.409V366.764H453.76V353.271Z" fill="black"/>
<path d="M318.424 408.953C317.463 407.714 316.73 405.514 316.568 403.108C316.341 399.698 316.898 397.183 317.984 393.942C317.984 393.942 319.098 393.905 320.602 393.905C322.105 393.905 322.941 393.597 323.645 393.377C325.508 392.79 326.036 392.226 327.642 391.111C329.086 390.106 340.636 384.394 342.807 384.012C344.765 383.668 345.77 383.382 346.84 383.499C348.432 383.675 350.771 384.452 349.37 386.777C352.003 385.208 354.966 386.132 354.76 388.647C356.168 387.459 358.596 387.312 359.85 388.684C360.385 389.285 360.099 390.451 359.813 391.177C355.692 401.803 353.301 401.715 341.89 406.907C338.128 408.623 335.415 409.532 331.506 409.598C328.236 409.657 320.242 409.342 318.431 408.953H318.424Z" fill="#D18080"/>
<path d="M340.76 383.69C341.266 383.932 341.78 384.188 342.168 384.592C342.557 384.995 342.806 385.582 342.66 386.117C342.212 387.782 339.748 387.54 338.48 387.378C338.714 387.613 338.956 387.855 339.191 388.09C339.624 388.522 340.078 389.021 340.086 389.63C340.086 390.099 339.807 390.532 339.433 390.81C339.059 391.089 338.597 391.221 338.135 391.302C337.651 391.39 337.152 391.412 336.661 391.39C336.566 391.39 335.759 391.375 335.744 391.353C336.133 391.771 336.492 392.226 336.676 392.768C337.16 394.213 335.818 395.32 334.439 395.24C333.713 395.196 333.031 394.895 332.386 394.58C330.318 393.56 327.898 392.321 326.68 390.297C326.343 389.74 326.086 388.984 326.497 388.42C326.952 387.789 327.744 387.422 328.499 387.305C329.474 387.151 330.457 387.349 331.425 387.54C330.978 387.048 330.912 386.278 331.176 385.67C331.843 384.122 333.801 384.269 335.209 384.467C335.077 384.042 335.348 383.572 335.73 383.338C337.35 382.34 339.191 382.942 340.768 383.704L340.76 383.69Z" fill="#FBC8C7"/>
<path d="M354.219 409.84C351.3 410.713 348.418 411.813 345.39 412.172C344.488 412.282 343.563 412.319 342.698 412.055C341.752 411.769 340.953 411.153 340.19 410.522C337.653 408.425 335.336 406.063 333.275 403.489C333.158 403.335 333.033 403.181 332.967 403.005C332.82 402.595 332.996 402.118 333.319 401.817C333.642 401.524 334.074 401.377 334.507 401.311C336.333 401.018 338.159 401.869 339.655 402.954C340.52 403.585 341.356 404.318 342.39 404.611C343.608 404.949 344.913 404.611 346.108 404.201C349.122 403.167 351.806 401.942 353.566 400.622C354.41 399.991 355.744 397.96 357.115 395.738C357.995 394.308 359.807 391.184 359.807 391.184L367.125 393.927C366.685 397.432 366.238 400.952 365.461 404.399C365.182 405.631 364.42 409.077 364.42 409.077C364.42 409.077 362.146 408.813 360.804 408.909C358.89 409.041 356.052 409.29 354.219 409.84Z" fill="#FBC8C7"/>
<path d="M368.401 412.143L362.821 409.885L366.891 391.243L373.417 393.326L368.401 412.143Z" fill="url(#paint6_linear_47_9)"/>
<path d="M387.57 422.681L366.641 412.172L371.965 391.016L386.58 396.039L387.57 422.681Z" fill="#223F7F"/>
<path d="M411.358 470.032L398.224 464.231C398.224 464.231 391.221 438.66 390.077 412.033C388.933 385.405 389.622 366.764 389.622 366.764C401.619 362.137 425.533 364.447 449.462 366.764V462.317L436.401 471.909C436.401 471.909 417.225 463.865 413.998 464.231C410.779 464.598 411.351 470.032 411.351 470.032H411.358Z" fill="url(#paint7_linear_47_9)"/>
<path d="M449.463 437.942L419.088 431.173C415.187 406.805 414.292 380.713 411.498 376.452C406.959 369.515 400.021 368.217 389.483 373.086C389.542 369.023 389.623 366.765 389.623 366.765C401.62 362.137 425.534 364.447 449.463 366.765V437.942Z" fill="#B2D4FE"/>
<path d="M411.359 470.032C407.105 464.628 402.735 458.292 399.229 443.867C395.724 429.443 393.759 406.519 393.759 394.653C393.759 382.788 393.37 362.958 393.37 362.958L384.409 366.764C384.995 390.745 386.396 427.47 392.358 453.012C394.668 462.912 396.831 465.706 402.845 468.669C408.858 471.631 413.133 473.12 413.133 473.12L411.359 470.032Z" fill="url(#paint8_linear_47_9)"/>
<path d="M409.467 455.916C405.889 445.928 396.949 410.889 397.272 405.404C397.595 399.911 399.663 381.512 402.259 381.028C404.855 380.544 410.619 399.112 411.213 403.145C411.799 407.179 413.083 455.285 413.083 455.285L409.46 455.923L409.467 455.916Z" fill="url(#paint9_linear_47_9)"/>
<path d="M437.716 474.895C436.726 470.59 429.019 462.868 423.783 447.534C418.547 432.2 417.058 423.855 416.273 403.175C415.54 383.873 416.633 362.086 416.633 362.086L453.769 366.757C453.769 366.757 449.604 397.235 450.55 410.523C451.496 423.811 453.49 467.224 453.49 467.224C453.49 467.224 443.854 469.505 437.723 474.895H437.716Z" fill="url(#paint10_linear_47_9)"/>
<path d="M438.507 469.505C438.441 466.777 438.353 461.321 438.309 458.593C435.398 456.048 431.511 452.161 428.307 449.125C428.094 442.166 427.757 428.306 427.632 421.347C424.486 415.964 420.445 408.975 418.069 402.566C420.827 409.129 424.75 415.165 428.233 421.332C428.446 428.225 428.798 442.085 428.93 448.979L428.835 448.759C432.113 452.022 435.559 455.249 438.698 458.585C438.654 461.291 438.566 466.784 438.5 469.497L438.507 469.505Z" fill="#223F7F"/>
<path d="M453.481 467.231C458.593 464.884 462.237 460.074 464.467 453.503C466.696 446.932 478.136 408.608 479.471 403.702C480.805 398.796 481.993 394.638 476.053 385.875C470.113 377.112 457.368 353.271 457.368 353.271H433.909C433.909 353.271 445.715 382.392 448.245 387.738C450.768 393.084 451.318 399.28 447.38 411.153C443.86 421.764 441.975 428.35 441.213 433.549C440.45 438.748 443.017 459.568 453.474 467.231H453.481Z" fill="#223F7F"/>
<path d="M243.949 366.764C241.691 360.934 240.957 353.271 240.957 353.271H317.928V366.764H243.942H243.949Z" fill="#223F7F"/>
<path d="M264.291 465.977L296.323 442.261L288.967 462.817L296.77 460.727C296.77 460.727 308.782 439.409 311.481 428.152C314.179 416.895 315.983 366.765 315.983 366.765C308.415 360.106 276.053 363.963 246.177 366.765C246.177 366.765 254.156 386.132 255.058 393.341C255.96 400.549 247.549 433.571 246.199 440.179C244.85 446.786 244.395 450.834 246.199 453.386C248.003 455.938 264.283 465.977 264.283 465.977H264.291Z" fill="url(#paint11_linear_47_9)"/>
<path d="M315.837 370.702C308.387 367.981 298.406 368.201 297.071 370.541C295.363 373.533 297.071 381.005 297.071 381.005L314.972 389.285C314.811 392.299 314.635 395.437 314.437 398.576L276.267 394.675L255.059 396.339C255.147 395.107 255.154 394.073 255.059 393.333C254.157 386.124 246.178 366.757 246.178 366.757C276.047 363.955 308.416 360.098 315.984 366.757C315.984 366.757 315.933 368.216 315.83 370.695L315.837 370.702Z" fill="#B2D4FE"/>
<path d="M264.292 465.977C264.292 465.977 276.641 452.535 283.674 438.235C289.738 425.893 290.97 422.842 292.554 400.74C294.131 378.63 293.324 360.018 293.324 360.018C274.558 358.654 257.772 360.384 243.956 366.764C243.956 366.764 249.097 384.614 251.026 391.984C252.954 399.354 250.674 408.674 247.344 421.647C244.008 434.62 242.255 447.864 242.607 451.024C242.959 454.185 251.128 457.177 264.299 465.977H264.292Z" fill="url(#paint12_linear_47_9)"/>
<path d="M288.968 462.809C296.873 453.789 305.263 438.55 307.147 427.418C309.032 416.286 310.572 361.667 310.572 361.667C314.429 362.811 317.333 364.329 317.935 366.757C317.935 366.757 315.742 410.808 314.371 423.817C312.999 436.827 299.022 460.125 299.022 460.125L288.961 462.809H288.968Z" fill="url(#paint13_linear_47_9)"/>
<path d="M311.246 408.366L318.689 408.975C318.689 408.975 317.157 405.389 317.369 400.718C317.582 396.046 318.689 393.179 318.689 393.179L311.473 391.778C311.473 391.778 310.359 394.294 310.095 399.544C309.831 404.802 311.246 408.359 311.246 408.359V408.366Z" fill="url(#paint14_linear_47_9)"/>
<path d="M243.875 452.953C240.817 449.836 240.524 445.077 243.875 428.298C247.226 411.52 258.109 389.872 260.023 385.552C261.937 381.24 264.819 378.681 273.766 380.602C282.712 382.516 312.588 390.532 312.588 390.532C310.777 395.922 310.234 402.8 311.312 408.726L279.676 404.575C279.676 404.575 274.47 425.402 272.607 431.716C268.97 444.036 257.434 460.785 243.875 452.96V452.953Z" fill="url(#paint15_linear_47_9)"/>
<path d="M280.029 404.92C278.144 412.158 276.355 419.433 274.287 426.619C272.431 433.073 270.077 439.607 265.787 444.879C263.514 447.673 260.793 450.137 257.618 451.861C257.581 451.883 257.574 451.795 257.603 451.773C262.979 448.48 266.748 443.273 269.447 437.663C272.615 431.078 274.265 423.884 276.12 416.851C277.154 412.913 278.203 408.983 279.244 405.045C279.259 405.001 279.229 404.949 279.178 404.942C275.775 404.304 272.387 403.615 269.08 402.61C269.014 402.588 269.029 402.434 269.109 402.441C271.823 402.874 274.507 403.417 277.205 403.945C278.144 404.128 279.163 404.311 280.131 404.502C280.131 404.502 280.073 404.803 280.043 404.92H280.029Z" fill="#5586FC"/>
<path d="M292.135 406.203C291.599 406.203 281.032 405.176 279.177 404.942C279.008 404.92 279.822 404.443 279.954 404.465C280.665 404.582 292.142 406.203 292.135 406.203Z" fill="#5586FC"/>
<path d="M304.323 393.34C304.103 394.418 303.935 395.496 303.81 396.589C303.685 397.645 303.612 398.708 303.583 399.772C303.553 400.901 303.678 402.052 303.553 403.174C303.539 403.292 303.363 403.416 303.319 403.255C303.033 402.228 303.099 401.07 303.113 400.006C303.128 398.906 303.194 397.806 303.311 396.714C303.429 395.599 303.612 394.484 303.839 393.384C304.074 392.262 304.338 391.17 304.837 390.136C304.895 390.018 304.991 390.077 304.976 390.194C304.859 391.265 304.551 392.292 304.331 393.34H304.323Z" fill="#5586FC"/>
<path d="M142.316 366.808L140.886 353.271H213.104V366.808H142.316Z" fill="black"/>
<path d="M225.734 432.742C225.734 432.742 233.412 437.78 237.152 439.775C243.114 442.958 244.837 444.38 247.815 443.698C252.281 442.672 255.984 442.078 255.896 440.384C255.808 438.69 252.053 438.294 249.259 438.8C252.728 436.915 256.131 436.233 260.391 436.46C264.645 436.688 265.459 436.123 266.199 434.913C266.94 433.703 265.774 432.588 265.774 432.588C267.072 432.698 268.773 432.478 269.389 430.711C269.895 429.259 268.465 427.866 267.6 427.712C268.92 426.575 267.945 423.818 265.693 423.51C266.287 422.285 265.202 420.43 261.748 420.114C257.436 419.726 252.339 420.224 248.526 420.899C241.706 422.109 241.457 421.053 239.198 419.535C236.301 417.577 234.849 416.646 234.849 416.646C234.849 416.646 231.432 416.565 228.169 422.512C224.905 428.467 225.734 432.735 225.734 432.735V432.742Z" fill="#FBC8C7"/>
<path d="M223.9 432.038L231.064 436.475C231.064 436.475 231.064 431.474 233.954 426.26C236.843 421.046 240.708 419.902 240.708 419.902L234.21 415.428C234.21 415.428 225.447 420.276 223.9 432.038Z" fill="url(#paint16_linear_47_9)"/>
<path d="M265.692 423.524C264.563 425.46 261.784 425.116 259.87 425.094C257.794 425.028 255.704 425.196 253.644 425.475C254.648 425.182 255.69 425.02 256.731 424.896C258.799 424.573 260.926 424.94 262.986 424.771C263.984 424.654 265.113 424.434 265.692 423.524Z" fill="#FB929C"/>
<path d="M227.039 434.099C226.247 430.359 229.899 419.08 236.836 416.374C236.836 416.374 215.643 398.51 212.886 395.9C210.128 393.289 207.569 391.976 206.249 392.13C204.922 392.284 208.324 424.14 208.324 424.14L227.032 434.099H227.039Z" fill="#223F7F"/>
<path d="M222.485 427.594C222.647 426.23 222.837 424.91 223.182 423.583C223.483 422.402 223.893 421.244 224.414 420.144C224.92 419.066 225.536 418.039 226.24 417.078C226.614 416.565 227.032 416.081 227.443 415.604C227.817 415.172 228.037 414.658 228.411 414.226C228.433 414.204 228.418 414.094 228.374 414.123C227.875 414.468 227.347 414.717 226.907 415.15C226.445 415.604 226.042 416.118 225.653 416.638C224.891 417.665 224.238 418.772 223.703 419.931C222.625 422.27 221.972 424.932 222.207 427.514C222.221 427.653 222.463 427.8 222.485 427.594Z" fill="#4862AA"/>
<path d="M185.112 471.096L198.371 465.237C198.371 465.237 205.44 439.409 206.591 412.525C207.743 385.641 207.053 366.809 207.053 366.809C197.095 361.947 171.545 364.535 146.656 366.809V463.308L159.834 472.995C159.834 472.995 179.194 464.87 182.443 465.237C185.691 465.603 185.112 471.096 185.112 471.096Z" fill="url(#paint17_linear_47_9)"/>
<path d="M190.531 369.031C182.978 371.245 182.223 383.543 182.223 383.543L188.309 384.291C190.942 377.295 192.68 377.185 193.567 382.597L194.843 399.383H146.656V366.809C171.538 364.535 197.095 361.947 207.053 366.809C207.053 366.809 207.112 368.466 207.171 371.473C200.827 369.537 194.015 368.011 190.539 369.031H190.531Z" fill="#B2D4FE"/>
<path d="M185.905 471.096C190.202 465.632 194.61 459.238 198.144 444.666C201.679 430.095 203.666 406.951 203.666 394.968C203.666 382.986 204.37 363.12 204.37 363.12C207.795 363.633 210.86 364.645 213.104 366.801C212.51 391.016 212.958 427.323 206.937 453.122C204.605 463.124 200.564 466.718 194.5 469.717C188.428 472.709 184.116 474.212 184.116 474.212L185.905 471.096Z" fill="url(#paint18_linear_47_9)"/>
<path d="M186.293 454.354C189.901 444.263 198.929 408.887 198.599 403.343C198.269 397.799 196.186 379.209 193.561 378.725C190.935 378.234 185.12 396.985 184.526 401.063C183.932 405.14 182.634 453.716 182.634 453.716L186.286 454.354H186.293Z" fill="url(#paint19_linear_47_9)"/>
<path d="M158.515 476.009C159.512 471.66 167.293 463.865 172.573 448.377C177.86 432.889 179.356 424.463 180.148 403.585C180.889 384.093 179.07 361.719 179.07 361.719C164.836 362.225 152.259 363.728 142.308 366.808C142.308 366.808 146.51 397.586 145.557 411.006C144.603 424.426 142.594 468.265 142.594 468.265C142.594 468.265 152.318 470.567 158.507 476.009H158.515Z" fill="url(#paint20_linear_47_9)"/>
<path d="M157.708 470.567C157.65 467.81 157.547 462.303 157.51 459.545C160.678 456.179 164.154 452.916 167.462 449.616L167.366 449.836C167.498 442.877 167.85 428.87 168.07 421.918C171.583 415.692 175.55 409.598 178.33 402.969C175.939 409.429 171.854 416.499 168.679 421.933C168.547 428.965 168.21 442.957 167.997 449.983C164.77 453.041 160.832 456.986 157.899 459.545C157.862 462.281 157.76 467.825 157.701 470.567H157.708Z" fill="#223F7F"/>
<path d="M142.595 468.265C135.679 466.835 132.607 463.916 127.752 448.538C122.897 433.153 114.97 400.93 114.156 393.648L141.905 408.22L149.437 429.435C149.437 429.435 152.421 460.147 142.595 468.272V468.265Z" fill="url(#paint21_linear_47_9)"/>
<path d="M142.434 409.034C141.319 409.122 140.168 409.048 139.046 409.034C137.828 409.012 136.611 408.968 135.394 408.902C134.286 408.843 133.179 408.762 132.079 408.667C130.884 408.564 129.666 408.476 128.5 408.19C128.346 408.154 128.478 407.868 128.603 407.868C130.92 407.824 133.252 408.058 135.57 408.139C136.662 408.176 137.755 408.205 138.848 408.22C140.065 408.242 141.297 408.168 142.514 408.249C143.042 408.286 142.91 408.99 142.434 409.026V409.034Z" fill="#223F7F"/>
<path d="M190.362 387.648L148.605 380.855C147.398 380.658 146.26 381.478 146.064 382.685L137.052 438.079C136.856 439.286 137.675 440.424 138.882 440.62L180.639 447.413C181.847 447.61 182.985 446.79 183.181 445.583L192.192 390.189C192.389 388.982 191.569 387.844 190.362 387.648Z" fill="#FA5B7E"/>
<path d="M167.402 409.672C168.972 410.127 171.135 412.459 172.543 415.619C174.369 419.704 173.357 425.556 173.247 427.499C173.13 429.443 175.645 431.151 177.236 428.181C178.835 425.211 180.082 421.339 180.485 419.455C180.485 419.455 184.21 420.995 186.997 421.677C189.784 422.359 191.61 423.107 192.409 420.511C193.208 417.915 190.627 415.971 190.627 415.971C190.627 415.971 191.61 414.827 191.72 412.437C191.83 410.046 191.038 409.129 191.038 409.129C191.038 409.129 192.746 403.879 188.412 400.117C184.078 396.355 167.63 392.812 167.63 392.812L167.402 409.672Z" fill="#FBC8C7"/>
<path d="M160.246 408.675L167.63 409.929C167.63 409.929 168.796 406.849 169.251 400.689C169.706 394.529 169.251 391.677 169.251 391.677L162.064 390.305L160.238 408.675H160.246Z" fill="url(#paint22_linear_47_9)"/>
<path d="M161.756 409.357L141.905 408.22L114.156 393.649C113.349 386.359 115.454 382.15 124.026 382.641C132.606 383.125 163.509 389.439 163.509 389.439C163.509 389.439 164.844 398.181 161.749 409.357H161.756Z" fill="url(#paint23_linear_47_9)"/>
<path d="M484.181 366.816V353.271H565.258C564.906 357.246 563.99 361.763 562.516 366.816H484.181Z" fill="#4862AA"/>
<path d="M472.057 431.51C467.327 436.093 465.699 437.457 461.776 440.259C457.192 443.529 454.325 445.451 449.962 444.197C445.598 442.943 441.983 442.099 442.174 440.435C442.364 438.77 446.097 438.601 448.832 439.276C445.518 437.201 442.188 436.321 437.964 436.291C433.74 436.262 432.978 435.653 432.318 434.414C431.658 433.175 432.882 432.141 432.882 432.141C431.592 432.17 429.92 431.855 429.421 430.065C429.01 428.599 430.506 427.308 431.372 427.213C430.132 426.01 431.269 423.341 433.513 423.172C433 421.925 434.188 420.158 437.62 420.055C441.902 419.931 446.918 420.73 450.651 421.632C457.324 423.238 458.388 421.405 459.649 420.239C462.194 417.892 462.758 417.555 462.758 417.555C462.758 417.555 467.811 418.383 470.678 424.463C473.546 430.542 472.064 431.517 472.064 431.517L472.057 431.51Z" fill="#FBC8C7"/>
<path d="M433.499 423.165C434.496 425.145 437.268 424.976 439.16 425.071C441.221 425.13 443.274 425.423 445.298 425.827C444.323 425.475 443.296 425.255 442.277 425.064C440.253 424.624 438.126 424.859 436.095 424.558C435.119 424.382 434.012 424.096 433.499 423.165Z" fill="#FB929C"/>
<path d="M431.365 427.205C432.802 429.185 435.596 428.54 437.693 428.76C439.923 428.877 442.152 429.053 444.367 429.383C442.203 428.774 439.945 428.569 437.708 428.415C435.574 428.21 432.993 428.965 431.357 427.205H431.365Z" fill="#FB929C"/>
<path d="M471.537 432.126C471.889 428.357 468.971 420.012 461.828 418.142C461.828 418.142 479.413 397.249 481.826 394.374C484.239 391.492 486.615 389.908 487.935 389.916C489.255 389.916 489.071 420.283 489.071 420.283L471.537 432.126Z" fill="url(#paint24_linear_47_9)"/>
<path d="M475.966 426.633C475.65 425.313 475.313 424.037 474.829 422.761C474.396 421.632 473.861 420.547 473.223 419.52C472.6 418.515 471.881 417.577 471.082 416.711C470.649 416.249 470.194 415.824 469.732 415.391C469.314 415.003 469.036 414.526 468.625 414.152C468.603 414.13 468.603 414.02 468.647 414.042C469.182 414.321 469.725 414.511 470.209 414.885C470.715 415.281 471.177 415.743 471.61 416.205C472.475 417.129 473.245 418.141 473.905 419.219C475.225 421.397 476.178 423.942 476.23 426.509C476.23 426.648 476.01 426.817 475.966 426.619V426.633Z" fill="#5586FC"/>
<path d="M553.744 366.816C551.72 376.929 546.213 405.103 546.807 409.819C547.54 415.583 554.47 457.786 554.47 457.786L536.936 467.943L536.584 461.555C528.554 456.811 510.661 455.351 502.616 461.555C502.616 461.555 490.949 440.017 490.949 415.597V366.809C505.564 362.636 528.862 364.198 553.744 366.809V366.816Z" fill="url(#paint25_linear_47_9)"/>
<path d="M553.745 366.816C551.721 376.929 546.213 405.103 546.807 409.819C547.049 411.711 547.951 417.511 549.066 424.463C548.289 423.312 525.68 389.997 519.212 381.967C512.634 373.797 501.282 372.837 490.949 377.398V366.816C505.565 362.643 528.863 364.205 553.745 366.816Z" fill="#B2D4FE"/>
<path d="M562.508 366.816C558.658 376.239 548.663 401.136 548.795 405.147C548.978 410.962 553.225 427.367 556.239 440.046C559.341 453.078 557.17 457.419 557.17 457.419C557.17 457.419 555.307 458.812 548.326 462.677C541.344 466.534 534.011 470.047 534.011 470.047C524.463 455.556 521.684 437.26 521.684 415.003C521.684 397.447 524.529 370.57 525.402 362.027C537.428 359.064 549.866 361.609 562.508 366.83V366.816Z" fill="url(#paint26_linear_47_9)"/>
<path d="M484.18 366.816C486.571 365.819 490.069 364.88 494.491 364C494.322 374.758 493.992 409.819 495.664 428.101C496.354 435.625 497.806 447.703 506.327 461.306C507.764 463.609 510.448 466.227 511.284 468.317C509.649 466.52 503.907 465.207 503.907 465.207C503.907 465.207 496.559 459.979 490.531 449.463C485.515 440.707 483.491 437.473 483.117 429.355C482.75 421.237 485.882 414.967 485.698 408.022C485.552 402.397 484.554 376.445 484.18 366.816Z" fill="url(#paint27_linear_47_9)"/>
<path d="M537.648 369.837C535.763 367.094 534.267 365.437 529.456 365.994C525.973 366.398 521.874 367.058 518.823 367.461C515.772 367.864 514.042 366.537 510.126 362.694C506.217 358.852 501.37 352.904 505.33 350.726C509.282 348.548 513.8 349.296 516.85 350.33C519.901 351.357 520.884 352.904 525.9 350.184C530.916 347.463 536.328 347.984 539.833 350.206C543.338 352.428 548.149 358.169 548.149 358.169C548.149 358.169 546.668 367.879 537.655 369.837H537.648Z" fill="#FBC8C7"/>
<path d="M553.341 460.183C561.811 456.678 566.174 451.618 567.487 446.316C568.712 441.359 571.85 428.643 575.165 416.645C579.462 401.077 580.87 397.322 575.678 389.175C571.014 381.856 548.472 357.502 548.472 357.502C548.472 357.502 542.92 366.881 537.648 369.837C537.648 369.837 553.466 395.613 554.008 399.346C553.796 400.923 545.23 418.992 543.551 427.198C541.204 438.638 543.441 452.813 553.341 460.176V460.183Z" fill="url(#paint28_linear_47_9)"/>
<path d="M555.827 402.323C555.358 401.685 555.05 400.893 554.698 400.189C554.537 399.874 554.382 399.559 554.229 399.236C551.207 406.335 547.834 413.316 545.531 420.701C543.375 427.616 542.283 434.898 543.324 442.121C543.874 445.964 545.069 449.829 546.873 453.268C546.895 453.312 546.859 453.437 546.815 453.363C545.759 451.831 544.827 450.181 544.16 448.435C543.515 446.763 543.053 445.025 542.723 443.258C542.063 439.753 541.975 436.159 542.283 432.617C542.928 425.086 545.429 417.885 548.333 410.955C550.078 406.782 551.992 402.683 553.789 398.525C553.803 398.488 553.825 398.466 553.847 398.437C553.781 398.297 553.715 398.158 553.642 398.026C552.909 396.603 552.139 395.203 551.361 393.809C549.843 391.089 548.259 388.397 546.793 385.647C545.913 384.005 545.069 382.347 544.277 380.661C544.263 380.624 544.299 380.536 544.329 380.587C547.621 386.161 551.237 391.543 554.119 397.351C554.507 398.129 554.889 398.913 555.241 399.713C555.571 400.461 555.952 401.267 556.091 402.074C556.106 402.169 555.952 402.455 555.842 402.309L555.827 402.323Z" fill="#5586FC"/>
<path d="M547.254 370.262C546.638 370.966 545.978 371.641 545.252 372.228C544.871 372.536 544.482 372.822 544.079 373.1C543.705 373.357 543.316 373.694 542.847 373.709C542.708 373.709 542.554 373.606 542.59 373.452C542.693 373.064 543.089 372.946 543.412 372.741C543.756 372.528 544.094 372.301 544.424 372.066C545.201 371.509 545.956 370.9 546.646 370.233C548.068 368.862 549.242 367.204 550.151 365.444C550.195 365.356 550.268 365.459 550.239 365.525C549.513 367.27 548.494 368.84 547.247 370.262H547.254Z" fill="#5586FC"/>
</g>
<path d="M623 353.293H73V427.543H623V353.293Z" fill="url(#paint29_linear_47_9)"/>
</g>
<path d="M602.261 353.271H93.7387C93.3427 353.271 93.0127 352.948 93.0127 352.545C93.0127 352.142 93.3354 351.819 93.7387 351.819H602.261C602.657 351.819 602.987 352.142 602.987 352.545C602.987 352.948 602.665 353.271 602.261 353.271Z" fill="#9DC4FC"/>
<path d="M592.611 351.826C596.71 336.016 621.834 242.919 583.803 179.251C545.773 115.583 488.397 82.3336 409.666 84.0643C352.576 85.3183 297.202 103.028 259.054 156.657C220.906 210.286 181.189 184.553 124.194 220.061C85.3274 244.276 80.3627 307.489 101.747 351.826H592.618H592.611Z" fill="url(#paint30_linear_47_9)"/>
<path d="M125.199 351.826C126.886 336.236 128.917 300.339 109.322 293.116C89.7278 285.892 80.9425 305.487 89.0532 319.002C97.1638 332.517 114.866 335.664 116.15 351.826H125.206H125.199Z" fill="url(#paint31_linear_47_9)"/>
<path d="M121.136 344.984C120.924 343.151 120.638 341.317 120.3 339.499C119.626 335.832 118.731 332.202 117.624 328.638C115.387 321.481 112.292 314.514 108.31 308.156C106.037 304.526 103.522 301.028 100.706 297.794C100.559 297.625 100.486 297.897 100.581 298.014C105.216 303.983 109.249 310.429 112.417 317.301C115.504 323.996 117.829 331.051 119.259 338.289C119.655 340.313 119.985 342.344 120.249 344.39C120.381 345.402 120.498 346.421 120.601 347.441C120.711 348.526 120.806 349.611 121.078 350.675C121.114 350.821 121.364 350.939 121.393 350.733C121.672 348.863 121.356 346.861 121.144 344.991L121.136 344.984Z" fill="#DEEDFE"/>
<path d="M96.1964 335.128C87.1544 335.664 88.1444 343.796 95.5071 345.637C102.224 347.316 106.837 346.576 111.545 351.826H113.789C111.721 345.131 105.935 334.549 96.1964 335.128Z" fill="url(#paint32_linear_47_9)"/>
<path d="M111.876 349.809C111.37 348.372 110.446 347.052 109.463 345.893C108.488 344.742 107.388 343.693 106.193 342.769C103.817 340.951 101.067 339.623 98.1553 338.941C96.5346 338.56 94.892 338.406 93.242 338.589C93.1906 338.589 93.1833 338.714 93.242 338.721C96.2706 338.934 99.226 339.499 101.991 340.782C104.609 341.999 106.977 343.759 108.877 345.945C109.955 347.184 110.798 348.555 111.7 349.919C111.795 350.066 111.942 349.971 111.891 349.809H111.876Z" fill="#DEEDFE"/>
<path d="M572.056 351.826C570.369 336.236 568.338 300.339 587.932 293.116C607.527 285.892 616.312 305.487 608.202 319.002C600.091 332.517 582.388 335.664 581.105 351.826H572.048H572.056Z" fill="url(#paint33_linear_47_9)"/>
<path d="M575.89 345.651C576.103 343.818 576.389 341.985 576.719 340.166C577.393 336.5 578.288 332.87 579.395 329.306C581.632 322.148 584.727 315.181 588.709 308.823C590.982 305.193 593.497 301.696 596.313 298.462C596.46 298.293 596.533 298.564 596.438 298.681C591.803 304.651 587.77 311.097 584.602 317.968C581.515 324.663 579.19 331.718 577.76 338.956C577.364 340.98 577.034 343.011 576.77 345.057C576.638 346.069 576.521 347.089 576.418 348.108C576.308 349.193 576.213 350.279 575.941 351.342C575.905 351.489 575.655 351.606 575.626 351.401C575.347 349.531 575.663 347.529 575.875 345.659L575.89 345.651Z" fill="#DEEDFE"/>
<path d="M601.065 335.129C610.107 335.664 609.117 343.797 601.754 345.637C595.037 347.317 590.424 346.576 585.716 351.827H583.472C585.54 345.131 591.326 334.549 601.065 335.129Z" fill="url(#paint34_linear_47_9)"/>
<path d="M585.386 349.81C585.892 348.373 586.816 347.053 587.799 345.894C588.774 344.743 589.874 343.694 591.07 342.77C593.446 340.952 596.196 339.624 599.107 338.942C600.728 338.561 602.37 338.407 604.02 338.59C604.072 338.59 604.079 338.715 604.02 338.722C600.992 338.935 598.036 339.5 595.272 340.783C592.654 342 590.285 343.76 588.386 345.946C587.308 347.185 586.464 348.556 585.562 349.92C585.467 350.067 585.32 349.972 585.372 349.81H585.386Z" fill="#DEEDFE"/>
<path d="M453.76 338.333H384.409V351.827H453.76V338.333Z" fill="black"/>
<path d="M439.452 212.897C443.456 206.209 447.475 196.118 447.284 191.865C447.094 187.604 443.647 182.559 435.566 178.188C438.008 176.78 438.792 175.717 436.702 174.771C434.612 173.818 428.724 172.014 420.364 172.109C421.977 169.315 421.222 168.406 416.756 169.447C412.29 170.496 398.488 171.999 400.454 186.336C401.847 196.47 416 211.24 425.974 213.242C435.947 215.244 439.452 212.897 439.452 212.897Z" fill="#0A2540"/>
<path d="M405.61 188.932C404.451 188.792 403.967 186.541 403.967 185.734C403.967 184.81 403.952 183.322 404.055 182.691C402.772 183.732 400.249 185.331 398.621 192.474C396.89 200.1 395.629 213.139 397.198 218.375C399.186 225.012 409.782 226.207 414.549 226.676C414.116 231.318 414.49 234.934 411.359 235.066C411.484 239.876 407.736 246.931 414.556 248.874C421.376 250.81 436.974 243.404 438.998 235.396C435.603 234.186 433.425 233.284 433.425 227.776C433.425 224.608 433.99 220.89 433.99 220.89C433.99 220.89 435.64 220.304 437.422 217.744C440.648 213.095 440.59 206.282 435.918 204.596C432.281 203.29 429.707 205.388 428.468 208.321C427.984 209.465 426.517 210.11 425.549 209.113C424.794 208.336 424.933 207.148 424.926 206.158C424.911 204.955 424.324 204.368 423.481 203.562C420.152 200.357 418.978 195.106 420.628 190.794C421.164 189.394 421.963 188.103 422.616 186.754C422.99 185.984 423.305 185.052 422.887 184.312C422.674 183.938 422.308 183.681 421.934 183.468C416.683 180.44 409.892 184.172 406.416 188.301C406.174 188.587 405.962 188.998 405.595 188.946L405.61 188.932Z" fill="#FFB573"/>
<path d="M424.457 203.95C424.435 207.822 422.711 210.33 419.602 212.369C417.153 213.975 413.838 213.366 410.648 211.68C408.345 210.462 406.021 210.125 403.19 209.898C400.821 209.707 397.771 210.272 396.429 211.46C395.776 213.828 395.761 221.264 398.284 223.714C400.807 226.163 405.786 227.424 411.953 227.278C418.121 227.131 423.401 225.276 425.395 222.144C428.864 216.703 427.683 210.081 428.622 207.984L424.457 203.943V203.95Z" fill="#0A2540"/>
<path d="M318.424 296.145C317.463 297.384 316.73 299.584 316.568 301.989C316.341 305.399 316.898 307.915 317.984 311.156C317.984 311.156 319.098 311.193 320.602 311.193C322.105 311.193 322.941 311.501 323.645 311.721C325.508 312.307 326.036 312.872 327.642 313.987C329.086 314.991 340.636 320.704 342.807 321.085C344.765 321.43 345.77 321.716 346.84 321.599C348.432 321.423 350.771 320.645 349.37 318.321C352.003 319.89 354.966 318.966 354.76 316.451C356.168 317.639 358.596 317.785 359.85 316.414C360.385 315.813 360.099 314.647 359.813 313.921C355.692 303.295 353.301 303.383 341.89 298.191C338.128 296.475 335.415 295.565 331.506 295.499C328.236 295.441 320.242 295.756 318.431 296.145H318.424Z" fill="#FFB573"/>
<g filter="url(#filter1_d_47_9)">
<path d="M340.761 321.401C341.267 321.159 341.781 320.902 342.169 320.506C342.558 320.103 342.807 319.516 342.661 318.981C342.213 317.316 339.749 317.558 338.481 317.719C338.715 317.485 338.957 317.243 339.192 317.008C339.625 316.575 340.079 316.077 340.087 315.468C340.087 314.999 339.808 314.566 339.434 314.287C339.06 314.009 338.598 313.877 338.136 313.796C337.652 313.708 337.153 313.686 336.662 313.708C336.567 313.708 335.76 313.723 335.745 313.745C336.134 313.327 336.493 312.872 336.677 312.329C337.161 310.885 335.819 309.777 334.44 309.858C333.714 309.902 333.032 310.203 332.387 310.518C330.319 311.537 327.899 312.777 326.681 314.801C326.344 315.358 326.087 316.113 326.498 316.678C326.953 317.309 327.745 317.675 328.5 317.793C329.475 317.947 330.458 317.749 331.426 317.558C330.979 318.049 330.913 318.819 331.177 319.428C331.844 320.975 333.802 320.829 335.21 320.631C335.078 321.056 335.349 321.525 335.731 321.76C337.351 322.757 339.192 322.156 340.769 321.393L340.761 321.401Z" fill="#FFB573"/>
</g>
<g filter="url(#filter2_d_47_9)">
<path d="M354.219 295.258C351.3 294.385 348.418 293.285 345.39 292.926C344.488 292.816 343.564 292.779 342.698 293.043C341.752 293.329 340.953 293.945 340.19 294.576C337.653 296.673 335.336 299.034 333.275 301.608C333.158 301.762 333.033 301.916 332.967 302.092C332.82 302.503 332.996 302.98 333.319 303.28C333.642 303.574 334.074 303.72 334.507 303.786C336.333 304.08 338.159 303.229 339.655 302.144C340.52 301.513 341.356 300.78 342.39 300.486C343.608 300.149 344.913 300.486 346.108 300.897C349.122 301.931 351.806 303.156 353.566 304.476C354.41 305.106 355.744 307.138 357.116 309.36C357.996 310.79 359.807 313.914 359.807 313.914L367.126 311.171C366.686 307.666 366.238 304.146 365.461 300.699C365.182 299.467 364.42 296.02 364.42 296.02C364.42 296.02 362.146 296.284 360.804 296.189C358.89 296.057 356.052 295.808 354.219 295.258Z" fill="#FFB573"/>
</g>
<path d="M368.402 292.955L362.821 295.214L366.891 313.855L373.418 311.765L368.402 292.955Z" fill="url(#paint35_linear_47_9)"/>
<path d="M387.571 282.417L366.641 292.926L371.965 314.082L386.581 309.059L387.571 282.417Z" fill="#01172E"/>
<path d="M411.36 235.065L398.226 240.866C398.226 240.866 391.222 266.437 390.078 293.065C388.934 319.692 389.624 338.333 389.624 338.333C401.621 342.961 425.535 340.651 449.464 338.333V242.78L436.403 233.188C436.403 233.188 417.226 241.233 414 240.866C410.78 240.499 411.352 235.065 411.352 235.065H411.36Z" fill="url(#paint36_linear_47_9)"/>
<path d="M449.463 267.156L419.088 273.925C415.187 298.294 414.292 324.386 411.498 328.646C406.959 335.584 400.022 336.882 389.484 332.012C389.542 336.075 389.623 338.334 389.623 338.334C401.62 342.961 425.534 340.651 449.463 338.334V267.156Z" fill="#B2D4FE"/>
<path d="M411.359 235.065C407.106 240.47 402.735 246.806 399.23 261.231C395.724 275.655 393.759 298.579 393.759 310.445C393.759 322.31 393.37 342.139 393.37 342.139L384.409 338.333C384.996 314.353 386.396 277.628 392.358 252.086C394.668 242.186 396.832 239.392 402.845 236.429C408.858 233.467 413.134 231.978 413.134 231.978L411.359 235.065Z" fill="#0A2540"/>
<path d="M414.004 237.866L412.735 237.316C412.735 237.316 409.479 238.431 408.929 241.804C408.379 245.178 409.472 249.182 409.472 249.182L413.095 249.82C413.095 249.82 415.683 245.896 416.549 244.562C417.414 243.227 414.011 237.874 414.011 237.874L414.004 237.866Z" fill="#2FB4F7"/>
<path d="M409.466 249.182C405.887 259.17 396.948 294.208 397.27 299.694C397.593 305.186 399.661 323.586 402.257 324.07C404.853 324.554 410.617 305.986 411.211 301.952C411.798 297.919 413.081 249.812 413.081 249.812L409.458 249.174L409.466 249.182Z" fill="#2FB4F7"/>
<path d="M412.738 237.324C413.031 235.124 413.522 234.361 414.006 232.631C414.006 231.589 414.27 230.416 414.27 230.416C414.27 230.416 413.816 230.255 413.141 230.966C411.462 232.733 407.304 237.045 406.438 239.839C404.524 245.963 405.558 249.681 405.558 249.681C405.558 249.681 408.301 242.435 412.752 237.324H412.738Z" fill="#88CFF3"/>
<path d="M414.005 237.867C414.005 237.867 425.445 236.847 433.505 225.583L433.6 224.285C433.6 224.285 434.715 223.581 435.103 225.29C435.492 226.999 441.916 233.188 441.916 233.188C441.916 233.188 434.414 247.877 416.961 251.595C416.726 244.621 414.005 237.867 414.005 237.867Z" fill="#88CFF3"/>
<path d="M437.716 230.203C436.726 234.508 429.019 242.23 423.783 257.564C418.547 272.898 417.058 281.243 416.274 301.923C415.54 321.224 416.633 343.012 416.633 343.012L453.769 338.34C453.769 338.34 449.604 307.863 450.55 294.575C451.496 281.287 453.49 237.874 453.49 237.874C453.49 237.874 443.854 235.593 437.724 230.203H437.716Z" fill="#0A2540"/>
<path d="M453.481 237.867C458.593 240.213 462.237 245.024 464.467 251.595C466.696 258.165 478.136 296.489 479.471 301.395C480.805 306.301 481.993 310.459 476.053 319.223C470.113 327.986 457.368 351.827 457.368 351.827H433.909C433.909 351.827 445.715 322.706 448.245 317.36C450.768 312.014 451.318 305.817 447.38 293.945C443.86 283.333 441.975 276.748 441.213 271.549C440.45 266.349 443.017 245.53 453.474 237.867H453.481Z" fill="#01172E"/>
<path d="M299.027 244.965C305.671 246.894 307.739 250.92 309.235 256.435C310.731 261.949 312.241 272.451 312.241 272.451L299.034 244.965H299.027Z" fill="#88CFF3"/>
<path d="M244.767 217.098C243.374 218.316 242.303 219.79 241.819 221.476C241.24 223.5 241.342 225.656 241.628 227.746C241.907 229.792 242.332 231.978 241.423 233.826C240.206 236.312 237.133 237.162 234.955 238.871C232.418 240.858 231.076 244.268 231.574 247.451C232.102 250.832 234.486 253.78 234.618 257.19C234.75 260.695 233.87 264.369 235.908 267.552C237.925 270.705 241.144 272.443 244.811 273.184C251.294 274.489 255.422 269.033 261.106 267.39C267.09 265.66 273.836 269.224 279.52 266.034C281.602 264.86 283.164 262.792 283.707 260.46C284.169 258.51 283.949 256.42 284.646 254.542C285.812 251.418 289.134 249.717 291.253 247.143C294.267 243.484 294.604 238.079 292.837 233.679C291.07 229.279 287.469 225.81 283.414 223.354C279.358 220.89 274.834 219.335 270.353 217.788C265.212 216.02 259.984 213.395 254.44 213.402C251.286 213.402 247.429 214.766 244.76 217.098H244.767Z" fill="#0A2540"/>
<path d="M297.223 204.317C300.398 199.931 302.884 188.3 297.223 182.353C291.561 176.406 285.233 178.796 285.233 178.796C285.233 178.796 278.662 175.57 270.544 176.288C262.426 177.007 253.435 182.419 250.949 188C248.507 193.478 247.451 211.261 264.01 221.007L297.223 204.324V204.317Z" fill="#0A2540"/>
<path d="M287.586 188.865C288.606 187.978 289.478 186.915 290.204 185.771C292.331 187.611 294.465 192.136 295.792 197.563C297.604 204.94 298.674 212.97 298.682 217.451C298.682 221.029 298.44 222.159 298.044 223.64C296.518 229.272 290.864 230.797 286.376 230.783C286.574 236.341 286.655 242.795 289.786 242.714C292.771 248.764 303.566 264.267 296.892 266.665C290.219 269.063 264.01 249.901 261.443 242.047C264.706 238.776 266.151 237.119 265.513 231.648C265.007 227.307 264.024 221.007 264.024 221.007C264.024 221.007 259.925 222.342 256.464 218.199C252.834 213.857 252.159 208.035 256.698 206.033C260.233 204.478 263.518 207.316 264.956 210.169C265.513 211.276 267.031 211.819 267.926 210.755C268.622 209.927 268.402 208.753 268.344 207.763C268.278 206.561 268.82 205.937 269.605 205.072C271.372 203.121 272.069 200.569 271.152 198.047C270.595 196.514 268.813 194.167 269.51 192.459C269.979 191.315 271.475 191.058 272.7 191.146C276.784 191.439 281.03 192.371 284.932 190.603C285.907 190.163 286.794 189.569 287.601 188.865H287.586Z" fill="#FFB573"/>
<path d="M286.368 230.768C282.474 230.966 274.693 229.683 270.154 223.435C272.281 232.169 280.098 235.733 286.551 235.175L286.361 230.768H286.368Z" fill="#FF9E47"/>
<path d="M243.946 338.333C241.688 344.163 240.954 351.826 240.954 351.826H317.925V338.333H243.939H243.946Z" fill="#223F7F"/>
<path d="M264.288 239.121L296.32 262.837L288.965 242.281L296.768 244.371C296.768 244.371 308.78 265.689 311.478 276.946C314.177 288.203 315.981 338.333 315.981 338.333C308.413 344.992 276.051 341.135 246.175 338.333C246.175 338.333 254.154 318.966 255.056 311.757C255.958 304.549 247.546 271.527 246.197 264.919C244.848 258.312 244.393 254.264 246.197 251.712C248.001 249.16 264.281 239.121 264.281 239.121H264.288Z" fill="url(#paint37_linear_47_9)"/>
<path d="M315.835 334.395C308.384 337.116 298.404 336.896 297.069 334.556C295.36 331.564 297.069 324.092 297.069 324.092L314.97 315.812C314.808 312.798 314.632 309.66 314.434 306.521L276.264 310.422L255.056 308.758C255.144 309.99 255.152 311.024 255.056 311.764C254.154 318.973 246.176 338.34 246.176 338.34C276.044 341.142 308.414 344.999 315.982 338.34C315.982 338.34 315.93 336.881 315.828 334.402L315.835 334.395Z" fill="#B2D4FE"/>
<path d="M264.289 239.121C264.289 239.121 276.639 252.563 283.671 266.863C289.736 279.205 290.968 282.255 292.552 304.358C294.129 326.468 293.322 345.08 293.322 345.08C274.556 346.444 257.77 344.713 243.954 338.333C243.954 338.333 249.095 320.484 251.023 313.114C252.952 305.744 250.671 296.423 247.342 283.451C244.005 270.478 242.253 257.234 242.605 254.073C242.957 250.913 251.126 247.921 264.297 239.121H264.289Z" fill="#2FB4F7"/>
<path d="M288.966 242.289C296.871 251.309 305.261 266.547 307.145 277.679C309.03 288.811 310.57 343.43 310.57 343.43C314.427 342.286 317.331 340.768 317.933 338.341C317.933 338.341 315.74 294.289 314.369 281.28C312.997 268.271 299.02 244.973 299.02 244.973L288.958 242.289H288.966Z" fill="#2FB4F7"/>
<path d="M311.243 296.731L318.686 296.122C318.686 296.122 317.154 299.708 317.366 304.379C317.579 309.051 318.686 311.918 318.686 311.918L311.47 313.319C311.47 313.319 310.356 310.803 310.092 305.553C309.828 300.295 311.243 296.738 311.243 296.738V296.731Z" fill="url(#paint38_linear_47_9)"/>
<path d="M243.872 252.144C240.814 255.261 240.521 260.02 243.872 276.799C247.223 293.578 258.106 315.226 260.02 319.545C261.934 323.857 264.816 326.416 273.763 324.495C282.709 322.581 312.585 314.566 312.585 314.566C310.774 309.176 310.231 302.297 311.309 296.372L279.673 300.522C279.673 300.522 274.467 279.696 272.604 273.382C268.967 261.062 257.431 244.312 243.872 252.137V252.144Z" fill="#88CFF3"/>
<path d="M142.315 338.289L140.885 351.826H213.103V338.289H142.315Z" fill="black"/>
<path d="M225.733 272.356C225.733 272.356 233.411 267.318 237.151 265.323C243.113 262.14 244.837 260.718 247.814 261.4C252.28 262.426 255.983 263.02 255.895 264.714C255.807 266.408 252.053 266.804 249.259 266.291C252.727 268.176 256.13 268.858 260.391 268.63C264.644 268.403 265.458 268.968 266.199 270.178C266.939 271.388 265.773 272.502 265.773 272.502C267.071 272.392 268.773 272.612 269.389 274.38C269.895 275.832 268.465 277.225 267.599 277.379C268.919 278.516 267.944 281.273 265.693 281.581C266.287 282.806 265.201 284.661 261.747 284.976C257.435 285.365 252.339 284.866 248.525 284.192C241.705 282.982 241.456 284.038 239.197 285.556C236.301 287.514 234.849 288.445 234.849 288.445C234.849 288.445 231.431 288.526 228.168 282.578C224.905 276.624 225.733 272.356 225.733 272.356Z" fill="#FFB573"/>
<path d="M223.899 273.06L231.064 268.623C231.064 268.623 231.064 273.624 233.953 278.838C236.842 284.052 240.707 285.196 240.707 285.196L234.21 289.67C234.21 289.67 225.447 284.822 223.899 273.06Z" fill="url(#paint39_linear_47_9)"/>
<path d="M265.692 281.574C264.563 279.638 261.783 279.982 259.869 280.004C257.794 280.07 255.704 279.902 253.643 279.623C254.648 279.916 255.689 280.078 256.731 280.202C258.799 280.525 260.925 280.158 262.986 280.327C263.983 280.444 265.113 280.664 265.692 281.574Z" fill="#FB929C"/>
<path d="M267.599 277.372C266.029 275.465 263.25 276.287 261.123 276.199C258.872 276.221 256.613 276.184 254.362 275.979C256.584 276.455 258.865 276.529 261.131 276.543C263.294 276.624 265.846 275.7 267.599 277.372Z" fill="#FB929C"/>
<path d="M265.765 272.495C262.531 272.333 257.764 272.289 254.582 272.025C258.241 272.773 262.054 272.781 265.765 272.495Z" fill="#FB929C"/>
<path d="M227.038 270.992C226.246 274.732 229.898 286.01 236.836 288.716C236.836 288.716 215.642 306.58 212.885 309.191C210.135 311.802 207.568 313.114 206.248 312.96C204.921 312.806 208.324 280.95 208.324 280.95L227.031 270.992H227.038Z" fill="#01172E"/>
<path d="M157.033 211.789C159.599 213.212 162.767 214.202 165.429 212.97C166.632 212.413 167.593 211.459 168.531 210.528C169.558 209.501 170.585 208.475 171.611 207.448C179.223 199.814 187.393 192.063 192.013 182.192C192.907 180.285 193.787 178.357 194.315 176.325C194.799 174.455 195.041 172.329 194.535 170.437C194.125 168.904 192.658 168.728 191.243 168.999C189.879 169.263 188.661 169.989 187.473 170.701C187.723 169.476 188.214 168.303 188.375 167.056C188.529 165.817 188.273 164.409 187.297 163.631C186.021 162.619 184.173 163.059 182.619 163.551C171.472 167.1 160.054 171.097 151.423 179.002C150.455 179.882 149.523 180.828 148.863 181.957C146.869 185.389 147.815 189.709 148.959 193.507C150.513 198.655 152.332 203.723 154.407 208.68C155.038 210.183 155.603 211.005 157.025 211.797L157.033 211.789Z" fill="#0A2540"/>
<path d="M183.924 180.659C184.107 180.454 184.291 180.249 184.467 180.043C185.061 179.339 185.655 178.577 186.498 178.188C189.893 176.626 191.895 183.285 192.665 185.433C193.575 187.985 194.139 190.64 194.631 193.295C195.247 196.609 196.163 202.505 196.193 206.759C196.222 210.909 195.921 215.06 194.821 217.935C192.819 223.193 187.341 224.241 183.521 224.344C183.528 225.576 183.55 227.82 183.55 227.82C183.55 231.01 185.295 231.978 186.505 232.638C186.381 237.493 184.987 241.269 178.101 243.227C171.215 245.185 156.541 242.399 154.495 234.31C158.793 231.839 161.946 230.761 161.946 226.287C161.946 223.09 161.763 215.925 161.763 215.925C161.763 215.925 157.744 216.461 155.023 211.782C152.149 206.847 151.826 200.203 156.541 198.509C160.208 197.189 162.811 199.308 164.058 202.271C164.542 203.422 166.031 204.075 167.006 203.07C167.769 202.285 167.622 201.083 167.637 200.085C167.644 199.33 168.04 198.751 168.414 198.135C169.492 196.375 170.328 193.661 170.357 191.615C170.379 190.149 170.159 188.675 169.712 187.281C173.584 186.592 177.544 185.705 180.778 183.468C181.937 182.669 182.978 181.701 183.924 180.659Z" fill="#FFB573"/>
<path d="M183.513 224.351C178.505 224.139 169.316 221.821 165.767 215.375C167.607 224.608 177.001 227.937 183.543 227.82L183.513 224.344V224.351Z" fill="#FF9E47"/>
<path d="M161.755 215.925C163.192 215.639 163.955 214.525 164.549 212.809C164.974 214.715 163.258 216.365 161.755 215.925Z" fill="#FB929C"/>
<path d="M185.111 234.002L198.37 239.861C198.37 239.861 205.439 265.689 206.591 292.573C207.742 319.457 207.053 338.289 207.053 338.289C197.094 343.151 171.545 340.563 146.655 338.289V241.79L159.833 232.103C159.833 232.103 179.193 240.228 182.442 239.861C185.691 239.495 185.111 234.002 185.111 234.002Z" fill="url(#paint40_linear_47_9)"/>
<path d="M190.531 336.068C182.977 333.853 182.222 321.555 182.222 321.555L188.309 320.807C190.941 327.803 192.679 327.913 193.567 322.501L194.843 305.715H146.655V338.29C171.537 340.563 197.094 343.152 207.053 338.29C207.053 338.29 207.111 336.632 207.17 333.626C200.827 335.562 194.014 337.087 190.538 336.068H190.531Z" fill="#B2D4FE"/>
<path d="M185.904 234.002C190.202 239.465 194.609 245.86 198.144 260.431C201.678 275.003 203.666 298.147 203.666 310.129C203.666 322.112 204.37 341.978 204.37 341.978C207.794 341.465 210.86 340.453 213.104 338.297C212.51 314.082 212.957 277.775 206.936 251.976C204.604 241.973 200.564 238.38 194.499 235.381C188.427 232.389 184.115 230.885 184.115 230.885L185.904 234.002Z" fill="#0A2540"/>
<path d="M181.717 239.319L182.993 238.769C182.993 238.769 186.286 239.891 186.836 243.301C187.393 246.711 186.293 250.752 186.293 250.752L182.641 251.39C182.641 251.39 180.023 247.422 179.158 246.08C178.285 244.731 181.724 239.326 181.724 239.326L181.717 239.319Z" fill="#2FB4F7"/>
<path d="M186.293 250.744C189.901 260.835 198.928 296.211 198.598 301.755C198.268 307.299 196.185 325.889 193.56 326.373C190.935 326.857 185.119 308.113 184.525 304.035C183.931 299.958 182.633 251.382 182.633 251.382L186.285 250.744H186.293Z" fill="#2FB4F7"/>
<path d="M182.993 238.769C182.7 236.547 184.027 232.315 183.543 230.563V228.326C183.543 228.326 184.005 228.165 184.687 228.883C186.381 230.665 188.486 238.483 189.358 241.306C191.287 247.488 190.246 251.243 190.246 251.243C190.246 251.243 187.481 243.924 182.986 238.761L182.993 238.769Z" fill="#88CFF3"/>
<path d="M181.717 239.319C181.717 239.319 170.174 238.285 162.041 226.911L161.946 225.598C161.946 225.598 161.264 225.158 159.988 227.248C159.064 228.759 153.557 234.589 153.557 234.589C153.557 234.589 161.132 249.424 178.739 253.179C178.974 246.139 181.724 239.319 181.724 239.319H181.717Z" fill="#88CFF3"/>
<path d="M158.515 229.089C159.512 233.438 167.293 241.233 172.573 256.721C177.86 272.209 179.356 280.635 180.148 301.513C180.889 321.005 179.07 343.379 179.07 343.379C164.836 342.873 152.259 341.37 142.308 338.29C142.308 338.29 146.51 307.512 145.557 294.092C144.603 280.672 142.594 236.833 142.594 236.833C142.594 236.833 152.318 234.53 158.507 229.089H158.515Z" fill="#0A2540"/>
<path d="M142.593 236.825C135.678 238.255 132.605 241.174 127.751 256.552C122.896 271.93 114.969 304.16 114.155 311.442L141.904 296.871L149.435 275.655C149.435 275.655 152.42 244.943 142.593 236.818V236.825Z" fill="#01172E"/>
<path d="M180.64 257.682L138.883 264.475C137.676 264.672 136.856 265.81 137.053 267.017L146.064 322.411C146.261 323.618 147.398 324.437 148.606 324.241L190.363 317.448C191.57 317.252 192.389 316.114 192.193 314.906L183.182 259.513C182.985 258.305 181.847 257.486 180.64 257.682Z" fill="#FA5B7E"/>
<path d="M167.402 295.426C168.971 294.971 171.134 292.639 172.542 289.479C174.368 285.394 173.356 279.542 173.246 277.599C173.129 275.655 175.644 273.947 177.236 276.917C178.834 279.887 180.081 283.759 180.484 285.643C180.484 285.643 184.21 284.103 186.996 283.421C189.783 282.739 191.609 281.991 192.408 284.587C193.208 287.183 190.626 289.127 190.626 289.127C190.626 289.127 191.609 290.271 191.719 292.661C191.829 295.052 191.037 295.969 191.037 295.969C191.037 295.969 192.746 301.219 188.412 304.981C184.078 308.743 167.629 312.285 167.629 312.285L167.402 295.426Z" fill="#FBC8C7"/>
<path d="M160.244 296.423L167.629 295.169C167.629 295.169 168.795 298.249 169.249 304.409C169.704 310.569 169.249 313.422 169.249 313.422L162.063 314.793L160.237 296.423H160.244Z" fill="url(#paint41_linear_47_9)"/>
<path d="M161.755 295.741L141.904 296.878L114.154 311.449C113.348 318.739 115.452 322.948 124.025 322.457C132.605 321.973 163.508 315.659 163.508 315.659C163.508 315.659 164.842 306.917 161.748 295.741H161.755Z" fill="#01172E"/>
<path d="M484.181 338.282V351.826H565.258C564.906 347.852 563.989 343.334 562.515 338.282H484.181Z" fill="#4862AA"/>
<path d="M472.057 273.587C467.327 269.004 465.699 267.64 461.776 264.839C457.193 261.568 454.325 259.647 449.962 260.901C445.599 262.162 441.983 262.998 442.174 264.663C442.365 266.327 446.097 266.496 448.833 265.821C445.518 267.897 442.189 268.777 437.965 268.806C433.741 268.835 432.978 269.444 432.318 270.683C431.658 271.923 432.883 272.957 432.883 272.957C431.592 272.927 429.92 273.243 429.421 275.032C429.011 276.499 430.507 277.789 431.372 277.885C430.133 279.087 431.269 281.757 433.513 281.925C433 283.172 434.188 284.939 437.62 285.042C441.903 285.167 446.919 284.367 450.651 283.465C457.325 281.859 458.388 283.693 459.649 284.859C462.194 287.205 462.759 287.543 462.759 287.543C462.759 287.543 467.811 286.714 470.679 280.635C473.546 274.555 472.065 273.58 472.065 273.58L472.057 273.587Z" fill="#FFB573"/>
<path d="M433.499 281.933C434.496 279.953 437.268 280.121 439.16 280.026C441.221 279.967 443.274 279.674 445.298 279.271C444.323 279.623 443.296 279.843 442.277 280.033C440.253 280.473 438.126 280.239 436.095 280.539C435.12 280.715 434.012 281.001 433.499 281.933Z" fill="#FB929C"/>
<path d="M431.365 277.892C432.802 275.912 435.596 276.557 437.694 276.337C439.923 276.22 442.152 276.044 444.367 275.714C442.204 276.323 439.945 276.528 437.708 276.682C435.574 276.887 432.993 276.132 431.358 277.892H431.365Z" fill="#FB929C"/>
<path d="M432.876 272.964C436.066 272.612 440.774 272.274 443.913 271.827C440.341 272.788 436.572 273.022 432.876 272.964Z" fill="#FB929C"/>
<path d="M471.537 272.972C471.889 276.741 468.97 285.086 461.828 286.956C461.828 286.956 479.413 307.849 481.826 310.724C484.238 313.606 486.614 315.19 487.934 315.182C489.254 315.182 489.071 284.815 489.071 284.815L471.537 272.972Z" fill="#88CFF3"/>
<path d="M503.899 239.891C496.096 241.497 491.931 243.645 489.555 249.505C487.186 255.364 484.282 268.153 484.282 268.153L503.892 239.891H503.899Z" fill="#88CFF3"/>
<path d="M534.618 182.581C534.486 179.589 527.754 170.488 514.283 173.355C500.819 176.223 494.285 183.321 492.914 192.173C491.542 201.024 499.968 206.311 499.968 206.311C510.543 208.79 518.302 215.441 525.334 223.405C526.002 224.161 527.087 225.539 528.187 225.671C529.302 225.803 530.746 224.505 531.641 223.919C534.09 222.32 536.415 220.523 538.571 218.551C540.199 217.062 541.739 215.463 542.993 213.645C545.508 210 546.792 205.556 546.799 201.134C546.799 195.069 544.848 187.729 539.495 184.443C536.914 182.859 534.618 182.544 534.618 182.573V182.581Z" fill="#0A2540"/>
<path d="M507.412 186.232C507.199 186.086 506.957 185.983 506.7 185.939C505.74 185.785 504.346 186.467 503.642 187.12C503.004 187.714 502.528 188.469 502.132 189.246C500.944 191.608 500.372 194.299 499.829 196.873C498.832 201.544 498.04 211.664 498.399 216.057C498.685 219.562 499.015 220.655 499.528 222.078C501.486 227.475 507.155 228.516 511.555 228.135C511.65 230.188 511.775 232.359 511.731 234.28C511.658 237.485 510.22 239.208 506.781 239.729C504.346 245.911 500.401 257.263 513.19 258.114C533.13 259.448 535.051 245.06 536.928 237.148C533.467 234.2 531.905 232.696 532.088 227.277C532.235 222.972 532.682 216.717 532.682 216.717C532.682 216.717 536.811 217.692 539.869 213.344C543.074 208.79 543.264 203.018 538.644 201.427C535.051 200.188 532.059 203.246 530.886 206.157C530.431 207.286 528.986 207.946 528.018 206.978C526.882 205.834 527.828 204.052 526.999 202.828C526.478 202.065 525.84 201.559 525.466 200.664C525.114 199.814 524.931 198.897 524.872 197.988C524.748 196.008 525.144 194.035 525.254 192.055C525.298 191.168 525.283 190.244 524.894 189.437C524.124 187.846 522.122 187.222 520.362 187.376C517.788 187.596 515.552 189.056 513.557 190.588C512.743 191.219 512.178 191.652 511.115 191.593C509.854 191.52 509.23 190.581 508.9 189.444C508.695 188.74 508.592 188 508.284 187.325C508.086 186.892 507.786 186.489 507.404 186.225L507.412 186.232Z" fill="#FFB573"/>
<path d="M511.555 228.135C515.391 228.01 522.922 226.118 526.86 219.621C525.481 228.362 518.053 231.149 511.673 231.127L511.555 228.135Z" fill="#FF9E47"/>
<path d="M553.745 338.281C551.721 328.169 546.213 299.994 546.807 295.279C547.541 289.515 554.471 247.311 554.471 247.311L536.937 237.155L536.585 243.542C528.555 248.287 510.661 249.746 502.617 243.542C502.617 243.542 490.949 265.08 490.949 289.5V338.289C505.565 342.461 528.863 340.899 553.745 338.289V338.281Z" fill="url(#paint42_linear_47_9)"/>
<path d="M553.745 338.282C551.721 328.169 546.213 299.994 546.807 295.279C547.049 293.387 547.951 287.586 549.066 280.634C548.289 281.786 525.68 315.101 519.212 323.131C512.634 331.3 501.282 332.261 490.949 327.7V338.282C505.565 342.454 528.863 340.892 553.745 338.282Z" fill="#B2D4FE"/>
<path d="M562.508 338.282C558.658 328.858 548.663 303.962 548.795 299.95C548.978 294.135 553.224 277.73 556.238 265.051C559.34 252.02 557.169 247.678 557.169 247.678C557.169 247.678 555.307 246.285 548.325 242.42C541.344 238.563 534.011 235.05 534.011 235.05C524.463 249.541 521.683 267.838 521.683 290.094C521.683 307.65 524.529 334.527 525.401 343.07C537.428 346.033 549.865 343.488 562.508 338.267V338.282Z" fill="#2FB4F7"/>
<path d="M484.18 338.282C486.571 339.279 490.069 340.218 494.491 341.098C494.322 330.34 493.992 295.279 495.664 276.997C496.353 269.473 497.805 257.395 506.327 243.792C507.764 241.489 510.448 238.871 511.284 236.781C509.649 238.578 503.907 239.891 503.907 239.891C503.907 239.891 496.559 245.119 490.531 255.635C485.515 264.391 483.491 267.625 483.117 275.743C482.75 283.861 485.881 290.131 485.698 297.076C485.551 302.701 484.554 328.653 484.18 338.282Z" fill="#2FB4F7"/>
<path d="M537.648 335.261C535.763 338.003 534.267 339.661 529.457 339.103C525.973 338.7 521.874 338.04 518.823 337.637C515.773 337.233 514.042 338.561 510.126 342.403C506.217 346.246 501.37 352.193 505.33 354.371C509.283 356.549 513.8 355.801 516.851 354.767C519.901 353.741 520.884 352.193 525.9 354.914C530.916 357.635 536.328 357.114 539.833 354.892C543.339 352.67 548.149 346.928 548.149 346.928C548.149 346.928 546.668 337.219 537.655 335.261H537.648Z" fill="#FFB573"/>
<path d="M553.341 244.914C561.811 248.419 566.175 253.479 567.487 258.781C568.712 263.739 571.851 276.455 575.165 288.452C579.463 304.021 580.871 307.775 575.679 315.923C571.015 323.241 548.472 347.595 548.472 347.595C548.472 347.595 542.921 338.216 537.648 335.261C537.648 335.261 553.466 309.484 554.009 305.751C553.796 304.175 545.231 286.105 543.551 277.899C541.205 266.459 543.441 252.284 553.341 244.921V244.914Z" fill="#88CFF3"/>
<path d="M547.254 334.828C546.638 334.124 545.978 333.449 545.252 332.863C544.871 332.555 544.482 332.269 544.079 331.99C543.705 331.733 543.316 331.396 542.847 331.381C542.708 331.381 542.554 331.484 542.59 331.638C542.693 332.027 543.089 332.144 543.412 332.349C543.756 332.562 544.094 332.789 544.424 333.024C545.201 333.581 545.956 334.19 546.646 334.857C548.068 336.229 549.242 337.886 550.151 339.646C550.195 339.734 550.268 339.631 550.239 339.565C549.513 337.82 548.494 336.251 547.247 334.828H547.254Z" fill="#5586FC"/>
<g style="mix-blend-mode:multiply">
<path d="M460.449 360.062L520.355 372.242L547.269 361.11L540.867 360.062H460.449Z" fill="#9DC4FC"/>
</g>
<path d="M519.146 368.906C520.239 369.419 522.307 368.73 527.689 366.625C534.429 364 539.547 361.954 540.273 361.616C541.337 361.118 541.454 361.103 541.454 360.443V359.6C541.454 359.6 539.701 358.896 538.616 358.668C535.829 358.096 517.474 353.975 517.474 353.975L519.146 368.906Z" fill="#B2D4FE"/>
<path d="M518.919 367.102C519.63 367.813 520.136 368.084 527.873 365.107C536.614 361.741 539.481 360.634 540.875 360.062C542.261 359.49 541.029 359.233 538.616 358.676C534.979 357.825 517.474 353.982 517.474 353.982L518.926 367.109L518.919 367.102Z" fill="#DEEDFE"/>
<path d="M460.992 359.497L518.852 369.58C519.439 369.668 519.952 369.17 519.886 368.583L514.496 320.234C514.313 318.658 513.103 317.382 511.541 317.132C494.271 314.36 483.073 312.74 457.788 308.648C455.771 308.318 454.172 309.718 454.451 311.742C455.492 325.038 457.48 343.327 459.416 357.986C459.614 359.057 460.274 359.336 461 359.497H460.992Z" fill="#B2D4FE"/>
<path d="M460.45 360.062L518.31 370.145C518.896 370.233 519.41 369.734 519.344 369.148L513.954 320.799C513.77 319.222 512.56 317.946 510.998 317.697C493.728 314.925 482.53 313.304 457.245 309.212C455.228 308.882 453.63 310.283 453.908 312.307C454.95 325.602 456.937 343.892 458.873 358.551C459.071 359.622 459.731 359.9 460.457 360.062H460.45Z" fill="url(#paint43_linear_47_9)"/>
<path d="M513.954 320.799C513.771 319.222 512.561 317.946 510.999 317.697C507.479 317.132 503.409 316.494 499.808 315.922C503.907 317.081 507.596 317.792 509.055 320.96C511.461 326.204 508.747 346.414 491.067 355.412C474.229 363.978 461.55 357.752 457.898 350.932C458.221 353.542 458.543 356.102 458.866 358.551C459.064 359.622 459.724 359.9 460.45 360.062L518.31 370.145C518.383 370.152 518.457 370.16 518.523 370.145C518.735 370.123 518.926 370.035 519.065 369.896C519.256 369.712 519.366 369.441 519.337 369.14L513.947 320.792L513.954 320.799Z" fill="#EBF7FF"/>
<path d="M488.961 339.946C489.43 342.645 487.847 344.837 485.427 344.837C483.007 344.837 480.66 342.645 480.191 339.946C479.721 337.247 481.305 335.055 483.725 335.055C486.145 335.055 488.492 337.247 488.961 339.946Z" fill="#CBE3FE"/>
<path d="M93.7532 156.569C93.7532 158.057 94.9558 159.26 96.4445 159.26H144.808C143.649 154.831 139.616 151.56 134.82 151.56C133.867 151.56 132.935 151.692 132.055 151.934V145.891C132.055 143.002 130.889 140.384 128.99 138.492C127.098 136.593 124.48 135.427 121.591 135.427C115.812 135.427 111.126 140.113 111.126 145.891V149.184C109.916 148.385 108.471 147.923 106.917 147.923C103.265 147.923 100.207 150.467 99.4145 153.877H96.4372C94.9485 153.877 93.7458 155.08 93.7458 156.569H93.7532Z" fill="#EBF7FF"/>
<path d="M582.821 146.141C582.821 147.622 581.618 148.817 580.144 148.817H531.935C533.086 144.403 537.112 141.139 541.886 141.139C542.839 141.139 543.763 141.271 544.643 141.513V138.793C544.643 135.911 545.809 133.3 547.701 131.415C549.586 129.523 552.197 128.357 555.079 128.357C560.843 128.357 565.514 133.029 565.514 138.793V138.771C566.717 137.979 568.161 137.517 569.716 137.517C573.361 137.517 576.404 140.054 577.189 143.457H580.159C581.64 143.457 582.835 144.659 582.835 146.133L582.821 146.141Z" fill="#EBF7FF"/>
<path d="M178.747 126.781C178.747 127.91 177.83 128.82 176.708 128.82H141.01C141.89 125.461 144.948 122.975 148.592 122.975C149.318 122.975 150.022 123.078 150.69 123.261V121.296C150.69 119.103 151.577 117.116 153.014 115.678C154.452 114.241 156.439 113.354 158.632 113.354C163.017 113.354 166.574 116.91 166.574 121.296V121.171C167.49 120.57 168.59 120.218 169.771 120.218C172.543 120.218 174.86 122.154 175.462 124.742H176.708C177.838 124.742 178.747 125.659 178.747 126.781Z" fill="#EBF7FF"/>
<path d="M262.075 132.479C262.075 116.17 246.734 102.948 227.807 102.948C208.879 102.948 193.538 116.17 193.538 132.479C193.538 145.144 202.785 155.938 215.773 160.14C215.582 164.02 212.751 168.075 208.293 169.835C207.955 169.967 208.051 170.429 208.41 170.451C215.743 170.884 221.419 170.172 228.826 161.996C247.269 161.526 262.061 148.495 262.061 132.486L262.075 132.479Z" fill="#635BFF"/>
<path d="M434.519 132.765C434.519 116.294 450 102.94 469.103 102.94C488.207 102.94 503.687 116.294 503.687 132.765C503.687 145.554 494.352 156.452 481.247 160.698C481.438 164.614 484.291 168.706 488.793 170.488C489.131 170.62 489.043 171.089 488.669 171.111C481.269 171.551 475.542 170.832 468.062 162.575C449.443 162.098 434.519 148.942 434.519 132.772V132.765Z" fill="#2FB4F7"/>
<path d="M355.092 131.151C355.092 114.842 339.75 101.62 320.823 101.62C301.896 101.62 286.554 114.842 286.554 131.151C286.554 143.816 295.802 154.611 308.789 158.813C308.598 162.692 305.768 166.747 301.309 168.507C300.972 168.639 301.067 169.101 301.426 169.123C308.76 169.556 314.436 168.845 321.842 160.668C340.286 160.199 355.077 147.167 355.077 131.159L355.092 131.151Z" fill="#2FB4F7"/>
<path d="M334.082 147.52C334.082 131.21 349.423 117.988 368.35 117.988C387.278 117.988 402.619 131.21 402.619 147.52C402.619 160.184 393.372 170.979 380.384 175.181C380.575 179.06 383.406 183.116 387.864 184.876C388.202 185.008 388.106 185.47 387.747 185.492C380.414 185.924 374.738 185.213 367.331 177.036C348.888 176.567 334.096 163.536 334.096 147.527L334.082 147.52Z" fill="#635BFF"/>
<g style="mix-blend-mode:multiply">
<path d="M355.092 131.151C355.092 142.723 347.37 152.733 336.128 157.581C334.801 154.442 334.09 151.054 334.09 147.519C334.09 135.94 341.812 125.923 353.054 121.083C354.374 124.229 355.092 127.617 355.092 131.151Z" fill="#2FB4F7"/>
</g>
<defs>
<filter id="filter0_d_47_9" x="0" y="0" width="704" height="482" filterUnits="userSpaceOnUse" color-interpolation-filters="sRGB">
<feFlood flood-opacity="0" result="BackgroundImageFix"/>
<feColorMatrix in="SourceAlpha" type="matrix" values="0 0 0 0 0 0 0 0 0 0 0 0 0 0 0 0 0 0 127 0" result="hardAlpha"/>
<feOffset dx="4" dy="8"/>
<feGaussianBlur stdDeviation="8"/>
<feComposite in2="hardAlpha" operator="out"/>
<feColorMatrix type="matrix" values="0 0 0 0 0.388235 0 0 0 0 0.356863 0 0 0 0 1 0 0 0 0.1 0"/>
<feBlend mode="normal" in2="BackgroundImageFix" result="effect1_dropShadow_47_9"/>
<feBlend mode="normal" in="SourceGraphic" in2="effect1_dropShadow_47_9" result="shape"/>
</filter>
<filter id="filter1_d_47_9" x="323.286" y="306.854" width="22.4167" height="18.4297" filterUnits="userSpaceOnUse" color-interpolation-filters="sRGB">
<feFlood flood-opacity="0" result="BackgroundImageFix"/>
<feColorMatrix in="SourceAlpha" type="matrix" values="0 0 0 0 0 0 0 0 0 0 0 0 0 0 0 0 0 0 127 0" result="hardAlpha"/>
<feOffset/>
<feGaussianBlur stdDeviation="1.5"/>
<feComposite in2="hardAlpha" operator="out"/>
<feColorMatrix type="matrix" values="0 0 0 0 0 0 0 0 0 0 0 0 0 0 0 0 0 0 0.15 0"/>
<feBlend mode="normal" in2="BackgroundImageFix" result="effect1_dropShadow_47_9"/>
<feBlend mode="normal" in="SourceGraphic" in2="effect1_dropShadow_47_9" result="shape"/>
</filter>
<filter id="filter2_d_47_9" x="329.915" y="289.842" width="40.2109" height="27.0713" filterUnits="userSpaceOnUse" color-interpolation-filters="sRGB">
<feFlood flood-opacity="0" result="BackgroundImageFix"/>
<feColorMatrix in="SourceAlpha" type="matrix" values="0 0 0 0 0 0 0 0 0 0 0 0 0 0 0 0 0 0 127 0" result="hardAlpha"/>
<feOffset/>
<feGaussianBlur stdDeviation="1.5"/>
<feComposite in2="hardAlpha" operator="out"/>
<feColorMatrix type="matrix" values="0 0 0 0 0 0 0 0 0 0 0 0 0 0 0 0 0 0 0.15 0"/>
<feBlend mode="normal" in2="BackgroundImageFix" result="effect1_dropShadow_47_9"/>
<feBlend mode="normal" in="SourceGraphic" in2="effect1_dropShadow_47_9" result="shape"/>
</filter>
<linearGradient id="paint0_linear_47_9" x1="348" y1="8" x2="348" y2="458" gradientUnits="userSpaceOnUse">
<stop offset="0.5" stop-color="#DEEAF6"/>
<stop offset="1" stop-color="white"/>
</linearGradient>
<linearGradient id="paint1_linear_47_9" x1="346.863" y1="611.052" x2="346.863" y2="360.685" gradientUnits="userSpaceOnUse">
<stop stop-color="white"/>
<stop offset="0.41" stop-color="#FCFDFE"/>
<stop offset="0.69" stop-color="#F3F8FE"/>
<stop offset="0.93" stop-color="#E4F0FE"/>
<stop offset="1" stop-color="#DEEDFE"/>
</linearGradient>
<linearGradient id="paint2_linear_47_9" x1="98.9172" y1="410.918" x2="118.409" y2="354.004" gradientUnits="userSpaceOnUse">
<stop stop-color="#40C9E2"/>
<stop offset="1" stop-color="#5586FC"/>
</linearGradient>
<linearGradient id="paint3_linear_47_9" x1="97.9119" y1="370.116" x2="104.431" y2="351.086" gradientUnits="userSpaceOnUse">
<stop stop-color="#40C9E2"/>
<stop offset="1" stop-color="#5586FC"/>
</linearGradient>
<linearGradient id="paint4_linear_47_9" x1="598.346" y1="410.919" x2="578.854" y2="354.005" gradientUnits="userSpaceOnUse">
<stop stop-color="#40C9E2"/>
<stop offset="1" stop-color="#5586FC"/>
</linearGradient>
<linearGradient id="paint5_linear_47_9" x1="599.342" y1="370.116" x2="592.83" y2="351.086" gradientUnits="userSpaceOnUse">
<stop stop-color="#40C9E2"/>
<stop offset="1" stop-color="#5586FC"/>
</linearGradient>
<linearGradient id="paint6_linear_47_9" x1="368.783" y1="393.135" x2="367.426" y2="410.537" gradientUnits="userSpaceOnUse">
<stop stop-color="#EBF7FF"/>
<stop offset="0.98" stop-color="white"/>
</linearGradient>
<linearGradient id="paint7_linear_47_9" x1="424.917" y1="461.628" x2="418.215" y2="368.223" gradientUnits="userSpaceOnUse">
<stop offset="0.02" stop-color="white"/>
<stop offset="1" stop-color="#EBF7FF"/>
</linearGradient>
<linearGradient id="paint8_linear_47_9" x1="398.261" y1="472.973" x2="399.501" y2="344.669" gradientUnits="userSpaceOnUse">
<stop stop-color="#4862AA"/>
<stop offset="0.31" stop-color="#445FA6"/>
<stop offset="0.6" stop-color="#3A559B"/>
<stop offset="0.88" stop-color="#2A4688"/>
<stop offset="0.99" stop-color="#223F7F"/>
</linearGradient>
<linearGradient id="paint9_linear_47_9" x1="397.272" y1="418.457" x2="413.09" y2="418.457" gradientUnits="userSpaceOnUse">
<stop stop-color="#81BFFD"/>
<stop offset="0.32" stop-color="#7DBCFC"/>
<stop offset="0.61" stop-color="#72B4FC"/>
<stop offset="0.89" stop-color="#5FA6FC"/>
<stop offset="1" stop-color="#569FFC"/>
</linearGradient>
<linearGradient id="paint10_linear_47_9" x1="434.306" y1="473.149" x2="435.545" y2="344.354" gradientUnits="userSpaceOnUse">
<stop stop-color="#4862AA"/>
<stop offset="0.31" stop-color="#445FA6"/>
<stop offset="0.6" stop-color="#3A559B"/>
<stop offset="0.88" stop-color="#2A4688"/>
<stop offset="0.99" stop-color="#223F7F"/>
</linearGradient>
<linearGradient id="paint11_linear_47_9" x1="280.798" y1="459.326" x2="280.321" y2="375.983" gradientUnits="userSpaceOnUse">
<stop offset="0.02" stop-color="white"/>
<stop offset="1" stop-color="#EBF7FF"/>
</linearGradient>
<linearGradient id="paint12_linear_47_9" x1="272.586" y1="465.332" x2="264.482" y2="360.531" gradientUnits="userSpaceOnUse">
<stop stop-color="#81BFFD"/>
<stop offset="0.32" stop-color="#7DBCFC"/>
<stop offset="0.61" stop-color="#72B4FC"/>
<stop offset="0.89" stop-color="#5FA6FC"/>
<stop offset="1" stop-color="#569FFC"/>
</linearGradient>
<linearGradient id="paint13_linear_47_9" x1="288.968" y1="412.238" x2="317.935" y2="412.238" gradientUnits="userSpaceOnUse">
<stop stop-color="#81BFFD"/>
<stop offset="0.32" stop-color="#7DBCFC"/>
<stop offset="0.61" stop-color="#72B4FC"/>
<stop offset="0.89" stop-color="#5FA6FC"/>
<stop offset="1" stop-color="#569FFC"/>
</linearGradient>
<linearGradient id="paint14_linear_47_9" x1="310.058" y1="400.38" x2="318.689" y2="400.38" gradientUnits="userSpaceOnUse">
<stop stop-color="#EBF7FF"/>
<stop offset="0.98" stop-color="white"/>
</linearGradient>
<linearGradient id="paint15_linear_47_9" x1="241.462" y1="417.46" x2="312.588" y2="417.46" gradientUnits="userSpaceOnUse">
<stop stop-color="#81BFFD"/>
<stop offset="0.32" stop-color="#7DBCFC"/>
<stop offset="0.61" stop-color="#72B4FC"/>
<stop offset="0.89" stop-color="#5FA6FC"/>
<stop offset="1" stop-color="#569FFC"/>
</linearGradient>
<linearGradient id="paint16_linear_47_9" x1="234.174" y1="417.012" x2="230.045" y2="436.365" gradientUnits="userSpaceOnUse">
<stop stop-color="#EBF7FF"/>
<stop offset="0.98" stop-color="white"/>
</linearGradient>
<linearGradient id="paint17_linear_47_9" x1="179.678" y1="467.297" x2="174.413" y2="370.065" gradientUnits="userSpaceOnUse">
<stop offset="0.02" stop-color="white"/>
<stop offset="1" stop-color="#EBF7FF"/>
</linearGradient>
<linearGradient id="paint18_linear_47_9" x1="199.127" y1="474.066" x2="197.873" y2="344.691" gradientUnits="userSpaceOnUse">
<stop stop-color="#4862AA"/>
<stop offset="0.31" stop-color="#445FA6"/>
<stop offset="0.6" stop-color="#3A559B"/>
<stop offset="0.88" stop-color="#2A4688"/>
<stop offset="0.99" stop-color="#223F7F"/>
</linearGradient>
<linearGradient id="paint19_linear_47_9" x1="198.606" y1="416.529" x2="182.641" y2="416.529" gradientUnits="userSpaceOnUse">
<stop stop-color="#81BFFD"/>
<stop offset="0.32" stop-color="#7DBCFC"/>
<stop offset="0.61" stop-color="#72B4FC"/>
<stop offset="0.89" stop-color="#5FA6FC"/>
<stop offset="1" stop-color="#569FFC"/>
</linearGradient>
<linearGradient id="paint20_linear_47_9" x1="161.91" y1="475.979" x2="160.803" y2="361.887" gradientUnits="userSpaceOnUse">
<stop stop-color="#4862AA"/>
<stop offset="0.31" stop-color="#445FA6"/>
<stop offset="0.6" stop-color="#3A559B"/>
<stop offset="0.88" stop-color="#2A4688"/>
<stop offset="0.99" stop-color="#223F7F"/>
</linearGradient>
<linearGradient id="paint21_linear_47_9" x1="147.508" y1="469.519" x2="122.927" y2="385.516" gradientUnits="userSpaceOnUse">
<stop stop-color="#4862AA"/>
<stop offset="0.31" stop-color="#445FA6"/>
<stop offset="0.6" stop-color="#3A559B"/>
<stop offset="0.88" stop-color="#2A4688"/>
<stop offset="0.99" stop-color="#223F7F"/>
</linearGradient>
<linearGradient id="paint22_linear_47_9" x1="164.074" y1="391.317" x2="165.379" y2="408.111" gradientUnits="userSpaceOnUse">
<stop stop-color="#EBF7FF"/>
<stop offset="0.98" stop-color="white"/>
</linearGradient>
<linearGradient id="paint23_linear_47_9" x1="160.539" y1="465.699" x2="135.958" y2="381.695" gradientUnits="userSpaceOnUse">
<stop stop-color="#4862AA"/>
<stop offset="0.31" stop-color="#445FA6"/>
<stop offset="0.6" stop-color="#3A559B"/>
<stop offset="0.88" stop-color="#2A4688"/>
<stop offset="0.99" stop-color="#223F7F"/>
</linearGradient>
<linearGradient id="paint24_linear_47_9" x1="461.828" y1="411.014" x2="489.079" y2="411.014" gradientUnits="userSpaceOnUse">
<stop stop-color="#81BFFD"/>
<stop offset="0.32" stop-color="#7DBCFC"/>
<stop offset="0.61" stop-color="#72B4FC"/>
<stop offset="0.89" stop-color="#5FA6FC"/>
<stop offset="1" stop-color="#569FFC"/>
</linearGradient>
<linearGradient id="paint25_linear_47_9" x1="524.55" y1="460.191" x2="521.675" y2="371.099" gradientUnits="userSpaceOnUse">
<stop offset="0.02" stop-color="white"/>
<stop offset="1" stop-color="#EBF7FF"/>
</linearGradient>
<linearGradient id="paint26_linear_47_9" x1="521.684" y1="415.399" x2="563.99" y2="415.399" gradientUnits="userSpaceOnUse">
<stop stop-color="#81BFFD"/>
<stop offset="0.32" stop-color="#7DBCFC"/>
<stop offset="0.61" stop-color="#72B4FC"/>
<stop offset="0.89" stop-color="#5FA6FC"/>
<stop offset="1" stop-color="#569FFC"/>
</linearGradient>
<linearGradient id="paint27_linear_47_9" x1="483.088" y1="416.155" x2="511.277" y2="416.155" gradientUnits="userSpaceOnUse">
<stop stop-color="#81BFFD"/>
<stop offset="0.32" stop-color="#7DBCFC"/>
<stop offset="0.61" stop-color="#72B4FC"/>
<stop offset="0.89" stop-color="#5FA6FC"/>
<stop offset="1" stop-color="#569FFC"/>
</linearGradient>
<linearGradient id="paint28_linear_47_9" x1="534.03" y1="407.251" x2="571.357" y2="410.802" gradientUnits="userSpaceOnUse">
<stop stop-color="#81BFFD"/>
<stop offset="0.32" stop-color="#7DBCFC"/>
<stop offset="0.61" stop-color="#72B4FC"/>
<stop offset="0.89" stop-color="#5FA6FC"/>
<stop offset="1" stop-color="#569FFC"/>
</linearGradient>
<linearGradient id="paint29_linear_47_9" x1="348" y1="354.884" x2="348" y2="416.609" gradientUnits="userSpaceOnUse">
<stop stop-color="white" stop-opacity="0"/>
<stop offset="0.98" stop-color="white"/>
</linearGradient>
<linearGradient id="paint30_linear_47_9" x1="73" y1="94.045" x2="73.7334" y2="344.405" gradientUnits="userSpaceOnUse">
<stop stop-color="white"/>
<stop offset="0.41" stop-color="#FCFDFE"/>
<stop offset="0.69" stop-color="#F3F8FE"/>
<stop offset="0.93" stop-color="#E4F0FE"/>
<stop offset="1" stop-color="#DEEDFE"/>
</linearGradient>
<linearGradient id="paint31_linear_47_9" x1="98.9165" y1="294.172" x2="118.408" y2="351.093" gradientUnits="userSpaceOnUse">
<stop stop-color="#40C9E2"/>
<stop offset="1" stop-color="#5586FC"/>
</linearGradient>
<linearGradient id="paint32_linear_47_9" x1="97.9124" y1="334.974" x2="104.432" y2="354.004" gradientUnits="userSpaceOnUse">
<stop stop-color="#40C9E2"/>
<stop offset="1" stop-color="#5586FC"/>
</linearGradient>
<linearGradient id="paint33_linear_47_9" x1="598.346" y1="294.172" x2="578.854" y2="351.093" gradientUnits="userSpaceOnUse">
<stop stop-color="#40C9E2"/>
<stop offset="1" stop-color="#5586FC"/>
</linearGradient>
<linearGradient id="paint34_linear_47_9" x1="599.342" y1="334.975" x2="592.83" y2="354.005" gradientUnits="userSpaceOnUse">
<stop stop-color="#40C9E2"/>
<stop offset="1" stop-color="#5586FC"/>
</linearGradient>
<linearGradient id="paint35_linear_47_9" x1="73.0001" y1="311.956" x2="367.426" y2="294.561" gradientUnits="userSpaceOnUse">
<stop stop-color="#EBF7FF"/>
<stop offset="0.98" stop-color="white"/>
</linearGradient>
<linearGradient id="paint36_linear_47_9" x1="72.9997" y1="243.462" x2="418.216" y2="336.867" gradientUnits="userSpaceOnUse">
<stop offset="0.02" stop-color="white"/>
<stop offset="1" stop-color="#EBF7FF"/>
</linearGradient>
<linearGradient id="paint37_linear_47_9" x1="280.796" y1="245.772" x2="280.319" y2="329.115" gradientUnits="userSpaceOnUse">
<stop offset="0.02" stop-color="white"/>
<stop offset="1" stop-color="#EBF7FF"/>
</linearGradient>
<linearGradient id="paint38_linear_47_9" x1="310.055" y1="304.717" x2="318.686" y2="304.717" gradientUnits="userSpaceOnUse">
<stop stop-color="#EBF7FF"/>
<stop offset="0.98" stop-color="white"/>
</linearGradient>
<linearGradient id="paint39_linear_47_9" x1="234.173" y1="288.086" x2="230.045" y2="268.733" gradientUnits="userSpaceOnUse">
<stop stop-color="#EBF7FF"/>
<stop offset="0.98" stop-color="white"/>
</linearGradient>
<linearGradient id="paint40_linear_47_9" x1="179.677" y1="237.793" x2="174.412" y2="335.033" gradientUnits="userSpaceOnUse">
<stop offset="0.02" stop-color="white"/>
<stop offset="1" stop-color="#EBF7FF"/>
</linearGradient>
<linearGradient id="paint41_linear_47_9" x1="164.072" y1="313.781" x2="165.377" y2="296.981" gradientUnits="userSpaceOnUse">
<stop stop-color="#EBF7FF"/>
<stop offset="0.98" stop-color="white"/>
</linearGradient>
<linearGradient id="paint42_linear_47_9" x1="524.551" y1="244.899" x2="521.676" y2="333.991" gradientUnits="userSpaceOnUse">
<stop offset="0.02" stop-color="white"/>
<stop offset="1" stop-color="#EBF7FF"/>
</linearGradient>
<linearGradient id="paint43_linear_47_9" x1="494.535" y1="369.551" x2="478.974" y2="312.234" gradientUnits="userSpaceOnUse">
<stop stop-color="#EBF7FF"/>
<stop offset="0.98" stop-color="white"/>
</linearGradient>
</defs>
</svg>
