<svg width="704" height="482" viewBox="0 0 704 482" fill="none" xmlns="http://www.w3.org/2000/svg">
<g filter="url(#filter0_d_47_7)">
<rect x="12" y="8" width="672" height="450" rx="24" fill="url(#paint0_linear_47_7)"/>
<rect x="17" y="13" width="662" height="440" rx="19" stroke="white" stroke-width="10"/>
</g>
<path d="M673.675 439.606C597.033 415.537 478.863 400.106 346.27 400.106C213.677 400.106 98.3688 415.167 21.675 438.731C23.8266 444.238 29.1797 448.15 35.4593 448.15H660.272C666.232 448.15 671.318 444.63 673.675 439.606Z" fill="#635BFF"/>
<path d="M463.029 156.21C471.759 147.13 483.474 140.634 495.879 146.697C502.745 150.053 507.542 156.364 514.285 159.885C518.125 161.882 522.685 162.87 526.834 161.635C530.684 160.482 533.783 157.579 537.52 156.096C553.713 149.662 568.764 173.278 583.124 177.56C592.245 180.278 601.356 176.891 610.569 177.982C623.283 179.485 625.743 190.408 625.743 190.408L442.945 190.686C442.945 190.686 455.452 164.085 463.029 156.21Z" fill="white"/>
<path d="M240.669 101.968C245.796 96.6353 252.673 92.8263 259.951 96.3882C263.986 98.3648 266.797 102.071 270.76 104.13C273.014 105.303 275.691 105.88 278.131 105.159C280.396 104.48 282.207 102.781 284.4 101.906C293.902 98.128 302.745 111.995 311.176 114.506C316.529 116.102 321.882 114.115 327.287 114.754C334.75 115.639 336.202 122.042 336.202 122.042L228.882 122.207C228.882 122.207 236.222 106.59 240.669 101.968Z" fill="white"/>
<path d="M60.1963 216.761C72.4673 204.006 88.9282 194.875 106.357 203.399C116.003 208.124 122.745 216.988 132.227 221.939C137.621 224.75 144.024 226.139 149.861 224.4C155.276 222.783 159.62 218.707 164.87 216.617C187.621 207.578 208.776 240.768 228.954 246.78C241.78 250.599 254.566 245.843 267.527 247.377C285.398 249.498 288.857 264.836 288.857 264.836L31.9895 265.227C31.9895 265.227 49.5622 227.848 60.2066 216.771L60.1963 216.761Z" fill="white"/>
<path d="M312.04 315.053V408.352C312.04 412.235 315.188 415.383 319.071 415.383H373.498C377.381 415.383 380.529 412.235 380.529 408.352V315.053C380.529 311.17 377.381 308.022 373.498 308.022H319.071C315.188 308.022 312.04 311.17 312.04 315.053Z" fill="#0F2363"/>
<g style="mix-blend-mode:multiply">
<path d="M380.519 364.858V315.074C380.519 311.193 377.369 308.042 373.488 308.042H319.071C315.19 308.042 312.04 311.193 312.04 315.074V364.858H380.529H380.519Z" fill="#E09FE2"/>
</g>
<path d="M426.052 419.799H266.508C261.649 419.799 257.707 415.857 257.707 410.998C257.707 406.139 261.649 402.196 266.508 402.196H426.052C430.911 402.196 434.854 406.139 434.854 410.998C434.854 415.857 430.911 419.799 426.052 419.799Z" fill="#0F2363"/>
<path d="M510.528 129.722H182.032C178.149 129.722 175.001 132.87 175.001 136.753V341.221C175.001 345.105 178.149 348.253 182.032 348.253H510.528C514.411 348.253 517.559 345.105 517.559 341.221V136.753C517.559 132.87 514.411 129.722 510.528 129.722Z" fill="#0F2363"/>
<path d="M486.644 151.062H205.914C202.031 151.062 198.883 154.21 198.883 158.093V319.891C198.883 323.774 202.031 326.922 205.914 326.922H486.644C490.528 326.922 493.676 323.774 493.676 319.891V158.093C493.676 154.21 490.528 151.062 486.644 151.062Z" fill="white"/>
<path d="M453.147 326.923V181.225C453.147 178.219 450.717 175.79 447.711 175.79H244.848C241.842 175.79 239.413 178.219 239.413 181.225V326.923H453.147Z" fill="url(#paint1_linear_47_7)"/>
<path d="M441.71 200.084H418.835C418.148 200.084 417.59 200.642 417.59 201.33V204.038C417.59 204.725 418.148 205.283 418.835 205.283H441.71C442.398 205.283 442.955 204.725 442.955 204.038V201.33C442.955 200.642 442.398 200.084 441.71 200.084Z" fill="#2FB4F7"/>
<path d="M408.551 200.084H385.677C384.989 200.084 384.431 200.642 384.431 201.33V204.038C384.431 204.725 384.989 205.283 385.677 205.283H408.551C409.239 205.283 409.797 204.725 409.797 204.038V201.33C409.797 200.642 409.239 200.084 408.551 200.084Z" fill="#2FB4F7"/>
<path d="M375.393 200.084H352.519C351.831 200.084 351.273 200.642 351.273 201.33V204.038C351.273 204.725 351.831 205.283 352.519 205.283H375.393C376.081 205.283 376.639 204.725 376.639 204.038V201.33C376.639 200.642 376.081 200.084 375.393 200.084Z" fill="#2FB4F7"/>
<path d="M342.245 200.084H319.37C318.682 200.084 318.125 200.642 318.125 201.33V204.038C318.125 204.725 318.682 205.283 319.37 205.283H342.245C342.933 205.283 343.49 204.725 343.49 204.038V201.33C343.49 200.642 342.933 200.084 342.245 200.084Z" fill="#2FB4F7"/>
<path d="M442.945 216.309H247.7V263.313H442.945V216.309Z" fill="#2FB4F7"/>
<path d="M312.153 271.61H247.7V318.615H312.153V271.61Z" fill="#635BFF"/>
<path d="M442.955 271.61H323.786V318.615H442.955V271.61Z" fill="#2FB4F7"/>
<path d="M453.147 188.143V181.215C453.147 178.209 450.717 175.779 447.711 175.779H244.848C241.842 175.779 239.413 178.209 239.413 181.215V188.143H453.147Z" fill="#2FB4F7"/>
<path d="M273.323 181.966C273.323 183.356 272.191 184.488 270.801 184.488C269.411 184.488 268.279 183.356 268.279 181.966C268.279 180.576 269.411 179.444 270.801 179.444C272.191 179.444 273.323 180.576 273.323 181.966Z" fill="#FDFDFF"/>
<path d="M263.029 181.966C263.029 183.356 261.896 184.488 260.507 184.488C259.117 184.488 257.984 183.356 257.984 181.966C257.984 180.576 259.117 179.444 260.507 179.444C261.896 179.444 263.029 180.576 263.029 181.966Z" fill="#FDFDFF"/>
<path d="M252.744 181.966C252.744 183.356 251.612 184.488 250.222 184.488C248.833 184.488 247.7 183.356 247.7 181.966C247.7 180.576 248.833 179.444 250.222 179.444C251.612 179.444 252.744 180.576 252.744 181.966Z" fill="#FDFDFF"/>
<g style="mix-blend-mode:multiply">
<path d="M176.905 316.494C177.739 316.134 178.202 315.918 178.202 315.918L174.99 306.601V348.252H184.523C183.967 342.879 182.978 337.526 181.918 332.265C181.362 329.527 178.922 322.434 176.905 316.494Z" fill="#E09FE2"/>
</g>
<path d="M152.219 312.345C151.982 311.872 151.756 311.429 151.529 310.966C153.238 309.875 155.019 308.886 156.82 307.97C157.016 308.629 157.17 309.113 157.242 309.37L158.179 310.276C158.931 310.873 159.682 311.481 160.434 312.078C160.918 312.469 161.401 312.85 161.885 313.241C162.493 313.725 162.904 314.312 163.625 314.672C164.253 314.981 164.932 315.176 165.591 315.423C165.694 315.465 165.807 315.516 165.869 315.609C165.952 315.753 165.9 315.938 165.838 316.103C165.715 316.473 165.571 316.875 165.252 317.112C165.077 317.246 164.86 317.318 164.654 317.379C164.346 317.482 164.016 317.585 163.687 317.575C163.357 317.575 163.193 317.41 162.904 317.297C162.441 317.122 161.844 317.112 161.35 317.019C161.443 317.04 161.607 318.079 161.638 318.182C161.762 318.687 161.865 319.15 161.803 319.685C161.803 319.737 161.793 319.788 161.751 319.829C161.71 319.871 161.659 319.871 161.607 319.881C161.401 319.932 161.257 320.107 161.062 320.19C160.866 320.272 160.65 320.21 160.444 320.282C160.228 320.354 160.073 320.55 159.898 320.694C159.6 320.941 159.26 321.024 158.9 321.096C158.715 321.137 158.57 321.157 158.416 321.281C158.272 321.404 158.159 321.569 157.984 321.641C157.747 321.744 157.531 321.58 157.304 321.518C157.006 321.435 156.882 321.652 156.625 321.734C156.367 321.816 156.131 321.61 155.956 321.415C155.287 320.674 154.216 319.871 153.763 318.975C153.341 318.162 153.279 316.885 153.063 315.969C152.785 314.754 152.497 313.529 152.219 312.314L152.188 312.335L152.219 312.345Z" fill="#FFB573"/>
<path opacity="0.39" d="M253.949 192.991C237.2 179.794 212.925 182.676 199.728 199.425C186.53 216.174 189.413 240.449 206.162 253.646C222.911 266.844 247.185 263.961 260.383 247.212C273.58 230.463 270.698 206.189 253.949 192.991Z" fill="white"/>
<path d="M208.526 255.876L203.432 251.863L142.441 329.284L147.536 333.298L208.526 255.876Z" fill="#0A1123"/>
<path d="M219.432 259.545C219.432 259.545 220.636 264.219 219.205 268.233C217.774 272.248 215.273 274.606 214.068 278.724C213.131 281.956 201.262 307.857 196.681 301.948C196.084 301.176 196.022 300.115 196.043 299.137C196.156 289.955 202.734 283.48 207.994 276.593L209.919 273.803C209.919 273.803 210.053 265.876 211.834 262.294L219.432 259.545Z" fill="#FFB573"/>
<path d="M256.924 189.213C238.085 174.369 210.784 177.611 195.94 196.45C181.095 215.289 184.338 242.59 203.177 257.435C222.016 272.279 249.317 269.037 264.161 250.198C279.006 231.359 275.763 204.058 256.924 189.213ZM208.17 251.104C192.831 239.018 190.185 216.782 202.271 201.433C214.357 186.094 236.593 183.448 251.942 195.534C267.281 207.62 269.926 229.856 257.84 245.205C245.755 260.544 223.519 263.189 208.17 251.104Z" fill="#0A1123"/>
<path d="M141.502 287.773C141.132 288.359 140.854 288.987 140.771 289.667C140.617 290.943 141.163 292.137 141.708 293.239C143.798 297.491 146.022 301.67 148.369 305.767C149.542 307.816 151.045 310.657 152.312 312.634L157.696 309.967C157.696 309.967 151.653 296.482 149.223 289.142C148.77 287.783 148.225 286.311 147 285.662C145.167 284.684 143.983 284.87 142.491 286.506C142.13 286.898 141.791 287.32 141.502 287.773Z" fill="#FFB573"/>
<path d="M155.771 317.719C156.306 317.266 156.543 317.606 156.543 317.606L157.192 319.593C157.161 319.315 157.13 319.026 157.099 318.748C156.975 317.667 156.903 317.915 156.78 316.834C156.78 316.834 158.005 316.062 158.314 317.379L158.293 315.217C158.293 315.217 159.57 313.632 161.639 314.95C161.639 314.95 162.277 318.893 162.257 319.418C162.257 319.665 162.215 319.932 162.02 320.097C161.804 320.282 161.443 320.262 161.207 320.426C160.887 320.653 160.867 321.157 160.506 321.322C160.239 321.435 159.899 321.322 159.652 321.446C159.415 321.569 159.333 321.878 159.106 322.012C158.911 322.125 158.633 322.094 158.427 322.197C158.345 322.238 158.273 322.31 158.18 322.351C158.005 322.444 157.696 322.424 157.521 322.279C157.439 322.259 157.346 322.228 157.243 322.187C155.792 321.621 155.246 318.172 155.771 317.729V317.719Z" fill="#FFB573"/>
<path d="M146.413 293.352C147.906 292.971 149.121 291.705 150.325 290.315C153.269 286.928 156.275 283.583 159.25 280.227C160.578 278.734 161.906 277.241 163.224 275.728C165.901 272.65 169.905 268.162 166.374 264.034C165.571 263.097 163.78 262.798 162.668 262.963C161.834 263.086 161.011 263.539 160.228 264.167C158.561 265.485 157.047 267.575 155.833 268.903C153.341 271.641 150.891 274.441 148.523 277.313C147 279.156 145.507 281.03 144.097 282.965C142.934 284.561 141.307 286.455 140.854 288.462C140.36 290.604 142.028 292.333 143.716 293.064C144.735 293.496 145.62 293.558 146.423 293.352H146.413Z" fill="#FFB573"/>
<path d="M162.822 281.184C165.56 276.727 173.292 267.245 168.011 261.975C162.163 256.148 151.817 272.526 151.817 272.526L162.822 281.184Z" fill="#C0BDFF"/>
<path d="M181.867 351.423C184.131 342.766 184.492 333.634 184.636 324.73C184.708 320.303 182.474 304.12 182.227 299.704C181.753 291.334 180.024 292.93 170.038 295.061C168.772 295.329 167.578 295.843 166.507 296.574C153.948 305.15 161.391 324.802 164.788 335.879C166.26 340.686 168.319 346.441 170.09 351.145C176.544 356.766 181.867 351.423 181.867 351.423Z" fill="#2D447C"/>
<path d="M164.386 409.638C164.551 408.908 164.932 408.197 165.261 407.507C165.354 407.312 166.126 405.376 166.157 405.15C166.579 401.897 166.816 392.848 166.816 392.848L175.834 393.538C175.834 393.538 173.847 401.218 174.701 405.922H174.691C178.469 408.496 185.315 412.089 185.315 412.089C185.315 412.089 193.231 414.117 193.643 414.343C194.045 414.559 195.064 414.94 196.165 416.155C196.165 416.155 196.917 418.317 186.736 418.996C186.736 418.996 182.309 419.562 175.443 417.843C173.95 417.575 172.447 417.308 170.954 417.04C169.42 416.762 164.788 416.196 164.222 415.692C164.006 415.496 163.861 415.311 163.769 415.115C163.079 413.622 164.067 411.152 164.397 409.638H164.386Z" fill="#FFB573"/>
<path d="M165.241 407.549C167.495 408.115 169.966 408.197 172.025 408.125C173.497 408.074 175.165 407.796 176.647 407.188C180.446 409.536 185.305 412.089 185.305 412.089C185.305 412.089 193.221 414.117 193.633 414.343C194.035 414.559 195.054 414.94 196.155 416.155C196.155 416.155 196.907 418.317 186.725 418.996C186.725 418.996 182.299 419.562 175.432 417.843C173.94 417.576 172.437 417.308 170.944 417.04C169.41 416.762 164.778 416.196 164.211 415.692C163.995 415.496 163.851 415.311 163.758 415.115C163.069 413.623 164.057 411.152 164.386 409.639C164.541 408.928 164.922 408.228 165.241 407.549Z" fill="url(#paint2_linear_47_7)"/>
<path d="M166.579 397.203C165.756 386.476 165.179 362.994 170.512 350.075C171.346 348.047 173.6 345.947 175.896 345.864C177.667 345.792 180.209 346.688 181.177 348.273C181.98 349.581 182.011 353.76 181.856 355.201C181.414 359.288 177.697 385.333 175.937 397.635L166.579 397.203Z" fill="#2D447C"/>
<path d="M192.728 305.695H173.323C173.323 305.695 173.271 305.778 173.24 305.819L173.22 305.695H159.744L159.724 305.716C158.735 312.407 159.878 317.122 159.878 317.122C161.803 325.749 172.478 329.136 176.133 330.042C178.202 334.252 180.549 338.164 182.33 341.324C184.801 345.71 187.364 350.054 190.102 354.275C197.607 358.393 202.332 352.865 202.332 352.865C202.693 343.929 201.097 334.921 199.326 326.192C198.616 322.661 194.766 311.882 192.707 305.685L192.728 305.695Z" fill="#394F8E"/>
<path d="M191.256 411.738C191.338 410.997 191.647 410.246 191.894 409.525C191.966 409.319 192.522 407.312 192.522 407.085C192.584 403.812 191.822 394.783 191.822 394.783L200.86 394.485C200.86 394.485 199.728 402.34 201.087 406.921H201.077C205.122 409.062 212.308 411.883 212.308 411.883C212.308 411.883 220.399 413.035 220.832 413.21C221.264 413.386 222.314 413.653 223.539 414.734C223.539 414.734 224.527 416.803 214.48 418.594C214.48 418.594 210.146 419.645 203.136 418.687C201.622 418.584 200.109 418.481 198.585 418.378C197.031 418.275 192.357 418.214 191.74 417.781C191.503 417.617 191.338 417.442 191.225 417.256C190.381 415.846 191.091 413.293 191.256 411.749V411.738Z" fill="#FFB573"/>
<path d="M196.814 394.619C196.639 395.113 196.495 395.607 196.361 396.122C196.176 395.638 196.001 395.144 195.826 394.65L196.814 394.619Z" fill="#FFD9B6"/>
<path d="M191.894 409.525C191.935 409.402 192.141 408.681 192.305 408.053C192.655 408.239 192.995 408.403 193.335 408.568C197.226 410.421 201.395 410.143 205.493 409.186C205.575 409.165 205.647 409.144 205.719 409.124C209.075 410.606 212.328 411.883 212.328 411.883C212.328 411.883 220.42 413.036 220.852 413.211C221.284 413.386 222.334 413.653 223.559 414.734C223.559 414.734 224.548 416.804 214.5 418.595C214.5 418.595 210.166 419.645 203.156 418.687C201.643 418.584 200.129 418.482 198.606 418.379C197.051 418.276 192.378 418.214 191.76 417.782C191.523 417.617 191.358 417.442 191.245 417.256C190.401 415.846 191.111 413.293 191.276 411.749C191.358 411.008 191.667 410.256 191.914 409.536L191.894 409.525Z" fill="url(#paint3_linear_47_7)"/>
<path d="M192.069 399.138C190.278 389.647 189.145 379.949 188.981 370.283C188.919 366.844 189.001 363.396 189.341 359.968C189.681 356.519 189.403 351.557 193.047 349.807C195.178 348.788 198.143 348.891 200.212 350.064C202.219 351.207 202.631 353.585 202.642 355.706C202.642 359.813 201.818 386.105 201.406 398.531L192.059 399.128L192.069 399.138Z" fill="#394F8E"/>
<path d="M184.019 241.396L184.914 246.749L188.003 246.234L184.019 241.396Z" fill="#FFB573"/>
<path d="M182.083 250.002C182.114 251.69 182.453 261.594 182.453 261.594C181.434 262.747 176.503 263.169 174.424 261.398C172.766 259.998 172.591 258.742 172.591 258.742L173.199 244.268L182.093 249.992L182.083 250.002Z" fill="#FF9435"/>
<path d="M164.222 237.886L165.777 242.837L168.144 250.383L168.814 252.504C176.812 258.341 184.791 255.86 186.129 252.174C187.467 248.489 182.114 233.078 182.114 233.078L164.222 237.875V237.886Z" fill="#FFB573"/>
<path d="M175.289 257.723C175.289 257.723 175.783 242.94 177.152 241.139C178.511 239.337 185.182 238.153 186.314 231.946C187.436 225.821 184.441 224.184 183.082 224.493C181.723 224.801 181.393 230.484 176.02 229.506C170.553 228.518 161.906 232.265 162.04 236.218C162.04 236.218 156.872 239.111 161.247 245.977C165.622 252.844 170.347 258.166 172.396 257.929L175.289 257.723Z" fill="#0A2540"/>
<path d="M173.034 242.858C171.819 245.164 173.775 249.457 178.408 250.28L176.802 242.539C176.133 241.53 173.827 241.345 173.034 242.858Z" fill="#FFB573"/>
<path d="M173.24 259.041C178.861 259.277 187.745 260.245 189.845 266.545C190.967 269.901 191.122 273.576 190.772 277.076C190.494 279.825 190.257 282.574 190.144 285.333C189.948 289.996 190.453 295.02 192.058 299.488L195.62 309.844C195.62 309.844 173.92 320.262 158.673 313.725C158.673 313.725 157.057 271.178 162.297 262.088C162.935 260.986 164.696 260.379 165.808 260.019C168.247 259.216 170.749 258.938 173.25 259.041H173.24Z" fill="#C0BDFF"/>
<path d="M216.477 269.407C216.477 269.407 215.396 269.222 215.097 267.42C214.799 265.619 214.017 261.409 214.017 261.409C214.017 261.409 213.45 260.019 213.018 260.544C212.586 261.069 211.731 262.407 212.225 265.012C212.225 265.012 212.575 267.287 212.246 268.038C211.917 268.79 211.093 270.797 211.752 273.206C211.752 273.206 216.209 272.98 216.467 269.407H216.477Z" fill="#FF9435"/>
<path d="M195.816 302.175C194.591 301.423 193.87 299.941 193.181 298.366C191.503 294.516 189.773 290.686 188.054 286.856C187.292 285.148 186.53 283.439 185.779 281.73C184.255 278.23 181.949 273.103 186.263 270.416C187.241 269.809 188.929 270.046 189.866 270.509C190.576 270.859 191.173 271.487 191.709 272.269C192.82 273.916 193.592 276.202 194.303 277.736C195.754 280.886 197.154 284.067 198.451 287.289C199.285 289.358 200.099 291.448 200.809 293.579C201.396 295.329 202.312 297.48 202.157 299.395C201.993 301.444 200.016 302.514 198.307 302.689C197.278 302.792 196.475 302.597 195.816 302.185V302.175Z" fill="#FFB573"/>
<path d="M183.545 283.84C182.279 278.765 177.76 267.4 184.379 263.961C191.709 260.163 196.65 278.899 196.65 278.899L183.545 283.84Z" fill="#C0BDFF"/>
<path opacity="0.39" d="M384.112 209.247C376.576 229.197 386.644 251.475 406.595 259C426.546 266.535 448.823 256.467 456.348 236.517C463.884 216.566 453.816 194.289 433.865 186.764C413.914 179.228 391.637 189.296 384.112 209.247Z" fill="white"/>
<path d="M457.728 233.554L455.438 239.622L547.647 274.428L549.937 268.36L457.728 233.554Z" fill="#0A1123"/>
<path d="M379.613 207.548C371.141 229.98 382.465 255.036 404.896 263.509C427.328 271.981 452.385 260.657 460.857 238.226C469.329 215.794 458.005 190.737 435.574 182.265C413.142 173.793 388.085 185.116 379.613 207.548ZM453.321 235.374C446.424 253.647 426.02 262.871 407.748 255.973C389.475 249.076 380.251 228.672 387.149 210.4C394.046 192.127 414.449 182.903 432.722 189.8C450.995 196.698 460.219 217.101 453.321 235.374Z" fill="#0A1123"/>
<path d="M458.808 237.752L459.158 244.011L456.543 244.196L458.808 237.752Z" fill="#FFB573"/>
<path d="M468.094 400.014C467.939 399.859 466.529 398.264 466.426 398.058C466.117 397.45 466.735 395.567 466.735 395.567L458.088 395.042C458.17 397.347 458.139 399.633 458.479 401.723H458.489C455.73 405.48 450.387 411.286 450.387 411.286C450.387 411.286 443.469 415.95 443.161 416.3C442.842 416.65 441.997 417.36 441.359 418.904C441.359 418.904 441.38 421.241 451.396 418.4C451.396 418.4 455.843 417.432 461.855 413.427C463.204 412.655 464.553 411.894 465.891 411.121C467.27 410.329 471.532 408.198 471.903 407.518C472.047 407.261 472.119 407.024 472.14 406.808C472.294 405.14 470.503 403.102 469.659 401.764C469.257 401.115 468.639 400.57 468.084 400.014H468.094Z" fill="#FFB573"/>
<path d="M468.094 400.014C468.001 399.921 467.496 399.355 467.064 398.851C466.827 399.17 466.58 399.479 466.343 399.777C463.595 403.215 459.652 404.811 455.462 405.758C455.38 405.779 455.308 405.789 455.236 405.799C452.817 408.661 450.408 411.276 450.408 411.276C450.408 411.276 443.49 415.939 443.181 416.289C442.862 416.639 442.018 417.35 441.379 418.894C441.379 418.894 441.4 421.231 451.416 418.389C451.416 418.389 455.864 417.422 461.876 413.417C463.224 412.645 464.573 411.883 465.911 411.111C467.291 410.319 471.552 408.188 471.923 407.508C472.067 407.251 472.139 407.014 472.16 406.798C472.314 405.13 470.523 403.092 469.679 401.754C469.277 401.105 468.66 400.559 468.104 400.004L468.094 400.014Z" fill="url(#paint4_linear_47_7)"/>
<path d="M455.225 339.606C455.225 339.606 453.053 339.575 453.383 345.329C453.712 351.084 458.005 397.625 458.005 397.625L466.601 398.243C466.601 398.243 472.592 364.034 465.612 344.31C465.612 344.31 462.936 335.529 455.225 339.595V339.606Z" fill="#394F8E"/>
<path d="M487.376 404.121C487.705 403.431 488.251 402.813 488.735 402.206C488.869 402.031 490.217 400.291 490.155 400.065C489.569 397.584 489.054 396.05 489.054 396.05L497.67 393.198C497.67 393.198 499.04 396.801 498.823 401.671C502.004 405.088 507.635 411.306 507.635 411.306C507.635 411.306 515.047 415.125 515.408 415.434C515.758 415.743 516.684 416.35 517.508 417.802C517.508 417.802 517.765 420.118 507.481 418.481C507.481 418.481 502.951 418.039 496.507 414.775C495.076 414.168 493.656 413.561 492.225 412.964C490.763 412.346 486.274 410.73 485.832 410.091C485.657 409.844 485.564 409.628 485.513 409.412C485.163 407.775 486.707 405.541 487.386 404.11L487.376 404.121Z" fill="#FFB573"/>
<path d="M488.735 402.206C488.817 402.103 489.25 401.475 489.62 400.929C489.898 401.217 490.176 401.495 490.444 401.763C493.573 404.851 496.528 404.8 500.8 405.253C500.882 405.253 502.673 405.129 502.756 405.129C505.494 407.682 507.635 411.316 507.635 411.316C507.635 411.316 515.047 415.136 515.408 415.444C515.758 415.753 516.684 416.361 517.508 417.812C517.508 417.812 517.765 420.128 507.481 418.492C507.481 418.492 502.951 418.049 496.507 414.786C495.076 414.178 493.656 413.571 492.225 412.974C490.763 412.356 486.274 410.74 485.832 410.102C485.657 409.854 485.564 409.638 485.513 409.422C485.163 407.785 486.707 405.551 487.386 404.12C487.716 403.431 488.261 402.813 488.745 402.206H488.735Z" fill="url(#paint5_linear_47_7)"/>
<path d="M490.824 339.4C490.824 339.4 492.945 338.967 493.707 344.681C494.458 350.394 498.916 396.925 498.916 396.925L489.681 399.087C489.681 399.087 478.316 366.649 481.497 345.968C481.497 345.968 482.496 336.847 490.824 339.4Z" fill="#394F8E"/>
<path d="M468.897 304.749C471.481 302.062 475.259 301.475 478.728 302.587C483.371 304.079 486.922 307.857 488.621 312.408C490.906 318.523 492.317 325.574 493.181 332.039C493.645 335.508 493.84 339.245 493.727 342.838C493.624 345.875 494.149 349.735 492.039 352.309C490.495 354.193 487.169 355.212 484.864 354.162C482.465 353.06 481.106 350.394 480.035 348.14C478.81 345.566 477.493 343.013 476.268 340.439C474.168 336.023 472.242 331.524 470.112 327.129C468.063 322.898 466.138 318.245 465.86 313.499C465.654 310.091 466.828 306.91 468.887 304.759L468.897 304.749Z" fill="url(#paint6_linear_47_7)"/>
<path d="M493.727 342.828C493.851 339.235 493.655 335.498 493.181 332.029C492.317 325.574 490.906 318.512 488.621 312.397C486.922 307.857 483.371 304.069 478.728 302.576C476.546 301.876 474.24 301.856 472.181 302.597C471.645 302.02 471.059 301.506 470.41 301.084C469.906 300.754 469.37 300.476 468.794 300.26C466.385 299.354 463.832 300.373 461.269 300.641C454.413 301.361 453.095 316.546 453.177 324.853C453.26 333.758 451.839 340.995 455.38 349.159C456.43 351.568 458.16 354.079 460.764 354.419C462.772 354.676 464.758 353.503 465.994 351.897C467.229 350.291 467.857 348.315 468.423 346.369C469.854 341.417 471.028 336.404 472.119 331.37C473.498 334.386 474.847 337.413 476.268 340.408C477.493 342.992 478.81 345.535 480.035 348.109C481.106 350.363 482.465 353.029 484.864 354.131C487.17 355.181 490.495 354.172 492.039 352.278C494.159 349.704 493.624 345.834 493.727 342.807V342.828Z" fill="#394F8E"/>
<path style="mix-blend-mode:multiply" d="M472.418 318.636C477.194 318.944 485.296 317.956 489.908 316.258C489.517 314.94 489.095 313.653 488.621 312.397C486.922 307.857 483.371 304.069 478.728 302.576C476.546 301.876 474.24 301.856 472.181 302.597C471.645 302.02 471.059 301.506 470.41 301.084C469.906 300.754 469.37 300.476 468.794 300.26C466.385 299.354 463.832 300.373 461.269 300.641C456.266 301.166 454.217 309.391 453.496 317.019C454.124 317.308 454.845 317.472 455.617 317.606C460.548 318.409 467.435 318.296 472.428 318.625L472.418 318.636Z" fill="url(#paint7_linear_47_7)"/>
<path d="M489.249 307.137C488.014 301.948 486.223 297.203 486.356 291.777C486.49 286.311 486.573 280.834 486.809 275.368C486.912 273.041 487.293 270.633 487.283 268.327C487.262 265.228 485.461 262.829 483.217 260.842C481.271 259.113 479.037 257.836 476.803 256.591C476.71 256.539 476.628 256.488 476.535 256.447C475.671 255.963 474.806 255.479 473.89 255.17C470.019 253.853 464.903 254.264 461.423 256.436C459.2 257.826 456.976 259.216 454.752 260.606C452.385 262.088 451.026 264.929 451.252 267.904C451.757 274.369 452.292 280.834 452.951 287.289C453.291 290.666 454.063 293.898 453.846 297.305C453.569 301.753 450.202 307.96 451.551 312.346C452.22 314.508 453.846 315.043 455.751 315.362C460.682 316.165 467.569 316.052 472.562 316.381C477.421 316.7 485.749 315.671 490.299 313.91C493.182 312.799 489.97 310.122 489.249 307.147V307.137Z" fill="#C0BDFF"/>
<path d="M473.89 255.17C470.276 253.945 465.613 254.233 462.175 256.035C463.266 256.961 465.232 258.032 468.516 258.052C471.532 258.063 473.179 256.632 474.075 255.242C474.013 255.222 473.951 255.191 473.879 255.17H473.89Z" fill="url(#paint8_linear_47_7)"/>
<path d="M471.708 246.43L472.851 254.82C472.851 254.82 469.093 257.342 463.39 255.458L463.596 246.657L471.698 246.43H471.708Z" fill="#FFB573"/>
<path d="M474.888 233.037L473.2 245.391L470.132 246.935C465.366 252.895 461.938 252.834 460.198 250.363C458.458 247.892 458.675 231.133 458.675 231.133L474.888 233.027V233.037Z" fill="#FFB573"/>
<path d="M462.833 243.331C462.833 243.331 466.92 242.384 468.413 245.277C469.905 248.17 471.727 249.446 471.727 249.446C472.932 249.663 474.136 249.076 474.733 248.005C476.906 244.062 478.872 239.862 479.994 235.549C480.745 232.666 480.57 228.816 477.214 227.787C476.422 227.55 474.785 227.241 474.785 227.241C474.785 227.241 474.486 226.902 474.342 226.768C473.755 226.222 473.014 225.851 472.273 225.563C468.896 224.266 464.933 224.729 461.474 225.378C450.212 227.509 458.581 234.736 458.581 234.736L461.793 234.406C461.793 234.406 462.432 240.984 462.823 243.331H462.833Z" fill="#0A2540"/>
<path d="M466.426 238.112C467.558 239.595 466.683 242.848 463.512 243.98L463.729 238.328C464.079 237.536 465.685 237.134 466.426 238.112Z" fill="#FFB573"/>
<path d="M441.791 299.004C442.491 299.663 453.085 284.201 453.785 283.418C456.863 280.021 459.92 273.289 456.585 265.403C455.802 263.55 454.526 260.606 453.342 261.79C447.556 267.555 435.79 288.813 435.79 288.813L441.802 298.994L441.791 299.004Z" fill="#C0BDFF"/>
<path d="M445.251 296.544L441.998 299.159L440.062 298.922L435.739 297.059L434.863 296.359L434.503 295.473L434.74 291.531L434.997 287.629L440.772 287.794" fill="url(#paint9_linear_47_7)"/>
<path d="M410.589 261.275C411.032 260.595 411.835 260.74 412.411 260.225C412.833 259.844 412.823 259.298 412.885 258.784C412.988 257.97 413.678 258.022 414.398 257.734C414.563 257.672 414.604 256.344 414.625 256.179C414.707 255.633 414.625 255.057 414.8 254.532C414.964 254.038 415.613 253.801 416.086 253.935C416.539 254.069 416.663 254.47 416.838 254.861C417.229 255.757 417.61 256.653 418.001 257.548C418.145 257.878 418.331 258.217 418.413 258.567C418.475 258.856 418.609 259.092 418.959 259.072C419.226 259.072 419.453 258.887 419.597 258.67C419.741 258.454 419.803 258.186 419.854 257.929C419.895 257.672 419.926 257.404 419.998 257.157C420.194 256.498 420.77 255.953 421.44 255.798C421.615 255.757 421.81 255.736 421.965 255.829C422.181 255.953 422.253 256.241 422.201 256.478C422.129 256.797 421.882 257.064 421.738 257.353C421.45 257.939 421.306 258.588 421.234 259.237L421.295 261.532L421.398 265.135L422.284 268.563C422.284 268.563 441.123 289.101 441.545 293.147C441.73 294.866 441.771 297.583 440.227 298.675C433.566 303.369 424.548 284.448 423.921 283.048C423.354 281.781 418.073 272.877 417.167 271.765C417.167 271.765 410.28 263.313 410.27 263.293C409.858 262.716 410.219 261.779 410.558 261.275H410.589Z" fill="#FFB573"/>
<path d="M441.997 299.159C441.997 299.159 440.268 290.079 437.22 286.064L437.715 285.416C437.715 285.416 440.123 286.424 441.215 287.248C442.224 288.01 446.733 292.632 446.208 297.295C446.166 297.656 442.543 298.953 442.543 298.953L441.997 299.159Z" fill="url(#paint10_linear_47_7)"/>
<path d="M437.715 285.416L437.221 286.064C437.221 286.064 437.468 296.276 436.13 298.809C434.791 301.331 437.241 300.94 439.053 300.559C440.865 300.178 444.664 298.129 444.664 298.129C444.664 298.129 442.543 293.085 442.306 291.613C442.07 290.141 437.715 285.416 437.715 285.416Z" fill="url(#paint11_linear_47_7)"/>
<path d="M496.517 297.285C495.868 297.985 487.262 285.755 486.511 285.024C483.227 281.823 477.441 273.34 481.621 265.496C482.568 263.725 484.905 262.654 486.161 263.766C492.306 269.16 501.86 286.754 501.86 286.754L496.507 297.295L496.517 297.285Z" fill="#C0BDFF"/>
<path d="M492.904 295.051L496.312 297.449L498.237 297.089L502.426 294.968L503.25 294.207L503.559 293.301L503.075 289.379L502.581 285.498L496.816 286.033" fill="url(#paint12_linear_47_7)"/>
<path d="M525.619 257.414C525.125 256.766 524.343 256.961 523.735 256.488C523.293 256.138 523.272 255.592 523.169 255.078C523.015 254.275 522.325 254.367 521.594 254.13C521.43 254.079 521.306 252.751 521.265 252.586C521.152 252.051 521.193 251.475 520.987 250.96C520.791 250.476 520.122 250.28 519.659 250.445C519.206 250.599 519.113 251.022 518.969 251.413C518.64 252.329 518.31 253.245 517.981 254.161C517.857 254.501 517.693 254.851 517.641 255.211C517.6 255.5 517.476 255.747 517.126 255.757C516.859 255.757 516.622 255.603 516.457 255.397C516.303 255.191 516.221 254.933 516.159 254.676C516.097 254.419 516.056 254.161 515.963 253.914C515.726 253.266 515.119 252.761 514.44 252.648C514.265 252.617 514.069 252.617 513.915 252.71C513.709 252.844 513.647 253.142 513.719 253.379C513.812 253.688 514.069 253.945 514.234 254.223C514.553 254.789 514.748 255.428 514.851 256.076L514.934 258.372L515.057 261.975L514.388 265.454C514.388 265.454 496.537 287.392 496.373 291.448C496.301 293.167 496.424 295.895 498.03 296.883C504.969 301.145 512.782 281.699 513.317 280.258C513.801 278.961 518.856 269.49 519.69 268.316C519.69 268.316 526.031 259.442 526.041 259.432C526.412 258.835 525.99 257.919 525.63 257.435L525.619 257.414Z" fill="#FFB573"/>
<path d="M496.311 297.45C496.311 297.45 497.464 288.277 500.254 284.077L499.719 283.459C499.719 283.459 497.382 284.612 496.342 285.508C495.385 286.332 491.174 291.232 491.998 295.854C492.059 296.204 495.755 297.285 495.755 297.285L496.311 297.46V297.45Z" fill="url(#paint13_linear_47_7)"/>
<path d="M499.728 283.459L500.305 284.036C500.305 284.036 501.767 292.889 503.445 295.205C505.123 297.522 502.611 298.036 500.768 298.16C498.442 298.304 494.571 296.925 494.571 296.925C494.571 296.925 496.012 291.736 496.043 290.244C496.074 288.751 499.739 283.48 499.739 283.48L499.728 283.459Z" fill="url(#paint14_linear_47_7)"/>
<path fill-rule="evenodd" clip-rule="evenodd" d="M538.715 369.696C538.715 369.696 535.441 369.377 532.744 366.546C530.49 364.179 529.697 361.842 529.419 360.483C529.141 361.842 528.348 364.189 526.094 366.546C523.397 369.377 520.123 369.696 520.123 369.696L520.205 369.789L520.123 369.882C520.123 369.882 523.397 370.201 526.094 373.032C528.348 375.4 529.141 377.736 529.419 379.095C529.697 377.736 530.49 375.389 532.744 373.032C535.441 370.201 538.715 369.882 538.715 369.882L538.632 369.789L538.715 369.696Z" fill="white"/>
<path fill-rule="evenodd" clip-rule="evenodd" d="M563.401 232.605C563.401 232.605 561.538 232.419 560.004 230.813C558.717 229.465 558.274 228.137 558.109 227.365C557.955 228.137 557.502 229.465 556.215 230.813C554.681 232.419 552.818 232.605 552.818 232.605L552.859 232.656L552.818 232.708C552.818 232.708 554.681 232.893 556.215 234.499C557.502 235.847 557.945 237.175 558.109 237.947C558.264 237.175 558.717 235.847 560.004 234.499C561.538 232.893 563.401 232.708 563.401 232.708L563.36 232.656L563.401 232.605Z" fill="white"/>
<path fill-rule="evenodd" clip-rule="evenodd" d="M146.043 203.451C146.043 203.451 144.179 203.266 142.645 201.66C141.359 200.311 140.916 198.983 140.751 198.211C140.597 198.983 140.144 200.311 138.857 201.66C137.323 203.266 135.46 203.451 135.46 203.451L135.501 203.502L135.46 203.554C135.46 203.554 137.323 203.739 138.857 205.345C140.144 206.694 140.587 208.022 140.751 208.794C140.906 208.022 141.359 206.694 142.645 205.345C144.179 203.739 146.043 203.554 146.043 203.554L146.001 203.502L146.043 203.451Z" fill="white"/>
<path fill-rule="evenodd" clip-rule="evenodd" d="M388.652 113.838C388.652 113.838 386.789 113.652 385.255 112.046C383.968 110.698 383.525 109.37 383.361 108.598C383.206 109.37 382.753 110.698 381.467 112.046C379.933 113.652 378.069 113.838 378.069 113.838L378.111 113.889L378.069 113.94C378.069 113.94 379.933 114.126 381.467 115.732C382.753 117.08 383.196 118.408 383.361 119.18C383.515 118.408 383.968 117.08 385.255 115.732C386.789 114.126 388.652 113.94 388.652 113.94L388.611 113.889L388.652 113.838Z" fill="white"/>
<path fill-rule="evenodd" clip-rule="evenodd" d="M522.789 116.864C522.789 116.864 520.925 116.679 519.392 115.073C518.105 113.724 517.662 112.396 517.497 111.624C517.343 112.396 516.89 113.724 515.603 115.073C514.069 116.679 512.206 116.864 512.206 116.864L512.247 116.915L512.206 116.967C512.206 116.967 514.069 117.152 515.603 118.758C516.89 120.107 517.333 121.435 517.497 122.207C517.652 121.435 518.105 120.107 519.392 118.758C520.925 117.152 522.789 116.967 522.789 116.967L522.748 116.915L522.789 116.864Z" fill="white"/>
<path fill-rule="evenodd" clip-rule="evenodd" d="M120.008 365.238C120.008 365.238 116.734 364.919 114.037 362.088C111.782 359.721 110.99 357.384 110.712 356.025C110.434 357.384 109.641 359.731 107.387 362.088C104.689 364.919 101.416 365.238 101.416 365.238L101.498 365.331L101.416 365.424C101.416 365.424 104.689 365.743 107.387 368.574C109.641 370.942 110.434 373.278 110.712 374.637C110.99 373.278 111.782 370.931 114.037 368.574C116.734 365.743 120.008 365.424 120.008 365.424L119.925 365.331L120.008 365.238Z" fill="white"/>
<defs>
<filter id="filter0_d_47_7" x="0" y="0" width="704" height="482" filterUnits="userSpaceOnUse" color-interpolation-filters="sRGB">
<feFlood flood-opacity="0" result="BackgroundImageFix"/>
<feColorMatrix in="SourceAlpha" type="matrix" values="0 0 0 0 0 0 0 0 0 0 0 0 0 0 0 0 0 0 127 0" result="hardAlpha"/>
<feOffset dx="4" dy="8"/>
<feGaussianBlur stdDeviation="8"/>
<feComposite in2="hardAlpha" operator="out"/>
<feColorMatrix type="matrix" values="0 0 0 0 0.388235 0 0 0 0 0.356863 0 0 0 0 1 0 0 0 0.1 0"/>
<feBlend mode="normal" in2="BackgroundImageFix" result="effect1_dropShadow_47_7"/>
<feBlend mode="normal" in="SourceGraphic" in2="effect1_dropShadow_47_7" result="shape"/>
</filter>
<linearGradient id="paint0_linear_47_7" x1="348" y1="8" x2="348" y2="458" gradientUnits="userSpaceOnUse">
<stop offset="0.5" stop-color="#DEEAF6"/>
<stop offset="1" stop-color="white"/>
</linearGradient>
<linearGradient id="paint1_linear_47_7" x1="346.28" y1="175.79" x2="346.28" y2="326.923" gradientUnits="userSpaceOnUse">
<stop offset="0.5" stop-color="#DEEAF6"/>
<stop offset="1" stop-color="white"/>
</linearGradient>
<linearGradient id="paint2_linear_47_7" x1="163.522" y1="413.128" x2="196.165" y2="413.128" gradientUnits="userSpaceOnUse">
<stop stop-color="#071786"/>
<stop offset="0.15" stop-color="#05136B"/>
<stop offset="0.32" stop-color="#031054"/>
<stop offset="0.51" stop-color="#020D44"/>
<stop offset="0.72" stop-color="#020C3B"/>
<stop offset="1" stop-color="#020C38"/>
</linearGradient>
<linearGradient id="paint3_linear_47_7" x1="190.823" y1="413.561" x2="223.57" y2="413.561" gradientUnits="userSpaceOnUse">
<stop stop-color="#071786"/>
<stop offset="0.15" stop-color="#05136B"/>
<stop offset="0.32" stop-color="#031054"/>
<stop offset="0.51" stop-color="#020D44"/>
<stop offset="0.72" stop-color="#020C3B"/>
<stop offset="1" stop-color="#020C38"/>
</linearGradient>
<linearGradient id="paint4_linear_47_7" x1="441.359" y1="409.32" x2="472.15" y2="409.32" gradientUnits="userSpaceOnUse">
<stop stop-color="#071786"/>
<stop offset="0.15" stop-color="#05136B"/>
<stop offset="0.32" stop-color="#031054"/>
<stop offset="0.51" stop-color="#020D44"/>
<stop offset="0.72" stop-color="#020C3B"/>
<stop offset="1" stop-color="#020C38"/>
</linearGradient>
<linearGradient id="paint5_linear_47_7" x1="485.451" y1="409.999" x2="517.498" y2="409.999" gradientUnits="userSpaceOnUse">
<stop stop-color="#071786"/>
<stop offset="0.15" stop-color="#05136B"/>
<stop offset="0.32" stop-color="#031054"/>
<stop offset="0.51" stop-color="#020D44"/>
<stop offset="0.72" stop-color="#020C3B"/>
<stop offset="1" stop-color="#020C38"/>
</linearGradient>
<linearGradient id="paint6_linear_47_7" x1="479.084" y1="320.29" x2="489.312" y2="361.949" gradientUnits="userSpaceOnUse">
<stop stop-color="#3C10E3"/>
<stop offset="0.95" stop-color="#5665FE"/>
</linearGradient>
<linearGradient id="paint7_linear_47_7" x1="471.824" y1="321.246" x2="471.31" y2="302.29" gradientUnits="userSpaceOnUse">
<stop stop-color="#3C10E3"/>
<stop offset="0.95" stop-color="#5665FE"/>
</linearGradient>
<linearGradient id="paint8_linear_47_7" x1="468.202" y1="258.508" x2="468.1" y2="254.902" gradientUnits="userSpaceOnUse">
<stop stop-color="#F9FBFC"/>
<stop offset="0.31" stop-color="#F0F4FC"/>
<stop offset="0.8" stop-color="#D8E3FE"/>
<stop offset="1" stop-color="#CDDBFF"/>
</linearGradient>
<linearGradient id="paint9_linear_47_7" x1="434.377" y1="293.674" x2="444.986" y2="292.936" gradientUnits="userSpaceOnUse">
<stop stop-color="#F9FBFC"/>
<stop offset="0.31" stop-color="#F0F4FC"/>
<stop offset="0.8" stop-color="#D8E3FE"/>
<stop offset="1" stop-color="#CDDBFF"/>
</linearGradient>
<linearGradient id="paint10_linear_47_7" x1="437.654" y1="292.424" x2="445.931" y2="291.848" gradientUnits="userSpaceOnUse">
<stop stop-color="#F9FBFC"/>
<stop offset="0.31" stop-color="#F0F4FC"/>
<stop offset="0.8" stop-color="#D8E3FE"/>
<stop offset="1" stop-color="#CDDBFF"/>
</linearGradient>
<linearGradient id="paint11_linear_47_7" x1="433.904" y1="298.193" x2="442.393" y2="290.662" gradientUnits="userSpaceOnUse">
<stop stop-color="#F9FBFC"/>
<stop offset="0.31" stop-color="#F0F4FC"/>
<stop offset="0.8" stop-color="#D8E3FE"/>
<stop offset="1" stop-color="#CDDBFF"/>
</linearGradient>
<linearGradient id="paint12_linear_47_7" x1="503.588" y1="291.455" x2="492.944" y2="291.385" gradientUnits="userSpaceOnUse">
<stop stop-color="#F9FBFC"/>
<stop offset="0.31" stop-color="#F0F4FC"/>
<stop offset="0.8" stop-color="#D8E3FE"/>
<stop offset="1" stop-color="#CDDBFF"/>
</linearGradient>
<linearGradient id="paint13_linear_47_7" x1="500.239" y1="290.424" x2="491.941" y2="290.369" gradientUnits="userSpaceOnUse">
<stop stop-color="#F9FBFC"/>
<stop offset="0.31" stop-color="#F0F4FC"/>
<stop offset="0.8" stop-color="#D8E3FE"/>
<stop offset="1" stop-color="#CDDBFF"/>
</linearGradient>
<linearGradient id="paint14_linear_47_7" x1="504.933" y1="295.409" x2="495.792" y2="289.331" gradientUnits="userSpaceOnUse">
<stop stop-color="#F9FBFC"/>
<stop offset="0.31" stop-color="#F0F4FC"/>
<stop offset="0.8" stop-color="#D8E3FE"/>
<stop offset="1" stop-color="#CDDBFF"/>
</linearGradient>
</defs>
</svg>
