<svg width="287" height="36" viewBox="0 0 287 36" fill="none" xmlns="http://www.w3.org/2000/svg">
<path d="M1.89631 29V7.18182H6.50923V25.1967H15.8629V29H1.89631ZM22.8178 29V7.18182H37.5195V10.9851H27.4307V16.1839H36.7631V19.9872H27.4307V25.1967H37.5621V29H22.8178ZM44.256 10.9851V7.18182H62.175V10.9851H55.4953V29H50.9357V10.9851H44.256ZM72.744 7.18182V9.48295C72.744 10.1364 72.6162 10.804 72.3605 11.4858C72.1119 12.1605 71.7781 12.7997 71.3591 13.4034C70.9401 14 70.482 14.5078 69.9848 14.9268L67.982 13.7443C68.3371 13.1832 68.6496 12.5618 68.9195 11.88C69.1964 11.1982 69.3349 10.4062 69.3349 9.50426V7.18182H72.744ZM91.5881 13.4567C91.5029 12.5973 91.1371 11.9297 90.4908 11.4538C89.8445 10.978 88.9674 10.7401 87.8594 10.7401C87.1066 10.7401 86.4709 10.8466 85.9524 11.0597C85.434 11.2656 85.0363 11.5533 84.7593 11.9226C84.4894 12.2919 84.3544 12.7109 84.3544 13.1797C84.3402 13.5703 84.4219 13.9112 84.5995 14.2024C84.7841 14.4936 85.0363 14.7457 85.3559 14.9588C85.6755 15.1648 86.0448 15.3459 86.4638 15.5021C86.8828 15.6513 87.3303 15.7791 87.8061 15.8857L89.7664 16.3544C90.7181 16.5675 91.5917 16.8516 92.3871 17.2067C93.1826 17.5618 93.8715 17.9986 94.4539 18.517C95.0363 19.0355 95.4873 19.6463 95.8069 20.3494C96.1336 21.0526 96.3005 21.8587 96.3076 22.7678C96.3005 24.103 95.9596 25.2607 95.2848 26.2408C94.6172 27.2138 93.6513 27.9702 92.3871 28.5099C91.13 29.0426 89.6137 29.3089 87.8381 29.3089C86.0767 29.3089 84.5426 29.0391 83.2358 28.4993C81.9361 27.9595 80.9205 27.1605 80.189 26.1023C79.4645 25.0369 79.0846 23.7195 79.049 22.1499H83.5128C83.5625 22.8814 83.7721 23.4922 84.1414 23.9822C84.5178 24.4652 85.0185 24.831 85.6435 25.0795C86.2756 25.321 86.9894 25.4418 87.7848 25.4418C88.5661 25.4418 89.2444 25.3281 89.8196 25.1009C90.402 24.8736 90.853 24.5575 91.1726 24.1527C91.4922 23.7479 91.652 23.2827 91.652 22.7571C91.652 22.267 91.5064 21.8551 91.2152 21.5213C90.9311 21.1875 90.5121 20.9034 89.9581 20.669C89.4113 20.4347 88.7401 20.2216 87.9446 20.0298L85.5689 19.4332C83.7294 18.9858 82.277 18.2862 81.2117 17.3345C80.1463 16.3828 79.6172 15.1009 79.6243 13.4886C79.6172 12.1676 79.9688 11.0135 80.679 10.0263C81.3963 9.03906 82.38 8.26847 83.63 7.71449C84.88 7.16051 86.3005 6.88352 87.8914 6.88352C89.5107 6.88352 90.924 7.16051 92.1314 7.71449C93.3459 8.26847 94.2905 9.03906 94.9652 10.0263C95.6399 11.0135 95.988 12.157 96.0093 13.4567H91.5881ZM133.404 14.8203H128.738C128.653 14.2166 128.479 13.6804 128.216 13.2116C127.953 12.7358 127.616 12.331 127.204 11.9972C126.792 11.6634 126.316 11.4077 125.777 11.2301C125.244 11.0526 124.665 10.9638 124.04 10.9638C122.911 10.9638 121.927 11.2443 121.089 11.8054C120.251 12.3594 119.601 13.169 119.14 14.2344C118.678 15.2926 118.447 16.5781 118.447 18.0909C118.447 19.6463 118.678 20.9531 119.14 22.0114C119.608 23.0696 120.262 23.8686 121.1 24.4084C121.938 24.9482 122.907 25.218 124.008 25.218C124.626 25.218 125.198 25.1364 125.723 24.973C126.256 24.8097 126.728 24.5717 127.14 24.2592C127.552 23.9396 127.893 23.5526 128.163 23.098C128.44 22.6435 128.632 22.125 128.738 21.5426L133.404 21.5639C133.284 22.5653 132.982 23.5312 132.499 24.4616C132.023 25.3849 131.38 26.2124 130.571 26.9439C129.768 27.6683 128.809 28.2436 127.694 28.6697C126.586 29.0888 125.333 29.2983 123.934 29.2983C121.988 29.2983 120.247 28.858 118.713 27.9773C117.186 27.0966 115.979 25.8217 115.091 24.1527C114.211 22.4837 113.77 20.4631 113.77 18.0909C113.77 15.7116 114.218 13.6875 115.113 12.0185C116.007 10.3494 117.222 9.07812 118.756 8.20455C120.29 7.32386 122.016 6.88352 123.934 6.88352C125.198 6.88352 126.37 7.06108 127.449 7.41619C128.536 7.77131 129.498 8.28977 130.336 8.97159C131.174 9.64631 131.856 10.4737 132.382 11.4538C132.914 12.4339 133.255 13.5561 133.404 14.8203ZM160.662 18.0909C160.662 20.4702 160.211 22.4943 159.309 24.1634C158.414 25.8324 157.193 27.1072 155.644 27.9879C154.103 28.8615 152.37 29.2983 150.445 29.2983C148.507 29.2983 146.766 28.858 145.225 27.9773C143.684 27.0966 142.466 25.8217 141.571 24.1527C140.676 22.4837 140.229 20.4631 140.229 18.0909C140.229 15.7116 140.676 13.6875 141.571 12.0185C142.466 10.3494 143.684 9.07812 145.225 8.20455C146.766 7.32386 148.507 6.88352 150.445 6.88352C152.37 6.88352 154.103 7.32386 155.644 8.20455C157.193 9.07812 158.414 10.3494 159.309 12.0185C160.211 13.6875 160.662 15.7116 160.662 18.0909ZM155.985 18.0909C155.985 16.5497 155.754 15.25 155.293 14.1918C154.838 13.1335 154.195 12.331 153.364 11.7841C152.533 11.2372 151.56 10.9638 150.445 10.9638C149.33 10.9638 148.357 11.2372 147.526 11.7841C146.695 12.331 146.049 13.1335 145.587 14.1918C145.133 15.25 144.906 16.5497 144.906 18.0909C144.906 19.6321 145.133 20.9318 145.587 21.9901C146.049 23.0483 146.695 23.8509 147.526 24.3977C148.357 24.9446 149.33 25.218 150.445 25.218C151.56 25.218 152.533 24.9446 153.364 24.3977C154.195 23.8509 154.838 23.0483 155.293 21.9901C155.754 20.9318 155.985 19.6321 155.985 18.0909ZM186.228 7.18182V29H182.244L172.752 15.2678H172.592V29H167.979V7.18182H172.027L181.445 20.9034H181.637V7.18182H186.228ZM212.189 7.18182V29H208.205L198.712 15.2678H198.553V29H193.94V7.18182H197.988L207.406 20.9034H207.597V7.18182H212.189ZM219.9 29V7.18182H234.602V10.9851H224.513V16.1839H233.846V19.9872H224.513V25.1967H234.645V29H219.9ZM261.42 14.8203H256.754C256.669 14.2166 256.495 13.6804 256.232 13.2116C255.969 12.7358 255.632 12.331 255.22 11.9972C254.808 11.6634 254.332 11.4077 253.792 11.2301C253.26 11.0526 252.681 10.9638 252.056 10.9638C250.926 10.9638 249.943 11.2443 249.105 11.8054C248.267 12.3594 247.617 13.169 247.155 14.2344C246.693 15.2926 246.463 16.5781 246.463 18.0909C246.463 19.6463 246.693 20.9531 247.155 22.0114C247.624 23.0696 248.277 23.8686 249.115 24.4084C249.953 24.9482 250.923 25.218 252.024 25.218C252.642 25.218 253.213 25.1364 253.739 24.973C254.272 24.8097 254.744 24.5717 255.156 24.2592C255.568 23.9396 255.909 23.5526 256.179 23.098C256.456 22.6435 256.647 22.125 256.754 21.5426L261.42 21.5639C261.299 22.5653 260.997 23.5312 260.515 24.4616C260.039 25.3849 259.396 26.2124 258.586 26.9439C257.784 27.6683 256.825 28.2436 255.71 28.6697C254.602 29.0888 253.348 29.2983 251.949 29.2983C250.003 29.2983 248.263 28.858 246.729 27.9773C245.202 27.0966 243.995 25.8217 243.107 24.1527C242.226 22.4837 241.786 20.4631 241.786 18.0909C241.786 15.7116 242.233 13.6875 243.128 12.0185C244.023 10.3494 245.238 9.07812 246.772 8.20455C248.306 7.32386 250.032 6.88352 251.949 6.88352C253.213 6.88352 254.385 7.06108 255.465 7.41619C256.551 7.77131 257.514 8.28977 258.352 8.97159C259.19 9.64631 259.872 10.4737 260.397 11.4538C260.93 12.4339 261.271 13.5561 261.42 14.8203ZM267.797 10.9851V7.18182H285.716V10.9851H279.036V29H274.477V10.9851H267.797Z" fill="white"/>
</svg>
