<svg width="193" height="30" viewBox="0 0 193 30" fill="none" xmlns="http://www.w3.org/2000/svg">
<path d="M6.36492 15.4031V29.703H0V3.73409H6.36492L14.4696 18.0764L22.5743 3.73409H28.9392V29.703H22.5743V15.4031L17.6521 23.8472H11.2871L6.36492 15.4031ZM48.4158 19.0948C48.2461 15.9972 46.8458 14.1726 43.6209 14.1726C42.7298 14.1726 41.9661 14.2999 41.3296 14.5545C39.3777 15.4455 38.6563 17.1004 38.6563 19.1372C38.6563 19.8161 38.7412 20.4526 38.9533 21.0042C39.5898 23.2108 41.4993 24.017 43.6209 24.017C46.8458 24.017 48.4158 22.2772 48.4158 19.0948ZM56.4781 29.703H50.1132C49.6888 28.6422 49.3069 27.5813 49.0523 26.4781C47.6096 28.8543 45.4031 29.9151 42.6874 29.9151C36.6195 29.9151 32.2914 24.8232 32.2914 19.0099C32.2914 12.3055 37.2984 8.2744 43.6209 8.2744C50.3678 8.2744 54.611 12.6025 54.7808 19.0948C54.8232 19.6464 54.8232 20.2829 54.8232 21.0467C54.8232 24.017 55.29 26.9873 56.4781 29.703ZM70.4809 9.20792V15.1061H64.5403V19.0948C64.5403 22.3621 66.7044 24.017 69.8444 24.017C70.2263 24.017 70.5658 23.9745 70.8628 23.9321C71.1598 23.8897 71.4144 23.8472 71.7115 23.8048V29.703C71.3296 29.7454 71.0325 29.8303 70.8204 29.8727C70.5658 29.9151 70.1414 29.9151 69.5898 29.9151C63.1825 29.9151 58.1754 25.5446 58.1754 19.0948V3.39463H64.5403V9.20792H70.4809ZM90.7214 22.7016V29.0665C88.5573 29.7878 86.3083 30 84.0594 30C77.4823 30 72.8147 25.6294 72.8147 19.1372C72.8147 12.3904 77.652 8.2744 84.0594 8.2744C86.3083 8.2744 88.5573 8.48656 90.7214 9.20792V15.5728C88.8543 14.5969 86.5205 14.3423 84.4413 14.3423C83.041 14.3423 81.3437 14.6393 80.3678 15.7426C79.4767 16.6337 79.1796 17.9066 79.1796 19.0948C79.1796 19.7737 79.2645 20.4102 79.4767 20.9618C79.6464 21.5559 79.9434 22.0651 80.3678 22.4894C81.3013 23.6351 83.041 23.9321 84.4413 23.9321C86.3083 23.9321 89.0665 23.5926 90.7214 22.7016ZM100.948 19.0948V29.703H94.5827V0H100.948V10.4385C102.433 8.86846 104.3 8.2744 106.421 8.2744C112.447 8.2744 116.223 13.4512 116.223 19.0948V29.703H109.859V19.0948C109.859 16.2093 108.713 14.1726 105.615 14.1726C102.56 14.1726 100.948 16.1245 100.948 19.0948ZM135.064 8.48656H141.429V19.0948C141.429 25.587 136.931 29.9151 130.608 29.9151C124.116 29.9151 119.788 25.3748 119.788 19.0948V8.48656H126.153V19.0948C126.153 21.9378 127.595 24.017 130.608 24.017C133.706 24.017 135.064 21.9802 135.064 19.0948V8.48656ZM160.566 19.0948C160.566 15.9123 158.996 14.1726 155.771 14.1726C154.88 14.1726 154.116 14.2999 153.479 14.5545C152.291 15.1061 151.485 15.9123 151.103 17.1853C150.891 17.7794 150.806 18.4158 150.806 19.0948C150.806 19.7737 150.891 20.4102 151.103 21.0042C151.443 22.2348 152.334 23.1259 153.479 23.5926C154.116 23.8897 154.88 24.017 155.771 24.017C158.996 24.017 160.566 22.2772 160.566 19.0948ZM160.566 10.6082V0H166.931V19.0948C166.931 25.8416 162.136 29.9151 155.728 29.9151C149.194 29.9151 144.441 25.6719 144.441 19.1796C144.441 13.1966 148.854 8.2744 154.88 8.2744C157.129 8.2744 159.081 8.91089 160.566 10.6082ZM181.188 24.017C184.286 24.017 186.068 22.1924 186.068 19.0948C186.068 15.9972 184.286 14.1726 181.188 14.1726C178.091 14.1726 176.308 15.9972 176.308 19.0948C176.308 22.1924 178.091 24.017 181.188 24.017ZM181.188 29.9151C174.653 29.9151 169.943 25.587 169.943 19.0948C169.943 12.3904 174.823 8.2744 181.188 8.2744C187.765 8.2744 192.433 12.6025 192.433 19.0948C192.433 25.7567 187.511 29.9151 181.188 29.9151Z" fill="white"/>
</svg>
