<svg width="48" height="48" viewBox="0 0 48 48" fill="none" xmlns="http://www.w3.org/2000/svg">
<circle cx="24" cy="24" r="24" fill="#F6F9FC"/>
<path d="M31.1875 27.0938V28.5C31.1875 29.5355 30.348 30.375 29.3125 30.375H28M18.8125 27.0938V28.5C18.8125 29.5355 19.652 30.375 20.6875 30.375H21.9062M18.8125 20.8125V19.6875C18.8125 18.652 19.652 17.8125 20.6875 17.8125H21.9062M31.1875 20.8125V19.6875C31.1875 18.652 30.348 17.8125 29.3125 17.8125H28M18.8125 25.1484V23.9531V22.7578M31.1875 25.1484V23.9531V22.7578M26.0078 17.8125H24.7656H23.7109M26.0078 30.375H24.7656H23.7109M21.625 26.25L23.8908 21.7892C23.903 21.7651 23.9277 21.75 23.9547 21.75C23.9823 21.75 24.0075 21.766 24.0194 21.791L26.125 26.25M22.75 25.125H24.8125M28.1875 26.25V21.75M31.1875 27H32.5M22 30.375V31.875" stroke="#A559A6" stroke-width="1.5" stroke-linecap="round"/>
<path d="M18.8125 27H17.3125" stroke="#A559A6" stroke-width="1.5" stroke-linecap="round" stroke-linejoin="round"/>
<path d="M22 17.8125V16.3125" stroke="#A559A6" stroke-width="1.5" stroke-linecap="round"/>
<path d="M31.1875 20.8125H32.5" stroke="#A559A6" stroke-width="1.5" stroke-linecap="round" stroke-linejoin="round"/>
<path d="M28 30.375V31.875" stroke="#A559A6" stroke-width="1.5" stroke-linecap="round"/>
<path d="M31.9375 23.4375H31.375V24.5625H31.9375V23.4375ZM34 24.5625C34.3107 24.5625 34.5625 24.3107 34.5625 24C34.5625 23.6893 34.3107 23.4375 34 23.4375V24.5625ZM31.9375 24.5625H34V23.4375H31.9375V24.5625ZM25.375 30.9375V30.375H24.25V30.9375H25.375ZM24.25 33C24.25 33.3107 24.5018 33.5625 24.8125 33.5625C25.1232 33.5625 25.375 33.3107 25.375 33H24.25ZM24.25 30.9375V33H25.375V30.9375H24.25ZM18.0625 23.4375H18.625V24.5625H18.0625V23.4375ZM16 24.5625C15.6893 24.5625 15.4375 24.3107 15.4375 24C15.4375 23.6893 15.6893 23.4375 16 23.4375V24.5625ZM18.0625 24.5625H16V23.4375H18.0625V24.5625ZM25.375 16.875V17.4375H24.25V16.875H25.375ZM24.25 14.8125C24.25 14.5018 24.5018 14.25 24.8125 14.25C25.1232 14.25 25.375 14.5018 25.375 14.8125H24.25ZM24.25 16.875V14.8125H25.375V16.875H24.25Z" fill="#A559A6"/>
<path d="M18.8125 20.8125H17.3125" stroke="#A559A6" stroke-width="1.5" stroke-linecap="round" stroke-linejoin="round"/>
<path d="M28 17.8125V16.3125" stroke="#A559A6" stroke-width="1.5" stroke-linecap="round"/>
</svg>
