<svg width="140" height="140" viewBox="0 0 140 140" fill="none" xmlns="http://www.w3.org/2000/svg">
<circle cx="70" cy="70" r="68.6" fill="white" stroke="#DEEAF6" stroke-width="2.8"/>
<path d="M100.171 35C101.054 35 101.827 35.3311 102.489 35.9932C103.151 36.6554 103.482 37.4279 103.482 38.3108V101.689C103.482 102.572 103.151 103.345 102.489 104.007C101.827 104.669 101.054 105 100.171 105H92.9819C92.036 105 91.2477 104.669 90.6171 104.007C89.9864 103.345 89.6711 102.572 89.6711 101.689V58.9324L72.1711 81.4459C71.4774 82.2658 70.5945 82.6757 69.5225 82.6757C69.018 82.6757 68.5135 82.5653 68.009 82.3446C67.5044 82.1239 67.1261 81.7928 66.8738 81.3514L35.8468 40.2973C35.4684 39.8559 35.2477 39.3041 35.1846 38.6419C35.1216 37.9797 35.2477 37.3806 35.563 36.8446C35.8783 36.3086 36.2882 35.8671 36.7927 35.5203C37.2972 35.1734 37.8648 35 38.4954 35H46.8198C47.8918 35 48.7747 35.4414 49.4684 36.3243L69.5225 62.8108L89.1035 36.3243C89.7972 35.4414 90.7117 35 91.8468 35H100.171ZM45.6846 80.8784C46.5675 80.8784 47.34 81.1937 48.0022 81.8243C48.6644 82.455 48.9954 83.2432 48.9954 84.1892V101.689C48.9954 102.572 48.6644 103.345 48.0022 104.007C47.34 104.669 46.5675 105 45.6846 105H38.4954C37.6125 105 36.84 104.669 36.1779 104.007C35.5157 103.345 35.1846 102.572 35.1846 101.689V84.1892C35.1846 83.2432 35.5157 82.455 36.1779 81.8243C36.84 81.1937 37.6125 80.8784 38.4954 80.8784H45.6846Z" fill="url(#paint0_linear_2191_144)"/>
<defs>
<linearGradient id="paint0_linear_2191_144" x1="35.1689" y1="35" x2="103.482" y2="35" gradientUnits="userSpaceOnUse">
<stop stop-color="#00DDFF"/>
<stop offset="1" stop-color="#FF00D4"/>
</linearGradient>
</defs>
</svg>
