<svg width="48" height="48" viewBox="0 0 48 48" fill="none" xmlns="http://www.w3.org/2000/svg">
<circle cx="24" cy="24" r="24" fill="#F6F9FC"/>
<path d="M30 32C30 30.4087 29.3679 28.8826 28.2426 27.7574C27.1174 26.6321 25.5913 26 24 26C22.4087 26 20.8826 26.6321 19.7574 27.7574C18.6321 28.8826 18 30.4087 18 32" stroke="#A559A6" stroke-width="1.5" stroke-linecap="round" stroke-linejoin="round"/>
<path d="M24 26C26.2091 26 28 24.2091 28 22C28 19.7909 26.2091 18 24 18C21.7909 18 20 19.7909 20 22C20 24.2091 21.7909 26 24 26Z" stroke="#A559A6" stroke-width="1.5" stroke-linecap="round" stroke-linejoin="round"/>
<path d="M24 34C29.5228 34 34 29.5228 34 24C34 18.4772 29.5228 14 24 14C18.4772 14 14 18.4772 14 24C14 29.5228 18.4772 34 24 34Z" stroke="#A559A6" stroke-width="1.5" stroke-linecap="round" stroke-linejoin="round"/>
</svg>
