<svg width="36" height="36" viewBox="0 0 36 36" fill="none" xmlns="http://www.w3.org/2000/svg">
<circle cx="18" cy="18" r="17.5" stroke="#DEEAF6"/>
<path d="M18.5139 24.6246V25.75H16.8898V24.6942V24.4516L16.6473 24.4443C15.7868 24.4185 14.9715 24.3411 14.2183 24.2127C13.5372 24.0967 12.9662 23.9475 12.5112 23.7567V21.6535C12.7497 21.734 12.983 21.8044 13.2101 21.8702C13.5497 21.9685 13.8964 22.0484 14.2491 22.1189L14.2491 22.119L14.2551 22.12C14.6086 22.1819 14.9792 22.2348 15.3668 22.2789L15.3668 22.2789L15.3724 22.2794C15.7605 22.3147 16.1844 22.3412 16.6437 22.3501L16.8985 22.355V22.1001V19.1752V18.9607L16.6865 18.9281C16.1258 18.8418 15.577 18.7388 15.0387 18.6021C14.5113 18.4681 14.0404 18.2773 13.6224 18.0151C13.2202 17.7575 12.89 17.4197 12.6308 16.9985C12.3835 16.5967 12.25 16.063 12.25 15.3711C12.25 14.8179 12.349 14.3332 12.5482 13.9108C12.7507 13.4814 13.033 13.1108 13.4041 12.8043L13.4041 12.8043L13.4065 12.8022C13.7782 12.487 14.2371 12.2391 14.7911 12.0375C15.3464 11.8441 15.9715 11.7003 16.6755 11.624L16.8985 11.5998V11.3754V10.25H18.5226V11.3319V11.5689L18.7593 11.5815C19.4034 11.6159 20.0555 11.6846 20.7157 11.796C21.3063 11.8957 21.854 12.0296 22.3528 12.191V14.3076C21.091 13.9218 19.8986 13.6993 18.7836 13.6501L18.5226 13.6386V13.8999V16.8683V17.079L18.7302 17.1147C19.2826 17.2097 19.8316 17.3213 20.3701 17.4666C20.8941 17.608 21.3577 17.8152 21.7707 18.0794C22.1657 18.3376 22.4924 18.6735 22.723 19.095L22.7229 19.0951L22.7276 19.103C22.9681 19.5065 23.1015 20.0419 23.1015 20.7247C23.1015 21.7997 22.7364 22.6125 22.0009 23.2121L21.9999 23.213C21.2583 23.8241 20.1796 24.2224 18.7374 24.376L18.5139 24.3998V24.6246ZM16.6045 16.7836L16.8985 16.8363V16.5375V13.9782V13.7002L16.622 13.7296C15.9563 13.8007 15.4481 13.9551 15.136 14.2241C14.828 14.4897 14.6749 14.8289 14.6749 15.2318C14.6749 15.6777 14.8466 16.0487 15.2128 16.2929C15.5395 16.5107 16.0032 16.6759 16.6045 16.7836ZM18.5226 21.9956V22.2791L18.8038 22.2437C19.3755 22.1717 19.8382 22.0265 20.1633 21.785C20.5015 21.5337 20.6765 21.1875 20.6765 20.7682C20.6765 20.3215 20.5048 19.9631 20.1621 19.72C19.848 19.497 19.3876 19.3406 18.8149 19.2422L18.5226 19.1919V19.4886V21.9956Z" fill="#0A2540" stroke="white" stroke-width="0.5"/>
</svg>
