<svg width="48" height="43" viewBox="0 0 48 43" fill="none" xmlns="http://www.w3.org/2000/svg">
<path d="M18.3938 0.803123C17.1469 1.1125 15.7594 2.0875 15.0375 3.175C14.8406 3.475 14.55 4.05625 14.4 4.46875C14.1375 5.19062 14.1281 5.30312 14.0813 7.15937L14.0438 9.10938H7.55625C0.328125 9.10938 0.665625 9.08125 0.215625 9.75625L0 10.075L0.01875 23.8187L0.046875 37.5625L0.3 38.2937C1.00313 40.375 2.625 41.9969 4.73438 42.7375L5.48438 43H24H42.5156L43.2656 42.7375C45.375 41.9969 46.9969 40.375 47.7 38.2937L47.9531 37.5625L47.9813 23.8187L48 10.075L47.7844 9.75625C47.3344 9.08125 47.6719 9.10938 40.4438 9.10938H33.9563L33.9188 7.20625C33.8813 5.47187 33.8531 5.24687 33.6281 4.5625C33.0188 2.73438 31.425 1.24375 29.6156 0.8125C28.8094 0.625 19.1813 0.615623 18.3938 0.803123ZM29.4281 3.86875C29.8313 4.06562 30.1313 4.30937 30.375 4.62812C30.9281 5.32187 31.0313 5.79062 31.0313 7.58125V9.10938H23.9906H16.95L16.9875 7.39375C17.0156 5.89375 17.0438 5.63125 17.2125 5.25625C17.5031 4.62812 17.9438 4.1875 18.5813 3.85938L19.1531 3.57812H24H28.8469L29.4281 3.86875ZM44.9625 12.4844C44.775 13.9187 43.8094 16.1687 42.7406 17.6875C41.9344 18.8125 40.2094 20.5469 38.9813 21.4469C36.7406 23.0969 34.0875 24.3344 31.1156 25.1312L30.1125 25.4031L30.0844 23.9219C30.0469 22.2812 30 22.1406 29.3438 21.6906L29.0344 21.4844H24H18.9656L18.6562 21.6906C18 22.1406 17.9531 22.2812 17.9156 23.9219L17.8875 25.4031L17.025 25.1781C11.6719 23.7531 7.3125 20.875 4.92188 17.1906C4.0125 15.7844 3.20625 13.7687 3.0375 12.4844L2.97188 12.0156H24H45.0281L44.9625 12.4844ZM3.29063 19.9562C3.83438 20.6875 5.41875 22.3094 6.29063 23.0406C8.025 24.4937 10.725 26.0594 13.0688 26.9688C14.1938 27.4094 15.8344 27.9062 17.1094 28.1969C17.5219 28.2812 17.8969 28.3937 17.9344 28.4219C17.9813 28.4594 18.075 28.7406 18.15 29.0406C18.4219 30.0906 18.9188 30.9344 19.7344 31.75C20.9719 32.9875 22.2656 33.5219 24 33.5219C25.7063 33.5219 27.0281 32.9875 28.2281 31.7969C29.025 31.0094 29.4188 30.3719 29.7188 29.4062C30.0563 28.3281 30.0094 28.3844 30.6656 28.2531C30.9938 28.1781 31.7906 27.9812 32.4281 27.8031C35.8594 26.8375 39.2063 25.1219 41.6906 23.05C42.6656 22.2344 44.1281 20.725 44.7188 19.9469L45.1406 19.3844L45.1688 20.4156C45.1875 20.9781 45.1875 24.8969 45.1688 29.125L45.1406 36.8125L44.925 37.375C44.4656 38.6125 43.5188 39.55 42.3563 39.9437L41.775 40.1406H24.0375C6.53438 40.1406 6.29063 40.1406 5.69063 39.9531C4.51875 39.5875 3.54375 38.6312 3.075 37.375L2.85938 36.8125L2.83125 28.1125C2.8125 23.3312 2.82188 19.4219 2.84063 19.4219C2.86875 19.4219 3.06563 19.6656 3.29063 19.9562ZM27.1688 26.2375C27.1125 28.4219 27 28.8531 26.2688 29.6312C25.0125 30.9719 22.9875 30.9719 21.7313 29.6312C21 28.8531 20.8875 28.4219 20.8313 26.2375L20.7938 24.3906H24H27.2063L27.1688 26.2375Z" fill="#635BFF"/>
</svg>
