<svg width="48" height="48" viewBox="0 0 48 48" fill="none" xmlns="http://www.w3.org/2000/svg">
<path d="M17.8804 0.14064C15.602 0.768848 14.43 2.72847 15.0769 4.8475C15.4051 5.91639 15.6301 6.19767 20.2807 11.439L22.4842 13.9237L22.1185 13.9893C21.6122 14.0831 21.3215 14.2987 21.0965 14.7582C20.8621 15.2457 20.8621 15.4989 21.0871 15.9958C21.284 16.4365 21.5559 16.6521 22.0528 16.7928L22.4091 16.8866L21.3965 18.0305C20.2807 19.2962 18.3867 21.5653 17.4398 22.7561C16.9616 23.3655 16.8209 23.4968 16.774 23.3655C16.7365 23.2811 16.5771 23.0749 16.4084 22.9248L16.1177 22.6435H8.42921H0.740721L0.365672 23.0373L0 23.4312V35.2639C0 46.8811 0 47.0967 0.187524 47.3967C0.290663 47.5561 0.506315 47.7624 0.675087 47.8562C0.96575 48.0062 2.19403 48.0156 20.4401 47.9874L39.8958 47.9593L40.6177 47.753C42.3617 47.2561 43.8994 46.3747 45.1089 45.1652C46.3279 43.9557 47.153 42.5774 47.6968 40.824C47.9312 40.0458 47.9499 39.877 47.9499 38.2549C47.9593 36.3234 47.8749 35.8734 47.1998 34.2325C45.9059 31.0915 42.0336 25.5971 36.7454 19.4181C35.8453 18.368 34.992 17.3647 34.8514 17.196L34.5888 16.8866L34.9545 16.7928C35.564 16.624 36.0046 16.0333 36.0046 15.3582C36.0046 14.655 35.5171 14.0924 34.8045 13.9799L34.4669 13.9237L36.3891 11.7671C39.5113 8.26044 40.974 6.56335 41.3116 6.05703C41.8273 5.2788 42.0429 4.57559 42.0429 3.65672C42.0429 2.69097 41.7898 2.04401 41.1241 1.33142C40.2802 0.431305 39.1175 0 37.5423 0C36.1172 0 34.7482 0.403175 33.4918 1.19078C33.2199 1.35955 32.9761 1.50019 32.948 1.50019C32.9199 1.50019 32.7323 1.3783 32.5448 1.22828C31.6635 0.534443 30.3695 0.0937614 28.9537 0.0281258C27.2098 -0.0656357 25.8408 0.271908 24.6407 1.08764L24.0125 1.50957L23.3843 1.13452C22.6154 0.675087 21.5278 0.243778 20.7777 0.103138C20.0276 -0.0375061 18.443 -0.00937653 17.8804 0.14064ZM20.5433 3.05664C21.3027 3.28167 22.1935 3.77861 22.878 4.36931C23.8343 5.19442 24.2656 5.31631 25.0064 4.96001C25.3158 4.80999 25.4752 4.6506 25.6439 4.31306C26.1409 3.33793 27.2004 2.85974 28.7193 2.92538C29.4038 2.95351 29.6945 3.01914 30.1445 3.21604C30.8384 3.5442 30.9978 3.68485 31.279 4.23804C31.5509 4.78186 31.8791 5.03502 32.3854 5.11003C32.9199 5.19442 33.2949 5.02565 34.1107 4.34118C35.2452 3.38481 36.4172 2.90662 37.5986 2.90662C38.3206 2.90662 38.9582 3.15978 39.1082 3.5067C39.3332 4.00364 39.1082 4.28493 32.8167 11.3733L30.5196 13.9706H28.4943H26.4597L23.5624 10.7076C17.9086 4.35994 17.7023 4.10678 17.8523 3.52545C17.9929 2.97226 19.4088 2.72847 20.5433 3.05664ZM31.9823 18.3961C38.1424 25.3158 43.0931 32.0198 44.4807 35.3202C44.9402 36.3984 45.0996 37.1579 45.0996 38.2081C45.0996 39.3707 44.9214 40.1208 44.3682 41.2553C44.0026 42.0148 43.8057 42.2773 43.0368 43.0462C42.2586 43.8338 42.0242 44.0026 41.2553 44.3776C39.577 45.1746 40.1958 45.1277 30.904 45.1746L22.6717 45.2027L22.8592 44.9402C23.7593 43.665 24.2281 41.6773 24.0031 40.0645C23.5437 36.6704 20.9558 34.2044 17.5523 33.8856L16.8772 33.82V31.054V28.288L17.5523 27.3879C19.2962 25.0532 22.3248 21.3871 25.1939 18.143L26.3003 16.8959L28.4662 16.8866L30.6321 16.8772L31.9823 18.3961ZM13.9706 26.8628V28.2224H8.39171H2.81286V26.8628V25.5033H8.39171H13.9706V26.8628ZM13.9706 32.4886V33.8481H8.39171H2.81286V32.4886V31.129H8.39171H13.9706V32.4886ZM11.1577 36.7923C11.1577 36.811 10.9983 37.1017 10.8014 37.4298C10.6045 37.7674 10.3513 38.3675 10.2201 38.7613L9.99504 39.4738H6.40395H2.81286V38.1143V36.7547H6.98528C9.28245 36.7547 11.1577 36.7735 11.1577 36.7923ZM17.9554 36.8954C19.6057 37.3267 20.8246 38.6581 21.1058 40.3458C21.3965 42.0617 20.412 43.89 18.7618 44.7058C18.0773 45.0433 18.0398 45.0527 16.9803 45.0527C15.9583 45.0527 15.8552 45.0339 15.2645 44.7527C12.5829 43.4869 11.9547 40.0927 14.0174 38.0205C15.0863 36.961 16.5584 36.5391 17.9554 36.8954ZM10.1169 42.793C10.2388 43.3181 10.7451 44.4714 11.0733 44.9214L11.2608 45.1933H7.04153H2.81286V43.74V42.2867H6.40395H10.0044L10.1169 42.793Z" fill="#635BFF"/>
<path d="M27.6504 22.8216C27.3316 23.0373 27.0035 23.6186 27.0035 23.9562C27.0035 24.0312 26.9285 24.0968 26.8347 24.0968C26.544 24.0968 25.7471 24.5469 25.3345 24.9407C23.8812 26.3471 23.8531 28.6349 25.2783 30.0695C26.0284 30.8196 27.0035 31.1196 28.6724 31.129C29.31 31.129 29.4694 31.1571 29.6288 31.3165C29.8632 31.5509 29.8726 31.8884 29.6382 32.1697C29.46 32.3948 29.4319 32.3948 27.266 32.4416C24.7813 32.4979 24.6876 32.5166 24.3688 33.2199C24.1437 33.7356 24.1437 33.9981 24.4063 34.5044C24.7063 35.1045 25.0532 35.2733 26.1034 35.3295L26.966 35.3764L27.191 35.8546C27.4817 36.4453 27.8567 36.6797 28.513 36.6797C29.1975 36.6797 29.7601 36.2203 29.9007 35.5358C29.9476 35.2826 30.0226 35.217 30.3695 35.0951C31.2697 34.7951 32.001 34.12 32.4323 33.2011C32.648 32.7417 32.6761 32.5542 32.6761 31.7384C32.6761 30.8664 32.6573 30.7539 32.376 30.182C32.0104 29.4413 31.4197 28.8693 30.679 28.5224C30.2101 28.2974 29.9945 28.2692 28.8506 28.2223C27.566 28.1755 27.5473 28.1755 27.3223 27.9129C27.0504 27.5941 27.041 27.4722 27.2848 27.1628L27.4723 26.9284L29.6194 26.8909C31.6259 26.8628 31.7853 26.8534 32.0385 26.6659C32.948 25.9908 32.9574 24.7438 32.0479 24.1906C31.7947 24.0406 31.5697 24.003 30.829 24.003C29.9382 24.003 29.9101 23.9937 29.9101 23.7874C29.9101 23.4874 29.5819 22.9998 29.235 22.7841C28.785 22.5122 28.0817 22.531 27.6504 22.8216Z" fill="#635BFF"/>
</svg>
