<svg width="36" height="36" viewBox="0 0 36 36" fill="none" xmlns="http://www.w3.org/2000/svg">
<circle cx="18" cy="18" r="17.5" stroke="#DEEAF6"/>
<path d="M22 13.9501H21.1C20.9807 13.9501 20.8662 13.9027 20.7818 13.8183C20.6974 13.7339 20.65 13.6194 20.65 13.5001C20.65 13.3808 20.6974 13.2663 20.7818 13.1819C20.8662 13.0975 20.9807 13.0501 21.1 13.0501H21.55V11.2501H21.1C20.9807 11.2501 20.8662 11.2027 20.7818 11.1183C20.6974 11.0339 20.65 10.9194 20.65 10.8001C20.65 10.6808 20.6974 10.5663 20.7818 10.4819C20.8662 10.3975 20.9807 10.3501 21.1 10.3501H22C22.1194 10.3501 22.2338 10.3975 22.3182 10.4819C22.4026 10.5663 22.45 10.6808 22.45 10.8001V13.5001C22.45 13.6194 22.4026 13.7339 22.3182 13.8183C22.2338 13.9027 22.1194 13.9501 22 13.9501ZM18.4 13.5001C18.133 13.5001 17.872 13.4209 17.65 13.2726C17.428 13.1242 17.2549 12.9134 17.1528 12.6667C17.0506 12.42 17.0239 12.1486 17.0759 11.8867C17.128 11.6249 17.2566 11.3843 17.4454 11.1955C17.6342 11.0067 17.8748 10.8781 18.1366 10.826C18.3985 10.7739 18.6699 10.8007 18.9166 10.9029C19.1633 11.005 19.3742 11.1781 19.5225 11.4001C19.6708 11.6221 19.75 11.8831 19.75 12.1501C19.75 12.5081 19.6078 12.8515 19.3546 13.1047C19.1014 13.3579 18.758 13.5001 18.4 13.5001ZM18.4 11.7001C18.311 11.7001 18.224 11.7265 18.15 11.7759C18.076 11.8254 18.0183 11.8957 17.9843 11.9779C17.9502 12.0601 17.9413 12.1506 17.9587 12.2379C17.976 12.3252 18.0189 12.4054 18.0818 12.4683C18.1447 12.5312 18.2249 12.5741 18.3122 12.5915C18.3995 12.6088 18.49 12.5999 18.5722 12.5658C18.6544 12.5318 18.7247 12.4741 18.7742 12.4001C18.8236 12.3261 18.85 12.2391 18.85 12.1501C18.85 12.0308 18.8026 11.9163 18.7182 11.8319C18.6338 11.7475 18.5194 11.7001 18.4 11.7001ZM15.7 13.9501H14.8C14.6807 13.9501 14.5662 13.9027 14.4818 13.8183C14.3974 13.7339 14.35 13.6194 14.35 13.5001V10.8001C14.35 10.6808 14.3974 10.5663 14.4818 10.4819C14.5662 10.3975 14.6807 10.3501 14.8 10.3501H15.7C15.8194 10.3501 15.9338 10.3975 16.0182 10.4819C16.1026 10.5663 16.15 10.6808 16.15 10.8001C16.15 10.9194 16.1026 11.0339 16.0182 11.1183C15.9338 11.2027 15.8194 11.2501 15.7 11.2501H15.25V13.0501H15.7C15.8194 13.0501 15.9338 13.0975 16.0182 13.1819C16.1026 13.2663 16.15 13.3808 16.15 13.5001C16.15 13.6194 16.1026 13.7339 16.0182 13.8183C15.9338 13.9027 15.8194 13.9501 15.7 13.9501Z" fill="#0A2540"/>
<path d="M23.35 9H13.45C13.3307 9 13.2162 9.04741 13.1318 9.1318C13.0474 9.21619 13 9.33065 13 9.45V14.85C13 14.9693 13.0474 15.0838 13.1318 15.1682C13.2162 15.2526 13.3307 15.3 13.45 15.3H23.35C23.4693 15.3 23.5838 15.2526 23.6682 15.1682C23.7526 15.0838 23.8 14.9693 23.8 14.85V9.45C23.8 9.33065 23.7526 9.21619 23.6682 9.1318C23.5838 9.04741 23.4693 9 23.35 9ZM22.9 14.4H13.9V9.9H22.9V14.4ZM22.8235 21.798C22.7822 21.7369 22.7266 21.6869 22.6614 21.6524C22.5963 21.6179 22.5237 21.5999 22.45 21.6H14.35C14.2763 21.5999 14.2037 21.6179 14.1386 21.6524C14.0734 21.6869 14.0178 21.7369 13.9765 21.798C13.9355 21.8588 13.9099 21.9287 13.9021 22.0017C13.8942 22.0746 13.9043 22.1484 13.9315 22.2165L14.044 22.5L15.7315 26.7165C15.7648 26.8002 15.8226 26.872 15.8972 26.9226C15.9718 26.9731 16.0599 27.0001 16.15 27H20.65C20.7401 27.0001 20.8282 26.9731 20.9028 26.9226C20.9774 26.872 21.0352 26.8002 21.0685 26.7165L22.756 22.5L22.8685 22.2165C22.8957 22.1484 22.9058 22.0746 22.8979 22.0017C22.8901 21.9287 22.8645 21.8588 22.8235 21.798ZM20.344 26.1H16.456L15.016 22.5H21.766L20.344 26.1Z" fill="#0A2540"/>
<path d="M23.8 22.0501C23.8 22.1694 23.7526 22.2839 23.6682 22.3683C23.5838 22.4527 23.4693 22.5001 23.35 22.5001H13.45C13.3307 22.5001 13.2162 22.4527 13.1318 22.3683C13.0474 22.2839 13 22.1694 13 22.0501C13 21.9308 13.0474 21.8163 13.1318 21.7319C13.2162 21.6475 13.3307 21.6001 13.45 21.6001H23.35C23.4693 21.6001 23.5838 21.6475 23.6682 21.7319C23.7526 21.8163 23.8 21.9308 23.8 22.0501Z" fill="#0A2540"/>
<path d="M18.4 22.4999C18.2807 22.4999 18.1662 22.4525 18.0818 22.3681C17.9974 22.2837 17.95 22.1693 17.95 22.0499V14.8499C17.95 14.7306 17.9974 14.6161 18.0818 14.5317C18.1662 14.4473 18.2807 14.3999 18.4 14.3999C18.5194 14.3999 18.6338 14.4473 18.7182 14.5317C18.8026 14.6161 18.85 14.7306 18.85 14.8499V22.0499C18.85 22.1693 18.8026 22.2837 18.7182 22.3681C18.6338 22.4525 18.5194 22.4999 18.4 22.4999Z" fill="#0A2540"/>
<path d="M22.9 17.1001H21.1C20.6317 17.1005 20.1694 17.2053 19.7467 17.407C19.324 17.6086 18.9515 17.9019 18.6565 18.2656C18.2938 18.7043 18.0615 19.2359 17.986 19.8001C17.9604 19.9487 17.9484 20.0993 17.95 20.2501C17.95 20.3694 17.9974 20.4839 18.0818 20.5683C18.1662 20.6527 18.2807 20.7001 18.4 20.7001H20.2C21.0354 20.7001 21.8366 20.3682 22.4274 19.7775C23.0181 19.1867 23.35 18.3855 23.35 17.5501C23.35 17.4308 23.3026 17.3163 23.2182 17.2319C23.1338 17.1475 23.0193 17.1001 22.9 17.1001ZM20.2 19.8001H18.895C18.9987 19.2919 19.2749 18.8351 19.6767 18.5071C20.0785 18.1791 20.5813 18 21.1 18.0001H22.405C22.3013 18.5083 22.0251 18.9651 21.6233 19.2931C21.2215 19.6211 20.7187 19.8002 20.2 19.8001Z" fill="#0A2540"/>
<path d="M18.6565 18.2655C18.4345 17.6599 18.0319 17.1371 17.5031 16.7677C16.9744 16.3983 16.345 16.2001 15.7 16.2H13.9C13.7807 16.2 13.6662 16.2474 13.5818 16.3318C13.4974 16.4161 13.45 16.5306 13.45 16.65C13.45 17.4854 13.7819 18.2866 14.3726 18.8773C14.9634 19.4681 15.7646 19.8 16.6 19.8H18.4C18.5194 19.8 18.6338 19.7525 18.7182 19.6682C18.8026 19.5838 18.85 19.4693 18.85 19.35C18.851 18.9798 18.7854 18.6125 18.6565 18.2655ZM16.6 18.9C16.0813 18.9001 15.5785 18.7209 15.1767 18.3929C14.7749 18.0649 14.4988 17.6082 14.395 17.1H15.7C16.2187 17.0998 16.7215 17.279 17.1233 17.607C17.5251 17.935 17.8013 18.3917 17.905 18.9H16.6Z" fill="#0A2540"/>
</svg>
