<svg width="359" height="30" viewBox="0 0 359 30" fill="none" xmlns="http://www.w3.org/2000/svg">
<path d="M0 0.682736H6.3052V24.0562H20.2811V29.3574H0V0.682736ZM27.0209 0.682736H48.4666V5.98393H33.3261V12.1285H47.2217V17.0281H33.3261V24.0562H48.7879V29.3574H27.0209V0.682736ZM62.6192 5.98393H54.0249V0.682736H77.5189V5.98393H68.9245V29.3574H62.6192V5.98393ZM84.0007 0.682736H89.7036V6.82731C89.7277 7.71084 89.5912 8.54057 89.302 9.31727C89.0289 10.094 88.6433 10.7767 88.1373 11.3655C87.6232 11.9542 87.0129 12.4498 86.29 12.8514C85.5912 13.2265 84.828 13.4675 84.0007 13.5743V10.9237C85.0128 10.5759 85.7117 10.0667 86.0892 9.39759C86.4586 8.7012 86.6514 7.85783 86.6514 6.86747H84.0007V0.682736ZM102.724 19.8394C102.724 20.8032 102.9 21.6201 103.246 22.2892C103.599 22.9582 104.049 23.5076 104.611 23.9357C105.206 24.3373 105.888 24.645 106.659 24.8594C107.439 25.0466 108.242 25.1406 109.069 25.1406C109.631 25.1406 110.234 25.1004 110.876 25.0201C111.519 24.9132 112.121 24.7253 112.684 24.4578C113.246 24.1904 113.72 23.8289 114.089 23.3735C114.467 22.8916 114.651 22.2892 114.651 21.5663C114.651 20.7896 114.402 20.1606 113.888 19.6787C113.406 19.1968 112.764 18.7952 111.961 18.4739C111.157 18.1526 110.25 17.8715 109.23 17.6305C108.218 17.3896 107.181 17.1221 106.137 16.8273C105.069 16.5598 104.025 16.2386 103.005 15.8635C101.993 15.4618 101.077 14.9534 100.274 14.3374C99.4706 13.7213 98.8201 12.9582 98.306 12.0482C97.8241 11.1108 97.5831 9.98635 97.5831 8.6747C97.5831 7.20241 97.8964 5.93012 98.5068 4.85944C99.1494 3.76145 99.9847 2.8514 100.997 2.12851C102.017 1.40562 103.165 0.869874 104.451 0.522083C105.736 0.174292 107.021 0 108.306 0C109.808 0 111.238 0.174292 112.603 0.522083C114.001 0.843368 115.23 1.37911 116.298 2.12851C117.374 2.87791 118.218 3.84177 118.828 5.02008C119.471 6.17108 119.792 7.57671 119.792 9.23695H113.688C113.639 8.37992 113.447 7.67069 113.125 7.10844C112.836 6.54619 112.434 6.10441 111.92 5.78313C111.414 5.46184 110.828 5.23454 110.153 5.10041C109.511 4.96627 108.804 4.8996 108.025 4.8996C107.519 4.8996 107.013 4.95342 106.499 5.06024C105.993 5.16707 105.527 5.35502 105.093 5.62249C104.691 5.88996 104.362 6.2249 104.089 6.6265C103.824 7.02811 103.687 7.53654 103.687 8.1526C103.687 8.71485 103.8 9.17028 104.009 9.51807C104.226 9.86587 104.643 10.1871 105.254 10.4819C105.896 10.7767 106.772 11.0707 107.864 11.3655C108.989 11.6602 110.451 12.0345 112.242 12.49C112.78 12.5968 113.519 12.7976 114.451 13.0924C115.414 13.3598 116.37 13.8016 117.302 14.4177C118.242 15.0337 119.045 15.8635 119.712 16.9076C120.41 17.9253 120.756 19.2369 120.756 20.8434C120.756 22.155 120.507 23.3735 119.993 24.498C119.487 25.6225 118.724 26.6 117.704 27.4297C116.716 28.2329 115.471 28.8618 113.969 29.3173C112.499 29.7727 110.788 30 108.828 30C107.254 30 105.712 29.7992 104.21 29.3976C102.74 29.0225 101.43 28.4201 100.274 27.5904C99.1493 26.7606 98.2578 25.7028 97.5831 24.4177C96.9164 23.1325 96.5952 21.6064 96.6193 19.8394H102.724ZM161.23 10.3213C161.125 9.5984 160.884 8.94216 160.507 8.35341C160.129 7.73734 159.663 7.2024 159.101 6.74698C158.539 6.29156 157.896 5.94378 157.173 5.70282C156.475 5.43535 155.744 5.30121 154.965 5.30121C153.543 5.30121 152.338 5.58232 151.35 6.14457C150.362 6.68032 149.559 7.41606 148.941 8.35341C148.322 9.26345 147.872 10.3076 147.575 11.4859C147.31 12.6643 147.173 13.8819 147.173 15.1406C147.173 16.3454 147.31 17.5237 147.575 18.6747C147.872 19.7992 148.322 20.8169 148.941 21.7269C149.559 22.6369 150.362 23.3735 151.35 23.9357C152.338 24.4715 153.543 24.739 154.965 24.739C156.892 24.739 158.394 24.1502 159.463 22.9719C160.563 21.7936 161.23 20.241 161.471 18.3133H167.575C167.414 20.1068 166.997 21.7269 166.33 23.1727C165.663 24.6185 164.78 25.8498 163.679 26.8675C162.579 27.8851 161.294 28.661 159.824 29.1968C158.354 29.7325 156.732 30 154.965 30C152.772 30 150.788 29.6249 149.021 28.8755C147.278 28.0988 145.808 27.0418 144.603 25.7028C143.398 24.3639 142.475 22.7976 141.832 21.004C141.189 19.1831 140.868 17.2289 140.868 15.1406C140.868 12.9984 141.189 11.0177 141.832 9.19678C142.475 7.34939 143.398 5.74297 144.603 4.37751C145.808 3.01205 147.278 1.94136 149.021 1.16466C150.788 0.387949 152.772 0 154.965 0C156.547 0 158.033 0.227314 159.422 0.682736C160.844 1.13816 162.097 1.80723 163.198 2.69077C164.322 3.5478 165.246 4.61848 165.969 5.90362C166.692 7.18876 167.149 8.66105 167.334 10.3213H161.23ZM180.153 15.1406C180.153 16.3454 180.29 17.5237 180.555 18.6747C180.852 19.7992 181.302 20.8169 181.92 21.7269C182.539 22.6369 183.342 23.3735 184.33 23.9357C185.318 24.4715 186.523 24.739 187.945 24.739C189.366 24.739 190.571 24.4715 191.559 23.9357C192.547 23.3735 193.35 22.6369 193.969 21.7269C194.587 20.8169 195.029 19.7992 195.294 18.6747C195.591 17.5237 195.736 16.3454 195.736 15.1406C195.736 13.8819 195.591 12.6643 195.294 11.4859C195.029 10.3076 194.587 9.26345 193.969 8.35341C193.35 7.41606 192.547 6.68032 191.559 6.14457C190.571 5.58232 189.366 5.30121 187.945 5.30121C186.523 5.30121 185.318 5.58232 184.33 6.14457C183.342 6.68032 182.539 7.41606 181.92 8.35341C181.302 9.26345 180.852 10.3076 180.555 11.4859C180.29 12.6643 180.153 13.8819 180.153 15.1406ZM173.848 15.1406C173.848 12.9984 174.169 11.0177 174.812 9.19678C175.455 7.34939 176.378 5.74297 177.583 4.37751C178.788 3.01205 180.258 1.94136 182.001 1.16466C183.768 0.387949 185.752 0 187.945 0C190.169 0 192.145 0.387949 193.888 1.16466C195.631 1.94136 197.101 3.01205 198.306 4.37751C199.511 5.74297 200.434 7.34939 201.077 9.19678C201.72 11.0177 202.041 12.9984 202.041 15.1406C202.041 17.2289 201.72 19.1831 201.077 21.004C200.434 22.7976 199.511 24.3639 198.306 25.7028C197.101 27.0418 195.631 28.0988 193.888 28.8755C192.145 29.6249 190.169 30 187.945 30C185.752 30 183.768 29.6249 182.001 28.8755C180.258 28.0988 178.788 27.0418 177.583 25.7028C176.378 24.3639 175.455 22.7976 174.812 21.004C174.169 19.1831 173.848 17.2289 173.848 15.1406ZM209.567 0.682736H215.832L227.8 19.9197H227.88V0.682736H233.784V29.3574H227.479L215.551 10.1606H215.471V29.3574H209.567V0.682736ZM242.547 0.682736H248.812L260.78 19.9197H260.86V0.682736H266.764V29.3574H260.459L248.531 10.1606H248.451V29.3574H242.547V0.682736ZM275.527 0.682736H296.973V5.98393H281.832V12.1285H295.728V17.0281H281.832V24.0562H297.294V29.3574H275.527V0.682736ZM323.896 10.3213C323.784 9.5984 323.543 8.94216 323.173 8.35341C322.796 7.73734 322.33 7.2024 321.768 6.74698C321.206 6.29156 320.563 5.94378 319.84 5.70282C319.141 5.43535 318.402 5.30121 317.631 5.30121C316.21 5.30121 315.005 5.58232 314.017 6.14457C313.021 6.68032 312.218 7.41606 311.607 8.35341C310.989 9.26345 310.531 10.3076 310.242 11.4859C309.969 12.6643 309.84 13.8819 309.84 15.1406C309.84 16.3454 309.969 17.5237 310.242 18.6747C310.531 19.7992 310.989 20.8169 311.607 21.7269C312.218 22.6369 313.021 23.3735 314.017 23.9357C315.005 24.4715 316.21 24.739 317.631 24.739C319.559 24.739 321.053 24.1502 322.129 22.9719C323.222 21.7936 323.896 20.241 324.137 18.3133H330.242C330.081 20.1068 329.663 21.7269 328.997 23.1727C328.322 24.6185 327.439 25.8498 326.346 26.8675C325.246 27.8851 323.961 28.661 322.491 29.1968C321.013 29.7325 319.398 30 317.631 30C315.43 30 313.455 29.6249 311.688 28.8755C309.945 28.0988 308.475 27.0418 307.27 25.7028C306.065 24.3639 305.141 22.7976 304.499 21.004C303.856 19.1831 303.535 17.2289 303.535 15.1406C303.535 12.9984 303.856 11.0177 304.499 9.19678C305.141 7.34939 306.065 5.74297 307.27 4.37751C308.475 3.01205 309.945 1.94136 311.688 1.16466C313.455 0.387949 315.43 0 317.631 0C319.206 0 320.691 0.227314 322.089 0.682736C323.503 1.13816 324.764 1.80723 325.864 2.69077C326.989 3.5478 327.912 4.61848 328.635 5.90362C329.358 7.18876 329.808 8.66105 330.001 10.3213H323.896ZM344.105 5.98393H335.511V0.682736H359.005V5.98393H350.41V29.3574H344.105V5.98393Z" fill="url(#paint0_linear_119_57)"/>
<defs>
<linearGradient id="paint0_linear_119_57" x1="-2.77108" y1="14.498" x2="360.282" y2="14.498" gradientUnits="userSpaceOnUse">
<stop stop-color="#A952A0"/>
<stop offset="1" stop-color="#53C5F2"/>
</linearGradient>
</defs>
</svg>
