<svg width="16" height="19" viewBox="0 0 16 19" fill="none" xmlns="http://www.w3.org/2000/svg">
<path fill-rule="evenodd" clip-rule="evenodd" d="M1 8.20138C1.01262 4.48774 4.03335 1.48746 7.74699 1.50004C11.4606 1.5127 14.4609 4.53343 14.4483 8.24707V8.32322C14.4026 10.7372 13.0547 12.9684 11.4022 14.7123C10.4572 15.6937 9.40184 16.5625 8.2572 17.3014C7.95114 17.5662 7.49715 17.5662 7.19109 17.3014C5.48471 16.1908 3.98709 14.7885 2.76671 13.1588C1.679 11.7377 1.06145 10.0128 1 8.22423V8.20138Z" stroke="#425466" stroke-width="1.5" stroke-linecap="round" stroke-linejoin="round"/>
<path d="M7.7238 10.4859C8.91407 10.4859 9.87899 9.52101 9.87899 8.33073C9.87899 7.14045 8.91407 6.17554 7.7238 6.17554C6.53352 6.17554 5.5686 7.14045 5.5686 8.33073C5.5686 9.52101 6.53352 10.4859 7.7238 10.4859Z" stroke="#425466" stroke-width="1.5" stroke-linecap="round" stroke-linejoin="round"/>
</svg>
