<svg width="391" height="62" viewBox="0 0 391 62" fill="none" xmlns="http://www.w3.org/2000/svg">
<rect width="391.005" height="62" rx="8" fill="white"/>
<path d="M16 16.6827H22.3052V40.0562H36.2811V45.3574H16V16.6827ZM43.0209 16.6827H64.4666V21.9839H49.3261V28.1285H63.2217V33.0281H49.3261V40.0562H64.7879V45.3574H43.0209V16.6827ZM78.6192 21.9839H70.0249V16.6827H93.5189V21.9839H84.9245V45.3574H78.6192V21.9839ZM100.001 16.6827H105.704V22.8273C105.728 23.7108 105.591 24.5406 105.302 25.3173C105.029 26.094 104.643 26.7767 104.137 27.3655C103.623 27.9542 103.013 28.4498 102.29 28.8514C101.591 29.2265 100.828 29.4675 100.001 29.5743V26.9237C101.013 26.5759 101.712 26.0667 102.089 25.3976C102.459 24.7012 102.651 23.8578 102.651 22.8675H100.001V16.6827ZM118.724 35.8394C118.724 36.8032 118.9 37.6201 119.246 38.2892C119.599 38.9582 120.049 39.5076 120.611 39.9357C121.206 40.3373 121.888 40.645 122.659 40.8594C123.439 41.0466 124.242 41.1406 125.069 41.1406C125.631 41.1406 126.234 41.1004 126.876 41.0201C127.519 40.9132 128.121 40.7253 128.684 40.4578C129.246 40.1904 129.72 39.8289 130.089 39.3735C130.467 38.8916 130.651 38.2892 130.651 37.5663C130.651 36.7896 130.402 36.1606 129.888 35.6787C129.406 35.1968 128.764 34.7952 127.961 34.4739C127.157 34.1526 126.25 33.8715 125.23 33.6305C124.218 33.3896 123.181 33.1221 122.137 32.8273C121.069 32.5598 120.025 32.2386 119.005 31.8635C117.993 31.4618 117.077 30.9534 116.274 30.3374C115.471 29.7213 114.82 28.9582 114.306 28.0482C113.824 27.1108 113.583 25.9863 113.583 24.6747C113.583 23.2024 113.896 21.9301 114.507 20.8594C115.149 19.7614 115.985 18.8514 116.997 18.1285C118.017 17.4056 119.165 16.8699 120.451 16.5221C121.736 16.1743 123.021 16 124.306 16C125.808 16 127.238 16.1743 128.603 16.5221C130.001 16.8434 131.23 17.3791 132.298 18.1285C133.374 18.8779 134.218 19.8418 134.828 21.0201C135.471 22.1711 135.792 23.5767 135.792 25.2369H129.688C129.639 24.3799 129.447 23.6707 129.125 23.1084C128.836 22.5462 128.434 22.1044 127.92 21.7831C127.414 21.4618 126.828 21.2345 126.153 21.1004C125.511 20.9663 124.804 20.8996 124.025 20.8996C123.519 20.8996 123.013 20.9534 122.499 21.0602C121.993 21.1671 121.527 21.355 121.093 21.6225C120.691 21.89 120.362 22.2249 120.089 22.6265C119.824 23.0281 119.687 23.5365 119.687 24.1526C119.687 24.7149 119.8 25.1703 120.009 25.5181C120.226 25.8659 120.643 26.1871 121.254 26.4819C121.896 26.7767 122.772 27.0707 123.864 27.3655C124.989 27.6602 126.451 28.0345 128.242 28.49C128.78 28.5968 129.519 28.7976 130.451 29.0924C131.414 29.3598 132.37 29.8016 133.302 30.4177C134.242 31.0337 135.045 31.8635 135.712 32.9076C136.41 33.9253 136.756 35.2369 136.756 36.8434C136.756 38.155 136.507 39.3735 135.993 40.498C135.487 41.6225 134.724 42.6 133.704 43.4297C132.716 44.2329 131.471 44.8618 129.969 45.3173C128.499 45.7727 126.788 46 124.828 46C123.254 46 121.712 45.7992 120.21 45.3976C118.74 45.0225 117.43 44.4201 116.274 43.5904C115.149 42.7606 114.258 41.7028 113.583 40.4177C112.916 39.1325 112.595 37.6064 112.619 35.8394H118.724ZM177.23 26.3213C177.125 25.5984 176.884 24.9422 176.507 24.3534C176.129 23.7373 175.663 23.2024 175.101 22.747C174.539 22.2916 173.896 21.9438 173.173 21.7028C172.475 21.4353 171.744 21.3012 170.965 21.3012C169.543 21.3012 168.338 21.5823 167.35 22.1446C166.362 22.6803 165.559 23.4161 164.941 24.3534C164.322 25.2634 163.872 26.3076 163.575 27.4859C163.31 28.6643 163.173 29.8819 163.173 31.1406C163.173 32.3454 163.31 33.5237 163.575 34.6747C163.872 35.7992 164.322 36.8169 164.941 37.7269C165.559 38.6369 166.362 39.3735 167.35 39.9357C168.338 40.4715 169.543 40.739 170.965 40.739C172.892 40.739 174.394 40.1502 175.463 38.9719C176.563 37.7936 177.23 36.241 177.471 34.3133H183.575C183.414 36.1068 182.997 37.7269 182.33 39.1727C181.663 40.6185 180.78 41.8498 179.679 42.8675C178.579 43.8851 177.294 44.661 175.824 45.1968C174.354 45.7325 172.732 46 170.965 46C168.772 46 166.788 45.6249 165.021 44.8755C163.278 44.0988 161.808 43.0418 160.603 41.7028C159.398 40.3639 158.475 38.7976 157.832 37.004C157.189 35.1831 156.868 33.2289 156.868 31.1406C156.868 28.9984 157.189 27.0177 157.832 25.1968C158.475 23.3494 159.398 21.743 160.603 20.3775C161.808 19.012 163.278 17.9414 165.021 17.1647C166.788 16.3879 168.772 16 170.965 16C172.547 16 174.033 16.2273 175.422 16.6827C176.844 17.1382 178.097 17.8072 179.198 18.6908C180.322 19.5478 181.246 20.6185 181.969 21.9036C182.692 23.1888 183.149 24.661 183.334 26.3213H177.23ZM196.153 31.1406C196.153 32.3454 196.29 33.5237 196.555 34.6747C196.852 35.7992 197.302 36.8169 197.92 37.7269C198.539 38.6369 199.342 39.3735 200.33 39.9357C201.318 40.4715 202.523 40.739 203.945 40.739C205.366 40.739 206.571 40.4715 207.559 39.9357C208.547 39.3735 209.35 38.6369 209.969 37.7269C210.587 36.8169 211.029 35.7992 211.294 34.6747C211.591 33.5237 211.736 32.3454 211.736 31.1406C211.736 29.8819 211.591 28.6643 211.294 27.4859C211.029 26.3076 210.587 25.2634 209.969 24.3534C209.35 23.4161 208.547 22.6803 207.559 22.1446C206.571 21.5823 205.366 21.3012 203.945 21.3012C202.523 21.3012 201.318 21.5823 200.33 22.1446C199.342 22.6803 198.539 23.4161 197.92 24.3534C197.302 25.2634 196.852 26.3076 196.555 27.4859C196.29 28.6643 196.153 29.8819 196.153 31.1406ZM189.848 31.1406C189.848 28.9984 190.169 27.0177 190.812 25.1968C191.455 23.3494 192.378 21.743 193.583 20.3775C194.788 19.012 196.258 17.9414 198.001 17.1647C199.768 16.3879 201.752 16 203.945 16C206.169 16 208.145 16.3879 209.888 17.1647C211.631 17.9414 213.101 19.012 214.306 20.3775C215.511 21.743 216.434 23.3494 217.077 25.1968C217.72 27.0177 218.041 28.9984 218.041 31.1406C218.041 33.2289 217.72 35.1831 217.077 37.004C216.434 38.7976 215.511 40.3639 214.306 41.7028C213.101 43.0418 211.631 44.0988 209.888 44.8755C208.145 45.6249 206.169 46 203.945 46C201.752 46 199.768 45.6249 198.001 44.8755C196.258 44.0988 194.788 43.0418 193.583 41.7028C192.378 40.3639 191.455 38.7976 190.812 37.004C190.169 35.1831 189.848 33.2289 189.848 31.1406ZM225.567 16.6827H231.832L243.8 35.9197H243.88V16.6827H249.784V45.3574H243.479L231.551 26.1606H231.471V45.3574H225.567V16.6827ZM258.547 16.6827H264.812L276.78 35.9197H276.86V16.6827H282.764V45.3574H276.459L264.531 26.1606H264.451V45.3574H258.547V16.6827ZM291.527 16.6827H312.973V21.9839H297.832V28.1285H311.728V33.0281H297.832V40.0562H313.294V45.3574H291.527V16.6827ZM339.896 26.3213C339.784 25.5984 339.543 24.9422 339.173 24.3534C338.796 23.7373 338.33 23.2024 337.768 22.747C337.206 22.2916 336.563 21.9438 335.84 21.7028C335.141 21.4353 334.402 21.3012 333.631 21.3012C332.21 21.3012 331.005 21.5823 330.017 22.1446C329.021 22.6803 328.218 23.4161 327.607 24.3534C326.989 25.2634 326.531 26.3076 326.242 27.4859C325.969 28.6643 325.84 29.8819 325.84 31.1406C325.84 32.3454 325.969 33.5237 326.242 34.6747C326.531 35.7992 326.989 36.8169 327.607 37.7269C328.218 38.6369 329.021 39.3735 330.017 39.9357C331.005 40.4715 332.21 40.739 333.631 40.739C335.559 40.739 337.053 40.1502 338.129 38.9719C339.222 37.7936 339.896 36.241 340.137 34.3133H346.242C346.081 36.1068 345.663 37.7269 344.997 39.1727C344.322 40.6185 343.439 41.8498 342.346 42.8675C341.246 43.8851 339.961 44.661 338.491 45.1968C337.013 45.7325 335.398 46 333.631 46C331.43 46 329.455 45.6249 327.688 44.8755C325.945 44.0988 324.475 43.0418 323.27 41.7028C322.065 40.3639 321.141 38.7976 320.499 37.004C319.856 35.1831 319.535 33.2289 319.535 31.1406C319.535 28.9984 319.856 27.0177 320.499 25.1968C321.141 23.3494 322.065 21.743 323.27 20.3775C324.475 19.012 325.945 17.9414 327.688 17.1647C329.455 16.3879 331.43 16 333.631 16C335.206 16 336.691 16.2273 338.089 16.6827C339.503 17.1382 340.764 17.8072 341.864 18.6908C342.989 19.5478 343.912 20.6185 344.635 21.9036C345.358 23.1888 345.808 24.661 346.001 26.3213H339.896ZM360.105 21.9839H351.511V16.6827H375.005V21.9839H366.41V45.3574H360.105V21.9839Z" fill="url(#paint0_linear_164_795)"/>
<defs>
<linearGradient id="paint0_linear_164_795" x1="13.2289" y1="30.498" x2="376.282" y2="30.498" gradientUnits="userSpaceOnUse">
<stop stop-color="#A952A0"/>
<stop offset="1" stop-color="#53C5F2"/>
</linearGradient>
</defs>
</svg>
