<svg width="48" height="49" viewBox="0 0 48 49" fill="none" xmlns="http://www.w3.org/2000/svg">
<path d="M11.8969 8.6595C3.77819 14.0501 0.281322 16.4314 0.159448 16.6282C-0.0561766 17.0032 -0.0561766 17.8188 0.178198 18.1657C0.271947 18.3157 1.28444 19.0563 2.41882 19.8063L4.48131 21.1845L2.40007 22.572C1.10632 23.4251 0.262572 24.0532 0.159448 24.222C-0.0561766 24.597 -0.0561766 25.4126 0.178198 25.7594C0.271947 25.9094 1.28444 26.6501 2.41882 27.4001L4.48131 28.7782L2.40007 30.1657C1.10632 31.0188 0.262572 31.6469 0.159448 31.8157C-0.0561766 32.1719 -0.0468016 32.9782 0.159448 33.3344C0.281322 33.5313 3.78756 35.9125 11.8594 41.275L23.3906 48.9344L23.9531 48.9625L24.525 49L36.0937 41.3031C44.1937 35.9219 47.7187 33.5313 47.8406 33.3344C48.0562 32.9594 48.0562 32.1438 47.8218 31.7969C47.7281 31.6469 46.7156 30.9063 45.5812 30.1563L43.5187 28.7782L45.5999 27.3907C46.8937 26.5376 47.7374 25.9094 47.8406 25.7407C48.0562 25.3657 48.0562 24.5501 47.8218 24.2032C47.7281 24.0532 46.7156 23.3126 45.5812 22.5626L43.5187 21.1845L45.5999 19.797C46.8937 18.9438 47.7374 18.3157 47.8406 18.147C48.0562 17.7907 48.0468 16.9845 47.8406 16.6282C47.7187 16.4314 44.2031 14.0407 36.1125 8.66888L24.5437 0.9814H24H23.4656L11.8969 8.6595ZM33.9937 10.7782C39.4312 14.3876 43.8749 17.3595 43.8749 17.3876C43.8749 17.4626 24.1125 30.5594 24 30.5594C23.8875 30.5594 4.12506 17.4626 4.12506 17.3876C4.12506 17.3032 23.9531 4.16889 24.0375 4.19701C24.0844 4.21577 28.5656 7.17826 33.9937 10.7782ZM15.3469 28.4032L23.4656 33.7938H24H24.5344L32.6625 28.3938C37.1343 25.4313 40.8468 23.0126 40.9124 23.0313C41.0718 23.0688 43.8749 24.9157 43.8749 24.9813C43.8749 25.0563 24.1125 38.1532 24 38.1532C23.8875 38.1532 4.12506 25.0563 4.12506 24.9813C4.13444 24.9063 6.97505 23.022 7.1063 23.022C7.17193 23.0126 10.8844 25.4407 15.3469 28.4032ZM15.3469 35.9969L23.4656 41.3875H24H24.5437L32.6625 35.9875C37.1343 33.0251 40.8468 30.6063 40.9124 30.6251C41.0718 30.6626 43.8749 32.5094 43.8749 32.5751C43.8749 32.6032 43.6499 32.7719 43.3687 32.9501C43.0968 33.1282 38.625 36.1 33.4312 39.55L24 45.8125L14.0625 39.2219C8.59692 35.5938 4.12506 32.6032 4.12506 32.5751C4.13444 32.5001 6.97505 30.6157 7.1063 30.6157C7.17193 30.6063 10.8844 33.0344 15.3469 35.9969Z" fill="#635BFF"/>
<path d="M17.2594 12.7001C10.5563 17.1533 10.7813 16.9751 10.7813 17.8095C10.7813 18.8126 11.7375 19.5064 12.6657 19.1782C12.8344 19.122 15.45 17.4251 18.4781 15.4095L24 11.7345L29.5219 15.4095C32.5593 17.4251 35.1843 19.1314 35.3437 19.1876C36.0281 19.422 36.9093 19.0095 37.125 18.3626C37.275 17.9314 37.2 17.247 36.975 16.947C36.8718 16.8251 34.0406 14.8845 30.675 12.6439L24.5531 8.57516H24H23.4562L17.2594 12.7001Z" fill="#635BFF"/>
<path d="M20.1938 18.3438C17.925 19.8531 16.8563 20.6219 16.7157 20.8469C16.3313 21.4188 16.4532 22.2063 17.0063 22.7313C17.2032 22.9094 17.3813 22.9656 17.8407 22.9938L18.4313 23.0312L21.2156 21.1844L24 19.3281L26.7656 21.175C29.4844 22.975 29.55 23.0125 30.0281 23.0125C30.6094 23.0125 31.0406 22.7781 31.3125 22.3375C31.575 21.9063 31.5562 21.2594 31.2937 20.8469C31.1437 20.6313 30.0656 19.8531 27.8156 18.3438L24.5438 16.1688H24.0094H23.475L20.1938 18.3438Z" fill="#635BFF"/>
</svg>
