<svg width="52" height="52" viewBox="0 0 52 52" fill="none" xmlns="http://www.w3.org/2000/svg">
<path d="M15.7143 36.2857C15.7143 38.1043 14.9918 39.8484 13.7059 41.1344C12.4199 42.4204 10.6758 43.1428 8.85714 43.1428C7.03852 43.1428 5.29437 42.4204 4.00841 41.1344C2.72245 39.8484 2 38.1043 2 36.2857M15.7143 36.2857H2M15.7143 36.2857L8.85714 15.7142L2 36.2857M50 36.2857C50 38.1043 49.2776 39.8484 47.9916 41.1344C46.7056 42.4204 44.9615 43.1428 43.1429 43.1428C41.3242 43.1428 39.5801 42.4204 38.2941 41.1344C37.0082 39.8484 36.2857 38.1043 36.2857 36.2857M50 36.2857H36.2857M50 36.2857L43.1429 15.7142L36.2857 36.2857M31.7143 45.4285C31.7143 45.4285 29.4286 36.2857 29.4286 20.2857M20.2857 45.4285C20.2857 45.4285 22.5714 36.2857 22.5714 20.2857M36.2857 49.9999H15.7143V48.8571C15.7143 47.9478 16.0755 47.0757 16.7185 46.4327C17.3615 45.7897 18.2335 45.4285 19.1429 45.4285H32.8571C33.7665 45.4285 34.6385 45.7897 35.2815 46.4327C35.9245 47.0757 36.2857 47.9478 36.2857 48.8571V49.9999Z" stroke="#2FB4F7" stroke-width="2.28571" stroke-miterlimit="10" stroke-linecap="round" stroke-linejoin="round"/>
<path d="M26 8.85714C27.8935 8.85714 29.4286 7.32212 29.4286 5.42857C29.4286 3.53502 27.8935 2 26 2C24.1064 2 22.5714 3.53502 22.5714 5.42857C22.5714 7.32212 24.1064 8.85714 26 8.85714Z" stroke="#2FB4F7" stroke-width="2.28571" stroke-miterlimit="10" stroke-linecap="round" stroke-linejoin="round"/>
<path d="M43.1428 11.1428C42.6192 11.1475 42.1134 11.3344 41.7126 11.6714C41.3118 12.0085 41.0408 12.4746 40.9463 12.9897L31.7143 11.1428H29.4286C26 11.1428 26 13.4285 26 13.4285C26 13.4285 26 11.1428 22.5714 11.1428H20.2857L11.0537 12.9897C10.9592 12.4746 10.6882 12.0085 10.2874 11.6714C9.88652 11.3344 9.38081 11.1475 8.85713 11.1428C8.25092 11.1428 7.66954 11.3836 7.24088 11.8123C6.81223 12.2409 6.57141 12.8223 6.57141 13.4285C6.57141 14.0347 6.81223 14.6161 7.24088 15.0448C7.66954 15.4734 8.25092 15.7143 8.85713 15.7143H20.2857C20.2857 18.24 23.4743 20.2857 26 20.2857C28.5257 20.2857 31.7143 18.24 31.7143 15.7143H43.1428C43.7491 15.7143 44.3304 15.4734 44.7591 15.0448C45.1877 14.6161 45.4286 14.0347 45.4286 13.4285C45.4286 12.8223 45.1877 12.2409 44.7591 11.8123C44.3304 11.3836 43.7491 11.1428 43.1428 11.1428Z" stroke="#2FB4F7" stroke-width="2.28571" stroke-miterlimit="10" stroke-linecap="round" stroke-linejoin="round"/>
</svg>
