<svg width="42" height="42" viewBox="0 0 42 42" fill="none" xmlns="http://www.w3.org/2000/svg">
<path d="M41.31 37.9978L33.3792 30.0903C35.9381 26.8304 37.3265 22.8049 37.3213 18.6607C37.3213 14.9699 36.2269 11.3621 34.1764 8.29336C32.126 5.22463 29.2116 2.83285 25.8018 1.42047C22.392 0.00808537 18.64 -0.361458 15.0201 0.358568C11.4003 1.07859 8.07533 2.85585 5.46559 5.46559C2.85585 8.07533 1.07859 11.4003 0.358568 15.0201C-0.361458 18.64 0.00808537 22.392 1.42047 25.8018C2.83285 29.2116 5.22463 32.126 8.29336 34.1764C11.3621 36.2269 14.9699 37.3213 18.6607 37.3213C22.8049 37.3265 26.8304 35.9381 30.0903 33.3792L37.9978 41.31C38.2146 41.5287 38.4726 41.7022 38.7568 41.8206C39.0411 41.939 39.346 42 39.6539 42C39.9618 42 40.2667 41.939 40.551 41.8206C40.8352 41.7022 41.0932 41.5287 41.31 41.31C41.5287 41.0932 41.7022 40.8352 41.8206 40.551C41.939 40.2667 42 39.9618 42 39.6539C42 39.346 41.939 39.0411 41.8206 38.7568C41.7022 38.4726 41.5287 38.2146 41.31 37.9978ZM4.66517 18.6607C4.66517 15.8926 5.48599 13.1867 7.02384 10.8852C8.56168 8.58364 10.7475 6.7898 13.3048 5.73051C15.8622 4.67123 18.6762 4.39407 21.391 4.93409C24.1059 5.47411 26.5997 6.80705 28.557 8.76436C30.5143 10.7217 31.8472 13.2154 32.3872 15.9303C32.9273 18.6451 32.6501 21.4592 31.5908 24.0165C30.5315 26.5738 28.7377 28.7596 26.4361 30.2975C24.1346 31.8353 21.4287 32.6562 18.6607 32.6562C14.9488 32.6562 11.389 31.1816 8.76436 28.557C6.13969 25.9323 4.66517 22.3725 4.66517 18.6607Z" fill="#AB98CB"/>
</svg>
