<svg width="42" height="42" viewBox="0 0 42 42" fill="none" xmlns="http://www.w3.org/2000/svg">
<path d="M41.0011 38.3076L41.0019 38.3084C41.1796 38.4846 41.3205 38.6942 41.4168 38.9251C41.513 39.156 41.5625 39.4037 41.5625 39.6539C41.5625 39.9041 41.513 40.1518 41.4168 40.3827C41.3205 40.6136 41.1796 40.8232 41.0019 40.9994L40.9994 41.0019C40.8232 41.1796 40.6136 41.3205 40.3827 41.4168C40.1518 41.513 39.9041 41.5625 39.6539 41.5625C39.4037 41.5625 39.156 41.513 38.9251 41.4168C38.6942 41.3205 38.4846 41.1796 38.3084 41.0019L38.3076 41.0011L30.4001 33.0703L30.1258 32.7952L29.8202 33.0351C26.6375 35.5333 22.7073 36.8888 18.6612 36.8838H18.6607C15.0565 36.8838 11.5332 35.815 8.53642 33.8127C5.53964 31.8103 3.20393 28.9642 1.82466 25.6344C0.445396 22.3045 0.0845169 18.6404 0.787661 15.1055C1.49081 11.5706 3.22639 8.3235 5.77495 5.77495C8.3235 3.22639 11.5706 1.49081 15.1055 0.787661C18.6404 0.0845169 22.3045 0.445396 25.6344 1.82466C28.9642 3.20393 31.8103 5.53964 33.8127 8.53642C35.815 11.5332 36.8838 15.0565 36.8838 18.6607V18.6612C36.8888 22.7073 35.5333 26.6375 33.0351 29.8202L32.7952 30.1258L33.0703 30.4001L41.0011 38.3076ZM6.66007 10.6421C5.07415 13.0156 4.22767 15.8061 4.22767 18.6607C4.22767 22.4885 5.74829 26.1596 8.455 28.8663C11.1617 31.573 14.8328 33.0937 18.6607 33.0937C21.5152 33.0937 24.3057 32.2472 26.6792 30.6613C29.0527 29.0753 30.9026 26.8212 31.995 24.1839C33.0874 21.5466 33.3732 18.6447 32.8163 15.8449C32.2594 13.0452 30.8848 10.4735 28.8663 8.455C26.8478 6.43651 24.2761 5.0619 21.4764 4.505C18.6767 3.9481 15.7747 4.23392 13.1374 5.32632C10.5001 6.41872 8.24599 8.26863 6.66007 10.6421Z" fill="#2FB4F7" stroke="#E7F0F9" stroke-width="0.875"/>
</svg>
