<svg width="160" height="160" viewBox="0 0 160 160" fill="none" xmlns="http://www.w3.org/2000/svg">
<circle cx="80" cy="80" r="79.5" fill="white" stroke="#DEEAF6"/>
<path d="M77.3214 50.23C71.3795 51.4254 66.7503 56.1367 65.7189 62.0551C65.4963 63.3208 65.4963 65.9694 65.7189 67.2352C66.2346 70.2002 67.8285 73.1887 69.9732 75.2162L70.7935 75.9897L70.0786 76.1303C65.4963 77.0328 60.9022 80.3728 58.1481 84.8029C56.8824 86.8538 55.8745 89.4204 55.3237 92.0221C55.0658 93.2644 55.0541 93.4988 55.019 101.035C54.9721 109.637 54.9486 109.262 55.7573 109.766C56.1323 110 56.437 110 80.1927 110C103.948 110 104.253 110 104.628 109.766C105.448 109.262 105.413 109.637 105.366 101.035C105.319 93.5105 105.319 93.2644 105.05 92.0221C104.71 90.3697 104.007 88.2367 103.362 86.8772C100.807 81.4862 96.0727 77.5015 90.7403 76.2358L89.6269 75.978L90.3184 75.3217C92.3224 73.4114 93.7171 71.0206 94.4554 68.2782C94.8656 66.7195 94.9711 63.7779 94.6664 62.102C93.8343 57.4727 90.9513 53.5818 86.826 51.5309C85.3962 50.8277 84.4938 50.5113 82.9702 50.2183C81.4467 49.9253 78.8097 49.9253 77.3214 50.23ZM82.6421 53.8748C86.8846 54.8475 90.166 58.2462 91.0333 62.5239C91.3146 63.8599 91.2208 66.321 90.8692 67.575C89.6152 71.9699 85.6774 75.2514 81.2005 75.6381C75.5869 76.1303 70.5005 72.3449 69.3637 66.8484C69.1176 65.6882 69.1176 63.6021 69.3637 62.4418C70.606 56.3945 76.6533 52.4919 82.6421 53.8748ZM74.9188 81.6737V84.0528L73.7469 89.9009C73.1023 93.1238 72.5749 96.0185 72.5749 96.3467C72.5749 96.71 72.657 97.0498 72.7859 97.2491C72.9851 97.5538 78.9387 102.617 79.3723 102.851C79.6536 103.003 80.7318 103.003 81.013 102.851C81.4467 102.617 87.4002 97.5538 87.5994 97.2491C87.7284 97.0498 87.8104 96.71 87.8104 96.3467C87.8104 96.0185 87.283 93.1238 86.6384 89.9009L85.4665 84.0528V81.662V79.2712L86.7322 79.3532C90.9278 79.6111 93.8929 80.9119 96.7173 83.7481C99.1081 86.1272 100.643 88.9985 101.393 92.4675C101.757 94.1317 101.874 96.3467 101.874 101.703V106.484H80.1809H58.488L58.5466 100.531C58.5934 95.8896 58.6403 94.3426 58.7927 93.4754C59.4372 89.5844 61.0428 86.3616 63.668 83.7481C65.4025 82.0019 67.1136 80.9119 69.2934 80.1384C70.8053 79.6111 72.235 79.3767 74.368 79.3064L74.9188 79.2946V81.6737ZM81.9506 81.0526V82.8105H80.1927H78.4347V81.0526V79.2946H80.1927H81.9506V81.0526ZM82.2319 86.5256C82.267 86.6428 82.6655 88.6352 83.1226 90.9556C83.5796 93.2761 83.9781 95.2567 84.0132 95.3622C84.0484 95.5028 83.5093 96.0302 82.1733 97.1553C81.1185 98.0343 80.2395 98.7492 80.1927 98.7492C80.1458 98.7492 79.2668 98.0343 78.212 97.1553C76.876 96.0302 76.3369 95.5028 76.3721 95.3622C76.4072 95.2567 76.8057 93.2761 77.2628 90.9556C77.7198 88.6352 78.1183 86.6428 78.1534 86.5256C78.212 86.3498 78.4113 86.3264 80.1927 86.3264C81.974 86.3264 82.1733 86.3498 82.2319 86.5256Z" fill="#635BFF"/>
</svg>
