<svg width="160" height="160" viewBox="0 0 160 160" fill="none" xmlns="http://www.w3.org/2000/svg">
<circle cx="80" cy="80" r="79.5" fill="white" stroke="#DEEAF6"/>
<path d="M77.19 50.2283C71.6113 51.412 67.3922 55.7366 66.3374 61.3153C66.0678 62.792 66.0912 65.0892 66.4077 66.6127C66.689 68.0426 67.0288 68.9685 67.7555 70.3631C68.5056 71.8047 69.2673 72.7774 70.8144 74.2307C71.8106 75.1566 72.2442 75.6605 72.4786 76.1293C72.7951 76.7622 72.7951 76.7974 72.8302 79.5281L72.8654 82.2823L73.9319 84.5325L75.0101 86.7945H80.0028H84.9955L86.0738 84.5325L87.152 82.2823L87.1754 79.5281C87.2223 76.0707 87.152 76.2348 89.3905 74.0198C91.3946 72.0274 92.2384 70.785 93.0588 68.5934C94.0785 65.8978 94.1254 62.2646 93.176 59.405C91.5938 54.6584 87.3981 51.0252 82.4757 50.1697C81.0928 49.9235 78.4558 49.947 77.19 50.2283ZM82.3937 53.8849C84.433 54.3537 86.5191 55.6546 87.9255 57.354C88.6639 58.2447 89.6366 60.1316 89.9062 61.1864C90.3281 62.8506 90.3281 65.0306 89.8945 66.519C89.3085 68.5465 88.3591 70.0115 86.5191 71.7344C85.019 73.129 84.4681 73.8674 84.0228 75.0745L83.718 75.8949H80.0028H76.2876L76.018 75.1566C75.5727 73.9143 75.2094 73.4338 73.4514 71.6758C71.6465 69.8826 71.0957 69.1091 70.4628 67.5269C69.115 64.1633 69.783 60.1433 72.1505 57.2954C73.0998 56.1586 74.0842 55.385 75.4906 54.6818C77.7643 53.545 79.8387 53.3106 82.3937 53.8849ZM83.5188 80.454C83.5188 81.2744 83.4719 81.4854 83.0969 82.2706L82.675 83.1613H80.0145H77.3541L76.9205 82.2823C76.5337 81.4854 76.4868 81.3096 76.4868 80.4657V79.5281H80.0028H83.5188V80.454Z" fill="#635BFF"/>
<path d="M60.8642 51.7167C60.0204 53.1231 59.4696 54.1193 59.5164 54.1427C59.7274 54.3068 64.1107 56.7797 64.1341 56.7562C64.3451 56.5453 65.9038 53.6622 65.8452 53.6036C65.6929 53.4512 61.4854 51.0486 61.3799 51.0486C61.3213 51.0486 61.0869 51.3533 60.8642 51.7167Z" fill="#635BFF"/>
<path d="M96.3524 52.2909C95.1921 52.9707 94.2077 53.5567 94.1608 53.6036C94.1022 53.6622 95.6609 56.5453 95.8719 56.7562C95.8953 56.7914 100.243 54.3302 100.49 54.1427C100.583 54.0724 98.7784 51.1072 98.6261 51.0838C98.5323 51.0721 97.5127 51.6112 96.3524 52.2909Z" fill="#635BFF"/>
<path d="M57.3838 63.882V65.6986H60.0208H62.6578V63.882V62.0654H60.0208H57.3838V63.882Z" fill="#635BFF"/>
<path d="M97.3486 63.882V65.6986H99.9856H102.623V63.882V62.0654H99.9856H97.3486V63.882Z" fill="#635BFF"/>
<path d="M61.7785 72.2618C60.5597 72.9649 59.5518 73.5861 59.5518 73.633C59.5518 73.7736 61.2629 76.7153 61.3332 76.7153C61.3918 76.7153 65.3766 74.4299 65.7985 74.1604C65.9157 74.0783 65.7399 73.6916 65.0601 72.5196C64.5679 71.664 64.1225 70.9726 64.0874 70.9726C64.0405 70.9726 63.0091 71.5586 61.7785 72.2618Z" fill="#635BFF"/>
<path d="M94.9575 72.5196C94.2777 73.6799 94.0902 74.0783 94.2074 74.1604C94.5941 74.4065 98.6258 76.7153 98.6727 76.7153C98.7196 76.7153 100.349 73.9846 100.489 73.6564C100.524 73.5861 96.0591 70.9726 95.9185 70.9726C95.8833 70.9726 95.4497 71.664 94.9575 72.5196Z" fill="#635BFF"/>
<path d="M62.763 90.8965C61.2511 91.166 59.3174 91.7989 57.9696 92.4787C55.9655 93.4866 54.8872 94.3187 52.3791 96.8033L50 99.1473V104.574V110H69.1856H88.3711L96.118 106.238C107.592 100.647 107.721 100.577 108.447 99.8857C108.858 99.4989 109.221 98.995 109.514 98.409C109.936 97.5534 109.948 97.5065 109.948 96.1822C109.948 95.0453 109.901 94.7172 109.69 94.1781C109.151 92.8654 108.002 91.7286 106.725 91.2364C105.928 90.9199 104.369 90.8144 103.595 91.002C103.197 91.1074 88.418 96.2525 86.8358 96.8385C86.7186 96.8854 86.6834 96.6627 86.6834 95.9478C86.6834 93.5452 85.195 91.5059 82.9448 90.8496C82.3822 90.6855 81.2102 90.6621 73.1586 90.6738C64.7789 90.6855 63.8999 90.6972 62.763 90.8965ZM82.476 94.7406C82.8627 95.1039 82.9682 95.2797 83.0151 95.7134C83.0971 96.4166 82.8158 97.0143 82.2416 97.3659C81.8197 97.6355 81.8197 97.6355 75.9948 97.6706L70.1583 97.7058V99.452V101.21H77.8114H85.4528L94.9343 97.8699C100.325 95.9712 104.603 94.5297 104.826 94.5297C105.33 94.5297 105.974 94.9164 106.197 95.3501C106.584 96.0884 106.291 97.1081 105.588 97.5065C105.412 97.612 101.204 99.6747 96.2469 102.089L87.2343 106.484H70.4396H53.6332V103.577V100.671L55.2388 99.0887C58.0282 96.3463 60.0557 95.1977 63.2201 94.5297C64.1577 94.3304 64.9664 94.307 73.1235 94.307L82.0072 94.2953L82.476 94.7406Z" fill="#635BFF"/>
</svg>
