<svg width="48" height="31" viewBox="0 0 48 31" fill="none" xmlns="http://www.w3.org/2000/svg">
<path fill-rule="evenodd" clip-rule="evenodd" d="M24 2.71593C21.4455 0.943419 18.4095 -0.00437461 15.3002 1.51801e-05C6.85567 1.51801e-05 0 6.85569 0 15.2998C0 23.7439 6.85567 30.5995 15.3002 30.5995C18.4094 30.6041 21.4454 29.6564 24 27.8841C26.5547 29.6562 29.5906 30.6038 32.6998 30.5995C41.1443 30.6 48 23.7443 48 15.2998C48 6.85569 41.1443 1.51801e-05 32.6998 1.51801e-05C29.5905 -0.00437461 26.5545 0.943419 24 2.71593ZM21.6083 25.8343H7.05355C9.40517 27.6815 12.3099 28.6839 15.3002 28.68C17.9158 28.68 20.3569 27.9277 22.4199 26.6278C22.1397 26.3734 21.869 26.1087 21.6083 25.8343ZM25.5801 26.6278C27.7113 27.9719 30.1801 28.6835 32.6998 28.68C40.0844 28.68 46.08 22.6844 46.08 15.2998C46.08 7.91512 40.0844 1.92002 32.6998 1.92002C30.1801 1.91627 27.7112 2.62794 25.5801 3.97226C28.6633 6.77242 30.6 10.8118 30.6 15.2998C30.6 19.7883 28.6633 23.8276 25.5801 26.6278ZM24 5.13748C26.8638 7.59185 28.68 11.2354 28.68 15.2998C28.68 19.3646 26.8638 23.0082 24 25.4625C21.1362 23.0082 19.32 19.3646 19.32 15.2998C19.32 11.2354 21.1362 7.59185 24 5.13748ZM18.5177 21.047H3.21551C3.70728 22.0777 4.32881 23.0413 5.06498 23.9143H20.0567C19.4431 23.016 18.9272 22.0548 18.5177 21.047ZM17.4294 16.2598H1.9538C2.02433 17.2492 2.20212 18.2087 2.47641 19.127H17.8834C17.6413 18.1879 17.4893 17.2278 17.4294 16.2598ZM17.8834 11.473H2.47641C2.19781 12.4066 2.02256 13.3679 1.9538 14.3398H17.4294C17.4906 13.3563 17.6449 12.3977 17.8834 11.473ZM20.0567 6.68573H5.06498C4.32886 7.55879 3.70734 8.52235 3.21551 9.55299H18.5177C18.9273 8.54525 19.4432 7.58406 20.0567 6.68573ZM22.4199 3.97226C20.2888 2.62794 17.8199 1.91627 15.3002 1.92002C12.3098 1.91591 9.40504 2.91827 7.05355 4.76573H21.6083C21.869 4.4913 22.1397 4.22663 22.4199 3.97226Z" fill="#2FB4F7"/>
</svg>
