<svg width="48" height="48" viewBox="0 0 48 48" fill="none" xmlns="http://www.w3.org/2000/svg">
<circle cx="24" cy="24" r="24" fill="#F6F9FC"/>
<path d="M29 14H20C19.4696 14 18.9609 14.2107 18.5858 14.5858C18.2107 14.9609 18 15.4696 18 16V32C18 32.5304 18.2107 33.0391 18.5858 33.4142C18.9609 33.7893 19.4696 34 20 34H32C32.5304 34 33.0391 33.7893 33.4142 33.4142C33.7893 33.0391 34 32.5304 34 32V19L29 14Z" stroke="#A559A6" stroke-width="1.5" stroke-linecap="round" stroke-linejoin="round"/>
<path d="M28 14V18C28 18.5304 28.2107 19.0391 28.5858 19.4142C28.9609 19.7893 29.4696 20 30 20H34" stroke="#A559A6" stroke-width="1.5" stroke-linecap="round" stroke-linejoin="round"/>
<path d="M26 24V30" stroke="#A559A6" stroke-width="1.5" stroke-linecap="round" stroke-linejoin="round"/>
<path d="M29 27L26 24L23 27" stroke="#A559A6" stroke-width="1.5" stroke-linecap="round" stroke-linejoin="round"/>
</svg>
